<svg xmlns="http://www.w3.org/2000/svg" viewBox="0 0 829.1 1370.38"><defs><style>.cls-1{fill:#353535;}</style></defs><title>code-icon</title><g id="Layer_2" data-name="Layer 2"><g id="Draw_Layer" data-name="Draw Layer"><path class="cls-1" d="M544.67,115.13q-16.59,14.11-33.14,28.27-16.4,14-32.73,28-8.29,7.15-16.56,14.32-8.46,7.32-16.94,14.62-16.84,14.53-33.65,29.11-33.2,28.79-66.31,57.66-33.59,29.29-67.15,58.6Q244.76,374.84,211.34,404L177.74,433.3Q160.83,448,144,462.87q-25,22.08-49.84,44.31s0,0,0,0c22.68-19.26,45.37-38.51,67.89-58Q179,434.64,195.77,420l33.82-29.4q16.64-14.46,33.31-28.89l33.63-29.21q33.53-29.1,67-58.22,33.17-28.84,66.25-57.78,16.85-14.74,33.66-29.53,16.15-14.14,32.25-28.34,12.18-10.78,24.32-21.59,12.32-10.93,24.63-21.88s0,0,0,0Z"/><path class="cls-1" d="M614.89,68.75Q605.82,75.69,597,83c-3.1,2.56-6.24,5.07-9.35,7.6q-5.12,4.16-10.2,8.36Q557.89,115,538.69,131.57c-3,2.6-6.08,5.15-9.11,7.74l-10.08,8.59-19.38,16.52q-19.38,16.53-38.81,33-9.55,8.1-19.13,16.16C435.77,219,429.4,224.42,423,229.84l-38.77,32.94q-19.19,16.3-38.45,32.52c-3,2.52-6,5-9,7.53l-10.07,8.55-19.37,16.44q-38.76,32.9-77.64,65.66Q210.41,409.78,191,426c-12.87,10.82-25.82,21.54-38.6,32.47q-12.74,10.9-25.29,22Q121,486,114.84,491.59c-4.41,4-8.76,8.11-13.1,12.21,0,0,0,0,0,0,6.33-4.81,12.62-9.66,18.84-14.61,6.41-5.12,12.77-10.31,19.11-15.51,12.91-10.58,25.63-21.39,38.27-32.28s25.63-22,38.46-32.94,25.62-21.88,38.43-32.81q38.69-33,77.56-65.78c6.33-5.36,12.62-10.75,18.93-16.12l19.15-16.29q19.31-16.43,38.69-32.78c12.78-10.82,25.61-21.59,38.31-32.51,6.41-5.51,12.89-10.94,19.34-16.41s13-11,19.46-16.46l39-32.84c6.42-5.41,12.81-10.84,19.24-16.23s12.91-10.89,19.32-16.37q13.07-11.19,26-22.58l6.06-5.37c2.14-1.91,4.31-3.77,6.46-5.67,4.25-3.77,8.44-7.61,12.58-11.5a0,0,0,0,0,0,0Z"/><path class="cls-1" d="M570.25,106.59q-29.69,23.47-58.7,47.77c-9.56,8-19,16.06-28.57,24.07l-14.52,12.2-7,5.86c-2.37,2-4.67,4-7,6Q425.78,226.84,397,251c-19.11,16.09-38.31,32.08-57.41,48.18q-14.43,12.16-28.88,24.31-14.6,12.21-29.19,24.43c-19.26,16.13-38.6,32.16-57.62,48.58q-9.3,8-18.43,16.25-4.48,4-8.93,8.09c-2.88,2.63-5.72,5.3-8.63,7.9l-.73.54a1.73,1.73,0,0,0-.74,1,1.6,1.6,0,0,0,2,2,1.5,1.5,0,0,0,.7-.42h0l.92-.89.89-.74c9.77-7.52,19.4-15.23,29-23s19.29-15.93,28.78-24.08q28.68-24.63,57.37-49.25t57.27-49q28.46-24.39,57-48.72,14.31-12.21,28.65-24.4,7-5.92,14-11.8c4.83-4,9.56-8.16,14.34-12.24,19-16.22,38-32.33,56.79-48.77,6.06-5.31,12.13-10.62,18.15-16s12.07-10.85,18.07-16.31a0,0,0,0,0,0,0Z"/><path class="cls-1" d="M454,205.18c-9.4,6.86-18.82,13.69-28.12,20.68s-18.67,14.26-27.79,21.65q-6.83,5.53-13.55,11.2c-4.49,3.78-8.92,7.63-13.38,11.45Q357.76,281.56,344.44,293c-17.74,15.28-35.6,30.43-53.42,45.63l-26.6,22.67c-8.89,7.58-17.83,15.1-26.73,22.66q-27,22.95-54,45.93l-27,23c-4.37,3.73-8.76,7.42-13.12,11.16-4.52,3.88-9.05,7.74-13.55,11.63-6,5.21-12,10.52-17.9,15.86-1.37,1.24-2.71,2.53-4.07,3.79l-4.57,4.26c-2.76,2.57-5.6,5.07-8.12,7.88h0a1.21,1.21,0,0,0-.33,1.21,1.26,1.26,0,0,0,1.84.75c1-.65,2-1.36,3-2,.57-.39,1.1-.85,1.65-1.27l1.64-1.27,7.12-5.49c2.19-1.69,4.39-3.36,6.55-5.08q3.56-2.84,7.11-5.7c9.26-7.46,18.32-15.14,27.43-22.78,2-1.71,4-3.45,6.07-5.16l7.06-5.94,13.58-11.43,27.16-22.86q27-22.73,53.89-45.6c17.78-15.09,35.65-30.08,53.46-45.14q13.46-11.37,27-22.7c9-7.54,18-15,27-22.56l13.48-11.35c4.49-3.78,9-7.53,13.46-11.36q13.33-11.46,26.17-23.46,8.6-8,17-16.2,8.65-8.45,17.26-16.93a0,0,0,0,0,0,0Z"/><path class="cls-1" d="M95.26,512.87a305.2,305.2,0,0,0,19.31,30.84c3.56,5,7.34,9.75,11.12,14.53,3.94,5,7.95,9.91,11.95,14.85,0,0,0,0,0,0-6.39-10.55-12.72-21.17-19.68-31.36a297.55,297.55,0,0,0-22.7-28.86h0a0,0,0,0,0,0,0Z"/><path class="cls-1" d="M82.9,497.09q7.14,11.6,14.49,23.06c2.35,3.67,4.69,7.35,7.14,11q3.89,5.72,7.79,11.43c10.43,15.24,21.26,30.2,32,45.22q32.17,45,64.26,90,32.44,45.49,64.88,91,16.09,22.68,32.14,45.39t31.81,45.13q31.9,45.2,63.66,90.51c10.67,15.2,21.32,30.41,32.12,45.52s21.64,30,32.59,44.9q7,9.55,14.07,19.08s0,0,0,0q-15.1-22.56-30.38-45-15.76-23.08-31.9-45.89Q385.7,923,353.74,877.76,337.87,855.16,322,832.58t-31.79-45.3q-16-22.86-31.88-45.74t-31.77-45.82q-31.63-45.52-63.24-91.05c-10.52-15.19-21-30.4-31.56-45.55q-7.87-11.28-15.93-22.42c-1.28-1.76-2.57-3.5-3.83-5.26s-2.41-3.35-3.65-5Q104,520.71,99.63,515q-7.4-9.59-15-19.05l-.09-.11,0,0h0a1,1,0,0,0-.73-.31,1.05,1.05,0,0,0-.9,1.57Z"/><path class="cls-1" d="M85.75,501.64q16.19,24.4,33.53,48,8.84,12,18.06,23.68c6.17,7.84,12.53,15.52,18.83,23.25S168.71,612,175,619.72l18.84,22.84c12.7,15.39,25.22,30.92,37.79,46.41q18.6,22.91,37.22,45.81c6.11,7.54,12.23,15.07,18.27,22.66l18.26,23q18.47,23.19,37,46.37,18.26,22.9,36.45,45.85Q397.37,895.9,416,919.09q4.49,5.6,8.94,11.23c3.2,4.05,6.48,8,9.73,12.05l18.72,23.15,9,11.11c1.46,1.81,2.92,3.62,4.43,5.4,1.7,2,3.4,4,5.07,6l18.91,23c6.3,7.66,12.57,15.35,18.91,23s12.81,15.1,19.33,22.55c3.19,3.64,6.42,7.24,9.67,10.83,3.68,4.07,7.28,8.21,10.95,12.29q10.81,12,21.78,23.94a0,0,0,0,0,0,0q-10.93-15.62-22.19-31c-7.47-10.27-14.93-20.54-22.58-30.67-7.88-10.43-16-20.67-24.12-30.92l-24.29-30.69c-2.58-3.37-5.16-6.74-7.82-10l-9.71-12.06L442.09,935C429.63,919.5,417,904.13,404.5,888.7q-9.36-11.52-18.74-23c-6.15-7.53-12.25-15.1-18.47-22.57S354.89,828,348.7,820.43L330,797.52q-18.63-22.82-37.31-45.61c-12.34-15.08-24.48-30.33-36.65-45.55Q237.38,683,218.69,659.75q-9.35-11.66-18.64-23.37l-18.38-23.29c-7.66-9.7-15.42-19.33-23.14-29s-15.45-19.27-23.48-28.67c-15.8-18.5-32.33-36.37-49.3-53.8h0a0,0,0,0,0,0,0Z"/><path class="cls-1" d="M133.12,560.35q17.86,24.06,36.2,47.74,9.32,12,18.81,24c6.29,7.88,12.7,15.68,19.07,23.5q19,23.37,38,46.77t37.88,46.91q19,23.57,38.07,47.1C333.91,812,346.91,827.48,360,842.88q9.85,11.61,19.78,23.15s0,0,0,0q-18.09-23.83-36.4-47.47-9.35-12-18.83-23.91t-19-23.64q-37.87-47-75.69-94Q220.4,665.24,211,653.44c-6.31-7.88-12.57-15.79-18.94-23.62-12.74-15.66-25.76-31.08-38.9-46.4q-9.95-11.6-20-23.09h0s0,0,0,0Z"/><path class="cls-1" d="M87,502.21c3.26,4.55,6.52,9.08,9.75,13.65q5.42,7.68,10.76,15.42c3.33,4.81,6.72,9.58,10.09,14.37q5.48,7.79,11,15.56l5.09,7.17c1.68,2.36,3.4,4.69,5.1,7q5.54,7.61,11.11,15.2,10.91,14.91,21.79,29.83t21.86,29.88q11,15,22.06,30,21.92,29.74,43.8,59.52l44,59.79,21.82,29.68,10.47,14.25q5.61,7.63,11.27,15.23,11.09,14.94,22.13,29.93t22.11,29.95l44.11,59.84,10.59,14.36,5.29,7.18c1.93,2.63,3.9,5.23,5.85,7.84l5,6.65c1.77,2.36,3.5,4.74,5.25,7.11l11.48,15.61,44.17,60,44.17,60q11,15,22.11,30t22.26,29.91q12,16.08,24.07,32.14a0,0,0,0,0,0,0q-21.65-30.2-43.49-60.28t-44-60.14l-44-60.12-22-30.06c-7.23-9.87-14.49-19.72-21.65-29.65q-5-6.89-10-13.76L439,979.76l-21.93-30q-21.94-30-43.86-60l-21.93-30.09c-3.43-4.7-6.83-9.42-10.27-14.12L329.7,830.08l-43.58-59.46-43.8-59.77q-22-30-43.89-59.94t-43.93-59.6c-7.19-9.75-14.33-19.54-21.66-29.19S118,542.63,110.52,532.9c-2.39-3.12-4.81-6.2-7.21-9.3l.07.09q-4-5.18-8-10.38c-2.81-3.69-5.58-7.41-8.37-11.12h0a0,0,0,0,0,0,0Z"/><path class="cls-1" d="M537.27,177.8c-6.3,3.27-12.66,6.44-19,9.74s-12.46,6.65-18.63,10.08C487.16,204.59,474.91,212,463,220s-23,16.76-34.37,25.36-23.06,16.85-34.58,25.29-23.4,17-35,25.57q-17.73,13.09-35.54,26.06Q287.93,348,252.17,373.51c-1.93,1.37-3.93,2.65-5.85,4L240,382.13l-12.7,9.16c-8.81,6.36-17.52,12.85-26.27,19.3-8.2,6-16.22,12.35-24.49,18.29-9.21,6.62-18.25,13.43-27.09,20.53l1.66-1.29c-5.44,4.2-10.83,8.46-16.12,12.84-5.11,4.23-10,8.67-15,13.13-9.31,8.47-18.27,17.32-27,26.34,0,0,0,0,0,0,12.69-6.25,25.21-12.81,37.47-19.89,6.31-3.64,12.53-7.42,18.65-11.38s12.28-8.11,18.37-12.23,12.06-8.43,18-12.78c5.64-4.14,11.43-8.09,17.16-12.11q17.92-12.57,35.6-25.48c7.87-5.75,15.8-11.4,23.51-17.36q35.17-26.11,70.63-51.84,17.8-13,35.74-25.71c11.76-8.4,23.41-17,35.14-25.39s23-16.89,34.72-25q8.66-6,17.35-12c6.36-4.38,12.52-9,18.62-13.77,11.27-8.72,22-18,32.49-27.72q7.73-7.15,15.27-14.49c5-4.91,10-9.93,15-14.87l.59-.58s0,0,0,0Z"/><path class="cls-1" d="M100.23,491.94c1.43,2.51,2.8,5.06,4.14,7.61,1.53,2.89,3.13,5.74,4.72,8.6q4.68,8.44,9.4,16.86l4.66,8.32c.72,1.29,1.52,2.54,2.27,3.8q1.42,2.4,2.86,4.78c3.39,5.65,6.92,11.21,10.51,16.74s7.25,10.69,10.88,16l11.38,16.77q5.57,8.2,11,16.49c3.56,5.43,7.09,10.89,10.67,16.31,7.41,11.22,15.24,22.17,23,33.16s15.47,21.89,23.22,32.83q23.25,32.83,46.94,65.35c5.71,7.88,11.36,15.8,17.2,23.58,6.11,8.15,12.43,16.15,18.78,24.11,12.32,15.44,24.88,30.68,37.38,46,0,0,0,0,0,0-13.61-23.21-27.07-46.54-41.34-69.35-7.15-11.42-14.74-22.56-22.22-33.76s-14.89-22.19-22.36-33.27Q240.87,679.53,218,646.47c-7.61-11.06-15.23-22.12-23.17-33-3.85-5.25-7.76-10.46-11.63-15.7s-7.83-10.81-11.71-16.24L163,569.69c-2.7-3.77-5.42-7.53-8-11.37-1.33-2-2.79-3.86-4.21-5.77s-2.85-3.82-4.3-5.72q-4.78-6.3-9.7-12.49c-2.89-3.61-5.79-7.2-8.79-10.72q-4.74-5.57-9.51-11.12c-3-3.51-6-7-9-10.55s-6.06-6.76-9-10.24a.16.16,0,0,0-.12-.06c-.14,0-.28.16-.18.29Z"/><path class="cls-1" d="M97.73,488q13.83,28,29.93,54.72,8.11,13.44,16.92,26.45c2.84,4.19,5.82,8.29,8.71,12.45L162.58,595c2.83,4.07,5.61,8.19,8.55,12.19,3.2,4.36,6.2,8.87,9.26,13.33,5.71,8.3,11.32,16.67,17,25q17.32,25.49,34.58,51,8.55,12.63,17.06,25.3c5.64,8.39,11.12,16.88,16.66,25.34s11.29,16.8,17,25.18,11.54,17,17.46,25.42,11.78,16.82,17.62,25.25,11.84,16.92,17.79,25.35c12,17,24.29,33.71,36.53,50.49,24.62,33.75,49.6,67.23,74.51,100.77,6.2,8.36,12.44,16.69,18.54,25.12s12.12,16.85,18.27,25.21c12.32,16.74,25.11,33.14,37.94,49.49q9,11.49,18.09,22.93s0,0,0,0c-10.76-17.71-21.55-35.41-32.61-52.95-5.54-8.78-11.09-17.55-16.81-26.21s-11.51-17.2-17.26-25.8-11.37-17.33-17-26l-17-26.06q-17.13-26.29-34.29-52.55c-5.62-8.62-11.37-17.16-17.06-25.74s-11.44-17.21-17.19-25.8S358.66,844,352.78,835.44s-11.67-17-17.57-25.4-11.75-16.89-17.59-25.36-11.84-16.8-17.81-25.16S288.07,743,282.05,734.9s-12.15-16.37-18.11-24.63q-18-25-35.9-50.11c-11.84-16.53-23.74-33-35.45-49.66-2.86-4.06-5.76-8.09-8.49-12.24-3-4.51-6.15-8.88-9.24-13.31l-8.59-12.32c-3.14-4.51-6.21-9.06-9.42-13.52-12.29-17.1-25.54-33.54-39.35-49.42-6.42-7.37-13-14.56-19.75-21.66h0a0,0,0,0,0,0,0Z"/><path class="cls-1" d="M695.78,1305c-6.44.17-12.87.6-19.32.8-12.08.37-24.17.75-36.25,1.19l-37.12,1.35c-12.53.45-25.07.56-37.6.85-24.95.58-49.89,1.29-74.84,1.65-24.68.35-49.35.78-74,1.11s-49.65.53-74.47.88c-24.62.35-49.25.75-73.88,1.05s-49.4.65-74.1,1c-27.79.42-55.58.83-83.37,1.48-13.7.32-27.36,1.13-41,2-6.7.41-13.4.86-20.09,1.4q-10.29.83-20.58,1.56c-.59,0-.58,1,0,.9q8,.34,16.06.76l9,.48c3.2.17,6.4.27,9.6.39,12.17.46,24.35.92,36.53,1s24.35-.05,36.53-.12,24.49-.24,36.74-.38q74.05-.85,148.1-1.92c12.24-.16,24.49-.29,36.73-.51,12.47-.22,24.95-.45,37.42-.62,24.7-.34,49.4-.6,74.1-.92,12.39-.16,24.79-.36,37.19-.41l37.65-.16q18.62-.07,37.25-.17l18.06-.11c6.53,0,13.06.11,19.58.17,14.09.12,28.18.3,42.28.35,7.31,0,14.62,0,21.93.17s14.84.18,22.27,0c6.82-.15,13.62-.52,20.43-1,7.2-.52,14.42-1.08,21.6-1.9,6.85-.79,13.69-1.72,20.51-2.73s13.49-2.21,20.26-3.2c0,0,0,0,0,0q-2.7-.32-5.38-.69c-11.31-1.56-22.64-3-34-4-5.72-.53-11.45-.86-17.19-1.14-6.27-.31-12.54-.65-18.81-.73q-2.78,0-5.55,0-6.1,0-12.2.16Z"/><path class="cls-1" d="M794.83,1307.07c-4.15.18-8.29.47-12.43.78a0,0,0,0,0,0,0c4.14-.06,8.29-.16,12.43-.35s8.29-.49,12.43-.78a0,0,0,0,0,0,0c-4.15.09-8.29.17-12.43.35Z"/><path class="cls-1" d="M789.33,1306c-13.18.18-26.35.65-39.52,1.16-13.39.52-26.78,1.26-40.17,2q-20.44,1.05-40.88,2.09-40.31,2-80.62,3.89t-80.61,3.55q-40.32,1.73-80.63,3.58t-80.47,3.71q-81.23,3.91-162.48,7.46c-30.49,1.38-61,2.55-91.47,3.89-15.74.69-31.48,1.64-47.2,2.71-7.35.5-14.69,1.09-22,1.67q-11.62.92-23.24,1.9s0,0,0,0q19.49-.15,39-.45c13.59-.22,27.19-.63,40.77-1.16,13.29-.51,26.58-1.22,39.86-1.88s26.75-1.32,40.12-2q40.92-2,81.84-3.81c26.92-1.23,53.83-2.5,80.75-3.67l40.17-1.73c13.41-.58,26.82-1.21,40.23-1.82q40.29-1.82,80.58-3.75t80.74-3.83q40.4-1.9,80.81-3.58,22.5-1,45-1.85c15.8-.63,31.59-1.21,47.38-1.89q22.87-1,45.72-2.59c15.39-1.08,30.77-2.42,46.14-3.83a0,0,0,1,0,0,0h-2.65q-18.56,0-37.12.26Z"/><path class="cls-1" d="M716.14,1327.54c-12.72,0-25.44.15-38.15.26s-25.45.27-38.18.29l-38.57.06c-6.16,0-12.33,0-18.49,0l-19.81-.06-38.1-.12q-19.17-.07-38.34-.05-38.72,0-77.43,0H383.44q-25.63,0-51.26,0l-76.92.12q-21.54,0-43.09,0H179.35l-83.76,0c-7.15,0-14.3,0-21.45.08-7,.08-13.91.19-20.85.42q-10.18.33-20.36.73c-3.47.13-6.94.26-10.41.43l-4.6.22a19.94,19.94,0,0,0-2.65.2l-2.23.23a.46.46,0,0,0-.45.45.45.45,0,0,0,.45.45l3.35.34,1.53.06,3.07.13c3,.13,6,.25,9,.35q9.48.31,19,.6l8.68.25c3,.08,6,.09,9,.13q9.81.12,19.62.09,38.15-.19,76.31-.36c25.35-.11,50.69-.28,76-.38l76.52-.26q38.41-.12,76.81-.34,38.84-.19,77.67-.39l38.41-.23q19.09-.11,38.17-.29l38.09-.32c6.17,0,12.34,0,18.52-.06l20.06-.07,20.06-.06c7.12,0,14.25,0,21.38.06,14.23.05,28.47.14,42.7.14s28.62-.15,42.92-.42q21.13-.39,42.25-1.35s0,0,0,0c-25.06-1.06-50.16-1.37-75.24-1.37Z"/><path class="cls-1" d="M546.79,152.25c-9,3.64-17.77,7.82-26.52,12-4.21,2-8.31,4.19-12.43,6.4l-5.54,3c-1.81,1-3.51,2.25-5.23,3.36-3.74,2.4-7.64,4.67-11.24,7.28q-7.11,5.2-14.18,10.43c-7.94,5.88-15.56,12.16-23.23,18.4q-10.38,8.47-20.67,17-5.22,4.34-10.4,8.72c-2.89,2.43-5.93,4.69-8.88,7-16.38,13.07-32.64,26.3-48.94,39.47-12.33,10-24.89,19.62-37.37,29.4-14.38,10.68-28.89,21.19-43,32.25l-28.61,22.47c-6.1,4.8-11.9,10-17.75,15.11q-7.48,6.53-14.87,13.16c-2,1.81-4.08,3.57-6,5.44Q200,414.68,188.34,426.33q-4.62,4.6-9.18,9.23c-1.79,1.81-3.37,3.89-5,5.82Q162,455.59,150.14,470c-6,7.32-11.64,14.95-17.33,22.51q-13,17.3-25.58,35s0,0,0,0c16.81-15,33.58-30,50-45.42,7.18-6.72,14.61-13.2,21.85-19.89,5.42-5,10.66-10.27,16.34-15Q209.79,435.3,223.86,423c5.29-4.61,10.72-9,16.09-13.55q12.77-10.7,25.26-21.7c2-1.73,4-3.31,6.06-5l15.3-12.44,14.1-11.47c13.91-10.6,27.93-21.06,41.6-32q24.15-19.25,48.08-38.75c6.14-5,12.26-10,18.23-15.27q7.47-6.54,14.85-13.16c2.63-2.35,5.32-4.65,7.86-7.08q21.43-20.64,42.31-41.85c5.6-5.66,11.5-11,17.24-16.55,5.2-5,10.8-9.58,16.22-14.33l9.82-7.46c3.11-2.37,6.37-4.55,9.58-6.8,6.66-4.66,13.38-9.24,20.33-13.45,0,0,0,0,0,0Z"/><path class="cls-1" d="M106.24,482.1a13,13,0,0,0,1,4c.59,1.32,1.21,2.63,1.83,3.94.77,1.63,1.62,3.25,2.52,4.82A128.53,128.53,0,0,0,119,506.6s0,0,0,0c-1.29-2.41-2.45-4.87-3.65-7.32v0c-1.3-3.14-2.69-6.3-3.85-9.53.78,1.43,1.53,2.87,2.35,4.28l4.11,7.09q4,6.82,7.93,13.62c5.22,8.92,10.24,18,15.42,26.91q13.82,23.87,28,47.52c1.13,1.87,2.37,3.69,3.57,5.52q4.95,7.62,10,15.2,9.09,13.77,18.42,27.36c11.12,16.25,22.37,32.4,33.56,48.6,3.36,4.86,6.47,9.87,9.65,14.83L265.8,733.9c9.95,15.53,20.06,31,30.12,46.42s20.11,31,30.15,46.59C336.47,843,347.07,859,357.67,875c10.09,15.25,20.63,30.2,31.26,45.07,5.62,7.87,11.5,15.57,17.33,23.29,5.4,7.12,10.42,14.5,15.61,21.78,1.71,2.41,3.43,4.81,5.15,7.2,2,2.83,3.77,5.93,5.65,8.86q3.74,5.82,7.54,11.6c4.53,6.87,8.88,13.8,14,20.29a122.62,122.62,0,0,0,21.28,21.06,79.63,79.63,0,0,0,12.58,8.05,123.17,123.17,0,0,0,13.77,5.94c8.37,3.09,16.75,6.23,25.38,8.54a0,0,0,0,0,0,0c-4.15-2.29-8.22-4.78-12.2-7.36-7-4.54-14-8.9-20.67-13.91a95.81,95.81,0,0,1-10.49-9.6c-3.07-3.27-5.89-6.77-8.65-10.29a175.56,175.56,0,0,1-10.1-14.68c-3.24-5.3-6-10.87-9.08-16.27q-3.81-6.74-7.69-13.42c-1.79-3.09-3.51-6.26-5.48-9.24q-4.86-7.37-9.8-14.68c-4.91-7.25-10-14.3-15.22-21.32-4.9-6.59-9.9-13.1-14.71-19.74-7.1-9.78-14.3-19.49-21.47-29.22-4.59-6.25-8.82-12.8-13.19-19.2q-8.39-12.28-16.77-24.55c-5.34-7.8-10.39-15.81-15.58-23.71-20-30.45-40.17-60.81-59.89-91.46-10-15.47-19.69-31.1-30.18-46.23-10.81-15.61-21.66-31.2-32.42-46.84q-10.82-15.75-22-31.26c-3.75-5.24-7.58-10.42-11.21-15.74q-17-25-34.63-49.53c-4.77-6.66-9.5-13.36-14.41-19.92q-5.33-7.12-10.68-14.2l-2.76-3.65c-1.43-1.9-2.72-3.91-4.21-5.76a16.31,16.31,0,0,0-4.82-4.29,1.71,1.71,0,0,0-.85-.21,1.68,1.68,0,0,0-1.81,1.74Z"/><path class="cls-1" d="M655.34,1319.14c-6.05,0-12.1.1-18.15.17l-19.29.23h-2.19c-1.62,0-3.25,0-4.86.09l-31.68,1.79-18.49,1c-2.33.13-4.67.17-7,.4l-62.23,6c-19.52,1.86-39,4.11-58.51,6.16-17.8,1.89-35.67,3-53.51,4.39l-17.39,1.34c-2.19.17-4.4.45-6.59.5l-27.63.58-35.19.73c-6.42.13-12.86-.14-19.29-.26-12.42-.24-24.84-.52-37.25-.69-6.78-.09-13.55-.37-20.33-.55q-17.19-.44-34.41-.63c-8.51-.1-17-.6-25.54-.85q-20.83-.63-41.68-1-12.14-.24-24.27-.37c-2.81,0-5.62.11-8.43.15-5.4.1-10.81.27-16.21.71-8.34.68-16.91,2.19-24.25,6.4,0,0,0,.05,0,0A49.7,49.7,0,0,1,51.22,1343a97.9,97.9,0,0,1,18.87,0c3.25.24,6.5.59,9.74.93s6.5.59,9.73,1l11.42,1.49q16.29,2.1,32.61,4c9.64,1.14,19.31,2.15,29,3.15,7.22.75,14.44,1.57,21.67,2.05,18.65,1.26,37.33,2.59,56,2.92,13,.23,26,.39,39,.58,5.66.08,11.29.15,17,0l38.21-1,16.43-.42c1.73,0,3.47,0,5.19-.16q32.46-2.71,64.92-5.38c5.8-.48,11.58-1.23,17.37-1.87L478,1345.9c17.83-2,35.67-3.72,53.51-5.51l17-1.71c1.89-.19,3.79-.44,5.68-.55l31.68-1.83,18.48-1.07c2.34-.13,4.7-.38,7-.4l32.39-.22q6.48,0,12.95-.14c1.37,0,2.72-.06,4.08,0q14.12.74,28.24,1.3l10.23.39c2.17.08,4.34.42,6.48.64q12.64,1.29,25.29,2.42,8.41,1.24,16.81,2.4c4.72.66,9.37,1.45,14.07,2.31,5.59,1,11.15,2.06,16.72,3.2a184.55,184.55,0,0,1,20.57,5.15l.15.08-.08.07a33.83,33.83,0,0,1-4.33,2.45c-6.11,2.39-12.46,4.06-18.76,5.82-3.62,1-7.29,1.87-11,2.61,0,0,0,0,0,0,4.92-.07,9.82-.39,14.73-.77,3.84-.3,7.68-.56,11.5-1.08a51.43,51.43,0,0,0,8.22-1.56c2.46-.75,5.3-2,6.78-4.17,1.11-1.65,2-3.83,1.42-5.85s-2.29-3.41-4-4.68a15.24,15.24,0,0,0-3.63-1.76c-1.41-.56-2.82-1.13-4.24-1.66-1.64-.62-3.31-1.15-5-1.67-5-1.59-10.06-3-15.14-4.42-8-2.19-16-4.14-24.1-5.77q-8.85-1.78-17.7-3.48c-3.25-.62-6.56-1-9.84-1.45q-10.21-1.44-20.43-2.79c-2.43-.32-4.81-.6-7.25-.77q-17.55-1.27-35.13-2.29c-1.27-.07-2.53-.09-3.8-.09ZM51.41,1342.93h0Zm749,8.21q-.16.25-.35.48v0l.35-.45Zm-2.07.77.54.22-.54-.22Zm.86.59a6.76,6.76,0,0,1-.58.45l.58-.45Z"/><path class="cls-1" d="M710.77,2.71l0,0c-1.24,1-2.46,2-3.66,3-1,.88-2,1.79-3,2.64L697.26,14,690,19.47c-2.77,2.09-5.68,4-8.51,6-5.18,3.65-10.55,7-15.84,10.5a175.79,175.79,0,0,0-17.28,12.4c-2.47,2.1-5.08,4.11-7.44,6.33l-9.28,8.77c-5.52,5.21-11,10.43-16.57,15.6l-11,8.2c-10.68,8-21.29,16-32.08,23.79-11.53,8.35-23.14,16.6-34.58,25.06l-38.48,28.46c-3.41,2.52-6.72,5.16-10.06,7.76L466.12,190c-3.59,2.8-7.26,5.51-10.76,8.42l-17.22,14.36q-14.42,12-28.81,24l-22.11,18.55c-3.25,2.73-6.52,5.42-9.68,8.24L357.3,281.8l-7,6.3-1.86,1.69-3.25,2.79q-4,3.43-8,6.82L331,304.65c-1.23,1-2.49,2-3.75,3a35.58,35.58,0,0,0-5.9,5.86,6.24,6.24,0,0,0,2.41,10.32l-11.68,9.25c-10,7.92-19.82,16.08-29.71,24.14-1.62,1.32-3.11,2.85-4.65,4.27l-10.63,9.78c-4,3.67-8.06,7.25-11.9,11.06q-9.4,9.33-18.75,18.71c-3.69,3.71-7.46,7.32-11.22,10.94q-16.17,15.6-32.42,31.12-8,7.61-16,15.16l-10.09,9.58c-2.69,2.55-5.54,4.94-8.32,7.38-4.71,4.11-9.49,8.12-14.44,11.95l.1-.08c-6.46,4.92-13.23,9.41-20.16,13.67-3.65,2.24-7.33,4.41-11,6.58s-7.64,4.15-11.48,6.18c0,0,0,0,0,0,4.31-2,8.63-4,12.85-6.16,4.49-2.34,8.94-4.73,13.36-7.22a216.74,216.74,0,0,0,24.38-16c3.53-2.68,7-5.45,10.42-8.25,2.27-1.85,4.59-3.67,6.78-5.6l8.17-7.22q16.76-14.84,33.38-29.84c4-3.61,8-7.26,11.94-10.9,5-4.62,10.15-9.16,15.07-13.9q8.67-8.34,17.29-16.71l6.35-6.18c1.41-1.37,2.93-2.64,4.39-4l15.75-14.16c2.31-2.08,4.57-4.23,7-6.16q13-10.3,26-20.6,13.63-10.48,27.24-21l0,0-.65.51c.31-.24.61-.45.89-.69l.3-.23,2.19-1.69,5.61-4.33,19.16-14.8-.19.15L370,298q-22.78,20.41-45.38,41-28.46,26-56.93,52c-11.88,10.86-23.73,21.74-35.67,32.52,0,0,0,.05,0,0q30.71-25.26,61.45-50.48,35.25-29,70.19-58.32c21-17.73,41.86-35.73,62.75-53.65,13.19-11.31,26.54-22.44,39.84-33.61q5.09-3.84,10.14-7.73l-.22.17L500.59,201l-.21.16.55-.43.57-.44-.25.19c5.78-4.5,11.43-9.19,17.15-13.78q6.83-5.5,13.59-11.08c10.48-8.6,21-17.14,31.47-25.76l17.64-14.5c5.21-4.29,10.33-8.7,15.48-13,4.73-4,9.39-8.05,14.08-12.08,5.26-4.52,10.61-8.92,16-13.29,2-1.61,4-3.18,6-4.76L638,88.13l2.87-2.2c1-.74,1.93-1.49,2.89-2.24a12.32,12.32,0,0,0,1.84-1.77,8.91,8.91,0,0,0,.61-.78l.35-.5h0a8.62,8.62,0,0,0,1.22-4.44,8.85,8.85,0,0,0-1-4.15l.25-.22q11.81-8.48,23.67-16.9,4.47-3.18,8.91-6.41c3.88-2.31,7.76-4.65,11.53-7.13,2.76-1.82,5.61-3.54,8.29-5.47L708,29.68c3.09-2.23,6-4.75,8.92-7.14.81-.66,1.57-1.36,2.33-2.08l2.48-2.32a20.06,20.06,0,0,0,2.07-2.37l1.44-1.87a9.17,9.17,0,0,0,1.27-4.67A9.24,9.24,0,0,0,717.31,0c-2.23,0-5.07.9-6.54,2.71ZM448.07,226.78q5.92-4.12,11.81-8.27L452,225.4l-.15.13-5,3.89L443.57,232c-9.82,7.53-19.62,15.08-29.58,22.42L393.9,269.25c-5,3.66-9.85,7.44-14.77,11.16-2.45,1.85-4.92,3.68-7.38,5.53l9.42-8.5c3.25-2.93,6.46-5.88,9.79-8.7l5.69-4.82.46-.35q8.25-6.41,16.51-12.83,17.2-12,34.44-23.95Zm-3.77,4.68-.53.4.53-.4ZM144.06,487.12l.14-.1-.14.1ZM476.38,219.74l.39-.3-.39.3Z"/><path class="cls-1" d="M150.22,491.63a1.94,1.94,0,0,0-1.4,1.31c-.66,2.18-.39,4.41-.33,6.65a70,70,0,0,0,.58,7.74,56.79,56.79,0,0,0,2.84,10.54c2.06,6,4.77,11.83,7.26,17.69v0l0,.11,0,.07v0A403.29,403.29,0,0,0,177,573.08a143.42,143.42,0,0,0,12,18.48c4,5.19,8.25,10.14,12.32,15.27q9.89,12.46,19.84,24.89,9.21,12.23,18.52,24.38c5.45,7.11,10.49,14.56,15.69,21.86,10.36,14.55,20.33,29.36,30.25,44.2s20,29.54,29.52,44.58q16.39,25.76,32.54,51.67c4.09,6.59,8,13.37,12.47,19.69l21.05,29.52c4.86,6.82,10.29,13.24,15.5,19.78,5.06,6.37,10.1,12.77,15.26,19.06q19,23.09,37.91,46.2c10.63,13,21,26.13,31.45,39.24l18.59,24.65c5.36,7.12,10.14,14.67,15.11,22.07,1.92,2.85,4,5.66,5.76,8.62l8.42,14.16,6.93,11.67c2.43,4.09,4.66,8.3,7,12.46l14.28,25.5c4.38,7.82,8.91,15.54,13.38,23.31,2.5,4.34,5.25,8.56,7.9,12.82,2.29,3.68,4.81,7.24,7.24,10.82,5,7.42,10.3,14.73,15.64,21.94,1.81,2.43,3.65,4.83,5.58,7.18a14,14,0,0,0,15,4.17c3.29-1.19,6-2.89,7.78-6a12.77,12.77,0,0,0,1.31-10,39.69,39.69,0,0,0-4.21-9.32c-2-3.06-4.39-5.88-6.64-8.74-3.17-4-6.63-7.84-10.08-11.62q-5.77-6.33-11.59-12.61c-6.4-6.92-12.69-13.95-19-20.93l-.19-.21c-4.93-7.55-9.58-15.27-14.32-22.93-4.91-7.94-9.69-16-14.53-23.94-2-3.25-4.07-6.4-6.1-9.6l-9.7-15.23c-1.61-2.53-3.43-4.94-5.18-7.39l-11.46-16.09c-5.3-7.46-11.15-14.52-16.83-21.69-5-6.3-10-12.58-15.11-18.74-6.56-7.88-13-15.85-19.7-23.63Q448,931,429.46,909.34c-5.31-6.2-10.66-12.36-15.84-18.67l-21.69-26.39q-9-12.33-18-24.67l-6.86-9.4c-.45-.62-.83-1.32-1.25-2l-4-6.26q-16.29-25.79-32.8-51.42c-4.25-6.56-8.4-13.2-12.79-19.67L296,721c-4.45-6.56-9-13.1-13.44-19.65-4.71-6.87-9.32-13.8-14.2-20.55l-18.91-26.15c-1.48-2-3.06-4-4.6-6q-5.82-7.48-11.66-14.91c-2-2.51-3.89-5.09-6-7.54q-4.48-5.32-9-10.61-5.34-6.31-10.7-12.58c-5.61-6.58-11.6-12.83-17-19.61-7.64-10.06-14-21.08-19.89-32.21-3-5.56-5.78-11.21-8.53-16.88s-5.63-11.23-8.1-17a61.64,61.64,0,0,1-4-13.27c-.24-1.83-.38-3.66-.53-5.5a31.08,31.08,0,0,1-.2-4.46l.2-.85.34-.6.53-.31.85-.14.83,0,.95.32c2.24,1.33,4.34,2.84,6.5,4.31,0,0,0,0,0,0-1.77-1.37-3.51-2.74-5.3-4.07a5.35,5.35,0,0,0-3.06-1.22,3.33,3.33,0,0,0-1,.15Zm9,44.06,0-.05,0-.08.05.13Z"/><path class="cls-1" d="M262.45,1304.36h-2.65c-2.06,0-4.13,0-6.18,0q-14.26.43-28.51.93c-3.63.13-7.26.49-10.88.73q-8.21.57-16.43,1.17c-4.24.31-8.47,1-12.69,1.49l-11.64,1.45c-1.85.23-3.77.35-5.6.71-13.53,2.7-27,5.45-40.49,8.53,0,0,0,0,0,0,3.94-.55,7.88-1.11,11.82-1.65l-.14,0c9.52-1.26,19.06-2.35,28.58-3.55,3-.39,6.11-.4,9.15-.57q8.64-.51,17.27-1c2.55-.15,5.09-.19,7.65-.23q9-.12,18.07-.29c8.35-.15,16.69.07,25.05.16,15.59.17,31.18.8,46.75,1.45,9.33.39,18.67.81,28,1.06,10.12.26,20.23.47,30.34.69,16.35.37,32.71.48,49.06.69,15.91.21,31.82.11,47.72.51l33.32.83c5.89.15,11.76.28,17.63.65l35.12,2.17,8.42.53c2.92.19,5.84.59,8.75.89,12.33,1.25,24.66,2.47,37,3.75,8.82,1.34,17.64,2.65,26.46,4,6.68,1,13.4,1.86,20,3.1q16.62,3.1,33.3,6c7,1.22,14,2.69,21,4.06q26.08,5.09,52.26,9.7c16.77,2.93,33.6,5.48,50.4,8.24q7.21,1.19,14.42,2.35c5.43.88,10.87,2,16.37,2.22,0,0,0,0,0,0-5.31-1.22-10.44-3.23-15.64-4.84q-6.57-2-13.18-3.89c-8.18-2.31-16.42-4.44-24.67-6.51q-26.84-6.74-53.79-13.08c-7.43-1.75-14.87-3.51-22.31-5.22-7-1.63-14.07-3.29-21.15-4.71q-16.58-3.29-33.21-6.38c-6.56-1.22-13.18-2-19.79-3l-28.22-3.91c-3-.42-6.12-.63-9.18-.92l-18-1.66-16.54-1.53c-1.78-.17-3.55-.36-5.33-.45l-31.61-1.71c-6.39-.35-12.79-.83-19.19-.94l-34-.59c-17.49-.31-35-.25-52.48-.29-15.39,0-30.8,0-46.2-.18q-26.53-.37-53.08-.78c-7.7-.11-15.41-.22-23.13-.23h-4.87l-13.31,0Z"/><path class="cls-1" d="M733.93,51.23l-1,.43a7.71,7.71,0,0,0-1.65.92c-.84.53-1.61,1.18-2.44,1.73-1.4.93-2.85,1.78-4.28,2.67-2.57,1.61-5.14,3.24-7.74,4.8-6,3.59-11.93,7.2-17.92,10.75-6.2,3.67-12.44,7.29-18.59,11L659.18,96.39C648,103.18,636.86,110,625.54,116.49l-22.81,13.14c-1.41.81-2.79,1.67-4.19,2.51l-12.07,7.28-12.87,7.76c-1.89,1.14-3.85,2.21-5.69,3.43l-18.27,12.06-18.78,12.39c-5.5,3.63-10.9,7.44-16.35,11.15L494.3,200c-1.17.79-2.3,1.63-3.45,2.46L480.25,210l-22.33,16c-3.83,2.74-7.57,5.6-11.34,8.42l-23.7,17.73c-1.7,1.27-3.44,2.49-5.08,3.83l-5.43,4.39-33.5,27q-15.11,12.17-30.21,24.35-30.39,23.38-60.31,47.34-9.41,7-18.81,14.09l-7.1,5.34c-.57.43-1.19.79-1.78,1.19l-5.38,3.61q-6.26,4.19-12.5,8.4c-1.69,1.13-3.36,2.27-5.07,3.35-6.2,3.91-12.39,7.84-18.59,11.74q-9.9,6.25-19.73,12.6c-2.59,1.68-5.14,3.39-7.71,5.1-1.51,1-3,2.11-4.45,3.17-.89.63-1.73,1.33-2.56,2-.66.55-1.29,1.13-1.92,1.73a10.26,10.26,0,0,0-1.35,1.72s0,0,0,0a13.12,13.12,0,0,1,2.09-2.12l0,0a94.07,94.07,0,0,1,10.34-6.69c3.23-1.87,6.45-3.74,9.68-5.59,6.3-3.61,12.64-7.18,19-10.78s12.46-7.09,18.67-10.66c2.49-1.43,4.9-3,7.34-4.51l12.8-7.89c1.56-1,3.14-1.91,4.64-3l10.26-7.18,12.08-8.48c1.39-1,2.8-1.94,4.16-3,11.1-8.37,22.16-16.81,33.25-25.2,11.54-8.73,23.09-17.44,34.38-26.49l33.52-26.86,29-23.26,36.69-27.24c4.25-3.16,8.63-6.15,12.95-9.22l23.11-16.41c3.73-2.65,7.54-5.18,11.32-7.74l24.24-16.39c3.67-2.49,7.38-4.92,11.09-7.35l24.88-16.31c1.71-1.11,3.39-2.31,5.13-3.36l6.54-3.93,24.8-14.86c4.59-2.75,9.26-5.38,13.9-8l13.39-7.66c2.11-1.21,4.25-2.39,6.34-3.63q18.59-11.13,37.15-22.31c5.71-3.45,11.42-6.88,17.17-10.26l9.12-5.34-.68.59q-16.62,14.23-33.54,28.09c-10.72,8.78-21.51,17.49-32.2,26.3q-17.42,14.36-34.87,28.72c-11.44,9.4-22.95,18.7-34.44,28-5.06,4.11-10.1,8.25-15.15,12.38-4.71,3.85-9.37,7.78-14.16,11.54L508.18,238.6,489.93,252c-4.61,3.4-9.25,6.75-13.82,10.2l-21.79,16.43c-4.07,3.07-8.16,6.12-12.2,9.22L419.86,305c-4,3-7.88,6.16-11.92,9.08-11.7,8.44-23.43,16.84-35.07,25.34s-23.51,17.19-35.27,25.76l-21.06,15.35-10.47,7.63c-1.09.79-2.16,1.6-3.27,2.35l-21.26,14.38-11,7.41c-1.18.8-2.35,1.62-3.55,2.39q-11,7-22,14c-4.45,2.87-8.86,5.81-13.38,8.58-12.2,7.46-24.31,15.08-36.54,22.5q-12.27,7.44-24.48,15c-4.39,2.71-8.9,5.2-13.37,7.76q-10.08,5.8-20.12,11.65l-4.41,2.57c-1.29.75-2.65,1.41-4,2.11Q118.39,504.4,108,510l-7.7,4.16c-4.07,2.21-8.22,4.27-12.34,6.38a0,0,0,0,0,0,0c4.69-1.93,9.4-3.83,14-5.88l12-5.32q10.37-4.63,20.71-9.3c.55-.25,1.07-.55,1.61-.81L141,496.9q6.73-3.42,13.44-6.86,6.32-3.24,12.62-6.5c1.49-.77,3-1.5,4.47-2.33q11.09-6.29,22.13-12.65c4.61-2.65,9.23-5.28,13.79-8q12.17-7.32,24.29-14.72c1.94-1.19,3.92-2.33,5.82-3.57l6.41-4.15q12.12-7.87,24.19-15.83c4-2.63,7.93-5.39,11.87-8.12l23.69-16.45c3.82-2.65,7.52-5.44,11.24-8.21Q332,376.75,349.15,364c11.48-8.5,22.93-17,34.47-25.48l21.06-15.37c3.26-2.38,6.54-4.72,9.74-7.19l32.74-25.32-.54.42c5.79-4.43,11.64-8.79,17.45-13.18,5.33-4,10.62-8.13,16-12.08l19.79-14.52c4.51-3.31,9.07-6.55,13.48-10L535.59,224c4.09-3.19,8.11-6.42,12.14-9.68q18.23-14.74,36.53-29.4c22.1-17.66,44-35.57,66.08-53.25,10.58-8.46,21.19-16.87,31.7-25.42Q699.45,92,716.76,77.72c3.21-2.64,6.42-5.25,9.64-7.87L731.1,66l3.12-2.53c.89-.73,1.79-1.44,2.67-2.17a33.57,33.57,0,0,0,2.85-2.83,4.4,4.4,0,0,0,1.26-3,4.28,4.28,0,0,0-2.13-3.71,9.62,9.62,0,0,0-1.78-.73,3.75,3.75,0,0,0-1-.14,9.08,9.08,0,0,0-2.11.34Z"/><path class="cls-1" d="M157.86,498.75q.68,6.14,1.56,12.26c.69,4.77,1.65,9.49,2.72,14.19,1.17,5.12,2.46,10.23,4,15.25q3.68,11.72,7.45,23.41c.41,1.27.9,2.51,1.39,3.76q2.16,5.55,4.35,11.09,4,10.27,8.16,20.5c.61,1.53,1.35,3,2,4.52q2.48,5.36,5,10.71,5.53,11.84,11.14,23.62c1.49,3.14,3.07,6.22,4.66,9.32q6.21,12.11,12.52,24.16c5,9.51,10,19,15,28.51l13.12,25.13,5.08,9.74c.65,1.23,1.25,2.49,1.93,3.71q10.8,19.12,21.61,38.23l8.32,14.73c.53.94,1.17,1.83,1.75,2.73l5.42,8.46,24.82,38.73c2.45,3.82,5.11,7.51,7.66,11.26l15.91,23.37c2.56,3.75,5,7.61,7.68,11.28L362.55,903l15.65,21.46c2.19,3,4.42,5.94,6.7,8.88,8.3,10.63,16.6,21.27,25,31.83q11.46,15.34,23.12,30.55,6.63,8.68,13.28,17.34l6.68,8.66c4,5.17,8.38,10.1,12.74,15a226.35,226.35,0,0,0,25.08,24.06c4.29,3.5,8.53,7,12.94,10.36,9,6.78,18,13.52,27.5,19.56,0,0,0,0,0,0-9.27-7.2-18-15.15-26.7-23-4.27-3.81-8.34-7.82-12.5-11.74-4.33-4.07-8.38-8.47-12.38-12.86-5.33-5.85-10.3-12-15.15-18.27l.12.15-.15-.2-.39-.51.12.15c-2.38-3.09-4.73-6.19-7-9.37q-3.77-5.33-7.55-10.64-4.9-6.88-9.82-13.74-7-9.73-14-19.42c-2.89-4-5.7-8-8.71-11.94q-13.76-17.88-27.73-35.59l-25.86-35.48c-2-2.71-4-5.4-5.84-8.17L344.2,860c-6.33-9.34-12.8-18.61-18.85-28.13L298.4,789.51c-1.55-2.45-3-4.92-4.39-7.46l-12.44-22.29-12.33-22.08c-1.43-2.55-2.82-5.1-4.15-7.71-13.06-25.46-26-51-39.55-76.17q-4.7-8.78-9.46-17.52c-2.34-4.31-4.47-8.74-6.7-13.11q-6-11.79-12.18-23.52c-.65-1.23-1.35-2.45-1.94-3.71q-1.68-3.66-3.37-7.31-6-12.94-12.09-25.84Q175.45,552,171,541.15c-1.83-4.47-3.51-9-5.1-13.54s-3.05-9.14-4.34-13.78c-1.39-5-2.55-10-3.68-15.09h0s0,0,0,0Zm306.65,526,0,0-.31-.4.27.35Z"/><path class="cls-1" d="M688.57,57.55a54.46,54.46,0,0,0-6.87,3.05c-4.78,2.37-9.43,5-14.11,7.59-2.65,1.45-5.24,3-7.84,4.52-3,1.78-6.14,3.46-9.07,5.38q-9.57,6.27-19.08,12.63c-2.22,1.48-4.33,3.14-6.48,4.71q-6.25,4.55-12.48,9.13-16.73,12.31-33.4,24.72c-5.43,4.07-11,8-16.44,12q-9.22,6.77-18.39,13.59c-5.25,3.91-10.36,8-15.5,12.09L507,184.22q-17.07,13.43-34.06,27c-20.26,16-40.7,31.86-61,47.86l-24,18.92c-4.42,3.48-8.92,6.87-13.26,10.45l-38.86,32q-15.6,12.86-31.1,25.83c-4.73,4-9.56,7.83-14.16,11.93q-8.29,7.39-16.49,14.85Q258,387.64,242.09,402.41c-5,4.68-10,9.48-15.08,14.1q-9.49,8.6-18.89,17.28c-6.38,5.9-12.56,12-18.37,18.49A139.37,139.37,0,0,0,177,469a134.36,134.36,0,0,0-10.15,19.63s0,0,0,0c3-4.82,6-9.67,9.47-14.19l-.07.09.09-.11.1-.13-.08.11a164.8,164.8,0,0,1,20.72-21.61c4.47-3.92,9-7.76,13.71-11.42q10.85-8.47,21.59-17.06c4.52-3.61,8.91-7.38,13.33-11.1q9.29-7.82,18.51-15.71,17.25-14.78,34.19-29.95c3.67-3.27,7.5-6.37,11.24-9.56,7.72-6.57,15.38-13.2,23.07-19.81,10-8.63,20.18-17.15,30.3-25.7l18.6-15.73c3.39-2.86,6.9-5.58,10.35-8.36,11.68-9.39,23.31-18.87,35-28.18l40.43-32q16.59-13.16,33.14-26.38,15.6-12.43,31.32-24.7c6-4.68,11.88-9.4,17.83-14.08q17.5-13.3,34.88-26.75c10.69-8.29,21.19-16.83,31.74-25.3q9.38-7.53,18.7-15.13c7.35-5.51,14.57-11.21,22.13-16.44,4-2.79,8-5.66,12.12-8.36l7.83-5.2c1.84-1.23,3.68-2.45,5.54-3.66a74.33,74.33,0,0,1,9.13-5l.83-.27.72,0,.66.3.48.53.05.62-.33,1.51s0,0,0,0c.14-.41.87-1.77.51-2.27s-.69-1.15-1.36-1.19H693a14.29,14.29,0,0,0-4.43,1.14Zm5.93.81h0ZM176.32,474.47l0,0,0,0,0,0Z"/><path class="cls-1" d="M697.08,74a29.08,29.08,0,0,0-6.47,1.41,44.28,44.28,0,0,0-6.92,2.95c-2.47,1.23-4.87,2.63-7.24,4-4.2,2.45-8.19,5.26-12.16,8.06-1.27.89-2.52,1.81-3.76,2.75l-18.89,14.28c-10.58,8-21.17,16-31.62,24.11l-22.46,17.53c-3.44,2.69-6.86,5.37-10.2,8.18-11.2,9.4-22.33,18.91-33.61,28.22q-34.28,28.32-68.46,56.75c-9.14,7.61-18.24,15.27-27.49,22.75l-40.58,32.84c-1.62,1.31-3.28,2.57-4.93,3.85l-16.11,12.5q-12.93,10-25.87,20.07l.14-.11q-18.89,14.25-37.69,28.62c-3.48,2.67-7,5.28-10.51,7.9q-11.53,8.61-23,17.28c-4.14,3.13-8.42,6-12.68,9-6.33,4.41-12.64,8.86-19,13.28-.69.49-1.44.91-2.16,1.36l-5.72,3.62q-6.16,3.89-12.29,7.8c-5.68,3.63-11.62,6.87-17.43,10.28-3.73,2.18-7.6,4.12-11.4,6.17-1.51.81-3,1.57-4.55,2.33-3.08,1.55-6.14,3.13-9.32,4.49l.1,0-.14.05,0,0,0,0a27.85,27.85,0,0,1-5.39,1.49,16.21,16.21,0,0,1-3.08,0h.09l-.9-.26-.75-.44-.61-.63a3.39,3.39,0,0,1-.37-1.45,10.32,10.32,0,0,1,.13-1.61,0,0,0,0,0,0,0,8.49,8.49,0,0,0-.3,1.63,3.67,3.67,0,0,0,.23,1.59,3.54,3.54,0,0,0,1.49,1.46c3.93,1.61,8.36.29,12.17-1.07,2-.71,3.9-1.52,5.84-2.32,1.73-.71,3.49-1.38,5.2-2.15q5.41-2.45,10.8-4.91c2.59-1.19,5.11-2.53,7.65-3.81q5.17-2.63,10.33-5.27c2.59-1.33,5.08-2.87,7.62-4.3l12.8-7.28c1.48-.85,2.95-1.69,4.39-2.61q11.59-7.38,23.14-14.81c1.65-1.07,3.35-2.08,5-3.21l7-4.93c11.29-7.92,22.59-15.83,33.72-24q12.07-8.84,24.05-17.77c3.67-2.73,7.36-5.44,11-8.22l41.22-31.51c9.91-7.58,19.61-15.41,29.37-23.17s19.29-15.21,28.8-23q36.42-29.8,72.9-59.49c17-13.8,33.8-27.8,50.71-41.69l16.16-12.39c5.1-3.9,10.15-7.88,15.3-11.71,11.36-8.46,22.69-16.93,34.09-25.32,8.4-6.18,16.76-12.63,25.71-18-3.64,3.21-7.47,6.22-11.26,9.26-5,3.83-10,7.61-15,11.43-3.31,2.53-6.68,5-9.94,7.61l-9.17,7.32c-4.78,3.81-9.44,7.78-14.14,11.68-5.56,4.63-11.11,9.27-16.76,13.8-11.26,9-22.68,17.8-33.93,26.8-4.9,3.92-9.79,7.84-14.6,11.87-5.69,4.77-11.41,9.52-17.08,14.33-10.15,8.58-20.24,17.23-30.52,25.66-10.82,8.86-21.69,17.66-32.38,26.68s-21.46,17.92-32,27.06l-21.57,18.67-9.83,8.5c-1.18,1-2.34,2.08-3.55,3.07l-37.11,30.42c-10.9,8.94-21.69,18-32.52,27.05-3,2.48-5.9,5-8.93,7.44L319,392.34c-9.56,7.6-19.13,15.16-28.66,22.79-13.74,10.59-27.52,21.11-41.25,31.72l.1-.08q-19,14.57-38.07,29.15c-10.52,8.07-21.17,16-31.74,24q-14.29,10.84-28.5,21.76-12.14,9.33-24.24,18.71l-8.93,6.94c-1,.75-2,1.48-2.93,2.29q-12.8,11-25.54,22.13-7.09,6.17-14.16,12.36c-5.31,4.65-10.31,9.61-15.38,14.51,0,0,0,.05,0,0C65.1,594,70.39,589.33,76,585q7.67-6,15.33-12.06,13-10.23,25.91-20.53c22.59-16.37,45.21-32.7,67.66-49.27,10-7.41,20.11-14.79,30-22.41q18.82-14.54,37.62-29.12l-.19.14q18.6-14.36,37.12-28.8c10.65-8.26,21.11-16.77,31.64-25.18,4.3-3.43,8.66-6.8,12.89-10.32l17-14.14c10-8.36,20.07-16.74,30.19-25l23.21-18.93c3.28-2.67,6.59-5.31,9.8-8.06q18.22-15.62,36.45-31.25c4.67-4,9.45-7.86,14.17-11.78l20.5-17c4-3.32,8.08-6.52,12.13-9.78L517,235.61c3.25-2.61,6.44-5.3,9.67-8l15.65-12.9c7.64-6.29,15.35-12.49,23-18.73q8.83-6.76,17.64-13.56c5.44-4.18,11-8.19,16.53-12.28,11-8.18,21.85-16.68,32.7-25.11l7-5.42,9.35-6.9c2.63-1.94,5.32-3.79,8-5.65,5.82-4.07,11.71-8,17.54-12.06s11.3-8.08,16.67-12.46c2.68-2.18,5.38-4.35,7.92-6.7l2.35-2.18a30.33,30.33,0,0,0,3.64-4,16.36,16.36,0,0,0,1.44-2.17,8.86,8.86,0,0,0,1.09-4.15,15.15,15.15,0,0,0-.57-3.14,9.51,9.51,0,0,0-2.54-4,9.1,9.1,0,0,0-6.3-2.26l-.77,0Zm.85,13.29a5,5,0,0,1,.81.11l-.81-.11ZM252.11,451.84l.17-.13-.17.13Zm-57.42-5.55h0l0,0,0,0Z"/><path class="cls-1" d="M160.68,495.38c-.63.9-1.19,1.83-1.76,2.75a14.76,14.76,0,0,0-1.39,2.63,23.47,23.47,0,0,0-1.05,7.6,48.6,48.6,0,0,0,.57,7.42,67.8,67.8,0,0,0,1.76,8.46,122.59,122.59,0,0,0,5.66,15.46,153.4,153.4,0,0,0,7.68,15.13c2.78,4.92,5.66,9.79,8.7,14.56s6.23,9.44,9.4,14.12c2.59,3.83,5.14,7.69,7.69,11.56q8.87,13.45,17.8,26.84c1.55,2.32,3.16,4.6,4.63,7,6,9.75,11.92,19.59,17.59,29.56s11.1,20.14,16.2,30.44,10,20.87,14.75,31.4c2.87,6.3,5.81,12.58,8.6,18.93L282,749.33q9.88,22.45,19.85,44.86Q312.2,817.62,322.55,841c1.55,3.51,3.09,7,4.58,10.56v0c.5,1.18,1,2.37,1.47,3.55,0,0,.05,0,0,0-3.09-8.42-6.37-16.77-9.62-25.13q-3.95-10.15-7.94-20.29-8.86-22.56-17.81-45.09-5.37-13.49-10.76-26.94c-2.31-5.74-4.77-11.43-7.18-17.13-4.51-10.68-9.08-21.33-14-31.84a537.36,537.36,0,0,0-33.49-60.21c-1-1.53-1.93-3.07-3-4.55L222,619.8q-4.68-6.72-9.38-13.42c-4.92-7-9.81-14.06-14.82-21-6.37-8.84-13-17.5-18.89-26.64-3-4.56-5.88-9.14-8.58-13.85A144.07,144.07,0,0,1,163,530a93,93,0,0,1-3.22-8.78,62.94,62.94,0,0,1-2.07-9.57,35.59,35.59,0,0,1-.13-9v0a12,12,0,0,1,.79-2.8.41.41,0,0,0,0,0,46.51,46.51,0,0,1,2.35-4.45s0,0,0,0Z"/><path class="cls-1" d="M406,918.89q8,14.76,16,29.46,7.46,13.66,15.1,27.21l5.73,10.1c5.35,9.48,10.64,19,16.65,28.08a310.58,310.58,0,0,0,19.7,26.08c1.44,1.75,2.87,3.49,4.4,5.16l4.34,4.77c5.27,5.77,10.54,11.55,15.9,17.23,2.72,2.89,5.4,5.82,8.16,8.66s5.22,5.48,7.93,8.12a87.84,87.84,0,0,0,8.82,8.06,0,0,0,0,0,0,0,65.41,65.41,0,0,1-6.58-6.74c-1-1.11-2-2.23-3-3.37-2.36-2.77-4.74-5.52-7.06-8.32-4.8-5.82-9.62-11.64-14.37-17.51q-6-7.45-12.11-14.88c-6.51-8.58-12.85-17.29-18.81-26.27s-11.5-18.47-17.08-27.82c-4.82-8.09-9.84-16.06-14.87-24q-6.66-10.51-13.43-20.93c-5.05-7.77-10.26-15.43-15.48-23.08h0s0,0,0,0Z"/><path class="cls-1" d="M143.06,512.34a3.06,3.06,0,0,0-1.29,1.36,4.66,4.66,0,0,0-.17.79c0,.57.07,1.1.16,1.66a39.35,39.35,0,0,0,2.07,7.1l1.72,4.88s.05,0,0,0c-.43-1.49-.85-3-1.27-4.47a63.13,63.13,0,0,1-1.69-6.74c-.08-.79-.13-1.56-.13-2.36l.14-.5.35-.42.52-.37.52-.14a3.21,3.21,0,0,1,1.11.32l-.13-.06a8,8,0,0,1,1.32.8,38.2,38.2,0,0,1,5.58,5.78,93.64,93.64,0,0,1,6.32,9.9c2.33,4.05,4.65,8.09,6.81,12.23,3.64,7,7,14.11,10.5,21.16q4.48,9,9,18c5.28,10.54,10.54,21.09,16,31.52q10.94,20.75,22,41.41c2.06,3.83,4.19,7.63,6.3,11.44q6.87,12.43,13.79,24.82,7.7,13.86,15.47,27.68,6.94,12.37,13.88,24.72l4.77,8.5c.46.82.9,1.67,1.41,2.46l25.47,39.56c1.89,2.92,3.71,5.89,5.73,8.72l13.9,19.53L337,840.82c2.26,3.18,4.61,6.29,6.93,9.43l16.71,22.63c2.45,3.32,4.88,6.66,7.37,9.94l26.9,35.39c3.28,4.32,6.45,8.72,9.68,13.08q7.39,10,14.79,20c.67.89,1.27,1.77,1.87,2.71l5.76,9.06q6.68,10.48,13.4,20.91c.67,1,1.29,2.11,1.9,3.18l6,10.44c3.39,5.86,6.72,11.77,10.21,17.57q5.76,9.55,11.55,19.08l4.41,7.24c1.29,2.11,2.73,4.13,4.09,6.18q3.84,5.82,7.7,11.61c1.05,1.58,2.08,3.17,3.21,4.69q3.87,5.2,7.76,10.38c1.41,1.88,2.79,3.79,4.31,5.58q3.11,3.67,6.24,7.33,3.69,4.33,7.77,8.28a99.44,99.44,0,0,0,9.26,7.8,55.35,55.35,0,0,0,7.15,4.57s0,0,0,0c-.84-.54-1.67-1.09-2.49-1.65l-3-2.35c-1-.79-1.93-1.71-2.88-2.56a110,110,0,0,1-12.46-13.5q-3.24-4.32-6.5-8.64c-.57-.75-1.18-1.48-1.7-2.25l-2.29-3.42c-3.47-5.18-7.08-10.27-10.3-15.61q-5.72-9.48-11.48-18.92c-1.3-2.12-2.45-4.35-3.67-6.51q-3.51-6.24-7-12.46c-6.7-11.82-13.2-23.75-19.8-35.63-2.23-4-4.7-7.84-7.12-11.72q-6.79-10.9-13.64-21.75c-2.34-3.71-5.1-7.16-7.71-10.68l-16.07-21.67c-7.68-10.36-15.57-20.57-23.38-30.83-2.63-3.46-5.3-6.89-7.88-10.38L359,858.92l-14.07-19c-2.32-3.15-4.55-6.35-6.82-9.54l-16.36-23-6-8.4c-.57-.8-1.16-1.59-1.69-2.41l-25.64-39.83c-1.81-2.81-3.69-5.58-5.33-8.5l-11.24-20c-5.8-10.34-11.65-20.67-17.41-31-8-14.46-16-28.93-24.13-43.35-5.9-10.53-11.7-21.12-17.58-31.65q-5.3-9.49-10.63-18.95c-2-3.62-4-7.28-6-10.92Q189.52,580.1,182.83,568l-3.65-6.61c-3.47-6.28-6.86-12.62-10.4-18.85-3.34-5.86-7-11.54-10.72-17.15-3-4.58-6.55-9-11-12.19a5.13,5.13,0,0,0-2.81-1.08,2.39,2.39,0,0,0-1.14.28Zm3.21,1.77.07.06-.07-.06Zm.09.07,0,0,0,0Zm364.89,573.75,0,.06,0-.06Z"/><path class="cls-1" d="M679.81,1291.87q-10.37.47-20.73,1-23,1.11-46,2.34l-12.95.69c-1.33.07-2.67.12-4,.23L572.32,1298q-13,1-26.08,2.13c-1,.09-2.08.19-3.13.31l-10.41,1.23q-15.39,1.83-30.78,3.7c-4.12.5-8.24,1-12.36,1.51l-53.32,6.66-20,2.51c-3.39.42-6.79.73-10.18,1.1l-58.82,6.28-10,1.07-2.68.29c-.32,0-.64.08-1,.1l-15,1L260,1329.73l-6.62.44c-.81.05-1.61.07-2.42.09l-23.15.6q-24.41.66-48.83,1.41c-1.42,0-2.84,0-4.26,0l-12.27,0q-15.54,0-31.1.07c-4.42,0-8.83.1-13.25,0q-14.1-.3-28.19-.57l-9.34-.19c-1.8,0-3.6-.12-5.4-.19-9.07-.34-18.13-.67-27.2-1.06a0,0,0,1,0,0,0c9.56.63,19.12,1.17,28.68,1.73,5.83.34,11.66.51,17.49.74l25.49,1c1.28,0,2.56,0,3.84.05l11.78.14,31.2.33,10.44.1c.93,0,1.85,0,2.77,0q26.22-.54,52.44-1.17l20.13-.5c.77,0,1.54-.08,2.31-.13l8.44-.56L322,1328.2l9.15-.61c.88-.05,1.75-.09,2.63-.18l17.07-1.8,58-6.12c2.88-.3,5.76-.59,8.64-.95l22.92-2.81,50.13-6.16q7.64-.93,15.28-1.83,15.24-1.83,30.48-3.69l8-1c1.3-.16,2.61-.25,3.91-.36q14.27-1.27,28.52-2.57c6.59-.6,13.18-1.19,19.76-1.81.54-.05,1.08-.07,1.61-.11l4.79-.33,14.51-1q23-1.58,46-3.21l18.18-1.27c7.7-.53,15.39-1.08,23.1-1.48,0,0,0,0,0,0-8.34.22-16.68.61-25,1Z"/><path class="cls-1" d="M157.62,492.3q18,35.14,36.6,70c3,5.6,6.09,11.16,9,16.79q7.76,14.82,15.67,29.56,6.4,11.91,12.9,23.75c1.59,2.89,3,5.88,4.51,8.81q4.61,9,9.29,17.9c9.12,17.38,18.54,34.61,27.86,51.88,3.62,6.7,7.76,13.1,11.76,19.58l10,16.24c1.19,1.92,2.35,3.84,3.63,5.7q17.45,25.37,35,50.7c3.13,4.51,6.22,9,9.46,13.45l16.92,23.17c3.57,4.89,7.39,9.6,11.13,14.36l14.32,18.23L404.24,897c5.09,6.76,9.88,13.72,14.75,20.65q7.51,10.7,15,21.38c5.24,7.44,10.44,14.88,15.89,22.15,4.66,6.2,9.3,12.42,14,18.59s9.43,11.9,14.21,17.79q5,6.14,10,12.28c5.06,6.27,10.27,12.44,15.23,18.8a353.73,353.73,0,0,1,20.31,29.23c3.11,5,6,10.17,8.91,15.33q6.85,12.17,13.62,24.36c3.95,7.08,8.1,14,12.39,20.91a242.46,242.46,0,0,0,13.82,20.13l0,0c.86,1.11,1.74,2.2,2.63,3.29,0,0,0,0,0,0-6-10.39-10.47-21.59-15.2-32.58q-5.42-13.41-10.81-26.85c-1.51-3.77-3.11-7.5-4.71-11.24-2.24-5.26-4.42-10.55-6.88-15.71q-4.19-8.78-8.94-17.27c-3.33-5.9-7-11.59-10.82-17.2-3.21-4.75-6.62-9.32-10-13.91q-8.81-11.8-17.88-23.36c-10-12.71-20.06-25.38-30.07-38.09q-17.57-23.72-35-47.5c-5.22-7.1-10.72-14-16.15-21-5-6.4-10-12.84-15.11-19.15l-19.54-24.1-18.26-24.33c-5.12-6.82-9.94-13.88-14.85-20.85q-6.9-9.8-13.72-19.63L315.48,752.4c-1.92-2.78-4-5.5-5.78-8.39l-17-27.81c-1.65-2.7-3.49-5.35-5-8.15l-5.58-10.51c-9.51-17.91-18.91-35.89-28.53-53.73-3.57-6.62-7-13.34-10.86-19.79q-8.83-14.85-17.84-29.59c-4.41-7.22-8.73-14.52-13.33-21.61q-7.21-11.16-14.52-22.25-19.33-29.39-39.38-58.28h0a0,0,0,0,0,0,0Z"/><path class="cls-1" d="M739,47.09C727.17,54.46,714.82,61,702.74,68q-16.57,9.6-32.66,20c-5,3.23-10.08,6.38-15,9.76q-10.59,7.3-21.1,14.69c-11,7.74-21.89,15.67-32.74,23.64s-21.71,15.71-32.49,23.67c-3.31,2.44-6.56,4.95-9.8,7.48l-21.71,17c-3.79,3-7.65,5.84-11.36,8.9l-16,13.28q-13.91,11.5-27.78,23l-37,30.89c-3,2.52-6,5.14-9,7.71L414.59,286.6l-12.64,10.93c-4.09,3.54-8.32,6.92-12.47,10.37-10,8.34-20,16.74-30.08,25Q325.7,360.58,292,388.2c-9.08,7.43-18.19,14.81-27.26,22.25q-9.67,7.92-19.3,15.87c-3.21,2.66-6.51,5.22-9.78,7.82q-15.57,12.38-31.12,24.8c-11,8.76-22,17.51-32.87,26.39-5.54,4.53-11.06,9.08-16.63,13.56a106.78,106.78,0,0,0-9,7.9c-2,2-4.36,3.88-5.62,6.54a5.56,5.56,0,0,0,.6,5.16,4.36,4.36,0,0,0,2.06,1.31c.45.19,1.23.41,1.69.57.85.27,1.68.56,2.53.81,0,0,0,0,0,0-1.4-.47-2.78-1-4.15-1.53h0a5.93,5.93,0,0,1-1.42-.79h0l0,0h0l-.49-.51-.3-.54a5.75,5.75,0,0,1-.41-1.43s0,0,0,.06a6.1,6.1,0,0,1-.05-1.47h0v0h0a4.19,4.19,0,0,1,.39-1.33l0,.07a7.31,7.31,0,0,1,.8-1.33A35.85,35.85,0,0,1,146,508c1.87-1.63,3.7-3.26,5.65-4.78l-.07.06c3.73-2.83,7.54-5.54,11.3-8.32l10.78-8c4.13-3,8.26-6.1,12.42-9.11,10.56-7.65,21.14-15.29,31.66-23q11-8.09,22-16.21c3.45-2.55,6.91-5.07,10.29-7.7q18.2-14.13,36.29-28.4c11-8.74,22-17.66,32.94-26.49q13.75-11.06,27.45-22.15t27.09-22l21.82-17.88c4.19-3.43,8.44-6.78,12.56-10.29l34.37-29.28c3-2.56,6-5.16,9-7.65l16.47-13.52c9.48-7.78,18.94-15.6,28.47-23.33l36.49-29.57,34.55-26.34c3.15-2.4,6.37-4.68,9.6-7q11.18-8,22.25-16c10.63-7.75,21.11-15.71,31.57-23.68,9.93-7.57,19.91-15.07,29.8-22.69,1.77-1.37,3.61-2.66,5.42-4q5.75-4.23,11.48-8.5c4.83-3.6,9.69-7.13,14.55-10.68,10.54-7.68,21.18-15.24,31.68-23,5.09-3.76,10.16-7.54,15.09-11.5a0,0,0,0,0,0,0ZM141.67,512.24v0Zm0,6.57h0Zm-1.24-3.93v0a.21.21,0,0,0,0,0Zm11.09-11.52.06,0-.06,0Z"/><path class="cls-1" d="M667.12,73a22.37,22.37,0,0,0-4.35,1.59c-.87.43-1.68,1-2.51,1.48-1.51.91-2.95,1.95-4.41,2.93l-9.37,6.3q-8.76,5.88-17.39,11.92-10.29,7.24-20.45,14.65c-5.42,3.95-10.88,7.88-16.38,11.72Q572,137.71,552,152.35c-6.42,4.71-12.63,9.71-18.9,14.61q-7.66,6-15.2,12.12c-5.62,4.57-11.15,9.25-16.82,13.76l-22.71,18c-4.69,3.72-9.4,7.4-14.1,11.09l-12.91,10.12c-2,1.59-4.1,3.11-6.06,4.76L426,253c-4.42,3.71-8.87,7.37-13.2,11.17-11.76,10.32-23.57,20.58-35.18,31.06-24.32,21.93-48.53,44-72.88,65.89-4.51,4.06-8.9,8.23-13.32,12.37l-11.79,11c-1.59,1.49-3.21,2.94-4.75,4.47-10.87,10.66-21.75,21.31-32.45,32.16Q236.69,427,231,432.82c-1.51,1.54-3,3-4.5,4.63q-9.5,10.3-18.95,20.64c-4.27,4.67-8.22,9.6-12.14,14.56q-10.18,12.86-19.19,26.55c-3.82,5.75-7.61,11.56-11,17.57q-3.49,6.13-7,12.28-3.77,6.66-7.52,13.33c-2.75,4.9-5.32,9.89-7.93,14.87,0,0,0,0,0,0,3.06-4.89,6.07-9.8,9.25-14.61s6.2-9.43,9.3-14.15l7.36-11.26c1.83-2.8,3.83-5.48,5.77-8.2q5.48-7.66,11.23-15.11l-.14.18c6.73-8.66,13.8-17,21.14-25.18,2.76-3.06,5.62-6,8.51-8.9q5.78-5.84,11.53-11.69c1.93-2,3.81-4,5.79-5.9C243.39,432,254.2,421.49,265,411q5.88-5.67,11.74-11.36c1.61-1.56,3.19-3.15,4.83-4.67l20-18.51c10.89-10.06,22.09-19.79,33.2-29.62,21.91-19.37,43.51-39.09,65.71-58.14l17.23-14.79c2.38-2,4.75-4.11,7.18-6.09l28.09-23q16.43-12.51,32.84-25.06l22.85-17.53c6.09-4.67,12-9.55,18-14.39q7.55-6.12,15.12-12.2c5.88-4.71,11.65-9.58,17.61-14.2Q579,146.4,598.26,131c11.32-9,22.27-18.47,33.22-27.9,5.15-4.45,10.32-8.87,15.45-13.34,2.68-2.33,5.36-4.67,8-7.08s5.34-5.2,8.24-7.53h0a17.72,17.72,0,0,1,3.13-1.83h0l.87-.37s0,0,0,0ZM452.4,245.38l-.3.23.3-.23Z"/><path class="cls-1" d="M683.77,83.61c-5.78,3-11.26,6.46-16.81,9.83-1.09.66-2.21,1.29-3.25,2l-6.89,5q-12.84,9.26-25.57,18.65-11.62,8.56-23.17,17.23c-7.94,5.94-15.91,11.87-23.71,18q-18.28,14.4-36.31,29.13l1.22-.94c-15.65,12.07-31.14,24.35-46.62,36.64q-26.3,20.3-52.58,40.61l.05,0L399,299c-6.32,4.86-12.54,9.84-18.81,14.76l-31.8,25c-5.55,4.36-11,8.84-16.5,13.28l-31.12,25.18c-6.34,5.14-12.63,10.34-18.94,15.51-8,6.6-16.15,13.14-24.14,19.81L229.82,435.8c-2.29,1.91-4.62,3.77-6.83,5.76l-14.22,12.73c-3.25,2.91-6.56,5.76-9.75,8.74L185.59,475.6l-10,9.35-5.19,4.85c-2.31,2.16-4.68,4.24-7,6.42-1,1-2,2-3.05,3a36.51,36.51,0,0,0-3.47,4.13,9.17,9.17,0,0,0-1.48,2.75,6.22,6.22,0,0,0-.85,3,3.63,3.63,0,0,0,0,1.83l.2,1.49a5.55,5.55,0,0,0,1.43,2.47,5.68,5.68,0,0,0,1.58,1.66,2.82,2.82,0,0,0-2.69,2.8c0,.32,0,.65,0,1,0,.59.11,1.17.2,1.75.44,1.17.89,2.24,1.44,3.37.72,1.49,1.62,2.91,2.45,4.34l5.1,8.76c2.3,4,4.76,7.8,7.2,11.68L177,559c.69,1.09,1.34,2.2,2.08,3.25l10.28,14.59,9.42,13.38c2.11,3,4.35,5.92,6.52,8.88q9.58,13,19.15,26.08l21.68,29.42c4.81,6.52,9.74,12.92,14.69,19.34l13.5,17.55c2.31,3,4.53,6.09,6.94,9q11,13.32,22,26.61c13.47,16.27,27.18,32.32,40.85,48.42,5.85,6.89,11.59,13.89,17.37,20.84,5.64,6.78,11.32,13.54,16.91,20.36q12.73,15.52,25.48,31,10,13.66,20.26,27.19l2.57,3.41c.84,1.11,1.54,2.35,2.29,3.51q5.84,8.95,11.73,17.85c5.61,8.49,11.14,17,16.72,25.54,5.48,8.36,11.16,16.59,16.82,24.83,3.4,5,6.71,10,10.07,14.94s6.31,10.47,9.38,15.75c2.81,4.83,5.12,9.94,7.6,14.94s4.8,10.21,7.07,15.37c1,2.46,2,4.92,2.88,7.42,0,0,0,0,0,0-2.76-10.12-6.67-19.92-10.54-29.66l-2.79-7c-.87-2.19-2-4.31-3.05-6.43-2.06-4.31-4-8.67-6.37-12.82q-4.29-7.51-8.58-15c-2.78-4.83-5.68-9.58-8.53-14.38-5.43-9.12-10.7-18.33-16-27.5-5.22-8.94-10.64-17.78-16-26.63-1.59-2.61-3.11-5.22-4.88-7.7q-5.7-8-11.44-15.93-4.89-6.77-9.82-13.51c-2-2.79-4.35-5.41-6.54-8.08L384.21,806.3c-7-8.54-14.14-17-21.2-25.43-5-6-10.06-12.07-15.17-18L322.36,733c-6-7-11.91-14.18-17.85-21.27l-14.14-16.85c-2.06-2.46-4-5-6-7.51q-12.63-16.1-25.26-32.2-17.8-23.58-35.63-47.14c-6-7.93-12.1-15.81-18-23.82L193.54,568l-5.52-7.5c-.73-1-1.5-2-2.19-3l-12.74-18.82c-1.49-2.21-2.93-4.47-4.38-6.7l-3.38-5.19c-1-1.6-2.16-3.13-3.15-4.75h.25a11.52,11.52,0,0,0,3.7-1,10.82,10.82,0,0,0,2.86-1.68l1-.84c.45-.56.87-1.13,1.27-1.72a5,5,0,0,0,.56-3.12,4.69,4.69,0,0,0-1.35-3.25,10.27,10.27,0,0,0-2.12-1.63,11.66,11.66,0,0,0-1.84-.71c.23-.37.47-.74.73-1.12,5.12-6.24,11-11.86,16.67-17.6q4.69-4.75,9.46-9.41l7.6-7.43c1.31-1.29,2.6-2.63,4-3.87l11.53-10.52,12.7-11.58c2.55-2.33,5.3-4.46,8-6.68l17.13-14.34c3-2.52,6-5.07,9-7.54L286,399.52c6.26-5.1,12.48-10.27,18.79-15.29l46.44-37-.86.66q25.89-19.91,51.79-39.8c6.37-4.9,12.89-9.62,19.33-14.42l32-23.84,50.16-37.35q24.92-18.56,49.39-37.73c6.26-4.88,12.32-10,18.41-15.1q8.27-6.92,16.49-13.9c2.15-1.83,4.27-3.69,6.44-5.48q25.91-21.42,51-43.71c5.93-5.28,11.76-10.66,17.6-16l3.15-2.91c1-.89,2.05-1.65,3.07-2.47q5.47-4.41,10.92-8.85c1.22-.9,2.44-1.78,3.67-2.66a0,0,0,0,0,0,0Zm-3.6,2.65,0,0,0,0ZM163.76,514.14l-.16.22v0l.16-.2Zm344.68,497v0Z"/><path class="cls-1" d="M367.09,884.76c4.48,7.3,8.89,14.64,13.67,21.74q6.09,9,12.26,18,10.65,15.52,21.52,30.88c.79,1.12,1.71,2.18,2.56,3.25l5.56,7q8,10,16.07,19.85,6.16,7.52,12.4,15c2.13,2.53,4.53,4.83,6.84,7.2q8.77,8.94,17.66,17.77c2.64,2.63,5.26,5.24,8,7.75q14.23,12.93,28.6,25.68c3.3,2.93,6.66,5.79,9.88,8.81,3.7,3.47,7.52,6.83,11.09,10.43,7.62,7.68,15.37,15.28,22.45,23.47,0,0,0,0,0,0-3.78-5.43-7.88-10.62-12-15.79-1.69-2.13-3.42-4.22-5.14-6.32-1.57-1.91-3.11-3.85-4.76-5.7-3.8-4.25-7.54-8.56-11.48-12.68q-6.63-6.92-13.3-13.81-6.92-7.12-13.86-14.19c-3.07-3.12-6.22-6.15-9.16-9.38q-13.28-14.53-26.8-28.8c-.77-.81-1.45-1.73-2.17-2.58q-2.92-3.48-5.86-6.94-8.27-9.73-16.67-19.34-6.28-7.18-12.61-14.31c-1.65-1.87-3.18-3.84-4.74-5.78q-12.48-15.49-25.2-30.78-5-6-10.1-12.07c-5-6-9.8-12.22-14.69-18.33h0a0,0,0,0,0,0,0Z"/><path class="cls-1" d="M806.16,1291c-7.42.8-14.74,2.41-22.1,3.63s-14.92,2.51-22.4,3.68c-6.51,1-13,2-19.53,2.95q-12.23,1.69-24.45,3.47c-14.93,1.92-29.86,3.73-44.78,5.74q-27.26,3.08-54.52,6.29c-4.41.53-8.82,1-13.23,1.43l-34.67,3.63c-13,1.36-26,2.73-39,4L466.39,1332c-13.23,1.27-26.48,2.3-39.73,3.42l-35.49,3c-5.42.46-10.86,1-16.29,1.38q-27.35,1.71-54.69,3.47c-12.9.82-25.79,1.79-38.71,2.3-21.74.86-43.48,1.69-65.2,2.75-14.63.71-29.26,1.2-43.89,1.83-11.82.51-23.65,1-35.47,1.74-7.76.47-15.52.94-23.27,1.62-7.33.65-14.6,1.65-21.88,2.75a141,141,0,0,0-22,4.75,52.72,52.72,0,0,0-8.57,3.65,34.24,34.24,0,0,0-8.24,5.7s0,0,0,0l.88-.75h0a44.38,44.38,0,0,1,8.91-4.86l-.11,0a80,80,0,0,1,19.7-4.75h-.07c11.83-1.49,23.75-2.32,35.67-2.66,5.82-.17,11.64-.22,17.45-.29,3.09,0,6.18-.13,9.28-.15q13.09,0,26.16-.15c14.83-.12,29.66-.19,44.48-.64,21.73-.65,43.46-1.55,65.18-2.41,12.74-.5,25.46-1.45,38.19-2.27q28-1.81,56-3.62c5.07-.33,10.14-.87,15.21-1.31l35.21-3c13.49-1.17,27-2.22,40.47-3.55l64.75-6.38c12.89-1.27,25.77-2.64,38.65-4l35-3.74c4.57-.49,9.14-.94,13.7-1.49q27.59-3.28,55.15-6.78c8.21-1.06,16.39-2.41,24.58-3.64,7.36-1.11,14.75-2.15,22.1-3.39,14.94-2.53,29.86-5.1,44.74-8q10.4-2,20.75-4.28,4.87-1,9.73-2.15l4-.92,3.06-.71c1-.23,2-.4,3-.55l0,.06-.48.65c-2.45,2.72-4.7,5.63-7,8.47s-4.59,5.7-6.88,8.57a0,0,0,0,0,0,0c3.2-3.2,6.44-6.35,9.69-9.5l4.09-4c.37-.37.73-.71,1.11-1.07a8.37,8.37,0,0,0,1.75-1.82,3.64,3.64,0,0,0,.64-1.57,8.26,8.26,0,0,0-.3-1.79,1.4,1.4,0,0,0-1.23-1Zm-1.37,3.16-.07.18.07-.18Zm-750.9,75.51h0Z"/><path class="cls-1" d="M124.15,446.26c3.11,7.76,6.47,15.43,9.8,23.1q4.33,10,8.68,20,9.37,21.43,18.77,42.84,11.81,26.72,23.75,53.39c.47,1,1,2,1.51,3.05q2.55,5.11,5.12,10.21,7.88,15.66,15.87,31.26l12.82,25c1.61,3.14,3.43,6.12,5.24,9.16l33.46,56c1.89,3.17,3.75,6.36,5.72,9.5l12.62,20.09,34,54.07c1.64,2.61,3.33,5.17,5.06,7.72l16.53,24.2q14.82,21.71,29.65,43.41c1.21,1.77,2.66,3.43,4,5.11l8,10.2,21.93,28.08,14.9,19.08c.65.83,1.35,1.61,2.06,2.4l7.8,8.78,23.47,26.4c4,4.5,7.93,9.06,12,13.5l37.56,40.86c11.22,12.2,22.43,24.38,33.86,36.38,1.06,1.11,2.15,2.2,3.15,3.38q3.92,4.66,7.88,9.3,10.2,12,20.56,23.82c1,1.12,1.92,2.27,2.85,3.43q4.48,5.56,9,11.1,9.26,11.37,18.65,22.63,15.16,18.2,30.74,36.06,4.33,5,8.7,9.9s0,0,0,0c-10.74-16.83-21.54-33.63-32.55-50.29q-6.51-9.85-13.1-19.64-4.67-6.95-9.39-13.86c-1.29-1.89-2.52-3.85-3.89-5.68q-8.06-10.68-16.23-21.26-5.18-6.72-10.4-13.39c-1.05-1.35-2.06-2.74-3.2-4-11.28-12.65-22.63-25.25-34.29-37.55l-38-40.1c-3.19-3.37-6.28-6.82-9.41-10.24l-23.59-25.82-13.87-15.18c-1.17-1.27-2.18-2.72-3.26-4.06l-8.24-10.28-36.76-45.86q-15-21.37-30-42.72l-16.87-24c-1.78-2.53-3.5-5.06-5.18-7.66l-34.75-53.6c-6.32-9.74-12.67-19.45-18.79-29.32l-34.42-55.47c-1.87-3-3.74-6-5.4-9.07Q221.58,638.2,215,625.82q-8.23-15.46-16.58-30.85L193,585c-.54-1-1.11-2-1.61-3q-12.85-26.12-25.86-52.15l-20.56-41.21q-4.81-9.63-9.56-19.27c-3.79-7.66-7.62-15.31-11.16-23.1h0s0,0,0,0Z"/><path class="cls-1" d="M194.52,506.33c2.35,8.62,4.6,17.27,7,25.88.87,3.11,1.74,6.22,2.73,9.3q2.15,6.64,4.31,13.28,7.94,24.37,16.09,48.67,5.3,15.79,10.7,31.56c.7,2,1.57,4,2.36,6q2.52,6.4,5.14,12.74,5,12.2,10.37,24.24c7.16,16.11,14.8,32,23.09,47.58s17.35,30.79,26.28,46c2.41,4.12,5,8.17,7.45,12.24l22.73,37.25c6.52,10.66,13,21.37,19.46,32l7.65,12.6c.81,1.33,1.69,2.61,2.52,3.91l6.05,9.36,13.64,21.12,3.06,4.74c.75,1.17,1.59,2.29,2.39,3.42,7.26,10.42,14.6,20.77,21.91,31.16,8.6,12.2,17.32,24.32,25.86,36.56,4.83,6.93,9.73,13.8,15,20.39q8.17,10.21,17.25,19.65a208,208,0,0,0,19,17.42c3.33,2.69,6.75,5.24,10.18,7.81,6.56,4.91,13.19,9.76,20,14.26,0,0,0,0,0,0-1.89-1.39-3.75-2.8-5.61-4.22l0,0c-5.86-4.61-11.64-9.32-17.39-14.06a222,222,0,0,1-17.13-15.71,278.33,278.33,0,0,1-21.18-24.5l0,.05c-2.45-3.19-4.86-6.41-7.19-9.7-2.58-3.65-5.05-7.36-7.52-11.08-2.59-3.9-5.18-7.8-7.81-11.68Q426.55,955,420,945.37q-10-14.63-20-29.22-4.87-7-9.75-14.06c-.89-1.27-1.67-2.61-2.51-3.91l-6-9.39-13.54-21.17c-1.63-2.55-3.25-5.09-4.8-7.69q-20-33.45-40-66.88l-12-20c-4.94-8.26-9.69-16.65-14.44-25-4.37-7.68-8.66-15.41-12.8-23.21s-8-15.7-11.87-23.65c-7.65-15.89-14.87-32-21.87-48.18q-2.51-5.83-5-11.67l.15.37c-1.3-3.07-2.66-6.12-3.82-9.25l-1.78-4.78q-3.47-9.3-7-18.59-9.27-24.56-18.77-49-3.49-9-7-18c-.81-2.07-1.58-4.15-2.34-6.24-3.53-9.77-6.79-19.63-10.24-29.44h0a0,0,0,0,0,0,0ZM455.7,997.25l.17.22-.17-.22Z"/><path class="cls-1" d="M759.94,34.42c-25.58,11.07-51.06,22.36-76.31,34.14-6.17,2.88-12.24,6-18.33,9.06l-11.38,5.68c-1.13.57-2.27,1.13-3.38,1.75q-19.08,10.72-38,21.67c-1.53.88-3,1.9-4.47,2.85q-5.32,3.4-10.63,6.82-11.65,7.52-23.21,15.15l-4.43,2.91c-1.37.89-2.66,2-4,3l-21.72,16.23L526.41,166.9c-3.41,2.55-6.53,5.49-9.74,8.28l-37,32.24c-3,2.62-5.85,5.45-8.76,8.17l-21.17,19.81c-7.78,7.28-15.57,14.55-23.25,21.92L389.77,292.6c-9.13,8.75-18.16,17.61-27.23,26.42q-29.76,28.9-59.25,58.07c-3.13,3.07-6.17,6.23-9.26,9.34L273.67,407c-2.83,2.85-5.68,5.68-8.42,8.62q-8.92,9.57-17.74,19.22-4.13,4.52-8.24,9.06c-.9,1-1.83,2-2.69,3q-7.83,9.38-15.59,18.81l-6.8,8.28c-4.23,5.17-8.16,10.63-12.06,16-11.22,15.57-21.19,32.12-28.57,49.86a132.52,132.52,0,0,0-8.46,27.64,50.54,50.54,0,0,0-1.14,11.84c.21,3.48,2,6.58,4.29,9.15,0,0,0,0,0,0a26.81,26.81,0,0,1-2.33-4.25l0,.07a15.08,15.08,0,0,1-.84-2.92,25.5,25.5,0,0,1,.18-5A94.45,94.45,0,0,1,167.89,566a97.48,97.48,0,0,1,4-11c-.06.14-.12.29-.19.43a205.35,205.35,0,0,1,13.76-26.7,291.69,291.69,0,0,1,17.79-25.47q10.72-13.77,22.5-26.67,9-9.9,17.94-19.86c3-3.39,6.26-6.62,9.41-9.9q9.65-10,19.18-20.21c2.55-2.73,5.14-5.4,7.78-8.06l19.79-20q12.1-12.23,24.33-24.3,32.2-31.79,64.56-63.4Q400,299.89,411.3,289l21-20.35c3.26-3.16,6.48-6.36,9.78-9.47l34.28-32.32q5.66-5.34,11.32-10.68c1.12-1.05,2.31-2,3.47-3l8.64-7.57,32.75-28.73q17.86-13.4,35.77-26.75c3-2.23,5.92-4.56,9-6.6q10.47-6.82,20.9-13.68,9.61-6.35,19.15-12.78c.89-.6,1.8-1.15,2.71-1.7l9.55-5.84Q641.38,102.26,653,95c3.83-2.4,7.76-4.59,11.7-6.82q11-6.24,22-12.56c5.66-3.27,11.46-6.34,17.17-9.54q17.27-9.64,34.51-19.33Q749.18,40.62,760,34.46a0,0,0,0,0,0,0Z"/></g></g></svg>