<svg xmlns="http://www.w3.org/2000/svg" viewBox="0 0 869.47 728.81"><defs><style>.cls-1{fill:#353535;}</style></defs><title>email-icon</title><g id="Layer_2" data-name="Layer 2"><g id="Draw_Layer" data-name="Draw Layer"><path class="cls-1" d="M836.68,46.37a13.84,13.84,0,0,0-5.32,5.17c-1.57,2.68-1.69,5.28-2.06,8.25-.12,1-.2,1.92-.27,2.88-3.83,0-7.68-.13-11.48-.18-4.9-.05-9.8-.3-14.69-.45-8.51-.26-17-.76-25.54-1.2-19-1-38.08-1.83-57.14-2.26-38.59-.87-77.18-.7-115.77-.09-36.8.59-73.59,1.55-110.4,1.84q-32.06.26-64.11.45c-16.85.09-33.71.07-50.56.34-38.38.62-76.8,1.16-115.12,3.54-38.7,2.4-77.43,6-115.42,14q-14.13,3-28.13,6.44c-4.14,1-8.28,2.11-12.39,3.22-2.24.61-4.48,1.25-6.71,1.91a25.74,25.74,0,0,0-4.43,1.67c-1,.53-.87.73-.75,1.54,0,0,0,0,0,0,0-.21,0-.41,0-.62l.85-.51A8.56,8.56,0,0,1,99.15,92L99,92c4.88-.59,9.82-.79,14.73-1.11q7.1-.47,14.21-1c8.6-.64,17.23-1.26,25.84-1.67,10.17-.49,20.34-1,30.51-1.39,9.5-.39,19-.48,28.51-.72,5.4-.14,10.82-.13,16.23-.12,3.7,0,7.4,0,11.09,0,10.15-.12,20.29,0,30.44-.17,18.73-.24,37.45-.65,56.18-1.08,37.59-.86,75.19-.81,112.79-.68,37.16.13,74.3.34,111.45.07q31.71-.22,63.41-.22c17.3,0,34.63.08,51.93.47l33.58.74c9.67.22,19.35.73,29,1.11,18.32.71,36.63,2,54.92,3.22,11.12.73,22.24,1.37,33.37,2,3,.17,6,.27,9,.39-.8,7.43-1.63,14.85-2.23,22.3-.74,9.15-1.66,18.29-2.12,27.46q-.85,17-1.71,33.95c-.47,9.38-.54,18.79-.8,28.18-.22,7.6-.47,15.21-.63,22.81-.39,18.91-.72,37.82-1.18,56.73-.48,19.24-.74,38.5-1.55,57.73q-.83,19.35-1.66,38.7c-.3,7-.84,13.9-1.38,20.87l-1.86,24c-.6,7.67-1.45,15.3-2.44,22.93A388.42,388.42,0,0,1,800,492a278.8,278.8,0,0,1-10.82,32.22c-3.56,9-7.54,17.9-10,27.22a41.88,41.88,0,0,0-1.61,12.33,29.22,29.22,0,0,0,3.09,12.37L770,577.27c-4.67.5-9.42.67-14.11,1-9.88.7-19.75,1-29.65,1.45-17,.7-34,1.05-51,1.44q-31.12.69-62.23,1.18c-20.05.29-40.09.36-60.13.42q-29.19.09-58.39.13c-19.15,0-38.29.4-57.44.64-6.48.08-12.94.36-19.42.63l-36.9,1.49c-7.42.3-14.84,1.11-22.25,1.71l-31.69,2.57c-3,.24-6,.65-8.94,1l-20.21,2.22q-11.29,1.24-22.58,2.49-31.42,3.53-62.88,6.84c-17.08,1.77-34.18,3.39-51.26,5.17-10,1-20,2.11-30,3.4-7.49,1-14.95,1.94-22.36,3.43a91.63,91.63,0,0,0-15.18,4.35Q92.62,615.41,92,612c-1.59-8.38-3.07-16.78-4.54-25.19-2.86-16.38-5.31-32.84-7.86-49.27q-1.94-14.72-3.87-29.43c-.33-2.52-.53-5-.75-7.57l-1.72-19.82q-.55-6.35-1.1-12.71c-.3-3.42-.24-6.91-.36-10.34q-.57-16.18-1.13-32.35c-.11-3.28,0-6.57,0-9.85q0-10.33-.06-20.64c0-7.07-.05-14.15,0-21.23.14-18.65.24-37.3.43-55.95.44-42.64.37-85.32-.72-128-.31-12.07-.09-24.15-.16-36.22q-.09-15.12-.34-30.24c-.16-10-.09-20.08-.09-30.13a0,0,0,0,0,0,0c-1.2,7.9-2.52,15.81-3.46,23.75q-.76,6.41-1.49,12.84Q62.36,150,60.33,170.38c-.57,5.63-1.22,11.25-1.55,16.9q-1,17.15-1.83,34.3c-.82,17.4-1.54,34.78-1.74,52.19-.22,19.24-.12,38.48,0,57.71.11,19.54.21,39.08.39,58.62l.32,34.7c.09,9.39.61,18.79.91,28.17q.24,7.25.48,14.48c.09,2.9.41,5.8.63,8.69q.76,10.13,1.51,20.27c.25,3.28.39,6.59.75,9.86q3.27,30.15,6.88,60.23c1.59,13.11,3.17,26.27,4.15,39.44.57,7.65,1.07,15.29,1.42,23,.07,1.49.16,3,.24,4.45a31.38,31.38,0,0,0,1.43,9.15A12.35,12.35,0,0,0,77.51,648a20.21,20.21,0,0,0,3,2.4,13.06,13.06,0,0,0,13-.1c3.28-1.92,5.2-5.18,6.44-8.66l.19-.54c.65-.36,1.32-.7,2-1,13.25-5.11,27.73-6.67,41.7-8.8,36.8-4.54,73.64-8.66,110.45-13.18q31.09-3.8,62.2-7.39c19.29-2.24,38.68-3.65,58-5.32,6.9-.59,13.81-.78,20.72-1.09l35.08-1.59c7.85-.36,15.74-.3,23.6-.43l31.73-.53c18.31-.28,36.64-.25,55-.35,18.14-.11,36.28-.14,54.42-.43,40.47-.65,80.94-1.42,121.42-2,16.58-.22,33.16-.42,49.73-.74,7.71-.16,15.43-.37,23.15-.47l6.59-.09c1.08,0,2.19,0,3.32,0,5.17,0,10.66.1,15.14-2.5a16.43,16.43,0,0,0,7.91-9.55c1.49-5.4-.6-11.53-4.42-15.48-3-3.13-6.84-5.09-10.48-7.35q0-.4,0-.8c1.78-8.15,5.24-15.84,8.27-23.59,2.4-6.15,4.82-12.27,7-18.52,9.06-26.52,13.19-54.33,15.81-82.15,1.09-11.55,1.45-23.17,2.05-34.75.38-7.21.82-14.39.93-21.6.29-19.08.78-38.18.67-57.27-.11-19.35-.18-38.7-.37-58.05-.2-19.94-.43-39.88-.38-59.83q0-10.32,0-20.63c0-3.24-.09-6.49,0-9.71q.57-16.32,1.11-32.65c.37-10.85,1.63-21.66,2.59-32.46.5-3.36,1-6.72,1.53-10.07.47-3.08.84-6.18,1.49-9.23l.42-2,.25-.14c4.94-2.12,8-6.66,9.69-11.56A36.53,36.53,0,0,0,860,68.17a24.54,24.54,0,0,0-.13-4.17c-.42-4.5-1-8.43-3.28-12.42a14.46,14.46,0,0,0-8.69-6.68,14.06,14.06,0,0,0-3.75-.51,15.64,15.64,0,0,0-7.45,2Zm-7,12,0,.35h0l0-.35Zm24.93,8.31-.59.77,0-.06a5.65,5.65,0,0,1,.57-.7ZM806.3,561.53l.08.19-.08-.19ZM100.63,640.36l-.38.29h0l.38-.29Z"/><path class="cls-1" d="M855,32.69c-.55,9-1.28,18.08-1.85,27.12q-1,15.82-1.88,31.64-1.43,25.24-3.06,50.49-1.83,29-3.36,58.06c-1,18.65-1.7,37.31-2.48,56s-1.44,37.54-2.45,56.3c-1,19.28-1.87,38.58-3.18,57.85-2.65,38.85-5.27,77.7-8.67,116.49-1.23,13.94-2.41,27.88-3.75,41.81-.7,7.34-1.27,14.69-2.11,22Q821.12,559.7,820,569q-.87,5-1.74,10c-.65,3.69-1.71,7.35-2.72,11a31.86,31.86,0,0,0-.82,3.94c-4.79-.38-9.62-.65-14.39-1.2L785,590.82c-17.46-2-34.84-4.51-52.29-6.63l-36.33-4.4c-9.1-1.11-18.27-1.82-27.41-2.53-14.07-1.09-28.17-1.69-42.28-1.92-17.39-.28-34.84-.14-52.21,1l-39,2.46-16.61,1c-1.74.11-3.49.16-5.22.35l-29.72,3.36c-17.46,2-34.94,3.84-52.36,6.13l-40.24,5.29c-6.19.82-12.4,1.7-18.6,2.43q-31.16,3.62-62.32,7.26c-9,1.06-18.15,1.66-27.2,2.49l-28.85,2.63c-17.64,1.61-35.34,2.55-53,4.13L180.1,615.8c-5.32.47-10.65.86-15.94,1.59l3.45-.47q-15.56,2.08-31.11,4.19h0l-.73.1-2.92.39,2.14-.29a194.67,194.67,0,0,0-33.52,7.52,97.82,97.82,0,0,0-10.56,4.3,41.7,41.7,0,0,0-5.31,2.92l-.85-7.2c-.54-4.5-.8-9-1.18-13.54-.84-9.71-1.51-19.42-2.18-29.13-1.2-17.29-2.39-34.59-3.22-51.91-.89-18.54-1.91-37.09-2.52-55.65-.62-18.73-1.3-37.45-1.82-56.18q-1.8-64.37-3.26-128.73c-.39-17.24-.26-34.47-.45-51.71q-.16-15.29-.55-30.58c-.19-7.51,0-15.06-.06-22.58q-.09-17.56-.39-35.11c-.12-7.32.26-14.65.41-22q.21-9.32.36-18.64c0-2.36,0-4.71.2-7.06C71,93.56,71.55,81,73.2,68.54q.1-.69.22-1.38c0,1.68.07,3.36.11,5a0,0,0,0,0,0,0c.39-3.77.8-7.54,1.05-11.32.06-.86-1.16-.92-1.43-.19a149.58,149.58,0,0,0-5.93,23.39q-1.79,9.53-3.56,19.07c-1.59,8.61-2.36,17.38-3.38,26.06-.93,7.9-2.11,15.83-2.62,23.77q-1.16,17.92-2.11,35.86c-.41,7.51-1,15.05-1.09,22.58q-.23,15.29-.28,30.58c0,17.24,0,34.48.47,51.71q1.72,64.37,3.76,128.73,1.77,55.92,3.41,111.82c.53,17.3,1,34.61,1,51.91,0,9.72.07,19.42-.15,29.13s-.62,19.37-1.13,29.08c-.2,3.72-.6,7.43-.91,11.14-.36,4.55-1.12,9.08-1.39,13.63q-.13,1.23-.14,2.45c.22,1.88.48,3.74.78,5.61q1,2.49,2.09,5A20.72,20.72,0,0,0,68.87,689a17.39,17.39,0,0,0,8.79,2.38l.83-.1a17.35,17.35,0,0,0,8.84-2.39c3.95-1.94,6.21-5.12,8.73-8.56,1.49-2,2.57-5.24,3.43-7.4a31,31,0,0,0,1.38-4.37c.51-2.17.77-4.36,1.3-6.52.34-.34.69-.67,1.05-1a54.91,54.91,0,0,1,8-4.42,194.39,194.39,0,0,1,36-9.81c8-1.47,15.94-2.91,23.9-4.4,16.75-2.24,33.51-4.38,50.32-6.19q29.64-3.19,59.26-6.59c14.58-1.68,29.16-3.36,43.7-5.32l52.78-7.15-2.71.36c23.48-3.14,46.87-6.91,70.32-10.26q31.25-3.86,62.49-7.81c5.15-.64,10.21-1.1,15.39-1.47l39.71-2.82,16.3-1.16c8.15-.58,16.36-.64,24.52-.77,15.17-.25,30.35-.14,45.5.62s30.41,2.2,45.57,3.8c17.41,2.42,34.85,4.68,52.2,7.57,19.21,3.21,38.44,6.38,57.56,10.07,11.57,2.23,23.07,4.62,34.46,7.6l1.75.52a35.33,35.33,0,0,0,3.58.93A15.62,15.62,0,0,0,863,605.19a16.19,16.19,0,0,0-4.22-7.53c-2.4-2.4-5.07-3.34-8.15-4.53a27.3,27.3,0,0,0-4.07-.92c-.89-.19-1.78-.34-2.67-.5.53-2.95,1.06-5.89,1.47-8.86.72-5.27,1.47-10.53,1.94-15.82.87-9.78,1.69-19.56,2.39-29.35,1.43-20.05,2.69-40.1,4-60.16.55-8.74.95-17.5,1.41-26.25.49-8.93,1.07-17.87,1.44-26.81q.65-15.66,1.29-31.32c.37-9.1.88-18.21,1.12-27.31q.83-30.78,1.62-61.57c.53-19.87.61-39.76.91-59.64.55-37.24-.41-74.51-1.58-111.74-.51-16.11-1.19-32.21-1.91-48.31-.41-9.16-.84-18.32-1.33-27.47-.43-8.14-.8-16.29-1.54-24.41a0,0,0,0,0,0,0,0,0,0,0,0,0,0ZM691.95,597.4l1,.15-1-.15Z"/><path class="cls-1" d="M387.46,52l-34.89.42c-7.23.09-14.46.42-21.7.65l-30.45,1c-2.71.09-5.42.3-8.13.46l-19.21,1.09c-7.84.45-15.71.75-23.54,1.36l-34.45,2.7c-16.31,1.28-32.59,2.94-48.9,4.34L134,66.73c-9.13.79-18.29,1.25-27.43,1.86-3.72.25-7.45.36-11.18.52-4.35.2-8.7.47-13.05.57q-12.6.31-25.19.52,0-.64,0-1.29A20.73,20.73,0,0,0,57,66.67c-.36-1-.76-2-1.21-3-.74-1.68-3.29-1.8-4.45-.57A40.12,40.12,0,0,1,48,66.34a24.58,24.58,0,0,1-3.65,2.08,56.28,56.28,0,0,1-6.11,2.08l-2.17.1c-1.18.07-2.29.2-3.47.36a8.89,8.89,0,0,0-4.39,1.36,6.61,6.61,0,0,0-2.37,9,7,7,0,0,0,4,3,12.92,12.92,0,0,0,4.69.44c1,0,2.09-.08,3.13-.13,2.34-.11,4.67-.24,7-.37l4.1-.23Q47.5,91.58,46.35,99c-1.4,9.13-2.95,18.25-4.14,27.41Q40,143.62,37.76,160.77c-.87,6.69-1.36,13.43-2,20.16q-1.61,18-3.23,36c-.51,5.73-.71,11.48-1,17.23l-2,39.21c-.28,5.4-.61,10.8-.79,16.2q-2,60.53-4,121.07c-1.14,35-2.51,70-3.17,105q-1,55-.34,110.06c.15,12.25.41,24.51.85,36.75.2,5.41.41,10.82.68,16.22q.22,4.49.5,9c.16,2.78.19,5.63.55,8.39,0,0,0,0,0,0,.09-1.86.44-3.72.66-5.57.26-2.2.51-4.4.74-6.61q.74-7.07,1.33-14.15,1.16-13.72,2-27.47,1.66-28.23,2.51-56.5c.29-9.41.72-18.81,1-28.22.21-6.82.4-13.63.64-20.44.64-18.21,1-36.42,1.49-54.63q1.55-60.56,3.26-121.11.79-28.1,1.57-56.19c.18-6.27.26-12.54.53-18.81q.63-15,1.27-30l1.44-34c.26-6.28.86-12.54,1.33-18.81l2.72-36c.57-7.5,1.53-15,2.35-22.43q1.08-10,2.18-20c.66-6,1.48-11.94,2.22-17.92.65-5.2,1.3-10.39,1.9-15.6l.9-7.92.74,0c9-.47,17.92-.85,26.87-1.45C101.22,81,119,79.81,136.79,78.06q31-3.06,62-6.15c17.29-1.72,34.62-3,51.94-4.43,2.9-.24,5.82-.34,8.71-.51l19.4-1.14c7.62-.44,15.25-1.07,22.88-1.3l34.66-1c6.36-.2,12.73-.42,19.09-.47,18.29-.15,36.59-.43,54.88-.4,18.53,0,37.07,0,55.6.11s37,.14,55.44.44c18.64.3,37.29.48,55.92,1l36.74,1.07c6.89.2,13.77.59,20.66.93,9.88.48,19.77,1,29.66,1.43,3.63.17,7.25.48,10.87.71q10,.64,20,1.2c3.38.19,6.78.29,10.16.55q6,.48,12.09.93,9.72.73,19.46,1.4c2.56.18,5.13.31,7.69.55Q760,74.4,775.29,75.68c4.28.36,8.55,1,12.82,1.42q7.18.78,14.39,1.51,9.32,1,18.62,2.22l-.12,0c4.94.7,9.86,1.53,14.78,2.36A71.45,71.45,0,0,1,850,86.79a58.82,58.82,0,0,1,7.5,4.23s0,0,0,0a40.91,40.91,0,0,0-11-7.15,161.82,161.82,0,0,0-18.74-5.94C819,75.44,810,73.65,801.08,71.94s-17.75-3.53-26.68-4.9q-8.92-1.36-17.85-2.68c-4.38-.65-8.78-1.39-13.18-1.9Q727.9,60.68,712.44,59c-7.53-.81-15.06-1.39-22.61-2-8.77-.67-17.56-1.46-26.35-1.85-17.75-.79-35.5-1.64-53.25-2-18.71-.42-37.42-.9-56.13-1.07s-37.59-.36-56.39-.39q-21.2,0-42.41-.05c-22.62,0-45.23.07-67.84.34Z"/><path class="cls-1" d="M843.64,106.44c-1.69,9.22-2.09,18.71-2.67,28s-1,18.93-1.41,28.4c-.75,17.44-1.41,34.88-1.68,52.33-.3,19.4-.55,38.79-.28,58.19.16,12.27.39,24.55.77,36.82.22,7.05.59,14.11.91,21.16.86,19.45,1.73,38.9,2.72,58.35q.83,16.32,1.67,32.66c.48,9.31.61,18.65.91,28,.25,7.78.68,15.56.54,23.35q-.32,17.22-.63,34.44c-.06,3.32-.42,6.65-.64,10q-.66,9.77-1.31,19.54c-.22,3.18-.63,6.29-1.05,9.45l-2,15c-.32,2.11-.93,4.22-1.37,6.3q-1.09,5.15-2.2,10.29c-.47,2.18-1.24,4.33-1.88,6.47-1.08,3.65-2.19,7.23-3.58,10.77q-.27.59-.56,1.18c-7.69.79-15.37,1.53-23.1,1.89-10.4.5-20.79.8-31.2,1.07-9.65.25-19.32.16-29,.22-9.82.06-19.66-.26-29.48-.4-7.84-.11-15.67-.38-23.51-.64-9.28-.31-18.58-.53-27.86-.93-18.25-.78-36.51-1.69-54.77-2.34l-36.92-1.32c-6.72-.24-13.44-.61-20.17-.65l-36-.2c-8.29,0-16.61-.28-24.9-.14l-64.66,1.18c-5.65.11-11.29.37-16.93.59L371.11,597c-17.94.7-35.86,1.86-53.79,2.93-8.57.51-17.16.9-25.73,1.53q-14.13,1-28.27,2c-11.12.8-22.24,1.58-33.35,2.48-7.78.64-15.54,1.53-23.29,2.35q-15.77,1.68-31.51,3.57c-9.89,1.19-19.75,2.84-29.59,4.35-6.86,1.05-13.75,2-20.56,3.34q-16.69,3.3-33.32,6.84c-2.46.52-5,1-7.38,1.59q-6.11,1.58-12.22,3.18c-11,2.89-22.07,5.8-33,9.17,0,0,0,0,0,0l8-1.14-.18,0c10.78-1.42,21.59-2.51,32.37-3.86,7.71-1,15.46-1.6,23.19-2.34q9.87-.94,19.73-2c2.45-.26,4.9-.57,7.36-.76q17.47-1.29,34.91-2.83c19.42-1.72,38.87-3,58.29-4.74s38.56-3.26,57.84-4.91c18.42-1.57,36.86-2.8,55.3-4.13,7.35-.53,14.71-1.2,22.07-1.57l30.63-1.54L423,608.94c6.11-.31,12.24-.38,18.36-.54l40.28-1.08c5.49-.15,11-.31,16.48-.32l38.43,0c7,0,14.09-.21,21.12,0l35,1.18c7.46.25,14.94.42,22.41.78,40,1.93,79.94,3.87,119.92,5.51,18.92.77,37.84,1.43,56.75,2.26,8.88.39,17.73,1,26.58,1.75,4.57.37,9.13.93,13.68,1.45a20.82,20.82,0,0,0,4.53.27l3.2-.43c1.22-.48,2.43-1,3.61-1.56l.65-.48a9.6,9.6,0,0,0,3.32-3,27.66,27.66,0,0,0,3.35-5.07c1-1.86,1.67-3.87,2.46-5.82a60,60,0,0,0,2.51-7.42c1.11-4.23,2.42-8.44,3.2-12.75q1.44-7.88,2.87-15.77c.43-2.34.59-4.76.84-7.13q.55-5.23,1.09-10.47c.37-3.6.89-7.21,1-10.82l.73-18.11c.17-4.21.53-8.46.51-12.67q-.11-16.28-.25-32.58c0-2.52,0-5.06-.1-7.58l-.83-14.87q-.87-15.5-1.74-31c-.55-9.85-1.43-19.7-2.15-29.54-.61-8.33-1.27-16.65-1.81-25q-1.09-16.72-2.18-33.44c-.5-7.73-1.09-15.45-1.49-23.19-.6-11.65-1.36-23.29-2.18-34.92-.5-7.13-1.09-14.26-1.51-21.39-1.21-20.35-2.67-40.68-3.86-61q-1.72-29.4-3.23-58.81c-.22-4.14-.42-8.29-.57-12.44-.2-5.49-.51-11-.31-16.47a0,0,0,0,0,0,0ZM839.32,563.2l-.06.44.06-.44Z"/><path class="cls-1" d="M35.67,73.63c3.9,2.09,7.83,4.11,11.73,6.19s7.65,4.34,11.44,6.57q11.3,6.7,22.43,13.67,22.39,14.08,43.34,30.22,7.59,5.88,15,11.89c4.23,3.4,8.59,6.72,12.68,10.28q4.34,3.77,8.69,7.52,14.28,12.3,28.7,24.42c5.51,4.62,10.83,9.45,16.23,14.19l24.43,21.48c12.87,11.3,25.6,22.77,38.38,34.16l27.73,24.71c5.6,5,11.09,10.1,16.63,15.17Q335.77,314.81,358.9,335c7.43,6.49,14.66,13.21,22,19.75,7,6.21,14,12.48,21,18.66q15.29,13.43,30.57,26.88c4.74,4.17,9.44,8.39,14,12.75,5.28,5.05,10.86,9.94,15.61,15.52l0,0a5.25,5.25,0,0,1,1.08,1.68,0,0,0,0,0,0,0c-.58-2.36-2.22-4.65-3.59-6.65s-2.93-4.15-4.47-6.18c-2.52-3.33-5.13-6.62-7.86-9.79-6.26-7.27-12.7-14.4-19.4-21.27q-19-19.53-38.64-38.47-22.87-22.12-46.45-43.44c-12.25-11.11-24.31-22.43-36.7-33.4q-45.12-40-90-80.2c-5.57-5-11.05-10-16.78-14.81q-14.26-11.88-28.66-23.55l-9.9-8c-3-2.43-6.19-4.67-9.3-7q-8.45-6.25-17.07-12.26c-11.09-7.73-22.51-15-34.3-21.56-12-6.71-24.28-12.75-36.71-18.5-4.08-1.89-8.15-3.8-12.31-5.52-5.09-2.1-10.27-4-15.4-6h0s0,0,0,0Z"/><path class="cls-1" d="M805.6,82.06l-2.34,1a9.87,9.87,0,0,0-2.27,1.2c-1.2.73-2.34,1.55-3.53,2.28a118.24,118.24,0,0,0-11.59,8.38l-13.11,10.38c-3,2.41-6,5-9,7.43L751,123.27c-12.75,10.55-25.39,21.21-38.18,31.72-14.29,11.75-28.58,23.52-43,35.11-14.2,11.41-28.47,22.73-42.52,34.32Q605.68,242.27,584,260.13l-28.22,23.37c-5.55,4.6-11.12,9.2-16.58,13.91q-12.83,11.08-25.54,22.28c-5.32,4.68-10.69,9.29-15.81,14.19q-12.76,12.23-25.39,24.59c-6.38,6.24-12.56,12.69-18.77,19.1Q443.31,388.34,432.83,399c-8,8.12-16,16.33-23.58,24.8l-.6.35-.29-.11v-.41h0l.14-.56a0,0,0,0,0,0,0,2.4,2.4,0,0,0-.32,1,.13.13,0,0,0,.05.13c.57.36.55.39,1.33,0a19.69,19.69,0,0,0,2.37-1.91c1.78-1.38,3.55-2.76,5.29-4.18,3.57-2.91,7.11-5.87,10.65-8.84q11.73-9.89,23.19-20.1,10.57-9.36,21-18.86c5.92-5.38,12-10.57,18.06-15.81q7.19-6.25,14.36-12.52c1.59-1.4,3.15-2.82,4.81-4.13q13.71-10.92,27.32-22c14.41-11.7,28.9-23.31,43.34-35q20.65-16.7,41.43-33.24L645,228.77c6.06-4.83,12.26-9.49,18.39-14.23,14.77-11.44,29.54-22.87,44.2-34.47q15.76-12.46,31.48-25l-1.22,1.2c-1,1-2.2,2-3.3,3L727,166c-2.63,2.36-5.22,4.8-7.94,7.06l-12.9,10.7q-9.32,7.73-18.58,15.52c-7.43,6.27-15,12.41-22.3,18.82q-19.7,17.27-39.38,34.55c-14.05,12.32-28,24.77-42.22,36.89s-28.22,24.55-42.36,36.8-28,24.51-41.71,37.09q-13.84,12.7-27.5,25.59c-1.46,1.38-3,2.71-4.35,4.17q-4.72,5.1-9.43,10.21-7.82,8.5-15.58,17.07l-5,5.57c-2.29,2.54-4.34,5.28-6.43,8l0-.05-1.84,2.37a0,0,0,1,0,0,0c3.76-3.53,7.44-7.1,11.4-10.39s8.19-6.82,12.27-10.24q10.26-8.61,20.45-17.3,22-16.65,43.71-33.57,11.86-9.24,23.62-18.59c6.26-5,12.59-9.91,18.71-15.06,14-11.8,28-23.7,41.59-36q20.66-18.64,41.32-37.27l27.12-24.39c5.37-4.83,10.84-9.52,16.34-14.21,6.8-5.8,13.52-11.71,20.43-17.37l23.58-19.3c3.76-3.09,7.4-6.35,11.1-9.52,2.86-2.45,5.76-4.86,8.55-7.38,7.15-6.42,14.23-12.92,21.42-19.29,6.74-6,13.52-11.9,20.44-17.66,1.61-1.34,3.24-2.66,4.78-4.08a47.75,47.75,0,0,0,4.2-4.61c2.94-3.49,6-6.88,9-10.3,1.12-1.26,2.22-2.54,3.3-3.83l1.86-2.22q1.33-1.54,2.53-3.18a19.31,19.31,0,0,0,2.05-3.55l1-2.38a9.95,9.95,0,0,0-4.57-11.23,19.8,19.8,0,0,0-3.8-1.65,7.12,7.12,0,0,0-2.28-.35,24.25,24.25,0,0,0-4.07.54Z"/><path class="cls-1" d="M57.24,74.27C65,78,72.79,81.85,80.58,85.61c5.3,2.56,10.48,5.36,15.71,8.07,10.45,5.4,20.79,11,30.81,17.17a532.25,532.25,0,0,1,45.48,31.75L171,141.38c6.54,5.06,13.14,10.09,19.43,15.45q6.34,5.41,12.72,10.78,7.69,6.46,15.45,12.86c2.15,1.77,4.38,3.46,6.46,5.3q12,10.63,24.08,21.22c5.7,5,11.49,10,17.1,15.11,13.88,12.71,27.85,25.32,41.61,38.16,14.11,13.17,28.33,26.24,42.23,39.63q22.29,21.48,45.32,42.15c6.34,5.68,12.74,11.29,19.07,17,7.69,6.91,15.54,13.65,23.21,20.58,19.46,17.59,39.21,35,60.06,51l-.09-.07c.85.66,1.65,1.33,2.55,1.92s1,.36,1.79.15a.16.16,0,0,0,.11-.2,2.85,2.85,0,0,0-.6-1.14s-.05,0,0,0a2.63,2.63,0,0,1,.32,1l-.49,0-.72-.43c-2-2-3.74-4.28-5.62-6.39l-4.36-4.9q-4.89-5.46-9.86-10.87c-5.79-6.31-11.63-12.58-17.41-18.91Q443,368.46,421.89,346.89c-11.92-12.24-24.1-24.23-36.13-36.38q-13.36-13.48-27-26.72c-5.14-5-10.43-9.82-15.67-14.7q-21.62-20.18-43.38-40.22-11.11-10.2-22.21-20.42c-7.09-6.49-14.41-12.75-21.6-19.13l-14.05-12.44c-1.61-1.43-3.2-2.91-4.87-4.28q-13.52-11-27.25-21.75-4.61-3.61-9.23-7.2c-9.9-7.69-20.41-14.72-31-21.44a380.4,380.4,0,0,0-35.53-20,285.13,285.13,0,0,0-29-12.44c-6.78-2.46-13.54-5.11-20.44-7.27-9.07-2.84-18.16-5.63-27.29-8.28h0a0,0,0,0,0,0,0Z"/><path class="cls-1" d="M822.25,94.46a34,34,0,0,0-4.58,1.59c-2.45,1.17-4.76,2.53-7.11,3.88-1.66,1-3.29,2-4.93,2.93l-9.13,5.45Q787,114,777.44,119.64s0,.05,0,0q9.8-4,19.66-7.86l5.3-2.09c-1.53,1.1-3.07,2.21-4.62,3.29q-10.05,7-20,14.22c-6.46,4.67-12.92,9.33-19.27,14.16q-11.44,8.7-22.79,17.51Q719.31,171.35,703,184q-20.48,15.7-40.81,31.6c-14.37,11.26-28.68,22.6-43.11,33.78q-13.18,10.18-26.34,20.38c-7.92,6.14-15.9,12.2-23.77,18.41-15.74,12-31.25,24.36-46.63,36.83-6.21,5-12.54,9.9-18.79,14.9q-14.33,11.45-28.48,23.1-30.73,25.27-60.74,51.42s0,0,0,0c20.83-13.21,41.61-26.54,62.17-40.17q24.41-16.17,48.39-33c7-4.92,14-10,20.86-15.14q16.4-12.16,32.59-24.63l-.24.18.59-.46,1.07-.82-.52.4c6.33-4.91,12.57-9.94,18.85-14.92l28.55-22.65c14.86-11.78,29.59-23.75,44.37-35.64,13.61-10.93,27.41-21.6,41.06-32.47q22.31-17.75,44.17-36.09c5-4.18,9.9-8.48,15-12.57,6.14-4.93,12.17-10,18.36-14.88,5.57-4.38,11.11-8.82,16.65-13.24q4.27-3.4,8.5-6.86,2.54-2.07,5.07-4.15c1-.8,1.95-1.57,2.93-2.34a16,16,0,0,0,4-4.7,4.05,4.05,0,0,0-3.36-6,3.75,3.75,0,0,0-1.11.17ZM618.45,249.83l-.72.56.72-.56Z"/><path class="cls-1" d="M73.42,72.89a25.94,25.94,0,0,0-3.07,3.43,19.17,19.17,0,0,0-1.89,4.55,52.94,52.94,0,0,0-1.38,5.69c-.51,2.43-1,4.86-1.43,7.3a267.74,267.74,0,0,0-3,27.68c-.68,9.56-1,19.15-1.09,28.73-.05,3.76-.12,7.51,0,11.27q.64,24.52,1.51,49c.35,9.87,1,19.73,1.55,29.59.91,15,1.94,30,2.95,45,1.61,23.94,3.45,47.86,5.07,71.8,1.71,25.14,3.46,50.27,5.08,75.42,1,16,2.05,32,3.18,47.94.91,12.94,2,25.88,3,38.82C86,544.56,88.54,570,91.43,595.32c.91,8.05,2,16.09,3.07,24.12,0-.13,0-.26-.05-.39.74,5.6,1.63,11.19,2.63,16.76.26,1.49.54,3,.81,4.49s.72,3.08,1.09,4.61a49.25,49.25,0,0,0,2.51,7.78,61.76,61.76,0,0,0,2.76,5.57s0,0,0,0c-.59-1.41-1.14-2.81-1.67-4.24a46.39,46.39,0,0,1-1.88-6.94c-.48-2.32-.76-4.67-1.14-7-.33-2.88-.73-5.76-1-8.65q-.54-5.62-1.12-11.24c-.66-6.42-1.1-12.86-1.68-19.29s-.91-12.77-1.38-19.16c-.34-4.73-.72-9.45-1-14.18q-.81-13.11-1.68-26.22c-.27-4.19-.59-8.36-.81-12.55q-1.21-23-2.58-46c-.76-12.54-1.41-25.08-2.15-37.61q-.9-15-1.8-30-2.43-39.67-4.95-79.34c-1.75-27.1-3.44-54.19-5.24-81.28q-.88-13.41-1.88-26.81c-.26-3.47-.56-6.93-.77-10.4q-1.41-23.36-3-46.7-.31-4.54-.64-9.09c-.29-4.13-.41-8.28-.56-12.42-.36-10-.55-19.92-.41-29.88a246.72,246.72,0,0,1,1.72-29.55l0,.28q.21-1.52.4-3V87a42,42,0,0,1,2.1-9.37,1.48,1.48,0,0,1-.07.15,11.11,11.11,0,0,1,1.31-2.29c.49-.57,1-1.13,1.48-1.71l.92.7-.08-.06.47.51.34.61c1,2.64,1.68,5.4,2.46,8.1,0,0,0,0,0,0-.39-1.86-.8-3.72-1.22-5.58-.2-.92-.4-1.83-.66-2.73a5.68,5.68,0,0,0-2-2.45.5.5,0,0,0-.33-.13.39.39,0,0,0-.29.13ZM69,87.09v0Z"/><path class="cls-1" d="M37.94,97C47,103.9,56.11,110.7,65.15,117.58l.28.22-.1-.08,0,0-.06,0,0,0,2.11,1.64-.11-.08.83.64-.31-.24Q102,146.1,136.75,172l.69.51q26.69,21.26,53.81,42,16,13.05,32,26.05c9,7.28,17.71,14.79,26.54,22.22,17.34,14.6,34.4,29.51,51.51,44.38,9.17,8,18.27,16,27.62,23.81q9.49,7.88,19,15.71c3.53,2.9,7.1,5.76,10.61,8.69q8.51,7.1,17.08,14.16c3.93,3.24,7.79,6.62,11.88,9.67q9.26,6.92,18.56,13.77l5.36,3.94c2.1,1.54,4.38,2.88,6.55,4.32,7.11,4.67,14.24,9.29,21.48,13.75q4.51,2.78,9,5.53c5.71,3.48,11.61,6.76,17,10.71a21.26,21.26,0,0,1,3,2.84l0-.06.06.08h0a14.15,14.15,0,0,1,1.73,2.9,20.79,20.79,0,0,1,.71,2.88v0c0,.36.09.71.14,1.07a0,0,0,1,0,0,0,22.23,22.23,0,0,0-.43-4.12,10.59,10.59,0,0,0-1.49-3.24c-1.52-2.53-4-4.38-6.19-6.23-3.15-2.61-6.57-4.93-9.88-7.33q-6.74-4.86-13.51-9.7c-8.38-6-16.61-12.17-24.9-18.27q-7.57-6.18-15.15-12.36c-3.5-2.84-7-5.61-10.42-8.6-9.05-8-18.09-16.12-27.28-24q-9.18-7.89-18.42-15.74c-3.65-3.11-7.37-6.15-11-9.3-10.44-9.12-21-18.14-31.45-27.18q-14.49-12.47-28.93-25c-8.82-7.62-17.78-15.09-26.69-22.62q-12.5-10.55-25.13-20.93-9.58-7.88-19.16-15.77c-2.32-1.9-4.65-3.76-7-5.57Q175,190.4,155.79,176.13c-6.26-4.65-12.5-9.32-18.93-13.73q-34.73-23.82-69.89-47c-9.55-6.31-19.32-12.3-29-18.4h0s0,0,0,0ZM468.52,434h0v0l0,0ZM67.6,119.47l-.2-.16.2.16Z"/><path class="cls-1" d="M845.07,80.43c-12.84,9.32-26.18,17.92-39.41,26.66-6.1,4-12.29,7.94-18.27,12.16l-13,9.21c-2.76,2-5.61,3.84-8.28,5.93q-17.8,14-35.5,28.2-12.28,9.82-24.48,19.75c-4,3.27-8.15,6.42-12.23,9.61-7,5.52-14,11.1-21,16.67-3.53,2.83-7,5.69-10.6,8.48q-20.91,16-41.78,32c-12.5,9.57-25.15,18.95-37.74,28.41s-25.06,19-37.44,28.66-24.81,19.87-37,30.08c-4.67,3.9-9.38,7.78-13.94,11.81q-11.61,10.28-23.08,20.71c-1.48,1.34-3,2.62-4.41,4.07q-4.19,4.4-8.36,8.82-5.9,6.25-11.76,12.54c-2.16,2.32-4.36,4.61-6.44,7-4.49,5.15-9.12,10.17-13.25,15.62a54.13,54.13,0,0,0-5.85,9.48,26.85,26.85,0,0,0-2.49,7.8,0,0,0,0,0,0,0,16,16,0,0,1,.54-1.66h0v0a48.48,48.48,0,0,1,4.41-7.5,92.45,92.45,0,0,1,11.1-11.49c3.43-3.09,6.92-6.19,10.46-9.16q4.1-3.45,8.19-6.92,10.41-8.82,20.72-17.76c10.13-7.65,20.26-15.31,30.28-23.1,12-9,24.11-17.9,36-27.08Q561.25,314,581.68,298c26.77-20.38,53.27-41.11,79.73-61.9,11.64-9.15,23.09-18.52,34.52-27.93q8.83-7.28,17.57-14.65c1.85-1.56,3.63-3.22,5.44-4.84q6.17-5.5,12.33-11,18.77-16.89,37.31-34c5.3-4.89,10.91-9.42,16.44-14.06,2.66-2.24,5.28-4.55,8-6.71l10.44-8.32c14-11.18,28.12-22.29,41.64-34.08,0,0,0,0,0,0Zm-303.24,248-.68.53.68-.53ZM419.28,432.48h0Z"/><path class="cls-1" d="M112.57,82.84q-7.58.42-15.15.86c-6,.35-11.94.68-17.9,1.23q-17.63,1.63-35.23,3.61c-5.76.65-11.54,1.24-17.29,2-3.06.4-6.1.84-9.14,1.36a23.07,23.07,0,0,0-4.69,1.38,8.14,8.14,0,0,0-4,2.92A5.29,5.29,0,0,0,8.21,98a7.36,7.36,0,0,0,.09,3.19,5.59,5.59,0,0,0,1.77,2.7,10,10,0,0,0,1.79,1.34c.25.41.48.81.7,1.24a33.15,33.15,0,0,1,1.1,5,159.38,159.38,0,0,1,.82,18c0,4.92.08,9.86.13,14.79.07,5.92.07,11.84.06,17.77q0,21.32,0,42.64c0,12.9,0,25.8.11,38.7q.23,27.1.47,54.19c.22,24.93.61,49.85.89,74.78q.29,26.93.59,53.87c.16,13.67.55,27.33.84,41L18,486.22c0,1.68.18,3.34.27,5q.36,6.61.72,13.21c.52,9.53,1,19.05,1.57,28.57.24,4.28.68,8.51,1.13,12.77q1.51,14.53,3.16,29.06c.57,5.11,1.3,10.19,2,15.27q1.93,13.11,4,26.2c1,6.72,2.35,13.42,3.57,20.11,5,27.41,11.16,54.57,17.44,81.71q1.23,5.31,2.41,10.65s0,0,0,0c-1.91-19.69-4.32-39.32-7-58.91,0,.27.07.55.11.82q-1.61-12.41-3.33-24.82-1.91-15.2-4-30.36l0,.27q-1.3-11.46-2.68-22.9c-.63-5.24-1.36-10.46-1.82-15.71Q34.41,563.12,33,549.09c-.45-4.7-1-9.38-1.28-14.09-.87-16.19-1.85-32.38-2.78-48.57-.07-1.3-.06-2.62-.09-3.93q-.11-5.89-.24-11.78-.3-15.26-.61-30.51c-.51-25.32-.51-50.65-.74-76q-.42-44.06-.82-88.13-.44-45.27-.7-90.54-.11-17.63-.28-35.28c-.05-6.47-.28-13-.45-19.42q-.15-5.91-.53-11.8a74.74,74.74,0,0,0-1.91-13.36,19.68,19.68,0,0,0-1.9-4.72c2.76-.65,5.6-1.07,8.35-1.55,3.18-.56,6.37-1,9.56-1.49,7.75-1.14,15.5-2.22,23.26-3.31l-1.07.14Q72.42,93.25,84,91.64q10.2-1.2,20.4-2.44,6.06-.74,12.13-1.51c1.25-.16,2.49-.32,3.74-.41q12.26-.81,24.51-1.68l11.35-.83c5.28-.39,10.58-.43,15.87-.6,0,0,0,0,0,0-5.4-.39-10.78-.88-16.2-1l-12.89-.26q-11.83-.22-23.65-.36h-.33c-2.11,0-4.26.24-6.36.35ZM84.82,91.53l-.67.09.67-.09Z"/><path class="cls-1" d="M450.9,585.26l-15.25.69-41.55,1.88L369,589c-1.79.08-3.59.37-5.37.55l-16.14,1.7-40.39,4.26c-6.22.66-12.44,1.22-18.61,2.26-18.93,3.19-37.95,6.05-56.74,10q-18.46,3.88-36.85,8.08c-7.61,1.73-15.13,3.89-22.66,6q-8.88,2.43-17.73,4.93c-6.83,1.93-13.57,4.15-20.3,6.42a313.77,313.77,0,0,0-37.68,15.25c-5.73,2.79-11.34,5.82-16.88,9-2.78,1.57-5.53,3.2-8.26,4.84-3.07,1.84-5.94,4-8.88,6,0,0,0,.05,0,0,2.76-1.28,5.49-2.62,8.27-3.85a382.75,382.75,0,0,1,37.25-13.15c13.36-4,27-6.85,40.64-9.73,11.32-2.4,22.74-4.34,34.1-6.56q6.25-1.23,12.51-2.49c2.86-.57,5.77-1,8.65-1.45q18.46-3.13,36.88-6.57c7.87-1.47,15.78-2.72,23.66-4.13,10.57-1.9,21.15-3.78,31.72-5.7q31.29-3.53,62.57-7.15c4.74-.54,9.43-1.11,14.19-1.37l34.43-1.82,38.91-2.05c4.7-.25,9.35-.53,14.06-.49l66.51.73c1.83,0,3.66.2,5.49.32l17.23,1.08,37.3,2.33c5.93.37,11.84.93,17.75,1.43l40,3.4c18.55,1.58,37.11,3.11,55.69,4.36,7.65.51,15.31.68,23,.91,8.55.26,17.12.57,25.68.62q26.77.18,53.56,0c7.94,0,15.88.07,23.82.15,3.29,0,6.57.11,9.86.22,6.77.2,13.55.25,20.31.77l-.17,0a6.88,6.88,0,0,1,2.23.58l-.11,0,.83.52.7.66.48.76,0,1.15v0c-.07.44-.14.88-.21,1.32,0,0,0,0,0,0a7,7,0,0,0,.55-2.53c0-.18-1-2.36-.41-1a5,5,0,0,0-2.69-2.23,59,59,0,0,0-7.66-1.73c-2.18-.43-4.4-.74-6.6-1.08-4.52-.7-9-1.47-13.58-2-9.4-1.16-18.79-2.24-28.23-3.08Q788.23,608,774.75,607c-9.73-.75-19.49-1.27-29.21-2.12Q728.26,603.36,711,602c-7.13-.55-14.23-1.34-21.35-2.08-18.95-2-37.93-3.63-56.9-5.35-18.37-1.66-36.72-3.44-55.12-4.72l-40-2.8-10.05-.7c-2-.14-4-.09-6.05-.13q-32.54-.61-65.08-1.23h-.49c-1.65,0-3.32.17-5,.25Z"/><path class="cls-1" d="M834.84,579.23s0,0,0,0l.28-.1.64,0h0a9.31,9.31,0,0,1,1.94.54h0l0,0,0,0,.75.43.18.31-.23.42-.75.43c-4,1.35-8.26,1.79-12.4,2.49q-5.34.71-10.65,1.46-7,.81-14,1.69c-3.08.39-6.17.64-9.26.93q-8.23.75-16.44,1.57c-2.53.26-5.06.36-7.59.51q-9.08.56-18.15,1.18c-3,.2-6,.51-9,.62q-14.79.51-29.59,1.14c-17.54.76-35.09,1.24-52.64,2L606.65,597c-16.06.68-32.1,1.56-48.15,2.39l-25.33,1.32c-6.11.31-12.21.83-18.32,1.25l-36.53,2.49c-5.57.38-11.17.66-16.73,1.16l-59,5.25c-5.68.51-11.34,1.27-17,1.93l-33.83,4c-5.5.65-11,1.43-16.46,2.19l-35.39,4.87-6,.85a4.83,4.83,0,0,0-1.35.17l-.12,0c-14.14,2-28.26,4.28-42.38,6.54-16.72,2.69-33.37,5.8-50,8.89-14.36,2.67-28.68,5.47-43,8.21-17.17,3.28-34.32,6.71-51.54,9.71-12.25,2.14-24.5,4.32-36.75,6.46,0,0,0,0,0,0q17.31-1.52,34.58-3.34c9.07-.95,18.15-1.95,27.19-3.15l-.28,0,4.73-.63.12,0,.44-.05,9.24-1.25q11-1.5,22.09-3.06,27.1-3.83,54.15-7.89c10.53-1.57,21.06-3.2,31.61-4.72,13.29-1.91,26.54-4.07,39.83-5.94l.13,0,.21,0,.27,0,.27,0-.24,0,.33,0,.27,0-.24,0,.64-.09.17,0-1,.13,1.18-.16h.08l1.2-.16h0l.12,0,.34,0h-.05l1.38-.19,1.31-.18.38,0,5.32-.72-.16,0,.34,0,1-.13-.5.07,1-.13-.47.06,9.86-1.32-1.32.18,11.33-1.53,1.32-.18.22,0c.46,0,.93-.12,1.41-.18l6.49-.87-.24,0,8-1.07-.49.06,3.53-.47-1.34.18,3.06-.41-1.34.18,1.92-.26h0l-.13,0,.14,0,52.07-6c1.84-.22,3.69-.33,5.53-.49l15.36-1.34,34.78-3c15.54-1.36,31.12-2.22,46.69-3.26,14.65-1,29.3-2,44-2.72l36.16-1.82c5.25-.26,10.5-.57,15.75-.77,17.65-.68,35.3-1.27,52.94-2.06,16.66-.75,33.33-1.45,50-2.63q16.38-1.15,32.74-2.46c7-.56,14-1.37,21-2.19q7-.81,14-1.67c2-.25,4.07-.47,6.09-.78q11.73-1.85,23.45-3.84c2.93-.5,5.84-1.17,8.75-1.76s6.11-1.24,9.15-2c3.54-.82,7.1-1.59,10.59-2.57,1.93-.53,3.84-1.08,5.76-1.64a35.05,35.05,0,0,0,4.33-1.61,6.18,6.18,0,0,0,1.84-1.18,3.39,3.39,0,0,0,.41-1,.37.37,0,0,0-.1-.36,1.82,1.82,0,0,0-.49-.57,5.57,5.57,0,0,0-2.07-.53,5.45,5.45,0,0,0-.89-.09,2.23,2.23,0,0,0-1,.22Zm-486.26,48-.3,0-.17,0,.38-.05Zm-.5.07-.12,0H348l-.26,0,.33,0Zm-55.59,7.46h0Zm-.08,0h0Zm1-.13h-.1l.13,0Zm.85-.11.33,0-.33,0Zm1.88-.26.85-.11-.85.11ZM298,634l1.17-.16L298,634Zm1.2-.16h0l.14,0Zm5.5-.74-.18,0,.65-.09-.47.06Zm1.43-.19.85-.12-.85.12ZM334.95,629l1.09-.15-1.09.15Zm7.76-1,.84-.11-.84.11Zm4.78-.64.48-.07-.48.07Zm490.21-47.61h0Z"/><path class="cls-1" d="M857.77.26c-1.2.91-2.68,1.74-3.51,3a24.3,24.3,0,0,0-2.63,5.93c-.78,2.45-1.45,4.92-2,7.42s-1.05,5.32-1.54,8c-.31,1.74-.52,3.51-.78,5.26q-.53,3.57-1,7.13c-1.09,7.43-2.11,14.9-2.76,22.38a0,0,0,0,0,0,0c1.15-7.16,2.7-14.25,4.2-21.34.72-3.45,1.5-6.88,2.25-10.32a119.55,119.55,0,0,1,5.69-19.31,20.41,20.41,0,0,1,1.54-2.79c.09,1.07.16,2.13.19,3.21.07,2.32,0,4.66,0,7,0,1.81-.05,3.62-.09,5.43q-.14,6.32-.26,12.63c-.14,7.39-.43,14.77-.63,22.16-.37,14.15-.82,28.29-1.18,42.44-.1,4.17-.13,8.33-.17,12.49q-.16,14.7-.24,29.41c-.06,11.16,0,22.31,0,33.47.09,14.73.11,29.45.27,44.18l.53,47c.3,27.28.72,54.54,1.11,81.82.36,25.12.76,50.24.88,75.36q.07,14.54.21,29.07c0,3.94.09,7.88.09,11.82q0,13.76,0,27.52c0,4.8.09,9.61,0,14.42q-.21,13.35-.39,26.69a338.24,338.24,0,0,1-2.68,40.07l.06-.42c-1.52,11-3.86,22-8.17,32.28,0-.05,0-.11.07-.17a88.79,88.79,0,0,1-5.71,10.92c-2.07,3.36-4.49,6.55-6.88,9.69a0,0,0,0,0,0,0c2.59-3,5.13-6.12,7.47-9.36A77.72,77.72,0,0,0,849,602.26a119.94,119.94,0,0,0,8.29-26.48,263.4,263.4,0,0,0,4.12-29.26c.41-4.49.76-9,1-13.46q.69-13.63,1.33-27.25c.22-4.68.29-9.37.39-14.05.28-13.17.59-26.34.58-39.51q0-14.43-.13-28.86c0-5.15,0-10.31-.11-15.46q-.7-40.44-1.38-80.88-.83-45.44-1.52-90.88c-.41-27-.61-54-.88-81,0-4.55,0-9.09,0-13.63q0-14.73,0-29.47c0-4.32-.09-8.65,0-13q.15-13.13.24-26.28.11-15.34.23-30.7,0-6.59.07-13.17,0-5,0-10c0-1.8,0-3.59,0-5.38,0-1.95,0-3.88-.13-5.83s-.33-3.87-.52-5.81a1.94,1.94,0,0,0-.93-1.61,2.09,2.09,0,0,0-1-.26,1.45,1.45,0,0,0-.88.26Z"/><path class="cls-1" d="M353.9,63.09l-37.84.18c-6.52,0-13,.07-19.54.21l-38.79.86c-6.74.15-13.48.41-20.21.67l-35.07,1.36c-2.49.09-5,.26-7.44.4q-10,.57-20.05,1.2c-7.84.48-15.68.95-23.51,1.63q-16.5,1.44-33,3c-4.13.39-8.24,1-12.35,1.5L87.44,76.37c-3.15.4-6.28.9-9.41,1.39Q69,79.16,60,80.58c-4.9.78-9.77,1.76-14.65,2.66s-10,2-14.95,3C20.24,88.41,10.13,90.73,0,92.95c0,0,0,0,0,0,14-2.1,27.89-4.26,41.85-6.36q7.75-1,15.5-2c3.75-.49,7.51-.86,11.26-1.28L85.15,81.5c3.86-.44,7.76-.67,11.64-1,8.83-.76,17.65-1.67,26.5-2.21q17-1.05,34-2.2c3-.2,6-.28,9-.41q10.27-.47,20.53-1c7.26-.36,14.5-.76,21.76-1l38.09-1.37c7-.25,14.09-.32,21.14-.45l34.8-.64c2.07,0,4.13,0,6.19,0h18.71c3.25,0,6.5,0,9.75,0,6.51,0,13,0,19.51,0,10.09.11,20.19.26,30.28.39,8.3.11,16.6.14,24.89.33l33.85.81c7.67.19,15.34.31,23,.57L505,74.54q29.51,1,59,2.15c18.25.68,36.51,1.16,54.76,1.73,9.11.28,18.22.37,27.33.55l19.62.4c2.58,0,5.16.13,7.74.14q29.33.12,58.65-.36c18.46-.31,36.91-.79,55.37-1.27,9.83-.26,19.65-.56,29.47-.82q15.84-.42,31.68-.74c6.92-.14,13.86-.1,20.79.06,0,0,0,0,0,0-5.56-.64-11.13-1.1-16.7-1.61-1.6-.14-3.21-.2-4.81-.3l-10.48-.65c-8.75-.53-17.51-.89-26.27-1.23q-29.42-1.14-58.84-1.8-27.9-.66-55.8-1.08c-8.44-.14-16.88-.17-25.32-.33-12.29-.24-24.58-.43-36.86-.64-37.84-.65-75.67-1.8-113.49-2.91-9.23-.28-18.46-.49-27.7-.72-8.73-.23-17.47-.53-26.2-.68l-33.19-.57c-7.84-.14-15.67-.34-23.52-.39l-35.09-.22c-6.06,0-12.11-.12-18.17-.12ZM41.69,86.66l-.16,0,.16,0Z"/><path class="cls-1" d="M88.32,724.21C86.56,707.1,84.69,690,83,672.88q-2.43-24.08-5.06-48.13c-1.82-16.49-3.78-33-5.69-49.43-.32-2.8-.53-5.61-.79-8.42l-2.27-24.21Q63.76,485.35,58.37,428c-.15-1.63-.24-3.26-.31-4.9q-.42-8.66-.82-17.33-1.49-31.13-3-62.25c-1.05-22.19-2-44.38-3.35-66.54Q50,261,48.81,245.14c-.13-1.86-.13-3.76-.19-5.63q-.17-4.91-.32-9.83-.28-9.13-.51-18.26-.48-19-.7-37.93t-.18-37.89c0-6,0-12,.28-18,.26-6.41.68-12.81.92-19.22,0,0,0,0,0,0h0c-.92,5.4-1.93,10.8-2.86,16.19-1,5.6-1.72,11.22-2.38,16.86q-2,17.5-3.46,35.07-2.89,35-3.37,70.24c0,3.24-.15,6.48,0,9.72l.18,5.35q.35,10.44.79,20.85c.91,21.75,2.21,43.47,3.44,65.2l3.61,64,1.09,19.39c.11,1.88.15,3.78.35,5.65q2.27,21.22,4.55,42.45,5.66,52.89,11.34,105.76c.51,4.74,1.27,9.46,1.91,14.18,1.4,10.38,2.78,20.77,4.22,31.16,2.44,17.6,5,35.18,7.66,52.75,2.38,15.86,5,31.67,7.53,47.5"/><path class="cls-1" d="M85.79,99.18a1.56,1.56,0,0,0-1,.59.48.48,0,0,0-.07.57c1.38,2.87,2.7,5.75,4.33,8.5s3.36,5.34,5.15,7.94A185.26,185.26,0,0,0,106,131.89a290.45,290.45,0,0,0,28.31,28.5c9.2,8.21,19,15.75,28.58,23.45,15.48,12.38,31.21,24.43,47,36.39l.44.33c29.14,23,58.59,45.64,87.36,69.1,8.87,7.23,17.65,14.56,26.65,21.64q15.8,12.43,31.85,24.58,12.21,9.93,24.6,19.66c6.63,5.23,13,10.67,19.54,16.08q5.93,4.94,11.89,9.82c3.34,2.74,6.53,5.67,9.8,8.48,7.38,6.33,14.71,12.73,22.12,19,6.17,5.24,12.5,10.23,19.11,14.93,3.57,2.53,7.71,5.42,12.15,6,3.09.42,6.44-1.18,6.76-4.59.55-5.77-4-10.67-7.11-15.06,0,0,0,0,0,0a47.3,47.3,0,0,1,2.71,9.4,22,22,0,0,1,0,3.48,5.64,5.64,0,0,1-.29,1l0,0,0-.11-.13.17-.1,0-.38,0-.65-.2a32.76,32.76,0,0,1-5-3.22,279.38,279.38,0,0,1-22.39-20.29c-7.42-7.39-15-14.65-22.58-21.86-12.84-12.16-26-24-39.59-35.28-8.63-7.16-17.24-14.36-26.14-21.19Q345,310.28,329.41,298.68C315.65,288,302,277.17,288,266.71q-23.76-17.83-47.5-35.72c-8.19-6.19-16.38-12.4-24.59-18.56s-17-12.16-25.47-18.19c-15-10.65-30-21.42-45-32.14-1.36-1-2.65-2-4-3l.59.46c-17.24-13.37-33.83-27.84-47.24-45.14-1.55-2.06-3.06-4.14-4.52-6.27-1.74-2.54-3.16-5.24-4.65-7.94l0,0,.06,0c5,5.08,9.48,10.75,14.11,16.18,0,0,0,0,0,0-4.51-5.7-8.87-11.56-13.75-16.94a.41.41,0,0,0-.29-.12l-.11,0Zm9.15,15.25.06.08-.06-.08ZM477.8,422.53a5.5,5.5,0,0,1-.08.59l.08-.59Zm-.45,1.77-.15.32.12-.29,0,0Z"/><path class="cls-1" d="M776.79,121.44c-31.59,22.86-63.21,45.67-94.48,69q-21.23,15.81-42.44,31.65-13.28,10-26.4,20.15c-7,5.47-13.92,11.07-20.92,16.55-16,12.53-31.92,25.2-47.44,38.36-1.44,1.22-2.8,2.55-4.19,3.83q-6.13,5.65-12.19,11.38Q514.27,326,500.21,340c-2.77,2.76-5.57,5.49-8.18,8.4q-9.55,10.67-18.9,21.52-10.76,12.46-21.26,25.16c-7.19,8.67-14,17.61-20.8,26.6,0,0,0,0,0,0,7.76-5.84,15.41-11.82,23.21-17.6q10-7.4,19.82-14.95,17.09-13.1,33.85-26.63c19.48-14.44,38.67-29.34,57.31-44.84,15.93-12.35,31.47-25.17,46.89-38.15q21.65-18.24,42.62-37.28C661.67,236,668.31,229.48,675,223q8.24-7.92,16.4-15.94,22.86-22.49,45.44-45.24c13.36-13.42,26.62-26.94,40-40.38a0,0,0,0,0,0,0ZM563.31,319.22l-.93.71.93-.71Z"/></g></g></svg>