<svg xmlns="http://www.w3.org/2000/svg" viewBox="0 0 930.06 940.77"><defs><style>.cls-1{fill:#444;}</style></defs><title>js-icon</title><g id="Layer_2" data-name="Layer 2"><g id="Draw_Layer" data-name="Draw Layer"><path class="cls-1" d="M390.31,18.83A445.42,445.42,0,0,0,311.4,36.19a440.91,440.91,0,0,0-72,30.12q-4.85,2.55-9.63,5.22-5.53,3-11,6.07A396.47,396.47,0,0,0,184,100.14a424.6,424.6,0,0,0-61.05,54.13A449,449,0,0,0,10.24,373.81a445.32,445.32,0,0,0-8.39,83.35c-.12,14.37.54,28.74,1.8,43.05C4.87,514,6.83,527.68,9.33,541.27a444.14,444.14,0,0,0,23.38,81.67,439.45,439.45,0,0,0,37.21,73.48,449.33,449.33,0,0,0,49.33,64.47c9.35,10.2,19.23,19.91,29.5,29.18,9.9,8.94,20.25,17.36,30.9,25.39,11.09,8.36,22.6,16.15,34.42,23.44s23.89,13.9,36.28,20A443.71,443.71,0,0,0,495.7,901.76a452,452,0,0,0,82.09-16.94,440.77,440.77,0,0,0,75.48-31,453.79,453.79,0,0,0,68.57-44.38,447.37,447.37,0,0,0,59.75-56.27c8.9-10,17.24-20.57,25.18-31.39,8.2-11.18,15.82-22.77,22.95-34.66s13.8-24.43,19.85-37.09c5.93-12.41,11.19-25.16,15.93-38.07,4.86-13.24,9-26.72,12.53-40.37,1.69-6.54,3.19-13.13,4.58-19.74,1.51-7.2,2.77-14.45,4-21.71,2.24-13.66,3.77-27.44,4.74-41.25,1-14.35,1.16-28.75.72-43.13-.21-7-.63-14-1.17-21-.13-1.69-.28-3.38-.47-5.07s-.37-3.12-.56-4.69c-.48-3.88-.88-7.77-1.36-11.65-1.7-13.49-4-26.89-6.94-40.18-2.95-13.53-6.63-26.9-10.84-40.09q-6.17-19.31-14.16-38-8.2-19.24-18.12-37.65c-6.62-12.27-13.9-24.19-21.65-35.78-7.45-11.13-15.46-21.89-23.85-32.33-8.55-10.62-17.63-20.81-27.14-30.59S746.39,129.86,736.11,121c-10.06-8.62-20.57-16.7-31.39-24.36a449.84,449.84,0,0,0-71.11-41q-18.23-8.44-37.21-15.12c-13.13-4.64-26.51-8.59-40-12s-27.41-6-41.28-8.21c-13.39-2.09-26.88-3.5-40.4-4.36q-13.49-.86-27-.85a463.07,463.07,0,0,0-57.37,3.63Zm24.7-.95c10.22-.75,20.48-1.06,30.73-1.08a441.36,441.36,0,0,1,59,3.92h0q6.64.9,13.25,2c5,.82,10,1.79,14.91,2.8,9.34,1.92,18.6,4.19,27.79,6.71a452.78,452.78,0,0,1,55.08,19.18l-.39-.16q12.93,5.47,25.52,11.7c8.86,4.39,17.54,9.12,26.09,14.08,8,4.67,15.89,9.66,23.61,14.84,8.14,5.46,16.08,11.23,23.84,17.22q10.74,8.36,21,17.26c7.37,6.39,14.49,13.05,21.42,19.9a450.81,450.81,0,0,1,39,44.05l-.35-.46q8.58,11.13,16.47,22.76c5.32,7.84,10.34,15.88,15.14,24a444,444,0,0,1,26.06,52.05q5.42,13,10,26.29c3.25,9.37,6.12,18.86,8.73,28.43a447.4,447.4,0,0,1,11.52,57.16q.85,6.46,1.54,12.94c.22,2.07.31,4.17.45,6.25.19,2.86.44,5.71.65,8.57.75,10.43,1.08,20.88,1.1,31.34,0,9.75-.35,19.51-.95,29.24-.62,10.13-1.66,20.24-3,30.3l.06-.42-.08.6v0c-.59,4.28-1.22,8.54-1.94,12.8-.85,5-1.82,10-2.84,15-1.92,9.37-4.21,18.67-6.73,27.89s-5.41,18.39-8.51,27.46c-3.22,9.42-6.82,18.7-10.67,27.88q-5.61,13.18-12,26c-4.25,8.54-8.82,16.92-13.6,25.17a444.08,444.08,0,0,1-32.16,47.76l0-.06-.08.1-.32.41.15-.2q-8.48,10.89-17.54,21.3c-6.43,7.39-13.14,14.54-20,21.49a442.56,442.56,0,0,1-42.92,37.85h0q-5.28,4.05-10.66,8c-4,2.92-8.11,5.74-12.23,8.51-7.78,5.23-15.76,10.17-23.86,14.89a443.89,443.89,0,0,1-50.17,25q-12.88,5.4-26,10c-8.93,3.13-18,5.92-27.08,8.46a438.36,438.36,0,0,1-58.38,12l.45-.06q-14.64,2-29.38,3c-9.81.7-19.65,1-29.49,1.09a440.27,440.27,0,0,1-60-3.85l.42.06q-14.36-1.94-28.57-4.77c-10-2-19.82-4.36-29.61-7a444.38,444.38,0,0,1-55.32-19.24l0,0Q261.4,861,249,854.77c-8.4-4.18-16.64-8.67-24.75-13.37A442.89,442.89,0,0,1,176.06,809l.12.1-.26-.2,0,0,0,0q-10.95-8.51-21.38-17.64c-7.06-6.18-13.89-12.62-20.55-19.22a442.94,442.94,0,0,1-38.32-43.4q-8.45-11-16.24-22.48c-5.29-7.8-10.28-15.8-15.06-23.92A444.12,444.12,0,0,1,38.13,629.8l.13.29Q32.72,616.83,28,603.26c-3.17-9.15-6-18.41-8.55-27.75A442.07,442.07,0,0,1,8,518.82Q6,504.39,5,489.87c-.76-10.31-1.1-20.64-1.14-31a437.63,437.63,0,0,1,3.93-59.43v0q2-14.37,4.84-28.6c1.93-9.57,4.23-19.06,6.79-28.48a433.46,433.46,0,0,1,19-54.6l-.09.21q5.26-12.33,11.2-24.35c4.29-8.68,8.92-17.18,13.77-25.56a439.42,439.42,0,0,1,32.09-47.66l0,0q8.33-10.74,17.27-21c6.49-7.45,13.27-14.64,20.24-21.64a469.09,469.09,0,0,1,45.12-39.49l-.21.16Q196,94.43,215.56,82q7.49-4.77,15.15-9.25A445.8,445.8,0,0,1,274.46,51.4l-.18.07q13.24-5.55,26.79-10.27c9.2-3.2,18.51-6.05,27.9-8.64A445.52,445.52,0,0,1,387,20.77h.16q13.88-1.83,27.84-2.85Zm299,90.9.14.11-.14-.11ZM8,518.95l0,.13,0-.13ZM852.36,630.81l-.1.23.1-.23ZM274.3,866.47l.22.09-.22-.09Zm-98.38-57.52.13.1-.15-.11Zm618.65-79.31.16-.21,0,0-.2.26Zm88.64-210.23v0l0-.18,0,.2ZM387.09,20.76H387l.16,0Z"/><path class="cls-1" d="M183.16,102.52A341.87,341.87,0,0,0,152.86,124a355.24,355.24,0,0,0-28,24.89,343.57,343.57,0,0,0-25,27.47c-7.85,9.59-15.07,19.71-22,30a472.68,472.68,0,0,0-37.09,66.43A444.82,444.82,0,0,0,2.37,418.2,461.73,461.73,0,0,0,2,496c1,12.69,2.63,25.32,4.71,37.87s4.69,25.29,7.81,37.77a431.36,431.36,0,0,0,24.51,71c5.09,11.42,10.72,22.59,16.77,33.53s12.52,21.69,19.4,32.15c6.76,10.27,14,20.2,21.59,29.88s15.78,19.27,24.32,28.33a462.7,462.7,0,0,0,55.08,49.44,445.49,445.49,0,0,0,128.49,68.66,442.46,442.46,0,0,0,71.22,18.08c12.24,2.07,24.6,3.55,37,4.39a318,318,0,0,0,37,.19c6.13-.3,12.27-.73,18.36-1.44,5.71-.66,11.41-1.46,17.1-2.34,12-1.85,23.94-4.12,35.75-7,0,0,0,0,0,0-11.1,1.08-22.24,1.91-33.39,2.22-5.49.15-11,.17-16.47.13-6.1-.05-12.2-.14-18.29-.3-11.26-.3-22.51-1-33.75-1.81-5.74-.43-11.47-.95-17.2-1.49-6-.57-12-1.32-17.93-2.1a449,449,0,0,1-54.72-11c-9.42-2.51-18.75-5.37-28-8.5s-18.08-6.57-26.95-10.3A469.54,469.54,0,0,1,224,838.23a435.56,435.56,0,0,1-47.44-31.84l.79.62a446.23,446.23,0,0,1-43.55-38.5c-6.65-6.68-13.07-13.61-19.33-20.65-6.52-7.34-12.76-14.93-18.78-22.68a432.38,432.38,0,0,1-31.64-46.94A451.21,451.21,0,0,1,20.78,574.7c-2.48-8.88-4.62-17.85-6.54-26.87-2-9.62-3.66-19.32-5-29.07l.08.63q-2-14.76-3.09-29.62c-.74-9.88-1-19.8-1.08-29.7A433.39,433.39,0,0,1,9,401.55a446.52,446.52,0,0,1,11.7-57.17,441.6,441.6,0,0,1,18.77-54.13l-.29.68a436.32,436.32,0,0,1,24.28-48.77c4.62-8,9.53-15.77,14.63-23.44s10.68-15.28,16.36-22.66q19.65-25.28,41.63-48.63c7.2-7.63,14.66-15,22.25-22.26q12.16-11.61,24.86-22.64s0,0,0,0Zm91.79,761.1.42.18-.42-.18Zm108.48,29.45.42.05-.42-.05Zm.71.09.72.1-.72-.1Z"/><path class="cls-1" d="M435.24,4.6c-6.56.4-13.08,1.11-19.62,1.77-7,.71-14,1.66-21,2.74-13.88,2.16-27.62,5.07-41.22,8.59a459.76,459.76,0,0,0-77,27.58,451.86,451.86,0,0,0-71.66,41.61,437.79,437.79,0,0,0-62.59,54,446.87,446.87,0,0,0-89.8,137.17,455.47,455.47,0,0,0-25,79.78,448,448,0,0,0-9.81,82.52c-.4,14.45,0,28.91.91,43.34.2,3.34.46,6.68.73,10s.7,6.83,1.11,10.23C21.21,511,22.26,518,23.43,525A440.78,440.78,0,0,0,128.2,743.94a451.65,451.65,0,0,0,124,98.27,446.73,446.73,0,0,0,73.25,31.3c52.9,17.31,109.13,24.06,164.65,20.85a452.51,452.51,0,0,0,82.59-12.7c13.35-3.3,26.52-7.31,39.5-11.85,12.52-4.38,24.79-9.41,36.88-14.86a446.72,446.72,0,0,0,131.38-91.1c9.6-9.58,18.72-19.63,27.41-30C816.36,723.6,824.48,713,832,702c7.77-11.29,15-23,21.65-34.93,3.22-5.75,6.28-11.59,9.25-17.48q4.8-9.54,9.26-19.27a468,468,0,0,0,20-51.81c2.92-9,5.5-18.2,7.82-27.42,1.24-4.9,2.36-9.82,3.43-14.77s1.95-10.05,2.8-15.09c1.61-9.5,2.87-19.07,3.88-28.65.55-5.16,1-10.34,1.34-15.52s.54-10.35.67-15.53c.25-9.85.12-19.71-.29-29.56-.21-5.27-.55-10.53-1-15.78-.16-2.11-.5-4.17-.87-6.25-.42-2.42-.88-4.83-1.33-7.24q-2.31-21.13-6.45-42c-1.3-6.52-2.79-13-4.38-19.44-.8-3.22-1.65-6.43-2.59-9.61-1.1-3.73-2.27-7.44-3.47-11.14a462.52,462.52,0,0,0-32-74.66c-6.38-12-13.37-23.61-20.83-34.95-3.57-5.42-7.28-10.74-11.08-16-1.9-2.63-3.84-5.22-5.79-7.8s-4-5.37-6.1-8q-12.55-16.17-26.48-31.17c-9.29-10-19.1-19.52-29.24-28.67A446,446,0,0,0,622.29,34.7a440.65,440.65,0,0,0-80.2-22.45q-20.22-3.68-40.72-5.39l-2.94-.38C491.33,5.6,484.21,5,477.08,4.55Q467,3.92,456.82,3.93q-10.8,0-21.58.67Zm-17.91,6.05c2.16-.24,4.32-.39,6.48-.57,2.7-.23,5.39-.43,8.09-.62,9.46-.67,18.93-1.09,28.41-1.36q20.29-.59,40.59.23,10.57.9,21.08,2.28h-.06A452.51,452.51,0,0,1,579,22.11a441.18,441.18,0,0,1,55.1,18.94h0A456.93,456.93,0,0,1,686,67,446.12,446.12,0,0,1,734,99.3l-.15-.12a437.12,437.12,0,0,1,78.75,78.7l-.06-.08c2.63,3.41,5.25,6.85,7.76,10.36s4.92,7.07,7.31,10.65c4.8,7.19,9.35,14.54,13.72,22a418.16,418.16,0,0,1,24.13,47.94l-.19-.45.2.49.06.15-.06-.14a450.72,450.72,0,0,1,19.91,58.69c1.28,4.82,2.44,9.68,3.66,14.51,1.35,5.36,2.57,10.76,3.72,16.17,2.3,10.82,4.13,21.75,5.62,32.72q.81,6.3,1.47,12.61c0,1,0,2.09,0,3.13s0,2.08,0,3.13,0,2.08,0,3.12c0,.52,0,1,0,1.56.08,1.17.17,2.34.25,3.52.74,10.47,1.05,21,1.06,31.46s-.45,20.75-1.08,31.11c-.62,10.15-1.64,20.27-3,30.35-1.35,9.83-3,19.6-4.93,29.34-1.91,9.9-4.22,19.73-6.8,29.48A426.19,426.19,0,0,1,866,625.92l.38-.9q-2.58,6.06-5.31,12c-2.06,4.5-4.31,8.91-6.57,13.3-4.27,8.3-8.84,16.44-13.62,24.45s-9.84,15.82-15.11,23.51q-7.68,11.21-16,22a457.84,457.84,0,0,1-37.38,42.38,444,444,0,0,1-42.06,37A453.29,453.29,0,0,1,683.88,831a432.66,432.66,0,0,1-50.32,25.24l.11,0-.15.06-.45.19.32-.14a453.31,453.31,0,0,1-54,18.63,438.9,438.9,0,0,1-57.32,11.65,466.42,466.42,0,0,1-57.93,4,432.17,432.17,0,0,1-58.82-3.79,451.62,451.62,0,0,1-58.19-11.87,443.56,443.56,0,0,1-55.28-19.23h0a457.23,457.23,0,0,1-49.78-25,447.2,447.2,0,0,1-47.65-32l.53.41a453,453,0,0,1-42-36.71A445,445,0,0,1,115,719.27a463.89,463.89,0,0,1-31.82-47.13,441.16,441.16,0,0,1-25.74-51.26l.14.32a456.06,456.06,0,0,1-19-55,444.67,444.67,0,0,1-11.82-57.89q-.85-6.47-1.55-13c-.54-5-1.11-10-1.56-15-.92-10.4-1.27-20.86-1.36-31.29a438,438,0,0,1,3.87-60.95l-.07.54q1.93-14.16,4.72-28.18c1.85-9.3,4.07-18.51,6.55-27.66a430.93,430.93,0,0,1,18.4-53.43,456.87,456.87,0,0,1,25.45-51,445.37,445.37,0,0,1,32.29-48.09l-.2.26a467.45,467.45,0,0,1,37.65-42.85A447.87,447.87,0,0,1,194.5,99.22l-.15.12.23-.18.16-.12-.09.07c7.6-5.83,15.33-11.46,23.26-16.85,7.73-5.25,15.69-10.15,23.75-14.86a435.89,435.89,0,0,1,50.25-25.07l-.43.18q13.07-5.46,26.44-10.09,14.09-4.85,28.49-8.69A467.25,467.25,0,0,1,404,12.3q6.67-.89,13.35-1.64Zm-13.41.12h0ZM634.19,41.09l.06,0-.06,0ZM55.83,279l-.08.18.08-.18Zm-1.52.73,0,.05,0-.05ZM26.67,508.36c0,.23.06.47.09.71l-.09-.71ZM810,720l-.17.22L810,720ZM292.3,855.9l.16.07-.16-.07Zm341.09.41.13-.06,0,0-.17.07Zm232-587.5h0l0,0,0,0Zm-752-88.53.1-.13-.1.13Zm699.07-2.47-.09-.12.09.12ZM194.58,99.15l-.08.06.15-.11-.07.05ZM522,10.62h0Z"/><path class="cls-1" d="M176.06,111.67a339.92,339.92,0,0,0-51.9,45.77A335.57,335.57,0,0,0,102,184.33c-7,9.36-13.37,19.18-19.44,29.17a466.08,466.08,0,0,0-31.94,63.7,442.9,442.9,0,0,0-22,68.94A488.2,488.2,0,0,0,17.29,417c-1,12.19-1.4,24.42-1.36,36.64,0,12.41.57,24.86,1.51,37.23.43,5.69,1.1,11.35,1.84,17q1.2,9.24,2.64,18.45,2.87,18.11,7.33,35.91c2.92,11.66,6.41,23.16,10.19,34.58s8,22.43,12.63,33.39,9.85,21.85,15.4,32.47,11.85,21.16,18.4,31.36a466.79,466.79,0,0,0,42.92,56.85,434.72,434.72,0,0,0,51.47,49.22c9.3,7.56,18.73,14.93,28.5,21.88a345.16,345.16,0,0,0,30.38,19.61c7.24,4.09,14.8,7.64,22.41,11,8.13,3.57,16.43,6.82,24.81,9.77A260.3,260.3,0,0,0,335.24,874s0,0,0,0c-11.89-5.66-23.61-11.67-35.33-17.68-6.48-3.32-13-6.64-19.36-10.14s-12.8-7.14-19.13-10.82q-18.28-10.59-36.32-21.6a385.94,385.94,0,0,1-33.62-23.39,461.94,461.94,0,0,1-76.81-77.61c-5.67-7.39-11.15-14.92-16.32-22.66C93,682,87.87,673.76,83,665.35a474.72,474.72,0,0,1-25.46-51Q52.49,602.31,48.12,590c-3.21-9.06-6-18.31-8.5-27.58a429.24,429.24,0,0,1-11.46-54.8c-1.26-9.55-2.33-19.13-3.15-28.72-.89-10.36-1.22-20.75-1.27-31.14a450.72,450.72,0,0,1,3.71-59q1.82-13.44,4.42-26.76c1.75-9,4-17.84,6.38-26.66a440,440,0,0,1,18.53-53.44l-.08.2A438.41,438.41,0,0,1,86,225.29,575.87,575.87,0,0,1,121.79,174a701.88,701.88,0,0,1,54.29-62.27s0,0,0,0ZM56.67,282.17l-.27.63.27-.63Z"/><path class="cls-1" d="M31.95,552.47c2,10.78,4.34,21.5,7.11,32.11a296.63,296.63,0,0,0,10.15,32,242.25,242.25,0,0,0,14,29.86q4.1,7.44,8.65,14.61c2.94,4.63,6.09,9.12,9.34,13.54,0,0,0,0,0,0C74.5,660,67.91,645.24,61.64,630.39l.06.14q-2.17-5.13-4.34-10.25l.31.75-4.84-11.48.3.71c-4-9.49-7.89-19-11.48-28.68s-6.8-19.3-9.68-29.11h0a0,0,0,0,0,0,0Z"/><path class="cls-1" d="M430.75.09q-4.66.38-9.32.84c-2.8.28-5.59.72-8.36,1.13C406,3.1,399,4.13,392,5.39,385.53,6.55,379.11,8,372.73,9.45c-7.34,1.71-14.64,3.47-21.9,5.46a486.33,486.33,0,0,0-77.61,28.85,441.83,441.83,0,0,0-71.1,42.05A436.6,436.6,0,0,0,141,139.61,468,468,0,0,0,53.59,271.73c-5,11.2-9.53,22.63-13.53,34.21q-3.86,11.16-6.89,22.59Q29.42,341.65,26.43,355c-3.07,13.65-5.36,27.45-7.12,41.32a402,402,0,0,0-3.16,43.11c-.27,14.5.25,29,1.39,43.45.25,3.21.51,6.42.71,9.63s.58,6.5,1,9.75c.83,7.12,1.86,14.21,3,21.29C24.5,537.42,27.5,551.23,31,564.9A417.38,417.38,0,0,0,43.31,605.1c4.69,12.9,10,25.56,15.89,38s12.33,24.84,19.28,36.83a431.41,431.41,0,0,0,48.11,67.22,470,470,0,0,0,34.63,35.45,455.34,455.34,0,0,0,39.39,32.47,406.67,406.67,0,0,0,43.16,28,459.14,459.14,0,0,0,45.18,21.89l-.63-.26c13,5.49,26.15,10.48,39.57,14.81s26.88,7.88,40.55,10.88a446,446,0,0,0,84.78,10c14.41.35,28.8.11,43.18-.82,1.74-.11,3.48-.25,5.23-.38s3.22-.29,4.86-.29h1.37a16.55,16.55,0,0,0,3.11-.2c1.73-.18,3.47-.39,5.2-.59q11.45-1.34,22.82-3.24a350.88,350.88,0,0,0,41.83-9.27,303.16,303.16,0,0,0,39.36-15c9.58-4.34,18.89-9.37,28-14.61,8.89-5.11,17.54-10.65,26-16.43,0,0,0,0,0,0-11.4,4.7-23,8.93-34.71,12.79-12.68,4.17-25.55,7.8-38.46,11.23-13.11,3.49-26.32,6.6-39.54,9.62-6.7,1.53-13.42,3-20.18,4.23-6.53,1.22-13.09,2.25-19.67,3.16q-4.46.58-8.92,1.1c-1.89.21-3.84.31-5.71.68l-3.26.64a451.69,451.69,0,0,1-48.77,2.21c-8.61-.07-17.24-.57-25.83-1.2-8.24-.61-16.45-1.5-24.64-2.57a461.89,461.89,0,0,1-54.84-11,444.75,444.75,0,0,1-55.31-18.74q-13.06-5.59-25.75-12c-8.86-4.44-17.48-9.29-26.07-14.21a450.82,450.82,0,0,1-50.24-33.67q-10.65-8.31-20.81-17.2c-7-6.16-13.81-12.61-20.41-19.23a472.5,472.5,0,0,1-37.76-43,460.52,460.52,0,0,1-30.35-44.69q-7.24-12.15-13.59-24.79c-4.1-8.18-7.9-16.52-11.48-24.94A473.91,473.91,0,0,1,39.13,564.4a413.59,413.59,0,0,1-11.5-56c-.67-5.16-1.19-10.33-1.89-15.48l0,.24q-.24-1.81-.47-3.61c-.28-2.23-.42-4.47-.59-6.71-.34-4.66-.58-9.32-.78-14-.39-9.24-.43-18.5-.24-27.75a479.27,479.27,0,0,1,4-53.1A459.28,459.28,0,0,1,39,332.23l.54-2q2.88-9.72,6.09-19.33,5.8-17.5,12.85-34.54a461.14,461.14,0,0,1,23.88-47.62,421.19,421.19,0,0,1,30.89-45.93,452.47,452.47,0,0,1,79.94-79.73A465.67,465.67,0,0,1,240,71.42a439.61,439.61,0,0,1,51-25.7,410.54,410.54,0,0,1,47.74-16.55c8.86-2.49,17.82-4.62,26.83-6.52,8.61-1.82,17.28-3.25,26-4.47l3-.41q9.54-1.25,19.12-2.13c2.58-.23,5.17-.37,7.75-.54,3.49-.23,7-.57,10.46-.81A7.48,7.48,0,0,0,437,12.2,7.15,7.15,0,0,0,433.81.25,7.33,7.33,0,0,0,431.9,0a7.15,7.15,0,0,0-1.15.09ZM290.87,45.77l-.8.34.8-.34ZM189.79,102l-.1.08.1-.08ZM113.72,182.2l-.21.28.21-.28Zm-87.93,311,.1.74-.1-.74ZM405,881.51l.62.09-.62-.09Z"/><path class="cls-1" d="M417.66,5.17l-.19-.05a5,5,0,0,0-2.46.06c-1.83.22-3.65.46-5.48.71q-5.27.73-10.53,1.6c-6.92,1.15-13.79,2.57-20.62,4.14a325.24,325.24,0,0,0-40.7,12.49s0,0,0,0c17.35-3.72,34.87-6.7,52.45-9.09l-.78.1q7.51-1,15-1.86,3.79-.43,7.58-.81l4.57-.45a5.12,5.12,0,0,0,1.7-.46c17.09-1.41,34.25-2.17,51.4-2a441,441,0,0,1,53,3.91,450.27,450.27,0,0,1,53.49,10.65,414,414,0,0,1,54.11,18.59l-.53-.22a469.57,469.57,0,0,1,51.55,25.71,438.22,438.22,0,0,1,47.5,31.92l-.93-.73q5.19,4,10.28,8.16c3.62,2.95,7.11,6.07,10.64,9.13C756,123,763,129.55,769.9,136.29A434.77,434.77,0,0,1,807.74,179c2.49,3.24,4.85,6.56,7.26,9.86,2.93,4,5.78,8.08,8.58,12.18q7.92,11.61,15,23.73a456.14,456.14,0,0,1,25.73,51,450.38,450.38,0,0,1,18.8,55,477.1,477.1,0,0,1,12,60.06c1.24,9.54,2.23,19.12,2.85,28.73.68,10.52.93,21.07.86,31.61a486.18,486.18,0,0,1-4.29,60.29,444.44,444.44,0,0,1-11.13,54.7,431.7,431.7,0,0,1-18.33,53.43,440.51,440.51,0,0,1-29.27,57.09c-5.78,9.47-12,18.69-18.25,27.85q-4.48,6.55-9.11,13c-3.25,4.55-6.69,9-10.1,13.4q-21.57,27.88-45.28,54s0,0,0,0a320.75,320.75,0,0,0,28.32-21.69,298.56,298.56,0,0,0,26.4-25.79c4-4.36,7.71-8.89,11.47-13.42,4.06-4.89,7.95-9.92,11.73-15a354.77,354.77,0,0,0,19.82-30.3q9.28-15.63,17.33-31.93c5.44-11,10.36-22.29,14.91-33.7a454,454,0,0,0,21.55-70.26,430.6,430.6,0,0,0,9.66-75,445.86,445.86,0,0,0-3.48-74.8c-1.58-12.37-3.64-24.66-6.31-36.85-2.57-11.7-5.66-23.27-9.16-34.72a458.85,458.85,0,0,0-26.54-66.88,449.73,449.73,0,0,0-84.51-118.39q-12.69-12.83-26.35-24.62c-2.18-1.89-4.39-3.74-6.6-5.58s-4.36-3.4-6.52-5.12q-7.32-5.82-14.87-11.35A453.24,453.24,0,0,0,667,51a437.91,437.91,0,0,0-57.65-24.07,469.45,469.45,0,0,0-62.26-16.59,447.4,447.4,0,0,0-64-7.45q-9.54-.43-19.1-.44a387.75,387.75,0,0,0-46.34,2.73ZM895.19,391.45l.1.73-.1-.73Z"/><path class="cls-1" d="M617.11,865.39c-14.69,4.78-29.62,8.7-44.63,12.3s-30.05,7.16-45.14,10.51c0,0,0,0,0,0,7.64-.55,15.24-1.41,22.8-2.65s15.19-2.87,22.66-4.84a349.64,349.64,0,0,0,44.31-15.31s0,0,0,0Z"/><path class="cls-1" d="M419.67,22.61c-13.71,1.06-27.35,2.94-40.89,5.34a461.25,461.25,0,0,0-81.43,22.21c-13,4.86-25.65,10.45-38.11,16.47s-24.73,12.76-36.62,20a476.24,476.24,0,0,0-65.54,47.75q-15.93,13.84-30.52,29.14a359.47,359.47,0,0,0-25.62,30.25A343.12,343.12,0,0,0,77.77,228.6q-5.5,9.43-10.36,19.21-2.61,5.21-5,10.54-7.62,14.25-14.18,29-8.31,18.7-14.87,38.11-1.58,4.65-3.06,9.34-1.25,4-2.43,8-4.72,16-8.16,32.35v.05a429,429,0,0,0-6.88,42.54l-.18,1.57q-2.12,19.22-2.48,38.58c-.32,14.41.13,28.82,1.19,43.19.51,6.91,1.2,13.82,1.93,20.71.36,3.34.77,6.68,1.2,10s1,6.9,1.61,10.34q1.15,6.63,2.51,13.22c2,10.4,4.41,20.73,7.13,31A445.47,445.47,0,0,0,148,792.74c4.71,4.51,9.54,8.89,14.44,13.19,5.14,4.51,10.39,8.89,15.8,13.07q16.2,12.5,33.44,23.53a440.09,440.09,0,0,0,71.83,36.87,450.51,450.51,0,0,0,79.16,23.91c13.46,2.75,27.05,4.84,40.71,6.36,6.81.76,13.64,1.32,20.48,1.76,7.47.48,14.94.7,22.42.84,14.47.27,29-.26,43.38-1.39,14-1.1,27.84-3,41.61-5.43,6.53-1.16,13.05-2.36,19.54-3.73,6.95-1.47,13.86-3.14,20.73-4.94,13.07-3.43,26-7.52,38.64-12.13a441.35,441.35,0,0,0,72.09-34,449.91,449.91,0,0,0,120.22-103c8.36-10.19,16.23-20.77,23.69-31.64,3.64-5.31,7.13-10.71,10.54-16.17,3.72-6,7.23-12.06,10.62-18.22A447.69,447.69,0,0,0,879.82,607a441.78,441.78,0,0,0,18.48-80.72q2.8-21,3.66-42.16c.59-14.43.32-28.9-.53-43.31a453.59,453.59,0,0,0-13.29-84.34A445.23,445.23,0,0,0,763.28,144c-10.15-9.65-20.81-18.77-31.82-27.42-10.66-8.38-21.66-16.32-33-23.72S675.09,78.49,663,72.12C651,65.83,638.77,60.16,626.31,55c-13-5.43-26.26-10.16-39.7-14.32s-27-7.68-40.76-10.51a445.3,445.3,0,0,0-83.38-9q-2.94,0-5.89,0c-12.32,0-24.63.55-36.91,1.5Zm0,5.57c10.24-.82,20.52-1.18,30.79-1.26a437.75,437.75,0,0,1,60.92,3.91,464.41,464.41,0,0,1,57.26,11.63,433.63,433.63,0,0,1,55.1,19A444.41,444.41,0,0,1,802.11,199.22a455.55,455.55,0,0,1,31.37,46.62,438.42,438.42,0,0,1,25.18,50.26,458.35,458.35,0,0,1,18.82,54.37,437.42,437.42,0,0,1,11.72,57.76,469.25,469.25,0,0,1,4,60.38,449.32,449.32,0,0,1-3.92,58.73q-1.92,13.81-4.66,27.48c-2,9.81-4.34,19.54-7,29.18a444,444,0,0,1-18.78,54.2q-5.61,13.19-12,26c-4.37,8.75-9.13,17.29-14,25.77a446.31,446.31,0,0,1-33.06,49.35l.11-.14Q791.72,749.69,783,759.7c-6.29,7.21-12.84,14.18-19.58,21a444.36,444.36,0,0,1-42.85,37.82,451.35,451.35,0,0,1-46.27,31.2,442.7,442.7,0,0,1-51.75,25.91,454.12,454.12,0,0,1-51.82,18.08c-8.95,2.53-18,4.72-27.08,6.68-4.33.93-8.67,1.81-13,2.56-5.09.88-10.19,1.63-15.3,2.34l.14,0a476.47,476.47,0,0,1-58.79,4.18,426,426,0,0,1-60-4l.45.06q-14.29-2-28.43-4.82c-9.28-1.87-18.48-4.12-27.62-6.6a427.37,427.37,0,0,1-52.84-18.16A457.7,457.7,0,0,1,188.81,818c-3.76-2.92-7.45-5.92-11.18-8.87S170,803,166.31,799.8c-7.87-6.69-15.47-13.7-22.86-20.92a454,454,0,0,1-41-46l.43.56A455.43,455.43,0,0,1,71,686.31a432.57,432.57,0,0,1-25.39-50.77l0,.09-.06-.15-.1-.24,0,.1q-5.35-12.81-9.93-25.92c-3.1-8.88-5.86-17.88-8.39-26.94s-4.78-18.39-6.71-27.69q-.31-1.58-.61-3.16c-.95-5-1.79-10.05-2.56-15.1-.85-5.52-1.76-11-2.51-16.56h0v0q-.66-5-1.18-10.08-1.82-19-2.05-38,0-3.7,0-7.4,0-2.57,0-5.13A446.19,446.19,0,0,1,15.53,408,453,453,0,0,1,27.08,351.2q4.49-16.57,10.32-32.74l.06-.17.15-.43.17-.46.06-.17q4-11.12,8.63-22,7.85-18.41,17.28-36.07,7.58-12.15,15.64-24Q89.8,219.9,101.1,205.27a608.85,608.85,0,0,1,39.72-46.41,436,436,0,0,1,46.68-42.31q10.2-7.85,20.81-15.14c7.74-5.32,15.68-10.32,23.78-15.08a431.44,431.44,0,0,1,49.17-24.75A456.48,456.48,0,0,1,335,42.77a419.26,419.26,0,0,1,56.63-11.65q14-1.84,28-2.94Zm93.53.47.16,0-.16,0Zm-118.53.17h0ZM802.13,199.24l.55.71-.55-.71ZM100.9,205.53l-.18.23.18-.23ZM15.59,407.61v0h0v0Zm873.56.17.05.41-.05-.41Zm.06.49.1.71-.1-.71Zm-873.73.17v0ZM893,526.89v0h0v0ZM800.32,738.61l-.38.49.38-.49ZM287.92,875.82l.15.06-.15-.06Zm227.54,29.42.23,0-.23,0ZM45.63,635.47l0,.07-.09-.22.06.15ZM14.86,519.94h0Z"/><path class="cls-1" d="M461.28,15.81c-4.63.09-9.25.31-13.87.58-2.32.14-4.64.31-7,.5-1,.05-1.92.15-2.87.3l-1.22.52q-9.46,1-18.85,2.36c-7.31,1.1-14.6,2.37-21.83,3.91-13.83,3-27.54,6.61-41,10.79S328.1,43.7,315.16,49c-12.48,5.13-24.7,10.86-36.67,17.09s-23.6,13.14-34.95,20.45-22.31,15.19-32.94,23.51a450.6,450.6,0,0,0-144,196,439.33,439.33,0,0,0-22.22,81.11c-2.39,13.65-4,27.43-5.1,41.25-1.12,14.4-1.41,28.86-1.23,43.29.09,7,.38,13.95.79,20.91S40,506.71,40.7,513.75c1.44,13.78,3.57,27.49,6.27,41.08A449,449,0,0,0,110.28,709.4C117.6,720.67,125.62,731.49,134,742s17.49,20.92,26.87,30.8,19.4,19.4,29.72,28.43c10.09,8.84,20.66,17.13,31.51,25,5.26,3.83,10.63,7.51,16,11.11,5.88,3.9,11.86,7.67,17.95,11.23,11.81,6.89,24,13.17,36.38,18.94S317.28,878.39,330,883s25.88,8.74,39.09,12.24a447.6,447.6,0,0,0,244.82-5,461.87,461.87,0,0,0,72.89-29.58,442.11,442.11,0,0,0,67.08-42,447.93,447.93,0,0,0,57.71-52.18c8.89-9.54,17.3-19.51,25.31-29.79q5.63-7.21,11-14.65c4-5.57,7.83-11.27,11.53-17,7.2-11.23,13.83-22.82,20-34.64S891,646.68,896,634.51a448,448,0,0,0,24.17-77.91,453.61,453.61,0,0,0,9.7-82.54c.39-14.37,0-28.76-1-43.09-.24-3.48-.55-7-.87-10.44-.12-1.34-.21-2.68-.29-4-.1-1.69-.37-3.39-.55-5.07-.8-7-1.79-14-2.9-21-2.18-13.7-5.09-27.29-8.54-40.73-1.67-6.5-3.36-13-5.24-19.45-2-6.95-4.25-13.82-6.61-20.66a437.16,437.16,0,0,0-34-74.35,401,401,0,0,0-22.75-34.89c-8-11.13-16.59-21.88-25.52-32.28s-18.47-20.4-28.36-30-20.11-18.3-30.75-26.75-21.48-16.31-32.8-23.63c-11.48-7.43-23.34-14.26-35.46-20.6a453.38,453.38,0,0,0-75.51-31.1,436.37,436.37,0,0,0-89.3-17.54c-10.48-.94-21-1.47-31.51-1.64q-5.42-.44-10.85-.72c-5.88-.3-11.76-.44-17.65-.44q-4.09,0-8.19.08Zm-20.84,9.53c2.32-.27,4.64-.51,7-.75,4.62-.48,9.25-.88,13.88-1.25,8.6-.69,17.21-1.16,25.83-1.46q5.52-.2,11-.28,18.77.92,37.42,3.42,14.91,2.05,29.68,5c9.81,2,19.55,4.32,29.2,6.94a448.14,448.14,0,0,1,56,19.4q13.17,5.63,26,12.07c8.8,4.43,17.43,9.21,25.92,14.22S719.12,93,727.25,98.51q11.87,8.11,23.28,16.84a486.1,486.1,0,0,1,42.34,37.2A431.37,431.37,0,0,1,830.59,195q9.08,11.83,17.39,24.21c5.55,8.27,10.77,16.77,15.84,25.34a443.73,443.73,0,0,1,44.37,103.82c1.21,4.25,2.24,8.55,3.26,12.85,1.16,4.86,2.2,9.73,3.19,14.62,1.85,9.14,3.36,18.36,4.64,27.6q.53,4,1,8c.3,2.5.56,5,.91,7.5a454.23,454.23,0,0,1,2.11,51.7,430.64,430.64,0,0,1-3.74,49.91l0-.2,0,.24-.09.66.08-.59A452.15,452.15,0,0,1,908,577.2a431.45,431.45,0,0,1-18.28,53l0-.08a455.72,455.72,0,0,1-26.65,53c-4.86,8.27-10,16.36-15.42,24.31q-8.28,12.22-17.24,24A458.52,458.52,0,0,1,793.82,773a449.17,449.17,0,0,1-43.5,38.41l.81-.62A438.17,438.17,0,0,1,655,867.38l.15-.06-.16.07-.72.3.65-.27A452.4,452.4,0,0,1,601.14,886a444.53,444.53,0,0,1-58.6,11.9c-9,1.18-18.09,2.13-27.17,2.81-10.3.77-20.62,1.13-30.94,1.18A438.09,438.09,0,0,1,424.61,898a453,453,0,0,1-54.9-11.11c-9-2.41-17.87-5.14-26.68-8.11-9.28-3.12-18.42-6.65-27.46-10.44a455.65,455.65,0,0,1-52-26.17q-12.65-7.41-24.89-15.49c-8.51-5.65-16.79-11.64-24.89-17.86a468.79,468.79,0,0,1-42.42-37.26,434.75,434.75,0,0,1-37.18-42.18,475.8,475.8,0,0,1-32.32-47.88A446.1,446.1,0,0,1,75.55,629l.32.74q-5.59-13.34-10.28-27c-3.14-9.17-5.93-18.46-8.46-27.82A460.68,460.68,0,0,1,45.41,517a455.42,455.42,0,0,1-3.81-55.7c0-4.64.1-9.28.25-13.91.16-5.18.45-10.37.79-15.54.65-9.7,1.68-19.38,3-29,0,.16,0,.32-.06.48q2-14.37,4.78-28.6c2-10,4.37-19.85,7-29.65a443.42,443.42,0,0,1,19.09-55.15l0,.09a439.6,439.6,0,0,1,25.38-50.18,452.71,452.71,0,0,1,31.49-46.71l-.27.34a449.33,449.33,0,0,1,37.13-42.21,433.57,433.57,0,0,1,42.12-37l-.31.25q11.2-8.59,22.87-16.52c7.82-5.3,15.84-10.32,24-15.11,7.79-4.58,15.78-8.85,23.84-12.95,8.66-4.4,17.49-8.47,26.42-12.3q13-5.49,26.36-10.18c9.55-3.37,19.27-6.26,29.05-8.9s19.81-4.87,29.83-6.79,20.2-3.58,30.37-5l-1,.14q6.71-.89,13.44-1.67l.5.11a5.9,5.9,0,0,0,1.34.16,6,6,0,0,0,1.53-.2ZM309.18,57.57l0,0,0,0Zm440.74,57.3.31.24-.31-.24Zm80.73,80.19.6.77-.6-.77ZM45.36,516.59l0,.18,0-.18Zm844.1,114.15-.11.26.11-.26ZM214,809l.54.42L214,809Zm209.75,88.93.82.11-.82-.11Zm231.13-30.48.07,0h0l-.08,0ZM919.54,520.66v0Z"/><path class="cls-1" d="M458.71,25.57c-14.31.59-28.57,2-42.78,3.75C402.1,31,388.39,33.51,374.8,36.57a455.11,455.11,0,0,0-58.06,17.29c-5.25,1.87-10.47,3.85-15.65,5.91-6.3,2.5-12.48,5.29-18.62,8.16q-11.7,5.46-23,11.66l-.8.43c-5.76,3.1-11.44,6.35-17.05,9.7-2.8,1.67-5.58,3.39-8.34,5.12-3.34,2.09-6.57,4.39-9.85,6.59A450,450,0,0,0,109.46,211.7a438.53,438.53,0,0,0-41.94,71.84,446,446,0,0,0-27,74.86,434.77,434.77,0,0,0-10.12,50.72q-.32,2.28-.62,4.57-2.71,20.5-3.44,41.18-.17,4.61-.24,9.22t0,9.29q0,6,.23,12.05v.12l0,.52v.15l0,.47v1.91l0,.4v.25l0,.45v.2l0,.45v.21l0,.5v.12l0,.55v.12l0,.57v.08l0,.6v.06l0,.63v0l0,.65h0l0,.67h0q.65,11.75,1.91,23.46.38,3.61.82,7.22,1.19,9.8,2.82,19.53,1.15,6.89,2.52,13.74h0l0,.11.08.39,0,.19.09.44,0,.21.1.47,0,.15.1.48,0,.17.11.52,0,.1.11.54,0,.1.12.58v0l.13.62h0q1.65,7.78,3.59,15.5,3.52,14.15,8,28,4.2,13.12,9.24,26,1.15,2.94,2.35,5.87,1,2.57,2.13,5.12v0l.47,1.1,0,.08.45,1,.07.16.42,1,.08.19.41.94.11.25.39.89.12.26.38.87.14.31.36.82.14.31.19.43.09.19q1.24,2.75,2.51,5.48,1.47,3.16,3,6.3,3.29,6.79,6.79,13.46a442.34,442.34,0,0,0,41.39,64.34c7.48,9.71,15.4,19.07,23.64,28.13,4.09,4.5,8.3,8.88,12.57,13.2,1.15,1.17,2.25,2.39,3.37,3.58s2.27,2.37,3.41,3.54,2.29,2.34,3.45,3.5c1.5,1.52,3.11,2.94,4.67,4.4a449.4,449.4,0,0,0,62.38,48.39c5.45,3.52,11,6.88,16.6,10.2,6.32,3.75,12.74,7.34,19.3,10.67,12.07,6.12,24.45,11.61,37,16.62a445.3,445.3,0,0,0,80.64,23.43c13.57,2.61,27.28,4.51,41,5.85,6.86.67,13.74,1.14,20.63,1.48,7.56.38,15.13.47,22.69.42,14.8-.11,29.59-1,44.31-2.61,6.35-.68,12.7-1.45,19-2.34,7.25-1,14.46-2.27,21.64-3.65a436.92,436.92,0,0,0,77.69-22.7,432.44,432.44,0,0,0,42.16-19.31A446.39,446.39,0,0,0,824.25,739.6l.17-.23.18-.23q6-7.9,11.58-16.06l0-.07q6.09-8.82,11.73-17.93,5.79-9.33,11.09-18.94,5.81-10.46,11-21.24,4.09-8.41,7.81-17t7-17.06l.26-.68,0-.06q2.66-6.92,5.07-13.93,3.71-10.66,6.84-21.5,2.69-9.3,5-18.71t4.15-18.86q2.25-11.45,3.88-23,1.14-8,2-16l0-.17,0-.16q1.32-12.66,1.9-25.38.23-4.93.35-9.87.4-15.85-.38-31.68-.44-9.72-1.33-19.42v-.1l0-.44,0-.33,0-.2q-1.25-13.32-3.29-26.54-.16-1.05-.32-2.1-2.2-14.08-5.34-28-1.89-8.47-4.13-16.86-3.44-12.95-7.68-25.66l-.36-1.08q-3.51-10.55-7.58-20.91l-.08-.21-.12-.31q-3-7.56-6.24-15-1.81-4.15-3.71-8.25-5.62-12.2-12-24-1.28-2.4-2.6-4.78-5.32-9.65-11.14-19-2.67-4.31-5.44-8.55-1.15-1.76-2.31-3.5-2.28-3.46-4.61-6.9c-7.46-11-15.48-21.62-23.89-31.91-4.17-5.1-8.48-10.09-12.87-15-4.73-5.29-9.68-10.39-14.69-15.41-9.62-9.65-19.73-18.8-30.19-27.53-4.71-3.93-9.51-7.73-14.37-11.46-5.61-4.32-11.41-8.39-17.26-12.39Q706.69,94.27,690.19,85l-3.32-2C681,79.54,675,76.22,669,73c-6.53-3.49-13.23-6.69-19.95-9.79-5.91-2.73-11.89-5.29-17.9-7.75-6.75-2.77-13.66-5.14-20.59-7.42q-11.39-3.75-23-6.83L586.9,41a340.48,340.48,0,0,0-42.08-10.18,374.36,374.36,0,0,0-66.65-5.65q-9.74,0-19.46.41Zm-36.07,7.11c5.12-.55,10.27-.87,15.4-1.18,10.4-.63,20.82-.82,31.24-.71a502.28,502.28,0,0,1,60.35,4.67q11.82,1.62,23.57,3.66c8,1.39,16,3.06,23.9,4.78q4.34.94,8.68,1.93l.95.26c10.24,2.84,20.35,6.12,30.36,9.7,2.63.94,5.24,1.92,7.84,2.91s5.37,2,8.05,3c5.34,2,10.63,4.15,15.89,6.36l-.54-.22Q669.07,76.6,689,87.23l4.33,2.53c8.46,5,16.72,10.32,24.82,15.86S734,117,741.8,123a459.71,459.71,0,0,1,42.62,37.66c7,7,13.66,14.18,20.19,21.54s12.83,15,18.88,22.86l-.16-.2q7.39,9.62,14.27,19.6,7.66,11.36,14.62,23.17l1.54,2.64q2.13,3.68,4.19,7.4l.14.25.16.3q6.32,11.48,11.94,23.32l0,0,.32.68,0,0,.12.26.17.36.07.16.22.46,0,.06.14.3.23.5.13.28.26.56.11.23.28.61.08.17.29.64.09.19.3.66.05.11.32.71,0,.1.34.74,0,0,.35.79v0q2.09,4.65,4.07,9.34h0q1.7,4.06,3.33,8.16,4.6,11.62,8.55,23.46l0,.07.25.75.06.19.19.59.13.41.14.42.19.58.06.2.26.8h0q3,9.37,5.65,18.88,2.69,9.74,4.9,19.59l0,.16.14.63.07.31.11.48.1.46.07.32.14.62h0l0,.14.16.72,0,.11.17.82,0,.07.17.8,0,.12.16.78,0,.13.16.77,0,.15.16.76,0,.14.15.74,0,.18.15.72,0,.18.14.71,0,.2.14.72,0,.18.14.7,0,.23.13.68,0,.22.13.68,0,.24.13.69,0,.2.13.68.05.27.12.63.05.28.12.64,0,.27.12.64,0,.27.11.63.06.32.1.58.06.33.1.6.05.31.1.61.05.29.1.61.06.33.1.58.06.33.09.57.06.37.09.54.06.37.09.55.06.38.09.54.06.37.09.54.06.37.08.55.06.37.08.53.06.42.08.5.06.42.07.48.07.46.07.47.06.43.07.47.07.48.06.43.07.49.06.42.08.56,0,.35.08.59v.1q1.58,11.84,2.55,23.73h0l.07.88v.06l.06.81v.16l.06.74,0,.21,0,.66,0,.32,0,.56,0,.41,0,.47,0,.49,0,.4,0,.54,0,.41,0,.44,0,.55,0,.32,0,.69v.17l.05.84v0q.78,13.21.8,26.46,0,.9,0,1.81v.13c0,.2,0,.41,0,.61s0,.36,0,.55v.2q-.07,10-.61,20v.35q-.15,2.71-.33,5.42v0l-.06.88v.1l-.05.78,0,.25,0,.66,0,.34,0,.54,0,.49,0,.4,0,.61,0,.26-.06.76v.12q-1,11.77-2.52,23.48v0q-.49,3.6-1,7.2l0,.23-.09.6-.1.62,0,.21q-2.33,14.82-5.64,29.45v0l-.2.86,0,.07-.18.79,0,.16-.17.72,0,.2-.16.68-.06.25-.14.61-.08.32-.12.52-.07.29,0,.18-.1.4,0,.13-.11.44-.07.29-.17.71v.06q-1.41,5.75-3,11.46-.6,2.2-1.22,4.4l-.16.56-.07.24q-3.07,10.71-6.7,21.24l-.17.5,0,.05-.3.85h0q-1.2,3.46-2.46,6.89h0l-.3.82,0,.06-.29.78,0,.08-.27.73-.05.14-.23.63-.09.24-.19.5-.14.37-.12.32-.2.52v0l0,.09-.26.68,0,.09-.27.7-.06.14-.26.68-.06.16-.24.62-.1.24-.22.57-.11.28-.2.51-.14.36-.18.45-.17.43-.14.36-.2.51-.12.3-.24.61-.06.16-.29.73,0,.09q-1.22,3-2.48,6h0q-3.29,7.75-6.86,15.37l0,0-.28.6-.13.27-.2.41-.2.43-.11.22-.3.63v0Q864,674.15,857,686.79l-.14.26-.08.14q-1.92,3.43-3.9,6.84-7.73,13.3-16.41,26h0l-.46.68-.1.15-.35.51-.24.35-.22.32-.34.5-.12.18-.45.65v0q-1.53,2.21-3.09,4.4h0l-.48.68-.05.07-.47.65-.06.08-.44.61-.1.13-.43.6-.1.13-.41.56-.13.18-.39.53-.15.2-.36.5-.17.23-.37.51-.16.22-.34.47-.2.27-.34.46-.2.27-.33.45-.19.26-.38.51-.14.19-.39.52-.15.2-.41.54-.12.16-.43.57-.11.15-.46.61-.07.09-.48.63-.06.08-1.07,1.4h0l-.1.13,0,.05q-4.32,5.58-8.81,11l-.24.29h0q-13.64,16.49-28.78,31.64a445.83,445.83,0,0,1-42.72,37.52l.17-.13a453.39,453.39,0,0,1-46.25,31.2q-7.33,4.32-14.83,8.33-17.3,9.21-35.38,16.88a448.25,448.25,0,0,1-114.46,31.21l.32,0q-6.76.9-13.55,1.61c-5.33.56-10.69.91-16,1.24-10,.62-20,.84-30.06.78-9.87-.06-19.75-.48-29.59-1.14-9.58-.64-19.13-1.64-28.64-2.91a453.08,453.08,0,0,1-56.36-11.44,435.78,435.78,0,0,1-55.38-19.22q-13.54-5.78-26.69-12.4c-4.51-2.27-9-4.62-13.45-7s-9-4.82-13.37-7.36a445.58,445.58,0,0,1-49-32.93q-10.71-8.33-20.93-17.26c-3.64-3.18-7.15-6.48-10.76-9.69-1.64-1.45-3.26-2.92-4.87-4.39-2-1.81-4-3.63-5.88-5.54a443.54,443.54,0,0,1-36-41.19l.14.18a454.7,454.7,0,0,1-31.63-46.91,437.54,437.54,0,0,1-25.51-50.94q-2.26-5.4-4.38-10.85l0,0-.28-.74-.09-.24-.2-.51-.19-.49-.12-.3-.26-.69,0-.08q-4.9-12.91-9-26.09l-.14-.44,0-.09q-2.29-7.38-4.33-14.84-2.47-9.06-4.53-18.21Q35.29,554.94,33,540.17l0-.15-.11-.69,0-.3-.08-.52-.07-.47-.06-.37-.1-.64,0-.15q-.44-3-.85-5.94-1.39-10.48-2.31-21v0l-.07-.86,0-.18-.06-.72,0-.26-.05-.64,0-.35,0-.55,0-.4,0-.5,0-.5,0-.4,0-.54,0-.37,0-.59,0-.32,0-.65,0-.24,0-.72v-.18l-.05-.78V500l-.05-.85v0l-.06-.9h0q-.79-12.85-.86-25.74,0-3.31,0-6.62v-.17c0-.24,0-.48,0-.72v-1.79c0-.23,0-.46,0-.69v-.21c0-.27,0-.55,0-.82v-.08q.19-8.88.75-17.74v-.16l0-.72,0-.51,0-.4q1-14.84,3-29.6.49-3.58,1-7.15A447.94,447.94,0,0,1,43.06,355.7a442.54,442.54,0,0,1,19.11-55.16l-.1.24a449.41,449.41,0,0,1,58-99.13,459.65,459.65,0,0,1,36.75-41.93,438.89,438.89,0,0,1,42.54-37.62l-.27.21q11.2-8.65,22.91-16.6c1.84-1.25,3.69-2.48,5.55-3.7,2.37-1.56,4.83-3,7.23-4.48,4.13-2.62,8.32-5.16,12.53-7.65q5.65-3.33,11.4-6.48,7.38-4,14.9-7.71c9.33-4.63,18.88-8.8,28.46-12.89l-.15.07q7.44-3.14,15-6,3.9-1.44,7.83-2.79c9.1-3.13,18.31-5.91,27.59-8.43a454.6,454.6,0,0,1,57-11.34l-.12,0,.21,0,.33,0-.13,0q6.48-.86,13-1.57ZM878.48,300l0,.11,0-.11Zm30.57,230.56v.05h0v-.05ZM878.19,643.4h0v0l0,0ZM643.78,878.51l-.12.05.12-.05Zm-346.28.28.16.07h0l-.16-.07Zm114.35,30.43h0Zm118,.61h0ZM409.46,34.27h-.09l.29,0-.2,0Z"/><path class="cls-1" d="M436,6.15c-13.88.71-27.73,2.12-41.48,4.09-14,2-27.92,4.77-41.7,8.05-13.39,3.19-26.62,7.07-39.66,11.5-12.68,4.3-25.12,9.26-37.36,14.68-6,2.67-12.07,5.31-18,8.12-6.39,3-12.72,6.18-18.92,9.59A441,441,0,0,0,200,86.28a364.83,364.83,0,0,0-36.77,28.93c-5.49,5-10.74,10.17-16,15.37-5.93,5.87-11.55,12.05-16.94,18.43-5.2,6.16-9.93,12.69-14.52,19.32q-5,7.26-9.61,14.8A457.47,457.47,0,0,0,77.6,225.4a444.7,444.7,0,0,0-28,398.94A454.83,454.83,0,0,0,87.3,695.86c3.55,5.5,7.28,10.89,11,16.25s7.76,10.8,11.83,16.07q12.47,16.13,26.32,31.12a439.33,439.33,0,0,0,59.68,53.37,453.69,453.69,0,0,0,70.6,42.93c12.11,6,24.52,11.37,37.11,16.25a410.81,410.81,0,0,0,39.53,12.88A435.12,435.12,0,0,0,426,898.82c6.88.52,13.77.95,20.67,1.2,7.53.28,15.07.32,22.61.21a420.45,420.45,0,0,0,42.8-3c6.69-.79,13.36-1.74,20-2.8,7.24-1.16,14.42-2.59,21.58-4.16,13.56-3,26.93-6.69,40.17-10.84a441.54,441.54,0,0,0,76.07-32.07,458.27,458.27,0,0,0,68.93-45.52c10.59-8.43,20.85-17.22,30.7-26.51s19.32-19.16,28.27-29.41a449.71,449.71,0,0,0,83.51-141.15,419.11,419.11,0,0,0,12.44-40.34c3.55-13.74,6.33-27.66,8.5-41.68s3.68-28.22,4.62-42.41a432.77,432.77,0,0,0,.65-43.48,458.89,458.89,0,0,0-10.67-83.15c-3-13.73-6.77-27.3-11.06-40.69s-9.29-26.34-14.83-39.18a441.22,441.22,0,0,0-93.25-136.7c-9.76-9.75-20.05-18.89-30.59-27.78C736.83,100.67,726.07,92.47,715,84.7c-5.56-3.91-11.28-7.58-17-11.18-6.27-3.92-12.65-7.65-19.1-11.25q-18-10.07-36.92-18.45-18.69-8.32-38-15c-13.3-4.58-26.84-8.39-40.53-11.62A448.05,448.05,0,0,0,479.11,5.83q-8.79-.37-17.6-.36c-8.52,0-17,.24-25.55.68ZM429,13.57q14.69-1,29.43-1a437.83,437.83,0,0,1,58.36,4l-1-.13A456.23,456.23,0,0,1,628.94,47.28a437.87,437.87,0,0,1,51.42,26c8.32,4.91,16.45,10.14,24.44,15.58s16,11.25,23.79,17.22c7.12,5.56,14.09,11.31,20.83,17.32,7,6.23,13.77,12.73,20.36,19.39A463.37,463.37,0,0,1,806,184.32a452.38,452.38,0,0,1,31.73,47.17,443.18,443.18,0,0,1,25,49.91A470.69,470.69,0,0,1,882.06,337a431.21,431.21,0,0,1,11.67,57.4,446,446,0,0,1,.36,114.6A451.87,451.87,0,0,1,862.54,624a455.79,455.79,0,0,1-25.08,50A446.41,446.41,0,0,1,805.19,722,481.56,481.56,0,0,1,769,763.29a421.94,421.94,0,0,1-42.21,37.64,441.07,441.07,0,0,1-46.34,31.19,446.21,446.21,0,0,1-50.52,25.16,431.57,431.57,0,0,1-54.24,18.62,470.74,470.74,0,0,1-57.89,11.52h.08a488.69,488.69,0,0,1-57.26,4.07c-9.8.13-19.62-.12-29.41-.65-10.09-.54-20.16-1.6-30.17-2.91a468.89,468.89,0,0,1-60.28-12.33c-9.63-2.64-19.15-5.65-28.57-8.94-9.64-3.36-19.16-7-28.57-10.92l.15.06q-12.89-5.49-25.43-11.74c-8.41-4.19-16.62-8.75-24.71-13.51A453.53,453.53,0,0,1,105.24,717.19a429.16,429.16,0,0,1-29.92-44.77A422,422,0,0,1,51,623.75l.08.18a452.67,452.67,0,0,1-19-55,443.9,443.9,0,0,1-11.54-57.05,461.37,461.37,0,0,1-4-59.17,441.89,441.89,0,0,1,4-60h0v0a453.21,453.21,0,0,1,11.92-58,441.24,441.24,0,0,1,19-54.59l-.07.18A456.32,456.32,0,0,1,77.22,229a444,444,0,0,1,30-44.8q8.4-8.93,17.11-17.55c3.95-3.91,7.95-7.75,11.89-11.66s7.93-7.79,11.93-11.64,7.91-7.63,12-11.28q5.85-5.2,11.83-10.25,11.7-9.94,23.83-19.37a456.76,456.76,0,0,1,43.65-29.62c3.66-2.18,7.36-4.28,11-6.41,4.27-2.46,8.59-4.84,12.95-7.16s8.77-4.55,13.21-6.73c1.94-.95,3.94-1.8,5.91-2.68,2.47-1.11,5-2.17,7.46-3.23l-.54.22a453.49,453.49,0,0,1,53.88-18.7,431.39,431.39,0,0,1,58.05-11.77l-.94.13c9.46-1.24,18.95-2.24,28.47-2.92Zm89.72.15.13,0h0l-.16,0Zm-119,.09-.16,0h0l.13,0ZM893.59,393.29l0,.36,0-.36ZM282.88,855.45l.3.13-.3-.13ZM20.59,392.62h0v0Z"/><path class="cls-1" d="M357.45,34a410.66,410.66,0,0,0-46.14,12c-4,.94-8,2-11.9,3.06-7,1.95-13.87,4.23-20.69,6.7a337.66,337.66,0,0,0-38.21,16.85c-6.12,3.12-12.1,6.49-18.08,9.86-6.32,3.57-12.5,7.37-18.59,11.3-11.42,7.38-22.45,15.34-33.16,23.71s-21.2,17.4-31.15,26.82c-10.32,9.78-20.11,20.11-29.46,30.81a442.55,442.55,0,0,0-48,66.58,454.28,454.28,0,0,0-34.76,73.73,446.26,446.26,0,0,0-27.19,165q.5,21.7,3.07,43.27Q5.65,544,9.87,564c1.36,6.5,2.91,13,4.55,19.39,1.84,7.15,3.77,14.26,5.91,21.32,4.07,13.49,8.89,26.74,14.27,39.77q7.87,19.05,17.56,37.27c6.59,12.35,13.84,24.32,21.55,36,7.43,11.25,15.45,22.1,23.85,32.64,8.55,10.71,17.69,20.95,27.22,30.79,4.57,4.72,9.27,9.32,14.05,13.83,5.2,4.92,10.58,9.64,16,14.26,10.36,8.75,21.16,17,32.25,24.77a454.61,454.61,0,0,0,72.33,41.5c12.44,5.68,25.16,10.75,38.07,15.28A417.16,417.16,0,0,0,338,902.69c13.8,3.33,27.79,5.9,41.85,7.88,6.45.91,12.9,1.73,19.38,2.4,7.45.77,14.91,1.31,22.38,1.7a454.63,454.63,0,0,0,85.48-3.89,407.54,407.54,0,0,0,41.29-8C561.76,899.48,575,895.51,588,891q19.13-6.62,37.63-14.87c12.58-5.61,24.86-11.89,36.86-18.65a443.77,443.77,0,0,0,65.69-45.39,455.09,455.09,0,0,0,56.91-56.8,445.79,445.79,0,0,0,80-140.72c2.21-6.34,4.24-12.74,6.16-19.17,1-3.22,1.82-6.48,2.81-9.7,1.15-3.75,2.23-7.52,3.29-11.29a412.38,412.38,0,0,0,9.27-41.17c2.37-13.85,4-27.82,5.07-41.83.26-3.46.52-6.94.59-10.41s.09-6.9.08-10.36c0-7.53-.27-15.06-.67-22.59-.37-7-.95-14-1.65-21s-1.63-13.85-2.69-20.74c-2.14-14-5-27.81-8.49-41.51a436.19,436.19,0,0,0-27.21-76.12c-2.71-5.86-5.59-11.65-8.55-17.39-1.48-2.87-2.94-5.77-4.45-8.63-1.76-3.33-3.58-6.63-5.43-9.92-6.56-11.69-13.71-23-21.31-34.09a452.79,452.79,0,0,0-50.52-61.07A446.8,446.8,0,0,0,629.62,65.36,440.93,440.93,0,0,0,469.36,25.89q-11.86-.66-23.75-.65A451.37,451.37,0,0,0,357.45,34Zm88-7.28a442.31,442.31,0,0,1,59.07,3.93h0l.18,0h0a453.08,453.08,0,0,1,56.53,11.47,441.39,441.39,0,0,1,55.41,19.11h0a457,457,0,0,1,51.7,25.87,446.22,446.22,0,0,1,47.17,31.79,459,459,0,0,1,42.56,37.37,445.38,445.38,0,0,1,37.51,42.51l-.12-.15a445.85,445.85,0,0,1,29.75,43.79c4.69,7.86,9.09,15.88,13.29,24s7.9,16.38,11.44,24.76l0-.08a450.33,450.33,0,0,1,30.79,112.92l0-.33.05.38.06.46-.06-.4q2.2,16.62,3.36,33.37c.8,11.58,1.07,23.2,1,34.8,0,2.88-.1,5.75-.18,8.63s-.09,5.79-.14,8.68c-.1,5.77-.35,11.53-.68,17.28-.67,11.84-1.91,23.63-3.48,35.38q-1.72,12.48-4.1,24.84c-.74,3.86-1.56,7.71-2.41,11.55-.48,2.19-1,4.37-1.51,6.55s-1.14,4.34-1.76,6.49a440.81,440.81,0,0,1-17.27,48.92l.08-.18a457,457,0,0,1-26.11,52.18,445.91,445.91,0,0,1-32.2,47.66l.12-.15q-8.54,11-17.71,21.48c-6,6.85-12.29,13.46-18.71,19.91a446.32,446.32,0,0,1-42.2,37.16l.21-.16a456,456,0,0,1-47.15,31.9,437.14,437.14,0,0,1-51.56,25.8l.22-.09q-13.11,5.48-26.54,10.16c-9.37,3.27-18.89,6.08-28.47,8.66a476.5,476.5,0,0,1-59.28,11.68l.6-.08A454.93,454.93,0,0,1,446,910.54a442,442,0,0,1-58.09-3.8A431.62,431.62,0,0,1,331.3,895c-9.21-2.54-18.33-5.43-27.37-8.51-9.38-3.19-18.63-6.75-27.77-10.57a459.76,459.76,0,0,1-50.54-25.21c-8.2-4.73-16.22-9.78-24.09-15-7.7-5.13-15.17-10.59-22.51-16.22a489.62,489.62,0,0,1-44.27-39A458.31,458.31,0,0,1,95.62,736.2l.57.74q-8.56-11.1-16.45-22.68c-5.66-8.32-11-16.87-16-25.56-4.8-8.24-9.29-16.67-13.6-25.17-4.52-8.89-8.68-18-12.57-27.14A462.26,462.26,0,0,1,19.16,583.9c-2.57-9.07-4.66-18.29-6.57-27.52s-3.5-18.7-4.79-28.12l.07.54q-1.93-14.54-3-29.16c-.73-9.82-1.09-19.66-1.14-29.5a436.16,436.16,0,0,1,3.88-59.72l-.06.48a452.38,452.38,0,0,1,11.36-56.26A432.06,432.06,0,0,1,37.69,300q5.49-13,11.77-25.54c4.42-8.84,9.19-17.5,14.19-26a454.32,454.32,0,0,1,32.22-47.59q8.7-11.15,18-21.79c6.38-7.26,13-14.26,19.89-21.07a454.56,454.56,0,0,1,42-36.93q13.11-10.07,26.91-19.18c4.65-3.07,9.38-6,14.13-8.93s9.58-5.83,14.49-8.53a669.09,669.09,0,0,1,62.7-30c5.84-2.45,11.7-4.88,17.58-7.22q6.93-2.15,13.93-4.08A452.08,452.08,0,0,1,445.5,26.76ZM616.74,61.32l.07,0-.07,0ZM176.2,120.75l-.36.28.36-.28Zm-.41.32-.19.15.19-.15ZM850,291.35l0,.11,0-.11ZM178.64,819.19l.28.21-.28-.21Zm208.61,87.46.27,0-.27,0ZM880.7,404.17v0Zm-376-373.46h0l-.14,0,.16,0Z"/><path class="cls-1" d="M457.29,47.81c-6.94.09-13.88.39-20.82.81-3.49.21-7,.48-10.46.78a41.42,41.42,0,0,0-4.34.58l-4.07.8C404,52.28,390.44,54.35,377,57.07s-26.85,6.15-40,10.12c-13,3.91-25.8,8.5-38.38,13.61q-8.63,3.49-17.1,7.38c-6.63,3.06-13.17,6.32-19.64,9.71a447.57,447.57,0,0,0-68.16,44.2c-5.11,4-10.11,8.14-15,12.36-5.46,4.68-10.86,9.43-16.12,14.32-10.12,9.4-19.74,19.32-28.95,29.61A446.78,446.78,0,0,0,59.52,312.54q-3.41,7.51-6.53,15.15c-4.92,11.94-9.26,24.11-13.12,36.44-2,6.34-3.79,12.74-5.49,19.16-1.85,7-3.47,14.05-5,21.12-2.95,13.29-5.2,26.73-6.91,40.23a422.93,422.93,0,0,0-3.21,42.69c-.36,14.52.08,29,1.14,43.52,1,13.89,2.88,27.68,5.15,41.41s5.28,27.48,8.85,41a412.24,412.24,0,0,0,12.48,39.33A443.84,443.84,0,0,0,81.24,724a436.23,436.23,0,0,0,44.94,62,453.13,453.13,0,0,0,115.57,95.25,447.1,447.1,0,0,0,67,31.6,442.2,442.2,0,0,0,152.86,27.92,452,452,0,0,0,82.2-7.22A443.29,443.29,0,0,0,798.14,789.61a449.43,449.43,0,0,0,42.68-57.21Q851.11,716.08,860,699c6-11.41,11.35-23.11,16.31-35a443.3,443.3,0,0,0,33.73-160.32c.16-6.95.06-13.89-.14-20.83-.22-7.6-.68-15.18-1.29-22.76-1.13-14.05-3-28.05-5.36-41.94s-5.51-27.84-9.22-41.54c-3.65-13.46-8-26.74-12.88-39.81-4.7-12.6-10-25-15.85-37.09-5.95-12.41-12.58-24.48-19.69-36.27a449.3,449.3,0,0,0-48.34-65.51c-9.13-10.32-18.87-20.11-29-29.49-4.84-4.51-9.81-8.88-14.85-13.17-5.25-4.47-10.65-8.75-16.12-12.95-11-8.41-22.39-16.23-34.09-23.58-5.63-3.53-11.36-6.91-17.11-10.23-6.25-3.6-12.61-7-19-10.31q-16.87-8.66-34.45-15.82l-3.14-1.31c-3.07-1.27-6.16-2.49-9.25-3.7-3.64-1.41-7.32-2.7-11-4C596,68.84,582.5,65,568.87,61.73c-11-2.62-22-4.67-33.18-6.32-12.32-2.56-24.79-4.42-37.31-5.75a341.13,341.13,0,0,0-36.12-1.88q-2.49,0-5,0Zm-33,10.34,3.5-.3c2.9-.25,5.81-.45,8.71-.65,12.09-.8,24.2-1,36.32-.95,11.92,0,23.85.49,35.74,1.26,8.57.56,17.12,1.36,25.64,2.35Q540.91,61,547.6,62.4q15.75,3.22,31.29,7.43c10.28,2.79,20.43,6,30.47,9.55,8.12,2.86,16.19,5.86,24.17,9.09l1.22.51a457.08,457.08,0,0,1,50.12,25c8.16,4.71,16.08,9.81,23.88,15.09s15.15,10.65,22.48,16.31S745.7,157,752.71,163c7.5,6.5,14.75,13.29,21.8,20.27s13.82,14.23,20.41,21.63,12.85,15,18.92,22.8q8.31,10.81,16,22.08c5.56,8.17,10.8,16.56,15.8,25.08A446.94,446.94,0,0,1,871.4,326.3l-.19-.46.21.51.05.12-.05-.12q5.34,12.78,9.93,25.85c3.15,9,5.91,18.12,8.44,27.3a435.79,435.79,0,0,1,11.51,56.25v0q2,14.75,3,29.59c.72,10.45,1,20.92,1,31.39q0,14.65-.92,29.28c-.62,10.08-1.65,20.12-3,30.13s-3.05,19.92-5.06,29.8c-2,9.63-4.3,19.18-6.91,28.66a441.45,441.45,0,0,1-18.94,54.32l.18-.42a456.43,456.43,0,0,1-26.43,52.44c-4.41,7.5-9.16,14.82-14,22-5.15,7.61-10.57,15-16.17,22.3l.07-.09A458.1,458.1,0,0,1,777,807.36a445.15,445.15,0,0,1-42.5,37.45l0,0a454,454,0,0,1-45.6,30.9A444.09,444.09,0,0,1,636,902.34a451.76,451.76,0,0,1-54.91,19,444.51,444.51,0,0,1-58.67,11.85l.49-.06A459.59,459.59,0,0,1,463.38,937a441,441,0,0,1-58.08-3.93l.51.07a450.66,450.66,0,0,1-57-11.54,440.89,440.89,0,0,1-55.45-19.14A455.59,455.59,0,0,1,242.49,877a435.91,435.91,0,0,1-47.25-31.82,458.78,458.78,0,0,1-41.84-36.9,445.2,445.2,0,0,1-37.15-42.15l.26.34A471.74,471.74,0,0,1,84.9,720a440.42,440.42,0,0,1-26.56-52.4l.05.12a476,476,0,0,1-19.13-54.11C36.49,604,34.12,594.23,32,584.42s-3.83-19.88-5.21-29.92q-2-15.28-3.14-30.66c-.75-10.43-1.08-20.88-1.1-31.33a456.66,456.66,0,0,1,4-61.32c0,.1,0,.2,0,.3q2-14.21,4.78-28.27c1.86-9.26,4.21-18.43,6.75-27.53a441.4,441.4,0,0,1,18.52-52.82q2.18-5.11,4.49-10.17,3.46-7.58,7.21-15c4.2-8.34,8.71-16.52,13.43-24.59a449,449,0,0,1,31.42-46.5l-.18.22a458.35,458.35,0,0,1,36-41.15c6.6-6.7,13.43-13.14,20.43-19.4s14-12,21.26-17.67a450.5,450.5,0,0,1,47.25-31.82c8.21-4.8,16.61-9.29,25.11-13.55,8.88-4.45,17.94-8.51,27.08-12.4a443.64,443.64,0,0,1,113.37-30.9q4-.53,8-1l3.42-.39,1.71-.18a17.21,17.21,0,0,1,3.2-.19h4.45ZM634.18,88.73l.53.23-.53-.23ZM190.89,148.41l-.11.08.11-.08Zm622.47,78.68.48.62-.48-.62Zm89.56,209v0Zm.2,117.94,0,.16,0-.16ZM814.27,764.93l-.09.11.09-.11ZM636.59,903.29l-.08,0,.08,0ZM116.25,766.15l-.13-.17.13.17ZM871.42,326.36h0l0-.05,0,.06Z"/></g><g id="Draw_Layer-2" data-name="Draw Layer"><path class="cls-1" d="M355.65,330.44c-3.11,0-6.22.05-9.33.1l-7.71.11-2.62,0q-12.88.39-25.75.89c-1.86.07-3.71.18-5.57.29q-7.59.42-15.19.86l-14.21.87c-5.76.37-11.52.8-17.27,1.23l-1.33.1s0,0,0,0c6.08-.14,12.15-.32,18.23-.46l13.91-.36q7.7-.22,15.39-.46c1.93-.06,3.86-.14,5.79-.18q12.92-.31,25.84-.73c3.28-.11,6.56-.17,9.84-.27s6.36-.21,9.55-.29l13.12-.35c4-.11,7.95-.18,11.91-.27,7.29-.17,14.58-.29,21.87-.41s14.32-.22,21.48-.36l1.25,0a0,0,0,0,0,0,0c-7.47-.05-14.95-.14-22.42-.21-7.25-.06-14.49-.13-21.74-.14h-7.92q-8.55,0-17.1,0Z"/><path class="cls-1" d="M385.65,316.91c-2.38,0-4.78,0-7.16.11l-6.09.25-7.24,0c-1.85,0-3.7.07-5.55.11l-14,.28c-5.23.1-10.47.2-15.7.41l-24.38,1c-1.89.08-3.78.21-5.67.33q-7.05.43-14.1.9-6.47.43-12.92.94l-2.62.14c-2.23.12-4.45.33-6.68.5l-14,1.05c-5.08.38-10.14.85-15.21,1.31l-4,.06c-1,0-2,.09-3.05.13l-6.75.32q-5,.25-10.1.54c-1.08.06-2.16.17-3.24.26l-7,.58c-2.68.23-5.36.44-8,.72q-5.88.63-11.75,1.29c-3.1.35-6.19.77-9.29,1.15-1.75.21-3.49.45-5.23.68-.92.12-1.82.2-2.75.22a7.39,7.39,0,0,0-2.61.44,3.58,3.58,0,0,0-1.24.74,2.72,2.72,0,0,0-.69,1.46,2.19,2.19,0,0,0,.21,1.57,2.07,2.07,0,0,0,1.76,1c2.42,0,4.83.09,7.24,0l6.57-.29,3.47-.15a2.17,2.17,0,0,0,0,1.09,2.15,2.15,0,0,0,1,1.27,2,2,0,0,0,1.07.27v0c4.42-.47,8.83-1,13.24-1.54,2.76-.34,5.52-.71,8.29-1l16.51-1.74,8-.25c6.06-.19,12.13-.22,18.19-.31,5.46-.08,10.92-.16,16.38-.19l23.75-.12c12-.06,24,0,36.06-.07l14.16-.05c2.41,0,4.83,0,7.25,0l22.82-.34c12.49-.18,25-.54,37.48-.93,13.18-.42,26.34-1,39.5-1.74,1.61-.09,3.2-.31,4.79-.5a2.34,2.34,0,0,0,1.52-.63,2.13,2.13,0,0,0,.63-1.41l.64,0c2,.07,4.06.1,6.09.1a3.36,3.36,0,0,0,3.21-2.45,3.31,3.31,0,0,0,.09-.42l.06,0a2,2,0,0,0,.83-.74,4,4,0,0,0,.45-1.36,1.59,1.59,0,0,0-1.1-1.94c-2.16-.44-4.3-1-6.49-1.29-2.39-.36-4.8-.57-7.21-.74s-4.67-.32-7-.41l-13-.5c-6.69-.26-13.39-.23-20.09-.3l-3.1,0c-5.39,0-10.78.13-16.17.21Zm-82.87,10.91c5.25-.21,10.51-.44,15.76-.57l25.14-.62c6.1-.15,12.21-.15,18.31-.21,5.08-.05,10.15-.11,15.23-.12l-3.6.16c-5.85.25-11.71.39-17.56.57-5.54.17-11.07.37-16.61.5q-20.91.49-41.81.95l-20.11.45,5.62-.33c1.88-.11,3.76-.15,5.64-.23l10.53-.41,1.25,0s0,0,0,0l2.2-.09Zm116.56-1.21,4.67-.25h.2c-5.43.29-10.87.59-16.3.83l11.44-.58Z"/><path class="cls-1" d="M325.9,329.76q-.83,34.81,0,69.63c.28,11.33.71,22.65,1.38,34,.67,11.47,1.68,22.9,2.66,34.35.42,4.93.77,9.86,1.16,14.79.34,4.38.71,8.75.95,13.13q.53,10.14,1.07,20.29c.07,1.36.06,2.71.07,4.07q.06,5.67.11,11.34,0,4.41.09,8.82c0,1.89-.11,3.79-.19,5.68-.09,2.2-.21,4.41-.34,6.61-.28,4.42-.74,8.83-1.31,13.23a132.18,132.18,0,0,1-2.75,14.59,106.94,106.94,0,0,1-4.59,14,81.11,81.11,0,0,1-9.47,16.26,70.88,70.88,0,0,1-11.17,11.11,72.72,72.72,0,0,1-14.2,8.18,77.73,77.73,0,0,1-17.53,4.81,84.06,84.06,0,0,1-20.32,0,88.66,88.66,0,0,1-20.2-5.48,122.34,122.34,0,0,1-14.63-7.73,153.78,153.78,0,0,1-13.42-9.19,192.12,192.12,0,0,1-16.87-14.85,190.17,190.17,0,0,1-15.73-17.63c-5.2-6.78-9.85-13.93-14.5-21.09-1.33-2-2.59-4.13-3.87-6.2a63.1,63.1,0,0,1-4.45-8.09v0l-.3-.74s0,0,0,0a64.35,64.35,0,0,0,3.58,9.17c1.05,2.31,2.07,4.64,3.17,6.94l4.35,9.15c.92,1.94,1.95,3.83,2.94,5.73,1.87,3.56,3.81,7.08,5.93,10.5a169.83,169.83,0,0,0,13.1,18,145.11,145.11,0,0,0,15.4,16c11.36,10.18,24.6,18.55,39.23,23.1a89.65,89.65,0,0,0,22.69,3.84,82.82,82.82,0,0,0,23.46-2.47,78.58,78.58,0,0,0,21.17-8.86,71.52,71.52,0,0,0,16.92-14.23c10-11.41,16-25.64,19.37-40.32.81-3.55,1.39-7.15,1.9-10.75.58-4.09,1.07-8.19,1.44-12.3.34-3.77.54-7.54.7-11.32.09-2.09.2-4.2.19-6.29q-.06-10.11-.13-20.23c0-4.52-.32-9-.54-13.54-.23-4.84-.38-9.68-.71-14.51l-1.39-20.35c-1.45-21.13-2.94-42.27-4.79-63.37-2-22.2-4.64-44.33-7.82-66.39q-.82-5.71-1.7-11.4h0Z"/><path class="cls-1" d="M343.18,323.13a44.06,44.06,0,0,0-3.42,8.05A70.37,70.37,0,0,0,337.21,342c-.56,3.33-1,6.69-1.32,10-.32,2.95-.67,5.91-.87,8.86q-.6,8.75-1.09,17.52c-.22,3.91-.45,7.8-.47,11.71q0,9.27.05,18.54c0,1.48.09,3,.14,4.45q.19,5.38.43,10.77.27,6.19.6,12.38c.27,5.16.66,10.32.91,15.49q.45,9.28.89,18.54c.22,4.53.33,9.05.48,13.58.14,4.35.3,8.7.37,13.05q.14,8.5.29,17c0,2-.07,4-.11,6l-.2,10.95q-.05,2.78-.1,5.56c-.07,3.63-.38,7.27-.66,10.88s-.66,7.25-1.12,10.86a153.32,153.32,0,0,1-3,15.64,104.11,104.11,0,0,1-4.9,14.91,81.91,81.91,0,0,1-9.54,16.38,68.14,68.14,0,0,1-10.51,10.61,61.87,61.87,0,0,1-11.87,6.89,78.23,78.23,0,0,1-18.48,4.79,92.35,92.35,0,0,1-10,.68,70.55,70.55,0,0,1-9.42-.6A86.23,86.23,0,0,1,237.83,622a89.47,89.47,0,0,1-18.52-10.77,165.78,165.78,0,0,1-17.26-16c-5.67-6-10.94-12.32-16-18.8a214.46,214.46,0,0,1-15-22,202.71,202.71,0,0,1-11.7-23.38l0,.12-.13-.31-.09-.21,0,.12c-2.75-6.57-5.35-13.21-7.94-19.85-2.38-6.12-4.86-12.22-7-18.43,0,0,0,0,0,0,1.21,5.25,2.66,10.45,4.07,15.66s2.91,10.59,4.38,15.88c1.32,4.73,2.77,9.43,4.34,14.07a176.7,176.7,0,0,0,31.47,56.05A170.34,170.34,0,0,0,203,609.81a122.37,122.37,0,0,0,16.17,13.38,93.27,93.27,0,0,0,18.63,9.51,87.49,87.49,0,0,0,20.79,5,72.86,72.86,0,0,0,10.36.54,99.78,99.78,0,0,0,11.91-1.07,84.39,84.39,0,0,0,9.74-1.95,72,72,0,0,0,10.58-3.78,62.23,62.23,0,0,0,17.43-11.59,75.49,75.49,0,0,0,12.88-16.16,92,92,0,0,0,8.66-19.54,126.81,126.81,0,0,0,4.69-21.3,245.17,245.17,0,0,0,2.34-30.78l.27-18c0-1.72-.06-3.45-.09-5.18q-.09-5.42-.2-10.83c-.16-9-.4-18-.78-26.93-.47-11.19-.91-22.39-1.54-33.57q-.35-6.22-.77-12.43-.36-5.43-.76-10.85c-.13-1.78-.31-3.56-.41-5.34q-.48-8.88-1.07-17.74c-.1-1.46-.25-2.93-.29-4.39q-.11-3.55-.22-7.1-.3-8.75-.71-17.5c-.16-3.38-.2-6.77-.28-10.16a127.32,127.32,0,0,1,.57-18.93l0,.11,0-.14v0a47.56,47.56,0,0,1,2.28-9.95,0,0,0,0,0,0,0ZM185.83,576.22l.13.17-.13-.17Zm-26.52-45.27.08.19-.12-.28,0,.09ZM340.92,333.12v0Z"/><path class="cls-1" d="M325.46,329.53c.13,1.11.27,2.21.43,3.32,0,1.09-.14,2.17-.16,3.26,0,1.33-.05,2.65-.08,4q-.07,4-.09,8c0,1.91-.09,3.83-.12,5.75q-.07,4.69,0,9.39c0,4.63,0,9.25.23,13.87s.44,9.09.74,13.64c.66,10,1.65,19.95,2.82,29.87,0,0,0,0,0,0,.38-8.93,1.09-17.85,1.53-26.79.48-9.77.71-19.52.35-29.3-.08-2.31-.29-4.61-.45-6.91q-.32-4.48-.74-8.95c-.18-1.91-.46-3.81-.7-5.71-.35-2.69-.7-5.38-1.1-8.06-.14-1.17-.25-2.33-.45-3.49a4,4,0,0,0-1.08-2.35.74.74,0,0,0-.48-.16.56.56,0,0,0-.63.62Z"/><path class="cls-1" d="M329.61,332.95c-.2,1.33-.41,2.65-.52,4a0,0,0,0,0,0,0c.25-1,.55-2,.86-3a3.58,3.58,0,0,1,.21,1l0-.13a53.59,53.59,0,0,1,0,5.88q0,1.85,0,3.69,0,3.54,0,7.09.06,6.47.18,12.95c.16,8.59.66,17.18,1.45,25.73.9,9.78,2.13,19.52,3,29.3a0,0,0,0,0,0,0q1-13.49,1.15-27,.07-6.9-.11-13.8c-.11-4.44-.44-8.87-.8-13.3-.7-8.63-1.91-17.22-3.18-25.78-.15-1.18-.27-2.36-.47-3.53a11.72,11.72,0,0,0-.55-2,4.59,4.59,0,0,0-.7-1.09.4.4,0,0,0-.31-.15.26.26,0,0,0-.28.23Z"/><path class="cls-1" d="M328.83,325.14c.82,13.6,1.8,27.2,2.83,40.79.83,10.94,1.46,21.89,2.25,32.83.39,5.45.6,10.9.93,16.35.13,2.11.14,4.23.21,6.35q.15,4.73.34,9.45c.11,2.63.07,5.28.13,7.91,0,2.39.16,4.78.16,7.16,0,5.34.07,10.68-.1,16-.16,5-.24,10-.48,15s-.39,9.91-.74,14.85l-.67,9.52c-.13,1.88-.21,3.78-.41,5.66q-.8,7.93-1.6,15.85l-1.32,9.05c-.34,2.34-.68,4.64-1.16,7q-1.21,5.72-2.42,11.45c-.62,3-1.51,5.88-2.36,8.78A131.12,131.12,0,0,1,320,571.53a86.07,86.07,0,0,1-10.12,17.54,70.34,70.34,0,0,1-11,11.14,61.39,61.39,0,0,1-12.14,7,82,82,0,0,1-18.8,5.09,90.31,90.31,0,0,1-21.77,0,86,86,0,0,1-19.7-5.3,60.92,60.92,0,0,1-5.71-2.84,53.74,53.74,0,0,1-5.61-3.75A85.7,85.7,0,0,1,201,586.32c-1.78-2.34-3.47-4.75-5.13-7.18-1.54-2.25-3.12-4.47-4.59-6.76l-2.93-4.54q-4.2-6.5-8.41-13c-2.41-3.7-4.79-7.41-7.2-11.11-2.6-4-5.23-8-7.63-12.18,0,0,0,0,0,0,2.13,4.94,4.52,9.77,6.88,14.6s4.71,9.64,7.11,14.44q2.64,5.28,5.29,10.55c1.5,3,3.05,5.9,4.64,8.84,1.72,3.18,3.48,6.34,5.38,9.42a79.85,79.85,0,0,0,6.94,9.44,65,65,0,0,0,17,14.65,67.58,67.58,0,0,0,10.14,4.54,71.8,71.8,0,0,0,11.39,3.16,91.26,91.26,0,0,0,23.91,1.37,85.36,85.36,0,0,0,23.56-5.06,74.93,74.93,0,0,0,10.44-4.82,63.73,63.73,0,0,0,9.78-7A75,75,0,0,0,322,588.79,103.06,103.06,0,0,0,331.81,568a125.19,125.19,0,0,0,4.7-16.09l2.33-10.75c.41-1.89.69-3.78,1-5.69q.79-5.21,1.59-10.44c.36-2.38.57-4.78.82-7.17l1.11-10.5c.21-2,.32-4,.47-6l.76-10.19c.17-2.23.25-4.47.36-6.71.14-2.74.33-5.48.43-8.22q.15-4.4.31-8.8c.08-2.35.22-4.71.25-7.06,0-5.32.2-10.66.11-16-.11-5.58-.22-11.16-.56-16.73s-.73-11.38-1.32-17.06c-.62-5.95-1.32-11.86-2.14-17.77q-1.13-8.23-2.46-16.41-2.63-16.17-6.23-32.14-2.14-9.57-4.46-19.1h0Z"/><path class="cls-1" d="M299.5,367.66c.55,6.24,1,12.49,1.4,18.74q.6,8.57,1.18,17.13c.15,2.23.22,4.47.33,6.7l.48,10.06c.1,2.09.06,4.18.09,6.27q.07,5.82.16,11.65c.07,4.73,0,9.46,0,14.19q0,6,0,11.95c0,1.69.05,3.38,0,5.07q-.29,9.87-.48,19.75-.08,3.51-.15,7c0,.56-.07,1.12-.1,1.68l-.29,4.82-.86,14c-.12,1.94-.29,3.88-.46,5.82-.45,5.12-1,10.23-1.64,15.32l.08-.58-.11.79v0c-2.12,15.37-5.44,30.64-11.43,45a82.71,82.71,0,0,1-9.89,17.48,62,62,0,0,1-10.46,10.39,63.41,63.41,0,0,1-13.15,7.77l.27-.11a47.27,47.27,0,0,1-11.54,3.24,50.51,50.51,0,0,1-12.32-.3h0a111.06,111.06,0,0,1-10.93-2.28c-3.88-.94-7.78-1.82-11.67-2.73,0,0,0,0,0,0,4,1.25,7.94,2.47,11.9,3.72a93.38,93.38,0,0,0,11.7,3.11,42.14,42.14,0,0,0,23.32-1.7,61.94,61.94,0,0,0,10.59-5,64.54,64.54,0,0,0,9.46-6.73,66.57,66.57,0,0,0,14.61-18.24,101.51,101.51,0,0,0,5.34-11.21A120.45,120.45,0,0,0,299,568.91a188.4,188.4,0,0,0,5.33-24c1.37-8.4,2.21-16.88,2.94-25.36.22-2.56.32-5.14.46-7.71l.68-11.93c.08-1.48.2-3,.22-4.45.1-7.14.21-14.27.25-21.41,0-1.62.07-3.25,0-4.87q-.12-3.79-.25-7.59-.36-10.32-.79-20.63c-.07-1.77-.24-3.53-.37-5.3q-.43-5.94-.88-11.88c-.12-1.68-.26-3.34-.45-5q-.66-5.75-1.31-11.5c-.12-1.08-.25-2.16-.37-3.24,0-.12,0-.22,0-.32l0-.24c-.09-.64-.17-1.29-.26-1.94q-.39-2.92-.78-5.85-1.12-8.32-2.25-16.64c-.51-3.79-1-7.57-1.58-11.36h0ZM278.09,600.1l-.32.4.32-.4ZM267.21,611l-.21.17.21-.17Zm-36.86,10.51.12,0-.12,0Zm68.71-83.44h0l0-.21,0,.21Z"/><path class="cls-1" d="M324.34,326a20.3,20.3,0,0,0-3.11,2.82,8.64,8.64,0,0,0-1.42,3.11,16.09,16.09,0,0,0-.48,4.32,63.33,63.33,0,0,0,.25,6.33c.32,3.91.69,7.8,1,11.71.19,2.43.48,4.86.57,7.29q.19,4.9.39,9.81c.09,2.27.29,4.55.3,6.82q0,4.46.06,8.92c.05,5,.12,10,.06,15.05-.07,5.46,0,10.92-.14,16.38q-.22,9.28-.31,18.57c0,2.37-.2,4.75-.28,7.11L320.83,455c-.06,1.6-.2,3.19-.32,4.79q-.45,5.78-.89,11.56c-.56,7.26-1.54,14.49-2.4,21.72q-1.31,8.23-2.63,16.46c-.33,2.1-.87,4.18-1.32,6.25-.78,3.68-1.56,7.35-2.33,11-.31,1.49-.68,2.94-1.06,4.41q-1.45,5.53-2.83,11.07c-.47,1.88-.85,3.8-1.41,5.66q-1.42,4.64-2.8,9.3-1,3.39-2,6.79c-.35,1.2-.82,2.37-1.24,3.55-1.91,5.35-3.71,10.72-5.87,16a74.53,74.53,0,0,1-8.35,15.36,34.28,34.28,0,0,1-5.24,5.43,50.37,50.37,0,0,1-8.86,4.88l.15-.06c-3.61,1.51-7.31,2.84-11,4.23a55.41,55.41,0,0,1-7.55,2.31s0,0,0,0a60.68,60.68,0,0,0,8-1.14,143.58,143.58,0,0,0,14.13-3.17,38.93,38.93,0,0,0,9.13-3.87,37.11,37.11,0,0,0,8.05-7.16,70.39,70.39,0,0,0,6.07-8.43c1-1.59,2-3.25,2.88-4.91s1.86-3.33,2.65-5q1.87-4,3.71-8.1c1-2.31,2.2-4.61,3.09-7q1.71-4.56,3.38-9.14.9-2.47,1.79-4.94c.26-.72.57-1.44.78-2.17q2.58-8.87,5-17.78c.42-1.55.71-3.11,1-4.69q1.14-5.75,2.26-11.5c.33-1.66.69-3.32.92-5q.74-5.35,1.48-10.69c.34-2.42.76-4.84,1-7.27q.45-4.66.91-9.33l.87-8.95c.2-2.09.24-4.2.36-6.3.3-5.23.69-10.47.79-15.71.07-3.82.16-7.65.23-11.48,0-1.79.09-3.58.06-5.37q-.15-9.42-.45-18.85c-.18-5.85-.58-11.7-.91-17.54-.3-5.17-.82-10.33-1.3-15.49-.23-2.5-.4-5-.75-7.5q-.59-4.25-1.2-8.5-.57-4-1.16-8c-.14-.93-.36-1.85-.54-2.77q-.59-3-1.18-6c-1-5.24-2.35-10.44-3.08-15.73a20.66,20.66,0,0,1-.09-4,14.52,14.52,0,0,1,.57-2.32,12.1,12.1,0,0,1,1.08-1.77h0l0,0,0,0c.58-.7,1.22-1.34,1.85-2a0,0,0,0,0,0,0Zm-3.5,6.17v0Zm.08,3.86v0Zm1.58-8h0Z"/><path class="cls-1" d="M298.94,324.15c-2.16,0-4.33.06-6.49.09l-15.52.24-9.55.14c-2.8,0-5.61.21-8.42.32l-15.37.6c-2,.08-4.09.14-6.13.27l-22.79,1.39-10.9.66-4.55.28-1.26.08c-2.21-.2-4.43-.43-6.65-.58a20.17,20.17,0,0,0-4.08.36,4.82,4.82,0,0,0-2.14,1.25,4.85,4.85,0,0,0-.76,5.88,5.11,5.11,0,0,0,2.9,2.23l1.43.49a11.51,11.51,0,0,0,2.4.36,28.73,28.73,0,0,0,3.62.09c1.51,0,3-.1,4.54-.21l5.79-.45c3.41-.26,6.83-.51,10.24-.79l7-.56q7.13.1,14.26.19c14.47.15,29-.29,43.43-.64,14-.34,28-.8,41.94-1.33,7-.26,14-.51,21.05-.79s14.09-.6,21.14-.84c6.54-.23,13.09-.53,19.64-.66q-8.54.5-17.08,1.06c-13.86.89-27.73,1.84-41.6,2.68-14.28.88-28.55,1.79-42.82,2.82q-22.35,1.62-44.68,3.54-19.92,1.71-39.82,3.62a0,0,0,1,0,0,0q28.3-.91,56.59-2.12c13.23-.58,26.46-1.17,39.69-1.9q21.62-1.19,43.23-2.68l20-1.35c7.5-.51,15-1.08,22.49-1.52,14.79-.88,29.58-1.8,44.39-2.31q8.17-.28,16.34-.48l7-.16,3.31-.07c.69,0,1.39,0,2.08,0a7.2,7.2,0,0,0,2.15,0A4.13,4.13,0,0,0,456,333a2.68,2.68,0,0,0,.81-.87,1.81,1.81,0,0,0,0-1.84l0-.08c6,0,12.09,0,18.12.22,0,0,0,0,0,0-7.49-1-15-1.52-22.55-2.09q-9.77-.73-19.56-1.25c-14.21-.77-28.44-1.5-42.67-2q-12.8-.41-25.61-.68c-7.41-.15-14.83-.13-22.25-.18-11.62-.08-23.23-.08-34.85-.08Z"/><path class="cls-1" d="M322.6,344.23c-1,13.34-1.8,26.7-2.36,40.07-.24,5.75-.56,11.5-.76,17.26-.16,4.48-.21,9-.44,13.44q-.47,9.6-.74,19.2c-.12,4.51-.59,9-.87,13.52q-.26,4.15-.48,8.32c-.07,1.36-.26,2.72-.41,4.08-.59,5.44-1.1,10.89-1.63,16.34q-1.41,8.67-2.68,17.36c-.21,1.49-.52,2.92-.84,4.4q-1.24,5.64-2.45,11.29c-.4,1.9-.69,3.88-1.23,5.74q-1.34,4.54-2.64,9.08-1.26,4.37-2.5,8.73c-.14.48-.32.94-.49,1.4l-1.74,4.86c-1.38,3.88-2.7,7.78-4.16,11.63-1.63,4.3-3.27,8.61-4.87,12.93-3.25,8.77-6.51,17.54-9.69,26.34a0,0,0,0,0,0,0c4.82-9.61,9.85-19.12,14.84-28.65,2.53-4.81,5.05-9.61,7.44-14.5q2.4-4.91,4.79-9.83c.81-1.67,1.48-3.39,2.18-5.11q2.19-5.44,4.35-10.89c.62-1.56,1.29-3.11,1.78-4.71q2.78-9,5.47-18c.14-.48.22-1,.33-1.47q.53-2.43,1.05-4.86c.8-3.7,1.58-7.4,2.32-11.11,1-5.07,1.59-10.24,2.28-15.37q.61-4.46,1.18-8.94c.28-2.2.31-4.45.46-6.65q.37-5.71.66-11.42c.07-1.41.15-2.81.14-4.22q0-10.27-.32-20.52c0-1.23-.12-2.44-.21-3.66q-.38-5.35-.82-10.69c-.61-7.4-1.31-14.78-2.22-22.14-1.38-11.1-2.92-22.17-4.7-33.21h0Z"/><path class="cls-1" d="M299.38,335.34s0,0,0,0a9.77,9.77,0,0,1,2.31.73,10.92,10.92,0,0,1,1.77,1.05l.4.43a14.56,14.56,0,0,1,1.17,2.05c1.35,3.43,1.73,7.15,2.22,10.78a92,92,0,0,1,.56,10.81q0,6.05,0,12.11c0,6-.15,12-.19,18,0,6.53.18,13,.58,19.56.66,10.69,1.61,21.34,2.73,32,1,9.37,2.27,18.71,3.48,28.05a0,0,0,0,0,0,0c1.65-21.64,4.69-43.18,5.18-64.89a217.59,217.59,0,0,0-1.55-32.73c-.61-4.73-1.41-9.44-2.36-14.11-.43-2.09-1-4.15-1.56-6.2a64,64,0,0,0-2.38-6.33,31,31,0,0,0-5.1-9,7.52,7.52,0,0,0-3.15-2.12,9.45,9.45,0,0,0-2.39-.35l-.51,0a7.11,7.11,0,0,0-1.25.12Zm2.31.76.1,0-.1,0Z"/><path class="cls-1" d="M309.59,331.64c.57,3,1.19,5.92,1.66,8.9q.6,3.87,1.23,7.73,1.06,6.62,2.16,13.22.58,5.8,1.2,11.61.43,4,.87,8c.13,1.14.33,2.3.38,3.45q.29,6.5.61,13c.15,3,.38,6,.39,9q0,7.88.12,15.75c0,2.74,0,5.47,0,8.21q-.14,7.74-.21,15.48c0,3.16-.2,6.32-.32,9.48q-.16,4.24-.31,8.47c0,1.29-.06,2.59-.14,3.88q-.43,6.62-.85,13.24c-.19,3-.35,5.9-.66,8.84q-.82,7.9-1.64,15.79c-.07.7-.14,1.4-.22,2.11q-.94,5.92-1.86,11.85c-.48,3-.84,6.11-1.52,9.11-1.14,5.05-2.3,10.1-3.41,15.16q-.44,2-.87,4c-.29,1.34-.73,2.67-1.09,4q-1.83,6.76-3.6,13.54c-.58,2.22-1.25,4.4-1.93,6.59q-2,6.43-3.94,12.88c-.72,2.38-1.52,4.72-2.3,7.07-1.55,4.59-3.23,9.14-5.09,13.62-1.66,3.9-3.46,7.73-5.34,11.52a67.23,67.23,0,0,1-6.68,11.06c-.76,1-1.55,1.92-2.38,2.83-1,1.09-2.08,2.09-3.14,3.12l-2.87,2.76c-1.46,1.4-3,2.72-4.56,4l-1.09.79s0,0,0,0a45.55,45.55,0,0,0,5.36-3.62c2.16-1.69,4.34-3.37,6.48-5.09a52.3,52.3,0,0,0,10.37-11.94,160.28,160.28,0,0,0,8.5-14.54c6-11.45,10.21-23.69,14.57-35.8.27-.76.51-1.51.74-2.28q1.05-3.5,2.1-7,1.19-4,2.36-8c.33-1.15.73-2.3,1-3.46q1.47-6.45,2.88-12.9c.64-2.95,1.39-5.88,1.84-8.86q1.14-7.73,2.29-15.46c.22-1.5.51-3,.66-4.54s.28-2.94.42-4.41q.73-7.63,1.46-15.27c.31-3.29.42-6.61.61-9.91.22-3.69.51-7.39.64-11.08l.5-14.45c.1-2.84.21-5.67.21-8.52q0-8,0-16c0-2.79-.14-5.57-.26-8.36q-.32-7.39-.7-14.79c0-.86-.14-1.71-.23-2.56q-.39-3.88-.79-7.77t-.84-8c-.12-1.12-.2-2.26-.39-3.37q-1.18-6.64-2.41-13.28-.68-3.7-1.38-7.39c-.15-.82-.27-1.66-.48-2.47q-1.75-6.76-3.55-13.51-.91-3.42-1.83-6.84c-.72-2.69-1.59-5.33-2.43-8l-.21-.65h0Zm-21.39,274-.14.34.14-.34Z"/><path class="cls-1" d="M325.91,430.11c.38.75.77,1.49,1.1,2.27v0a67.91,67.91,0,0,1,3.45,13.48,146.93,146.93,0,0,1,.91,16.49c.05,3.86,0,7.74-.28,11.6-.26,4.17-.4,8.36-.78,12.52s-.64,8.5-1.11,12.73q-.72,6.57-1.39,13.16-.86,6.14-1.67,12.29a192.37,192.37,0,0,1-4.31,19.8A165.24,165.24,0,0,1,315.43,563q-2.23,5.18-4.81,10.19c-2.06,4-4.39,7.9-6.73,11.76-1.73,2.84-3.6,5.61-5.39,8.41-1.34,2.09-2.72,4.14-4.11,6.19-2.39,3.54-4.78,7.05-7.36,10.46a83.32,83.32,0,0,1-13.38,13.5,73.63,73.63,0,0,1-13.73,8.1,62.68,62.68,0,0,1-31.58,4.28,58.48,58.48,0,0,1-11.93-3.19,68.43,68.43,0,0,1-12.61-7.53,95.74,95.74,0,0,1-15.25-15.34,146.59,146.59,0,0,1-17.36-30.38c-2.78-6.67-5.28-13.44-7.39-20.35-1.57-5.12-3.07-10.27-4.44-15.45q-2.52-9.52-5.05-19-1.9-7.15-3.79-14.32c-1.32-5.06-2.68-10.12-3.78-15.23,0,0,0,0,0,0,.46,5.26,1.09,10.51,1.7,15.76.59,5.08,1.15,10.16,1.75,15.24q1.14,9.63,2.29,19.25c.35,2.89.81,5.78,1.23,8.67.59,4.1,1.25,8.19,2,12.25a158.89,158.89,0,0,0,6.1,22.37A109.14,109.14,0,0,0,186,628.47a83.27,83.27,0,0,0,18.24,14.29,60.29,60.29,0,0,0,10.86,4.81A64.36,64.36,0,0,0,228,650.2a72.69,72.69,0,0,0,24.35-1.67,71,71,0,0,0,21.86-9.21,81.8,81.8,0,0,0,17.48-14.91,110,110,0,0,0,10.42-13.95c3.27-5.09,6.5-10.2,9.66-15.36,2.36-3.85,4.65-7.73,6.8-11.7a164,164,0,0,0,9.78-21.91,142.61,142.61,0,0,0,8.32-38q.4-5.23.77-10.45c.16-2.3.18-4.61.24-6.91.24-7.84.38-15.7.06-23.53q-.18-4.35-.38-8.71c-.18-3.88-.57-7.75-1.07-11.6A119.29,119.29,0,0,0,333,445.25a58.56,58.56,0,0,0-2.66-7.25,38.73,38.73,0,0,0-4.42-7.91h0a0,0,0,0,0,0,0ZM286.63,610.58l-.3.39.3-.39Z"/><path class="cls-1" d="M315.75,294.91c-.25,9.3-.43,18.6-.64,27.89-.17,7.7-.41,15.41-.46,23.11q-.05,7.56-.09,15.12,0,4,0,8.08c0,.89,0,1.78,0,2.67q.22,7.34.46,14.67.15,4.19.31,8.38c0,1.05.05,2.11.13,3.16.68,9.57,1.49,19.14,2.29,28.7.71,8.61,1.62,17.2,2.44,25.8.76,8,1.36,16,2,24,.32,4,.72,8.09,1,12.14.36,6.34.66,12.69.78,19s.05,12.62-.17,18.92c-.24,6.88-.81,13.75-1.68,20.58a78.55,78.55,0,0,1-4.64,18.35,59.67,59.67,0,0,1-6.92,11.94,58.8,58.8,0,0,1-9.19,9.07,76.1,76.1,0,0,1-15.43,8.95,78.33,78.33,0,0,1-7.95,2.78,61,61,0,0,1-8.38,1.75A91.11,91.11,0,0,1,247,599.7a75.93,75.93,0,0,1-9.19-1.85,74.17,74.17,0,0,1-9.05-3.15,98.3,98.3,0,0,1-9.29-4.63,82.72,82.72,0,0,1-9-6.05,98.57,98.57,0,0,1-10.28-9.21,131.6,131.6,0,0,1-9.62-11.23l.2.25c-2.84-3.71-5.6-7.51-8.23-11.39a72.84,72.84,0,0,1-6.78-12.11l0,.11a38.54,38.54,0,0,1-2.54-9.25h0a15.77,15.77,0,0,1-.17-2.51h0l.17-1.05s0,0,0,0-.22.89-.24,1a14.24,14.24,0,0,0,0,1.87,32.19,32.19,0,0,0,.33,3.46,38.21,38.21,0,0,0,2.35,8.6,86.23,86.23,0,0,0,8,14.88c6.22,9.8,13.06,19.2,21.66,27.06A87.06,87.06,0,0,0,235,602.41a81.94,81.94,0,0,0,17.88,3.71,87.32,87.32,0,0,0,18.73.18,72.44,72.44,0,0,0,17.82-4.2,78,78,0,0,0,16-8.09,68.17,68.17,0,0,0,7-5.41,51.49,51.49,0,0,0,6.28-6.54,64.78,64.78,0,0,0,5.07-7.22,66.57,66.57,0,0,0,4.24-8.68,72.25,72.25,0,0,0,4.47-17.38q1.44-9.55,1.93-19.2a329.5,329.5,0,0,0-.51-37.93c-.29-4.58-.77-9.14-1.21-13.71q-.84-8.57-1.67-17.13c-.23-2.39-.51-4.76-.79-7.14q-1.05-9-2.12-17.93c-.93-7.84-1.77-15.69-2.61-23.54q-.76-7-1.6-14c-.41-3.41-.66-6.85-1-10.27q-.77-7.87-1.61-15.74c-.34-3.22-.5-6.46-.75-9.69-.68-8.86-1.37-17.71-2-26.58-.95-13.68-2-27.34-2.8-41h0ZM228.23,594.5l.34.14-.34-.14Zm18.09,5.12.27,0-.27,0ZM173,528.68h0Z"/><path class="cls-1" d="M314.81,339.45c.36,3,.39,6.09.48,9.15.07,2.39.1,4.77.15,7.16.07,2.78.34,5.54.36,8.32,0,1.89,0,3.77.09,5.66s.07,4,.07,6c0,0,0,0,0,0,.29-1.81.55-3.61.72-5.44q.28-3,.48-6a70.34,70.34,0,0,0-.1-8.32c-.13-2.4-.31-4.81-.61-7.2a71.17,71.17,0,0,0-1.64-9.34h0Z"/><path class="cls-1" d="M350.06,320.1q-7.8.25-15.6.55c-3.45.13-6.89.46-10.33.72q-6.7.5-13.41,1c-3.72.3-7.44.72-11.15,1.1-14.52,1.48-29,3.23-43.45,5.18l-.23,0h-.09q-13.51,1.8-27,3.76-11.13,1.44-22.25,3c-3.24.38-6.47.79-9.73,1.06q-1.24.1-2.48.16c1.6-.29,3.2-.6,4.81-.87l11.87-2a0,0,0,0,0,0,0c-4.14.26-8.28.56-12.42.87-1.66.13-3.32.3-5,.45-.88.08-1.77.17-2.65.21a14,14,0,0,0-2.68.32,3.42,3.42,0,0,0-1.79,1.26,1.22,1.22,0,0,0-.3,1.16,1.16,1.16,0,0,0,.83.83c1.29.19,2.58.42,3.88.6a37.44,37.44,0,0,0,3.8.29c3.07.11,6.15,0,9.22-.12,2-.07,3.89-.17,5.84-.29q8.35-.52,16.69-1.1c8.31-.58,16.61-1.43,24.9-2.25,15.86-1.55,31.69-3.37,47.5-5.34q5.92-.74,11.85-1.51c4.23-.55,8.47-1,12.71-1.48l8-1c.93-.11,1.86-.25,2.79-.33q7.64-.69,15.27-1.44c1.17-.12,2.36-.29,3.53-.35l5.77-.29c3.79-.2,7.59-.53,11.38-.49,4.09,0,8.17,0,12.25.23,4.64.28,9.28.58,13.9,1.16a18.17,18.17,0,0,1,3.79.94c.46.24.88.5,1.32.78,0,0,0,0,0,0-.2-.16-.6-.51-.81-.65a9.4,9.4,0,0,0-1.59-.85,19.23,19.23,0,0,0-3.21-1c-1.38-.34-2.79-.61-4.18-.9-1.91-.39-3.8-.76-5.72-1.07l-4.16-.66c-.64-.1-1.28-.22-1.93-.29l-7.37-.71c-1.52-.14-3.06-.36-4.59-.4l-7.25-.16-7.25-.14H353c-1,0-1.94.05-2.9.09Zm-94.53,8.65-.19,0-.14,0,.33,0Zm-.23,0h-.14l.14,0Zm-.37,0h0Zm-25.48,3.55-.24,0,.24,0Z"/><path class="cls-1" d="M413.54,342.23c-5.12,0-10.24.2-15.36.34q-6.43.18-12.87.4c-5.26.18-10.52.42-15.79.58q-8.89.26-17.78.58c-3.8.14-7.59.31-11.39.39-6.86.14-13.71.33-20.57.5q-5.18.13-10.35.18-10.45.1-20.89.25c-9.74.15-19.48.27-29.22.44l-16.16.27c-1.77,0-3.55.09-5.32.09l-9.23,0-4.17,0h-2a30.19,30.19,0,0,1-3.95-.14,10.86,10.86,0,0,1-1.44-.34l-.12-.06c.69-.11,1.38-.23,2.08-.32s1.36-.12,2-.17l3.33-.23,3.33-.22,13.93-.86s0,0,0,0l-14.4.52-3.73.15-3.34.14c-1.44.06-2.86.25-4.29.41-.3,0-.57.42-.28.67a4.13,4.13,0,0,0,1.19.89,10.9,10.9,0,0,0,2.31.55c.73.1,1.46.14,2.19.17l2.47.13,2.77.13,10.32.48c1.47.07,2.94.09,4.41.12l10.86.22q16,.32,32.1.47c9.9.11,19.8.07,29.71.07,1.35,0,2.7,0,4.05-.07l10.52-.18,10.38-.18c1.27,0,2.54,0,3.81-.09,9.94-.4,19.88-.8,29.81-1.38q17.31-1,34.61-2.16c1.7-.11,3.41-.25,5.11-.33l9.89-.52c2-.11,3.91-.22,5.86-.29,2.68-.11,5.37-.27,8.05-.33l4.75-.11,1.47,0,2.14,0a21.27,21.27,0,0,1,2.78.19h0a4.18,4.18,0,0,1,.92.24h0l.23.15.12.24h0l.08.31s0,0,0,0c-.06-.33-.08-.63-.41-.79a6.32,6.32,0,0,0-1.6-.46,28.08,28.08,0,0,0-4.32-.41l-4.55-.21c-2.52-.11-5-.15-7.56-.2-2.8-.05-5.6-.07-8.41-.07l-8.15,0Z"/><path class="cls-1" d="M409.48,328.16c-6.9,0-13.79.32-20.69.55-2.29.08-4.58.24-6.87.38q-6.91.41-13.81.86c-6.43.41-12.86,1.05-19.28,1.64q-8.51.78-17,1.72-21.94,2.41-43.84,5.22-6,.76-11.93,1.55c-1.18.16-2.36.31-3.54.44q-12.4,1.35-24.79,2.81-7.56.9-15.12,1.83c-6.27.77-12.55,1.41-18.83,2.13,0,0,0,0,0,0,5.76-.1,11.52-.14,17.27-.37l10.34-.44q13.86-.61,27.71-1.37c1.59-.09,3.2-.14,4.79-.27l8-.68q13.49-1.16,27-2.48c11.48-1.12,22.92-2.56,34.38-3.8q6.95-.75,13.89-1.55c2.82-.32,5.64-.71,8.48-1q10.86-1,21.71-2.18c2.78-.29,5.57-.45,8.35-.68l7.15-.59c1.07-.09,2.14-.21,3.22-.27,6.78-.42,13.56-.88,20.34-1.26l12.73-.7,5.5-.3a58.93,58.93,0,0,1,7-.05h0l.54.09h0l.38.17s0,0,0,0a5.34,5.34,0,0,0-2-.51c-.61-.08-1.21-.15-1.82-.19l-3.18-.2c-1.71-.11-3.44-.11-5.16-.16-2.9-.09-5.8-.16-8.7-.21-3.59-.06-7.19-.15-10.78-.15q-5.75,0-11.49,0Zm42.73,1.24h0Zm-.53-.09h0Z"/><path class="cls-1" d="M332.16,333.6a98.09,98.09,0,0,0-2.06,18.61q0,4.49,0,9c0,5.17.13,10.34.25,15.5.22,9.1.47,18.19.64,27.29.09,4.89.29,9.79.37,14.68q.15,9.36.44,18.71c.14,4.36.24,8.72.39,13.08s.38,8.64.39,13l.07,17.52c0,3.49-.18,7-.35,10.47-.33,6.55-1,13.06-1.79,19.56a135,135,0,0,1-3.1,16,119,119,0,0,1-5.18,15.31,125.92,125.92,0,0,1-9.34,17.11c-3.7,5.81-7.69,11.38-11.89,16.84-3.81,4.89-7.89,9.56-11.86,14.33-.94,1.13-1.84,2.3-2.86,3.36L280,600.51l-5.86,6.2c-1.28,1.36-2.7,2.6-4.05,3.88L263.36,617c-1.63,1.56-3.36,3-5,4.52-1.41,1.26-2.79,2.52-4.27,3.7l-6,4.75c-5.7,4.3-11.37,8.64-17.19,12.76,0,0,0,0,0,0,4.23-2.51,8.39-5.12,12.54-7.75,2.07-1.31,4.18-2.58,6.21-3.95l7.1-4.77c.68-.46,1.32-1,2-1.49l4.43-3.35c1.44-1.09,2.85-2.2,4.25-3.34,3.77-3.08,7.66-6.06,11.26-9.34l7.61-7,3.24-3c.45-.41.93-.8,1.36-1.25q6-6.26,11.91-12.55c2.8-3,5.41-6.09,8-9.25A173.29,173.29,0,0,0,323,558.57a115,115,0,0,0,15.27-39.16c1.4-7.19,2.34-14.51,3-21.8.33-3.54.56-7.09.77-10.64.1-1.72.21-3.45.24-5.18q.14-9.5.29-19c.07-4.42-.06-8.84-.16-13.25s-.21-8.54-.41-12.81q-.42-9.18-1-18.34c-.31-5.09-.8-10.17-1.25-15.24-.82-9.24-1.93-18.45-3.18-27.64q-.89-6.49-1.86-13c0,.21.06.43.09.64q-.75-5.59-1.55-11.18c-.39-3.22-.76-6.43-1-9.67-.18-2.9-.2-5.82-.16-8.72h0ZM301.28,575.81l-.17.22.17-.22Zm-.38.49-.19.25.19-.25Z"/></g><g id="Draw_Layer-3" data-name="Draw Layer"><path class="cls-1" d="M615.22,339a104,104,0,0,0-22.89,7.22,106.26,106.26,0,0,0-10,5,80,80,0,0,0-10.45,7.15A63.72,63.72,0,0,0,552,386.39a57.32,57.32,0,0,0-2.88,11.75,71,71,0,0,0-.83,12,68.35,68.35,0,0,0,1.58,12.63,61.86,61.86,0,0,0,3.64,11.07,86.32,86.32,0,0,0,5.53,10.8c1.9,3.17,4.05,6.18,6.23,9.16,2.52,3.44,5.21,6.76,8,10a163.32,163.32,0,0,0,16.83,16.78c6.15,5.31,12.55,10.33,18.89,15.42,4.3,3.45,8.45,7.11,12.65,10.68s8.19,7.24,12.27,10.88c3.41,3,6.79,6.11,10.18,9.17a169.37,169.37,0,0,1,19.89,21.09,125.54,125.54,0,0,1,15.31,25.63,65.34,65.34,0,0,1,4.28,14.45,33.69,33.69,0,0,1,.11,6.8,26.55,26.55,0,0,1-1.28,5,27.68,27.68,0,0,1-2.63,4.54,34.43,34.43,0,0,1-4.73,4.57,57.11,57.11,0,0,1-11,6,145.83,145.83,0,0,1-22,6.55q-5.08,1.19-10.18,2.3l-15.59,3.44c-5.23,1.16-10.46,2.35-15.7,3.44l-11.15,2.3c-1.7.35-3.38.73-5.09,1l-15.89,2.58c-6,.72-12.09,1.28-18.18,1.45a119.17,119.17,0,0,1-18-.61,93.94,93.94,0,0,1-21.58-5.88A84.7,84.7,0,0,1,493,621a85.58,85.58,0,0,1-8.7-7.73,116.55,116.55,0,0,1-7.9-9.26h0c-2.75-3.61-5.3-7.37-7.88-11.1a50.2,50.2,0,0,1-5-8.58,0,0,0,0,0,0,0,52.77,52.77,0,0,0,3.9,9.25c2.18,4.3,4.3,8.65,6.72,12.83,1.8,3.11,3.79,6.14,5.86,9.07a72,72,0,0,0,7.29,8.58,77.59,77.59,0,0,0,17.39,13.42,82.58,82.58,0,0,0,21.25,8.26A94.85,94.85,0,0,0,549.3,648c3.82,0,7.61-.29,11.41-.66,3.35-.32,6.74-.65,10.06-1.21L580,644.6l8-1.34c2.55-.43,5.09-1.06,7.63-1.59,5.13-1.07,10.26-2.15,15.38-3.29l15.61-3.47c8.55-1.89,17.14-3.68,25.61-5.93a110.75,110.75,0,0,0,22.05-8.15,46.52,46.52,0,0,0,9.06-6.26,29.93,29.93,0,0,0,7.14-9.22,30.84,30.84,0,0,0,2-5.31,33.75,33.75,0,0,0,1-5.86,40.05,40.05,0,0,0-1-11.88,66,66,0,0,0-3.28-10.51,111.77,111.77,0,0,0-5.28-11.49,137.27,137.27,0,0,0-13.19-20.12q-3.42-4.41-7.13-8.57c-2.77-3.11-5.71-6-8.68-9-4.23-4.16-8.68-8.09-13-12.11-3.87-3.58-7.77-7.11-11.65-10.67s-7.95-7-11.92-10.5c-1.5-1.33-3.08-2.58-4.62-3.87L605.91,479c-4.27-3.57-8.47-7.26-12.46-11.13a159.71,159.71,0,0,1-14.57-16.31,111.45,111.45,0,0,1-13.29-21.77A62.77,62.77,0,0,1,561.81,416a56.29,56.29,0,0,1,3.65-28,60.59,60.59,0,0,1,6.73-11.5,63,63,0,0,1,9.55-9.56,91.17,91.17,0,0,1,18-10.12,109.65,109.65,0,0,1,11.78-4.08,93.93,93.93,0,0,1,12.1-2.49,114.63,114.63,0,0,1,22-.44c2.65.19,5.28.54,7.92.83,3.42.53,6.83,1,10.23,1.67,1.81.34,3.64.61,5.43,1l7.17,1.62c1.7.38,3.37.89,5,1.36s3.3.92,4.93,1.46c1.83.61,3.71,1.15,5.51,1.85l5.9,2.29a61.06,61.06,0,0,1,12.38,6.78,31.16,31.16,0,0,1,4.72,4.6,22.65,22.65,0,0,1,2.77,4.71,20.45,20.45,0,0,1,.7,2.4,40.94,40.94,0,0,1-.24,7.31s0,0,0,0c.32-1.49.64-3,.88-4.47a12,12,0,0,0,.19-3.91,21.62,21.62,0,0,0-4.09-9.17,31.82,31.82,0,0,0-6.62-6.54,68.77,68.77,0,0,0-8.85-5.8c-4.7-2.54-9.39-5.06-14.32-7.15-2.65-1.12-5.28-2.29-8-3.27-2.54-.91-5.06-1.87-7.63-2.67-5.25-1.62-10.51-3.26-15.89-4.39l-5.21-1.09c-3.08-.64-6.25-1-9.38-1.34a75.85,75.85,0,0,0-8-.41A93.13,93.13,0,0,0,615.22,339Z"/><path class="cls-1" d="M633.37,333.08a98.16,98.16,0,0,0-16.79,3.61,95.89,95.89,0,0,0-15.73,6.53,147.08,147.08,0,0,0-28.2,19.38,104.23,104.23,0,0,0-11.59,11.94,68.75,68.75,0,0,0-9.26,14.18A53,53,0,0,0,547,405.63c-.15,1.35-.22,2.71-.24,4.07a31.07,31.07,0,0,0,.41,4.58,32.48,32.48,0,0,0,2.7,8.7,35.09,35.09,0,0,0,4.61,7.09,52.1,52.1,0,0,0,5.66,6.18c2.25,2.09,4.6,4.07,7,6,3.09,2.53,6.26,5,9.28,7.62q10,8.75,20.13,17.45c5.27,4.54,10.79,8.77,16.1,13.27l11,9.3c.92.78,1.79,1.64,2.68,2.46l6.3,5.8c5.75,5.3,11.43,10.68,17.12,16q4.78,4.49,9.34,9.24a138.8,138.8,0,0,1,9.23,10.73,113.31,113.31,0,0,1,13.64,22.92A61.5,61.5,0,0,1,686,571a47.39,47.39,0,0,1,0,10.72,43.08,43.08,0,0,1-2.47,9.19,37.69,37.69,0,0,1-3.88,6.56,44.37,44.37,0,0,1-6.77,6.59,77.69,77.69,0,0,1-15.73,8.85,125.68,125.68,0,0,1-15.7,5.24A164.93,164.93,0,0,1,625,621.5L612.39,623c-1,.12-2.09.27-3.14.33l-6.83.39-8.14.46c-.94.05-1.88.11-2.82.13l-15.24.32c-3,.06-6.05,0-9.08,0l-13.88-.09c-1.14,0-2.28-.07-3.41-.1l-8.39-.26c-3.32-.11-6.66-.1-10-.34l-14.73-1.05-5.43-.39c-1.49-.11-3-.3-4.45-.47-2.5-.27-5-.56-7.49-.89q-8.13-1.15-16.12-3.12a98.43,98.43,0,0,1-14.18-4.75,42.09,42.09,0,0,1-8-4.39,43.49,43.49,0,0,1-6.42-6.66c-1.91-2.54-3.64-5.2-5.31-7.91a69.07,69.07,0,0,1-4.7-9.09c-1.42-3.4-2.72-6.85-4.18-10.24L439,571.46q-1.89-4.35-3.81-8.7l-1.93-4.68-.9-2.17a37.34,37.34,0,0,1-1.93-5.93s0,0,0,0a36.91,36.91,0,0,0,1,6.2q.39,1.65.79,3.29c.39,1.61.75,3.23,1.19,4.82,1.32,4.91,2.72,9.79,4,14.71,1.39,5.34,2.59,10.71,4.76,15.8a80.21,80.21,0,0,0,7.3,13.73,44.47,44.47,0,0,0,4.88,6,34.27,34.27,0,0,0,6.5,5,59.26,59.26,0,0,0,6.42,3.36c2.68,1.24,5.39,2.41,8.17,3.43a108.43,108.43,0,0,0,16.18,4.29A181.35,181.35,0,0,0,509.64,633c4.46.43,9,.61,13.43.89,3.3.21,6.61.52,9.92.6l15.38.37c8.05.19,16.11.11,24.17.11,3.39,0,6.79-.14,10.18-.22s7-.09,10.49-.3l15.17-.87c3.57-.2,7.12-.73,10.66-1.13l6.48-.73c1.93-.22,3.84-.55,5.75-.87q4.47-.74,8.89-1.73a112.49,112.49,0,0,0,32.37-12.43,65.68,65.68,0,0,0,7-4.89,46.28,46.28,0,0,0,6-5.56,41.5,41.5,0,0,0,8.52-15.05,45.53,45.53,0,0,0,1.77-8.61,46.38,46.38,0,0,0,.23-8.87,59.6,59.6,0,0,0-1.31-8.71,57.15,57.15,0,0,0-2.59-8.19c-4.09-10.67-10.2-20.44-17.17-29.44a184.29,184.29,0,0,0-19.14-20.55c-6.15-5.83-12.29-11.66-18.5-17.43-2.57-2.39-5.08-4.86-7.75-7.14l-11.28-9.67c-2.92-2.51-5.93-4.91-8.9-7.37-2.61-2.15-5.17-4.32-7.72-6.54q-9.45-8.23-18.87-16.48c-.92-.8-1.9-1.55-2.85-2.32l-5.36-4.36q-2.05-1.67-4.06-3.38c-1.64-1.38-3.26-2.78-4.81-4.25a50.24,50.24,0,0,1-4.43-4.93,33.08,33.08,0,0,1-3.57-5.92,32,32,0,0,1-1.62-6,37.34,37.34,0,0,1,.15-8,54.85,54.85,0,0,1,3.24-11.93,64.68,64.68,0,0,1,7.8-13,109.38,109.38,0,0,1,18.79-18.39A123.57,123.57,0,0,1,612,344.1a95.81,95.81,0,0,1,23-6.27,82.25,82.25,0,0,1,11.35-.73,98.24,98.24,0,0,1,11.79.9l-.11,0,.12,0,.43.06-.38,0c5.51.78,10.94,1.91,16.4,3,1.3.25,2.59.58,3.89.88l7.27,1.7c1.5.35,3,.78,4.48,1.17,1.86.49,3.74.91,5.58,1.47,5.48,1.66,11,3.21,16.3,5.39l-.21-.09a45.87,45.87,0,0,1,9.74,5.32l0,0,.09.07,0,0,0,0a24.74,24.74,0,0,1,3.9,3.76,15.46,15.46,0,0,1,3,7.38,25.64,25.64,0,0,1,0,5.33,61.85,61.85,0,0,1-1.74,7.73s0,0,0,0a60.26,60.26,0,0,0,2.09-7.69,20.54,20.54,0,0,0,0-7.44,15.85,15.85,0,0,0-2.88-6.36,24.88,24.88,0,0,0-5.21-5,47.31,47.31,0,0,0-6.82-4c-2.52-1.29-5.19-2.32-7.82-3.35-2.09-.82-4.25-1.52-6.37-2.27-3.91-1.37-7.86-2.59-11.81-3.83C684.32,340,680.5,339,676.72,338c-1.45-.4-2.92-.72-4.37-1.07l-6.86-1.65a116.13,116.13,0,0,0-15-2.46,67,67,0,0,0-6.94-.35,82.8,82.8,0,0,0-10.16.66Zm94.14,30.72,0,0,0,0Zm1.14,9.49v0ZM668,533.71l.25.32-.25-.32Zm.47.62.27.35-.27-.35ZM444.7,585.14l.26.62-.26-.62ZM721.77,356.87h0l0,0,.05,0ZM658.27,338h0Z"/><path class="cls-1" d="M626.18,322.35c-2.21.36-4.39.84-6.56,1.37-2.73.68-5.45,1.33-8.14,2.16l-4.25,1.31c-1.34.41-2.65,1-4,1.49-3.3,1.25-6.5,2.7-9.71,4.14-2.12.95-4.23,2-6.25,3.19-2.56,1.45-5.1,2.89-7.61,4.44-2.29,1.41-4.55,2.88-6.8,4.36a78.29,78.29,0,0,0-10.07,7.78,52,52,0,0,0-8.34,10.2,57,57,0,0,0-5.27,11.32,60.69,60.69,0,0,0-2.79,11.73A141.72,141.72,0,0,0,545,411.51a108.39,108.39,0,0,0,3.25,24.68,73.62,73.62,0,0,0,4.39,11.49,53.38,53.38,0,0,0,6.86,10.66c4.74,6,11,10.66,17.71,14.31a78.69,78.69,0,0,0,10,4.43q5.47,2.06,11.09,3.63c4,1.12,8,2.12,12.06,3.13,9,2.25,18,4.49,27,6.92a0,0,0,0,0,0,0c-6.89-2.94-13.72-6-20.53-9.13-3.21-1.47-6.4-3-9.59-4.48-7.78-3.66-15.55-7.71-22.46-12.85a63.33,63.33,0,0,1-9.67-9.37,55.8,55.8,0,0,1-6-10.2,70.86,70.86,0,0,1-3.85-14.81,149.85,149.85,0,0,1-1-18.38,171.8,171.8,0,0,1,1.1-19.13A68.32,68.32,0,0,1,569,378.17a47.35,47.35,0,0,1,4.42-7.63,50,50,0,0,1,6.76-6.52,151.53,151.53,0,0,1,14.55-9.36c2.46-1.42,5-2.75,7.47-4.07,1.64-.85,3.33-1.6,5-2.35l5-1.88c2-.73,4.05-1.21,6.06-1.8,1.72-.5,3.48-.85,5.22-1.25,3.23-.74,6.46-1.38,9.73-1.88a68.31,68.31,0,0,1,15-.38,69.8,69.8,0,0,1,14.65,4.21,153.85,153.85,0,0,1,21.24,11.89c3.14,2,6.27,4.05,9.38,6.12,3.57,2.38,7.07,4.82,10.57,7.3a60.7,60.7,0,0,1,10.27,9.78,44.58,44.58,0,0,1,5.11,8.6,28.29,28.29,0,0,1,1.55,6.7,0,0,0,0,0,0,0c.16-1.5.29-3,.32-4.5a19.74,19.74,0,0,0-.64-4.51A42.36,42.36,0,0,0,717,376.57c-2.59-5.05-6.34-9.46-10.18-13.59s-8-8.2-12-12.21c-9.18-9-18.86-17.75-30.46-23.52a65.91,65.91,0,0,0-11.37-4.42,38.61,38.61,0,0,0-5.41-1.08,63.22,63.22,0,0,0-8.19-.71H639a79.6,79.6,0,0,0-12.83,1.31Z"/><path class="cls-1" d="M555.32,398.44a20,20,0,0,0-2.66,2.85,14.49,14.49,0,0,0-1.71,3.74,28.55,28.55,0,0,0-1.24,10.51c.28,7,2.92,13.72,6.1,19.86A118.39,118.39,0,0,0,568.39,454c2.43,3.07,5,6,7.57,8.94l3.7,4.19c.54.61,1.05,1.25,1.63,1.83q3.38,3.37,6.77,6.72c1.42,1.4,2.81,2.84,4.3,4.16q4.1,3.63,8.23,7.22,6,5.21,12,10.42c4,3.48,7.8,7.21,11.66,10.86,1.53,1.44,3,2.94,4.5,4.42,1.93,1.9,3.89,3.78,5.77,5.71,5.48,5.62,11.07,11.11,16,17.26a75.31,75.31,0,0,1,9,14.93,53.08,53.08,0,0,1,3.1,11.19,49.25,49.25,0,0,1,0,10.59,45.64,45.64,0,0,1-2.5,9.27,44.85,44.85,0,0,1-4.82,8.12,59.48,59.48,0,0,1-9,8.82,78.45,78.45,0,0,1-15.66,8.84c-15.25,6.2-31.65,8.61-47.77,11.44q-8.36,1.47-16.7,3c-5.59,1-11.21,1.89-16.82,2.82l-2.59.44-2.57.35.15,0c-2.95.39-5.89.71-8.86.82a62.29,62.29,0,0,1-7.57-.07,26.38,26.38,0,0,1-5.08-1.45,26.71,26.71,0,0,1-4.19-2.41,22.61,22.61,0,0,1-2.8-2.85c-1.06-1.44-2-3-2.95-4.49a70.22,70.22,0,0,1-3.42-6.22c-1.21-2.55-2.32-5.15-3.5-7.71-1.38-3-2.72-6-4-9-.55-1.45-1.09-2.88-1.52-4.37,0,0,0,0,0,0a75.67,75.67,0,0,0,1.56,9.1c.52,2.48,1.17,4.94,1.76,7.41a102,102,0,0,0,2.85,10.77,53.41,53.41,0,0,0,4.38,9.89,23.54,23.54,0,0,0,7.23,7.07,25.8,25.8,0,0,0,10.59,4,86.94,86.94,0,0,0,20,.48q5.23-.43,10.46-.91c6-.55,12-1.4,18.05-2.22,5.43-.73,10.85-1.6,16.26-2.49s10.54-2,15.79-3.08a147,147,0,0,0,18.76-5.17,89.88,89.88,0,0,0,21.53-10.37,73.31,73.31,0,0,0,8.67-6.94,60.72,60.72,0,0,0,7.78-9,47.71,47.71,0,0,0,5.27-9.86,46.76,46.76,0,0,0,2.92-12.37,44.2,44.2,0,0,0-.2-11.17,59.16,59.16,0,0,0-1.09-6.07,49.23,49.23,0,0,0-2-6.19A66.79,66.79,0,0,0,666,540.49a88.59,88.59,0,0,0-7.15-10c-5.32-6.68-11.67-12.47-17.79-18.4-3.48-3.37-7-6.71-10.6-10-4-3.66-8-7.39-12.18-10.89-3.86-3.23-7.71-6.46-11.62-9.62s-8.19-6.44-12.1-9.89l-7.63-6.7c-1.45-1.27-2.78-2.65-4.15-4l-6.53-6.44c-2.09-2.05-4-4.25-6-6.43-2.38-2.64-4.64-5.38-6.83-8.18a73.89,73.89,0,0,1-9.21-15.3,43.24,43.24,0,0,1-2.66-9.28,33.12,33.12,0,0,1-.06-8.65s0,.09,0,.14a23.27,23.27,0,0,1,1.25-4.68l0,.06a10.69,10.69,0,0,1,1.13-2l0,0c.5-.62,1-1.23,1.53-1.84a0,0,0,0,0,0,0Zm7.89,41.22.16.21-.16-.21Zm.25.32.08.11-.08-.11Z"/><path class="cls-1" d="M634.48,321.43a110.53,110.53,0,0,0-12.82,2.26,114.63,114.63,0,0,0-23.07,8.45c-2.69,1.29-5.3,2.79-7.94,4.18-1.85,1-3.61,2.16-5.41,3.23a107.71,107.71,0,0,0-9.52,6.38,79.28,79.28,0,0,0-24,29,68.84,68.84,0,0,0-3.64,9.15,52.87,52.87,0,0,0-1.95,9.83,40.29,40.29,0,0,0,0,9.43,51.79,51.79,0,0,0,2.35,10.94A63.53,63.53,0,0,0,557.32,431q2.89,4,6,7.86c2,2.5,4.15,4.91,6.17,7.42q4.16,5.45,8.42,10.82c2.84,4.12,5.77,8.17,8.58,12.3,4.3,6.32,8.58,12.63,13.26,18.66a80.23,80.23,0,0,0,16,15.84,52.37,52.37,0,0,0,9.26,5.27,62.93,62.93,0,0,0,11.18,3.53c4.47,1.1,9.07,1.74,13.6,2.56,2.7.49,5.44.89,8.17,1.11,0,0,0,0,0,0a72.25,72.25,0,0,1-7.86-2.21c-4.27-1.44-8.59-2.81-12.76-4.52-2.23-.95-4.44-1.91-6.59-3a43.18,43.18,0,0,1-6.19-4,62,62,0,0,1-10.06-10.27c-1.74-2.32-3.4-4.68-4.94-7.14-1.81-2.9-3.45-5.91-5.13-8.88-1.15-2-2.21-4.11-3.33-6.16-2.19-4-4.4-8-6.73-11.95q-2.27-3.83-4.57-7.64c-.87-1.45-1.93-2.8-2.92-4.18q-2.68-3.73-5.41-7.43c-2.91-3.94-6.21-7.58-9.25-11.42-1.8-2.37-3.58-4.76-5.23-7.23a57.13,57.13,0,0,1-4.44-8.18,49.21,49.21,0,0,1-2.77-9.94,45.54,45.54,0,0,1,0-9.48,52,52,0,0,1,3.09-10.94,76,76,0,0,1,8.57-14.55,78,78,0,0,1,12.46-12.33c2.25-1.68,4.55-3.27,6.91-4.78l5.45-3.48c.63-.4,1.32-.73,2-1.1l3.76-2.1c2.9-1.62,5.87-3.08,8.91-4.42a102.18,102.18,0,0,1,24.16-6.58,133.3,133.3,0,0,1,33,.57,125.53,125.53,0,0,1,30.63,8,77.13,77.13,0,0,1,15.1,8.43,47.76,47.76,0,0,1,8,7.94,63.09,63.09,0,0,1,7.2,12.79L729,370c1.37,3.27,2.65,6.57,3.89,9.89,0,0,0,0,0,0-.84-3.75-1.74-7.48-2.79-11.17A62.82,62.82,0,0,0,726,358.08a47.26,47.26,0,0,0-13.8-16.22c-12.15-9.4-26.94-15.11-41.87-18.25a129.58,129.58,0,0,0-24.69-2.84h-.91a89.16,89.16,0,0,0-10.21.67ZM624,502.14l.56.42-.56-.42Z"/><path class="cls-1" d="M563.55,465.49c7,3.84,14,7.7,20.69,12.17,7.43,5,15,9.9,22.08,15.34a103.38,103.38,0,0,1,17.51,17.32,158.71,158.71,0,0,1,19.13,33.41,120.9,120.9,0,0,1,4.53,12.74,100.31,100.31,0,0,1,2.81,13.11,75,75,0,0,1,.19,17.17,57,57,0,0,1-3.17,12,65.52,65.52,0,0,1-7.06,12.09,62.77,62.77,0,0,1-9.29,9.43,66.51,66.51,0,0,1-12.51,7.25,75.15,75.15,0,0,1-16.9,4.62,66.34,66.34,0,0,1-15.23,0,73.33,73.33,0,0,1-16.55-4.93c-3.84-1.64-7.66-3.33-11.48-5a79.56,79.56,0,0,1-8-3.95s0,0,0,0c4.7,4.32,10,7.95,15.16,11.73,6.12,4.54,12.65,8.55,19.92,11a59.77,59.77,0,0,0,23.12,2.58,68.08,68.08,0,0,0,23.93-6.5A55.09,55.09,0,0,0,651,622.39a62.69,62.69,0,0,0,6.54-9.5,61.47,61.47,0,0,0,5-12,68.3,68.3,0,0,0,2.19-23.68c-1.2-16.09-7.06-31.58-14.89-45.57a156,156,0,0,0-12.93-19.33A104.72,104.72,0,0,0,621.22,496a101.94,101.94,0,0,0-8.89-6.61c-2.46-1.64-5-3.24-7.6-4.66l-9.09-4.91c-4.21-2.26-8.46-4.48-12.8-6.46-2.63-1.2-5.24-2.48-7.93-3.54-3.77-1.47-7.55-2.93-11.35-4.31h0a0,0,0,0,0,0,0Z"/><path class="cls-1" d="M440.56,552.54c.06,4.44.45,8.86.8,13.29q.19,2.44.38,4.88c.22,2.86.59,5.69,1,8.52a50.32,50.32,0,0,0,1.82,8A58.06,58.06,0,0,0,448,595.4a51.75,51.75,0,0,0,9.39,13.31,52.81,52.81,0,0,0,13.52,9.78,67,67,0,0,0,7.72,3.3,56.15,56.15,0,0,0,5.78,1.78l7.14,1.72c1.88.44,3.79.75,5.68,1.11,1.61.31,3.22.61,4.84.89,4.69.78,9.37,1.49,14.08,2.12,3.8.5,7.61.86,11.42,1.23,2.21.21,4.45.3,6.66.45,1.48.1,2.95.19,4.42.24l8,.27c1.46,0,2.91,0,4.38,0l7.2-.05c1.91,0,3.83-.21,5.73-.33,1.64-.09,3.29-.17,4.92-.33l7.21-.71c2-.2,4-.5,6-.75,1.6-.2,3.2-.38,4.79-.64,3.21-.52,6.44-1,9.63-1.65l5.88-1.23c1.59-.33,3.17-.78,4.75-1.17,7-1.73,13.9-3.75,20.82-5.71,0,0,0,0,0,0-6.19,1.37-12.37,2.74-18.57,4.09-5,1.07-10,1.81-15,2.56-3.66.38-7.32.82-11,1l-7.19.42c-2.06.12-4.13.09-6.2.14-3.89.09-7.78-.06-11.67-.14-.55,0-1.09-.08-1.64-.12l-4.32-.31c-1.7-.12-3.41-.18-5.1-.38l-9.87-1.14c-3.6-.55-7.22-1-10.81-1.72L520,622.2c-2.2-.41-4.39-.92-6.58-1.37-7.63-1.56-15.28-3.09-22.85-4.93l-4.28-1c-1.58-.38-3.15-.89-4.7-1.39-1.77-.56-3.51-1.22-5.22-1.92a60.75,60.75,0,0,1-12.06-6.95,51.58,51.58,0,0,1-8.44-8.37,63.4,63.4,0,0,1-7.76-13c-2.64-6.62-4-13.68-5.57-20.61-.76-3.35-1.49-6.71-2-10.11h0ZM448,582.85l.07.16-.07-.16Z"/><path class="cls-1" d="M626.42,333.91a139.77,139.77,0,0,0-23.27,3.19,122,122,0,0,0-22.56,7.69,99.58,99.58,0,0,0-19.48,11.41,97.3,97.3,0,0,0-8.64,7.29,77.57,77.57,0,0,0-8.06,9.32,114.46,114.46,0,0,0-18.78,42.31,85.67,85.67,0,0,0-1.42,12.59,74,74,0,0,0,.91,13.53,50.77,50.77,0,0,0,8.88,22,75.72,75.72,0,0,0,17.72,17.28c6.36,4.62,13.53,8,20.61,11.33,2.43,1.14,4.89,2.24,7.29,3.45l8.79,4.45c2.49,1.26,4.88,2.76,7.24,4.23,2.69,1.68,5.29,3.52,7.83,5.44A103.76,103.76,0,0,1,620,525.64a76.45,76.45,0,0,1,8.4,14.13,83.42,83.42,0,0,1,4.79,18.36,101.46,101.46,0,0,1,.14,23.43,67.7,67.7,0,0,1-3.71,14.18,43.06,43.06,0,0,1-3.87,6.76,35.12,35.12,0,0,1-4.19,4.24,46.82,46.82,0,0,1-7.94,4.48,126.45,126.45,0,0,1-28.74,7.2,141.13,141.13,0,0,1-21,1.27c-4.29-.1-8.58-.19-12.86-.23-3.12,0-6.25-.36-9.37-.53l-5.39-.29c-3.51-.18-7-.61-10.54-1.07a138,138,0,0,1-33.47-8.69q-6.39-2.74-12.53-6a95.38,95.38,0,0,1-12.55-7.92,53.25,53.25,0,0,1-8.58-8.85,17.7,17.7,0,0,1-1.26-1.91,9.33,9.33,0,0,1-.33-1h.47c.5.25,1,.55,1.45.83a0,0,0,0,0,0,0c-.22-.18-.65-.59-.86-.74-.7-.48-.38-.34-1.32-.46a.2.2,0,0,0-.2.2c.07.64.1.79.22,1.43a9.31,9.31,0,0,0,.65,1.55,38.21,38.21,0,0,0,2.53,4.32,49.52,49.52,0,0,0,6.5,8.1,91.48,91.48,0,0,0,8,6.94c3,2.4,6.15,4.64,9.35,6.79a121.54,121.54,0,0,0,20,10.95,137.52,137.52,0,0,0,22.91,7.44c7.72,1.8,15.59,2.72,23.44,3.76.57.08,1.16.09,1.73.13l5.62.36c3.2.19,6.41.4,9.61.45a166.35,166.35,0,0,0,23.74-1.37,147,147,0,0,0,24.12-4.95A82.17,82.17,0,0,0,626,624.51a44,44,0,0,0,10.51-7.15,42.24,42.24,0,0,0,7.31-9,55,55,0,0,0,5.39-12.2,63.91,63.91,0,0,0,2.37-10.82,97.51,97.51,0,0,0,1-13.66,99.72,99.72,0,0,0-.7-11.17,121.85,121.85,0,0,0-2.29-13.53,75.58,75.58,0,0,0-3.32-10.6,84.06,84.06,0,0,0-5.54-11.62,94.59,94.59,0,0,0-14.34-18.31,120.11,120.11,0,0,0-13.08-11.3,124.62,124.62,0,0,0-13.59-9c-3.89-2.23-8-4.14-12-6.14-3.32-1.66-6.75-3.07-10.09-4.69L571,472a76.71,76.71,0,0,1-12.09-7.48,71,71,0,0,1-10.56-10.28,48.2,48.2,0,0,1-4.93-8.3,55.55,55.55,0,0,1-2.93-11.1,73.74,73.74,0,0,1,.07-16.73A97.51,97.51,0,0,1,546.9,396c1.43-3.3,3-6.56,4.7-9.71a79.27,79.27,0,0,1,5.93-9.11,85.18,85.18,0,0,1,13.86-13.39,129.53,129.53,0,0,1,26.87-15.51,139.23,139.23,0,0,1,19.69-6.48c3.38-.83,6.8-1.48,10.21-2.1s6.94-1.24,10.43-1.73a119,119,0,0,1,14-1c3.25,0,6.5.21,9.75.37,3.56.17,7.13.34,10.67.8,0,0,0,0,0,0-2.62-.65-5.28-1.16-7.93-1.63-5.09-.89-10.17-1.87-15.32-2.43a105.85,105.85,0,0,0-11.47-.57c-3.95,0-7.89.17-11.84.38ZM457.28,584.21v0Z"/><path class="cls-1" d="M628.66,333.16a97,97,0,0,0-24,5.16c-4,1.35-7.87,3-11.7,4.71s-7.59,3.62-11.25,5.68a114.05,114.05,0,0,0-20,14.2,57.68,57.68,0,0,0-7.93,8.38,45.76,45.76,0,0,0-3.11,4.71,18.91,18.91,0,0,0-2,4.66s0,0,0,0c.21-.46.42-.91.68-1.35a20.39,20.39,0,0,1,1.67-2.3l-.06.08a51.12,51.12,0,0,1,8.43-8.22c9.81-7.48,20.86-13.26,32.17-18.11S614.71,342,627,340.31a82.33,82.33,0,0,1,8.42-.67,55.52,55.52,0,0,1,8.24.49,64.76,64.76,0,0,1,7.48,1.56,62.76,62.76,0,0,1,7.41,2.61c1.89.81,3.74,1.68,5.56,2.64,2.14,1.13,4.2,2.42,6.25,3.72,3.94,2.51,7.68,5.24,11.39,8.07,7.79,6.3,15.56,12.65,23.06,19.3a0,0,0,0,0,0,0q-9.08-9.74-18.63-19c-2.51-2.45-5.08-4.84-7.74-7.13-2.12-1.83-4.34-3.54-6.58-5.22a76.07,76.07,0,0,0-7.87-5.25A65.13,65.13,0,0,0,647,334.55,57.44,57.44,0,0,0,633.47,333q-2.41,0-4.81.18ZM592.24,350.5l-.56.24.56-.24Z"/><path class="cls-1" d="M630.72,331.63a70.59,70.59,0,0,0-20.76,7,56.44,56.44,0,0,0-8.75,5.87c-3.2,2.51-6.3,5.15-9.32,7.86-2.81,2.52-5.54,5.15-8.11,7.92a81.72,81.72,0,0,0-7,8.93c-8.79,12.55-15.75,27.52-14.34,43.2a43.67,43.67,0,0,0,2.32,10.74,60.1,60.1,0,0,0,5,10.6A127.94,127.94,0,0,0,583.52,452a157.22,157.22,0,0,0,26.67,23.76c5,3.64,10.15,7.09,15.27,10.57,8.38,5.71,16.87,11.27,25,17.42a123.34,123.34,0,0,1,20.74,20.13,99.32,99.32,0,0,1,11.59,19.91,101,101,0,0,1,6.37,22.78,75.57,75.57,0,0,1,.34,16.82,53.87,53.87,0,0,1-3,10.83,65.28,65.28,0,0,1-6.76,11.46,71.38,71.38,0,0,1-10.76,10.74,86.17,86.17,0,0,1-16.27,9.39,122.05,122.05,0,0,1-28.32,7.12c-4.16.53-8.35,1-12.53,1.19l-10,.54c-4.82.26-9.65.32-14.48.42-2,0-3.94.15-5.9.12l-8-.14-8.32-.14c-2.39,0-4.79-.27-7.18-.44-3.52-.26-7-.63-10.53-1.07-4.71-.66-9.4-1.46-14.06-2.46-4.91-1.05-9.75-2.4-14.57-3.8a279.37,279.37,0,0,1-28.62-9.64c-4.85-2.09-9.6-4.37-14.33-6.72q-3.6-1.79-7.09-3.82a75.39,75.39,0,0,1-7.15-4.88c-7-5.47-13.6-11.43-20.28-17.28-5.78-5.05-11.69-10-17.25-15.3,0,0,0,0,0,0,3.2,4.61,6.64,9.05,10,13.51q5.44,7.15,11,14.25c2.15,2.77,4.31,5.49,6.56,8.18,2.38,2.84,4.84,5.61,7.49,8.2a91.13,91.13,0,0,0,9.47,7.8A150,150,0,0,0,488,633.81c3.76,2,7.68,3.68,11.6,5.32s7.71,3.09,11.64,4.45c15.63,5.43,32.1,8.11,48.57,9.27,7,.5,14,.46,21,.58,2,0,4,0,6-.08l10.54-.18c2.09,0,4.17-.18,6.25-.29l9.84-.48c3-.14,5.92-.49,8.86-.8,4.69-.51,9.37-1.19,14-2a104.34,104.34,0,0,0,22.35-6.41,110.19,110.19,0,0,0,11.05-5.28,84.68,84.68,0,0,0,10.73-7.25,71.48,71.48,0,0,0,7.75-6.91,79.25,79.25,0,0,0,8.11-10.12,61.56,61.56,0,0,0,5.32-9.57,60.88,60.88,0,0,0,4.28-12.86A62.55,62.55,0,0,0,707.11,579a83.63,83.63,0,0,0-1.27-13.27,93.78,93.78,0,0,0-6.45-21.93A103,103,0,0,0,675.13,508a166.29,166.29,0,0,0-15.53-13c-6.23-4.74-12.86-8.93-19.43-13.19l-10.72-6.94c-6.86-4.44-13.73-8.85-20.24-13.79a156,156,0,0,1-13.68-11.88,145.73,145.73,0,0,1-12.26-13.75c-1.67-2.2-3.29-4.46-4.81-6.77a57,57,0,0,1-4.33-8,43.14,43.14,0,0,1-2.52-9.13,49.66,49.66,0,0,1,.11-11.49,69.13,69.13,0,0,1,4.39-15.38c1.58-3.62,3.34-7.14,5.26-10.59A88.44,88.44,0,0,1,588,363.82a130.49,130.49,0,0,1,9.15-10.26,115.91,115.91,0,0,1,10.7-9.86,60.48,60.48,0,0,1,12.24-7,85.63,85.63,0,0,1,21.36-5.46h0q6.1-.8,12.2-1.55a0,0,0,1,0,0,0c-7.66.4-15.35.68-22.93,1.95Zm10.68-.37h0Z"/><path class="cls-1" d="M629.31,313.22a54.5,54.5,0,0,0-8.47.83,60.65,60.65,0,0,0-8.19,1.93,77.11,77.11,0,0,0-7.83,3c-2.56,1.09-5.07,2.31-7.54,3.61-9.79,5.16-18.63,11.93-27.11,19a156.09,156.09,0,0,0-12.24,11,91.5,91.5,0,0,0-10.35,12.5,48,48,0,0,0-3.66,6.63,60.53,60.53,0,0,0-3.15,8.35,62.12,62.12,0,0,0-2,17,72.45,72.45,0,0,0,.83,8.61,63.68,63.68,0,0,0,1.8,8.32,91.71,91.71,0,0,0,6,15.48,86.94,86.94,0,0,0,19.24,26.2c1.9,1.73,3.93,3.32,6,4.9,1,.8,2,1.6,3.09,2.37l6.15,4.51c1.35,1,2.68,2.05,4.07,3l4.55,3.05c3,2,6,4.08,9.05,6,3.86,2.39,7.71,4.8,11.6,7.14,6.55,3.95,13.18,7.79,19.29,12.42a91.62,91.62,0,0,1,7.78,6.77,80.6,80.6,0,0,1,7.06,8,81.85,81.85,0,0,1,9.86,16.53,59.23,59.23,0,0,1,4,14.17,57.28,57.28,0,0,1,.44,7.52,62.73,62.73,0,0,1-.59,7.48,74.53,74.53,0,0,1-5.36,19.09,123.88,123.88,0,0,1-7.28,14.07,129.61,129.61,0,0,1-8.78,12.94l.09-.12A66.91,66.91,0,0,1,626.29,617h0a41.74,41.74,0,0,1-3.51,2.45c-1.21.75-2.48,1.42-3.75,2.09-2.63,1.39-5.24,2.83-7.85,4.26,0,0,0,0,0,0,2.34-1.09,4.66-2.21,7-3.29a59.79,59.79,0,0,0,7.07-3.63,58.38,58.38,0,0,0,11.39-9.72c1.64-1.76,3.15-3.64,4.62-5.55,1.74-2.26,3.44-4.54,5.05-6.9a126.68,126.68,0,0,0,8.53-14.37,76.6,76.6,0,0,0,8.52-31.53,56.43,56.43,0,0,0-1.85-16,71.34,71.34,0,0,0-6.12-15.16,91.72,91.72,0,0,0-8.93-13.73,82.28,82.28,0,0,0-11.15-11.59A151.19,151.19,0,0,0,618,482L608.82,476c-3.06-2-6.14-3.95-9.14-6L593,465.36c-1.08-.75-2.19-1.48-3.24-2.27l-9.88-7.44c-2.76-2.22-5.52-4.43-8.08-6.89a77.52,77.52,0,0,1-7-7.75,92.9,92.9,0,0,1-11-19.11,76.91,76.91,0,0,1-5.07-18,68.27,68.27,0,0,1-.49-7.48,55,55,0,0,1,.44-7A51.4,51.4,0,0,1,551.9,378a52.88,52.88,0,0,1,6-10.32,108.64,108.64,0,0,1,12.3-13c2.29-2.07,4.65-4,7-6s4.71-3.89,7.12-5.77a121.64,121.64,0,0,1,25.27-15.19,67.72,67.72,0,0,1,6.9-2.43,59.16,59.16,0,0,1,7.63-1.6,54.3,54.3,0,0,1,5.78-.39,46,46,0,0,1,5.83.35A61.82,61.82,0,0,1,650,327.54c2.25,1,4.46,2.06,6.64,3.18,2.52,1.29,4.92,2.78,7.3,4.31s4.86,3.17,7.25,4.81c3.32,2.28,6.65,4.55,10,6.79s6.62,4.47,10,6.62c3.13,2,6.33,3.91,9.4,6l6.4,4.34c.92.62,1.78,1.34,2.66,2l2.82,2.13c3.22,2.49,6.46,5,9.48,7.69a0,0,0,1,0,0,0c-2.62-3.13-5.48-6-8.32-9-1.48-1.52-3-3-4.5-4.5-1.2-1.19-2.49-2.29-3.74-3.41s-2.4-2.21-3.66-3.24l-5.8-4.79c-3-2.47-6-5-9-7.46q-4.24-3.52-8.49-7l-4.31-3.54c-2-1.6-4-3.11-6-4.64a79.92,79.92,0,0,0-7-4.81,71.48,71.48,0,0,0-15.28-7.15,57.31,57.31,0,0,0-7.57-1.81,52.91,52.91,0,0,0-8.93-.81Zm25.58,216.66.18.44-.18-.44Zm4,29.9,0,.14,0-.14Zm-21.44,45.94,0-.05,0,.05Z"/><path class="cls-1" d="M657.6,333.43a107.72,107.72,0,0,0-21,3.56,109.46,109.46,0,0,0-19.47,7.11,71.91,71.91,0,0,0-16.29,10.79,68.17,68.17,0,0,0-6.95,7.14c-1.09,1.27-2.14,2.59-3.18,3.91s-2,2.81-3,4.25a0,0,0,0,0,0,0c1-1.15,1.9-2.32,2.93-3.42s2-2.1,3.07-3.13a80.23,80.23,0,0,1,7-6.27l0,0a76.2,76.2,0,0,1,16.23-9.53,124.73,124.73,0,0,1,30.47-8,97.93,97.93,0,0,1,25-.11,88.84,88.84,0,0,1,21,5.77,81.77,81.77,0,0,1,7.66,3.76,64,64,0,0,1,7.38,4.89,77.82,77.82,0,0,1,7,6.12,76.84,76.84,0,0,1,6.38,7.35c1.69,2.26,3.21,4.63,4.69,7a60.6,60.6,0,0,1,4,7.36,44.35,44.35,0,0,1,2.09,6.33c.3,1.19.58,2.39.87,3.58.37,1.57.67,3.16.93,4.75h0c.05.41.1.81.14,1.22a0,0,0,0,0,0,0,46.46,46.46,0,0,0-.27-5.8c-.12-1.09-.23-2.19-.36-3.28s-.27-2.25-.45-3.36a36.09,36.09,0,0,0-1-4.1,46.71,46.71,0,0,0-2.54-6.57c-1.16-2.56-2.45-5.07-3.85-7.51a63.73,63.73,0,0,0-4.28-6.36,61.62,61.62,0,0,0-5.29-6.21,67.56,67.56,0,0,0-12.15-9.87A75.12,75.12,0,0,0,689.94,338a77,77,0,0,0-15.86-4,78.68,78.68,0,0,0-11-.74q-2.73,0-5.47.16Zm14.26,6.26.29,0-.29,0ZM617,347.82l-.15.06.15-.06Zm-.15.07-.25.1.25-.1Zm91.58,6.39.29.22-.29-.22Zm-107.84,3.16-.12.09.12-.09ZM730.35,382l0,.08,0-.08Zm0,.11.06.14-.06-.14Z"/><path class="cls-1" d="M635.2,335.93a105.16,105.16,0,0,0-28.63,8.36,96.24,96.24,0,0,0-34.16,26.15A88.78,88.78,0,0,0,564,382.29a84.36,84.36,0,0,0-6.07,13,82.59,82.59,0,0,0-3.72,14c-.9,4.81-1.66,9.65-2.22,14.52-.36,3.12-.69,6.26-1,9.39-.41,3.66-.84,7.33-1.2,11-.29,3-.59,5.91-.71,8.88,0,0,0,0,0,0,.07-.63.14-1.26.22-1.9h0c.84-5.43,1.84-10.83,2.86-16.23,1-5.21,1.84-10.44,2.94-15.62.77-3.64,1.67-7.28,2.61-10.88a83.49,83.49,0,0,1,3.65-10.95,85.42,85.42,0,0,1,10.52-18.06,107.45,107.45,0,0,1,18.36-18.26,105.11,105.11,0,0,1,22.09-13,127.69,127.69,0,0,1,12.57-4.45,98.84,98.84,0,0,1,13.84-3.1,70.61,70.61,0,0,1,17.9.08h0a127.42,127.42,0,0,1,17.89,4c3.05.89,6.08,1.86,9.12,2.8s6.13,2,9.2,3.06a0,0,0,0,0,0,0c-2.18-1.05-4.35-2.14-6.55-3.16s-4.71-2.11-7.08-3.14a131.81,131.81,0,0,0-13.68-5.21,82.57,82.57,0,0,0-15-3.23,57.28,57.28,0,0,0-6.46-.36,64.19,64.19,0,0,0-8.9.63Zm3.42,4.63-.34,0,.34,0ZM549.3,451.13a.06.06,0,0,0,0,0v0Z"/></g></g></svg>