<svg xmlns="http://www.w3.org/2000/svg" viewBox="0 0 1550.88 1564.07"><defs><style>.cls-1{fill:#fff;}</style></defs><title>wsl-logo</title><g id="Layer_2" data-name="Layer 2"><g id="Draw_Layer" data-name="Draw Layer"><path class="cls-1" d="M716.77,1.74a762.25,762.25,0,0,0-137.19,21C556.11,28.57,533,35.52,510.14,43.47c-22.18,7.73-44,16.62-65.34,26.34A769.46,769.46,0,0,0,321,141a684.56,684.56,0,0,0-54.08,42.21A634.17,634.17,0,0,0,215.79,233a619.54,619.54,0,0,0-52.91,66.5s0,0,0,0c22.11-25.84,45.61-50.48,70.15-74,11.61-11.15,23.57-21.93,35.73-32.47q19-16.46,38.85-31.88Q326.43,146.7,346,133.3c13.32-9.1,27-17.68,40.85-25.89a753.94,753.94,0,0,1,89.82-45.13l-.25.1.45-.19.23-.1-.13.06q22.53-9.41,45.61-17.4C538.2,39.31,554.06,34.49,570,30.1c15.25-4.19,30.69-7.74,46.18-10.92,16.42-3.37,33-6.11,49.58-8.38l-.13,0A772.49,772.49,0,0,1,871,10.89l-.4-.05Q894.94,14.17,919,19c16.6,3.32,33,7.32,49.37,11.8a755.12,755.12,0,0,1,91.08,31.53h0l.14.06-.06,0q21.44,9,42.3,19.32c14.68,7.23,29.1,15,43.28,23.18a762.85,762.85,0,0,1,83.8,56.19q19.83,15.36,38.68,31.93c12.23,10.75,24.07,22,35.59,33.46a766.08,766.08,0,0,1,64.37,73.32q15.29,19.93,29.31,40.77c9.06,13.46,17.62,27.27,25.8,41.29a758.33,758.33,0,0,1,42.56,85.1l-.12-.28q9.57,22.7,17.73,45.95c5.47,15.59,10.35,31.4,14.78,47.32a757,757,0,0,1,20.63,101v-.06q3,22.52,4.68,45.18c1.27,16.86,1.89,33.77,2,50.67a766.92,766.92,0,0,1-6.57,106.3v-.07q-3.29,24.4-8.05,48.56c-3.34,16.87-7.34,33.6-11.81,50.2a754.07,754.07,0,0,1-33.31,96.35l.12-.28q-9.45,22.19-20.2,43.77c-7.12,14.29-14.77,28.31-22.78,42.12a747.45,747.45,0,0,1-54.6,81.14l.14-.18q-14.55,18.75-30.17,36.61c-10.52,12-21.51,23.67-32.8,35a774.06,774.06,0,0,1-74.34,65.41l.08-.06q-19.18,14.76-39.21,28.34c-14.07,9.55-28.52,18.55-43.18,27.18a758.74,758.74,0,0,1-88.19,44.22l.36-.16q-22.2,9.32-44.91,17.31c-16.2,5.69-32.62,10.73-49.17,15.31a756.28,756.28,0,0,1-98.69,20.1l.57-.07q-24.54,3.26-49.23,5c-17.69,1.26-35.43,1.8-53.17,1.92-8,.05-15.93-.14-23.89-.37-8.89-.26-17.78-.72-26.66-1.29-17.5-1.11-35-2.94-52.34-5.25q-24.3-3.36-48.36-8.21c-16.94-3.41-33.73-7.51-50.39-12.08a758.2,758.2,0,0,1-93.65-32.61q-22.07-9.41-43.55-20.12c-15.11-7.54-29.93-15.66-44.51-24.19a761.87,761.87,0,0,1-80.78-54.67l.05,0a772.18,772.18,0,0,1-136.21-136.48l.32.43q-15.31-19.84-29.36-40.58c-9.24-13.63-18-27.6-26.35-41.77a756.9,756.9,0,0,1-45-89.63l.15.36q-9-21.45-16.75-43.38-8.26-23.39-14.82-47.33a755.22,755.22,0,0,1-20.07-98.36Q10.27,839.82,8.5,814.3C7.31,797,6.79,779.74,6.76,762.44a785.66,785.66,0,0,1,7.11-104.9l0,.29q4.64-34,12.07-67.53c5.1-23,11.35-45.65,18.49-68.05,0,0,0,0,0,0q-11.47,33.39-19.79,67.7C19,613.07,14.63,636.52,11.33,660.1A764.39,764.39,0,0,0,25.25,940c5.31,22.41,11.76,44.57,19,66.42,6.92,20.88,14.88,41.4,23.59,61.59,9,20.77,19,41.09,29.75,61s22.72,39.48,35.39,58.41a761.11,761.11,0,0,0,86.16,106.3A773.72,773.72,0,0,0,324,1383.57,757.09,757.09,0,0,0,718.28,1523.3c11.86.76,23.75,1.17,35.63,1.38q19.35.34,38.7-.29c24.35-.79,48.64-2.88,72.79-6a753.53,753.53,0,0,0,381-164.49,777.38,777.38,0,0,0,179.43-211.58,756.19,756.19,0,0,0,92.81-264.47,767.37,767.37,0,0,0-8.11-275.21,757,757,0,0,0-95-237.46A766.12,766.12,0,0,0,1120.06,88.3,758.39,758.39,0,0,0,995.67,36.24c-22.21-7.09-44.79-13-67.54-18.06S882.54,9.28,859.5,6.32c-24-3.07-48.14-4.87-72.32-5.67Q775.82.27,764.45.27c-15.91,0-31.82.53-47.69,1.47Zm343.7,1459.35.16-.07-.16.07Zm457.89-597.92,0-.24c0,.08,0,.16,0,.24Zm-.13-202.38,0-.25c0,.08,0,.17,0,.25ZM1059.53,62.34l-.08,0h0l.08,0Zm-582.69-.15-.2.08.3-.13-.1,0Z"/><path class="cls-1" d="M132.23,342.33Q115.73,363.14,101,385.26a531.52,531.52,0,0,0-28,47.36c-8.5,16.24-16,32.95-22.9,49.93C43.18,499.71,37.36,517.3,32,535A768.62,768.62,0,0,0,0,752.12v2.27c.14,1.14.31,2.28.51,3.41.25,1.62.52,3.24.79,4.86A788.1,788.1,0,0,0,10,875.57c2.77,18.55,6.49,37,10.75,55.21,4.23,18.09,9.2,36,14.75,53.73A775.59,775.59,0,0,0,75.25,1085.6c7.83,16.46,16.33,32.6,25.32,48.46s18.68,31.7,28.81,47.05A784.52,784.52,0,0,0,195,1266.77a764.55,764.55,0,0,0,260,191.61,751.45,751.45,0,0,0,102.11,37.14,759.58,759.58,0,0,0,108.61,22.3,771.07,771.07,0,0,0,113,6.32,718.38,718.38,0,0,0,110.79-10.52c23.77-4.09,47.3-9.52,70.54-16,0,0,0,0,0,0a814,814,0,0,1-86.6,16.47l.28,0a835.24,835.24,0,0,1-103.63,7.15,762.3,762.3,0,0,1-104.42-6.65h.09a772.25,772.25,0,0,1-99.13-20,761.93,761.93,0,0,1-95.93-33.21A781.12,781.12,0,0,1,383,1417.22a756.47,756.47,0,0,1-81.13-54.77l.12.1a770.16,770.16,0,0,1-136.73-136.64l.24.31a780.62,780.62,0,0,1-53.2-78.66,728.83,728.83,0,0,1-42.9-85.72l0,0Q60,1039.54,52,1016.65c-5.61-16-10.52-32.3-15-48.68A795.05,795.05,0,0,1,16.67,866.74v0a782.18,782.18,0,0,1-6.8-104.1l.5-2.94c.11-.64.23-1.28.34-1.92q.34-1.7.54-3.41.15-6.79.4-13.57c.3-8.25.77-16.49,1.34-24.72,1.1-15.91,2.75-31.78,4.84-47.59A768.54,768.54,0,0,1,41.41,557.86c5.35-18.37,11.58-36.44,18.2-54.38s13.64-35.73,21-53.36l-.75,1.77c15.75-37.3,33-74,52.35-109.53a0,0,0,0,0,0,0Zm169.6,1020.12-.21-.16.21.16Z"/><path class="cls-1" d="M739.83.15c-22,.39-43.9,1.95-65.74,4.31C663.46,5.61,652.85,7,642.27,8.62c-11.15,1.67-22.25,3.71-33.33,5.8-10.13,1.9-20.21,4.06-30.24,6.37C573.27,22,567.91,23.54,562.55,25s-10.68,3-16,4.54C525.39,35.72,504.55,43,484,51c-19.17,7.5-38,15.88-56.51,24.84a621.36,621.36,0,0,0-59,32.62C330.93,132,296.24,160,264.57,191a0,0,0,1,0,0,0l4.64-3.6-.07.05q23.44-18.06,47.91-34.7c16.88-11.49,34.16-22.42,51.68-32.92,16.83-10.1,34-19.61,51.38-28.76,17.83-9.4,36.1-17.95,54.64-25.85q22.39-9.4,45.32-17.43c16.54-5.79,33.31-10.92,50.22-15.54,3.58-1,7.17-1.91,10.76-2.84,4.52-1.16,9-2.39,13.55-3.54q12.25-3.11,24.62-5.72c17.51-3.68,35.16-6.64,52.88-9.06l-.86.11Q695.4,8,719.7,6.23c17.26-1.25,34.59-2.06,51.9-2a790.4,790.4,0,0,1,101,7.26l-.22,0q23.64,3.25,47,7.89C935.73,22.6,952,26.48,968.06,30.8a726.73,726.73,0,0,1,91.77,31.64l-.29-.12q22.92,9.68,45.19,20.76c14.73,7.33,29.19,15.23,43.41,23.51a761.23,761.23,0,0,1,81.26,54.8q17.28,13.4,33.81,27.71c5.51,4.76,10.93,9.65,16.3,14.57,6.21,5.69,12.23,11.6,18.21,17.54,11.33,11.26,22.25,22.93,32.86,34.88s20.52,24.14,30.22,36.67q16,20.83,30.74,42.56c9.81,14.35,19,29.09,27.84,44.07,4.18,7.12,8.2,14.32,12.14,21.57,4.42,8.11,8.79,16.23,13,24.46,8,15.65,15.33,31.62,22.2,47.79q9.11,21.7,16.93,43.88c5.57,15.81,10.48,31.86,15,48,4.26,15.37,8,30.91,11.23,46.53,3.49,16.59,6.28,33.29,8.54,50.08v0q3.16,24.17,4.86,48.49c1.22,17.4,1.73,34.83,1.77,52.26a767.08,767.08,0,0,1-6.65,100.93l0-.31q-3.4,25.25-8.4,50.24c-3.32,16.57-7.28,33-11.7,49.31a754.08,754.08,0,0,1-32.4,93.84h0l0,.09,0-.05q-9.5,22.43-20.34,44.25c-7.25,14.59-15,28.89-23.22,43a762.65,762.65,0,0,1-56.26,83.39l.18-.24q-14.92,19.17-31,37.41c-10.48,11.91-21.38,23.44-32.57,34.67a764.51,764.51,0,0,1-73.38,64.6q-18.89,14.55-38.61,27.94c-14,9.54-28.45,18.53-43.09,27.13a796.83,796.83,0,0,1-92.34,46.32l.16-.06q-29.92,12.57-60.75,22.75s0,0,0,0q33.68-10.29,66.28-23.66c20.28-8.33,40.14-17.67,59.58-27.79,19.85-10.34,39.13-21.72,57.94-33.83q27-17.41,52.48-37.16,26.13-20.27,50.5-42.64c16.23-14.9,31.73-30.57,46.62-46.81a762.38,762.38,0,0,0,142.09-223.64,754.82,754.82,0,0,0,40.89-132.66,767.64,767.64,0,0,0,6.69-277.78q-2.66-16.83-5.94-33.53c-2.38-12-5.11-23.89-8.06-35.74-5.63-22.61-12.46-44.91-20.12-66.92-7.4-21.25-15.87-42.13-25.12-62.64-4.57-10.12-9.41-20.11-14.41-30-2.5-4.94-5.08-9.85-7.68-14.73-3-5.66-6.25-11.22-9.47-16.77-11.45-19.79-23.91-39-37.1-57.68-6-8.53-12.37-16.82-18.81-25-7.49-9.56-15.26-18.89-23.21-28.07a821.73,821.73,0,0,0-99.73-97.17A761.89,761.89,0,0,0,1013.77,42.26Q981,30.89,947.36,22.44c-22.58-5.7-45.44-10.22-68.44-13.81-22.4-3.49-45-5.77-67.59-7.17C800,.76,788.65.37,777.3.17c-5.74-.1-11.49-.1-17.23-.15l-4.88,0c-5.12,0-10.24.06-15.36.15Zm726.68,472.58.09.2-.09-.2Zm-.64,583.74v0h0v0Z"/><path class="cls-1" d="M758.78,11.39c-21.43.38-42.81,1.83-64.14,4-19.86,2-39.65,4.84-59.3,8.37a764.46,764.46,0,0,0-82.26,19.69A727.09,727.09,0,0,0,474,71.91q-19.46,8.32-38.36,17.84c-12.64,6.36-25,13.24-37.16,20.48a643.54,643.54,0,0,0-66.2,45.45s0,0,0,0A975.41,975.41,0,0,1,475.41,80.2c15.16-6.32,30.44-12.3,45.92-17.78,16-5.67,32.27-10.7,48.65-15.26A751.54,751.54,0,0,1,668.39,27l-.6.08.89-.12.25,0-.16,0q24.36-3.24,48.86-4.92c17.14-1.17,34.32-1.7,51.49-1.73q25.06-.06,50.08,1.5c17.05,1,34.07,2.77,51,5a788.32,788.32,0,0,1,99,20c15.86,4.26,31.53,9.22,47,14.58,16.53,5.7,32.83,12,48.94,18.76l-1.23-.51q23.24,9.85,45.79,21.15c15,7.49,29.64,15.56,44.09,24a773.24,773.24,0,0,1,81.4,55.07,784,784,0,0,1,71.95,63.44,764.88,764.88,0,0,1,64.49,73.32h0q14.44,18.81,27.74,38.44c9.22,13.59,17.92,27.52,26.23,41.68a751.62,751.62,0,0,1,43.86,87.65,777.35,777.35,0,0,1,31.94,92.46,747.23,747.23,0,0,1,20,97.75c0-.35-.09-.69-.13-1q3.3,24.7,5.06,49.56c1.25,17.63,1.8,35.31,1.84,53a756.71,756.71,0,0,1-26.63,201.41,753.07,753.07,0,0,1-32.66,94.68l.31-.71q-10.14,24-21.84,47.22c-7.76,15.42-16.12,30.52-24.92,45.37s-18.08,29.27-27.73,43.49-19.73,28-30.21,41.6l.29-.37a823.94,823.94,0,0,1-63.88,73,0,0,0,1,0,0,0,730.88,730.88,0,0,0,79.85-87.31q17.92-23.2,33.91-47.78c10.65-16.43,20.55-33.35,29.88-50.56A765.14,765.14,0,0,0,1492,1029.46,749.5,749.5,0,0,0,1523.27,913a761.62,761.62,0,0,0-67.89-479.25C1419.21,361,1371,294.32,1313.91,236.53a774.63,774.63,0,0,0-90.9-78.47A752.14,752.14,0,0,0,1002.54,46.29c-19.6-6.15-39.46-11.46-59.46-16.07-20.27-4.68-40.76-8.3-61.35-11.25a771.81,771.81,0,0,0-108.92-7.71q-7,0-14,.13ZM475.33,80.23l-.39.16.39-.16Zm759,98.86.92.71-.92-.71ZM668.68,27l-.29,0,.37-.05Z"/><path class="cls-1" d="M83.26,453.22A604.21,604.21,0,0,0,38.31,559.65C26.67,597,18.86,635.47,13.73,674.21q-3.89,29.38-5.58,59c-1.07,19.27-1.29,38.57-1,57.86A779.17,779.17,0,0,0,18.23,908.27,766.11,766.11,0,0,0,47,1022.82c6.08,18.23,13,36.18,20.54,53.87s15.75,35.29,24.57,52.48a797.55,797.55,0,0,0,60.31,98.63q16.57,23.22,34.9,45.13c12.3,14.71,25.28,28.81,38.53,42.66q20.57,21.5,42.92,41.16c14.64,12.94,29.88,25.16,45.51,36.89A764.39,764.39,0,0,0,518.9,1503.5a717.15,717.15,0,0,0,112.36,30.08A794.1,794.1,0,0,0,748,1546.14a737.89,737.89,0,0,0,118.15-5.33q29.62-3.76,58.89-9.74c9.21-1.88,18.4-3.78,27.55-5.89,9.86-2.28,19.66-4.79,29.42-7.47,18.9-5.17,37.55-11.21,56-17.87s36.77-14.18,54.61-22.56c28-13.17,54.55-29.39,79.8-47.29a732.68,732.68,0,0,0,70.33-57.22s0,0,0,0a827.39,827.39,0,0,1-85.2,50c-14.46,7.43-29.12,14.5-43.85,21.39q-23,10.77-46.47,20.73l-8.12,3.43a785.42,785.42,0,0,1-89.33,31.19c-15,4.25-30.18,8-45.42,11.28-16.15,3.51-32.55,6.07-48.91,8.31a824.17,824.17,0,0,1-101.3,7.05,750.89,750.89,0,0,1-102.55-6.39,797.59,797.59,0,0,1-98.46-20,759.83,759.83,0,0,1-96.41-33A791.2,791.2,0,0,1,391.17,1424,743.91,743.91,0,0,1,310.6,1370a861.28,861.28,0,0,1-76-66.48c-11.43-11.28-22.33-23.13-32.93-35.19q-16.44-18.7-31.71-38.39A729.77,729.77,0,0,1,75,1067.34a791,791,0,0,1-32.2-92.56,740.34,740.34,0,0,1-20.22-98.27,754.83,754.83,0,0,1,0-201.51q3.79-27.82,9.63-55.24,6.2-29.16,14.26-57.86A1041.25,1041.25,0,0,1,83.29,453.24s0,0,0,0ZM877,1518.89l-1.35.18,1.35-.18Zm-204.2,1,.72.1-.72-.1Z"/><path class="cls-1" d="M239.82,246.59q-6.21,6.07-12.18,12.38c-4,4.28-8,8.69-11.83,13.14,0,0,0,0,0,0q5.93-6.34,11.89-12.65c4-4.29,8.07-8.59,12.12-12.86a0,0,0,0,0,0,0Z"/><path class="cls-1" d="M764.06,16.89A762,762,0,0,0,624,33.12c-23.57,5-46.86,11.23-69.84,18.47q-34.94,11-68.73,25.22c-20.77,8.75-41.13,18.58-61,29.28-21.09,11.37-41.43,24.09-61.34,37.4a703.24,703.24,0,0,0-76.33,59.26,0,0,0,0,0,0,0q9.84-8.09,19.9-15.89l-.1.07a811.76,811.76,0,0,1,88-59.39,828.82,828.82,0,0,1,92.65-46Q510.06,72,533.45,63.8c15.25-5.33,30.71-10,46.3-14.26A775.73,775.73,0,0,1,679.81,29.37l-.29,0,.58-.08.2,0-.14,0c15.62-2,31.27-3.67,47-4.81,17.1-1.24,34.24-1.78,51.39-1.84a737.34,737.34,0,0,1,99.69,6.51l-.28,0,.41.06.49.07-.29,0a795.2,795.2,0,0,1,99.26,20.18,776.32,776.32,0,0,1,98.32,34.12l-1-.42a782.84,782.84,0,0,1,84.6,42.39,763.47,763.47,0,0,1,81.71,54.87l-.25-.2.54.42.37.28-.23-.18a806.05,806.05,0,0,1,73.88,65,757.43,757.43,0,0,1,64.7,73.56l-.7-.92a796.1,796.1,0,0,1,53.47,78.79,740,740,0,0,1,44.4,88.09A777.66,777.66,0,0,1,1510,578.62a750.39,750.39,0,0,1,20.09,99.29c-.06-.43-.12-.86-.18-1.28a804.67,804.67,0,0,1,6.9,100.34,748.26,748.26,0,0,1-6.41,101,792.91,792.91,0,0,1-19.55,97.31,734.35,734.35,0,0,1-32.51,95,760.65,760.65,0,0,1-43.11,85.86,775.18,775.18,0,0,1-55.6,82.18l1-1.35c-9.85,12.67-20,25.07-30.66,37.08s-21.62,23.52-32.93,34.79a776.42,776.42,0,0,1-71.37,62.69,761.52,761.52,0,0,1-164.09,96.22q-19,8-38.4,15c-14.41,5.19-29.06,9.72-43.78,13.95-14,4-28.08,7.37-42.29,10.38-15,3.17-30,5.68-45.15,7.77l3.76-.5-23.47,3.16q-27.87,3.62-55.95,5.54-14.55,1-29.12,1.75c-5,.24-10,.42-15,.57l-6,.16a32.59,32.59,0,0,0-6.14,1q-24.29-.07-48.54-1.57c-17-1-33.93-2.43-50.81-4.59a785.68,785.68,0,0,1-99.43-20.33,756.81,756.81,0,0,1-346.8-206.71c-13.07-13.6-25.55-27.75-37.87-42q-18.07-21-35.07-42.83a880,880,0,0,1-60.76-89.61,0,0,0,0,0,0,0,688,688,0,0,0,65,120.63c26.46,38.9,58.2,74,92.33,106.32a780.37,780.37,0,0,0,110.44,86.83,743.08,743.08,0,0,0,127.1,66.07,756.29,756.29,0,0,0,137.6,40.74c23.81,4.67,47.88,8,72,10.7a705.41,705.41,0,0,0,74.87,4.08,30.34,30.34,0,0,0,6.15.95q4.53,0,9.05,0c6,0,12-.12,18-.27,12.38-.31,24.7-1.22,37-2.35,11.84-1.09,23.61-2.65,35.37-4.35,5.75-.84,11.5-1.77,17.23-2.73,6.52-1.09,13-2.51,19.41-4,11.07-2.48,22.08-5.27,33.06-8.12,12.23-3.17,24.31-6.83,36.41-10.47,23-6.91,45.58-15.07,67.86-24a775.6,775.6,0,0,0,237.71-150c34.41-31.61,65.56-66.7,93.82-103.88a766,766,0,0,0,74.53-120.49A779.91,779.91,0,0,0,1517.26,992c13.46-46.46,21.92-94.29,26.3-142.43A765.45,765.45,0,0,0,1174,123.74,750.48,750.48,0,0,0,905.91,26.2a787.73,787.73,0,0,0-123.14-9.52q-9.36,0-18.7.21Zm766.37,861-.13,1c0-.33.08-.66.13-1Zm-1369.21,330,.25.33-.25-.33Zm.3.39.42.55-.42-.55Zm154.37,158.48.71.55-.71-.55ZM1083.35,1467l-1.29.54,1.29-.54Zm158.52-1286.3-.14-.11-.29-.22.42.33ZM680.1,29.33l-.29,0,.36,0Zm198.47-.1-.2,0-.13,0,.33,0Z"/><path class="cls-1" d="M276,226q-11.54,9.05-22.69,18.57C245,251.71,237,259.31,229.16,267A617.22,617.22,0,0,0,187,313.15q-19.27,23.21-36.42,48.07-17.95,26.08-33.67,53.6A767.18,767.18,0,0,0,30.25,647.25a776.16,776.16,0,0,0,17.15,369.82,752,752,0,0,0,44.73,115A764.08,764.08,0,0,0,329.86,1416c16.82,12.3,34.18,23.85,51.94,34.74s35.93,20.76,54.5,30a781.62,781.62,0,0,0,103,42.51,751.52,751.52,0,0,0,110.87,27.19q27.52,4.66,55.35,7.22c19.72,1.8,39.55,2.5,59.35,2.33q28.43-.24,56.78-2.84c19.08-1.72,38.07-4.42,56.94-7.75,0,0,0,0,0,0-65.91,5.36-132.36,3.09-197.91-5.48q-24-3.26-47.76-8c-16.58-3.29-33-7.25-49.32-11.67a775.57,775.57,0,0,1-96.24-33.16c-14.43-6.13-28.7-12.64-42.72-19.66-14.78-7.4-29.28-15.34-43.55-23.69-14.5-8.48-28.75-17.34-42.72-26.68-13.5-9-26.65-18.58-39.53-28.46a779.81,779.81,0,0,1-138.36-138,788.48,788.48,0,0,1-54.62-81,761.94,761.94,0,0,1-44.47-88.93,779.69,779.69,0,0,1-31.65-91.41,739.16,739.16,0,0,1-20-97.12,772.1,772.1,0,0,1-6.86-100.59c0-7.93,0-15.86.25-23.8.24-8.58.68-17.16,1.21-25.73,1.09-17.64,2.84-35.24,5.16-52.76A766.08,766.08,0,0,1,48.76,597.8,741.11,741.11,0,0,1,80.9,504.4l-.37.86q9.56-22.63,20.46-44.65c7.8-15.72,16.25-31.12,25.14-46.26,17.64-30.07,37.62-58.69,58.88-86.29,13.75-17.73,28.29-34.84,43.29-51.52q11.74-13.06,23.84-25.78C260,242.45,267.94,234.16,276,226c0,0,0,0,0,0ZM185.56,327.37,185,328l.52-.67Z"/><path class="cls-1" d="M258.75,241.76a729.36,729.36,0,0,0-86,90.12c-26,32.65-48.52,68.08-68.31,104.83-10,18.53-19,37.57-27.43,56.86Q64.7,521.69,54.76,550.8A773.37,773.37,0,0,0,14.41,798.05,792.75,792.75,0,0,0,25,924.43a752,752,0,0,0,31.79,124.51c6.84,19.75,14.6,39.16,23,58.29s17.84,37.94,27.77,56.39c10,18.63,20.95,36.78,32.55,54.47,11.29,17.22,23.39,33.88,36,50.14a754.78,754.78,0,0,0,84.51,92c15.17,14,30.94,27.29,47.12,40.07q24.63,19.46,50.76,36.91c17.22,11.53,35.07,22.13,53.18,32.2q27.66,15.37,56.59,28.27a779,779,0,0,0,118.12,41.72,737.71,737.71,0,0,0,124,21.59,769.25,769.25,0,0,0,254.27-19.63c19-4.71,37.78-9.94,56.39-15.95q27.59-8.91,54.47-19.85a691.18,691.18,0,0,0,104.35-53.34c16.17-10,32-20.66,47.25-32,15-11.2,29.37-23.32,43.22-35.95,28.6-26.09,54.55-54.94,78.64-85.21,0,0,0,0,0,0a818.6,818.6,0,0,1-81.18,71.3c-15.37,11.79-31.12,23-47,34.1-16.29,11.34-32.82,22.28-49.81,32.53s-34.55,20-52.35,29c-8.93,4.53-18,8.84-27.09,13-9.39,4.31-18.8,8.55-28.31,12.59q-20.67,8.63-41.81,16c-15.22,5.3-30.65,10-46.18,14.35-31,8.62-62.8,14.6-94.7,19a787.66,787.66,0,0,1-101.05,6.65,758,758,0,0,1-100.81-6.7,822.56,822.56,0,0,1-97.89-19.63q-24.52-6.51-48.52-14.79c-16.06-5.54-31.89-11.72-47.55-18.29a769.5,769.5,0,0,1-87.38-43.82,777.79,777.79,0,0,1-81.1-54.7,769.2,769.2,0,0,1-134.8-135.09,807.41,807.41,0,0,1-54.92-81.3A738.58,738.58,0,0,1,82.75,1086,754.09,754.09,0,0,1,30.52,894.15q-3.14-24-4.82-48.14C24.53,829.21,24,812.37,24,795.53a775.28,775.28,0,0,1,6.57-101.94q3.35-24.63,8.24-49c3.32-16.43,7.26-32.73,11.67-48.9a749,749,0,0,1,79.59-187.54c9.11-15.39,18.89-30.39,29-45.13s20.55-29.09,31.4-43.2l-.48.62c10.76-13.91,21.81-27.57,33.36-40.84,11.34-13,23.22-25.58,35.42-37.8a0,0,0,0,0,0,0ZM180.48,1253.33l.94,1.22-.94-1.22Zm1088,116.44-.66.5.66-.5Zm-.79.6-.43.34.43-.34Zm-951.17,19.52.91.71-.91-.71Zm361.1,150.85.65.09-.65-.09Zm1.25.17,1,.13-1-.13Z"/><path class="cls-1" d="M763.36,30c-11.28.33-22.55.79-33.82,1.51-12.17.79-24.32,1.94-36.44,3.28A764.35,764.35,0,0,0,584.53,55,745.46,745.46,0,0,0,477.44,92.12a627.9,627.9,0,0,0-98.33,53.17q-22,14.57-42.93,30.52c-13.05,9.92-25.87,20.2-38.3,30.9-.54.46.24,1.22.77.77l1.51-1.17-.05,0c6.62-5.09,13.27-10.13,20-15.05,6.57-4.8,13.29-9.39,20-13.93q21.78-14.61,44.6-27.57,23.58-13.42,47.83-25.6c17.08-8.6,34.48-16.55,52.09-24a796.78,796.78,0,0,1,94.71-32.74,758.5,758.5,0,0,1,99.95-20.35,725.84,725.84,0,0,1,100.17-6.3c16.77.13,33.5.57,50.24,1.69,16.2,1.08,32.36,2.77,48.46,4.89a782,782,0,0,1,91.93,18.88c15.45,4.15,30.76,8.83,45.92,13.91,15.49,5.19,30.73,11,45.8,17.32,15.38,6.52,30.6,13.4,45.58,20.79s29.58,15.28,44,23.6a760.16,760.16,0,0,1,82.88,55.54,763.85,763.85,0,0,1,191.76,218.53,766.67,766.67,0,0,1,43.79,87.65q9.62,23.06,17.79,46.67c5.46,15.8,10.21,31.84,14.55,48a781.09,781.09,0,0,1,19.31,96c4.48,34.4,7.29,69.1,7.25,103.81A794.16,794.16,0,0,1,1522,900.53q-3.55,25.63-8.6,51c-3.43,17.09-7.54,34-12.15,50.84-4.54,16.57-9.76,33-15.33,49.22-5.33,15.58-11.26,31-17.6,46.15A750.26,750.26,0,0,1,1371.39,1264q-14.29,18.45-29.61,36.05c-11,12.65-22.6,24.82-34.46,36.69a782.24,782.24,0,0,1-73.62,64.57l.63-.48a824.3,824.3,0,0,1-70.28,48.61c-12.15,7.52-24.55,14.64-37.1,21.47-12.28,6.68-24.81,12.86-37.39,18.92,0,0,0,0,0,0,19.53-8.17,38.64-17.39,57.38-27.22,19.74-10.35,39-21.67,57.66-33.79a746.53,746.53,0,0,0,102.84-80.76,787.43,787.43,0,0,0,87.38-96.56,770.23,770.23,0,0,0,70.7-110.83A743.46,743.46,0,0,0,1516.64,1018c6.87-21.86,12.63-44.05,17.49-66.44,4.91-22.61,8.53-45.45,11.33-68.41a778.42,778.42,0,0,0,4-139.12c-.65-11.3-1.57-22.59-2.83-33.83-1.35-12.16-3-24.27-4.93-36.35-3.59-22.91-8.35-45.62-14.12-68.08s-12.78-44.73-20.54-66.64-16.65-43.56-26.39-64.71a764.83,764.83,0,0,0-67.23-116.82c-12.84-18.43-26.58-36.25-40.93-53.53-14.71-17.71-30.45-34.57-46.78-50.8a789.83,789.83,0,0,0-105.83-87.94A755.78,755.78,0,0,0,1100,97.47q-15-6.81-30.35-12.88c-11.18-4.45-22.49-8.49-33.83-12.47-22.19-7.79-44.76-14.42-67.59-20-22.49-5.53-45.26-9.88-68.17-13.31q-33.6-5-67.55-7.32-24.79-1.67-49.64-1.71-9.76,0-19.52.28ZM1521.57,694.8l.24,1.73-.24-1.73Zm.35,206.35-.16,1.24.16-1.24Zm-150.2,362.41-.32.41.32-.41Zm-.34.44-.5.65.5-.65ZM300.07,206.37l0,0,0,0Z"/><path class="cls-1" d="M591,58.8c-15.89,3-31.67,6.57-47.26,10.85-7.75,2.13-15.45,4.42-23.08,7s-15.07,5.27-22.53,8.11c-15,5.71-29.62,12.18-44.15,18.94q-21.18,9.87-41.55,21.37A788.4,788.4,0,0,0,261.12,235.87a764.33,764.33,0,0,0-63.2,66.78A722.36,722.36,0,0,0,144,375.93a768.08,768.08,0,0,0-47.54,85.45s0,0,0,0a773.14,773.14,0,0,1,77.36-122.29h0l0-.06.24-.31,0,0a803.92,803.92,0,0,1,59.79-69,766.9,766.9,0,0,1,68.75-62.46q5.39-4.34,10.86-8.56a737.18,737.18,0,0,1,77.84-52.61c13.42-7.86,27.11-15.23,41-22.33s28.1-14,42.45-20.35q8.39-3.7,16.84-7.27c16.23-6.84,32.65-13.23,49.1-19.52Q565.65,67.16,591,58.84s0,0,0,0ZM492.42,95.86l-.31.13.31-.13ZM173.9,339.06l0,.05.26-.33-.22.28Z"/><path class="cls-1" d="M834,541.47c-3.86,7.58-8.78,14.6-13.46,21.69s-9.3,14.06-14,21.06q-7.78,11.65-15.3,23.46c-4.53,7.08-8.71,14.37-12.93,21.64q-2.92,5-5.82,10.11c-3,5.16-5.51,10.6-8.11,15.94-3,6.14-5.77,12.38-8.42,18.67-4.89,11.62-9.17,23.48-13,35.5-2.06,6.51-4.11,13-5.87,19.64-4.5,16.91-9.16,33.77-13.47,50.72q-4.13,16.24-8.27,32.47c-.75,2.94-1.5,5.89-2.25,8.84s-1.8,6.06-2.69,9.07l-9.16,30.93c-.73,2.48-1.72,4.89-2.6,7.31l-6.22,17.08-1.5,4.14q-2.55,5.86-5.11,11.7c-1.24,2.85-2.51,5.72-3.89,8.54-.75-1.64-1.48-3.29-2.21-4.94-1.36-3.4-2.72-6.79-4-10.24-1.51-4.15-2.94-8.32-4.34-12.52q-3.76-11.28-7.07-22.71c-4.85-16.65-9.62-33.33-14.5-50-9.86-33.61-19.73-67.22-29.14-101-2-7.17-4.09-14.32-5.91-21.54q-4-15.89-8-31.76c-2-8-3.7-16-5.52-24q-1.36-5.95-2.72-11.9c-.84-3.73-1.46-7.53-2.19-11.28-.94-4.87-2-9.74-2.82-14.64-.83-5.14-1.68-10.28-2.5-15.43-.36-2.84-.73-5.67-1-8.52-.15-1.07-.29-2.14-.43-3.2a12.05,12.05,0,0,0-14.82-8.42,12.42,12.42,0,0,0-8.14,7l-1.24,2.79a86,86,0,0,0-3.26,8.23c-1.33,4.1-2.61,8.22-3.88,12.34-2.52,8.14-5.09,16.26-7.64,24.39s-5.23,16.51-7.93,24.74c-1.21,3.69-2.61,7.32-3.94,11-1.21,3.33-2.39,6.65-3.74,9.92l-5.26,12.76c-14.74,31.36-29.49,62.76-42.33,95q-7,17.44-13.73,34.95c-3.74,9.62-7.65,19.19-11.6,28.72Q453.79,848.88,445.3,868c-4.78,10.79-9.32,21.69-13.83,32.59q-5.89-14.87-11.3-29.92c-2.69-7.51-5.28-15.05-7.92-22.58-3-8.53-6.08-17-9.17-25.49-2.65-7.26-5.55-14.45-8.44-21.62q-5.31-13.19-10.73-26.34c-3.62-8.77-7.37-17.49-11.1-26.22-2.93-6.85-6.06-13.62-9-20.47-2.39-5.58-4.85-11.13-7.29-16.69-2.9-7.18-6-14.29-8.73-21.52-3.33-8.7-6.65-17.39-9.87-26.13-5.68-15.42-10.86-31-16.19-46.53q-2.69-7.86-5.43-15.72c-1.82-5.23-4-10.36-6-15.52-1.43-3.68-3-7.23-4.61-10.81-2.8-6-5.55-12-8.64-17.85a0,0,0,0,0,0,0c2,5.28,3.73,10.63,5.5,16,1.08,3.27,2.28,6.52,3.17,9.85,2.27,8.52,4.66,17,6.72,25.56q3.33,13.81,6.68,27.6c1.8,7.45,3.66,14.9,5.76,22.27,2.32,8.12,4.59,16.25,7.1,24.32q2.26,7.24,4.58,14.47c1.31,4.11,2.84,8.16,4.28,12.22,5.36,15.21,11.84,30,17.82,44.93q10.29,25.73,20.05,51.65c5.89,15.7,11.25,31.58,16.36,47.55s10.1,32.06,15.31,48c2.83,8.7,5.45,17.58,9,26a14.63,14.63,0,0,0,5.58,7,10.93,10.93,0,0,0,5.87,1.75c1.56,0,4.59-.6,5.9-1.59a14.85,14.85,0,0,0,5.57-6.49c1.15-2.58,2.23-5.18,3.27-7.81l4.52-11.35c3.7-9.26,7.5-18.48,11.29-27.71,3-6.79,6-13.6,8.95-20.38,3.79-8.59,7.69-17.15,11.3-25.82,3.34-8,6.8-16,10-24.07s6.28-16,9.56-24,6.63-15.94,9.86-23.94q5.59-12.46,11.14-25c3.41-7.63,7.2-15.1,10.82-22.64,3.21-6.72,6.77-13.29,10.15-19.93L550,682.34c.62-1.22,1.12-2.51,1.68-3.76l3.93-8.8c1.73-3.87,3.39-7.74,4.93-11.69,1.65-4.25,3.48-8.47,5-12.78q4.36-12.67,8.53-25.39l.56-1.71,1.48,7.2c.64,3.1,1.48,6.17,2.22,9.25q2.17,9,4.34,18.06c1.66,6.93,3.49,13.79,5.33,20.67,2.15,8,4.12,16.16,6.47,24.15l9.11,30.88c4.28,14.49,8.79,28.92,13.14,43.39q7.91,26.36,15.65,52.76c2.35,8,4.53,16,6.68,24l6.74,25.17c4.48,16.68,8.8,33.48,14.89,49.65,3.16,8.39,7.38,18.29,16.9,20.8,5.07,1.34,10.24-.59,14-4a36.87,36.87,0,0,0,5.8-7.47c1.45-2.25,2.66-4.67,3.88-7,1.73-3.35,3.3-6.8,4.75-10.28q2.68-6.41,5.37-12.82c1.14-2.71,2.3-5.39,3.27-8.16l5.73-16.26,2.52-7.16c.32-.9.7-1.81,1-2.74q4.06-14.22,8.15-28.43c1.75-6.12,3.51-12.2,5-18.38l8.12-33.49c3.65-15.07,7.59-30.08,11.4-45.1q1.19-4.69,2.38-9.38c2-8,4.61-16,7-23.91C769,699,772.25,688.43,775.89,678s7.58-20.51,11.68-30.64q5.79-12.81,11.41-25.67c1.1-2.51,2.31-4.95,3.51-7.41q3.62-7.46,7.17-15c3.32-7,6.79-14,10-21,3.55-7.7,7.15-15.45,10.05-23.42A125.05,125.05,0,0,0,834,541.49a0,0,0,0,0,0,0Z"/><path class="cls-1" d="M1098.54,536.45c-12.61.73-25.13,2.51-37.61,4.42a318.85,318.85,0,0,0-36.19,7.6A102,102,0,0,0,992.94,564a117.1,117.1,0,0,0-13.3,11.08,120.77,120.77,0,0,0-12.31,14.23c-7.33,9.66-12.66,20.84-17.05,32.08a115.2,115.2,0,0,0-7.84,36.16,89.21,89.21,0,0,0,1.49,18.11,73.56,73.56,0,0,0,5.93,18.42,71.28,71.28,0,0,0,8.67,14.18,90.07,90.07,0,0,0,6.27,7.45,72,72,0,0,0,6.9,6.18,133.9,133.9,0,0,0,32.36,19,242.1,242.1,0,0,0,34.54,11.31c14.38,3.65,29,6.12,43.67,8.46,13.74,2.2,27.47,4.38,41.17,6.8l23.74,4.18c7.47,1.32,14.91,3.19,22.25,5.09A202.21,202.21,0,0,1,1195,785.2a108,108,0,0,1,20.16,11.56,72,72,0,0,1,9.52,9.4,56.27,56.27,0,0,1,4.49,7.51,42,42,0,0,1,1.54,5.75,38.17,38.17,0,0,1,0,5.28,45.62,45.62,0,0,1-1.86,6.5,56,56,0,0,1-4.67,7.91,95.12,95.12,0,0,1-12.57,12A149.56,149.56,0,0,1,1183,867c-19.47,8-39.84,13.81-60.16,19.1a574.15,574.15,0,0,1-64.8,13.43,257.63,257.63,0,0,1-27.65,2.31,192.76,192.76,0,0,1-28.27-1.13A54.31,54.31,0,0,1,989,897.47l.08,0c-.64-.3-1.27-.62-1.9-1,0,0,0,0,0,0a41.74,41.74,0,0,0,11,7.24,110,110,0,0,0,16.34,6.08c5.66,1.71,11.4,3.18,17.19,4.39a194.22,194.22,0,0,0,20.13,2.88c26.2,2.66,52.74.71,78.72-3.07a293.66,293.66,0,0,0,36.86-7.69,232.37,232.37,0,0,0,36.75-13.92A140.91,140.91,0,0,0,1236.1,872a83.17,83.17,0,0,0,11.37-11.86,71.11,71.11,0,0,0,6.11-8.78,73.48,73.48,0,0,0,4.85-11.21,42,42,0,0,0,1.89-7.92,45.48,45.48,0,0,0,.58-10.88,54.35,54.35,0,0,0-6.51-21.76,63.68,63.68,0,0,0-6-8.47,71.93,71.93,0,0,0-5.39-6.17,96.39,96.39,0,0,0-15.82-12.48,114.92,114.92,0,0,0-14.65-7.88,173.53,173.53,0,0,0-19.38-7.54,320.39,320.39,0,0,0-35.86-9.09c-10-2-20-3.49-30-5.19q-9.9-1.68-19.82-3.22l-30.17-4.67c-4.45-.69-8.87-1.6-13.3-2.43-6.32-1.17-12.61-2.45-18.86-3.94s-12.23-3.27-18.28-5.12c-5.4-1.65-10.74-3.49-16-5.61a127.07,127.07,0,0,1-24.29-14,58.55,58.55,0,0,1-18.18-23.48,71.86,71.86,0,0,1-3.74-14.3,77.94,77.94,0,0,1,0-17,127.81,127.81,0,0,1,7.94-28.72A121.52,121.52,0,0,1,986,596.88a107.6,107.6,0,0,1,16.49-16.72,104.29,104.29,0,0,1,19.79-11.73,140.22,140.22,0,0,1,17.14-5.09c6.25-1.56,12.54-2.9,18.86-4.12,12.34-2.39,24.7-4.71,37.14-6.44a314.78,314.78,0,0,1,36.22-2.77c6.48-.09,13,.12,19.42.4,6.3.28,12.59.58,18.85,1.36a81.51,81.51,0,0,1,17.79,4.46,49.8,49.8,0,0,1,9.19,5.17,39.83,39.83,0,0,1,5.94,5.92,33,33,0,0,1,3.85,6.47,64.73,64.73,0,0,1,3.2,12.63s0,0,0,0a56.43,56.43,0,0,0-1.43-14.53c-1.26-5-4.35-9.54-7.68-13.34a43.9,43.9,0,0,0-11.61-8.87,75.82,75.82,0,0,0-16.05-6.33,143.89,143.89,0,0,0-17.6-3.63c-6.44-1-12.91-1.94-19.4-2.62a209.17,209.17,0,0,0-21.87-1.09c-5.24,0-10.48.17-15.72.47Zm-96.81,364.24.38,0-.38,0Zm.44.06.16,0-.16,0Z"/><path class="cls-1" d="M1106.81,563.2a261,261,0,0,0-38.14,4.57,217.39,217.39,0,0,0-36.2,9.65,100.93,100.93,0,0,0-16.94,7.94,86.61,86.61,0,0,0-15.36,11.78,96.4,96.4,0,0,0-11.39,13.57,80.65,80.65,0,0,0-8.62,15.52c-2.6,6.1-4.75,12.41-5.3,19.06a42.33,42.33,0,0,0,.09,8c.19,1.82.47,3.64.82,5.43A31.64,31.64,0,0,0,978,665a47.82,47.82,0,0,0,9.8,14.32,64.65,64.65,0,0,0,7.18,6,91.17,91.17,0,0,0,7.91,5.27,163.71,163.71,0,0,0,14.75,8.09c6,2.88,12.21,5.45,18.42,7.9,12.83,5.07,26.11,8.91,39.29,12.95l22.66,6.93,15,4.57c2.73.83,5.4,1.91,8.08,2.88,9.61,3.48,19.22,6.86,28.65,10.79,17.11,7.29,34,15.57,48.87,26.78a108.53,108.53,0,0,1,17.18,16.86,107.08,107.08,0,0,1,9.69,15.5,17.85,17.85,0,0,1,.47,1.74c0,.39,0,.76,0,1.15l0,.16a25.85,25.85,0,0,1-1.47,2.46,38.52,38.52,0,0,1-4.1,4.08,94.76,94.76,0,0,1-17.36,9.47c-15,6.09-30.58,10.57-46.24,14.47a486.11,486.11,0,0,1-50.24,9.68c-11.74,1.54-23.58,2.65-35.42,3-6.29.2-12.57.48-18.86.65-5.61.16-11.23.37-16.85.48-6.13.11-12.4.48-18.51-.18,0,0,0,0,0,0a95.65,95.65,0,0,0,12,2.49c4.07.65,8.15,1.31,12.23,1.91,9.57,1.38,19.14,2.65,28.73,3.87a292.15,292.15,0,0,0,60.91,1.06,325.47,325.47,0,0,0,38.7-5.54,220.12,220.12,0,0,0,36.11-10.51,134.87,134.87,0,0,0,16.73-7.83,64.25,64.25,0,0,0,14.68-10.7,37.24,37.24,0,0,0,5.61-7.68,35.44,35.44,0,0,0,2.08-4.87,22.06,22.06,0,0,0,.86-5,18.49,18.49,0,0,0-.43-4.91,28.35,28.35,0,0,0-.78-3.41c-1-3.5-3.21-6.39-5.11-9.43a141.94,141.94,0,0,0-10.27-13.93,113.55,113.55,0,0,0-12.47-12.84,163.56,163.56,0,0,0-29.34-20.49A360.12,360.12,0,0,0,1138.43,721c-7.77-2.94-15.48-6.08-23.39-8.66q-14.5-4.71-29-9.43c-15-4.91-30-9.57-44.61-15.6-12.07-5.24-23.95-11.18-34.56-19a49,49,0,0,1-6.14-6,42.69,42.69,0,0,1-3.4-5.72,30.29,30.29,0,0,1-1.18-4.31,43.21,43.21,0,0,1,0-6,58.82,58.82,0,0,1,3.13-10.54,85.5,85.5,0,0,1,9-15.27,80.71,80.71,0,0,1,11.56-11.77,86,86,0,0,1,15.85-9.15,277.33,277.33,0,0,1,35.53-11.23,347.18,347.18,0,0,1,36.51-7.53c6.5-.8,13-1.29,19.55-1.68,7.57-.46,15.14-.84,22.72-1.07,7-.21,14.09-.16,21.14-.1a199,199,0,0,1,21.84,1.1,80.8,80.8,0,0,1,19.22,5.29s0,0,0,0a81.63,81.63,0,0,0-13.94-7.93A97.68,97.68,0,0,0,1181,571.1a311.78,311.78,0,0,0-37.08-6.1,289.5,289.5,0,0,0-31-1.9q-3,0-6.08.09Z"/><path class="cls-1" d="M562.95,556.89a14.8,14.8,0,0,0-4.92,5.41,20.73,20.73,0,0,0-2.26,8.39l-.07,1.3c-.77,1.05-1.52,2.12-2.25,3.19-1.25,1.81-2.4,3.7-3.6,5.55-2.07,3.18-4.06,6.41-6.1,9.61q-7.76,12.17-15.49,24.35c-4.56,7.18-8.86,14.53-13.23,21.82-3.54,5.88-7,11.76-10.27,17.77q-7.93,14.39-15.83,28.78c-3.35,6.09-6.27,12.44-9.38,18.65q-11.74,23.53-23.55,47-12.11,24-24.35,48c-3.33,6.52-6.76,13-10,19.58q-7,14.49-14,29c-1.22,2.5-2.25,5.07-3.33,7.62l-.24.55c-2-6.21-3.84-12.45-5.77-18.67-4.77-15.4-9.75-30.76-15.34-45.89-5.72-15.46-11.39-30.93-17.4-46.28q-11-28.09-23.26-55.67c-2.19-5.27-4.55-10.47-6.86-15.69q-7.27-16.41-14.9-32.66c-8.26-17.62-16.94-35-25.61-52.46q-5.61-11.27-11.34-22.47s0,0,0,0c3.3,13.62,6.63,27.22,10.38,40.72q3.91,14,8.06,28,9,30.33,19.13,60.3c1.36,4,2.85,8,4.31,12q6.27,17,13,33.88c3.13,7.81,6.36,15.58,9.57,23.35,3.06,7.46,5.95,15,8.92,22.48,2.74,6.91,5.6,13.78,8.08,20.79l6,16.91c1,2.72,2,5.42,2.82,8.19,2.7,8.84,5.44,17.65,7.85,26.58,2.28,8.47,4.35,17,6.16,25.56.52,2.46,1,4.94,1.42,7.4l.17.89-.11.33c-.18.52-.33,1-.5,1.56a20.83,20.83,0,0,0-.81,4.92c.19,1.44.38,2.88.58,4.31a14,14,0,0,0,9.72,9.72,15.08,15.08,0,0,0,3.64.55c.7.09,1.39.18,2.09.25,1.39-.15,2.77-.34,4.15-.57a13.91,13.91,0,0,0,6.16-3.59,21.66,21.66,0,0,0,2.55-3.22,14,14,0,0,0,1.92-7.09,13,13,0,0,0-.13-3.31l1.15-2.89q2.05-5.18,4.11-10.35,2.2-5,4.39-10.11c1.42-3.26,2.74-6.6,4.28-9.81q6.8-14.06,13.57-28.11c7.18-14.89,14.71-29.61,22.09-44.4,7.57-15.17,14.86-30.49,22.25-45.74,3.85-7.94,7.6-15.94,11.4-23.9l7.43-15.58c.92-1.92,1.78-3.89,2.77-5.77,7.91-15,15.46-30.28,24-45l9.16-15.8c1.34-2.33,2.65-4.67,4.1-6.94L558.4,616c2.05-3.23,4.28-6.34,6.46-9.49,2.39-3.44,4.86-6.8,7.36-10.16.91-1.13,1.81-2.26,2.74-3.36,3.75,9.3,7.25,18.71,10.84,28.07,2.62,6.85,5.46,13.64,7.81,20.59l10.56,31.17c1.88,5.58,3.88,11.1,5.44,16.77q4.58,16.62,9.16,33.24c1.56,5.65,3.21,11.28,4.56,17,4,16.9,8,33.79,12.43,50.59q6.92,26.43,14.9,52.57c2.41,7.85,4.8,15.72,7.46,23.49,2.89,8.45,5.71,17,8.93,25.29,3.66,9.49,7.44,18.91,11.46,28.25q2.52,5.84,5.17,11.61c.88,1.92,1.79,3.83,2.69,5.74,1.63,3.43,3.06,7.22,5.78,9.93,0,0,0,0,0,0a13.06,13.06,0,0,1-.79-1.44,81.42,81.42,0,0,1-2.35-10.32q-.62-3-1.27-6.08c-.86-4.07-1.76-8.14-2.64-12.2-2-9.42-4-18.85-6.08-28.26-1.91-8.73-3.37-17.56-5.12-26.33-1.6-8-2.9-16-4.37-24.05-3.34-18.05-6.66-36.12-10.38-54.1-3.52-17-7.58-34-11.56-50.91-1.32-5.61-2.92-11.15-4.45-16.72q-4.6-16.74-9.19-33.49c-1.53-5.6-3.48-11-5.36-16.52L617.9,635.27c-2.07-6.07-4.61-12-7-18-3.84-9.78-7.64-19.58-11.73-29.26l1.08,2.55c-3.39-8.08-6.57-16.39-11.49-23.7-2.58-3.83-5.1-7.78-9.06-10.33a15.41,15.41,0,0,0-8.37-2.47h-.19a15,15,0,0,0-8.22,2.78Zm-221,129.18h0ZM600.45,591l-.16-.39.16.39Z"/><path class="cls-1" d="M828.64,575.25c-4.38,7.35-8.15,15-11.84,22.74s-7.26,15.37-10.87,23.06c-7.4,15.75-15.53,31.13-23.37,46.65-3.86,7.63-7.52,15.36-11.17,23.1-3.34,7.1-6.4,14.28-9.41,21.53-4,9.54-7.82,19.12-11.43,28.79-2.83,7.59-5.2,15.38-7.64,23.1q-7.81,24.69-14.67,49.7-3.76,13.62-7.18,27.32c-.42,1.68-1,3.34-1.47,5q-2.2,7.49-4.31,15-3.81,13.58-7.34,27.24c-2.27,8.79-4.76,17.49-7.21,26.23,0,0,0,0,0,0,3.71-5.72,7.53-11.37,10.94-17.29q3.3-5.73,6.54-11.48,8.67-15.4,16.91-31c2.32-4.38,4.43-8.77,6.48-13.28C746.93,830,752,818.19,757,806.37c6.66-15.92,12.7-32.09,18.33-48.42,5.53-16,10.83-32.14,15.74-48.38.68-2.26,1.48-4.48,2.24-6.71q2.9-8.59,5.69-17.21c2.57-7.92,5.25-15.8,7.86-23.71,5.08-15.42,9.72-31,13.29-46.87,1.49-6.62,2.82-13.27,4.09-19.94s2.39-13.43,4.5-19.87c0,0,0,0,0,0Z"/><path class="cls-1" d="M855.6,532.16a9.81,9.81,0,0,0-2.74,3.62c-.46,1.24-.84,2.51-1.28,3.76l-2,5.71c-1.46,4.14-2.8,8.33-4.18,12.5,0,0,0,0,0,0l5.65-11.54c.57-1.17,1.18-2.33,1.78-3.49l.16-.31c-.57,1.66-1.25,3.3-1.91,4.92-2.59,6.11-5.31,12.17-7.89,18.3l-.45,1.06q-11,26.07-21.23,52.41c-2.53,6.55-4.94,13.16-7.54,19.69q-5.71,14.38-11.2,28.84-3,7.79-5.8,15.62c-.71,1.94-1.38,3.92-2.14,5.85q-5,12.79-10.11,25.58c-6.39,16.17-12.85,32.31-19,48.57Q756,788.87,747,814.78c-5.05,14.57-9.75,29.27-14.66,43.89q-4.6,13.73-9.1,27.49c-2.51,7.69-5,15.38-7.93,22.92a46.19,46.19,0,0,1-2.5,4.88s0,0,0,0c3.59-3.84,6.19-8.36,8.78-12.9,2-3.56,3.9-7.21,5.78-10.84,3.89-7.45,7.51-15,11.1-22.64,6.74-14.26,13-28.74,19.41-43.16,7.41-16.69,14.61-33.5,21.75-50.31,7-16.47,13.66-33.05,20.23-49.7L811.52,695c2.3-5.86,4.34-11.83,6.43-17.76q5.64-16,10.94-32c1.89-5.69,3.58-11.45,5.3-17.19,3.63-12.13,7.1-24.29,10.63-36.44q3.62-12.44,7.14-24.92c.75-2.64,1.48-5.28,2.22-7.92,1.13-4,2.36-8,3.35-12.12a45.45,45.45,0,0,0,1.14-6.14c.23-2.32.18-4.64.23-7a1.89,1.89,0,0,0-2-1.9,1.93,1.93,0,0,0-1.34.53ZM715.39,908.93l0,.07,0-.07Z"/><path class="cls-1" d="M579,540.65a14.42,14.42,0,0,0-.79,4s0,0,0,0a18.42,18.42,0,0,1,.91-3.25l0,0,0,0h0l.28-.54.28-.27.22,0,.29.21.35.61a127,127,0,0,1,2.5,12.54c.54,3.15,1.09,6.3,1.62,9.46q1.89,11.13,3.81,22.26c2.13,12.26,4.43,24.49,7.13,36.64q1.58,7.08,3.18,14.17c.49,2.15.91,4.33,1.48,6.46q3,11.43,6.17,22.82c3.52,12.86,7.47,25.6,11.42,38.34,1.83,5.88,3.45,11.83,5.19,17.74,1.56,5.3,3.26,10.58,4.61,15.94q3.2,12.72,6.54,25.4c.6,2.27,1.19,4.53,1.8,6.79s.94,4.37,1.41,6.54q2.88,13.29,5.89,26.55c.92,4.07,1.66,8.15,2.42,12.25q2.62,14,5.36,27.94c.76,3.85,1.56,7.7,2.24,11.58q2.88,16.47,5.91,32.9,3.2,17.35,6.35,34.72a0,0,0,0,0,0,0c-.52-9.35-1.07-18.69-1.78-28s-1.49-18.94-2.3-28.41c-.42-5-.73-9.94-1.31-14.89-.82-7.11-1.7-14.21-2.59-21.31q-1.5-12-3.09-23.89l0,.31-.13-1c-.06-.46-.12-.92-.19-1.39.05.35.1.7.14,1l-.09-.69.08.56c-.31-2.21-.75-4.4-1.15-6.6q-1.25-6.87-2.53-13.74-1.24-6.6-2.5-13.19c-.3-1.57-.54-3.16-.93-4.72q-2.88-11.65-5.88-23.26c-1.24-4.8-2.47-9.58-3.91-14.32-2.53-8.36-5-16.73-7.61-25.08-1.62-5.27-3.43-10.48-5.18-15.7-2-5.88-4.09-11.71-6-17.62q-3.83-12-7.76-24c-.68-2.07-1.45-4.13-2-6.22-.84-2.93-1.7-5.85-2.55-8.77q-2-6.9-4.06-13.8c-.56-1.91-1.17-3.8-1.68-5.72-3.55-13.19-7.09-26.39-10.54-39.61q-2.48-9.52-5.06-19c-.87-3.22-1.78-6.44-2.79-9.63a11.56,11.56,0,0,0-1.49-3.38,1.47,1.47,0,0,0-1.17-.47h0c-.28,0-.53.43-.61.65Zm75.46,264.26V805l0,.17,0-.23ZM579.14,541.43h0Z"/><path class="cls-1" d="M578.25,550.66A15.19,15.19,0,0,0,574,553.3a43.61,43.61,0,0,0-4.21,3.73c-3.46,3.46-6.17,7.68-8.84,11.74-2.81,4.29-5.53,8.6-8.05,13.07-2.78,4.95-5.33,10-7.86,15.12-1.33,2.68-2.5,5.45-3.71,8.19q-5.91,13.27-11.68,26.6c-2.57,5.94-4.67,12.09-6.91,18.16q-4.63,12.49-9.1,25c-.51,1.42-.9,2.88-1.34,4.32q-2,6.49-3.92,13c-4.27,14.29-8.46,28.62-12.28,43-4,15.21-8,30.44-12,45.65q-3.56,13.53-7,27.11c-.48,1.91-1.08,3.79-1.62,5.69q-2.2,7.64-4.37,15.3c-1.39,4.94-2.66,9.92-4.21,14.81q-3.7,11.69-7.31,23.43c-1.8,5.87-4,11.62-6.07,17.41-1.93,5.53-4.22,10.91-6.4,16.35q-1.81,4-3.58,8a70.08,70.08,0,0,1-8.18,13.88,46.67,46.67,0,0,1-5.07,5.48,0,0,0,0,0,0,0,54.09,54.09,0,0,0,15.54-17.16c1.81-3.07,3.73-6.11,5.38-9.28q3-5.84,6-11.69c.48-.94.89-1.94,1.32-2.9q1.71-3.77,3.4-7.56c1.36-3,2.8-6,4-9.11q2.3-5.77,4.59-11.54c2.43-6.16,4.9-12.31,7.12-18.55q4.87-13.72,9.61-27.49c2.13-6.18,3.92-12.48,5.83-18.72,2-6.6,4.07-13.18,5.95-19.81q3.68-13,7.24-26.08c1.69-6.16,3.26-12.38,5.08-18.51q3.54-11.86,7-23.73,3.84-13.07,7.48-26.22c.35-1.26.75-2.49,1.15-3.72q2.1-6.4,4.14-12.8c3.37-10.51,6.43-21.14,10.13-31.54q4.08-11.4,8-22.83c.84-2.43,1.67-4.86,2.51-7.28.49-1.42,1.06-2.8,1.59-4.2,1.5-3.88,3-7.75,4.63-11.6,2-4.68,4.17-9.26,6.45-13.82A93.68,93.68,0,0,1,572.22,559a40.31,40.31,0,0,1,5.44-5.77l-.21.16a13.5,13.5,0,0,1,2.11-1.35l.61-.19.4,0,.38.18c.64.66,1.25,1.34,1.85,2,1.44,1.92,2.86,3.86,4.28,5.8a0,0,0,0,0,0,0c-1-1.84-2-3.68-3-5.52-.47-.86-1-1.67-1.55-2.49a4.39,4.39,0,0,0-.82-1,2.21,2.21,0,0,0-1-.51h-.32a6.25,6.25,0,0,0-2.13.39Zm4.48,3.28.06.08-.06-.08ZM435.45,922.85l0,0,0,0Z"/><path class="cls-1" d="M300.35,571.45c4.8,10.38,9.39,20.84,14.14,31.24,3.86,10.06,8,20,12.23,29.92,5,13.45,10.38,26.76,16.06,39.94.61,1.57,1.15,3.19,1.73,4.77q2.68,7.17,5.47,14.31c3,7.67,6.11,15.28,9.3,22.87l-.36-.86c4.72,13,9.87,25.74,15.26,38.44q4.92,13.64,10.21,27.14c2.89,7.43,5.41,15,8.09,22.5,1.15,3.21,2.45,6.4,3.49,9.65q2.38,7.48,4.9,14.9c2.64,7.86,5,15.79,7.56,23.68,1.58,4.91,3,9.91,4.41,14.86,2,6.77,4.27,13.47,5.92,20.32l0,.84-.23.62-.2-.1h0l-.33-.29s0,0,0,0a2,2,0,0,0,.54.71.16.16,0,0,0,.23,0,4.49,4.49,0,0,0,1-2.92c.19-2,.27-4.07.26-6.11,0-2.27,0-4.54-.05-6.82-.05-3.73-.21-7.47-.43-11.2-.54-9.37-1.43-18.69-2.49-28-2-17.71-5.49-35.26-9.11-52.71-1.8-8.67-4.21-17.26-6.44-25.83-.75-2.88-1.4-5.82-2.3-8.65-1.17-3.68-2.38-7.35-3.6-11q-4.61-13.84-9.83-27.43c-1.37-3.56-3-7-4.61-10.48q-3.77-8.33-7.71-16.57c-3-6.33-5.91-12.8-9.39-18.91q-8.23-14.42-16.92-28.56c-3.63-5.9-7.52-11.55-11.51-17.22-4.84-6.86-9.59-13.87-15-20.28-6.58-7.76-13.23-15.44-20.26-22.81h0s0,0,0,0Zm118,315h0Z"/><path class="cls-1" d="M554.28,580.19c-2.34,4.73-4.7,9.44-7,14.18q-1.75,3.55-3.46,7.11c-.84,1.75-1.75,3.49-2.49,5.28q-17.14,38.12-33,76.78c-.85,2.06-1.59,4.15-2.34,6.25q-3.79,10.55-7.48,21.12Q490.6,733.36,483.28,756c-.78,2.42-1.51,4.85-2.25,7.28q-3.58,11.8-7.16,23.6c-3.32,11-6.6,22-9.66,33q-3.41,12.3-6.74,24.61c-1.26,4.63-2.46,9.28-3.76,13.9-3.39,12-6.62,24.11-10.18,36.09q-4.93,16.6-9.84,33.22c-3.41,11.46-6.78,22.93-10.4,34.32,0,0,0,0,0,0,5.2-13,10.24-26,15.33-39,4.06-10.4,8.24-20.77,12.14-31.23,4.34-11.61,8.79-23.19,12.92-34.87,4.41-12.47,8.8-25,13.07-37.48,7.7-22.61,15-45.35,22.47-68q8.26-24.93,15.89-50.08,2-6.46,3.89-12.92c.91-3,2-6,3.06-9q8.37-24.79,16.23-49.75,3-9.32,5.82-18.65c3.08-10,6.54-19.8,9.8-29.7l.35-1.08a0,0,0,0,0,0,0Z"/><path class="cls-1" d="M570.29,538.4c-3.71,6.69-7,13.63-10.17,20.57-3,6.43-5.88,12.88-8.84,19.31-5.81,12.63-11.79,25.18-17.54,37.83q-4.37,9.6-8.67,19.23c-2.25,5-4.55,10-6.71,15.08l.15-.34q-9.35,21.59-18.27,43.36c-2.39,5.84-4.61,11.75-6.86,17.64q-5.08,13.34-9.93,26.78c-4.88,13.46-9.85,26.88-14.61,40.39q-3.41,9.68-6.74,19.37c-1.63,4.79-3.46,9.51-5.17,14.27q-6.21,17.3-12.2,34.68c-3.76,10.93-7.57,21.85-11.36,32.78,0,0,0,0,0,0,4.64-8.94,9.25-17.89,13.68-26.93s8.81-18.1,13.14-27.18q5.26-11,10.41-22.09c1.75-3.74,3.35-7.56,5-11.35,6.88-15.83,13.52-31.76,20.13-47.71,2.49-6,4.76-12.1,7.09-18.16q5.08-13.18,9.9-26.45c5-13.84,10.17-27.63,15.1-41.51,4.64-13,9.39-26,14-39s9.3-25.84,13.76-38.83q3.44-10,6.76-20.06c2.22-6.67,4.5-13.37,7.17-19.87h0c.25-.6.51-1.18.75-1.78a0,0,0,0,0,0,0Zm-52,112.25-.34.81.34-.81Zm51.3-110.43v0Z"/><path class="cls-1" d="M549.07,549.58c-6.1,5.74-10.85,12.9-15.3,19.95s-8.58,13.95-12.42,21.17c-2.06,3.88-4.23,7.76-6.08,11.75q-3.12,6.77-6.08,13.62c-1.39,3.24-2.82,6.47-4,9.79-1.86,5-3.54,10.13-5.16,15.25-7.53,23.78-12.66,48.29-16.47,72.92,0,0,0,0,0,0,5-9.93,9.8-19.95,14.4-30.05,3.56-7.84,6.86-15.78,10.19-23.72,7.1-16.63,13.32-33.64,18.85-50.86,1.09-3.41,2.35-6.77,3.52-10.16,1.29-3.73,2.54-7.48,3.87-11.2,2.87-8,5.64-16.1,8.58-24.1,1.17-3.17,2.36-6.33,3.64-9.45a47,47,0,0,1,2.5-4.88,0,0,0,0,0,0,0Z"/><path class="cls-1" d="M556.57,537.41a24,24,0,0,0-7.94,4.33s0,0,0,0a27.18,27.18,0,0,1,6.14-1.48,22.51,22.51,0,0,1,4.33-.1,7,7,0,0,1,1.73.55l-.49-.2a24.71,24.71,0,0,1,3.12,2,37.64,37.64,0,0,1,5.11,5.28,99.33,99.33,0,0,1,7.18,11.47c2.55,4.62,5,9.29,7.07,14.13C587,583.61,590,594.24,593,604.86c3.33,11.78,6.36,23.6,9,35.56q4.07,18.59,7.65,37.26c2.3,12,4.86,23.91,7.56,35.81,1.2,5.26,2.46,10.51,3.49,15.8q10.43,53.45,24.45,106.13c3.68,13.9,7.6,27.74,12.17,41.38,4.94,14.75,10.25,29.37,15.74,43.93,0,0,0,0,0,0-2.94-17-5.26-34.12-7.74-51.21-.91-7.9-2.07-15.8-2.8-23.72q-1.37-14.82-2.9-29.6c-1.52-14.73-2.67-29.49-4.37-44.2q-2.06-17.76-4.59-35.46c-.92-6.4-1.74-12.86-2.94-19.22-3.66-19.33-7.42-38.6-11.89-57.77-1.06-4.54-2.51-9-3.82-13.49-2.25-7.64-4.7-15.21-7.41-22.7a299.72,299.72,0,0,0-20.19-44.11,132.06,132.06,0,0,0-25.81-32.8c-4.28-3.94-9.11-7.42-14.7-9.19a11,11,0,0,0-3.33-.52,13.51,13.51,0,0,0-4,.66Zm2.24,2.72.14,0-.14,0Z"/><path class="cls-1" d="M837.84,552.13c-6.88,16.68-13.43,33.49-19.89,50.33-6.06,15.78-12.37,31.46-18.55,47.19-2.69,6.85-5.21,13.77-8,20.58q-6.18,15-12.06,30.19-9.36,24.13-18.25,48.46-7.92,21.79-15.16,43.85c-2.57,7.78-5,15.62-7.53,23.41-7.16,21.71-13.87,43.62-22.67,64.74-2,4.6-4.15,9.11-6.45,13.55a96.35,96.35,0,0,1-8.15,13.4,32.77,32.77,0,0,1-4.92,5.15,36,36,0,0,1-5.49,3.52,0,0,0,0,0,0,0,29.89,29.89,0,0,0,11.84-5.39,74.31,74.31,0,0,0,11.6-11.29,199,199,0,0,0,20.38-29.05,465.65,465.65,0,0,0,25.69-50.13c7.3-16.57,14.53-33.24,21-50.16,4-10.54,7.81-21.17,11.59-31.79,2.06-5.81,4.17-11.61,6-17.49q5-15.81,9.52-31.76c1.74-6,3.52-12.05,5-18.15q4-16.37,7.76-32.82c1.73-7.56,3.23-15.17,4.76-22.78,3.35-16.63,6.34-33.33,9.43-50q1.26-6.79,2.58-13.57a0,0,0,0,0,0,0l0,0ZM701.36,907.51l-.08.1.08-.1Zm-5,5.36-.05,0,.05,0Z"/><path class="cls-1" d="M869.76,564.29a8,8,0,0,0-1.93,1.08,31.48,31.48,0,0,0-2.57,2.53,62.38,62.38,0,0,0-4,5.13c-3.67,4.93-7.18,9.93-10.52,15.08-2.77,4.25-5.31,8.58-7.84,13-4.08,7.07-8.34,14.07-12.16,21.29q-8.84,16.72-17.49,33.53a6.47,6.47,0,0,0-.47.91l-5.23,10.13c-7.94,15.36-15.63,30.84-23.28,46.36s-15.57,31-22.85,46.74c-7.73,16.69-15.4,33.38-22.53,50.34q-11.13,26.47-21.65,53.21c-5.73,14.56-11.68,29-17.31,43.63q-8.82,22.89-16.06,46.3a0,0,0,0,0,0,0q25.66-43.58,47.84-89.11,12.53-25.77,24.29-51.91c7.14-15.86,14.4-31.65,21.5-47.52,2.52-5.62,5.26-11.13,7.93-16.68l14.34-29.84c7.54-15.7,14.53-31.68,21.51-47.64q1.44-3.3,2.83-6.62l.81-1.92v0l.15-.36.3-.72,0,0,.89-2.1q7.09-16.85,14-33.78,4.76-10.84,9.45-21.72c1.47-3.37,2.93-6.73,4.51-10,2.05-4.31,4.18-8.56,6.43-12.77,1.09-2,2.24-4,3.38-6a72,72,0,0,1,3.8-6.27l.38-.47c-1.54,3.37-3.34,6.64-5.06,9.92,0,0,0,0,0,0,1.22-1.84,2.42-3.68,3.63-5.52a41.43,41.43,0,0,0,4.12-7.12c.25-.62-.32-1-.87-1a.88.88,0,0,0-.39.08Zm-1.86,4.13-.18.23.18-.23Z"/><path class="cls-1" d="M1170.88,552.91c-6.59,1-13.15,2.35-19.69,3.68-8.47,1.72-16.93,3.41-25.35,5.34s-16.58,3.76-24.79,6-16.46,4.41-24.56,7q-8.55,2.78-17.06,5.62c-7.06,2.36-14,5.12-20.81,8-22,9.39-42.8,23.26-58,42-7.75,9.54-14.42,20.29-16.42,32.59a52,52,0,0,0-.72,9.38,67.06,67.06,0,0,0,1.06,9.37c1,6.09,3.73,12,6.91,17.19a61.79,61.79,0,0,0,11.08,13.35,106.76,106.76,0,0,0,15.08,11.09c10.3,6.51,21.51,11.14,32.76,15.72,21.65,8.81,44.42,14.59,66.82,21.14,23.64,6.91,47.44,13.37,70.24,22.78,13.65,5.89,27.12,12.74,39.07,21.64a98.3,98.3,0,0,1,14.53,14.05,70.41,70.41,0,0,1,6.55,11.06,63.87,63.87,0,0,1,3,10.75,55.82,55.82,0,0,1,0,9.5,44.71,44.71,0,0,1-1.66,6.19,50.54,50.54,0,0,1-3.61,6.13,54.81,54.81,0,0,1-6,5.9,106,106,0,0,1-18.08,10.29c-21.06,8.39-43.43,12.7-65.8,16l-21,2.35-10,1.12c-2,.23-4.12.24-6.16.36-25.74,1.42-51.6,4.51-77.35,1.59a113.54,113.54,0,0,1-24.69-6.78,94.65,94.65,0,0,1-11.07-5.9c-3.76-2.34-7.34-5-10.86-7.68a164.54,164.54,0,0,1-14.1-12.66,148,148,0,0,1-10.38-11.23q-4.63-5.63-9.11-11.36c-2.15-2.92-4.27-5.84-6.19-8.93a0,0,0,0,0,0,0c2.63,8.58,6.35,16.79,9.91,25a135.54,135.54,0,0,0,6.16,12.19A139,139,0,0,0,960.26,888a149.19,149.19,0,0,0,11,13,90,90,0,0,0,14.56,12.24,93.45,93.45,0,0,0,14.84,8.12,112.83,112.83,0,0,0,19.36,6.78c5.61,1.38,11.34,2.26,17.05,3.1,7.24,1.06,14.5,1.74,21.81,2.1,12,.57,24,.2,36-.29,3.09-.12,6.22-.1,9.3-.38l13.1-1.22,16.84-1.56c8.86-.82,17.7-2.16,26.48-3.55a281.22,281.22,0,0,0,35.87-7.94,168,168,0,0,0,16.39-5.9,121.56,121.56,0,0,0,19.36-9.71,92.83,92.83,0,0,0,15.2-11.92,67.38,67.38,0,0,0,6.9-8.56,46.08,46.08,0,0,0,4.47-8,60.83,60.83,0,0,0,3.82-10.28,68.41,68.41,0,0,0,1.55-11.2,48.78,48.78,0,0,0-.12-8,79.58,79.58,0,0,0-2.05-12.33,56.61,56.61,0,0,0-2.64-7.74,93.77,93.77,0,0,0-4.68-10,65.42,65.42,0,0,0-4.53-6.92,106,106,0,0,0-7.71-9.38,116.55,116.55,0,0,0-14.39-12.53,150.72,150.72,0,0,0-15.39-10.26,256.71,256.71,0,0,0-35-16.71c-11.62-4.68-23.52-8.49-35.53-12-10.14-3-20.38-5.67-30.58-8.46l-20.69-5.64L1069.56,727c-6.34-1.73-12.63-3.77-18.88-5.8-8.16-2.64-16.19-5.68-24.12-8.95a133.91,133.91,0,0,1-26.49-14.88,60.19,60.19,0,0,1-8.22-8.18,53,53,0,0,1-4.75-8,45,45,0,0,1-2-7.58,46.5,46.5,0,0,1,0-8.64,51,51,0,0,1,2.5-9.17,94.3,94.3,0,0,1,9.78-16.38,126.53,126.53,0,0,1,20.09-19.69,154.5,154.5,0,0,1,17.66-11.3,211,211,0,0,1,20.23-9.6c9.44-3.94,19.07-7.46,28.59-11.2,2.83-1.12,5.73-2.06,8.6-3.08q8-2.85,16-5.74c8.09-2.93,16.36-5.4,24.52-8.11s16.39-5.17,24.59-7.75c3.46-1.09,6.93-2.15,10.4-3.2a150.27,150.27,0,0,1,20.15-5,32,32,0,0,1,6.34-.47l.64.19.35.27q-.52.46-1.08.89h0a15.1,15.1,0,0,1-2.21,1.08l.18-.08c-6,2.48-12.27,4.47-18.45,6.57,0,0,0,0,0,0q5.64-1.48,11.28-3,2.31-.63,4.62-1.29l2.94-.84a17,17,0,0,0,4.84-2.33,1.13,1.13,0,0,0,.4-1.52c-.71-1.21-1.4-2.31-2.86-2.66a27,27,0,0,0-5.78-.49h-.93a113.47,113.47,0,0,0-17.6,1.88Zm23.48,2.74-.09.07.09-.07ZM940.45,844.25l.08.1-.08-.1Zm32.66,34.64.61.46-.61-.46Z"/><path class="cls-1" d="M1059.07,549.81a144.57,144.57,0,0,0-32.89,14.12,126.49,126.49,0,0,0-26.92,20.85,106.19,106.19,0,0,0-18,24.76,59.23,59.23,0,0,0-5.14,13.33,28.7,28.7,0,0,0,.2,12.63,0,0,0,0,0,0,0,43.73,43.73,0,0,1,.19-7.25,27.61,27.61,0,0,1,1.71-6.2c0,.08-.06.15-.1.23a77,77,0,0,1,10-16.45,117,117,0,0,1,18.8-18.64,139.4,139.4,0,0,1,28.87-16.71,165.91,165.91,0,0,1,20.77-7.05,185.29,185.29,0,0,1,22.49-4.33,225.72,225.72,0,0,1,24.49-1.72,182.82,182.82,0,0,1,25.55,1.47,164,164,0,0,1,39.46,10.56,123.41,123.41,0,0,1,22,12.34c2.92,2.05,5.71,4.27,8.56,6.43a114.05,114.05,0,0,1,12.49,11.38s0,0,0,0a82,82,0,0,0-7.62-11.51,130,130,0,0,0-8.66-10.2,99.24,99.24,0,0,0-27.62-20.21,133.41,133.41,0,0,0-34.43-11.42,152.65,152.65,0,0,0-29.09-2.76,165.65,165.65,0,0,0-45.29,6.39Zm-70.89,56.07-.16.2.16-.2Zm-11.59,22.44v0Z"/><path class="cls-1" d="M1062.17,550.24a186.51,186.51,0,0,0-38.33,7.23,132.4,132.4,0,0,0-17.57,7,85.45,85.45,0,0,0-14.88,9.06,107.25,107.25,0,0,0-13.55,12,122.87,122.87,0,0,0-12.51,16.16A124.33,124.33,0,0,0,956.77,617a176.66,176.66,0,0,0-8,19.66c-1,2.83-1.79,5.69-2.64,8.55a65.7,65.7,0,0,0-2,10.73,42.85,42.85,0,0,0,2.44,19.48c4.2,11.9,12.25,22,21.84,30a122.57,122.57,0,0,0,14.82,10.65c5.14,3.15,10.54,5.86,16,8.49,13.62,6.61,28,11.51,42.27,16.47,7.32,2.54,14.62,5.12,22,7.59l21.3,7.13c3.77,1.27,7.62,2.42,11.35,3.84,10.69,4.08,21.4,8.13,32.08,12.23l17.42,8.2c5.13,2.41,10.37,4.64,15.38,7.29l22.59,11.94a235.87,235.87,0,0,1,31.63,19.82,88.83,88.83,0,0,1,13.13,12.76,53.42,53.42,0,0,1,4.89,8.36,41.81,41.81,0,0,1,2,6.74,43.47,43.47,0,0,1,.06,7.12,34.75,34.75,0,0,1-1.33,4.89,48.86,48.86,0,0,1-4.23,7.12,57.48,57.48,0,0,1-7.75,7.7,125,125,0,0,1-23.43,13.19c-28.47,11.64-58.83,17.82-89,22.92q-18.31,2.4-36.58,5.13c-9.94,1.15-19.88,2.19-29.88,2.65s-19.86.09-29.78-.34c-8.08-.34-16.16-1.12-24.23-1.67C976,914.75,963,914,950.16,912.37h0l-1.7-.32s0,0,0,0a115.32,115.32,0,0,0,11.85,3.36c3.86.95,7.71,1.92,11.58,2.82q13.32,3.12,26.67,6.1c4.43,1,8.86,2.06,13.32,2.89a291,291,0,0,0,37.33,4.91c6.2.34,12.42.37,18.63.34,2.58,0,5.17,0,7.75-.16q7.54-.41,15.09-.87,8.59-.53,17.2-1.14c6.87-.49,13.68-1.44,20.49-2.42,12.53-1.81,24.95-4.4,37.26-7.31a311.09,311.09,0,0,0,35.18-10.6,138.63,138.63,0,0,0,32.36-16.42,62.89,62.89,0,0,0,13-11.84,70.36,70.36,0,0,0,5.7-8.09,50.77,50.77,0,0,0,4.44-10.2,41.38,41.38,0,0,0,1.48-9.39,38.2,38.2,0,0,0-.32-7.92,47.33,47.33,0,0,0-2.05-9.57,62.19,62.19,0,0,0-4.7-10.26,66.24,66.24,0,0,0-11-13.91A118.22,118.22,0,0,0,1224.73,800a234.36,234.36,0,0,0-26.25-16.58l-12.38-6.66c-6.73-3.62-13.41-7.32-20.3-10.65l-27.73-13.44c-3.19-1.55-6.63-2.73-9.92-4L1111,741.78c-4.89-2-9.76-3.9-14.71-5.68l-27.56-9.87c-5.82-2.08-11.58-4.29-17.37-6.45-8.79-3.28-17.56-6.54-26.23-10.14-12.23-5.26-24.32-11.3-35.07-19.21a84.55,84.55,0,0,1-12.19-11.78,57.47,57.47,0,0,1-5.34-9,46.35,46.35,0,0,1-1.84-6.45,35,35,0,0,1,.09-5.12,97.92,97.92,0,0,1,3.34-11.46c1.29-4,2.78-7.84,4.36-11.69a143.08,143.08,0,0,1,15.81-27.63,92.83,92.83,0,0,1,13.51-13.56,90.82,90.82,0,0,1,16-9.23c12.85-5.06,26.47-7.76,40.11-9.7a429.2,429.2,0,0,1,55.31-3.4A443.35,443.35,0,0,1,1175,574.7c8.34,1.19,16.65,2.87,24.47,6.07a43.88,43.88,0,0,1,8.26,4.45,29.43,29.43,0,0,1,4.15,4.16,10.66,10.66,0,0,1,1,1.76l.32,1c0,.28,0,.56,0,.84a39,39,0,0,1-1.31,4.58,0,0,0,0,0,0,0c.49-.74,1-1.48,1.42-2.24a6.23,6.23,0,0,0,.65-7.06c-1.59-4.59-5.35-8.28-9.06-11.2-8.95-7.06-19.66-11.38-30.44-14.8a267,267,0,0,0-36.45-8.5,330.07,330.07,0,0,0-38.44-4.24q-6.77-.34-13.56-.34c-8,0-16,.35-23.89,1.07Zm149.56,39,.06.08-.06-.08Zm9.13,285.39-.41.32.41-.32Zm-270.7,37.77h0Z"/><path class="cls-1" d="M547.66,1093.3c-6.2.59-12.63,2-17.76,5.68-6.69,4.81-11.25,11.93-16,18.5a80.14,80.14,0,0,0-6.21,10s0,0,0,0a99.26,99.26,0,0,1,8.18-6.91c4.13-3,8.19-6,12.53-8.63l-.68.87c-3.57,4.63-6.47,9.69-9.57,14.63a65.83,65.83,0,0,0-4.06,7.46c-.65,1.41-1.22,2.85-1.78,4.29a21.42,21.42,0,0,0-1,5.89,18.81,18.81,0,0,0,1.77,8.83,24.31,24.31,0,0,0,4.43,6.46,24.63,24.63,0,0,0,7,5,31.37,31.37,0,0,0,11.29,3.23c12.71,1.4,25-4.64,33.74-13.51a63.17,63.17,0,0,0,10-14.11c1.22-2.23,2.28-4.55,3.4-6.83a44.12,44.12,0,0,0,3.63-9.91c.81-3.67.45-7-.15-10.68a17.91,17.91,0,0,0-1.79-4.78,27.69,27.69,0,0,0-2.89-4.2c-4.1-5.16-10-8-16.13-9.88a48.49,48.49,0,0,0-9.44-1.58c-1.11-.11-2.22-.16-3.34-.16-1.71,0-3.42.11-5.12.27Zm-1.43,15.09a56,56,0,0,1,10.55,2.84,43.28,43.28,0,0,1,5.89,3.33c.62.56,1.19,1.14,1.75,1.75.24.38.47.76.7,1.15l.1.37c0,.28,0,.56,0,.84-.22.86-.5,1.69-.8,2.53-1.17,2.48-2.53,4.87-3.84,7.28a88,88,0,0,1-5.75,9.2,53.55,53.55,0,0,1-6.81,7,41.17,41.17,0,0,1-5.7,3.35,33.77,33.77,0,0,1-4.93,1.38,30.56,30.56,0,0,1-4.3,0,29.21,29.21,0,0,1-3.22-.88,22.44,22.44,0,0,1-2.12-1.24c-.45-.41-.87-.83-1.28-1.27l-.23-.39c-.21-.6-.38-1.2-.54-1.83a17.72,17.72,0,0,1,0-1.94,70.72,70.72,0,0,1,3.35-11.3c1.46-3.94,2.77-7.93,4.34-11.83a94.16,94.16,0,0,1,5.36-10.67,51.67,51.67,0,0,1,7.47.36Zm-30,11.91-.35.27.35-.27Zm10.85,26.54.11.14-.11-.14Z"/><path class="cls-1" d="M532.66,1102a49.92,49.92,0,0,0-13.77,9.73c-4.24,4.06-7.91,8.37-9.91,13.95,0,0,0,0,0,0l.76-1,0,0a25.37,25.37,0,0,1,4.07-3.95,62.4,62.4,0,0,1,11.35-6.09,52.71,52.71,0,0,1,9.74-2.78,45,45,0,0,1,8.31-.09q.74.13,1.47.28a108.31,108.31,0,0,0-14.4,5,80.86,80.86,0,0,0-27.35,19.77c-1.86,2-3.63,4.17-5.39,6.28a28.82,28.82,0,0,0-4.5,8,13.5,13.5,0,0,0,.24,9.3,19,19,0,0,0,7,9.14c4.79,3.37,10.56,4.61,16.28,5.13a45,45,0,0,0,8.51-.3,67.12,67.12,0,0,0,11.36-2.2,74.79,74.79,0,0,0,16.45-7,69.31,69.31,0,0,0,8.1-5.64,54.78,54.78,0,0,0,6.57-6,48.3,48.3,0,0,0,10-15.92,29.07,29.07,0,0,0,.11-19.74,28.25,28.25,0,0,0-11.21-14.33,29.46,29.46,0,0,0-7.79-3.7,33.88,33.88,0,0,0-9.65-1.39l-1,0a38.28,38.28,0,0,0-15.46,3.54Zm18,11.93a28.68,28.68,0,0,1,3.07,1.81,29.33,29.33,0,0,1,2.77,2.77,25,25,0,0,1,1.29,2.21,26.58,26.58,0,0,1,.82,3.09,23.75,23.75,0,0,1,0,2.55,32.91,32.91,0,0,1-.87,3.18,44.36,44.36,0,0,1-3.37,5.46,56.74,56.74,0,0,1-7.37,7.28,79.25,79.25,0,0,1-14,8,72.08,72.08,0,0,1-14.58,4.13,35.13,35.13,0,0,1-5.84.07,26,26,0,0,1-3-.75l-.52-.31c.11-.45.23-.9.37-1.35a79.85,79.85,0,0,1,8.22-13.4,83.18,83.18,0,0,1,13.49-13.22A120.32,120.32,0,0,1,550.7,1114ZM507.81,1152l.4.52q-.21-.25-.4-.52Zm.88.42.1.73h0a5.5,5.5,0,0,1-.09-.72Zm.33,1.5.35.82a5.59,5.59,0,0,1-.35-.78v0Z"/><path class="cls-1" d="M517.52,1119.3a40.71,40.71,0,0,0-6.89,5.19,38.46,38.46,0,0,0-5.52,5.89,14.41,14.41,0,0,0-2.66,7.38,13.71,13.71,0,0,0,.15,3.93,14.19,14.19,0,0,0,1.75,4.4,18.8,18.8,0,0,0,3.06,3.73c-.23.46-.44.92-.63,1.38a11.85,11.85,0,0,0-.14,8.07c1.5,5.14,6.26,8.69,11,10.66a28.15,28.15,0,0,0,8.28,2,39.45,39.45,0,0,0,10.27-.56,39,39,0,0,0,15.51-6.72,41.61,41.61,0,0,0,6.87-6,31.64,31.64,0,0,0,5.56-8,27.49,27.49,0,0,0,2.58-9.36,22.86,22.86,0,0,0-1-8.52c-1.94-6.47-6.92-11.32-12.72-14.48-5.2-2.82-11.32-3.74-17.15-4l-1,0a34.83,34.83,0,0,0-17.23,5Zm10.38,17.78a47.8,47.8,0,0,1,6-5.67l.78.06a45.19,45.19,0,0,1,6.91,1.8,29.62,29.62,0,0,1,3.4,1.95c.6.53,1.17,1.07,1.73,1.66.22.35.43.71.63,1.07s.3,1,.43,1.49,0,.71,0,1.08a24.07,24.07,0,0,1-.75,2.71,35.45,35.45,0,0,1-2.28,3.73,28.77,28.77,0,0,1-11.28,8.73,36.53,36.53,0,0,1-6.13,1.75,34.2,34.2,0,0,1-3.84.14l-3.13-4.16c-.87-1.15-1.71-2.3-2.51-3.47a67.31,67.31,0,0,1,4-5.5c2-2.49,4-5,6-7.36Zm-1.49-5q-2.15,1.5-4.2,3.19-4.36,3.56-8.55,7.33a11.29,11.29,0,0,1-.32-1.13q0-.26,0-.52a10,10,0,0,1,.33-1.16q.24-.47.52-.92.26-.27.53-.51a53.67,53.67,0,0,1,8.46-5.19c1.07-.41,2.14-.77,3.22-1.08Zm-12.52,7.12-.44.56q.21-.29.44-.56Zm-.42,1-.09.22h0l.09-.21Zm-.09.21h0l-.1.24.1-.25Zm0,1.44.08.6q-.05-.3-.08-.6Zm9,1.88-.14.19.14-.19Z"/><path class="cls-1" d="M704.71,1085.33a38.37,38.37,0,0,0-12.22,2.6l-2.25-.29c-4.48-.56-8.44,0-13,.64s-7.95,2.21-12,4c-4.38,1.86-7.73,4.42-11.5,7.38a48.21,48.21,0,0,0-12.61,15.2,39.48,39.48,0,0,0-4.85,17,20.09,20.09,0,0,0,.13,3.32,54.29,54.29,0,0,0,1.09,7.5,37.16,37.16,0,0,0,2.76,6.84,29.41,29.41,0,0,0,7.23,9.38,43,43,0,0,0,5.22,4.09c3.11,3.92,7.82,6.45,12.67,8.21a20.17,20.17,0,0,0,4,.82c2.16.31,4.24.57,6.41.69a53.94,53.94,0,0,0,10.8-1c6.81-1,13.5-4,19.42-7.39l.66-.39a82.43,82.43,0,0,0,21.18-14.84,62.62,62.62,0,0,0,5.09-5.26,44.92,44.92,0,0,0,5.13-7.11,46.38,46.38,0,0,0,3.44-8.4l.18-1.29a22.21,22.21,0,0,0,.82-7.68,41.58,41.58,0,0,0-1.42-8.92A33,33,0,0,0,731.4,1095a40,40,0,0,0-14.67-8.32,47.19,47.19,0,0,0-8.53-1.29c-.69-.06-1.36-.08-2-.08-.48,0-1,0-1.46,0Z"/><path class="cls-1" d="M845,1092.07a41.6,41.6,0,0,0-10.23,1.61,47.52,47.52,0,0,0-9.68,4.06,62,62,0,0,0-8.77,6.33,42,42,0,0,0-6.41,6.57,121.16,121.16,0,0,0-10.78,15.47c-3.69,6.31-6.52,13.76-5.93,21.19a30.31,30.31,0,0,0,3.37,12.53,25.6,25.6,0,0,0,6.21,7.43,35.3,35.3,0,0,0,5.2,3.7,29.57,29.57,0,0,0,6,2.35c4.86,1.31,9.91.89,14.78,0a40.87,40.87,0,0,0,16.5-7.35A54.17,54.17,0,0,0,858.84,1152l5.81-.88c4.41-.66,8.81-1.31,13.19-2.1a104.65,104.65,0,0,0,10.74-2.45,0,0,0,0,0,0,0,116.92,116.92,0,0,1-15.41-.53c-2.47-.23-5-.44-7.43-.64a74.55,74.55,0,0,0,4.72-5.79,31.52,31.52,0,0,0,6.47-20,27.29,27.29,0,0,0-9.82-19.77,33.86,33.86,0,0,0-5-3.58,44.41,44.41,0,0,0-5.84-2.5,29.82,29.82,0,0,0-10.76-1.68Zm-4.88,33c0,.44,0,.88,0,1.33a30.83,30.83,0,0,1-.91,3.27,34.57,34.57,0,0,1-2,3.33,45.18,45.18,0,0,1-4.55,4.55q-.85.58-1.72,1.12-.94-.57-1.85-1.21,1.62-2.56,3.42-5a53.31,53.31,0,0,1,6.34-6.55q.64-.44,1.28-.85Z"/><path class="cls-1" d="M987.81,1085.58a62.09,62.09,0,0,0-10.27,1.55A57.87,57.87,0,0,0,967,1091a56.36,56.36,0,0,0-14.35,9.66,44.88,44.88,0,0,0-5.25,5.73,43.39,43.39,0,0,0-5.86,9.44,27.53,27.53,0,0,0-2.8,11.37,18.86,18.86,0,0,0,1.35,6.8,39.37,39.37,0,0,0-1.38,8.26,24.34,24.34,0,0,0,1.25,8.31,29.58,29.58,0,0,0,5.22,9.69c7.87,10.06,21.09,14,33.42,14.23a55.14,55.14,0,0,0,8.15-.61,100.73,100.73,0,0,0,10.27-1.75,77.34,77.34,0,0,0,18.82-7.43,78.17,78.17,0,0,0,15-10.93,38.06,38.06,0,0,0,6.54-7.35,28.74,28.74,0,0,0,4.16-10.43,31.4,31.4,0,0,0,.6-6.52,41.86,41.86,0,0,0-.93-6.62,22.25,22.25,0,0,0-1.2-3.73,57.81,57.81,0,0,0-2.61-5.87,43.86,43.86,0,0,0-6-8,48.18,48.18,0,0,0-8.58-7.2,31,31,0,0,0-5.19-2.92c-.65-.54-1.32-1.06-2-1.58a12.44,12.44,0,0,0-8.13-4.54l-2.1-.88a32.3,32.3,0,0,0-7.45-1.88,54.82,54.82,0,0,0-8.18-.7q-1,0-2,.05Z"/><path class="cls-1" d="M1064.37,569.91a68.56,68.56,0,0,0-27.85,10.79A77.07,77.07,0,0,0,1024.2,591a101.16,101.16,0,0,0-10.35,13.11,91.08,91.08,0,0,0-7,12.51c-1.38,2.94-2.58,6-3.81,9-.56,1.39-1.15,2.78-1.63,4.2-1.09,3.21-2.29,6.4-3.25,9.66-1.81,6.13-4.12,12.43-3.58,18.91a27.87,27.87,0,0,0,3,11.25,40.05,40.05,0,0,0,5.21,7.15,34.64,34.64,0,0,0,4.8,4.37,63.1,63.1,0,0,0,7.52,5.26c8.46,5,17.73,8.41,26.77,12.16q10.51,4.5,21.06,8.91c10.41,4.77,20.9,9.37,31.15,14.46,6.05,3,12,6.22,17.81,9.7,4.73,2.84,9.49,5.82,13.91,9.11q6,4.45,12,8.94c3.49,2.7,7,5.4,10.4,8.2a96.48,96.48,0,0,1,10.92,9.91s0,0,0,0a90,90,0,0,0-7.31-9.49c-3.07-3.62-6.2-7.18-9.33-10.74a315.56,315.56,0,0,0-25.91-26.8c-11.27-10.13-23.79-18.69-36.25-27.24-2.61-1.8-5.2-3.67-7.89-5.35q-7.12-4.44-14.27-8.84c-9.44-5.81-19.27-11-28.27-17.46a44.75,44.75,0,0,1-4.62-4.51l-.13-.2c.49-1.72,1.12-3.4,1.69-5.1s1.07-3.24,1.66-4.85c1.54-4.24,3.06-8.47,4.73-12.64A102.58,102.58,0,0,1,1043.94,616a68.74,68.74,0,0,1,8.83-8.93,64.34,64.34,0,0,1,10-5.91,96.43,96.43,0,0,1,19.37-4.92c12.78-1.51,25.69-1.37,38.54-1,5.08.16,10.17.6,15.25.87,8.49.45,16.93,1.45,25.4,2.27l8.29,1.35c2.69.43,5.45.71,8.12,1.3,9.55,2.11,19.2,3.91,28.32,7.54a37.34,37.34,0,0,1,5.25,2.89,6.46,6.46,0,0,1,.81.8l.39.71.2.65V614l-.12.2-.53.44a10.18,10.18,0,0,1-1.56.92l-7.36,2.9s0,0,0,0l5.91-.81-.2,0a14.26,14.26,0,0,0,4.59-1,3.73,3.73,0,0,0,2.37-2.79c.38-1.47-.35-3.09-1-4.35a11.31,11.31,0,0,0-1.73-2.12,30.32,30.32,0,0,0-3.75-3.27c-6-4.69-13-8-19.94-11.17-3.78-1.74-7.52-3.48-11.4-5q-6.77-2.58-13.56-5.12c-1.35-.5-2.8-.82-4.18-1.22q-4.6-1.35-9.21-2.66c-3.12-.9-6.21-1.81-9.37-2.5q-8.16-1.8-16.35-3.51a253.89,253.89,0,0,0-29.89-4.18q-5.48-.48-10.92-.48a132.14,132.14,0,0,0-20.18,1.58Zm146.56,41.29.42.32-.42-.32Zm1.23,1.13.28.36-.28-.36Z"/><path class="cls-1" d="M1075.28,699.56c14.21,8.22,28.79,16,41.93,25.92,11,8.57,21.23,18.07,31.4,27.58,5.36,5,10.65,10.12,15.79,15.36a215.93,215.93,0,0,1,14.76,16.3,139,139,0,0,1,16.22,28.89c1.16,2.75,2.3,5.52,3.48,8.26l-.29-.7q2.35,5.63,4.74,11.24c2.17,5.51,4.69,11.09,5.75,16.94,0,0,0,0,0,0a70.52,70.52,0,0,0-1.58-13.47c-.75-4.12-1.59-8.21-2.46-12.31-1.69-8-3.32-15.94-5.78-23.71a142.29,142.29,0,0,0-5.61-14.89,86,86,0,0,0-8.64-14.63c-13-18.36-30.15-33.3-48.62-46-4.28-2.93-8.72-5.63-13.26-8.13a131.39,131.39,0,0,0-15.75-7.09c-10.42-4.07-21.27-6.91-32.11-9.63h0s0,0,0,0Zm127.95,132.62.06.15-.06-.15Z"/><path class="cls-1" d="M324.66,581c5.53,23.79,11.18,47.57,17.22,71.23,4.14,16.18,8.18,32.39,12.46,48.54Q367,748.36,379,796.12c2.1,8.34,4.28,16.66,6.32,25q1.7,7,3.46,13.92c1.17,4.66,2.18,9.36,3.29,14,1.88,7.82,3.57,15.7,5.29,23.55s3.23,15.64,5.3,23.33a33.83,33.83,0,0,0,2.65,7.81s0,0,0,0a15.34,15.34,0,0,1-.64-2.61s0,0,0,.07c-1-8.27-1.36-16.62-2.1-24.91s-1.73-16.71-2.77-25c-2.19-17.45-5.27-34.79-8.48-52.07s-6.68-34.77-10.47-52.07c-1.71-7.82-3.81-15.56-5.89-23.3-1.74-6.51-3.52-13-5.52-19.42-5-16.07-10.05-32.15-15.77-48-7-19.51-14.28-39-22-58.23-2.31-5.75-4.67-11.47-7-17.2h0a0,0,0,0,0,0,0Z"/><path class="cls-1" d="M574,559.78l-.65.09a7.37,7.37,0,0,0-3.73,1,8.44,8.44,0,0,0-2.77,1.84c-2.2,2.36-3.53,5.31-5,8.15-3,5.94-6.18,11.85-9.11,17.84-3.47,7.07-6.45,14.33-9.36,21.65-1.86,4.7-3.65,9.44-5.49,14.15-1.43,3.67-3,7.31-4.5,10.94l.26-.61q-2.56,5.52-5.1,11c-1.37,3-3,5.85-4.47,8.75-3.55,6.85-7.28,13.6-11,20.36-3.53,6.41-7,12.89-10.41,19.33-1.06,2-2,4-3,6L493,714c-.84,1.76-1.68,3.49-2.46,5.28l.58-1.38-.6,1.41-.38.89.32-.75c-3.28,7.74-6.56,15.47-9.75,23.24-2.56,6.22-4.67,12.64-6.89,19-2,5.69-3.92,11.39-5.73,17.15-2.42,7.73-4.87,15.48-7.12,23.27s-4.56,15.32-6.77,23c-1.48,5.16-2.94,10.32-4.43,15.47q-4,13.93-7.82,27.92c-1.49,5.47-2.82,11-4.17,16.49-2.46,10.05-4.85,20.11-7,30.24,0,0,0,0,0,0l3-7.15-.07.18c4.74-11.23,9.69-22.36,14.42-33.59l-.06.13.09-.21v0l0-.07.16-.37-.15.37c5-11.49,10-23,14.93-34.53l-.64,1.51c5.3-12.55,10.34-25.22,15.27-37.92q4.93-12.71,9.68-25.48c2.46-6.62,5.18-13.14,7.72-19.73,1-2.59,2-5.18,3-7.78,3.27-7.67,6.48-15.37,9.69-23.08,3.41-7,6.76-14,10.14-21.07,1.14-2.38,2.48-4.66,3.73-7l6.46-11.94c3.05-5.63,6.38-11.13,9.38-16.79q3.06-5.79,6.11-11.6c1.48-2.81,2.79-5.69,4.14-8.57,1.53-3.29,3-6.56,4.43-9.91,1.33-3.18,2.74-6.34,4-9.56,2.57-6.82,5-13.66,7.42-20.55,2.11-6.15,4.21-12.28,6.54-18.35,1.75-4.59,3.44-9.22,5.23-13.8a144.69,144.69,0,0,1,9.37,17.67l7.36,15.59c1.83,3.88,3.45,7.87,5.17,11.8q2.7,6.18,5.39,12.36c2.85,7.31,5.64,14.65,8.47,22,1,2.64,2,5.27,3,7.91.95,2.49,1.66,5.09,2.48,7.62L625,698.76c.55,1.7,1,3.46,1.43,5.18l3.91,14.4q1.8,6.62,3.6,13.25c.39,1.45.77,2.88,1.09,4.35q3.06,13.76,6.11,27.54c3,13.52,5.27,27.21,7.92,40.8,2.52,12.9,4.81,25.84,7.52,38.7q2.65,12.54,5.36,25.07c.59,2.71,1.3,5.39,1.95,8.08q1.73,7.16,3.47,14.32c1.64,6.73,3.55,13.4,5.34,20.1,1.56,5.84,3.29,11.64,4.89,17.47,4,14.54,7.77,29.16,10.89,43.92,0,0,0,0,0,0-2.34-15.09-5.13-30.11-8-45.11-2.5-13.1-5.21-26.17-7.35-39.34-1.19-7.32-2.53-14.64-3.59-22q-1.91-13.27-3.9-26.53c-1.89-12.71-3.49-25.46-5.56-38.14-1.44-8.84-3-17.67-4.46-26.5q-.68-4-1.34-7.93c-.44-2.59-1.06-5.16-1.59-7.73q-2.77-13.44-5.52-26.88c-.33-1.59-.76-3.16-1.17-4.74q-1.81-7-3.62-14l-3.56-13.81c-.39-1.53-.77-3.05-1.24-4.56q-4.13-13.21-8.28-26.43c-.65-2.07-1.2-4.21-2-6.25q-1.79-4.73-3.56-9.46-2.75-7.31-5.51-14.62c-1-2.74-2-5.49-3.16-8.18-3.56-8.3-7.09-16.61-10.68-24.9l.39.93c-1.37-3.2-2.89-6.34-4.36-9.5l-5.22-11.29c-1.59-3.45-3.35-6.84-5.2-10.16-1.08-1.95-2.29-3.83-3.49-5.71a26.25,26.25,0,0,0-5-5.87,16.88,16.88,0,0,0-3.1-2.16,10.71,10.71,0,0,0-4.17-1.23l-.37,0Zm-2.88,13.92.26.11-.26-.11ZM448.54,873.9l-.06.15,0-.06,0-.09Zm-.14.34-.07.16.07-.16Zm-.15.35,0,.1.08-.18,0,.08Z"/><path class="cls-1" d="M819.21,615.16c-1.61,2.69-2.57,5.79-3.76,8.69q-1,2.44-2,4.86-6,14-11.9,28l.18-.44-.33.78v0l.16-.39L796,669.82c-.39.93-.78,1.86-1.18,2.79l.45-1.06-.49,1.16-.08.19-2.26,5.3q-12,24.37-23.75,48.82c-3,6.29-6,12.53-8.8,18.94q-6.23,14.46-12.45,28.9c-3.6,8.39-6.85,16.93-10.17,25.42q-4,10.18-8,20.35c-4.52,11.59-9,23.19-13.57,34.77-4.24,10.77-8.65,21.48-13,32.21-3.93,9.08-7.82,18.18-11.77,27.26q-2.4,5.54-4.91,11c-2.6,5.68-4.95,11.74-8.5,16.89-.38.47-.78.91-1.19,1.34a0,0,0,0,0,0,0,34.06,34.06,0,0,0,6.32-7.84c1.15-1.77,2.28-3.55,3.38-5.36,2.35-3.88,4.63-7.81,6.9-11.75,4.14-7.19,8.08-14.49,12-21.8,8.47-15.85,16.33-32,24.05-48.22q2.16-4.55,4.29-9.11-3,12.17-5.86,24.38-7.16,30.62-12.78,61.55s0,0,0,0c8.68-17.63,17.12-35.37,25.18-53.3,6.71-14.91,12.95-30,19.13-45.17q3.47-8.54,6.83-17.12c1-2.6,2-5.21,3.05-7.78q5.9-14,11.45-28.23c3.25-8.3,6.82-16.46,10.07-24.76,3-7.66,5.95-15.34,8.92-23q9.11-23.47,18.2-47a473.2,473.2,0,0,0,15.8-48c.86-3.2,1.5-6.46,2.36-9.66a9.11,9.11,0,0,0-4.15-10.21,8.84,8.84,0,0,0-4.48-1.21,9.23,9.23,0,0,0-7.89,4.45ZM677.59,942.81h0ZM794.68,673l0-.05.08-.19v0l0-.06-.15.35Z"/><path class="cls-1" d="M762.49,686.4Q751.88,712,742.06,738c-3.26,8.54-6.15,17.21-9.33,25.77s-6.25,17.19-9.1,25.87c-.34,1-.81,2.06-1.21,3.08q-1.56,4-3.05,8c-1.92,5.14-3.71,10.32-5.44,15.53-.81,2.44-1.75,4.84-2.63,7.26q-3.11,8.46-6,17c-5.21,15.25-11,30.3-16.44,45.47-2.18,6.07-4.52,12.09-6.74,18.14s-4.26,11.9-6.6,17.78c-.32.76-.66,1.53-1,2.29,0,0,0,0,0,0A247.5,247.5,0,0,0,690.76,902c4.64-6.87,9.07-13.88,13.39-21,4.76-7.79,9.16-15.76,13.48-23.8,4-7.43,7.54-15.08,11.07-22.74,3.6-7.81,6.87-15.7,9.82-23.77,1.78-4.87,3.46-9.79,5.1-14.71.95-2.84,1.62-5.78,2.38-8.67,2.06-7.83,4.06-15.69,5.65-23.63q3.11-15.54,5.62-31.19c1.06-6.53,1.8-13.13,2.6-19.7,1.06-8.81,2-17.62,2.65-26.46,0,0,0,0,0,0Z"/><path class="cls-1" d="M1121.35,567.24A148.18,148.18,0,0,0,1099.2,572a168.5,168.5,0,0,0-20.89,7.95,192.32,192.32,0,0,0-38,22.95,195.45,195.45,0,0,0-32.66,31.2,126.18,126.18,0,0,0-11.61,16.57,73.19,73.19,0,0,0-4.56,9.61,47.27,47.27,0,0,0-2.84,10,45.43,45.43,0,0,0,1.2,20.24A81.35,81.35,0,0,0,994,700.64a84.71,84.71,0,0,0,4.82,9.14,72.68,72.68,0,0,0,12.93,15.31c3.36,3.09,7,5.94,10.46,8.87a156.56,156.56,0,0,0,12.92,10,0,0,0,0,0,0,0,120.5,120.5,0,0,1-9.59-8.84c-5.34-5.46-10.86-10.8-15.58-16.82a73.08,73.08,0,0,1-4.86-7.16,70.43,70.43,0,0,1-3.75-7.52c-1.18-2.84-2.22-5.73-3.22-8.64a57.23,57.23,0,0,1-2.4-9.33,48.07,48.07,0,0,1,.06-11.12,49.35,49.35,0,0,1,3.13-11,77.08,77.08,0,0,1,4.85-9.36,114.89,114.89,0,0,1,6.77-9.83c11-14.12,24.27-26.44,38.39-37.43a214.27,214.27,0,0,1,45.83-27.11l-.72.3a162.29,162.29,0,0,1,40.59-11.09c5.23-.69,10.49-1.1,15.75-1.4q4.18-.25,8.36-.42c1.78-.07,3.57-.06,5.36,0H1167a0,0,0,0,0,0,0c-3.7-.35-7.37-.74-11.07-.91-4-.18-8.06-.32-12.1-.37h-1.44a156.87,156.87,0,0,0-21,1.49ZM1048.64,607l-.52.4.52-.4Zm-49.86,56.67-.2.47.2-.47Z"/><path class="cls-1" d="M817.75,570.15q-19.62,28.8-37.87,58.48c-9,14.54-17.24,29.53-25.44,44.53-2.66,4.87-5.27,9.74-7.68,14.73q-7.54,15.53-14.68,31.26c-7,15.31-13.35,30.87-19.54,46.5-5.93,15-12,30-17.7,45-6.16,16.13-12.06,32.34-17.59,48.7-2.71,8-5.36,16.05-8,24.09s-5.17,16-8.26,23.87l0-.06,0,.08,0,.08,0-.06a27,27,0,0,1-2.1,4,17.11,17.11,0,0,1-1.61,1.64s0,0,0,0a12.94,12.94,0,0,0,3.51-3.14,51.65,51.65,0,0,0,3.36-5.12c1.12-1.94,2.28-3.84,3.37-5.8,1.95-3.55,3.9-7.1,5.8-10.68q6.6-12.48,13-25.07c7.84-15.41,15.89-30.71,23.8-46.08,7.4-14.37,14.75-28.76,21.79-43.31s13.55-29,20-43.67q8.38-19,16.19-38.21c3.61-8.25,7.23-16.51,10.74-24.8,3.76-8.88,7.31-17.84,11-26.73l-.49,1.16c10-23.6,19.33-47.44,28.41-71.38,0,0,0,0,0,0ZM658.89,911.3l0,0,0,0Zm2.07-3.92v0l0,0Z"/><path class="cls-1" d="M795,656.36a52.32,52.32,0,0,0-3.55,5.37l-2.56,4.17c-1.15,1.88-2.32,3.75-3.46,5.64q-4.8,8-9.6,15.93-8.42,14-16.58,28.19-9.14,15.82-17.95,31.85-3.62,6.58-7.13,13.21c-1.2,2.27-2.28,4.61-3.41,6.91-12.57,25.71-24.49,51.77-35.33,78.27q-3.87,9.46-7.62,19s0,0,0,0c8.67-14.92,17.13-30,25.51-45.06q11.33-20.38,22-41.08,14.76-28.56,28.72-57.53c9.05-18.89,17.8-37.92,26.83-56.82a71.81,71.81,0,0,1,4.08-8s0,0,0,0Z"/><path class="cls-1" d="M566.69,548.19c-5.95,10.12-11.85,20.24-17.4,30.58s-11.07,20.85-16.47,31.35q-6.56,12.73-12.94,25.55c-2.06,4.14-3.9,8.37-5.8,12.58q-23.84,52.82-44.4,107c-2.57,6.74-5.36,13.39-8,20.1-3,7.66-5.93,15.35-8.9,23q-5.56,14.34-10.91,28.77c-2.71,7.26-5.09,14.62-7.5,22-3.28,10-6.4,20.08-9,30.29-1.51,6-3,12-4.33,18a122.92,122.92,0,0,0-3,17.4.16.16,0,0,0,.27.11,1.34,1.34,0,0,0,.26-.87,176.79,176.79,0,0,1,6.11-17.22c2.17-5.66,4.43-11.29,6.64-16.93q3.71-8.71,7.37-17.46c3.81-8.29,7.67-16.55,11.43-24.86,1.05-2.31,2.25-4.55,3.38-6.82q4.07-8.17,8.08-16.38,11.76-24,23-48.27c2.71-5.89,5.2-11.89,7.71-17.87q6.84-16.25,13.5-32.56c6.12-15.08,11.84-30.33,17.43-45.62q4.72-12.91,9.25-25.89c1.62-4.67,3.46-9.26,5.18-13.89q10.67-28.74,20.48-57.8c2.74-8.14,5.82-16.18,8.67-24.29a0,0,0,0,0,0,0Z"/><path class="cls-1" d="M567.74,579.47c3.37,8.36,6.85,16.66,10.28,25,1.6,3.89,3.24,7.77,4.72,11.71s3,7.81,4.44,11.72q9.09,23.82,18.61,47.47,8.48,21.09,17.32,42l-.28-.66-.06-.15,0,.08-.33-.79.49,1.17.06.15.06.14,0-.1.11.26.07.16,0-.06.07.17.28.66,0,.09.11.27,0,0h0l0,0,.08.19-.08-.18,0,.06.21.5,0-.07.05.13.28.66-.4-.95-.16-.39v0l.06.14-.06-.14c.3.88.66,1.75,1,2.62q1.36,3.58,2.72,7.17,4.35,11.4,8.83,22.75,8.75,22,17.51,44.1c5,12.61,10.26,25.11,15.53,37.59l-.17-.4c4.09,9.71,8.17,19.44,12.44,29.07q9.31,21,18.77,42,13.74,30.47,27.74,60.82s0,0,0,0c-8.33-22.53-16.17-45.24-24.27-67.86q-7.4-20.67-14.94-41.3c-4.31-11.81-8.47-23.67-12.79-35.47-8.64-23.57-17.72-47-26.69-70.41q-6.54-17.08-13.38-34c-1.12-2.74-2.43-5.41-3.67-8.11q-4.23-9.18-8.55-18.33c-11.93-25.31-24.15-50.5-36.9-75.4-2.81-5.49-5.88-10.84-8.91-16.21-3.38-6-6.83-12-10.24-18h0s0,0,0,0ZM623,717.07l.18.42-.13-.3-.05-.12Zm.2.47.1.23,0-.06-.07-.17Zm.51,1.19.41,1,.1.24-.07-.16.24.57-.3-.7,0-.06-.07-.17v0l0-.08-.06-.15,0,0,0-.08-.19-.45Zm.46,1.1.18.42-.18-.42Zm45,112.86-.38-.91.38.91Zm-45.08-113,.06.13,0-.08-.11-.25.09.2Zm-.17-.41.06.15-.13-.31.07.16Zm-.45-1.07-.05-.13.05.13Zm.18.42-.18-.42.3.7h0l-.12-.3.12.28h0l0,0-.11-.27,0-.09-.21-.48.27.64Zm-.23-.54-.1-.25-.13-.31.23.56Zm-.26-.63.08.19-.11-.25,0,.06Zm.16.38.07.16-.23-.54,0-.11.21.49Zm-.21-.49,0-.09-.4-1,.44,1.05Z"/></g></g></svg>