<svg xmlns="http://www.w3.org/2000/svg" viewBox="0 0 271.95 401.13"><defs><style>.cls-1{fill:#fff;}</style></defs><title>zk-logo</title><g id="Layer_2" data-name="Layer 2"><g id="Layer_1-2" data-name="Layer 1"><path class="cls-1" d="M266.19.35l-3.37,5.41L136.65,200.7l65.37.14q34.45,0,43.6-8.7t18.13-43l8.2,1.65-6.69,64.9-185.75.7L83.63,210,212.23,14.53l-62.81-.14q-25.29,0-33.05,8.59T105.51,56.72l-8.2,0L98.14,0Z"/><path class="cls-1" d="M253.84,179.07m11.43,36.65c-11.59.16-33.55.14-80.06.31l-20.11.07,5.69,71.76q4.51,54.21,11,75.3T203.35,396l-3.34,5.1-87.34-57L116,339l7.13,4.07a20.87,20.87,0,0,0,7,2.57,5,5,0,0,0,5.39-2.26,10.82,10.82,0,0,0,1.7-4.77,41.85,41.85,0,0,0,.09-6.15L126.42,216.25,80.94,286Q72,299.63,79.07,310.71q4.08,6.62,18.28,16.16L94,332,0,270.63l3.32-5.1q19.75,10.92,28.95,9.92t19.84-17.34L212.23,14.53l50.59-8.77L136.65,200.7l66.7.13s27.43.11,37.53-5.52"/><polygon class="cls-1" points="262.82 5.77 212.23 14.53 221.17 0.26 266.27 0.26 262.82 5.77"/></g></g></svg>