<svg xmlns="http://www.w3.org/2000/svg" viewBox="0 0 1520.17 830.91"><defs><style>.cls-1{fill:#fff;}</style></defs><title>kiteflyr-logo</title><g id="Layer_2" data-name="Layer 2"><g id="Draw_Layer" data-name="Draw Layer"><path class="cls-1" d="M192.31,354.89c-7.81,0-15.58,0-23.37.55a337.62,337.62,0,0,0-51.7,7.28,150.47,150.47,0,0,0-45.71,18.45c-4,2.47-8,4.88-11.88,7.51a145,145,0,0,0-22,18.51,124.55,124.55,0,0,0-25.21,38.36C9.32,452.72,6.65,460,4.22,467.37c0,.08.1.12.12,0,1.9-4.9,4-9.73,6-14.59l-.06.12q2.46-5,4.9-10.08A117.66,117.66,0,0,1,27.89,423.2a2.49,2.49,0,0,1-.22.26A134,134,0,0,1,49.44,402l-.08.06.09-.07.34-.27-.29.23a176.52,176.52,0,0,1,34.36-19.56,168.27,168.27,0,0,1,38.26-10.19,368.5,368.5,0,0,1,37.81-2.4c10.74-.25,21.48.86,32.15,1.8,20.85,3.05,41.65,6.6,61.33,14.41a254.89,254.89,0,0,1,32.85,18.41c8.22,5.28,16.41,10.6,24.52,16.07q13.23,8.93,26.32,18.11c8.19,5.73,16.05,12,24,18.07,15.11,11.61,30.71,22.44,46.36,33.28,8.07,5.58,16.11,11.17,24,17.08s15.62,12,23.73,17.5c8.36,5.69,16.77,11.25,25.37,16.55s17.2,10.28,25.43,16c8.07,5.6,16,11.29,23.79,17.28s15.66,12.34,23.88,17.87c4.69,3.14,9.37,6.31,14.08,9.45,4.43,3,9.17,5.52,13.74,8.24,7.95,4.75,16.15,9.08,24.34,13.37,8.72,4.57,17.46,9.21,26.43,13.27q16.87,7.65,33.95,14.83l3.49,1.47c17.31,7.42,34.4,15.06,51.08,23.78,17.79,9.31,35.77,18.23,53.56,27.48,8.94,4.63,17.79,9.41,26.69,14.14l14.57,7.69c4.78,2.51,9.89,4.59,14.79,6.84a203.2,203.2,0,0,0,30,10.93c7.16,2,14.24,3.93,21.55,5.4a160.28,160.28,0,0,0,46.9,2.49,165.09,165.09,0,0,0,70.68-24.06c10.64-6.54,20.32-14.59,29.8-22.72a277.41,277.41,0,0,0,28.08-27.94c7.55-8.62,14.65-17.66,21.77-26.61,6.56-8.26,13.21-16.45,19.46-24.93,0-.06-.06-.14-.1-.08-7.67,8-15.78,15.66-23.84,23.31-10.91,10.33-21.9,20.57-33.73,29.85-16.55,12.48-34.31,23.87-53.29,32.26a163.87,163.87,0,0,1-36.66,10,166.44,166.44,0,0,1-37.07.06,157.2,157.2,0,0,1-33.37-9l-12.8-5.15L854,699.78c-4.53-2.19-8.8-4.92-13.17-7.41-8.15-4.69-16-9.89-23.9-15-17.3-11.07-34.92-21.65-52.57-32.17-7.61-4.55-15.18-9.21-22.93-13.56-9.57-5.38-19.2-10.48-29-15.42-8.11-4.09-16.43-7.75-24.67-11.51-9.73-4.43-19.4-8.92-29.08-13.4-8.94-4.15-17.72-8.68-26.49-13.17-8.22-4.21-16.49-8.46-24.48-13.11-9.53-5.54-18.86-11.21-28.17-17.12-8.34-5.3-16.37-11.19-24.46-16.9-16.19-11.43-33.18-21.41-50.44-31.14s-34.2-20.15-51-30.86c-15.9-10.16-32.41-19.32-48.64-28.91-17-10.06-33.71-20.84-51.07-30.31Q327,395.19,299.78,381.28a298.72,298.72,0,0,0-35.85-15.7c-17-6-35.07-7.55-52.83-9.59-2.93-.34-5.89-.4-8.84-.55-3.22-.19-6.49-.55-9.71-.55ZM949.82,720.76,948,721l1.78-.25ZM49.45,402h0l.06,0-.05,0Z"/><path class="cls-1" d="M1401.95,27.57c-7.47,16.25-15.09,32.39-23.61,48.14s-17,31.3-25.74,46.78c-9.31,16.41-19.4,32.29-29.91,47.95q-16,23.81-30.13,48.72c-9.63,16.9-19.12,33.87-28.21,51.07-8.84,16.69-17.5,33.41-26.65,49.94s-18.86,32.58-27.42,49.39c-8.68,17-16.88,34.28-25.52,51.33-8.76,17.28-18.68,34-28.37,50.77-9.41,16.27-19.55,32.11-29.26,48.2-9.45,15.64-17.79,31.89-26.65,47.87q-3.56,6.47-7.14,12.93c-2.75,5-6,9.77-9,14.61-4.45,7.18-9.27,14.16-14.18,21-13.6,19-27.46,37.9-39.44,58,0,.06.06.14.12.08,12.16-15.07,25.68-28.89,39.09-42.86,7.24-7.53,14.31-15.16,21.35-22.88,2.53-2.75,4.86-5.67,7.24-8.54,3.2-3.88,6.54-7.65,9.51-11.68,12-16.15,23.55-32.58,35.33-48.86,11.31-15.58,23.31-30.65,34.7-46.17,10.83-14.75,21.08-30,30.63-45.63,10.24-16.79,19.49-34.09,28.65-51.46,8.48-16.05,17.66-31.71,26.3-47.69q13.73-25.36,25.62-51.62c7.91-17.52,15.84-35.05,23.47-52.69s15.48-35.41,24-52.77c8.26-16.83,16.83-33.47,23.77-50.91s13-34.94,19.49-52.39c7.55-20.15,15.09-40.31,22.1-60.66a.06.06,0,0,0-.06-.08.06.06,0,0,0-.05,0Z"/><path class="cls-1" d="M1090,131.33a279.86,279.86,0,0,0,35.31,31.73c9.94,7.45,20.76,13.78,31.38,20.21q16.61,10.08,33.1,20.34Q1224,225,1259.53,244.3c24.42,13.27,49.61,24.77,74.89,36.28,3.1,1.4,6.09,3.2,9.11,4.78,2.43,1.29,5,2.41,7.32,3.84,5.89,3.58,11.86,7,17.68,10.7,11.25,7.14,22.56,14.35,34.44,20.36,17.19,8.72,35.12,15.67,53,22.87,11.81,5.39,23.64,10.76,34.26,18.35.06,0,.12-.06.06-.1-11.27-13-24.83-23.55-38.89-33.35-6.8-4.73-13.8-9.19-20.66-13.82s-13.79-9.73-20.63-14.7q-13.34-10.71-26.76-21.31A304.88,304.88,0,0,0,1350.6,256c-10-6-20.88-10.81-31.42-15.78-10.8-5.1-21.61-10.12-32.44-15.16-23.05-10.76-46.25-21.23-69.36-31.89-21.83-10-43.62-20-65.81-29.19-11.3-4.87-22.51-9.74-33.32-15.61-9.67-5.26-19-11.11-28.13-17.18h0c-.06,0-.09.07,0,.11Z"/><path class="cls-1" d="M1397.22,0c-11.35,7.93-23.05,15.13-34.86,22.34-10.4,6.37-21.47,11.82-32.25,17.54q-15,7.95-30.31,15.42c-5,2.45-10,5-15.15,7.26q-9,4-18,8-10.18,4.1-20.29,8.41c-24.94,10.37-49.49,21.62-73.91,33.17-12.28,5.79-24.6,11.51-36.79,17.5-11.55,5.67-22.9,11.72-34.32,17.66a.07.07,0,0,0,.06.12c21.79-5.85,43.34-12.85,64.77-19.95,22.62-7.49,44.88-15.92,67-24.83,11.63-4.71,23.27-9.27,34.78-14.26,4.27-1.86,8.44-3.8,12.63-5.83,5.36-2.65,10.89-5.12,16.09-8.09,21-11.94,41.42-24.69,60.78-39.13A327.74,327.74,0,0,0,1397.3.11a.07.07,0,0,0,0-.11Z"/><path class="cls-1" d="M1086.93,152c-3.5,23.31-7.34,46.56-10.91,69.87-3.28,21.47-7.55,42.84-11.05,64.28-7.2,44.05-15,88-20.9,132.21.2-1.56.42-3.12.61-4.69q-2.16,14.92-4,29.88-1.9,13.79-3.63,27.6c-1.2,8.39-2.15,16.86-3.59,25.2q-2.7,15.48-5.2,31c-3.46,21.19-7.2,42.33-10.58,63.55-6.17,38.91-11.74,77.8-12.08,117.24a.07.07,0,0,0,.14,0c11-53.62,29.4-105.3,45.16-157.62,7.55-25.05,14.77-50.3,19.59-76,5.24-28.06,9-56.21,11.9-84.62,4-39,6.94-78,8.28-117.19.61-17.83,1.13-35.75.55-53.58-.69-22.44-2-44.74-4.13-67.1a.1.1,0,0,0-.09-.06.05.05,0,0,0-.05,0Z"/><path class="cls-1" d="M1409.25,18.59c-1.28,30-3.62,59.83-4.9,89.78a638.8,638.8,0,0,0,1.58,80.21,352.38,352.38,0,0,0,6.37,41.36,316.74,316.74,0,0,0,9.89,38.61c4.45,13.15,9,26.67,15.62,38.93a214.27,214.27,0,0,0,22.2,33.59c5.73,7.1,12,13.78,17.64,20.94l-.08-.12a14.36,14.36,0,0,1,1.6,2.43c0,.06.14,0,.12,0-2.21-10.18-7.29-20.13-11.35-29.68-2.9-7.13-6.26-14.3-8.44-21.68-2.55-8.64-5-17.12-7.14-25.86-4.11-16.82-6.57-33.92-9.52-51q-1.49-11.47-3.19-22.9-1.47-13.12-3.41-26.17-1.58-13.39-3.51-26.73c-1-8.87-2.18-17.72-3.39-26.57q-1.41-12.19-3.07-24.37c-3.89-30.64-8.83-60.95-16.9-90.8a.05.05,0,0,0-.05,0,.06.06,0,0,0-.07.06Zm16.65,88c.07.51.14,1,.21,1.55l-.21-1.55Z"/><path class="cls-1" d="M1479,362.8l-1.52,2,0,0a70.5,70.5,0,0,1-8.62,8.74c-15.55,11.42-33.08,19.76-50.26,28.37-11.9,6-23.63,12.22-35.27,18.66-23,12.71-47.12,23.25-69.67,36.66s-45.1,27.07-68.39,39.36c-24.67,13-48.84,26.77-72.52,41.52-21.55,13.42-41.74,29.32-61,45.87s-37.72,33.57-55.93,51.11c-7.79,7.51-15.11,15.76-22.22,23.92q-13.23,15.1-26.43,30.23c-15.5,17.68-31.75,34.76-48,51.74-.06,0,0,.14.08.1,15.66-11.27,31.57-22.18,47.17-33.55s30.38-23.33,45.25-35.4q10.25-7.93,20.44-15.91,34.32-24.7,68.77-49.15c22.2-15.76,46.17-28.71,70.09-41.6,22.93-12.38,46-24.64,68.29-38.24,24-14.65,46.23-31.65,69.06-48,10.28-7.37,20.74-14.49,30.94-22,10.56-7.79,20.62-16.21,30.61-24.71,9.55-8.17,19.44-15.92,29.2-23.84,5.4-4.39,10.64-9,15.76-13.72a162.46,162.46,0,0,0,16.92-18.25c3.28-4.15,5.4-8.94,7.34-13.8,0-.05,0-.08-.06-.08l-.06,0ZM1074.65,654.17l-1.36,1.07,1.36-1.07Z"/><path class="cls-1" d="M1071.93,185.29a14,14,0,1,0,14-14,14.12,14.12,0,0,0-14,14Z"/><path class="cls-1" d="M1381,18.32c-25.27,13.25-51.46,24.55-77.5,36.16q-14.29,5.69-28.45,11.67c-29.54,11.18-58.94,22.91-87.56,36.28a937.23,937.23,0,0,0-100.5,55.2.07.07,0,0,0,.06.12c28.09-7.83,55.91-16.45,83.63-25.56s55-19.22,81.68-30.9c5-2.21,10-4.78,14.89-7.22,5.48-2.73,11.09-5.34,16.43-8.34,10.93-6.15,22-12.26,32.5-19.12A626.38,626.38,0,0,0,1381,18.42c.05,0,0-.1-.06-.1Z"/><path class="cls-1" d="M1407.3,17.21c-2.51,28.81-5.77,57.55-7.35,86.42-.61,10.8-2.21,21.59-3.06,32.39-.77,9.87-1.3,19.75-1.86,29.64-1.29,23.45-1.72,47.15-.95,70.62.77,22.82,1.72,46.42,8.32,68.43,0,.08.14.06.12,0-1.56-17,.91-34.09,2.95-50.95,2.84-17.94,5.78-35.9,8.4-53.88,2.57-17.44,5-34.92,5.6-52.53.65-18.39,1-36.74-.81-55q-1.9-19.37-4.57-38.63c-1.66-12.32-4-24.3-6.66-36.46a0,0,0,0,0,0,0s-.08,0-.08.06Z"/><path class="cls-1" d="M1402,6.51c-2.61,2-5.22,4.07-7.83,6.11l.18-.12c-8.12,6.25-16.53,12.14-24.9,18.06-14.4,7.38-28.91,14.57-43.35,21.86-11.88,6-23.88,11.78-35.9,17.46-12.85,6.07-25.58,12.38-38.53,18.21q-43.63,19.66-87.22,39.35l-2.19.9c-5.57,1.56-11.17,3-16.74,4.49-5,1.32-10,2.59-15,3.84-5.45,1.36-11.09,2.33-16.41,4.14a9.28,9.28,0,0,0-6.67,6.35c-1.36,5,1.68,9.19,6.19,10.89,8.11,3,17.77.79,26-.42,7.43-1.07,14.79-2.93,22.1-4.61,2.95-.69,5.85-1.62,8.78-2.45,3.24-.93,6.56-1.7,9.75-2.81,8-2.81,16.19-5.34,24-8.66q11.06-4.69,22.08-9.45c6.82-2.93,13.46-6.39,20.15-9.63,12.34-6,24.48-12.26,36.38-19,4.88-2.79,10-5.38,14.67-8.44,6.09-4,12.18-8,18.25-12,4.15-2.75,8.13-5.73,12.14-8.66,4.33-3.12,8.74-6.17,12.89-9.51q8.9-7.12,17.75-14.27c3.1-2.49,6.17-4.94,9.06-7.67q7.46-7.1,14.91-14.22,13.12-8.08,26-16.48c.06,0,0-.14-.06-.1q-10.06,5.68-20.27,11.1c4.7-4.62,9.29-9.35,13.83-14.16a.06.06,0,0,0,0-.1l-.06,0Z"/><path class="cls-1" d="M1110.81,167.79q-7,22.6-14.22,45-7.33,22.63-14.41,45.3c-2.39,7.59-5,15.09-7.53,22.64q-7.21,21.44-14.22,43c-6.29,19.38-12.55,38.79-18.07,58.38-2.27,8.07-4.53,16.11-6.72,24.2-1.23,4.55-2.61,9.08-3.66,13.66q-4.57,19.75-8.92,39.5c-2.49,11.27-4.43,22.68-6.54,34s-4.11,22.7-6.09,34.07q-3.08,17.53-6.15,35c-1.88,10.74-4,21.41-6.07,32.09-1.62,8.46-3.5,16.88-5.28,25.33-2.1,9.93-4.15,19.85-6.45,29.74,0,.08.1.12.12,0,7.35-23.51,14.18-47.19,20.68-70.94,6.39-23.35,11.82-47,17.36-70.54,2.65-11.39,5.4-22.74,8.07-34.13,2.53-10.78,5.4-21.47,8.17-32.19,2.57-10.06,5.16-20,8-30,3.24-11.47,6.17-23.05,9.51-34.5q9.76-33.48,19-67.12,5.84-21.23,11.51-42.57c2.31-8.68,4.15-17.5,6.17-26.26q4.27-18.48,8.38-37c2.73-12.2,5.12-24.46,7.49-36.74a.07.07,0,0,0-.07-.08.05.05,0,0,0-.05,0Z"/><path class="cls-1" d="M1009.36,461.24c-.77,14.59-1.72,29.16-2.61,43.75-.57,9.27-1,18.57-1.8,27.82q-1.63,18.57-3,37.17c-.36,4.88-1.23,9.75-1.82,14.61q-1,8-1.83,16.1-2.41,13.51-4.62,27.08c-.73,4.53-2,9-3,13.5-.83,3.78-1.52,7.59-2.51,11.33-5,18.78-10.12,37.55-15.84,56.15,0,.06.1.1.12,0,5.65-12.42,10.6-25.11,15.3-37.9,4.61-12.54,8-25.43,11.39-38.32,1.44-5.48,2.39-11.07,3.46-16.65s2.25-10.93,2.91-16.47c1.5-12.61,3-25.21,3.6-37.88.67-13.94,1.44-27.88,1.4-41.82,0-19.53-.18-39-1-58.52a.06.06,0,0,0-.12,0Z"/><path class="cls-1" d="M1462.42,373.9c-17.93,12.18-35.23,25.29-52.71,38.08-16.15,11.82-32.33,23.63-48.6,35.23-18.51,13.21-37.15,26.2-55.66,39.4-16.53,11.82-32.64,24.32-48.76,36.72-7.2,5.54-14.69,10.8-22.14,16-7.83,5.48-15.6,11-23.29,16.69-16.49,12.12-32.6,24.69-49.25,36.58-16.43,11.72-33.53,22.5-50.3,33.75-16.11,10.81-31.39,23-46.64,35q-13.33,10.2-26.56,20.5c-13.31,9.86-26.47,19.87-39.8,29.65-.08.06,0,.16.06.12q33.07-15.9,64.95-34c9.43-5.34,18.76-10.85,28.1-16.41,9-5.38,18.23-10.48,27.36-15.7,8.15-4.69,16.63-8.82,24.93-13.23,9.37-5,18.76-9.87,27.86-15.36,19.16-11.59,37.55-24.3,55.87-37.17,16.69-11.72,33.35-23.59,49-36.68,16.9-14.14,33.49-28.63,50.38-42.81C1343.72,486.42,1360,472.4,1376,458s31.14-29.2,46.28-44.23c13.37-13.29,26.24-27.13,40.22-39.8,0,0,0-.11,0-.11Z"/><path class="cls-1" d="M1418.52,14.08q-13.2,36.33-26.28,72.74-5.55,15.45-11,31c-3.72,10.5-7.77,20.88-11.68,31.3-4.79,12.8-10.18,25.35-15.32,38q-7,15.78-13.86,31.59c-4.51,10.36-9.41,20.54-14.1,30.82-9.11,20-17.87,40.25-26.49,60.52-5.22,12.28-10.47,24.54-15.66,36.84l.21-.52q-3.41,7.53-6.82,15.09l-4.39,9.81c-.65,1.48-1.25,3-2,4.47q-4.24,8.16-8.46,16.35c-2,3.84-3.82,7.81-6.05,11.53-5.69,9.37-11.25,18.84-17.18,28.06-6.47,10-12.81,20.07-19,30.25-5.89,9.67-11.55,19.49-17.2,29.3-2.53,4.37-5.22,8.66-7.83,13-2.27,3.76-4.47,7.55-6.92,11.19q-5.9,8.81-11.78,17.64c-2.55,3.8-5.3,7.45-8,11.15-6.84,9.47-13.84,18.8-20.88,28.13-.22.28-.43.57-.64.85-10.58,13.61-21.21,27.16-32,40.59-11,13.78-23.23,26.69-35.61,39.29a.06.06,0,1,0,.08.08q12.66-11.57,24.93-23.53c7.89-7.71,15.3-15.88,22.74-24s14.39-16.23,21.55-24.42c6.37-7.28,12.71-14.59,18.82-22.08,7.26-8.9,14.51-17.73,21.43-26.89,3.4-4.51,7-8.92,10.22-13.58l10.74-15.62c5.71-8.34,11-17,16.77-25.27,6-8.58,11.8-17.22,17.93-25.68q6-8.33,12.06-16.69c2.79-3.86,5.34-7.89,8-11.82,2-3,4-5.91,6-8.88.77-1.17,1.64-2.31,2.33-3.54q4.92-8.69,9.83-17.38c1.94-3.46,4-6.86,5.67-10.42q4.72-9.85,9.35-19.67c4.73-10,9-20.23,13.27-30.43,8.74-20.72,17.2-41.56,25.8-62.36,8.09-19.57,16.35-39.07,23.88-58.86,3.72-9.75,7.39-19.47,10.74-29.34,3.48-10.28,7.08-20.52,10.16-30.92,3.16-10.62,6.41-21.23,9.27-31.93q4.24-15.81,8.42-31.63,9.79-36.92,19.14-74a.07.07,0,0,0-.07-.08.05.05,0,0,0-.05,0Z"/><path class="cls-1" d="M1101.86,167.88c36.36,20.19,73,39.86,109.43,60,16.31,9,32.84,17.66,49.05,26.89,16.86,9.59,33.85,19,50.81,28.51,17.48,9.77,35.15,19.22,52.85,28.57,15.36,8.13,31.14,15.4,46.92,22.74,17.44,8.11,35.27,15.6,53,23.17s35.31,15.83,51.67,26l1.8,1.52.79,1.09c.1.36.21.71.32,1.06-.07.19-.15.39-.23.58l-.53.51-1.36.28c-.53,0-1.07-.07-1.61-.09h.1a32.72,32.72,0,0,1-4.15-.79.06.06,0,1,0,0,.12c2.21.81,8.32,3.74,9.45-.38a5.67,5.67,0,0,0-1.19-3.91,62.22,62.22,0,0,0-10.44-9.15,250.25,250.25,0,0,0-21.53-14.53c-15.46-9-31.22-17.5-47-25.92-18.09-9.65-36.08-19.4-54.13-29.08-6.86-3.7-13.5-7.79-20.25-11.7q-10.8-6.26-21.65-12.44c-31.65-18.05-63.76-35.41-96.76-50.91-16.13-7.59-32.27-15.26-48.64-22.32q-32-13.79-64.3-27c-10.72-4.41-21.51-8.64-32.31-12.87h0s-.07.09,0,.13Zm413.46,215.67.11.1-.11-.1Zm1.9,1.52.06.09-.06-.09Z"/><path class="cls-1" d="M1397.22,32.31c-1.29,1-2.57,2-3.86,3h0c-9.79,7.57-20.21,14.35-30.35,21.43-3,2.1-6.33,3.84-9.49,5.69q-8.39,5-16.77,9.93c-3.42,2-7,3.8-10.5,5.67q-7.18,3.8-14.31,7.65c-4.51,2.41-9.23,4.51-13.84,6.78-4.35,2.14-8.64,4.41-13,6.43q-27.2,12.43-54.27,25.21c-18.45,8.7-36.77,17.64-55.48,25.74q-18.35,7.95-36.69,15.93-6.59,2.74-13.16,5.55h0l-.11,0-.27.11.06,0c-10.06,4.08-20,8.55-30.37,11.78-.08,0-.06.14,0,.12,10.72-2,21.08-5.56,31.4-9,10.12-3.4,20.13-7.22,30.11-11,8.36-3.18,16.77-6.39,25-9.87,9.41-4,18.9-7.79,28.17-12,18.41-8.42,36.77-17,55-25.84,9.23-4.51,18.55-8.9,27.58-13.74S1310.38,92.2,1319.3,87l17.77-10.5c4.29-2.55,8.4-5.46,12.57-8.19q4.66-3,9.29-6.07c1.42-.93,3-1.8,4.33-2.83l14.83-11.45.16-.12c2.93-2.27,5.87-4.53,8.8-6.82,3.54-2.73,6.86-5.69,10.24-8.58,0,0,0-.12,0-.12l0,0Zm-3.88,3h0ZM1139.08,165.53l-.23.1.23-.1Zm-13.91,5.86.2-.08.09,0a1.94,1.94,0,0,0-.29.12Z"/><path class="cls-1" d="M1100.43,166.67c-10.48,45.73-20.23,91.64-28.81,137.75q-2,10.47-4,20.92c-2,10.44-3.52,21-5.77,31.38-4,18.19-7.28,36.52-11.61,54.63-4.9,20.52-9.37,41.12-14.39,61.63-2.33,9.55-4.41,19.18-6.88,28.71-3.06,11.68-6,23.37-9,35.07-9.31,36.62-19.44,73-28.15,109.79-5.91,24.91-11.9,49.8-19.24,74.36,0,.08.1.1.14,0,15-36.4,26.95-73.87,40.57-110.78S1041,536.27,1053,498.75q5.9-18.51,11.59-37.05c1.4-4.63,2.45-9.39,3.64-14.08,2.14-8.38,4.19-16.81,6.23-25.21,2.31-9.63,4.21-19.24,6-29,2.08-11.07,4.33-22.18,5.85-33.35.14-1.09.28-2.19.43-3.28,1.84-13.66,3.84-27.36,5.12-41.1q2.46-26.13,4.37-52.32c2.35-32.15,3.46-64.45,4.31-96.68,0,0,0-.06-.08-.06a.06.06,0,0,0-.06,0Z"/><path class="cls-1" d="M1446.88,432c-5.5,2.39-11,4.9-16.31,7.57-2.71,1.32-5.48,2.59-8.13,4-2.83,1.52-5.67,3-8.5,4.59-5,2.71-9.89,5.69-14.81,8.6-1.5.89-3,1.84-4.43,2.79-3.24,2.1-6.49,4.21-9.71,6.31-4.57,3-8.86,6.33-13.25,9.57-1.56,1.17-3.18,2.29-4.71,3.52l-7.77,6.33c-7.95,6.45-15.74,13.07-23.75,19.42q-7.91,6.29-15.82,12.56l0,0c-17.16,13-34.3,26-51.86,38.44q-9,6.38-18.07,12.79c-3.08,2.19-6.31,4.21-9.47,6.29-9,5.89-18,11.94-27.17,17.6l-20.07,12.4c-3,1.86-6,3.82-9.07,5.56q-16.7,9.46-33.35,19c-.87.49-1.78.93-2.69,1.4l-8.52,4.43q-10.23,5.31-20.44,10.64-13.61,7.06-27.23,14.14-28.41,14.8-57,29.12l-10.6,5.28c-2.08,1-4.19,2-6.23,3.12-6.7,3.56-13.39,7.12-20,10.76-.06,0,0,.14.08.1,6.58-3.28,13.21-6.48,19.81-9.71,5.06-2.45,10.22-4.69,15.34-7,10.5-4.8,21-9.73,31.42-14.63,18.37-8.6,36.6-17.54,54.83-26.43q16.85-8.24,33.71-16.51c1.25-.61,2.47-1.34,3.72-2l9.25-5q9.76-5.31,19.49-10.66c2.77-1.52,5.44-3.16,8.15-4.78l20.13-12.28c3.06-1.88,6.17-3.7,9.17-5.67q8.81-5.87,17.64-11.78l8.34-5.58c.89-.61,1.8-1.19,2.67-1.82q8.16-6,16.33-12c3.44-2.51,6.92-5,10.3-7.61q8.66-6.67,17.36-13.35c16.71-12.87,33.18-26.08,49.19-39.78q12.22-10.45,24.52-20.8L1384,469.43q7.27-5,14.5-9.95c1.8-1.23,3.68-2.33,5.52-3.48q4-2.55,8-5.06c2.37-1.48,4.82-2.83,7.24-4.23,2-1.19,4-2.33,6.07-3.44,5-2.69,9.91-5.38,14.95-7.91,2.21-1.11,4.45-2.19,6.68-3.26.07,0,0-.12,0-.12Z"/><path class="cls-1" d="M1469.8,388.33c-9.55,11-19.16,21.83-28.47,33-.06.06,0,.16.08.1,9.79-10.76,19.34-21.67,28.47-33a.07.07,0,0,0,0-.12l0,0Z"/><path class="cls-1" d="M1460.24,375.21a14,14,0,1,0,14-14,14.12,14.12,0,0,0-14,14Z"/><path class="cls-1" d="M1432.78,36.67c-3.24,13.29-5.65,26.75-8.07,40.2a230.67,230.67,0,0,0-3.8,38.65c-.08,8.7.36,17.42,1.07,26.1.67,8.36,1.54,16.85,2.95,25.13q1.75,10.29,3.58,20.56c.85,4.69,1.58,9.39,2.67,14,2.85,12.24,5.79,24.46,9.06,36.6,11.15,41.6,23.94,82.82,31.69,125.23a.06.06,0,0,0,.12,0,648.9,648.9,0,0,0-11.53-76.52c-5-24.44-10.38-48.82-15.64-73.19-1.94-9-3.91-17.89-5.65-26.91-3.07-15.89-6.33-31.69-8.54-47.75a293.12,293.12,0,0,1-2.88-42.38c.12-8.52.79-17,1.48-25.49.81-9.61,1.74-19.2,2.85-28.77a.24.24,0,0,1,0,.07c.26-1.85.53-3.7.79-5.53a.07.07,0,0,0-.07-.08.05.05,0,0,0-.05,0Zm-2.17,101.59,0,.33,0-.33Z"/><path class="cls-1" d="M1409,5.46c-3,.06-6.05,1.19-8.86,2a115.15,115.15,0,0,0-13.76,5.58l-6.27,2.83q-13.61,6.14-27.21,12.44c-18.41,8.54-36.62,17.42-54.79,26.49q-15.36,7.68-30.59,15.68c-7.67,4-15.2,8.24-22.76,12.5q-7.92,4.48-15.82,9c-2.95,1.68-5.71,3.64-8.56,5.5-5.44,3.54-10.85,7.12-16.27,10.68-3.34,2.21-6.54,4.63-9.81,7-12.75,9.15-25.64,18.23-37.88,28.11,0,0,0,.14.08.1,9-6.15,18.25-11.8,27.46-17.54,3.8-2.37,7.61-4.71,11.43-7.08,3.54-2.17,7-4.45,10.62-6.5q8.24-4.72,16.51-9.45c3.06-1.76,6.09-3.66,9.25-5.26q15.75-8,31.44-16.11c8.82-4.59,17.81-8.86,26.67-13.39q11-5.63,22-11.43c18-9.49,35.83-19.1,53.76-28.65q7.83-4.18,15.66-8.4c6.48-3.48,12.89-7.18,19.67-10l-.09,0a47.94,47.94,0,0,1,8.29-2.62,19.66,19.66,0,0,1,3.47,0l1.08.25-.12-.06c.32.15.63.3.95.44.28.3.57.6.85.89s.38.76.58,1.13l.22,1.17h0c.08,1.8.06,3.6.06,5.42a.06.06,0,0,0,.12,0c.14-1.36.26-2.75.36-4.11a7.94,7.94,0,0,0-.06-2.65,5.28,5.28,0,0,0-2.55-3.16,8.6,8.6,0,0,0-4-.7Zm3.71,1.4h0Zm-3.62,0h0Zm6.9,2.62,0,.06a.14.14,0,0,1,0-.06Z"/><path class="cls-1" d="M1096.45,148.23c-18.17,6.94-35.77,15.26-53.3,23.65-.08,0,0,.12,0,.12,18.72-4.37,37.35-9.21,55.62-15.24,21.49-7.12,42.25-16.87,62.42-27.07.08,0,0-.12,0-.12-21.87,4.94-43.77,10.64-64.73,18.66Z"/><path class="cls-1" d="M1099.59,157.44c-.38,2.79-.73,5.58-1.09,8.38v-.1c-1,7.47-2.27,14.89-3.44,22.34q-1.87,12-3.7,24c-.81,5.32-1.94,10.6-2.93,15.9q-2.61,14.29-5.18,28.61c-2.43,13.56-5.22,27.09-7.81,40.63-2.55,13.35-5.26,26.65-7.89,40q-7.89,40-15.66,80.13c-5.65,29.2-11,58.46-16.37,87.75q-5.81,31.79-11.9,63.57c0,.08.1.12.12,0,7.18-28.95,13.74-58,20.13-87.15,2.75-12.54,5.34-25.09,8.07-37.62q4.63-21.2,9.13-42.47,9.37-44.28,17.66-88.73c2.59-13.8,4.86-27.66,7.2-41.5,2.27-13.42,4.11-26.91,6-40.37.81-5.65,1.6-11.29,2.39-16.94.51-3.62.79-7.3,1.17-10.93.83-8,1.62-16.05,2.43-24.08.71-7.14,1.29-14.26,1.76-21.41,0,0,0-.07-.05-.07a.07.07,0,0,0-.06.07Z"/><path class="cls-1" d="M142.57,368.35c-6.72.65-13.39,1.78-20.07,2.75-15.3,2.25-30.23,7.65-43.93,14.71-3,1.52-6.05,2.91-8.92,4.61l-11,6.47a196.6,196.6,0,0,0-38.28,29.62A172.88,172.88,0,0,0,0,451.35a.06.06,0,1,0,.1.06l2.14-2.79,0,0A183.2,183.2,0,0,1,32.5,418.41l-.24.18A238.78,238.78,0,0,1,66.74,397c5.72-3,11.56-5.59,17.45-8.24l-.07,0a150.55,150.55,0,0,1,34.7-9.29l-.16,0,.19,0,.82-.11-.49.08c6.82-.84,13.79-1.52,20.66-1.68,11.13-.22,22.12-.41,33.21.92a211.13,211.13,0,0,1,27.67,6.22,275.3,275.3,0,0,1,29.14,10,230.67,230.67,0,0,1,39.47,22.33q13.55,9.49,27.13,19c7.34,5.14,14.81,10.08,22.18,15.13,4.05,2.77,8.21,5.44,12.14,8.36s8,5.93,11.94,8.88c4.73,4,9.61,7.89,14.14,12.13,5.08,4.75,10.14,9.49,15.24,14.24,10.4,9.67,20.78,19.46,31.79,28.43,11.59,9.43,23.19,18.82,35,27.92,5.48,4.19,10.85,8.56,16.49,12.54,6,4.21,11.8,8.7,18,12.61,9.57,6.07,19.12,12.12,28.93,17.81,4.31,2.51,8.6,5,13,7.41,5.4,2.93,10.74,6.07,16.25,8.78l17.16,8.38c4.57,2.21,9.23,4.13,13.9,6.15,10.66,4.61,21.39,9.06,32.12,13.48,5.88,2.56,11.81,5,17.62,7.7,6.21,2.85,12.36,5.83,18.62,8.54,3.74,1.62,7.45,3.24,11.19,4.84s7.32,3.36,11.05,4.75q10.35,3.83,20.68,7.61c3.12,1.15,6.43,1.94,9.61,2.91L694.33,678c3.28,1,6.7,1.68,10,2.51s6.72,1.86,10.12,2.53q10.77,2.14,21.53,4.25c7.37,1.44,14.95,2.23,22.4,3.34,14.45,2.14,29,3.5,43.58,4.94,14.18,1.38,28.45,1.52,42.69,1.78,13.9.24,27.74-.85,41.58-2,6.88-.55,13.74-1.9,20.56-2.89,3-.43,6-1.23,9-1.84,3.4-.71,6.86-1.3,10.24-2.14,22.76-5.52,45.36-11.74,68.29-16.39.08,0,.06-.12,0-.12-16.75,1.64-33.4,3.94-50.05,6.3l.17,0q-9.8,1.3-19.62,2.66-8.43.88-16.86,1.79c-4.67.49-9.37.59-14.08.83-4.49.22-8.88.32-13.39.28h-4.47c-3.26,0-6.54,0-9.81-.22-10.78-.67-21.47-1.34-32.21-2.35-9.77-.93-19.46-2.15-29.19-3.38-24.34-3.81-48.71-7.6-72.7-13.28A352.79,352.79,0,0,1,697.45,655c-6-2.1-12.18-3.88-18.05-6.33l-17.16-7.15-18.81-9c-6.09-2.91-12-6.21-18.07-9.13-6.27-3-12.5-6.17-18.82-9.06-6.66-3-13.39-6-20-9.13l-20.64-9.73c-6.58-3.1-13-6.8-19.4-10.16s-12.4-7.16-18.59-10.72-12.2-7.53-18.29-11.29c-13-8-25.45-17.08-37.92-26-11.63-8.26-22.82-17.24-34.17-25.9,1,.81,2.06,1.6,3.1,2.41q-9.24-7.14-18.5-14.24l2,1.51Q407.45,487.62,391,473.9c-6.07-5.08-12.08-10.36-18.45-15.07-2.87-2.14-5.75-4.25-8.62-6.37-2.45-1.78-4.82-3.72-7.37-5.34-5.89-3.74-11.72-7.57-17.75-11.09l-18.8-11c-13-7.61-25.9-15.4-38.81-23.19-5.69-3.44-11.57-6.6-17.38-9.87a189.66,189.66,0,0,0-24-10.72,177.1,177.1,0,0,0-26.41-8.11c-10.34-2.19-20.56-4.35-31.08-5.62a119.22,119.22,0,0,0-14.23-.8c-8.53,0-17,.74-25.59,1.57Zm29.16,10.14.54.08-.54-.08Zm-87,10-.35.16.35-.16ZM924.8,681l-.86.12c.28,0,.58-.09.86-.12Zm18.93-2.57.58-.08-.58.08Zm-824.87-299h0l.36,0-.32,0Z"/><path class="cls-1" d="M1079.09,145.91c-.57,15-1.34,30-2.12,45-.47,9.21-.89,18.41-1.72,27.6-2,21.41-4,42.75-6.62,64.08-2.47,20.15-5.12,40.27-7.35,60.46-2.35,21.13-4.58,42.26-7.14,63.37-3.25,20.61-6.82,41.16-10.14,61.74-3.1,19.34-6.05,38.71-9.41,58-7.22,41.34-15.34,82.53-21.51,124-.91,6.09-1.9,12.16-2.81,18.23-.83,5.44-1.72,11-3,16.39-1.52,6.45-3,12.83-5,19.18-1.73,5.53-3.79,10.86-5.89,16.25-8.25,18.38-16.72,36.57-26.49,54.2,0,.06.06.14.1.08,6.27-7.93,12.61-15.84,18.37-24.14s11.41-17,16.79-25.68c10.6-17.14,16.73-37,21.67-56.39,5.06-19.93,9.71-40,14.75-59.89s10.06-39.84,14.18-59.95q6.49-31.7,11.47-63.64c3.1-20.07,6.09-40.23,8.28-60.42,2.23-20.42,3.38-40.83,4.35-61.33,1-21.85,2.16-43.69,3.26-65.56,1.11-22.08,1.82-44.21,1.5-66.33-.16-11.09-.42-22-1.15-33.1-1.19-17.44-2.51-34.8-4.27-52.2a.06.06,0,1,0-.12,0Z"/><path class="cls-1" d="M1469.55,396.49c-6.74,6.21-13.58,12.38-20.74,18.11s-14.19,11.27-21.36,16.83l.13-.1c-12.06,9.13-24.3,18.07-36.24,27.4-6.27,4.9-12.65,9.69-18.8,14.77S1360,483.83,1353.77,489s-12.49,10.26-18.73,15.4q-10.07,7.76-20.16,15.49c-6.41,4.94-13.07,9.53-19.59,14.29q-18.57,13.49-37.15,26.91t-37.39,26.2c-6.43,4.37-12.79,8.8-19.24,13.13q-6.64,4.48-13.25,9c-2.77,1.88-5.5,3.9-8.34,5.67q-10.88,6.88-21.77,13.8c-2.65,1.68-5.5,3.1-8.22,4.63-4.31,2.41-8.62,4.84-12.91,7.26-7,4-14.26,7.55-21.37,11.33s-14,7.43-20.94,11.15L1074.62,674c-3.28,1.74-6.66,3.28-10,4.9-3.14,1.56-6.27,3.22-9.47,4.67-14.27,6.41-28.61,12.67-42.94,19-16.09,7.1-32.19,14.2-48.4,21l.4-.18c-22.06,9.31-44.21,18.41-66.33,27.54-.08,0,0,.16,0,.12q48-17.5,96.13-35,20.17-7.38,40.37-14.67c6.6-2.37,13.15-4.9,19.71-7.37,6.74-2.55,13.35-5.42,20-8.21l1.27-.53c7.47-3.16,14.79-6.72,22.16-10.16s14.45-6.9,21.69-10.38,14.37-7,21.55-10.48S1155,646.8,1162,643s13.56-8,20.29-12.18c6.37-3.91,12.52-8.13,18.7-12.3,12.36-8.36,24.64-16.86,36.7-25.64,13.52-9.85,26.91-19.81,40.08-30.11q20.61-16.13,41.07-32.43c6.15-4.9,12-10.14,18-15.24s11.55-10.3,17.26-15.54l17.14-15.78c5.69-5.26,11.47-10.38,17.28-15.48,23.79-20.84,48.74-40.41,71.53-62.38,3.22-3.08,6.41-6.23,9.57-9.37,0,0,0-.12-.06-.12l0,0Z"/><path class="cls-1" d="M1100.13,134.14c.45,13.6.65,27.21.83,40.81.12,8.54.47,17.06.18,25.58-.22,6.54-.43,13.09-.61,19.61-.12,4.09,0,8.26-.34,12.34-.87,9.71-1.3,19.51-2.47,29.16-4.76,39.54-9.81,79.07-14.31,118.63-1.06,9.1-2.29,18.16-3.46,27.23q-4.37,28.15-9,56.22c-3.34,20.4-7.79,40.61-12,60.86-3.62,17.58-7.87,35.05-11.92,52.53-4.78,20.7-9.25,41.44-13.58,62.22a901.73,901.73,0,0,0-14.16,95.89c-1.52,15.4-2.21,30.88-2.73,46.36-.55,16.41-1.19,32.84-1.36,49.25,0,.1.12.08.12,0l.47-3.76v.08c2.57-18.6,5.5-37.17,8.34-55.74.73-4.75,1.68-9.45,2.51-14.18.77-4.29,1.4-8.64,2.31-12.91,2.06-9.59,3.8-19.28,6.11-28.79q4-16.22,7.83-32.48c2.19-9.17,4.9-18.21,7.35-27.3,4.61-17.08,9.51-34.07,14.51-51,11.41-38.69,22.74-77.52,30.07-117.24q5.4-29.27,8.84-58.86c2.35-20.4,4-40.83,5.22-61.35q1.63-27.11,3.24-54.21c.51-8.36,1.09-16.73,1.42-25.11.38-9.17,1-18.43.93-27.62,0-5.91-.12-11.82-.2-17.73-.06-3.54.1-7.16-.2-10.7q-1.45-16.79-3.06-33.59c-.77-8.11-2.35-16.19-3.66-24.24-2.16-13.39-4.49-26.67-7.16-40a.06.06,0,0,0-.06-.05.07.07,0,0,0-.07.07Z"/><path class="cls-1" d="M1410.53,11c-9.35,3.48-18.39,7.69-27.36,12-7.87,3.84-15.54,8.07-23.37,12q-6.5,3.23-13,6.52c-4.63,2.33-9.39,4.41-14.08,6.64-7.28,3.44-14.75,6.58-22.14,9.77q-29.83,12.84-59.47,26.1c.32-.14.63-.28.95-.4-8,3.36-16,6.78-23.94,10.2-8.54,3.66-17.12,7.22-25.52,11.15-8.64,4-17.26,8-25.74,12.42-8.17,4.21-16.29,8.44-24.36,12.81q-31.73,17.17-62.7,35.63c-.08,0,0,.14.06.1,19.44-9.51,38.89-19,58.44-28.25,8.32-4,16.61-7.91,25-11.76q7-3.26,14-6.54c4.15-1.94,8.46-3.62,12.67-5.44q4.91-2.12,9.82-4.25c16.6-6.73,33.29-13.35,49.62-20.72,18.07-8.17,36-16.65,53.9-25.15,7.32-3.48,14.69-6.94,21.85-10.74,4.69-2.47,9.35-5,14-7.45,4.21-2.27,8.32-4.76,12.48-7.14,16.21-9.31,31.91-19.61,49-27.42.05,0,0-.12,0-.12Z"/><path class="cls-1" d="M1391.82,15.23c4.57,27.84,9.63,55.66,15.8,83.18,5.46,24.42,11.88,48.62,18.58,72.7,2.29,8.21,4.61,16.41,7,24.6a.07.07,0,0,0,.14,0c-4.27-22.84-8.52-45.67-13.31-68.39-5.6-26.55-12.08-52.91-19.06-79.11q-4.42-16.52-9-33a0,0,0,0,0,0,0,.08.08,0,0,0-.07.08Z"/></g></g></svg>