<svg xmlns="http://www.w3.org/2000/svg" viewBox="0 0 3073.4 4585.44"><defs><style>.cls-1{fill:#fff;}</style></defs><title>twg-logo</title><g id="Layer_2" data-name="Layer 2"><g id="Draw_Layer" data-name="Draw Layer"><path class="cls-1" d="M1782.15,104.4c-8.33.67-16.56,1.63-24.82,2.84a94.91,94.91,0,0,0-14.8,3.54c-7.77,2.46-14.61,6.78-20.95,11.82-6,4.75-12,9.48-17.5,14.77-5.92,5.65-11.83,11.28-17.36,17.32a167.82,167.82,0,0,0-12.22,14.87,76.92,76.92,0,0,0-8.18,14.24c-1.61,3.63-2.23,7.59-3.08,11.44,0,.05.06.06.08,0,.93-2.94,1.8-5.87,2.92-8.73a76.81,76.81,0,0,1,6.6-10.91c10.59-13.54,23.66-24.27,37.07-34.86,8.05-5.75,16.2-11.6,25.23-15.74a68.45,68.45,0,0,1,14.38-3.78,189.46,189.46,0,0,1,22.54-1,207.94,207.94,0,0,1,23.21,1.22,95.91,95.91,0,0,1,19.8,5.6,202.67,202.67,0,0,1,34.46,20.14c3.29,2.67,6.51,5.37,9.66,8.23a109.59,109.59,0,0,1,11.45,12.27A112.63,112.63,0,0,1,1881.69,187c4.44,11.27,7.16,22.9,9.25,34.81q.25,2.05.49,4.1a85.66,85.66,0,0,1,.06,18.46,109.77,109.77,0,0,1-5.25,19.17,73.62,73.62,0,0,1-4.92,8.66c-.82.89-1.66,1.74-2.53,2.58-1.13.73-2.28,1.4-3.46,2-1.72.56-3.45,1-5.21,1.43a69.55,69.55,0,0,1-8.22,0,77,77,0,0,1-9-2.49,112.3,112.3,0,0,1-17.61-10.79c-7.54-6-14.93-12.33-21.15-19.66a69.69,69.69,0,0,1-4.22-7.08,58.56,58.56,0,0,1-2.09-7.6,88.76,88.76,0,0,1,.26-14.11c.29-1.75.61-3.49,1-5.21,1.17-4.68,2.4-9.12,2.62-14a22.4,22.4,0,0,0-7.31-16.84,23.27,23.27,0,0,0-9-5.08,30.53,30.53,0,0,0-6.62-.92c-7.26-.65-14.54,3.24-19.9,7.73-6.84,5.73-11.7,13.28-15.56,21.23-8.25,17-10.95,36.06-11.84,54.73-.87,18.2,1.31,36.76,7.94,53.78,6.22,16,17,29.75,28.54,42.25,10.26,11.1,21.91,21.09,33.3,31,0,0,.09,0,.05-.06-5.84-6.83-11.47-13.85-17.06-20.88l.32.44c-9.81-13.13-19.15-26.58-25.84-41.62a112.06,112.06,0,0,1-7.14-25.27,146.66,146.66,0,0,1,.64-34.41,180.83,180.83,0,0,1,8.08-33.57,68.9,68.9,0,0,0,0,8.76,71.56,71.56,0,0,0,3.91,18.93c4.22,12.15,11.58,23.09,19.85,32.86,3.28,3.86,6.49,7.76,10,11.45a124.21,124.21,0,0,0,16.54,14.41,81.13,81.13,0,0,0,7.63,5.07c4.53,2.66,9.56,4.48,14.43,6.44,6.36,2.57,14,3.24,20.72,3.73,7,.52,14.3-.86,21-2.55,4.15-1,8-3.1,11.92-4.78a36.9,36.9,0,0,0,7.31-4.52,79.28,79.28,0,0,0,9.16-7.7,67.64,67.64,0,0,0,8.59-11.39,51.87,51.87,0,0,0,3.61-7.32c1.61-3.69,3.11-7.35,4.42-11.14a97.68,97.68,0,0,0,3.86-16.74,130.77,130.77,0,0,0,1.66-18.25,95.5,95.5,0,0,0-3-23.28c-2.25-9.37-6.1-18.37-9.82-27.23a168.53,168.53,0,0,0-17.48-32.45,113,113,0,0,0-20.21-21.9c-4.43-3.67-9-7.1-13.64-10.49-13.38-9.76-28.92-16.53-44.36-22.21a95.44,95.44,0,0,0-33.26-5.54c-3.64,0-7.28.16-10.93.46ZM1672.9,175.52l-.06.08.06-.08Zm-.08.11-.08.1.08-.1Z"/><path class="cls-1" d="M1854.56,0l-13.1.48c-4.63.18-9.3,1-13.91,1.45-5.25.56-10.47,1.67-15.68,2.57-10.6,1.8-21.05,5.45-30.89,9.7a156.46,156.46,0,0,0-30.54,17.32,126.88,126.88,0,0,0-25.25,24.88c-6.06,7.79-11.74,16-17.14,24.23-3,4.51-5.84,9-8.6,13.63s-5.22,9.22-7.68,14c-12.37,23.83-17.45,50.81-20.91,77.22,0,0,.06.05.08,0,4.1-17.13,8.89-34.15,15.52-50.48a197.63,197.63,0,0,1,9.94-20.12c1.58-2.8,3.43-5.48,5.13-8.2,2.82-4.51,6-8.77,9.08-13.11l-.16.21c11.54-14.87,23.19-30,37.82-42A145.52,145.52,0,0,1,1777.37,35,174.79,174.79,0,0,1,1815,24.77l10.66-1.16c3.72-.4,7.46-.48,11.19-.66a174.08,174.08,0,0,1,28.46.88,137.4,137.4,0,0,1,28.84,8,210.3,210.3,0,0,1,20,10.13c3.59,2.06,7.26,4,10.74,6.21,3.69,2.36,7.66,4.5,11.17,7.1q4.65,3.45,9.32,6.88l9.51,8.19c3.37,2.89,6.4,6.27,9.59,9.37,6.41,6.23,12.13,13.23,18,20l6.09,7.95c2.42,3.16,4.44,6.67,6.62,10a183.09,183.09,0,0,1,14.69,27.5c9.51,23.72,12.8,49.29,16.82,74.37q.67,5.16,1.38,10.32.59,6.11,1.21,12.2c.43,4.12.43,8.29.62,12.42a207.13,207.13,0,0,1-1,33A185.52,185.52,0,0,1,2016.74,333s.05.06.08,0a268.3,268.3,0,0,0,14.41-24.32,157,157,0,0,0,13.36-40c.83-4.39,1.71-8.77,2.22-13.22s1.3-9.06,1.44-13.58a249.77,249.77,0,0,0-.1-25.87,539.9,539.9,0,0,0-6.76-55.88c-1.89-10.62-5.83-21-10.08-30.87-2.92-6.76-6.27-13.19-9.76-19.68a169.82,169.82,0,0,0-14.91-22.39,244.34,244.34,0,0,0-36.41-38.57c-7.19-6.06-14.56-12.14-22.56-17.11-3.72-2.32-7.38-4.83-11.23-6.94q-6.51-3.58-13-7.1a160,160,0,0,0-32.18-12.9,117.75,117.75,0,0,0-18.37-3.46A132.8,132.8,0,0,0,1857,0q-1.23,0-2.47,0ZM1710.39,93.85l-.51.65.51-.65Z"/><path class="cls-1" d="M1966,285.06c-10.11.21-20.26,1.94-30.14,3.93-8.58,1.72-16.84,5-24.89,8.38-19.24,8-36,20.48-51.64,34.1-7,6.08-13.41,12.67-19.84,19.32-5.75,5.95-11.43,12.23-16.62,18.68-6.35,7.9-13,15.77-18.32,24.44a210.43,210.43,0,0,0-13.09,24.56,423.35,423.35,0,0,0-19.8,54.61c-5.45,18.84-7.86,38.69-9.79,58.16q-1.24,12.57-1.83,25.19c-.39,8.78-.92,17.63-.6,26.4a282.45,282.45,0,0,0,2.9,32.71c1.33,8.56,2.63,17.22,5.08,25.55,1.23,4.18,2.25,8.51,3.78,12.61,2.69,7.18,5.42,14.29,8.54,21.3,8.6,19.32,22.08,35.77,37.51,50,6.22,5.74,12.8,11.06,19,16.78,6.49,5.95,12.88,12,19.15,18.13,11.32,11.12,23,21.7,36.78,29.72,12.3,7.14,26,11.83,39.54,16.1a174.41,174.41,0,0,0,62.94,8,280.74,280.74,0,0,0,38.58-5.43,180.66,180.66,0,0,0,46.43-16c7.29-3.72,14.15-8.43,21.09-12.76q7.68-4.8,15.29-9.69s0-.09,0-.08c-6.17,2.51-12.39,4.88-18.63,7.18-4.57,1.67-9.15,3.32-13.75,4.87a156.36,156.36,0,0,1-28.26,6.36c-21.27,2.54-43,3.16-64.25.72a173.66,173.66,0,0,1-36.1-9.42c-14.26-6.34-28.2-13.25-40.87-22.43A142.3,142.3,0,0,1,1896,738.81c-2.25-2.68-4.4-5.48-6.59-8.23-4.31-5.43-8.59-10.91-13.11-16.18-10.23-11.91-21.3-23.11-31.19-35.3A174.6,174.6,0,0,1,1828,649.35c-3.66-9.48-7.29-18.94-10-28.74-1.65-5.92-3.1-11.79-4.42-17.8-.8-3.65-1.39-7.33-2-11-.54-6.27-1-12.48-1.16-18.78-.17-7,0-13.89.05-20.85a371.63,371.63,0,0,1,2.9-38.2,330.76,330.76,0,0,1,9.17-40.78c4-13,8.23-25.77,13.18-38.4,2.18-4.54,4.37-9,6.91-13.44,2.8-4.84,5.85-9.41,9-14,6.42-7.9,13.14-15.41,20.19-22.81,7.41-7.79,15.69-14.65,24.06-21.37,6-4.35,11.91-8.82,18.2-12.71,3.61-2.24,7.19-4.48,10.92-6.52,3.26-1.76,6.55-3.36,9.89-4.93,5.65-2.18,11.31-4.24,17.16-5.89a163.15,163.15,0,0,1,17.5-3.78c20.65-2.36,41.34-3.51,62-1.17,12.93,2.09,25,6.17,37.06,11,9.27,4.29,18.15,8.84,26.46,14.86a101.89,101.89,0,0,1,14.3,14,130.52,130.52,0,0,1,12.21,20.39c1.63,4.24,3.09,8.46,4.42,12.81a96.82,96.82,0,0,1,2.72,13.89,135.38,135.38,0,0,1,.56,16c-.25,6-.62,12-1.08,18.07-1,13-1.74,26-2.19,39.1a0,0,0,0,0,.08,0c3.73-18.71,8.3-37.26,12-56a112.45,112.45,0,0,0-2.06-52.1,109.68,109.68,0,0,0-15.35-33.13c-9.44-13.36-22.27-23.44-35.68-32.51a197.35,197.35,0,0,0-23.09-13.44,134.69,134.69,0,0,0-38.73-12,316.69,316.69,0,0,0-51-4.21q-3.05,0-6.11.06Z"/><path class="cls-1" d="M2207.59,331.42a133.42,133.42,0,0,1,6.48,12.76,214.14,214.14,0,0,1,12.63,45.63,186.86,186.86,0,0,1,1.44,20.51,141.53,141.53,0,0,1-1.3,19.39c-3.68,24.77-11.9,48.69-21.48,71.77-8.06,18.73-16.66,37.51-28.74,54A107.21,107.21,0,0,1,2162,570.22a123.32,123.32,0,0,1-20.52,11.7,189.45,189.45,0,0,1-39,10.7,125.4,125.4,0,0,1-26,.18,123.81,123.81,0,0,1-23.42-6.19,100.25,100.25,0,0,1-15.12-8.85,128.35,128.35,0,0,1-35.42-45.49,96.84,96.84,0,0,1-5-18.38,134.46,134.46,0,0,1,9.15-61.76,120.8,120.8,0,0,1,12.66-22,71.16,71.16,0,0,1,9.29-9.32,58.74,58.74,0,0,1,6.05-3.55,49,49,0,0,1,8.46-2.24,61.69,61.69,0,0,1,10.11.13,116,116,0,0,1,18,4.63c6,2,12,4,17.91,6.35a87.74,87.74,0,0,1,16.16,9.11,64.34,64.34,0,0,1,8.77,8.51,63.19,63.19,0,0,1,5.86,10.51c4,10.34,5.7,21.11,7.23,32,0-.05,0-.1,0-.14.34,2.6.63,5.22.93,7.84a0,0,0,0,0,.08,0c.21-10.83.36-21.84-1.39-32.57a75.68,75.68,0,0,0-4.43-16.23,48,48,0,0,0-7.88-12.46c-10.46-12.71-26.15-19.55-40.55-26.69-7.8-3.86-15.92-7.33-24.47-9a53.76,53.76,0,0,0-14-.82c-6.62.43-12.79,2.73-18.66,5.69-4.91,2.46-9.34,6.22-13.4,9.87a86.72,86.72,0,0,0-10.9,12.36,133.73,133.73,0,0,0-17.43,31.12,169.56,169.56,0,0,0-9.07,32c-1.13,6.08-1.85,12.23-2.41,18.38a100.48,100.48,0,0,0,1,23.83c3.86,26.27,18.86,50,36.77,69.16a114.23,114.23,0,0,0,28.21,22c11.87,6.47,25.06,10.27,38.38,12.14a136,136,0,0,0,20.25,1.46,149.41,149.41,0,0,0,20-2c12.52-1.79,24.72-5.7,36.46-10.27a188,188,0,0,0,22.62-10.57,137.2,137.2,0,0,0,20.94-14.89c6.32-5.23,11.62-11.65,16.48-18.22a141.73,141.73,0,0,0,13.24-22.21c7.22-14.78,12.62-30.43,17.19-46.21a310.38,310.38,0,0,0,10.16-52.37,184.13,184.13,0,0,0-.84-46.32c-2.31-16.36-8.28-32.29-15.51-47.07a154.46,154.46,0,0,0-21.25-32.78h0a0,0,0,0,0,0,.07Zm-87.74,122.47.13.32c0-.11-.09-.21-.13-.32Zm84.82,49.24-.62,1.47.62-1.47Z"/><path class="cls-1" d="M2203.68,323.94c6.15,6.93,12.28,13.81,18.23,20.92s11.79,14.22,17.46,21.53c14.25,18.81,26.86,39,36.27,60.67A275.7,275.7,0,0,1,2293,492.75a298.85,298.85,0,0,1,2.37,34.33c.06,7-.05,13.93-.28,20.89-.32,9.28-.61,18.55-1,27.83-.73,17.68-1.27,35.4-1.5,53.09a0,0,0,0,0,.08,0c2.33-14.39,4.9-28.78,7.59-43.09,3.16-16.82,6.39-33.66,8.6-50.63a268.83,268.83,0,0,0,2.34-29.76,212.18,212.18,0,0,0-2-32.43,168.62,168.62,0,0,0-18.94-59.78,175.26,175.26,0,0,0-16-24.8,244.48,244.48,0,0,0-20.61-23.89c-15-15.33-32.36-28.39-49.91-40.64h0a0,0,0,0,0,0,.07Z"/><path class="cls-1" d="M2265.66,606.72c-12.7,1.93-24.66,6.54-36.15,12.15-11.73,5.71-22.35,13.9-31.61,23-5.13,5-9.44,10.78-13.85,16.43-3.49,4.47-6.79,9-10.09,13.64-5.17,7.2-10.27,14.47-15.42,21.71-9.82,13.82-19.71,27.73-27.93,42.6a432,432,0,0,0-24.71,51.66c-17.63,45.11-13,94.73-8.62,141.87.76,8.21,2.23,16.43,3.37,24.62s3.14,16.26,4.73,24.33c1.33,6.74,3,13.36,4.64,20,2.67,10.83,5.4,21.62,8.34,32.39,0,.05.09,0,.08,0-2.72-15.8-5.08-31.64-7.57-47.48-1.2-10.54-2.87-21.12-3.55-31.71q-.7-10.71-1.43-21.43c-.43-6.15-.34-12.39-.51-18.55-.31-11.48,0-23,.3-34.45.25-11,1.46-21.91,2.58-32.84a192.64,192.64,0,0,1,11.41-43.4,312.67,312.67,0,0,1,18.72-35.89c3.39-5.67,6.85-11.26,10.46-16.8,3.25-5,6.76-9.77,10.24-14.6,8.7-10.95,17.7-21.6,26.84-32.2,10.59-12.29,21.28-24.78,33.85-35.08A128.35,128.35,0,0,1,2241.57,654a137.68,137.68,0,0,1,28.52-7.85,205.34,205.34,0,0,1,39.68,0c4.15.38,8.3,1,12.44,1.59l-2.59-.35c19.63,3.61,39.1,7.88,58.52,12.46,10.46,2.46,20.86,5.09,31.24,7.83,12.49,3.29,25,6.43,37,11.06a135.9,135.9,0,0,1,24.39,14l8.44,6.22q18.93,14.89,38,29.54l9.77,7.92A139.71,139.71,0,0,1,2547.11,757c7.72,10.73,14,22.33,20.28,33.95,4.79,8.87,9.24,17.93,13.68,27q11.86,24.18,22.53,48.91l4.12,11.4c1.23,3.41,2.07,7,3,10.44a204.28,204.28,0,0,1,5,23.37,172.87,172.87,0,0,1,.62,35.21q-.72,7.68-1.4,15.37a257.05,257.05,0,0,1-4.68,26.74c-2.71,10.95-5.32,21.93-8.6,32.74-3.16,10.4-6.21,20.85-9.86,31.09-3.53,9.94-7.27,19.74-11.25,29.5-5.93,13.2-12,26.43-20.48,38.23a97.34,97.34,0,0,1-14,13.82c-16.54,12.39-35,22.1-53.56,31.13l-10.7,4.51c-11,3.9-21.81,7.71-33.33,9.59a212.61,212.61,0,0,1-33,1.06,0,0,0,0,0,0,.08c12.11,2.72,24.29,5.2,36.74,5.39,11.05.17,22.23-2.15,33.05-4.13,8.68-1.58,17.19-4.41,25.61-7,4.13-1.27,8.19-2.93,12.24-4.41,4.61-1.67,9.2-3.59,13.68-5.56,4.25-1.88,8.5-3.71,12.7-5.67a114.17,114.17,0,0,0,29.54-19.59c9.55-8.85,16.78-20.21,23.7-31.17a380.67,380.67,0,0,0,23.48-44.14c8-17.28,15.65-34.75,22.14-52.64,3.23-8.89,6.14-17.79,8.94-26.83s4.53-18.41,6.32-27.66a229.56,229.56,0,0,0,3.77-29.59c.71-11.63-.36-23.32-2.16-34.81-.67-4.37-1-8.9-2.07-13.19l-3.46-14.46c-1.06-4.44-2.86-8.81-4.26-13.15s-3.36-8.69-5-13c-4-10.13-8.47-20.07-12.83-30-6.74-15.47-13.67-31-21.9-45.73-5-9-10.12-18-15.84-26.64A176.76,176.76,0,0,0,2575.43,708c-7-6.76-14.78-12.58-22.54-18.41-14-10.55-28.46-20.54-42.65-30.85-11.48-8.34-23.33-16-36.35-21.74a147.49,147.49,0,0,0-31.5-10.33c-4.7-.92-9.39-1.83-14.12-2.6-17.71-2.93-35.42-5.77-53.07-9.06-18-3.33-35.84-7.16-54-9.06-5.64-.58-11.25-1.21-16.91-1.52q-4.16-.22-8.3-.22a202,202,0,0,0-30.31,2.49Z"/><path class="cls-1" d="M2306,809.86l-13.34.22a179.19,179.19,0,0,0-32.52,3.51A115,115,0,0,0,2229.39,825c-9.64,5.12-18.23,12.4-25.81,20.19-9,9.3-16.44,20-24,30.47-4.08,5.67-7.8,11.67-11.53,17.58-8.33,13.19-16.92,26.3-24.34,40-1.72,3.2-3.59,6.36-5.07,9.68-2.24,5.08-4.51,10.12-6.48,15.3-3,7.73-4.24,15.87-5.22,24-.57,4.7-1.13,9.39-1.46,14.11,0,.05.08.05.09,0a189.59,189.59,0,0,1,8.86-29.46c3.27-7.25,7.52-13.9,11.66-20.67,1-1.68,2.25-3.25,3.41-4.86,1.46-2,2.86-4.14,4.37-6.13q4.2-5.43,8.38-10.88c7.48-9.31,14.91-18.67,22.61-27.81,11.57-13.74,23.31-27.38,37.23-38.82a104.43,104.43,0,0,1,18.73-11.24,107.88,107.88,0,0,1,22.23-6c19.23-2.06,38.62.51,57.75,2.65,7.26,1,14.5,2.09,21.71,3.44,5.69,1,11.31,2.12,16.93,3.5a219.5,219.5,0,0,1,30.21,10,203.63,203.63,0,0,1,39,21.85,159.62,159.62,0,0,1,23.13,23.22,124.76,124.76,0,0,1,12.53,21.22,110.22,110.22,0,0,1,5.68,19.92,77.87,77.87,0,0,1,0,13.56,54,54,0,0,1-10.94,25.54,84.81,84.81,0,0,1-9.71,9.63,105.73,105.73,0,0,1-16.7,9.49,142.42,142.42,0,0,1-29.18,8.12,144.94,144.94,0,0,1-30.31-.2,136.89,136.89,0,0,1-28.68-7.51,108.17,108.17,0,0,1-17-9.94,84.88,84.88,0,0,1-10.77-10.6,82.29,82.29,0,0,1-6.59-11.42,130.63,130.63,0,0,1-6.63-26.19c-.47-4.81-.92-9.58-1.06-14.41-.06-2.62,0-5.18,0-7.8,0-1.09.08-2.16.14-3.25a29.22,29.22,0,0,0-.6-9c-2-8.71-10.78-14.82-19.49-14.82a20.09,20.09,0,0,0-10.18,2.76c-4.08,2.37-8.41,7.07-9.26,11.91a53.4,53.4,0,0,1-3.42,5.1,49.22,49.22,0,0,0-5.31,9.6A63.57,63.57,0,0,0,2250,939.6a81.9,81.9,0,0,0-1.74,15,423.45,423.45,0,0,0,2.44,46.9c1.66,16.54,3.81,33,7.7,49.22s8.93,31.77,16.73,46.43c8.54,16,21.7,28.76,36.21,39.39,21.18,15.52,43.35,30.08,68.06,39.37a168,168,0,0,0,17.41,5.75c6.75,1.7,13.46,3.21,20.29,4.6a136.5,136.5,0,0,0,18.37,2.07,225.7,225.7,0,0,0,23.5.14,0,0,0,1,0,0-.08c-6-.26-12-.75-17.93-1.19l.12,0-.16,0h0l-11.9-1.74c-3.58-.52-7.14-1.59-10.68-2.4s-7-2.06-10.42-3.1-7-2.5-10.47-3.76c-4.76-2-9.49-4.06-14.12-6.4-5.38-2.73-10.53-5.74-15.73-8.81-4.72-2.79-9.16-6.1-13.68-9.19s-8.49-6.4-12.68-9.64l.41.31c-13.09-10.76-26.3-21.46-37-34.72a109.91,109.91,0,0,1-11.57-19.94,191.17,191.17,0,0,1-9.93-34.83c-.86-4.38-1.46-8.82-2.14-13.24-.58-5-1.25-10.09-1.59-15.16-.45-6.8-.88-13.55-1.08-20.37-.1-3.26-.15-6.52-.18-9.78a91.69,91.69,0,0,0,16.25,21.06,112.64,112.64,0,0,0,12.85,10.39,100.78,100.78,0,0,0,14,8.36c20.11,10.31,43,14.32,65.45,14.77a171.35,171.35,0,0,0,33.44-3c11.82-2.11,23-6.18,34-10.9a93.3,93.3,0,0,0,47.86-47.57,99.83,99.83,0,0,0,5.89-17,93.57,93.57,0,0,0,2.16-17.19c.32-6.09-.73-12.19-1.59-18.19a91.68,91.68,0,0,0-4.72-17.67c-7.71-21.55-21.31-40.33-37.69-56.15a167.46,167.46,0,0,0-25.42-19.86c-10.35-6.69-21.73-11.62-33.14-16.17a202,202,0,0,0-53.66-12.93l-14.38-1.49c-4-.4-8-.41-11.92-.61-5.93-.28-11.87-.47-17.81-.47l-3.8,0Zm-3.15,132.9.16,1.15-.16-1.15ZM2134.4,967.08l-.1.21.1-.21Zm206,174.43.79.61-.79-.61Zm100.55,45.7h0Z"/><path class="cls-1" d="M2188.92,1072.83l-17.52.38c-3.86.09-7.72.58-11.57.91-5.65.49-11.25,1.18-16.86,2l-14.1,1.94c-5.25.74-10.48,2.18-15.68,3.24-3.56.74-7,1.79-10.56,2.77-4,1.11-8,2.15-12,3.49-9.37,3.19-18.58,6.52-27.79,10.12a389.84,389.84,0,0,0-50.11,24c-16.12,9.13-32.31,18.1-48.2,27.61-16.32,9.77-32.05,20.34-47.7,31.13-7.49,5.17-14.63,10.83-21.88,16.32-8.14,6.17-15.65,13.11-23.33,19.82-6.49,5.69-12.5,12-18.7,18-6.57,6.35-13,12.94-19.19,19.67a300.51,300.51,0,0,0-22.83,27.93,237.26,237.26,0,0,0-19.76,33.71c-2.16,4.41-4,9-6,13.46-2.59,5.95-5.27,11.87-7.61,17.92a274.72,274.72,0,0,0-17.17,77.22,190.88,190.88,0,0,0,.25,35.16l1.83,16.93c1.11,10.36,3.08,20.54,4.95,30.78,1.48,8.11,4,16.1,6,24.1,1.14,4.42,2.72,8.76,4.08,13.12,1.14,3.69,2.18,7.45,3.5,11.09,3.1,8.5,6,17.1,9.41,25.46,3.71,9,7.22,18.11,11.23,27,3.74,8.25,7.2,16.73,11.5,24.71q4.24,7.81,8.49,15.61c1.54,2.85,3,5.74,4.77,8.46,4.95,7.67,9.72,15.51,15,23s10.58,15,15.91,22.43,11.12,14.91,16.21,22.65q7.07,10.75,14.19,21.48c2.18,3.28,4,6.81,6.05,10.21l6.84,11.49c4.26,7.14,8.68,14.19,13,21.26,1.36,2.2,2.94,4.26,4.43,6.37l9.91,13.93c4.78,6.69,10.33,12.88,15.53,19.23,5.09,6.18,10.65,12,16,17.92a164,164,0,0,0,42.07,33.84,132.91,132.91,0,0,0,26.77,10.93,50.09,50.09,0,0,0,14.63,2.14c2.81,0,5.47-1.36,8-2.44a0,0,0,0,0,0-.08c-1.39.41-2.81.8-4.24,1.15a25.51,25.51,0,0,1-6.48,0,78,78,0,0,1-13.59-4.46,151.31,151.31,0,0,1-29.07-17.34c-10.79-8.7-19.95-18.81-28.65-29.55-10.24-13.64-20.75-27.22-29.5-41.9-4.63-7.75-9.37-15.38-13.51-23.39-4.26-8.24-8.55-16.48-12.77-24.73-4.3-8.43-8.67-16.69-13.42-24.86-4.59-7.88-9.26-15.6-14.2-23.27-9.67-15-19.64-29.86-28.72-45.24-3.47-5.88-7.27-11.65-10.29-17.78q-5.66-11.44-11.36-22.84-4.72-11.23-9.52-22.44c-6.88-18.05-13.74-36.08-18.8-54.74l-4.43-16.32c-1.45-5.38-2.33-11-3.5-16.44-1.72-8.12-2.76-16.36-3.86-24.59l-1.47-20.77a222.32,222.32,0,0,1,1.32-41.64A282,282,0,0,1,1812,1356.8q4.33-9.4,8.68-18.8a223.28,223.28,0,0,1,24.24-39.89c11.56-14.47,24.87-27.59,38.38-40.22,5.1-4.79,10.08-9.78,15.42-14.32l16.73-14.15,17.13-12.54c6.21-4.53,12.89-8.51,19.3-12.74,13.19-8.69,26.91-16.48,40.62-24.29,13.31-7.59,27-14.63,40.47-21.84,6.62-3.54,13.42-6.76,20.15-10.12s13.72-5.84,20.53-8.73l-5.13,2.16,18.4-6.52c5.8-2,11.87-3.52,17.78-5.27s11.88-2.75,17.78-4.11c4.94-1.15,10.06-1.79,15.12-2.53,6-.65,12-1.39,17.95-1.69l14.2-.74c3.86-.19,7.79,0,11.65.05,14.83.07,29.52,1.41,44.26,2.92,11.16,1.64,22.39,3.27,33.31,6.07,6.3,1.61,12.72,3,18.92,4.92,8.77,2.78,17.47,5.48,26,8.82,15,6.8,28.92,15.63,42.75,24.63,8.88,5.78,17.42,12,25.88,18.35a198.77,198.77,0,0,1,14.89,13.68,191,191,0,0,1,13,15.08c9.55,12.74,18.89,25.64,28.82,38.09,8.69,10.88,17.42,21.73,26,32.66,7.47,10.13,14.68,20.32,21.18,31.13,3.5,5.83,6.52,11.87,9.61,17.93,2,3.87,3.67,7.91,5.35,12l0-.06c4.17,10.79,8.4,21.57,12.22,32.51,5.65,16.19,11,32.3,13.76,49.25a131.45,131.45,0,0,1,.18,25.56c-2.94,17-9.29,33.28-15.42,49.37q-6.56,17.2-13.54,34.2c-5.89,13.29-11.81,26.69-19,39.32-4.17,7.28-8.47,14.39-12.94,21.49-3.89,6.17-8.35,12-12.73,17.84q-12.89,16.39-26.28,32.36a215.62,215.62,0,0,1-28.39,28c-6.44,4.71-13,9.24-19.53,13.82-3.71,2.6-7.36,5.29-11,8a121,121,0,0,1-19.53,11.76,148.87,148.87,0,0,1-28.49,7.73,91.54,91.54,0,0,1-15.86.12,114.57,114.57,0,0,1-19.2-5.71,171.82,171.82,0,0,1-30.2-17.91c-6.41-5.22-12.48-10.83-18.38-16.62a130.48,130.48,0,0,0,41.62-16.46c11.1-6.67,21.3-15.22,30.77-24a219,219,0,0,0,16-16.69c11.7-13.37,23.06-26.88,32.48-42,7-11.3,12.28-23.75,16.69-36.29,4.64-13.21,6.85-27.12,8.23-41,1.32-13.34-.32-26.94-2.76-40-2.6-14-8.6-27.73-16.34-39.67a120.33,120.33,0,0,0-26.55-28.53,197.78,197.78,0,0,0-34.33-21.87,292.78,292.78,0,0,0-36.32-14.83,256.55,256.55,0,0,0-37.29-9.5c-26.09-4.69-53.12-6.4-79.46-3a261.22,261.22,0,0,0-79.13,23c-11.57,5.51-21.93,12.88-31.9,20.86-10.38,8.32-19.14,18.42-27.12,29-15.5,20.57-26.29,44-33.72,68.61-2.53,8.32-4.43,16.91-6.18,25.42-2,9.67-3.65,19.33-5.23,29.07-3.07,18.88-4.7,38-5.92,57.08a402.19,402.19,0,0,0,0,51.53c.26,3.83.34,7.73.82,11.54q1.09,8.76,2.23,17.52a242.87,242.87,0,0,0,18.2,66,226.37,226.37,0,0,0,17.15,32c3.82,5.95,7.93,11.69,12,17.44q8.47,11.82,17,23.61c10,14,19.43,28.27,27.1,43.71.26.54.52,1.08.79,1.62,0,0,.09,0,.08,0-2.36-8-5.13-15.82-7.86-23.67-2.63-7.57-6.09-14.89-9.35-22.18-7.76-17.35-16.45-34.26-24-51.69a263,263,0,0,1-16.77-62.56c-1-8.06-1.8-16.16-2-24.28q-.23-8.4-.51-16.78c-.12-3.55.06-7.13.12-10.69.06-4.11,0-8.24.23-12.35.51-9.19,1-18.36,1.74-27.53.68-8.45,1.65-16.86,2.57-25.29,2.27-16.07,4.85-32.06,7.86-48,1.41-7.53,2.92-15.12,4.86-22.53,3.68-14.07,7.21-28,12.56-41.52a187,187,0,0,1,19.71-34.06,160.05,160.05,0,0,1,22.72-23.11,146.21,146.21,0,0,1,26.76-15.5,242.15,242.15,0,0,1,52.11-13.72,227,227,0,0,1,53.12.61,271.48,271.48,0,0,1,29.2,5.83,251.41,251.41,0,0,1,31.08,10.51c14.39,6.31,28.22,13.57,41,22.81a128.35,128.35,0,0,1,17.59,17.28,102.43,102.43,0,0,1,8.12,14,112.19,112.19,0,0,1,5.32,20.39,136.26,136.26,0,0,1,0,26.9,165.58,165.58,0,0,1-9,33.1,172.26,172.26,0,0,1-18.36,31c-4.9,6.08-10.09,11.88-15.26,17.76a228,228,0,0,1-26.74,25.72,134.15,134.15,0,0,1-22.77,13.55,105.92,105.92,0,0,1-17.11,4.79,83.6,83.6,0,0,1-13.25,0,81.12,81.12,0,0,1-12-3.31c-4.08-1.91-8-4-12-6.19l-4.16-2.28c-1-.54-2-1-3-1.5l-5.36-2.25c-2.28-.34-4.56-.63-6.85-.91a22.25,22.25,0,0,0-19.21,33.49c6.44,8.47,14.33,15.91,21.55,23.76,6.18,6.72,12.28,13.54,18.37,20.34,5.53,6.18,11,12.44,16.65,18.5,3.85,4.12,7.66,8.25,11.7,12.18a209.91,209.91,0,0,0,31,24.64c10.95,7.2,23,12.62,35.3,17,7.1,2.53,14.56,3.65,22,4.55a96.27,96.27,0,0,0,19.51.22,164.29,164.29,0,0,0,40.79-8.46,130.19,130.19,0,0,0,18.44-8.21c5.23-2.81,9.85-6.72,14.47-10.4,6.43-5.1,12.5-10.65,18.85-15.86,6.84-5.62,13.68-11.23,20.25-17.17,12.49-11.26,23-24.71,33.4-37.84,12.37-15.62,24.59-31.33,35.75-47.86,20.25-30,34.2-63.76,47-97.39,3.21-8.42,6.57-16.8,9.55-25.32,1.94-5.57,3.93-11.12,5.67-16.75a152.77,152.77,0,0,0,6.4-37.64c.63-12.61-1.27-25.38-3.6-37.71a200.25,200.25,0,0,0-6.3-23.27c-2.49-7.89-5.21-15.69-7.9-23.5-6.49-18.76-13-37.55-21.58-55.46a229.21,229.21,0,0,0-12.09-22.61c-5-8-10.17-15.82-15.47-23.62-9.82-14.46-21-28-31.41-42-5.18-7-10.26-14-15.43-21-4.2-5.64-8.41-11.25-12.71-16.8a184.75,184.75,0,0,0-27.43-28.68,311.28,311.28,0,0,0-27.4-20.19c-7-4.7-14.12-9.44-21.45-13.68l-13.09-7.54c-9.87-5.69-20.46-10.16-31-14.34-5.87-2.32-11.85-4.13-17.88-6-3.9-1.19-7.77-2.49-11.75-3.43l-15.95-3.85c-4.44-1.08-9-1.72-13.49-2.57-3.46-.65-6.88-1.2-10.36-1.7-6.53-.92-13.11-2.11-19.68-2.73-8.9-.83-17.75-1.68-26.68-2-3.62-.14-7.29-.45-10.92-.45ZM2186,1386.4l1.32.18-1.32-.18Zm-139.21,505.88h0Z"/><path class="cls-1" d="M2156.5,1760.83a106,106,0,0,0-21.39,3.54c-6.36,1.74-12.45,4.55-18.4,7.32a115.51,115.51,0,0,0-15.88,9.35,154,154,0,0,0-19.52,15.74,130.05,130.05,0,0,0-12.32,13.82,171.78,171.78,0,0,0-11.06,15c-2.31,3.69-4.79,7.33-6.92,11.14-4.2,7.57-8.51,15.15-12,23.09-4.6,10.56-9,21.14-13.31,31.85-6.58,16.48-12.87,33.09-19,49.75-1.39,3.77-2.45,7.7-3.65,11.53-2.45,7.79-4.52,15.62-6.21,23.62a291.09,291.09,0,0,0-5.3,39.46,198.69,198.69,0,0,0,0,27.49q.49,6.94,1,13.88c.25,3.49,1,7.26,1.46,10.79s1,7,1.43,10.53a179.93,179.93,0,0,0,4.82,23.09c1.17,4.21,2.11,8.58,3.52,12.71q2.57,7.5,5.12,15a210.47,210.47,0,0,0,12.87,29.31c6.13,11.71,14.46,22.4,23.22,32.25,7,7.81,14.67,15,22.35,22.13,7.13,6.59,14.33,13.09,21.56,19.55a274.18,274.18,0,0,0,26.26,20.48c4.92,3.42,10,6.57,15.18,9.6a165.92,165.92,0,0,0,16.16,8.56c9.61,4.29,19.16,9,29.09,12.55,8.63,3.08,17.18,6.3,26,8.86s17.57,5.13,26.42,7.5c17.24,4.65,34.48,9.46,51.9,13.36,8.8,2,17.56,4,26.44,5.6,16.35,2.84,32.62,5.49,49.17,7,26.66,2.49,53.52,1.45,79.45-5.69,12.39-3.41,24.34-8.38,36-13.79a183.07,183.07,0,0,0,33.84-20.6,301.7,301.7,0,0,0,55.09-55.23,309.81,309.81,0,0,0,22.61-32.87c7.35-12.52,13-26,18.44-39.48,9.5-23.74,15.64-48.86,19.65-74.06q3.19-20,4.51-40.23c.4-6.23.57-12.46.65-18.71.06-5.3.14-10.7-.25-16q-.86-11.25-1.7-22.52a241.42,241.42,0,0,0-7-41.33,153,153,0,0,0-8.28-22.87,83,83,0,0,0-15-22.41,79.07,79.07,0,0,0-16.14-13.2,30.47,30.47,0,0,0-11.25-4.55,17.15,17.15,0,0,0-9.08,0,28.26,28.26,0,0,0-6.66,3c-7,4.66-10.29,12-13.12,19.62a140.77,140.77,0,0,0-4,14.21c-1.52,6-3.12,11.91-4.7,17.85a283.42,283.42,0,0,1-11.34,33.54,277.57,277.57,0,0,1-32.21,54.25,306.69,306.69,0,0,1-49.64,49.08,272.49,272.49,0,0,1-24.21,16.61L2393,2101.83c-4.11,2.46-8.45,4.57-12.67,6.81-6.69,3.57-13.39,7-20.31,10.06a174.77,174.77,0,0,1-35.41,10,60.45,60.45,0,0,1-34.82-4.27,178.34,178.34,0,0,1-32.3-19.44,157.09,157.09,0,0,1-22.9-22.63,194,194,0,0,1-20.84-36.23,221.49,221.49,0,0,1-13.38-49.6,146.23,146.23,0,0,1-.43-30.71,123.24,123.24,0,0,1,6.29-24,80.26,80.26,0,0,1,7.43-12.86,68.47,68.47,0,0,1,6.48-6.34,66.92,66.92,0,0,1,9.35-5.52,67.62,67.62,0,0,1,10.62-3,74.3,74.3,0,0,1,11.85-.09,119.71,119.71,0,0,1,24.16,7.32c17.86,7.64,35.29,16.41,50.87,28.09,15,11.9,27.52,26.12,39.52,40.94,3.08,4,6.13,8.07,9,12.28,0,0,.09,0,.08,0-10.11-26-24.84-50.67-45.28-69.82a201.41,201.41,0,0,0-26.69-20.44,198.66,198.66,0,0,0-34.38-18.55,75.19,75.19,0,0,0-15.94-4.75,69.54,69.54,0,0,0-18-.75,68.58,68.58,0,0,0-36.61,15c-9.16,7.35-16,17-21.12,27.57a129.7,129.7,0,0,0-11.53,40.33,169.36,169.36,0,0,0-.22,36.86,220.41,220.41,0,0,0,7.64,40.82,203.88,203.88,0,0,0,13.81,34.38c6.09,12.2,14,23.22,22.76,33.62,7.86,9.3,17.23,17.08,26.92,24.38a176.88,176.88,0,0,0,32.49,19.67,121.59,121.59,0,0,0,18.67,6.85,107.59,107.59,0,0,0,19.38,3c5.91.49,12-.16,17.84-.83a170.2,170.2,0,0,0,21.95-4c18.86-4.65,36.48-13.15,53.49-22.34l11.66-6.3c4.33-2.33,8.46-5.12,12.67-7.66s8.33-4.94,12.37-7.61a378.17,378.17,0,0,0,32.8-24.58,296.93,296.93,0,0,0,52.64-57.12,253.66,253.66,0,0,0,18.89-31.74,215.76,215.76,0,0,0,12.66-29.85q2.45-7.37,4.87-14.73c1.5-4.55,2.49-9.33,3.72-14,2.07-7.8,3.62-15.77,5.22-23.69a81.4,81.4,0,0,1,5.62,10.2,153.11,153.11,0,0,1,7.7,31.51c.79,6.36,1.42,12.76,1.6,19.16q.21,8,.44,16.07a330.55,330.55,0,0,1-2.73,49.9,385.09,385.09,0,0,1-23.56,88.54c-4,9.17-8.35,18.16-13.22,26.89a245.08,245.08,0,0,1-18.68,28.05,303.62,303.62,0,0,1-47.23,48.09,159,159,0,0,1-71,30c-18,1.87-36,.79-54-1.43-30.39-4.49-60-12.51-89.54-20.86-11.75-3.33-23.49-6.71-35.18-10.25-6.49-2-13.12-3.68-19.51-6l-19.37-7-14.22-6.33a200.13,200.13,0,0,1-19.17-10.25,222.74,222.74,0,0,1-19.88-13.21c-9.79-7.82-19.11-16.19-28.42-24.56-11.32-10.18-22.61-20.48-32.31-32.24a163.15,163.15,0,0,1-16-28.25l-5.29-14c-2-5.25-3.34-10.83-5-16.19-.83-2.67-1.28-5.52-1.92-8.24s-1.28-5.49-1.93-8.24-.89-5.74-1.33-8.56l-.6-3.87-1.34-16a187.31,187.31,0,0,1-.21-20.19c.18-6.92.76-13.82,1.57-20.69a170.81,170.81,0,0,1,5.57-26.08q2.12-6.74,4.25-13.47c2.22-7,4.9-13.93,7.6-20.77,5.82-14.68,11.61-29.37,17.5-44,8.2-18.77,17.13-37.14,29.22-53.75a129.35,129.35,0,0,1,17.48-17.61A138.8,138.8,0,0,1,2146.2,1810a91.07,91.07,0,0,1,16.11-4.36c9-.87,18-.92,27-.95,9.28,0,18.58-.06,27.84.31,17.72.74,35.32,2,52.93,4a301.59,301.59,0,0,1,29.72,6.2,258.57,258.57,0,0,1,30.4,10.36,132.79,132.79,0,0,1,25.7,14.61,134.49,134.49,0,0,1,19.91,20.59,140.69,140.69,0,0,1,16.63,28,116.6,116.6,0,0,1,6.87,26.08c2.11,17.4,1.25,35.15.08,52.6-1.08,15.82-2.32,31.61-3.17,47.44a0,0,0,1,0,.08,0c.26-2,.53-4,.78-6h0c2.36-17.22,5.2-34.41,7.14-51.67,1.17-10.36,2.32-20.73,2.76-31.16a136.85,136.85,0,0,0-2.54-32.43c-2.22-11.25-6.69-22-11.73-32.21a159.41,159.41,0,0,0-17.84-28.24,120.41,120.41,0,0,0-27-24.53c-9.25-6.3-19.42-11.23-29.51-16-8.8-4.17-17.87-7.7-27-11-8.3-3-16.93-5.08-25.48-7.22-7.88-2-15.91-3.43-23.88-5-8.25-1.63-16.54-3.17-24.88-4.43-16.22-2.45-32.82-4.4-49.33-4.4q-5.65,0-11.28.32ZM2375,1859.62l.51.68-.51-.68Zm22.11,149.22a.14.14,0,0,0,0-.06v.06Z"/><path class="cls-1" d="M2804.81,1062.84l-14.61.54c-8.51.31-16.92.66-25.41,1.48-10,1-19.86,1.89-29.75,3.47l-16.95,2.68a280.92,280.92,0,0,0-27.51,6.13c-19.15,5.08-37.48,12.89-55.41,21.21-5,2.34-10,4.8-15,7.27q-1.88.69-3.75,1.42c-4.6,1.8-9.2,3.6-13.68,5.69-6.79,3.15-14,9.34-13.23,17.63a15,15,0,0,0,7.45,13c2.71,1.2,5.47,2.79,8.59,2.47a41,41,0,0,0,7.62-1.23c3.77-1.11,7.48-3.06,11.1-4.59s7.36-3.33,11-5c8-3.54,16-7,24-10.41l15.55-5.91,1.36-.51a175.89,175.89,0,0,1,37.74-.14,192,192,0,0,1,43,12.28,197.76,197.76,0,0,1,38.26,22,191.26,191.26,0,0,1,29.21,29.41,204.79,204.79,0,0,1,23.32,39.29,173.9,173.9,0,0,1,10.77,38.87,194.08,194.08,0,0,1-.14,44.36,174.29,174.29,0,0,1-10.26,38.12,187.3,187.3,0,0,1-21.53,36.49,175.25,175.25,0,0,1-27.5,27.48,145.77,145.77,0,0,1-27.43,16.26,95.88,95.88,0,0,1-19,5.15,65,65,0,0,1-33.05-4.51,75.88,75.88,0,0,1-12.61-7.3,64.66,64.66,0,0,1-8.14-8,72,72,0,0,1-6.54-11.53,93.69,93.69,0,0,1-4.56-18.6,160,160,0,0,1,.52-36.44,169.09,169.09,0,0,1,10.92-41.31,121.77,121.77,0,0,1,14.05-24.06,89.56,89.56,0,0,1,14.09-13.8,80.18,80.18,0,0,1,14.62-8.45l0,0a51.41,51.41,0,0,1,7.67-2.36h0c2.1-.28,4.2-.52,6.3-.73a0,0,0,0,0,0-.08,54.85,54.85,0,0,0-11.57.82c-4.85,1-9.47,3-13.9,5.17-10.35,5-19.06,13-26.24,21.87-14.8,18.24-22.8,41.11-27.26,63.89a159.58,159.58,0,0,0-3,33.39,123.57,123.57,0,0,0,1.7,16.49c.95,6.3,3.24,12.15,5.77,17.94,4.2,9.6,11.83,17.78,20.29,23.8a81.7,81.7,0,0,0,34.5,13.85c11.63,1.88,23.13.92,34.58-1.65a92.72,92.72,0,0,0,15.74-5.45,153.66,153.66,0,0,0,18.15-9.17,169.61,169.61,0,0,0,27.83-21.21c9.16-8.41,16.92-18.16,24.2-28.19a175.1,175.1,0,0,0,28.9-65.63,185.93,185.93,0,0,0,0-76.75c-3.55-17.1-10.66-33.57-19.06-48.8-8.65-15.68-20-30.12-32.48-43-20.83-21.46-47.18-37.06-75.34-47,7.39-.66,14.78-1.25,22.2-1.46l23.51-.66c7.32-.21,14.72.22,22,.58,8.48.43,16.93,1.27,25.35,2.32,26.11,3.75,52.22,9.75,76.71,19.66a205.59,205.59,0,0,1,20.26,10.26,168.25,168.25,0,0,1,16.6,11.26,230.06,230.06,0,0,1,35.06,35,179.24,179.24,0,0,1,19.93,34.18,222.64,222.64,0,0,1,13,49.4,215.31,215.31,0,0,1,1.45,25.53,221.36,221.36,0,0,1-1.91,26.18,270.84,270.84,0,0,1-16.73,61.07c-5.42,12.38-11.68,24.27-18.15,36.13-6.8,12.45-13.82,24.68-22.29,36.08a121.81,121.81,0,0,1-50.6,39.08,183,183,0,0,1-39.37,10.29c-8.46,1-16.9,1.63-25.41,2.07-5.66.3-11.35.79-17,.88-11.61.17-23.2.41-34.81.25-5.87-.08-11.79.06-17.65-.26l-19.94-1.08c-10.51-.57-21-1.75-31.42-2.79L2719,1491.8c-7.9-1.24-15.74-3.2-23.58-4.82-6.93-1.44-13.79-3.21-20.65-4.9a324.67,324.67,0,0,1-40.77-12.36,123.61,123.61,0,0,1-21.33-12.27,81.89,81.89,0,0,1-25.49-33.48c-5.57-14.45-8.81-29.62-11.05-44.94-3.34-27.17-4.68-54.43-1.58-81.69a152.93,152.93,0,0,1,7.63-30.58,105.33,105.33,0,0,1,10-17.48,125.92,125.92,0,0,1,16.74-16.4c14.76-10.86,30.89-19.29,47.33-27.28,7.76-3.78,15.71-7.08,23.64-10.47,11.35-4.07,22.58-8.23,34.24-11.36,13.24-3.56,26.88-5.62,40.46-7.45l-.6.08c8.76-1.17,17.52-2.33,26.34-2.94a0,0,0,0,0,0-.08c-9.2-.79-18.45-1.2-27.67-1.52l-14.59-.52a258.67,258.67,0,0,0-34.27,1.15c-5.66.54-11.23,1.48-16.86,2.38-4.26.7-8.64,1.17-12.87,2.12-8.59,2-17.21,3.76-25.68,6.22l-14.3,4.15c-11.52,3.36-22.69,8.23-33.49,13.37a136.33,136.33,0,0,0-29,19.19c-9.81,8.24-17.5,19.07-23.57,30.27s-10.14,23.85-13.25,36.25c-3.37,13.47-5.09,27.51-6.23,41.33-2.12,25.69-.32,52,4.24,77.36a170.18,170.18,0,0,0,11.53,37.49,136,136,0,0,0,8,15.74c4.08,6.87,9.29,13.19,14.52,19.21a104,104,0,0,0,12.77,12,147.14,147.14,0,0,0,16.49,11.76c11.67,7.11,24.76,11.88,37.66,16.22,13.38,4.51,27.22,7.5,40.93,10.79,8.71,2.09,17.53,3.68,26.31,5.42s17.59,2.77,26.4,4c10.6,1.5,21.22,2.27,31.9,3.14,8.93.71,17.91.73,26.84,1s17.88-.1,26.82-.26c18.22-.35,36.34-1.94,54.48-3.55,22-1.94,44-5.93,64.57-14,23.76-9.26,45.53-23.27,62.88-42a205.34,205.34,0,0,0,21.9-29.09c3.78-5.95,7.27-12.06,10.66-18.25,7-12.71,13.89-25.34,20-38.52a277.78,277.78,0,0,0,22.92-75.64,258.33,258.33,0,0,0,3.07-39.87c-.12-14-2.18-28.14-4.83-41.89a198.71,198.71,0,0,0-10.68-36.26,191.63,191.63,0,0,0-19.2-36.86,232,232,0,0,0-23.31-28.54c-9.25-9.81-19.65-18.32-30.38-26.43-20.52-15.51-44.63-25.78-69.21-32.95-25-7.31-51-11.6-76.92-13.81-8.93-.76-18-1.34-27.05-1.34q-3.51,0-7,.12ZM2682,1194.25l-.87.37.87-.37Z"/><path class="cls-1" d="M2755.93,1208.6a105.07,105.07,0,0,0-20.6,10.09c-12.83,7.86-23.15,19.14-31.79,31.31a167.36,167.36,0,0,0-21.65,43.64c-5.39,16.07-7.84,32.87-9.2,49.7-1.09,13.64-1.48,27.35-1.75,41-.27,13.49-.62,27-.18,40.51,0,0,.08.05.08,0,2.16-15.55,5.34-31,8.19-46.41,1.9-10.27,3.67-20.57,5.67-30.84,2.23-11.44,4.74-22.74,8-33.92a321,321,0,0,1,11.26-32c6.14-14.28,13.3-28.18,22.63-40.67a124.33,124.33,0,0,1,19.42-19.67,136.78,136.78,0,0,1,14.06-9.52c5.82-3.39,11.88-6.39,17.94-9.3.05,0,0-.08,0-.08a209,209,0,0,0-22.05,6.14Zm-29.66,32.81-.45.58.45-.58Z"/><path class="cls-1" d="M2599.83,1536.86a273.61,273.61,0,0,0-34.58,8.78c-5.09,1.61-10.09,3.59-15.12,5.38-20.91,7.44-41.52,17-59.51,30.12a158.37,158.37,0,0,0-27.69,25.29,185.61,185.61,0,0,0-23,34.14c-12.87,24.63-20.31,52.33-19.78,80.2.25,13.4,2.49,26.88,5,40a260.72,260.72,0,0,0,10.82,38.45c5.57,15.61,12.81,30.39,20.19,45.2,1.53,3.06,3.26,6,5,9,3.1,5.43,6.14,10.87,9.48,16.16a201,201,0,0,0,23.53,30.5,122.17,122.17,0,0,0,16.74,14.17,109.24,109.24,0,0,0,17.22,10.3,191.65,191.65,0,0,0,36.07,12.87c5.4,1.4,10.87,2.47,16.32,3.65,7.46,1.63,15.09,2.66,22.66,3.72a231.93,231.93,0,0,0,26.77,2.62c16.13.36,32.27-.26,48.35-1.31a250.77,250.77,0,0,0,31.43-4.13c11.06-2.16,21.65-6.78,31.85-11.44,10-4.57,18.8-10.74,27.21-17.72a73,73,0,0,0,9.06-9.29,92.17,92.17,0,0,0,10.49-15.16c5.74-10.52,9.08-22.18,11.4-33.87,1.7-8.52,2.69-17.2,3.78-25.83l.74-5.39c.26-1.94.6-3.85,1-5.77.65-3.52,1.8-6.83,1.76-10.49h0a21.36,21.36,0,0,0-.76-5.7,21.59,21.59,0,0,0-9.87-12.84l-5.13-2.16a21.65,21.65,0,0,0-11.43,0c-6.31.91-10.82,6.28-14.06,11.22a24.65,24.65,0,0,0-2.68,6.23,129.87,129.87,0,0,1-12.52,11c-3.19,2.25-6.41,4.45-9.62,6.68-7.89,5.48-16.77,9.82-25.6,13.7a159.17,159.17,0,0,1-31.45,9.31,79.59,79.59,0,0,1-13.28.14,59,59,0,0,1-9-2.31,69.12,69.12,0,0,1-9.58-5.55,78.46,78.46,0,0,1-9.75-9.79,125.57,125.57,0,0,1-12.56-22.24,134.29,134.29,0,0,1-7.82-28.08,115.38,115.38,0,0,1,0-23.52,116.73,116.73,0,0,1,6.45-24.43,84.77,84.77,0,0,1,8.4-14.37,99.38,99.38,0,0,1,14.85-14.58,82.79,82.79,0,0,1,13.43-7.88,55.46,55.46,0,0,1,9-2.5,43.39,43.39,0,0,1,6.25-.1,25.18,25.18,0,0,1,3.54.92,29.88,29.88,0,0,1,4.6,2.63,56,56,0,0,1,4.93,4.89,48,48,0,0,1,4.58,8,72.23,72.23,0,0,1,3.42,13.49,99.6,99.6,0,0,1-.24,22.48,151.19,151.19,0,0,1-9.21,33.06l.12-.3a187.39,187.39,0,0,1-11.76,22.78s0,.08.08,0c13.91-18.92,24.47-40.18,28.23-63.54,3.23-20.13-.14-44.65-19-56.1-8.73-5.29-20-4.35-29.45-2.06-5.45,1.32-10.66,3.9-15.61,6.49-5.88,3.07-11.19,7.31-16.3,11.53-18,14.91-28,37.81-31.75,60.45a115.56,115.56,0,0,0-.29,36c2,13.46,6.21,26,11.65,38.38a99.36,99.36,0,0,0,18,27.21c8.29,9,19,15.37,30.45,19.47,5.92,2.12,12.54,2.67,18.76,3.16,6.39.49,12.8-.6,19.1-1.49,13.45-1.93,26.4-6.72,38.82-12.07a227.19,227.19,0,0,0,20.68-10.19q-1,3.43-2.19,6.81a74.9,74.9,0,0,1-5.66,9.81,82.27,82.27,0,0,1-8.74,8.57,106.56,106.56,0,0,1-16.11,9,123.63,123.63,0,0,1-23.63,6.46,354.33,354.33,0,0,1-36.5,1.66c-7.06,0-14.12,0-21.18-.12-5.25-.12-10.45-.55-15.65-1.11-8.49-1.39-16.92-3-25.34-4.77-13.78-2.91-27.54-6.39-40.7-11.47a116.41,116.41,0,0,1-17.08-9.74,131.7,131.7,0,0,1-16.95-17.51c-7.56-10.35-13.85-21.44-20.33-32.5-2.41-4.12-4.42-8.55-6.61-12.79-2.87-5.57-5.56-11.18-8.09-16.9a253.4,253.4,0,0,1-15.39-54.61,148.77,148.77,0,0,1-.37-29.82,159,159,0,0,1,8.75-31.25,169.57,169.57,0,0,1,16.89-29.15,145.86,145.86,0,0,1,20.27-20.32,205.82,205.82,0,0,1,37-20.76,282.51,282.51,0,0,1,63-17.67,156.21,156.21,0,0,1,32.61-.66,182.4,182.4,0,0,1,37.25,11,188.55,188.55,0,0,1,34,19,111.54,111.54,0,0,1,14,13.88,127.68,127.68,0,0,1,12.41,21.72,188.92,188.92,0,0,1,8.91,31.21c.76,3.78,1.27,7.62,1.83,11.44a183.66,183.66,0,0,1,.46,40.16,103.16,103.16,0,0,1-5.39,20.48,101.44,101.44,0,0,1-10.84,18.35,136.77,136.77,0,0,1-20.36,20.21,162.68,162.68,0,0,1-30,17.83h0l-.06,0-.05,0h0q-1.85.79-3.75,1.55c-.05,0,0,.09,0,.08a168.51,168.51,0,0,0,35.85-10.07,127.6,127.6,0,0,0,27.13-15.64,100.22,100.22,0,0,0,23.53-25.17c6.18-9.28,10.14-20.28,12.84-31,3.19-12.67,4.43-26,4.75-39a200.76,200.76,0,0,0-5.34-50.75,122.14,122.14,0,0,0-39.13-64.87c-20.07-17.11-44.06-29.41-69.13-37.39-12-3.82-24.93-5.52-37.49-6.06q-2.41-.1-4.82-.1c-12.87,0-25.8,2.09-38.4,4.31Zm78.77,152.06.8.11-.8-.11ZM2693.76,1811l0,0,0,0-.08,0Z"/><path class="cls-1" d="M1438.5,2304.65l-.22.25a24.44,24.44,0,0,0-6.27,23.76,59.82,59.82,0,0,0,2.86,7c.84,1.19,1.62,2.41,2.33,3.67.92,1.53,2,3,3.06,4.39,1.33,1.8,2.64,3.61,4,5.41,1.34,2.64,2.59,5.32,3.79,8a225.63,225.63,0,0,1,13.58,118,217.37,217.37,0,0,1-12.43,46.91,174.38,174.38,0,0,1-18.3,31.51,128.78,128.78,0,0,1-17.52,17.8,100.5,100.5,0,0,1-16,9.2,106.64,106.64,0,0,1-19.06,5,120.65,120.65,0,0,1-23.68-.16,123.81,123.81,0,0,1-24-6.63,95.76,95.76,0,0,1-14.64-8.46,81.65,81.65,0,0,1-9.41-9.27,73.56,73.56,0,0,1-5.83-9.72,62,62,0,0,1-3-10.78,56.54,56.54,0,0,1,.17-8.54,158.31,158.31,0,0,1,8.74-29.21,123.62,123.62,0,0,1,12.91-22,93.2,93.2,0,0,1,14-14.06,73.45,73.45,0,0,1,11.15-6.4,66.32,66.32,0,0,1,12.06-3.19,62,62,0,0,1,12.21,0,84.51,84.51,0,0,1,16.61,5,114,114,0,0,1,22.29,12.71,65.55,65.55,0,0,1,9.8,9.2l-.31-.41a23.59,23.59,0,0,1,2.66,4c-.05-.14-.12-.27-.17-.41a18.07,18.07,0,0,1,1.77,5.32,17.74,17.74,0,0,1-.27,5.49c0-.1,0-.19,0-.28a29.18,29.18,0,0,1-2,5.66c0-.05,0-.1.06-.16-1.41,3-3,6-4.5,9,0,.05,0,.09.06,0,4.39-6.49,11.45-14.58,9-23.14-2.86-10-10.6-17.23-18.36-23.71a114.4,114.4,0,0,0-25.63-15.88,57.37,57.37,0,0,0-31.46-4.43c-11.57,1.58-21.83,6.26-31.25,13.09s-16.95,15.65-23.77,25a115.76,115.76,0,0,0-12.67,22.76c-3.28,7.64-6.91,15.24-9.07,23.29-3.11,11.58-1.65,24.18,2.07,35.41,3.89,11.76,11.16,22.19,19.89,30.85a97.08,97.08,0,0,0,15.31,11.88,102.51,102.51,0,0,0,17,8.46c13.32,5.56,27.14,8.33,41.52,9.34,13.1.92,26.75-1.08,39.3-4.79a116.87,116.87,0,0,0,18.06-7.49c6.52-3.2,12.36-7.53,18-12a134.75,134.75,0,0,0,23.07-23.58,185.14,185.14,0,0,0,20.85-33.21,212.32,212.32,0,0,0,14.55-40.62c3.76-14.93,5.62-30.47,6.76-45.8a243.5,243.5,0,0,0-.28-38.5c10.35,9.86,20.66,19.77,29.71,30.83a161.48,161.48,0,0,1,16.9,29.13,281.29,281.29,0,0,1,13.23,45.24c1.13,5.42,1.91,10.94,2.82,16.41.7,5.85,1.44,11.7,1.73,17.57.22,4.68.47,9.35.71,14,.23,4.39,0,8.86,0,13.25a375.63,375.63,0,0,1-3,46c-2.43,16.42-6.08,32.57-12.18,48a174.48,174.48,0,0,1-17.66,30.81,163.67,163.67,0,0,1-21.86,22.36c-7.77,5.57-16.11,9.47-24.76,13.5-7.72,3.59-15.24,7.46-22.74,11.45-7,3.73-13.88,7.84-20.82,11.73-8,4.43-16,8.64-24.19,12.72,0,0,0,.09,0,.08,16.89-6,33.81-12.18,51.19-16.64a252.47,252.47,0,0,1,25.23-5,96.17,96.17,0,0,0,11.5-2.15,90.17,90.17,0,0,0,21.18-9.11,86.86,86.86,0,0,0,9-6c6.18-4.77,12.31-9.44,18-14.81,8.77-8.25,16.18-18,23-27.91,7.84-11.35,13.47-24,18.46-36.81,5.8-14.86,9.16-30.23,12.33-45.77.69-3.33,1.1-6.7,1.58-10.07.84-5.91,1.93-11.91,2.44-17.85q.7-8,1.33-16.1c.35-4.26.26-8.56.34-12.84.05-3.5.09-6.94-.1-10.44-.27-4.85-.26-9.82-.87-14.64q-1-7.52-2-15a248.08,248.08,0,0,0-6.18-32c-3.26-12.07-8-23.67-13.1-35.07-5.77-12.87-13.77-24.18-22.47-35.21s-19.07-20.29-29.18-29.82c-6-5.64-12-11.18-17.85-17-7-7-13.79-14-20.47-21.17-6-6.45-11.67-13.1-17.41-19.76-2.26-2.62-4.41-5.35-6.57-8.07q-1.23-1.71-2.42-3.42c-.33-.75-.67-1.49-1-2.21l-1.85-3.54c-1.79-3.39-4.39-6.3-6.78-9.28-3.82-4.78-11.44-7.16-17.28-7.16-6.1,0-13.16,2.46-17.28,7.16Zm-16.88,188,0,.21c0-.07,0-.14,0-.21Z"/><path class="cls-1" d="M1304,2365.12c-25.29.56-49.57,9.26-70.78,22.7a193.75,193.75,0,0,0-30.11,24.18c-9.78,9.39-18.23,20.13-26.11,31.13-3.24,4.52-6.15,9.24-9.12,13.94-2.1,3.33-4.25,6.63-6.17,10.07-4.79,8.59-9.46,17.17-13.81,26-4.11,8.33-7.8,16.8-11.47,25.35a206.31,206.31,0,0,0-8.33,23.32,183.56,183.56,0,0,0-5.6,29.23c-2.53,20.19,1.19,41,6.83,60.39,4.56,15.69,11.26,30.59,18,45.44.89,2,2,3.85,3.06,5.75l6.53,12.09c3.12,5.78,6.65,11.36,10,17,7.24,12.28,14.51,24.54,21.57,36.94,0,0,.09,0,.06,0q-4.88-14.44-9.69-28.9c-3.26-9.78-6.78-19.55-9.74-29.42q-2.6-8.71-5.22-17.39c-1.43-4.75-2.42-9.65-3.58-14.47-2.7-11.23-4.83-22.62-6.46-34.06a191.57,191.57,0,0,1-.67-44.78,184.91,184.91,0,0,1,11.52-40c1.67-3.74,3.45-7.4,5.26-11.08,1.5-3.06,2.88-6.23,4.52-9.22,3.43-6.27,6.67-12.71,10.31-18.86,3.91-6.58,7.62-13.29,11.76-19.72,6.36-9.83,12.64-19.6,19.66-29a221.22,221.22,0,0,1,35.31-35.91,153.54,153.54,0,0,1,27.24-16.13,136.28,136.28,0,0,1,27.79-7.61,105.48,105.48,0,0,1,55.8,7,117,117,0,0,1,23.12,13.44,95.13,95.13,0,0,1,13.43,13.45,84.86,84.86,0,0,1,8.29,14.06,88.8,88.8,0,0,1,5.09,18.7c0-.27-.08-.56-.1-.84,2.15,16.4,1.44,32.66,0,49.09,0,0,.08.05.09,0,4.79-22,8.86-45,4.15-67.41-4.91-23.27-22-41.71-41.1-54.69-10-6.81-21.48-11.54-33-15.08-11.1-3.41-23-4.68-34.66-4.68q-1.84,0-3.67,0Z"/><path class="cls-1" d="M1231.79,2717.57a479.36,479.36,0,0,0-58.29,7.37,292.3,292.3,0,0,0-49.56,13.69c-18,6.84-35.91,14.21-52.85,23.5-20.44,11.21-40,24.09-57,40.14-16.8,15.86-29.71,35.08-42.38,54.22-8.72,13.16-16.18,27.12-23.77,40.94-3.91,7.13-7.27,14.6-10.84,21.9-3.34,6.8-6.23,13.79-9.22,20.73a241.47,241.47,0,0,0-14.54,45.71c0,.05.06.06.08,0,2.24-6.49,4.88-12.85,7.39-19.25l6.76-14.28c1.74-3.68,3.83-7.18,5.83-10.73l7.81-13.94c2.55-4.57,5.6-8.93,8.38-13.37,2.29-3.67,4.46-7.49,6.93-11.05q5.36-7.7,10.71-15.42c5-7.22,10.46-14.1,15.82-21.05,4.66-5.54,9.16-11.27,14.12-16.56l9.91-10.61a175.39,175.39,0,0,1,19.78-17.71,211.2,211.2,0,0,1,22.43-14.79c4.21-2.4,8.37-4.92,12.72-7.07,4.66-2.29,9.26-4.85,14-6.88l12.36-5.27c4.94-1.82,9.9-3.66,14.83-5.51s10.29-3.34,15.4-5c9.85-3.21,20-5.56,30-8.16,19.6-5.11,39.67-8.3,59.7-11.23,22-2.3,44-4.09,66.1-5.13,11.67-.56,23.33-1.26,35-1.15,6.34.06,12.57.38,18.9.78,5,.32,10,1,14.95,1.58,17,2.81,33.81,5.83,49.92,12.14a114,114,0,0,1,21.37,12.56,250,250,0,0,1,39.6,40.66,0,0,0,0,0,.06-.05c-10-22-20.79-44.81-38.34-61.86-13.81-13.44-31.82-20.87-49.58-27.45a215.51,215.51,0,0,0-26-7.45c-17.89-4.21-36.42-5.71-54.75-6q-6.82-.09-13.64-.09c-13.42,0-26.84.3-40.24,1.13Z"/><path class="cls-1" d="M1665.81,2614.66a109.82,109.82,0,0,0-32.47,14.37c-10.87,7-20.38,15.91-29.71,24.77-12.68,12-24.75,24.8-36.63,37.62-7.07,7.63-13.27,16.05-19.54,24.34a198.16,198.16,0,0,0-13.53,21.23,319,319,0,0,0-23.74,52.63,183.56,183.56,0,0,0-6.81,23.53c-.92,4.3-2.09,8.62-2.75,13q-1.13,7.48-2.27,15a186.23,186.23,0,0,0-2.1,37.3,170.73,170.73,0,0,0,7.11,39.7c3.85,12.94,9.48,25.48,15.56,37.51a206.07,206.07,0,0,0,23.11,35.63c16,20.19,35.54,37.16,57.15,51.19,16.05,10.42,33.37,18.18,51,25.45,3.55,1.46,7.06,3.12,10.69,4.37l16.83,5.71c21.92,7.45,45.5,10.86,68.54,12.17,26.6,1.52,53-2.37,79.19-6.48,22.44-3.52,44.11-11.49,64.59-21.16,22.53-10.64,43.4-25.45,61.53-42.48,9.78-9.19,18.14-19.59,26.26-30.24a158.61,158.61,0,0,0,18.72-31.61c5.55-12.41,9.79-25,11.78-38.45a153.83,153.83,0,0,0,1.89-22.08c0-8.32-1.28-16.64-2.5-24.84a132.83,132.83,0,0,0-8.25-30.74c-2.53-6.12-4.83-12.44-7.68-18.41-4-8.47-8.24-16.78-12.9-24.94a274.91,274.91,0,0,0-17.62-27.22c-5.73-7.75-11.71-15.55-21.52-18.24-13.24-3.65-26.3,2.85-33.44,14.06-3.65,5.73-6.19,12.23-9,18.42-4.4,9.72-9,19.38-14.28,28.67q-4.78,8.4-9.83,16.6c-2.83,4.56-6,8.9-9,13.29l-6.24,7.89c-8.15,10.3-18,19.51-28.2,27.79a162.13,162.13,0,0,1-27.69,16.57,126.88,126.88,0,0,1-23.55,6.63,117.08,117.08,0,0,1-20.77-.05,147.58,147.58,0,0,1-28.14-7.85,171.38,171.38,0,0,1-30.66-17.65,148.48,148.48,0,0,1-19.39-19.46,158.72,158.72,0,0,1-16.07-27.69,180.16,180.16,0,0,1-10.38-37.6,159,159,0,0,1,0-34.09,120.18,120.18,0,0,1,5.49-22,67.12,67.12,0,0,1,4.94-8.8,57.74,57.74,0,0,1,6.08-6.08,65,65,0,0,1,8.12-4.71,67.83,67.83,0,0,1,11.29-3.11,73.65,73.65,0,0,1,13.88.07,81.89,81.89,0,0,1,14.32,4,79.81,79.81,0,0,1,13.13,7.68,80.64,80.64,0,0,1,10.33,10.27,89.91,89.91,0,0,1,16.65,39c1.24,12,.18,24.1-1.42,36l0-.31c-.56,4.21-1.33,8.37-2.29,12.52,0,0,.06.08.08,0a222.62,222.62,0,0,0,8.6-25.29c3.07-10.53,5.16-21.22,4.57-32.23a99,99,0,0,0-8.21-33.65c-9-21.17-28.76-35.94-50.33-42.5a73.66,73.66,0,0,0-33.09-1.83,67.1,67.1,0,0,0-32.48,14.77c-10,8.55-16.58,19.6-21.52,31.7a145.53,145.53,0,0,0-5.66,16.7c-2.16,7.89-3.24,16-4.26,24.1a143.3,143.3,0,0,0,.39,35.64,180.65,180.65,0,0,0,9.5,40.62,159.86,159.86,0,0,0,17.84,35.06,143.3,143.3,0,0,0,27.75,30.2c20.88,17,45.49,29.86,71.78,36.06a136.28,136.28,0,0,0,63.1-.54c9.42-2.24,18.35-6.08,27.21-9.9a149.09,149.09,0,0,0,26.47-15.3c22.4-15.74,41.29-35.9,56.77-58.41a329.5,329.5,0,0,0,21.36-35.73q1.28-2.48,2.53-5c2,4,4,8,5.88,12.08l1.81,4.29,4.42,12a141.64,141.64,0,0,1,6.67,26.64,125.53,125.53,0,0,1,.21,23.66,136.45,136.45,0,0,1-6.88,24.74,179.16,179.16,0,0,1-18.93,31.67,215.75,215.75,0,0,1-31.77,31.75,241.56,241.56,0,0,1-44.87,26.29,194.71,194.71,0,0,1-40.48,11.75l-17.69,2.91-19.71,1.83c-15.91,1.48-32.23.65-48.1-1.19a280.35,280.35,0,0,1-32.92-7.15c-5.08-1.41-10.08-3.25-15.11-4.87-7.48-2.42-14.74-5.45-22-8.38A270.15,270.15,0,0,1,1606.7,2987a221,221,0,0,1-33.09-32.7,210.2,210.2,0,0,1-22.67-39.39,168.09,168.09,0,0,1-9.64-34.29,152.67,152.67,0,0,1,0-33.77q.64-5.61,1.3-11.22,1.23-7,2.47-13.92c.53-2.93,1.48-5.84,2.2-8.72.62-2.42,1.09-4.95,1.87-7.33q2.62-8,5.27-15.95c1.22-3.71,2.8-7.36,4.36-11l6.79-14.36c2.22-4.68,4.91-9.16,7.37-13.72,4.32-8,9.7-15.44,15-22.83,8.94-10.86,18.27-21.26,28-31.43,11-11.51,22-23.15,34.39-33.25a111.13,111.13,0,0,1,18.58-11.17,118.19,118.19,0,0,1,23.29-6.25,103.22,103.22,0,0,1,20.14,0,118.63,118.63,0,0,1,22.44,6.28,112,112,0,0,1,19.19,11.28c12.19,9.84,22.31,21.65,32.21,33.72,11.06,15.38,21.7,31.19,29.28,48.61a110.25,110.25,0,0,1,6.63,23.77,93.32,93.32,0,0,1,.17,18.91,63.32,63.32,0,0,1-3.21,12.17c-3.83,8.71-9.17,16.72-14.45,24.61-4.88,7.32-10.11,14.38-15.37,21.43l.12-.18q-5.61,7-11.23,14a0,0,0,1,0,.05.05c7.26-6.67,14.37-13.44,21.33-20.43,6.48-6.49,12.46-13.54,18.38-20.53q4.45-5.27,8.45-10.93c5.82-8.25,9-18.13,10.29-28.09,2.63-20.89-1.94-41.6-10.52-60.66-3.81-8.47-7.51-17.13-12.22-25.17q-3.34-5.71-6.7-11.41c-2.33-4-5.17-7.7-7.73-11.5s-5.36-7.1-8-10.61a141.49,141.49,0,0,0-25.07-26,116.27,116.27,0,0,0-67.68-24.51q-1.5-.05-3-.05c-10,0-20.22,1.76-29.86,4.15Zm278.24,230.28,1.06,2.51-1.06-2.51Zm-154.67,1.41.08-.11-.08.11Z"/><path class="cls-1" d="M1420.27,2771.65c4.42,8.11,8.71,16.3,13.19,24.37,3.46,6.21,6.46,12.67,9.79,18.94,2.82,5.34,5.51,10.75,8.25,16.13,6.07,11.91,12.91,23.42,18.31,35.67,5,12.09,9,24.59,13.12,37,3.43,10.33,7,20.61,9.81,31.12,0,.05.08,0,.08,0-.44-11.79-1.48-23.61-3-35.32-1-8-2-15.94-3.52-23.83a120.36,120.36,0,0,0-6.22-22.14,130.8,130.8,0,0,0-10.24-20.15,321.46,321.46,0,0,0-19.89-29.18c-3.61-4.68-7.22-9.38-11.21-13.73-6-6.49-12-12.85-18.42-18.93l0,0s0,0,0,.07Zm48.84,93.43.55,1.32-.55-1.32Z"/><path class="cls-1" d="M1123.26,2849.79a245.63,245.63,0,0,0-44,6.56c-14.08,3.43-27.66,8.84-40.85,14.8A316.14,316.14,0,0,0,1001,2891.5a262.63,262.63,0,0,0-36.68,27.38A171.81,171.81,0,0,0,938,2948.36c-6.63,9.57-11.56,20.35-16.52,30.83-4.68,9.87-9.41,19.71-13.47,29.84,0,.05.05.08.06,0,7.9-13,17-25.2,26.13-37.31h0A141,141,0,0,1,956,2949a236.28,236.28,0,0,1,49.4-28.52c23.42-9.71,47.7-17.45,72.8-21.23,19.34-2.16,38.71-1.51,58,.82a381.36,381.36,0,0,1,80.43,20.6q8.71,3.71,17.45,7.35a303.75,303.75,0,0,1,53.43,31,239,239,0,0,1,35.42,35.92,309.89,309.89,0,0,1,34.82,58.25,196.46,196.46,0,0,1,11,39.65,239.48,239.48,0,0,1-.87,52,185.27,185.27,0,0,1-8.92,36,113,113,0,0,1-8.83,15.26,116.57,116.57,0,0,1-13.45,13.29,111.69,111.69,0,0,1-51.64,21.53,157.93,157.93,0,0,1-31.46-.46,259.83,259.83,0,0,1-54-14.72,209.16,209.16,0,0,1-38.13-22.16,184.49,184.49,0,0,1-26.84-26.48,122.27,122.27,0,0,1-11.2-18.7,97.11,97.11,0,0,1-3.91-14.39,103.71,103.71,0,0,1,.11-17.8,170.57,170.57,0,0,1,9.36-33.62,150.26,150.26,0,0,1,13.49-23.69A146.51,146.51,0,0,1,1158,3043.3c1.69-1.24,3.39-2.45,5.13-3.64,8.08-5.53,17.39-9.57,22.1-18.83,3.45-6.76,4.85-13.84,2.79-21.31a29.39,29.39,0,0,0-32.79-21.36,82.65,82.65,0,0,0-11.19,1.9c-3.78,1-7.63,2.88-11.16,4.38s-7.1,3.25-10.53,5.14c-7.93,4.37-15.48,9.22-23,14.2-3.77,2.49-7.35,5.35-11,8a223.7,223.7,0,0,0-26.15,22.32,170.11,170.11,0,0,0-41.34,67.63c-4.26,13-5.95,26.94-7.06,40.53-.56,6.94-.51,13.89-.53,20.85-.06,19.27,2.33,38.83,5.61,57.78a383.37,383.37,0,0,0,12.87,50.63c2.63,8.3,5.17,16.74,8.34,24.85,4.29,10.93,8.78,21.65,13.73,32.3,3.71,8,8.58,15.4,13.44,22.72,5.75,8.69,12.45,16.8,19,24.88a346.7,346.7,0,0,0,37.08,38.47c8,7.14,16.84,13.32,25.54,19.49,6.93,4.91,14.42,9,21.78,13.23a250.64,250.64,0,0,0,23.51,11.43c10.3,4.5,20.63,8.59,31.26,12.18,18.32,6.17,37.47,9.67,56.58,12.17,12.87,1.68,25.64,2.53,38.58.79,6.05-.82,12-1.67,18-2.82,4.64-.89,9.21-2.19,13.77-3.38a229.24,229.24,0,0,0,24.78-8.52c9.34-3.64,18.66-7.73,27.67-12.1a413.27,413.27,0,0,0,93.17-61.07c7.15-6.19,14.08-12.55,20.87-19.14,5.8-5.62,11.67-11.44,17-17.57,12.62-14.67,25.07-30.24,33-48,4.15-9.25,8.37-18.55,11.26-28.3,2.51-8.46,5.05-16.95,6.79-25.61,3.73-18.59,6.87-37.27,9.92-56,2.76-16.89,5.3-33.92,6.28-51,.7-12.2,1-24.38,1.11-36.6.09-12.75.29-25.39,1.63-38.06a3.46,3.46,0,0,1-.05.36q1.63-11.54,3.67-23c0-.05-.06-.08-.08,0-2.8,9.35-5.42,18.72-7.51,28.27-.78,3.5-1.36,7.06-1.85,10.62-.32,2.36-.66,4.72-1,7.07a14.73,14.73,0,0,0-.2,1.82,37.36,37.36,0,0,0-.88,6.13c-1.13,8.38-2.34,16.75-3.91,25.06a377.78,377.78,0,0,1-12.68,49.43q-9,26.9-18.88,53.48c-1.63,4.39-3.41,8.72-5.15,13.06-4.06,9.18-8.18,18.3-13.14,27.06-2.89,5.13-5.92,10-9.13,15-2.23,3.44-4.68,6.72-7.13,10-8.26,9.75-16.78,19.22-26.42,27.67q-15.11,13.26-30.8,25.77c-15.73,12-31.61,23.68-48.14,34.52a368.83,368.83,0,0,1-52.72,28.25,218.42,218.42,0,0,1-23.55,8.29,247.54,247.54,0,0,1-24.59,5.43,157.33,157.33,0,0,1-17.32.71c-4.48-.09-8.93-.61-13.39-1.13a355.65,355.65,0,0,1-68.43-17.6c-11.16-5-22.07-10.3-32.79-16.19a265.27,265.27,0,0,1-29.52-19.35c-4.41-3.73-8.78-7.47-13-11.43-4.7-4.41-9.2-9-13.72-13.58a309.67,309.67,0,0,1-21.08-24.36c-3.85-5.54-7.56-11-11-16.86s-6.34-11.92-9.3-18a426.93,426.93,0,0,1-14.34-41c-2.24-7.81-4.66-15.68-6.32-23.64-1.58-7.59-3-15.14-4.21-22.77-2.21-20.5-3.58-41-2.09-61.55a137.77,137.77,0,0,0,2.73,14c1.8,7.19,5,14,8,20.78,5.58,12.65,14.36,23.83,23,34.44a188.18,188.18,0,0,0,25.32,25.07,234.34,234.34,0,0,0,35.55,24.63c11.7,6.53,24.25,11.66,36.79,16.32a265.28,265.28,0,0,0,38.4,10.79c7.51,1.57,15.17,2.57,22.78,3.5a171.4,171.4,0,0,0,18.75,1.39,130.21,130.21,0,0,0,18.79-1.35,166.22,166.22,0,0,0,63.83-20.48,134.91,134.91,0,0,0,13.89-8.71,166.15,166.15,0,0,0,19.91-16.22,132.42,132.42,0,0,0,14.33-17.05,118.83,118.83,0,0,0,8.78-13.8c3.68-6.74,6.44-14,9.16-21.18a149.06,149.06,0,0,0,5.89-21.23c3-13.54,4.5-27.53,5.65-41.33a215.15,215.15,0,0,0-.32-38.32,222.8,222.8,0,0,0-7.85-42c-1.65-5.56-3.77-11-5.95-16.34-3.38-8.29-7-16.43-11.09-24.38-12.48-24.18-28.85-46.51-46.58-67.07-30.42-35.29-71.67-60-115.07-76q-7.72-2.82-15.46-5.57c-9.85-3.5-20.24-5.79-30.49-7.81a324.46,324.46,0,0,0-62.77-6.14q-9,0-18,.51Zm-189.4,122.38-.33.42.33-.42Z"/><path class="cls-1" d="M721.44,3148.78c-8.58,2.38-16.91,5.29-25.32,8.24-4.55,1.59-9,3.71-13.44,5.56a249,249,0,0,0-26.37,12.7c-21.51,12.09-40.06,28.55-56.23,47.07-13.46,15.42-25.59,32.05-37.84,48.44-10,13.36-20.09,26.65-29.73,40.27-5.78,8.18-11.39,16.34-16.79,24.76-5,7.8-9.42,15.88-13.93,24-1.74,3.11-3.15,6.4-4.69,9.61-2.38,5-4.77,9.9-6.89,15-3.73,9-7.44,17.87-10.82,27a469.31,469.31,0,0,0-16,50.67c-.93,3.76-2.09,7.53-2.76,11.34q-1.54,8.53-3,17.05c-.84,4.72-1.35,9.47-1.9,14.21s-1.45,9.59-1.68,14.37c-.44,9.22-1,18.37-.79,27.61.09,3.91,0,7.89.31,11.78q.74,8.34,1.5,16.66c.47,5.12,1.36,10.22,2.12,15.3,1,6.81,2.09,13.55,3.49,20.29,5.2,25,15,49,27.41,71.27,6.63,11.85,14.64,22.72,22.56,33.74,5.69,7.93,12,15.59,18.23,23.07,12.22,14.61,24.67,29,37.24,43.29,11.57,13.18,23.61,26,36,38.4,12.58,12.63,25.37,25.35,39.27,36.55,9.06,7.31,18.13,14.56,27.49,21.48,5.69,4.21,11.39,8.36,17.36,12.15A163.35,163.35,0,0,0,727.51,3909a130.83,130.83,0,0,0,17,3.55c5.44.84,10.91,1.65,16.42,2,4.95.32,9.87.63,14.83.74q11.83.24,23.67,0l3.94,1.56a52.08,52.08,0,0,0,12.2,2.93,119.79,119.79,0,0,0,16.95,1.55,79.28,79.28,0,0,0,9.44-.53c7.26-.84,15.72-1.46,22-5.92l7.23-5.58a35.68,35.68,0,0,0-7.25-56.08h0l-.14-.06a36,36,0,0,0-6-2.75,20.84,20.84,0,0,0-4.08-1.22l-1.1-.19q-1-.2-2.05-.34c-3.38-.53-6.79-.92-10.2-1.1-1.35-.07-2.7-.09-4-.1-3.52-.48-7-.88-10.6-1.09l-.52-.16a78.24,78.24,0,0,1-7-4.26,135.16,135.16,0,0,1-14.48-15c-13.47-18.67-23.44-39.37-32.7-60.39-7.69-20.16-15-40.52-20.44-61.44-2.9-11.23-5.8-22.41-8.29-33.74-2.39-10.87-4.27-21.78-6.12-32.75-.94-7.61-1.92-15.23-2.44-22.88l-1.4-20.24a197.86,197.86,0,0,1,1.13-35.59,185.65,185.65,0,0,1,10.25-37.24c8.14-18,18.71-34.73,30.57-50.52,3.77-4.7,7.64-9.26,11.62-13.79,3.51-4,6.84-8.29,10.58-12.06,10.56-10.64,20.93-21.22,32.56-30.67a209.33,209.33,0,0,1,37.24-22.35,165,165,0,0,1,29.86-8.19,88.9,88.9,0,0,1,13.31-.13,87.69,87.69,0,0,1,11.45,3.11,74.89,74.89,0,0,1,7.58,4.47,88.23,88.23,0,0,1,7.61,7.75,149.77,149.77,0,0,1,12.53,22c3,7.65,5.81,15.32,8.11,23.23a256,256,0,0,1,6.11,27.55q.31,2.55.62,5.1a139.25,139.25,0,0,1,.09,30.25,114,114,0,0,1-4.6,17.64,97,97,0,0,1-6.74,11.37,133,133,0,0,1-15.52,15.13,160.8,160.8,0,0,1-24.2,14.49,131.82,131.82,0,0,1-21,5.75,108.46,108.46,0,0,1-51.8-6.85c-3.23-1.48-6.4-3.07-9.52-4.86-2-1.13-3.9-2.32-5.76-3.62-5.75-6-16.29-10.07-24.25-9.44l-9.34,1.24a35.18,35.18,0,0,0-24.54,43.23,39.59,39.59,0,0,0,9.58,16.55c1,1.73,2,3.47,3,5.16,2.59,4.16,5.36,8.14,8.2,12.15a313.86,313.86,0,0,0,22.14,27.05,333.09,333.09,0,0,0,56.46,50.35A232.38,232.38,0,0,0,896,3721.58,327.39,327.39,0,0,0,929.39,3736c9,3.32,18,6.63,27.12,9.52,17.81,5.64,35.72,10.25,54.3,12.76,13.77,1.87,27.44,3.28,41.36,3.16,14.8-.13,29.5-1.87,44.11-4.07a192.67,192.67,0,0,0,33.61-8.5,164.61,164.61,0,0,0,39.57-19.49c10.71-7.33,20.69-15.73,28.71-26a123.93,123.93,0,0,0,12.13-17.84,126.43,126.43,0,0,0,9.25-22.88c2.11-6.92,3.08-14.33,3.86-21.49a149.22,149.22,0,0,0,.78-17,182,182,0,0,0-1.66-19.5c-1-8.36-2.33-16.64-3.94-24.89-2-10.31-4.72-20.5-7.23-30.68-.95-3.83-2.27-7.6-3.39-11.39-1.28-4.3-2.38-8.73-3.9-13-3.2-8.9-6.1-18-9.85-26.65-3.33-7.76-6.4-15.69-10.2-23.24-4.34-8.65-8.71-17.26-13.28-25.8-9.06-16.92-18.18-33.75-26-51.31,0-.05-.09,0-.08,0,4.25,18,8.93,35.82,13.2,53.78,2.47,10.43,4.72,20.9,6.88,31.41,1.63,7.93,2.69,16,3.89,24,.7,7.11,1.47,14.22,2.21,21.32.8,7.61,1,15.31,1.45,23,.45,7.28.45,14.59.63,21.88a345.44,345.44,0,0,1-1.55,44.87,129.52,129.52,0,0,1-6,23.44,63,63,0,0,1-20.2,26.21,151.71,151.71,0,0,1-23.35,13.46,217.13,217.13,0,0,1-43.22,11.3,257.16,257.16,0,0,1-56.89-.2c-25.58-4.06-50.77-11.62-74.78-21.37a267.15,267.15,0,0,1-46-25.75,163.62,163.62,0,0,0,20.75-4c8.76-2.34,17.19-6.17,25.38-10,12.41-5.78,23.54-14.39,34.23-22.83a155.35,155.35,0,0,0,29.33-30.82c7.86-10.75,13.37-23,17.39-35.65a105.52,105.52,0,0,0,3.41-15.74,215.14,215.14,0,0,0,2.58-25.76c.4-11.74-1.2-23.36-2.84-34.94-.69-4.81-1.43-9.57-2.33-14.35a226.86,226.86,0,0,0-6.87-26.43c-3.42-10.75-8.07-21.08-12.54-31.43a136.67,136.67,0,0,0-13.59-24,157.26,157.26,0,0,0-13.55-16.89c-5.42-5.83-12-10.69-18.55-15.16-5.75-4-12.61-6.79-19.06-9.25a92.83,92.83,0,0,0-14.91-4.25,128.72,128.72,0,0,0-21.84-2.44c-8.27-.21-16.62,1.2-24.73,2.62-13.46,2.36-26.09,7-38.62,12.3a198.76,198.76,0,0,0-33.66,18.53,314.68,314.68,0,0,0-46.51,38.63c-6.58,6.57-12.89,13.16-19.08,20.09a440.68,440.68,0,0,0-34.51,43.6,243.81,243.81,0,0,0-33.63,71c-4,14-5.87,28.59-7.28,43a209.89,209.89,0,0,0-1,27.08c.57,18.62,1.35,37.17,3.71,55.67,1.52,11.87,3.08,23.7,5.14,35.49,1.62,9.2,3.49,18.29,5.44,27.44,3.69,17.21,8.51,34.06,13.46,50.94,2.2,7.53,4.92,15.08,7.81,22.37,4.7,11.88,9.54,23.64,14.81,35.29,2.51,5.57,5.27,11,8.06,16.42l-2.14-.78c-15.55-7.4-29.49-17.39-43.23-27.69-12.4-10.32-24.48-20.88-36.12-32.06-13.09-12.55-25.8-25.48-38.44-38.49-11.5-11.83-22.93-23.76-34.15-35.87-6.31-6.8-12.46-13.72-18.59-20.69-4.1-4.67-7.92-9.6-11.75-14.49a258.61,258.61,0,0,1-27.13-46.49c-6.27-15.79-10.59-32-14-48.65-1.33-6.43-2.28-12.91-3.21-19.41q-.56-7.41-1.09-14.81c-.34-4.51-.25-9-.23-13.53s0-8.94.31-13.42l1.28-17c-.26,1.88-.51,3.76-.76,5.64,1.2-8.84,2.23-17.68,4-26.43,2-10.08,4.37-20,6.84-30,4.54-18.24,10.75-36,17.16-53.63l6.28-14.66c2.68-6.28,6.22-12.31,9.3-18.4s7.06-12,10.57-18,7.46-11.44,11.19-17.11c7.28-11.12,15.15-21.9,22.78-32.77,7.28-10.36,14.79-20.55,22.3-30.74l10.2-12.92a213.76,213.76,0,0,1,33.6-33.73,233,233,0,0,1,38.92-23c4.79-2.29,9.71-4.32,14.59-6.44,6.36-2.48,12.7-5.08,19.19-7.22q6.3-2.08,12.58-4.18a177.21,177.21,0,0,1,29.61-6.66c16.58-1.93,33.4-1.68,50.07-1.86,15.53-.16,31.06-.43,46.59-.69,29.21-.5,58.85-1.33,87.89,2.44,11.11,1.62,22,3.95,32.45,8.16a70.48,70.48,0,0,1,12.72,7.44,55.12,55.12,0,0,1,7.08,7.18c7.09,9.82,11.75,21,16.46,32.12h0c.6,1.44,1.19,2.88,1.8,4.31,0,.05.09,0,.08,0-4.91-19.71-9.43-41.8-26.82-54.51-15.31-11.19-34-16-52.37-19.34a454.39,454.39,0,0,0-51.78-6.06c-19.49-1.3-39-2.28-58.47-3.24-17.31-.84-34.59-2.06-51.89-3q-3.74-.21-7.48-.21c-17.58,0-35.19,3.34-52,8Zm275.78,35,.19.14-.19-.14Zm23.19,39,0,.06,0-.06Z"/><path class="cls-1" d="M953.94,3728.66a137,137,0,0,0-18.85,3.3,106.33,106.33,0,0,0-17.33,6.54,74.71,74.71,0,0,0-14.43,9,126.12,126.12,0,0,0-16.75,15.22c-11.28,12.35-20.42,26.47-29.57,40.42-4.63,7.06-8.68,14.51-12.68,21.93-11.66,21.68-20.12,45-23.42,69.46-.74,5.44-1.77,11-2.19,16.47s-.82,10.9-1.23,16.34c-.61,8.16-.65,16.43-.61,24.6,0,9.48.34,18.9.73,28.39a203.74,203.74,0,0,0,2.28,21c.88,5.9,2,11.7,3.42,17.48,3.26,13.18,8.9,25.87,15.13,37.88,7.66,14.76,17.28,28.54,27.63,41.51a190.47,190.47,0,0,0,24.45,25c5.08,4.38,10.46,8.43,15.81,12.48a161,161,0,0,0,14.58,10.07c7.68,4.57,15.26,9.29,23.19,13.44,16.34,8.55,32.93,16.32,50.42,22.31a232.5,232.5,0,0,0,34.89,8.59,436.3,436.3,0,0,0,43.61,5.26,281,281,0,0,0,81.89-5.77c13.4-3,26.3-7.92,38.84-13.42a227.49,227.49,0,0,0,33-18,259.9,259.9,0,0,0,31.73-24.72c10.33-9.33,19.15-20,27.4-31.18,8-10.78,13.88-22.71,18.82-35.12a174.29,174.29,0,0,0,10.2-38.06,207.19,207.19,0,0,0,2.5-40.44,222.48,222.48,0,0,0-6.39-42.72c-2.19-9.12-5.12-18.14-8.19-27-2.82-8.14-5.66-16.27-8.77-24.31-6.94-17.94-14-35.91-22.52-53.18-2.44-4.95-4.9-9.89-7.51-14.73-3.24-6-8.08-10.31-13.58-14.13-3.54-2.46-10.43-4-14.6-4a19.25,19.25,0,0,0-8.37,1.43,26.9,26.9,0,0,0-11.93,7c-6.08,5-9,12.94-11.35,20.19-1.62,5-2.22,10.39-2.94,15.56-1,6.66-1.7,13.34-2.46,20q-.71,6.22-1.41,12.43c-.49,3.56-1,7.12-1.62,10.66a218.56,218.56,0,0,1-12.31,43.15,203.94,203.94,0,0,1-20.72,36.56,135.64,135.64,0,0,1-16.63,16.74,140.69,140.69,0,0,1-21.27,12.25,190.71,190.71,0,0,1-37.61,10,140.25,140.25,0,0,1-25.8.21,114.26,114.26,0,0,1-18-4.84,90.53,90.53,0,0,1-10.72-6.23,110.92,110.92,0,0,1-12.81-13.2,162.77,162.77,0,0,1-15.84-27.89,173.25,173.25,0,0,1-9.4-33.38,120.25,120.25,0,0,1-.09-23.12,118.57,118.57,0,0,1,6.15-22.24,95.67,95.67,0,0,1,8.39-14.79,78.15,78.15,0,0,1,8.76-8.89,79.77,79.77,0,0,1,13-7.55,80.94,80.94,0,0,1,12.57-3.38,75.91,75.91,0,0,1,15.67.06,77.5,77.5,0,0,1,12.41,3.39,56.33,56.33,0,0,1,9.34,5.48,63.86,63.86,0,0,1,6.6,6.5,57.42,57.42,0,0,1,5.68,9.75,110.47,110.47,0,0,1,5.64,20.71c0-.05,0-.1,0-.16.19,1.53.38,3.06.52,4.59a0,0,0,1,0,.08,0,113.88,113.88,0,0,0,.92-14.7c0-8.87-.57-18.09-4.39-26.25a62.69,62.69,0,0,0-7.72-12.24c-3.17-4.06-7.38-7.16-11.56-10.08-10.31-7.22-23.07-10.3-35.42-11.36s-25.17,2-36.41,7a84.29,84.29,0,0,0-29.22,21.88,119.74,119.74,0,0,0-19,29.77,140.87,140.87,0,0,0-7,19.1c-2.19,7.79-3.07,16-3.89,24-1.32,13.07.36,26.11,2.2,39A154,154,0,0,0,958,4002.64c4.83,11.73,10.14,22.79,17.78,33a119.32,119.32,0,0,0,14.86,16.93,103.57,103.57,0,0,0,20.78,14.8,113.49,113.49,0,0,0,36.17,12.13,170,170,0,0,0,22.48,2.16c8.72.17,17.46-1.15,26.07-2.33,25.91-3.52,51.59-11.91,74-25.52,22.79-13.86,40.45-34.35,53.84-57.17,7-12,12.46-25.1,17.48-38.06a194.34,194.34,0,0,0,9.4-33.24,305.16,305.16,0,0,1,11.74,46.73,197.93,197.93,0,0,1,.12,42.86,183.91,183.91,0,0,1-9.83,37.1,148.83,148.83,0,0,1-14.7,25,197.15,197.15,0,0,1-28.88,28.39,232.08,232.08,0,0,1-42.64,25.05,213.38,213.38,0,0,1-44.9,12.31c-24.79,2.79-49.67,1.78-74.39-1.25a268.59,268.59,0,0,1-61.08-16.41c-21.31-9.35-42.13-20.56-60.86-34.39a209.51,209.51,0,0,1-31.8-31.71c-9.65-12.94-18.45-26.68-25.22-41.33a148.52,148.52,0,0,1-8.27-30.92,346.33,346.33,0,0,1-1.73-47c.19-8.11.57-16.14,1.09-24.23.35-5.65,1-11.27,1.69-16.89l2.25-12.32a149.92,149.92,0,0,1,7.76-26.11,265.85,265.85,0,0,1,13.27-26.61,405.5,405.5,0,0,1,25.29-38.67,139.29,139.29,0,0,1,19.13-20.11,86.62,86.62,0,0,1,13-7.7,110,110,0,0,1,21-5.55c13.73-1.54,27.33-1.3,41.13-1a306.54,306.54,0,0,1,30.91,2.44,181.18,181.18,0,0,1,41.28,10.71,143.4,143.4,0,0,1,26.21,14.94,105.76,105.76,0,0,1,16.33,16,86.08,86.08,0,0,1,9.14,15.92,92.37,92.37,0,0,1,4.7,18.36c1.57,15.33-.09,30.28-1.68,45.49-1.18,7.16-1.95,14.53-3.58,21.6-2.12,9.21-4.12,18.45-6.53,27.6,0,.05.06.06.09,0,7.38-17.66,13.82-35.78,18.1-54.47,4.07-17.74,7.61-35.91,4.55-54.13a85.55,85.55,0,0,0-12.27-31.77c-6.66-10.61-15.83-19.55-25.69-27.18-20.21-15.62-43.86-25.2-68.69-30.61-6.23-1.36-12.49-2.31-18.77-3.25-5-.74-9.92-1.58-14.9-2.09a332.12,332.12,0,0,0-33.29-2.16,148,148,0,0,0-16.05.82Z"/><path class="cls-1" d="M71.46,3838.95c-.44.18-.89.35-1.33.52A27.53,27.53,0,0,0,58,3846.54a41.74,41.74,0,0,0-7.6,9c-4,6.12-6.63,13.2-9,20.09-3.8,11.14-6.35,23-8.8,34.5-3.71,17.41-7.31,34.85-11.06,52.25-1.92,8.93-3.89,17.84-5.73,26.78-1.83,8.77-3.87,17.54-5.36,26.38-1.88,11.19-4.15,22.39-5.4,33.67q-1.65,14.89-3.32,29.77C.52,4090.09.18,4101.4,0,4112.59a290.45,290.45,0,0,0,2.42,41.5,334.49,334.49,0,0,0,7.55,40A375.4,375.4,0,0,0,22.09,4232a428.2,428.2,0,0,0,36.1,73.65c6.45,10.53,13.51,20.64,20.47,30.82q15.43,22.6,32,44.43c16.08,21.3,32.52,42.24,51.84,60.74,18.48,17.7,39.49,32.9,60.91,46.8,16.13,10.46,32.91,19.76,49.85,28.79,7.1,3.78,14.19,7.26,21.49,10.64,9.46,4.38,18.84,8.89,28.52,12.76,9.17,3.68,18.27,7.75,27.57,11.06l27.92,10c8.64,3.07,17.53,5.52,26.27,8.27,22.57,7.09,46.3,10.77,69.73,13.47a308.91,308.91,0,0,0,38.53,2.1,265.14,265.14,0,0,0,44.08-4.52,270.52,270.52,0,0,0,56.13-17q14.34-6,28.67-12c11.14-4.68,21.87-10.31,32.7-15.68,7.33-3.63,14.29-7.84,21.36-12l12.37-7.24c3-1.75,5.78-4,8.64-5.92,8.78-6.06,17.53-12,25.94-18.62,7.37-5.78,15.09-11.28,22.17-17.43l22-19.07c7-6.11,13.55-12.94,20.3-19.37a280.29,280.29,0,0,0,22.13-24.27,311.36,311.36,0,0,0,25.26-35c14.3-23.14,24-49.13,31.82-75.05,2.89-9.52,5.1-19.29,7.58-28.92,2.28-8.85,4-17.88,5.88-26.82,3.71-17.4,6.57-35,8.82-52.65,2.36-18.35,4.64-36.74,5.58-55.23,1-19.14,2-38.27,3.06-57.39.89-15.74,1.81-31.47,3-47.17a0,0,0,0,0-.09,0q-7.62,26.88-15.09,53.82c-4.77,17.1-9.21,34.33-14.38,51.31-5.89,19.36-12.1,38.57-18.36,57.81-5.47,16.79-11.88,33.31-18,49.85-5.16,13.84-10.67,27.54-16.05,41.29-5.47,12.69-11.28,25.19-17.8,37.4A299,299,0,0,1,796.28,4364a381.38,381.38,0,0,1-33.24,36.9c-6.35,6.14-12.57,12.45-19.2,18.28s-13,11.91-19.82,17.34l-18.92,15q-10.78,7.51-21.59,15c-6.31,4.39-13.15,8-19.78,11.91-6.08,3.55-12,7-18.33,10.09q-12.3,6.06-24.59,12.12l-24.24,10.16a274.58,274.58,0,0,1-62.61,18.1c-23.12,2.55-46.35,1.44-69.4-1.4a447.09,447.09,0,0,1-77-18.65c-8.4-2.84-16.92-5.42-25.2-8.6q-12.94-5-25.88-10l-25.35-11.33c-8.73-3.91-17.13-8.69-25.64-13.09-7.8-4-15.25-8.56-22.82-13a448.77,448.77,0,0,1-42-27.79,325.25,325.25,0,0,1-30.81-27.49,387.37,387.37,0,0,1-27.59-31.8c-7.32-9.62-14.45-19.37-21.54-29.15-4.56-6.28-9.21-12.53-13.56-19q-9-13.37-18.07-26.74c-5.93-8.77-11.19-18.11-16.34-27.36-6-10.86-11.43-22.08-16.39-33.47-10.41-25.49-18.45-52-22.64-79.26a300.79,300.79,0,0,1-1.89-38.2,309.86,309.86,0,0,1,2-34q1.51-12.22,3-24.44c2.18-12.13,4.31-24.26,7-36.27q4.9-21.69,10-43.32c2.38-10.1,4.67-20.24,7-30.37,1.75,6,3.57,12,5.4,17.95,1.08,3.55,2.47,7,3.73,10.51,1.48,4.15,2.81,8.36,4.5,12.41,4.17,10,8,20.3,12.65,30.1,4,8.43,7.71,17.08,12,25.34,9,17.27,18,34.55,27.12,51.78,8.21,15.51,16.29,31.07,24.77,46.43a351.53,351.53,0,0,0,27.8,43.4,281.64,281.64,0,0,0,27.25,31.39c10.55,10.26,22.32,19.29,34.31,27.8,13.4,9.51,27.65,17.35,42.08,25.11,7.71,4.15,15.78,7.58,23.72,11.25,5.9,2.71,12,4.92,18.06,7.24,3.69,1.41,7.35,3,11.12,4.17,8.45,2.63,16.84,5.47,25.45,7.58l16.19,4c12.14,3,24.78,4.44,37.17,5.91,26.74,3.15,53.65.91,79.77-5.45a242,242,0,0,0,33.39-11A287.09,287.09,0,0,0,586,4271.51a201.17,201.17,0,0,0,33-24.63,134.33,134.33,0,0,0,26.4-33.7c3.89-7,6.76-14.6,9.57-22.05a130.15,130.15,0,0,0,4.95-17.65,213.25,213.25,0,0,0,4.79-44.7c.16-19.73-3-39.32-6.37-58.72-5.22-30.54-13.32-61.58-28.93-88.54a133.67,133.67,0,0,0-17.58-23.11,88.76,88.76,0,0,0-10.12-9.11,136.17,136.17,0,0,0-14.37-10.22,118.07,118.07,0,0,0-28.79-11.92c-10.29-2.89-21.23-4.09-31.87-4.65-10.33-.56-20.61.44-30.84,1.85a195.62,195.62,0,0,0-29.58,6.52,186.12,186.12,0,0,0-29.5,12c-9,4.52-17.15,10.33-25.08,16.49-13.86,10.79-25.23,25-34,40.12-9.46,16.25-14.43,34.59-15.92,53.24-1.59,19.85,3,39.84,9.46,58.46a242.6,242.6,0,0,0,10.62,25.6c4.06,8.45,9.21,16.14,14.41,23.93,0,0,.09,0,.06-.05-2.47-5-5-10.07-7.28-15.22a216,216,0,0,1-13.53-50.71,140.68,140.68,0,0,1-.27-32.74,123.45,123.45,0,0,1,7.34-27.26,126.7,126.7,0,0,1,13.66-23.51,141.23,141.23,0,0,1,20.82-21,135.87,135.87,0,0,1,25.52-14.89,169.58,169.58,0,0,1,35.11-9.31,174.15,174.15,0,0,1,37.75-.34,134.6,134.6,0,0,1,26.54,7.07,111.33,111.33,0,0,1,16.51,9.63,112.58,112.58,0,0,1,13,12.93,118.56,118.56,0,0,1,10.81,18.81c7.71,20.11,11.37,41.16,15.12,62.29l1.9,14.93a213.56,213.56,0,0,1,.59,48.86,151.09,151.09,0,0,1-7.33,27.76,114.59,114.59,0,0,1-9.11,15.59,142.18,142.18,0,0,1-17.24,16.69,228.14,228.14,0,0,1-40.29,23,239.42,239.42,0,0,1-48.9,14,231.93,231.93,0,0,1-50.3-.74,314.28,314.28,0,0,1-38.77-8.25c-5.66-1.62-11.47-3-17-4.95L353.15,4217c-7.16-3.1-14.29-6.25-21.3-9.76-18-9-35.49-18.73-51.69-30.65a254.7,254.7,0,0,1-38-38.31,506.85,506.85,0,0,1-31.3-48.42q-13.14-22.66-26.3-45.31c-6.93-11.95-14-23.88-20.28-36.17-3.73-7.24-7.86-14.41-11.19-21.84-2.82-6.32-5.68-12.64-8.5-19-2.72-7-5.62-14-7.9-21.2-3.06-9.68-6-19.32-8.65-29.1-5.14-18.8-8.76-38.13-16.67-56a45.19,45.19,0,0,0-9.6-14.07,36.12,36.12,0,0,0-14.34-8.36,34.88,34.88,0,0,0-8.46-1,22.18,22.18,0,0,0-7.55,1.06Z"/><path class="cls-1" d="M503.61,3750.09A145.46,145.46,0,0,0,467,3763a171,171,0,0,0-18.18,10.93c-3.46,2.29-6.87,4.57-10.17,7.07-8.59,6.52-17,13.16-25.23,20.11-30.67,25.85-59.38,54.66-82.28,87.71a182.48,182.48,0,0,0-24.62,50.35c-5.52,18.14-6.53,37.46-5.14,56.24a289.25,289.25,0,0,0,5.67,37A231.84,231.84,0,0,0,318,4070.22a180.13,180.13,0,0,0,26.37,46c5.61,7.11,11.76,13.64,17.91,20.28,2.27,2.44,4.88,4.61,7.29,6.89,2.19,2.06,4.3,4.28,6.63,6.19,6.63,5.44,13.23,10.92,20.06,16.1,0,0,.09,0,.05-.06-6.06-6-11.88-12.22-17.76-18.4-1.72-1.8-3.23-3.82-4.81-5.74l-7.22-8.71q-4.6-6.39-9.19-12.76c-6.81-9.49-12.19-20.28-16.79-31a213.61,213.61,0,0,1-12.91-50q-.92-9.89-1.88-19.78a203.36,203.36,0,0,1,.48-42.54,150.47,150.47,0,0,1,9-33.3c8.21-18.27,19.42-34.82,31.49-50.73q6.24-7.56,12.4-15.19c3.36-4.15,7-8,10.51-12,7.93-8.89,16-17.71,24.37-26.16,18.31-18.36,36.29-37.21,56.68-53.3a174.29,174.29,0,0,1,35.46-20.84c8.2-3.38,16.58-6.38,25.36-7.73,9.89-.84,19.58,0,29.42,1,4,.57,8,1.17,11.93,1.92a0,0,0,0,0,0-.08c-11.93-5.23-24.58-9.67-37.42-11.89a57.3,57.3,0,0,0-9.88-.81,114.21,114.21,0,0,0-22,2.63Z"/></g></g></svg>