<svg xmlns="http://www.w3.org/2000/svg" viewBox="0 0 1553.33 777.86"><defs><style>.cls-1{fill:#fff;}</style></defs><title>twl-cheron</title><g id="Layer_2" data-name="Layer 2"><g id="Draw_Layer" data-name="Draw Layer"><path class="cls-1" d="M563.06,20.89C556.8,27.49,550.5,34,544.88,41.19a145.78,145.78,0,0,0-12.07,18.9c-3.66,6.53-7.43,12.94-11.47,19.24s-8.71,12.49-13.2,18.6c-18.7,25.46-36.43,51.62-55.3,76.94-8.48,10.52-17.55,20.38-26.63,30.38-10,11.09-19,23-28.56,34.48-8.56,10.3-18.26,19.54-26.86,29.76-9,10.57-17.15,21.79-25.53,32.85-5.36,6.65-10.9,13.06-16.65,19.36s-11.35,12.22-16.71,18.67c-11.19,13.41-21.14,27.8-31.67,41.76-10.46,13-21.19,25.67-32,38.37-11.11,13.05-21.36,26.68-31.67,40.34-9.6,12-19.67,23.58-29.74,35.18-9.32,10.71-17.58,22.29-26.52,33.31-9.73,12-20.18,23.35-29.84,35.42-9.39,11.77-17.28,24.71-26,36.93l.16-.19c-2.1,2.71-4.2,5.4-6.27,8.11.38-.49.75-1,1.13-1.51-9.66,11.84-19.62,23.5-28.07,36.25s-15.58,26-23.61,38.89Q36,702.06,23.86,720.6C15.71,732.94,7.45,745.31,1.75,759c-.08.11.15.23.23.08,4.62-8.83,10.49-16.92,16.49-24.9h0c10.86-14,22.07-27.76,32.82-41.83,11.18-14.6,21.46-29.83,32.5-44.48,8.38-10.12,17.23-19.71,26.15-29.34,9.14-9.94,17.15-20.83,25.28-31.61,4.74-5.82,9.48-11.53,14.67-16.94,6.07-6.38,12.26-12.64,18.37-19,11-11.43,21-23.69,31.8-35.38,5.24-5.73,10.79-11.24,16.22-16.82,5.92-6.15,11.51-12.52,17-19,10-11.91,19-24.71,28.5-37.08l-1.26,1.66c11.13-14,22.52-27.88,33.31-42.17s20.36-29.4,30.86-43.89c4.82-6.08,9.74-12.05,14.82-17.9,5.62-6.49,11.32-12.94,16.45-19.8,9.88-13.31,18.8-27.31,28.71-40.62,7.22-9.13,14.67-18.1,21.69-27.36s13.53-18.71,20.33-28.06c11.5-14.67,23.82-28.63,34.82-43.72,5-6.79,9.32-14,13.92-21.09,5.09-7.85,10.3-15.62,15.43-23.43,9.77-14.86,19.16-30,28.67-45.08,4.68-7.43,8.83-15.16,12.79-23s7.58-15.65,12.15-23.12c1.47-2.41,3.17-4.72,4.83-7.05l-.09.08c4.58-5.82,9.28-11.46,14.05-17.09.09-.09,0-.22-.11-.22a.11.11,0,0,0-.08,0Zm-110.27,154-.22.3.22-.3ZM136.39,585.37c-.33.45-.69.93-1.05,1.39l1.05-1.39Z"/><path class="cls-1" d="M31.77,751.09a.12.12,0,0,0,0,.23c26.82-1,53.57-1.43,80.35-.38,25.76,1,51.38,3.09,77.1,4.75,26.41,1.74,52.89,2.57,79.29.34,25.09-2.11,49.53-7.32,74.31-11.43a.14.14,0,0,0,0-.26c-11.84-.45-23.73.34-35.57.87-12.9.6-25.84.94-38.74,1.09-26.44.3-52.89-1.43-79.29-2.72q-22.16-1.1-44.32-1.12a709.1,709.1,0,0,0-113.17,8.63Z"/><path class="cls-1" d="M356.88,723.7a7.24,7.24,0,1,0,7.24-7.24,7.29,7.29,0,0,0-7.24,7.24Z"/><path class="cls-1" d="M866.79,4.75c-6.94,11.88-13.39,24.07-20.86,35.65s-15.51,23-23.75,34.13c.25-.33.5-.65.77-1l-1,1.22-.21.29.18-.25q-3.56,4.54-7.09,9.14c-14.07,17.15-29.17,33-44.92,48.59-15.2,15.09-29.54,30.93-44.36,46.44s-30.18,31-43.68,47.95c-14.11,17.65-28.74,35-42,53.23-13.47,18.56-24.67,38.59-36.48,58.21-10.83,18-22.6,35.31-33,53.49-10.83,18.82-21,38.06-32.67,56.43-12.26,19.24-24,38.82-35.46,58.55-12,20.6-25.2,40.29-38.14,60.32-12.64,19.58-24.71,39.46-38.44,58.32-13.43,18.45-25.8,37.53-38.7,56.36a755.92,755.92,0,0,0-42.14,68.05c-.08.11.11.23.19.15,14.82-17.58,30.4-34.4,46-51.26s30.4-34.67,46.1-51.57c14-15,27.31-30.25,40.06-46.32,13.54-17.16,28.18-33.42,41.23-51,13.66-18.41,26.29-37.46,39.42-56.24,12.75-18.22,25.65-36.33,37.16-55.41,11.24-18.71,23-37,34.59-55.57,11.32-18.07,21.65-36.63,32.29-55.07,8.49-14.75,17.47-28.93,27.31-42.85,8.86-12.52,17.13-25.5,26.1-37.95,19.19-26.58,39.36-52.45,58.9-78.81q5.34-6.88,10.67-13.8c8.14-10.27,16.28-20.53,24-31.12A403.81,403.81,0,0,0,834,83.74a352.46,352.46,0,0,0,18.07-37C857.88,33,862.18,18.89,867,4.82c0-.07,0-.13-.1-.13a.09.09,0,0,0-.09.06ZM814.6,84.31l-.78,1c.25-.34.51-.68.78-1Zm-41.55,85.12c-.35.46-.7.92-1.07,1.37l1.07-1.37ZM822,74.81l0,0,.18-.25-.22.29Z"/><path class="cls-1" d="M691.83,22.23c-26.48.26-53,1.47-79.44,2.83-27.84,1.43-55.68,1.74-83.44-.57a.13.13,0,0,0,0,.26c10,1.51,20,2.53,30,3.62,7.58.87,15.28.94,22.9,1.28,14.79.72,29.61.49,44.4.34,31-.3,62.05-.23,93.06-.53,25.76-.26,51.53.19,77.29.57q20.54.28,41.15-.08c12.52-.19,25.2-.38,37.65-1.74.15,0,.19-.26,0-.26-15.24.57-30.59-.45-45.83-1.17-14.33-.68-28.67-1.62-43-2.45-15.13-.87-30.33-1.74-45.49-2q-15.89-.22-31.79-.23-8.72,0-17.44.08Z"/><path class="cls-1" d="M643.2,36.3q-30.5,1.81-61.07,3.55c-10.79.57-21.62,1.21-32.4,1.7-11,.53-22.07,1.43-33,1.13-.15,0-.15.23,0,.26,8.34.72,16.71.64,25,.75,7.92.08,15.84.08,23.77.08,14.37,0,28.71-.19,43-.41,32.06-.53,64.09-1.55,96.08-3.24,43.64-2.34,87.21-4.9,130.75-8.3a.11.11,0,0,0,0-.23q-10.66-.07-21.32-.07-85.47,0-170.84,4.78Z"/><path class="cls-1" d="M559.26,19.11q-29.48,32.65-58.13,66c-15.74,18.43-30,38.11-44.52,57.52.24-.31.48-.61.72-.89-10.37,13.32-20.86,26.56-30.86,40.14-10.71,14.56-21,29.39-31.61,44.06s-21.39,28.82-32.06,43.27c-5.13,6.94-10.11,14-15.13,21.09-4.65,6.5-9.58,12.83-14.41,19.18q-14.3,17.95-28,36.2c-4.6,6.11-8.9,12.41-13.32,18.6-4.68,6.49-9.69,12.79-14.56,19.16l.34-.45q-21.9,27.22-44.63,53.75a.12.12,0,0,0,.19.15q22.12-23.31,44.06-46.89c13.17-14.22,25.24-29.39,38.06-43.91Q327,333,339,320.32c6.19-6.6,12.41-13.32,18.18-20.29,14-16.79,28.1-33.42,42-50.21,12.64-15.28,23.58-31.88,34.86-48.1,11.81-16.94,24.07-33.65,35.57-50.81,12.11-18.11,24-36.33,36.29-54.32,11.43-16.67,23.24-33.08,34.74-49.68q9.51-13.81,18.86-27.65a.11.11,0,0,0-.11-.18l-.08,0ZM456.13,143.29l.49-.65-.49.65Z"/><path class="cls-1" d="M107.25,604.46Q85.87,638.86,65,673.53C59.2,683.3,53.24,693,47.43,702.8c-1.81,3-3.62,6-5.51,8.86-2,3.06-4,6.11-5.92,9.17-1.09,1.7-2.11,3.47-3.28,5.13-8.15,11.62-16.33,23.2-25,34.44-.08.11.11.26.19.15,6.87-8.22,13.54-16.67,19.92-25.31,3-4,6-8,8.75-12.18,3.32-4.9,6.6-9.81,9.92-14.71,2.64-4,5-8.19,7.51-12.26q5.6-9.17,11.13-18.41c4.53-7.54,8.94-15.13,13.35-22.75q14.6-25.07,29-50.32a.13.13,0,0,0-.11-.2.1.1,0,0,0-.08,0Z"/><path class="cls-1" d="M92.91,748.9c-30.93.6-61.83,2-92.8,2.19a.11.11,0,1,0,0,.23c40.44,3.85,81.07,4.87,121.65,6,19.84.57,39.65,2.11,59.45,3.28,18.63,1.09,37.27,2.38,55.87,3.43,27.88,1.58,55.79,3.24,83.71,3.51,30.25.26,60.51-.79,90.72-1.77.15,0,.15-.23,0-.26-38.55-1.66-77.1-3.43-115.54-6.71-37.65-3.24-75.26-7-113-8.71-14.79-.68-29.57-1.28-44.4-1.47q-6.33-.08-12.65-.08c-11,0-22,.16-33,.38Z"/><path class="cls-1" d="M333.93,738.32c-14.45,1.7-28.9,3.85-43.27,6.19-36.14,5.81-72,13.2-107.85,20.71-.11,0-.08.23,0,.23,31-2.6,62.05-6.22,92.68-11.81,28.9-5.23,57.54-11.77,86.55-16.22h0q12.62-1.7,25.24-3.28a.11.11,0,1,0,0-.23c-17.84,1-35.61,2.34-53.38,4.41Z"/><path class="cls-1" d="M570.23,401.95c-14.33,22.18-28.74,44.29-43.46,66.16-7.05,10.45-14.33,20.71-21.65,31-6.71,9.43-14,18.52-20.52,28.07-7.09,10.45-14.37,20.75-21,31.46q-11,17.71-21.84,35.5c-12.45,20.56-25.12,41-35.95,62.51-4.56,9.05-9.09,18.07-13.73,27-4.87,9.39-9.88,18.63-14.94,27.88-10,18.14-20.45,36-31.54,53.53-.08.11.11.23.23.11q12.67-16.92,24.33-34.55c7-10.68,13.84-21.46,20.67-32.29,3.77-6,7.17-12.3,10.71-18.45,2.83-4.87,5.51-9.81,8.22-14.71,6.26-11.32,12.86-22.41,19.43-33.54,5.7-9.69,11.81-19.13,17.65-28.74,7.13-11.84,14.22-23.69,21.2-35.65,6.71-11.51,13.88-22.78,21-34.1,6.49-10.41,13.54-20.48,20.33-30.67,10.07-15.13,19.54-30.74,28.82-46.32,10.75-18.07,21.58-36.06,32.33-54.09a.13.13,0,0,0-.12-.2.15.15,0,0,0-.11,0Z"/><path class="cls-1" d="M596.95,24.36c-17.65.15-35.42,2.11-52.85,4.72-.15,0-.11.23,0,.23,17.16-1.13,34.25-1.17,51.45-.94,16.86.23,33.72,2.45,50.47,4.19,15,1.51,30.22,2.72,45.3,2.87,17.8.15,35.5-.26,53.26-1.32s35.46-3.09,53.15-4.68c.15,0,.19-.23,0-.23-17.43.34-34.86.79-52.28,1-16.82.23-33.61-.41-50.4-1-15.77-.6-31.46-1.74-47.19-2.87-8-.6-16-1.24-24-1.58-6.52-.27-13-.39-19.52-.39q-3.74,0-7.48,0Z"/><path class="cls-1" d="M774.35,28.82c-22.22.26-44.44,1.55-66.62,2.26-23.35.72-46.7,1.13-70.05,2a646.07,646.07,0,0,0-64.43,6q-10.69,1.41-21.39,2.9s0,0,.08,0l-6.71.91c-.15,0-.15.26,0,.23,23.73-1.55,47.42-3.13,71.18-3.62,22.71-.45,45.49.75,68.2,1.09,22.29.34,44.59-.19,66.84-1.81,22.44-1.66,45-4.9,67.6-4.56,4.9.08,9.62.34,14.52.75h0c3,.48,6,.92,9,1.4.15,0,.23-.19.08-.23a135.07,135.07,0,0,0-32.06-6.41c-8.82-.72-17.62-.95-26.45-1q-4.88,0-9.76.08Z"/><path class="cls-1" d="M521.51,35.56c-.11,0-.11.23,0,.23C535.43,34,549.2,31.48,563,29.07c.11,0,.11-.23,0-.23-13.88,1.85-27.65,4.41-41.46,6.71Z"/><path class="cls-1" d="M761.91,15.54c-18.14.34-36.29.75-54.47,1.09-18.56.34-37.12.91-55.68,2-18.07,1.06-36.06,2.57-54.09,4.15-10.68.94-21.35,2-32,3-6.07.57-12.15,1.17-18.22,1.7-6.22.57-12.6.83-18.79,1.85-.49.08-.53,1,0,1l.15,0v0h.09c4.3.57,8.74.62,13,.95.19,0,.15-.23,0-.26l-7.76-1c6.64-.22,13.32-.08,19.94-.25,9.28-.23,18.52-.49,27.8-.75q28.29-.85,56.51-1.89C673,25.84,707.55,25.27,742,22.52c24.75-2,49.42-4.9,74.2-6.9.15,0,.15-.26,0-.26-6.44-.21-12.88-.3-19.32-.3-11.65,0-23.3.27-35,.48Z"/><path class="cls-1" d="M527.59,23.24c-.15,0-.15.26,0,.26l1.89.11h-.08c10.75,2.3,21.35,5.62,32.06,8.11,11.05,2.57,22.18,4.75,33.38,6.26,23.24,3.13,46.62,3.89,70.05,4,48.7.26,97.32-3.09,145.83-7.13,4.6-.38,9.2-.79,13.84-1.21,4.49-.41,9.32-.45,13.73-1.43a.6.6,0,0,0-.19-1.17c-2.46,0-4.91.07-7.4.15-2.93-.11-5.87-.33-8.74-.41l-17.84-.34c-11.81-.19-23.65-.23-35.5-.23-22.22,0-44.47.49-66.73.91s-44.63,1.51-67,1.74c-11.69.11-23.39.26-35-.53-11.34-.75-22.54-2-33.81-3.42l.12,0c-6.49-1-13-2-19.46-3-5.87-1-12.08-2.7-18.08-2.7l-1.08,0Zm38.51,5.67a1.87,1.87,0,0,0-.37,0l.37,0Z"/><path class="cls-1" d="M549.11,23.64c-6.45,8.37-12.6,16.94-18.63,25.58-5.53,7.95-11.25,15.75-17,23.54-9.51,11.72-18.86,23.55-27.89,35.61-9.66,12.9-18.82,26.1-28,39.34-18.45,26.63-36.14,53.72-54,80.69-.08.15.15.26.23.15l1.92-2.49h0c25.3-32.69,51.85-64.48,76.25-97.89Q500.37,103,518.1,77.44c11.77-17,20.82-35.84,31.23-53.64a.13.13,0,0,0-.12-.2.15.15,0,0,0-.11,0ZM513.37,73l-.13.18.13-.18Z"/><path class="cls-1" d="M126.78,587.07c-11.66,20.18-23.54,40.25-35.46,60.32-4.94,8.3-10.15,16.45-15.16,24.71-5.85,9.62-11.39,19.39-16.86,29.2-3.09,5.51-6.22,11-9.69,16.26-1.89,2.83-3.62,5.77-5.66,8.53l-7,9.51.15-.15C29,745.66,21,755.92,12.82,766a.12.12,0,0,0,.19.15c7.36-8.22,14.45-16.75,21.5-25.24,3.66-4.38,7.13-8.86,10.6-13.35,1.09-1.43,2.11-3,3.17-4.45,1.55-2.26,3.24-4.45,4.68-6.79,5.62-9.05,10.9-18.3,16.26-27.5,5.47-9.39,11.13-18.67,16.75-28,6.9-11.43,13.43-23.12,20-34.78,7.21-12.86,14.18-25.8,21-38.85.05-.08,0-.16-.1-.16a.1.1,0,0,0-.09,0Z"/><path class="cls-1" d="M74,753.77q-28.07.45-56.09,1.32a.11.11,0,1,0,0,.23q19.8.17,39.61.3c9.54.08,19.13.11,28.63.38,11.32.34,22.6.72,33.91,1.28,10.86.53,21.69,1.21,32.55,1.89,21,1.32,41.95,3.32,63,4.68,20.07,1.32,40.21,2.11,60.32,2.53,34.33.72,68.62,1.13,102.94.64a.11.11,0,0,0,0-.23c-21.69-.94-43.38-2.11-65.07-3.09-21.39-1-42.81-1.58-64.2-2.64q-32.65-1.58-65.26-3.62c-20.18-1.28-40.36-2.6-60.54-3.21q-17.43-.55-34.83-.55-7.46,0-14.93.1Z"/><path class="cls-1" d="M414.07,649.74c-12.64,15.62-25.65,31-37.53,47.27-3.62,4.9-7.17,9.92-10.64,15-3.21,4.6-5.81,9.73-8.6,14.56-6.11,10.56-11.17,21.8-16.07,33-.08.11.11.26.19.11,6-9.88,11.77-20,18.22-29.54q5.09-7.53,10.07-15.2c3.13-4.79,6.83-9.32,10.11-14,11.81-16.79,23.35-33.69,34.44-51,.06-.08,0-.19-.12-.19a.08.08,0,0,0-.07,0Z"/><path class="cls-1" d="M1038.85,13.31c-12.6,15.2-25.61,30.06-36.18,46.81-9.39,14.94-17.5,30.63-27.08,45.46-10.41,16.07-22.11,31.27-32.44,47.38-9.4,14.65-16.7,30.43-26.73,44.7-11.39,14.3-23.73,27.83-35.25,42-6.11,7.51-11.77,14.94-16.11,23.65a152.84,152.84,0,0,1-14.17,23.12c-10,11.66-21.29,22.08-31.06,34-10.2,12.41-18.92,26-28.52,38.93-7.11,8.68-14.32,17.27-21.35,26-7.49,9.36-14.39,19.23-21.49,28.93-11,13.62-23,26.3-34,39.91a441,441,0,0,0-32.59,46.17c-9.24,15.16-17.58,30.86-25.84,46.55-8.53,16.23-15,33.48-22,50.43a669.69,669.69,0,0,1-31.59,60.36c-12.11,20.44-24,40.91-38.08,60.07-11.43,14.37-23.23,28.51-34.92,42.68-.11.11.08.3.19.19,10.11-10.6,20.41-20.9,30.93-31.08A349.07,349.07,0,0,0,588.37,699c17.84-21.77,35.61-43.57,52.55-66.05s29.54-47.83,45.57-71,32.89-45.72,49.57-68.47c1-1.44,2.13-2.85,3.21-4.26,11-13.74,22.57-27.07,33.34-41,11.17-14.45,20.52-30.14,31.39-44.81,10-13.58,19.77-27.08,28.29-41.72,4-6.75,7.39-13.84,11.47-20.52,4.29-7,8.79-13.82,13.65-20.45,8.36-10.73,17-21.21,25.66-31.68,9.51-11.51,18.3-23.31,26.93-35.46s18.14-23.84,26.07-36.44c8.15-13,13.64-27.06,19.34-41.22,7.74-17.62,18.21-33.69,27-50.82,4.15-8.11,8.15-16.33,11.69-24.75s6.78-17.26,10.28-25.84c4.11-9.56,8.42-19.07,13.87-27.92C1025,35.5,1032.1,24.52,1039,13.47c.06-.08,0-.19-.12-.19a.08.08,0,0,0-.07,0ZM564.42,717.82l-.16.22.16-.22Z"/><path class="cls-1" d="M1371.77,13.53c-24.14.15-48.32.83-72.46,1.47s-48.25,1.4-72.31,2.83c-27.84,1.7-55.68,3.89-83.59,4.6q-47.7,1.19-95.44.6c-.15,0-.15.23,0,.26q41,3.34,82,4.79c25.31.91,50.66.45,76-.34,47.3-1.51,94.65-2.72,142-3.28,25.2-.3,50.43-.6,75.63-1.32,23.88-.68,47.87-2.45,71.71.23h-.15c5.54.82,11,1.83,16.45,3a.12.12,0,1,0,.08-.23c-11.13-3.89-22.11-7.62-33.8-9.43-11.47-1.77-23.09-2.19-34.67-2.53-17-.54-34-.71-51.05-.71q-10.22,0-20.43.07Zm123.43,9.84-.23,0a.87.87,0,0,0,.23,0Z"/><path class="cls-1" d="M1518.48,28.05c-16.64,24.63-34.18,48.51-52.25,72.09-8.15,10.68-16.33,21.31-24,32.33s-15,22.11-23,32.82c.45-.57.91-1.17,1.4-1.77-10.15,13-20.82,25.76-29.61,39.76-4.75,7.54-9.39,15.13-14.26,22.6-4.12,6.3-8.59,12.34-13.18,18.32-16.43,20.24-33.31,40.17-49,61-15.88,21.09-30.71,43-44.74,65.34-6.9,10.94-11.92,22.9-17.77,34.37q-9,17.6-19,34.55c-13.5,22.78-27.39,45.3-41.31,67.79-9,14.52-18.48,28.48-28.82,42.1-10.45,13.81-19.88,28.07-29.08,42.7s-20,28.48-30.22,42.48c-9.69,13.24-18.6,27.08-28.29,40.33l.57-.79c-9.58,12.07-19.77,23.58-29.8,35.27a312.14,312.14,0,0,0-26.93,36.63.13.13,0,1,0,.23.11c1.77-2.34,3.58-4.68,5.39-7.05l-.11.11C1035.18,726,1047,714.19,1059,702.38a488.57,488.57,0,0,0,37-40.55c11.05-13.66,22.29-27.08,33.69-40.44,11.54-13.54,21.83-28.08,32.43-42.33,8-9.7,16.43-19,24.45-28.62q13.24-15.9,25.42-32.63c15.65-21.46,32.44-42.14,47.45-64,7.47-10.9,14.9-21.8,21.28-33.38s12.37-23.27,19.5-34.33c14.26-22.22,28.52-44.44,43.38-66.28,14.33-21.09,29.12-42,42.85-63.52,6.87-10.79,12.79-22,18.56-33.38a338.5,338.5,0,0,1,19.24-33.27c6.64-10.22,13.5-20.26,19.8-30.67,6.41-10.64,12.37-21.5,18.82-32.1,13.32-22,27-43.87,39.46-66.43,5.85-10.52,11.09-21.43,16.33-32.25a.12.12,0,0,0-.09-.18.11.11,0,0,0-.1.07Zm-155,216.29-1.87,2.43c.62-.83,1.25-1.63,1.87-2.43Z"/><path class="cls-1" d="M834.34,738.75c-35.27.75-70.31,3.09-105.4,6.71-18,1.85-35.91,3.77-53.91,5.28-17.05,1.43-34.18,1.85-51.26,2.34-29.8.87-59.56.64-89.36.79-.15,0-.19.19,0,.23,17.47,3.7,35,7.09,52.66,9.81,16.56,2.53,33.27,4,50,5.43,35.35,2.94,70.84.94,106.15-1.36,34.21-2.26,68.35-5.28,102.53-7.81,33.38-2.45,66.84-3.51,100.15-7.17q22.86-2.55,45.57-6c11.17-1.66,22.22-4,33.35-5.88.15,0,.11-.23,0-.23-30.44,1.36-60.92.91-91.33.11-28.29-.78-56.58-2.41-84.9-2.41q-7.08,0-14.16.15Z"/><path class="cls-1" d="M1117.55,600.82c-19.09,20.63-37.72,41.49-53.23,65a535.66,535.66,0,0,0-44.66,82.8.11.11,0,1,0,.19.11c8.56-12,16.75-24.14,25.27-36.1,9.17-12.86,18.14-25.84,26.33-39.34,7.36-12.07,14.41-24.26,22-36.21,7.7-12.26,16.07-24.22,24.33-36.1.06-.09,0-.18-.12-.18a.09.09,0,0,0-.06,0Z"/><path class="cls-1" d="M1490.48,11.72c-15.5.38-31,1.43-46.51,2.68-30.44,2.49-60.88,5.32-91.33,7.73-62.62,5.05-125.28,7.7-188.08,9.43-23.84.64-47.64,1.62-71.48,1.85-26.56.23-53.08-.34-79.59-.68a.12.12,0,0,0,0,.23c33,6.19,66,11.39,99.47,13.54,30.78,2,61.68,2.64,92.53,2.53,31.5-.11,63-1.28,94.38-4.64,31.88-3.4,63.56-8.11,95.25-13q44-6.77,88.17-13.16c6.42-.84,12.84-1.68,19.3-2.34,7.13-.72,14.52-1.81,21.69-1h-.11l1.74.45h0c.39.18.78.39,1.18.57h0l.91.79a.12.12,0,0,0,.19-.15c-3.51-4.19-10.52-4-15.5-4.34-5.19-.37-10.43-.52-15.67-.52q-3.22,0-6.44.07Zm-7.41,6.52-.36,0,.36,0Z"/><path class="cls-1" d="M1049.45,17c-18.07,20.75-35.87,41.76-54,62.47-16.52,18.9-33,37.91-46,59.41-6.9,11.39-13.84,22.67-21,33.84-6.34,9.73-13.39,19-19.77,28.74-7.36,11.32-14.52,22.75-21.77,34.14-7,10.94-14.41,21.58-21.73,32.29-19.31,28.22-38.59,56.47-59.07,83.86C795.43,366,785.4,380.39,776,395.4c-9.62,15.28-19.92,30.06-30.52,44.66-.08.11.11.26.23.15q7.3-9.34,14.56-18.75l-.11.11c9.17-11.84,17.84-24,26.56-36.21l-.07.08c7.43-9.51,15-18.77,23-27.88s16.3-18.48,24.22-27.91q24.33-29,48.44-58.17c16.41-19.92,31.84-40.44,46.93-61.37,7.17-10,14.67-19.73,21.24-30.1,6.94-10.9,13-22.26,18.9-33.72,11.2-21.69,25.54-41.46,39.16-61.64,14.75-21.84,28.1-44.59,41.19-67.45a.13.13,0,0,0-.11-.2.1.1,0,0,0-.08,0ZM786.58,385.49a2.28,2.28,0,0,1-.2.26l.2-.26Z"/><path class="cls-1" d="M654.37,557c-8.56,10.41-17.16,20.79-26,31-7.05,8.11-14.33,16-21.5,24.07q-22.46,25-44.51,50.47c-7.24,8.34-14.79,16.79-20.11,26.56-2.68,5-5.13,10-7.51,15.16-2.45,5.36-4.68,10.83-6.94,16.26,0,0,0-.08.08-.11-1.66,3.77-3.28,7.51-5,11.24,0,.15.15.26.23.15,5.17-9.47,9.69-19.28,14.49-28.93,2.15-4.34,4.19-8.79,6.71-12.94,1.36-2.19,2.68-4.38,4-6.56s2.85-4,4.28-6c7.53-8.95,15.43-17.56,23.22-26.29q10.86-12.17,21.46-24.52c14.79-17.13,30-34,43.83-51.91q6.79-8.77,13.47-17.58c.06-.06,0-.15-.11-.15a.09.09,0,0,0-.07,0ZM552.48,677.55l-.08.09.08-.09Z"/><path class="cls-1" d="M675.25,544.7a313.45,313.45,0,0,0-20.82,23.88c-5.71,7.32-11.17,14.89-16.8,22.33-10.75,12.58-22.17,24.42-33.07,36.82-12,13.62-23.12,28-34.86,41.76-10.15,11.88-20.71,23.24-29.76,36-8.75,12.37-17.65,25.54-23.31,39.68-.08.15.15.23.19.11a120.36,120.36,0,0,1,7.88-11.43c-.08.08-.11.15-.19.23,1-1.32,2-2.68,3.06-4-.08.11-.15.19-.23.3,1.32-1.66,2.6-3.32,3.89-5l-.26.38a439.26,439.26,0,0,1,36.52-40.7c6.87-6.75,13.77-13.5,20.18-20.75,6.64-7.47,12.94-15.2,19.43-22.82,12.75-15,25.54-29.8,36.93-45.87,5.39-7.58,9.58-16.07,14.3-24,5.43-9.13,11.13-18,17.13-26.74.06-.09,0-.19-.12-.19a.08.08,0,0,0-.07,0Z"/><path class="cls-1" d="M1553.12,27.09c-16.9,19.2-36.44,36.1-54.7,53.94-18.71,18.3-36.44,37.76-54.13,57-17.28,18.82-33.76,38.44-51,57.3-17.13,18.67-33,38.48-49.91,57.34C1307.09,293,1272.46,335,1239.49,378q-22.75,29.76-45.34,59.6c-15.5,20.45-29.8,41.72-44.63,62.66-13.84,19.5-27.27,39.19-39.87,59.53s-25.42,40.25-38.29,60.32c-6.75,10.52-13.47,21-19.92,31.8-5.85,9.66-11.66,19.35-17.92,28.74-6.94,10.49-13.66,21-20.22,31.72-2.72,4.49-4.79,9.39-7.13,14.07-.72,1.43-1.34,2.92-1.92,4.44-1.88-.54-3.71-1-5.4-1.38-12.37-2.87-25.2-3.06-37.84-2.72-12.26.3-24.56,2.19-36.74,3.58-12.56,1.4-25.12,2.9-37.72,4.07-26.33,2.34-52.7,3.73-79.1,5.05-25.24,1.28-50.47,3-75.71,5.05-34.74,2.79-69.52,5.36-104.26,8.22-18.26,1.51-36.52,3.17-54.7,5.73-20.45,2.83-40.82,6.19-61.15,9.73-.15,0-.11.23,0,.23,29.39-.53,58.77-1,88.16-.94,25.12.08,50.25,1.17,75.33,1.47,27,.3,53.94.15,80.91.15,24.63,0,49.23.75,73.86,1,33.61.38,67-.45,100.57-2.87,17.2-1.21,34.48-2.15,51.6-4.49,6.94-.94,13.84-2.26,20.75-3.66,1-.2,2-.42,3.07-.66a10.34,10.34,0,0,0,11.61.51c3.7-1.62,6.94-4.75,9.81-7.62,2-2,4.11-4.07,6.11-6.19q7.47-7.81,15.05-15.5c8.45-8.6,17.09-17,25-26.07,18.63-21.39,35.87-44,52.89-66.69,15.5-20.71,29.31-42.4,43.19-64.2,14.67-23,29.65-45.87,44.1-69.07,6.07-9.73,11.69-19.69,17.84-29.39,7.43-11.73,14.86-23.5,22.14-35.35,13.2-21.43,25.35-43.49,38.78-64.77,14.79-23.39,29.91-46.55,45-69.71,14.22-21.8,30.29-42.4,45.12-63.83,10.94-15.77,22.41-31.12,34.14-46.32,11-14.33,21.67-28.92,32.44-43.44q25.3-32.2,51.49-63.73c17-20.45,36.25-39,52.74-59.87a.15.15,0,0,0-.1-.23.12.12,0,0,0-.09,0Z"/><path class="cls-1" d="M1451,22.61C1417.5,27,1384.34,34,1350.88,39.06c.41-.08.79-.11,1.17-.19-22.82,2.68-45.61,4.83-68.54,6.34a.11.11,0,0,0,0,.23c17.13,1,34.21,2,51.34,2.38a406.28,406.28,0,0,0,49.79-2.19c31.22-3,62.1-9.34,93-14.65,17.35-2,35.42-4.42,52.83-2.31,1.13.25,2.26.51,3.42.8l2.07.9.88.85c.07.25.15.5.22.76s-.05.63-.08.93l0-.06,0,.08,0,.22a1.34,1.34,0,0,1,0-.18c-1.32,6.22-3.64,12.25-5.59,18.25,0,.15.19.23.23.11,2.23-5.17,4.49-10.34,6.68-15.5,0,.08,0,.15-.08.23.75-1.85,1.92-3.92,1.24-6-1.24-4-7.17-5.36-10.49-6.26-9.58-2.72-20.18-3.06-30.06-3.58q-5.38-.29-10.75-.28A291,291,0,0,0,1451,22.61ZM1477.36,31l-.82.09.82-.09Zm59.58,2v0Z"/><path class="cls-1" d="M1073.8,23.61c9.05,2.23,18.14,4.49,27.27,6.45,12.37,2.68,24.86,4.72,37.38,6.53.15,0,.23-.19.08-.23a638.73,638.73,0,0,0-64.66-13c-.15,0-.23.19-.08.23Z"/><path class="cls-1" d="M1011.69,7.52c5.47,4.6,12.22,7.36,19,9.28,8.49,2.41,17.35,3.4,26.07,4.56h0c6.82.89,13.6,1.6,20.46,2.12,6.34.49,12.71.94,19,1.09,5.7.15,11.43.26,17.13.38,9.73.23,19.39.41,29.12.3q34.63-.4,69.3-1.28c20.07-.53,40.17-.79,60.28-1.06,9.2-.11,18.41-.3,27.65-.3q20.82,0,41.65,0c19,0,37.95.19,56.89.19q32.42-.06,64.81-.34c5.17,0,10.34-.11,15.5-.15.15,0,.15-.23,0-.26q-66.2-1.7-132.41-3.43c-11-.26-22-.34-33-.49-8.6-.11-17.24-.26-25.84-.23-11.13,0-22.22,0-33.31.19-12.64.26-25.24.53-37.87.83-19.28.49-38.51,1.32-57.79,1.92-10.15.3-20.26.75-30.37.79-13.81,0-27.61.19-41.38-.19-14.6-.45-29.16-1.54-43.65-3.42l0,0c-7.39-1.06-14.82-2.38-21.77-5.28h.08a51.37,51.37,0,0,1-8.49-4.64l0,0c-.34-.26-.68-.53-1-.79l-.07,0c-.1,0-.21.12-.12.21ZM1043,18h0Z"/><path class="cls-1" d="M1500,27.06c-37.35,2.49-74.69,4.38-112.11,5.88-35.38,1.4-70.77,3.21-106.19,3.7-37,.49-74,1.43-111,.57-34.78-.79-69.48-3.77-104.3-3.4-11.69.11-23.43,1-35.08,2a.11.11,0,0,0,0,.23c18.22.34,36.36.79,54.58,1.92,17.5,1.09,35,2.83,52.43,4.22,16.48,1.32,33,2.68,49.57,3.13q27.61.74,55.23.72c72.73-.19,145.27-6.45,217.58-14,13.13-1.4,26.18-3.06,39.27-4.72.14,0,.15-.23,0-.23Z"/><path class="cls-1" d="M1043.4,31.54c-1.62,1.28-3.09,2.75-4.6,4.15-2.34,2.19-4.64,4.45-6.9,6.68q-8.15,8-16,16.33a294.56,294.56,0,0,0-27.27,33.2c-17.8,25.69-35,51.76-52.7,77.48-.08.11.11.26.19.15q20.09-23.88,38.59-49.08c5.77-7.92,11.24-16.11,16.75-24.26s11.17-15.77,16.94-23.5l-.3.41c5.58-6.94,11.17-13.84,17.09-20.52,6.45-7.28,12.86-14.9,20.18-21.31l-.08.08c.42-.28.84-.59,1.29-.91h.06c0,.1,0,.2,0,.3s0-.08,0-.11c-.72,4-2.41,7.81-3.89,11.58a.12.12,0,0,0,.23.08c.79-1.7,1.66-3.4,2.38-5.13,1-2.26,2.34-4.72,2.15-7.2a.48.48,0,0,0-.49-.49c-1.47,0-2.53,1.17-3.62,2.07Z"/><path class="cls-1" d="M1050.82,29.31c-13.5,12.56-27.12,25-40.4,37.84-12.37,12-23.54,25-34.52,38.29-20.82,25.24-44.7,47.42-67.45,70.84-25,25.8-46.59,54.32-67.71,83.37-11,15.16-21.8,30.37-31.35,46.55-9,15.25-15.67,32-22.47,48.31-21.27,47.81-47.41,93-74.21,137.89-13.43,22.48-29,43.42-44.14,64.77C660.89,568,654,579.41,647,590.73c-6.53,10.47-13.58,20.39-21.06,30.16l0,0,0,0-.35.46.19-.27c-8.39,10.11-17.19,19.88-25.54,30.07-9.2,11.28-18.14,22.75-27,34.29-.08.11.11.26.19.15,8.19-9.77,16.45-19.5,25.09-28.9,8-8.64,16.33-16.86,24.41-25.42,16.93-17.95,31.25-37.62,46.16-57.22,13.75-16.71,28.39-32.61,42.38-49.12s26.37-34.14,39.45-51.23c22.8-29.07,47.2-57,68.06-87.59,11.35-16.56,21.92-33.61,33-50.36,10.45-15.81,22.75-30.4,34-45.64,10.75-14.67,20.6-30,30.71-45.08,9.92-14.79,20.75-29,31.35-43.27s20.52-29.31,29.91-44.55c8.94-14.52,15.88-30.18,23.61-45.34,14.6-28.67,32.89-55,49.64-82.42.05-.11,0-.2-.09-.2a.14.14,0,0,0-.1,0ZM625.73,621.09l.16-.19v0a2,2,0,0,0-.17.2Z"/><path class="cls-1" d="M645.73,575.55c-6.26,9.58-12.75,19-19.16,28.48-4,5.9-8.68,11.52-13,17.19-10.33,12.5-21,24.7-31.14,37.35s-20,25.46-30.4,37.91c-10.18,12.22-22.52,22.86-34.55,33.16-5.92,5.05-13.84,10.15-17.39,17.28A28.2,28.2,0,0,0,497,758a20.93,20.93,0,0,0,.9,6.15c.15,2.39.65,4.68,2.46,6.45,2.57,2.57,7,3.66,10.45,4.22,6.26,1,12.52,1.7,18.86,2.34,10.71,1.06,21.73.57,32.48.34q35-.74,69.94-1.32c45.72-.75,91.29-4,136.82-7.88,46.06-4,92-9.69,137.88-14.79,22.37-2.45,44.66-5.28,67-7.62,22.63-2.38,45.34-4.34,68-6.37,2.75-.26,5.55-.53,8.3-.75.15,0,.15-.26,0-.26-22.82,1-45.64,1.21-68.47,1.7-23,.49-46,1.09-69,1.55-47.34,1-94.65,2.3-141.95,4.22-43.95,1.77-87.93,3.32-131.91,5.21-21.16.91-42.4,1.85-63.52,3.62q-16.86,1.41-33.72,2.9c-5.21.45-10.49.75-15.73.94l-1.75.07c3.54-4,6.51-8.76,9.65-12.9,9.72-12.42,19.65-24.65,28.73-37.56s17-27,25.73-40.36c9.47-14.41,19.58-28.4,29.31-42.63,10.79-15.73,19.73-32.74,28.44-49.64a.12.12,0,0,0-.09-.18.11.11,0,0,0-.1.07Z"/><path class="cls-1" d="M1174.78,28.87c-32.06.91-64.09,2.19-96,4.72q-13.3,1-26.56,2.34c-9.32.91-19.62,1.74-28.18,5.58-10.94,4.9-17.88,14-24.33,23.8q-7.92,12-15.24,24.37c-.11.11.11.23.19.11,3.92-5.32,8-10.52,12-15.77l-.19.19c6-7.35,11.69-15,19.11-21a49.09,49.09,0,0,1,6.34-3.68,49.85,49.85,0,0,1,7.43-2c16.25-1.9,33.11-.23,49.46.51,12.9.57,25.8,1.28,38.7,1.92,29.84,1.43,59.68,2.64,89.52,3.21,57.26,1.13,114.45-.79,171.6-4.64,46.29-3.09,92.27-9,138.44-13,.15,0,.19-.23,0-.23C1460.71,34,1404.43,32,1348.15,30.11,1311.09,28.86,1274,28,1237,28q-31.1,0-62.21.82Z"/><path class="cls-1" d="M1458,30.36c-20.33.72-40.21,4.38-59.87,9.51-.15,0-.08.26.08.23,6.49-1,13-1.9,19.5-2.87,33.86-3.66,68.07-4.33,102.12-4.18a.11.11,0,1,0,0-.23,427.87,427.87,0,0,0-47.67-2.7q-7.08,0-14.16.24Z"/><path class="cls-1" d="M1541.47,29.6c-17.16,19.69-34.21,39.65-49.34,61-13.88,19.62-27.08,39.68-39.42,60.36-12.22,20.48-24.29,41-37,61.15s-25.88,39.76-39.34,59.22c-.11.11.08.26.19.15,31.65-34.82,62.43-70.28,87.86-110,13.28-20.71,25.61-42.06,37.87-63.41,13.05-22.82,26.56-45.42,39.42-68.35.06-.08,0-.19-.12-.19a.08.08,0,0,0-.07,0Z"/><path class="cls-1" d="M530.82,489.24c-1.79,2.35-3.62,4.66-5.41,7l0,0c-14.62,18.91-29.38,37.67-43.36,57-15.88,22-30.67,44.81-46.74,66.62-33,44.85-60.58,93.59-83.1,144.51,0,.11.11.26.19.15,23.43-29.08,46.74-58.05,68.77-88.19-.53.68-1.09,1.36-1.62,2,11.58-14.64,22.82-29.54,33.57-44.81,10.45-14.94,19-31.16,27.5-47.23,17.05-32.21,33.16-64.84,50.36-96.95a.13.13,0,0,0-.11-.2.1.1,0,0,0-.08,0Zm-5.47,7.09.06-.08a.3.3,0,0,0-.06.08Z"/><path class="cls-1" d="M397.51,706.5c-8,10-16.11,20-24.44,29.69-7.21,8.45-14.54,17.19-23.15,24.28l.09-.06-.09.07-.24.2a2,2,0,0,1,.23-.19,31.5,31.5,0,0,1-5,2.86c-.87.23-1.74.47-2.58.67-7.83.76-16-.29-23.92-.73-5.85-.34-11.73-.72-17.58-1.17-13.47-1-26.86-2.33-40.29-3.94-17.72-2.82-35.5-5.7-53-9.56-18.86-4.19-37.72-8.37-56.7-12.07a387.64,387.64,0,0,0-54.43-6.07,346.57,346.57,0,0,0-55.94,2c-.15,0-.15.26,0,.26,17.12-.19,34.06,1.4,51.07,3.32,18.65,2.8,37.33,5.91,55.61,10.71,10.11,2.64,20.26,5.24,30.33,8,8.94,2.41,17.92,4.87,27,6.75,19.39,4,38.89,7.7,58.66,8.94,20.07,1.24,40.17,1.43,60.28,1.09,3.24,0,6.49-.15,9.77-.26,6.07-.19,12.37-.68,17.24-4.79,6.6-5.55,12-12.71,17.35-19.43,10.45-13.09,20.33-26.59,30-40.33a.12.12,0,0,0-.19-.15ZM90.79,735.88l.73.11-.73-.11Zm259.12,24.59h0Z"/><path class="cls-1" d="M398.06,694c-11.24,13.17-22.26,26.52-32.78,40.21-10.2,13.29-18.64,27.86-28.84,41.08h0l0,0,0,0v0L335,776.43l-1.18.22c-.11,0-.08.23,0,.23,2.53.11,3.81-1.47,5.73-3.09a113.57,113.57,0,0,0,8.6-9c6.15-6.79,12.07-13.73,17.8-20.9,12.37-15.47,22.82-32.4,32.25-49.79a.15.15,0,0,0-.11-.2.09.09,0,0,0-.08,0Zm-61.67,81.35,0,0,0,0a.08.08,0,0,0,0,.05Z"/><path class="cls-1" d="M25,730.8a.13.13,0,0,0,0,.26c2,.15,4,.38,6,.64l-.15,0C56.87,735.22,82.44,740,108,746c25.88,6.19,51.6,12,78,15.2,26.1,3.09,52.81,3.7,79.07,3.55s51.42-6.34,77-10.68l1.64,0,0,.07A40.92,40.92,0,0,1,339,759c-.11.11,0,.26.15.19,2.15-1.4,6.45-2.9,5.92-6a.8.8,0,0,0-.53-.57c-4.68-.94-9.51-.45-14.26-.41-5.7,0-11.39,0-17.09-.26-11.43-.55-22.76-1.5-34.11-2.7-20.87-3.18-41.63-7.23-62.61-9.9-21.39-2.68-42.93-4.19-64.43-6.11-27.14-2.44-54.24-3.89-81.38-3.89-15.19,0-30.39.45-45.63,1.44Zm317.17,23.31h0Z"/><path class="cls-1" d="M150.54,563c-25.27,29.8-51.27,59.07-75.94,89.4-11.09,13.66-21.09,28.1-31.23,42.44C38.13,702.32,33,709.83,28,717.41c-2.6,3.85-5.13,7.73-7.66,11.62-5.88,9.13-9.73,19.28-13.58,29.35,0,.15.15.19.23.08,3.5-4.85,7-9.7,10.61-14.48C28.5,730.89,40.66,718.86,52,706.09c9.23-10.38,17.91-21.25,26.43-32.23l-.1.13c27.27-34.86,50.28-72.58,72.46-110.79a.15.15,0,0,0-.13-.2.14.14,0,0,0-.1,0Z"/><path class="cls-1" d="M573.48,0c-9.69,12.52-18.94,25.31-28,38.33-8.37,12.07-17.05,23.8-26,35.46-9.17,12-18.3,24.07-27.12,36.33C484,122,475.53,133.84,467,145.61l-11.57,15c-13.79,16.63-27.8,33.08-41.66,49.64-14.06,16.83-27.56,34.12-40.87,51.53-7.74,9.8-15.52,19.59-23.44,29.23-7.36,9-15.05,17.65-22.33,26.63-15.26,18.87-29.79,38.2-44.49,57.47-5.46,6.56-10.89,13.19-16.35,19.71-6.15,7.36-12.56,14.52-18.33,22.14-5.39,7.09-11.09,14-16.11,21.39-5.13,7.51-10.22,15-15.35,22.44-10.45,15.09-21.2,29.91-31.8,44.89Q168.1,529,152.88,553.31c-9.58,15.2-18.86,30.52-28.22,45.83-8.34,13.73-17.05,27.2-25.69,40.74-9.85,15.43-19.31,31-28.18,47-3.77,6.9-7.43,13.88-11.47,20.63-5.17,8.6-10.56,17.05-16.11,25.42-.08.11.11.23.23.11,6.38-8.41,12.56-16.86,18.48-25.61,4.64-6.87,8.86-14,13.2-21,9.43-15.28,19.5-30,29.76-44.74,21.39-30.63,41.95-61.83,63.34-92.46,5.32-7.62,11-15,16.45-22.48-.34.41-.64.83-1,1.21,10.75-13.66,21.92-27,32.52-40.82q15.4-20,30.6-40.16c5.45-6.58,10.69-13.47,16.44-19.78,6-6.56,12-13.13,18-19.77s12.22-13.32,17.92-20.29c5.88-7.24,11.81-14.49,17.58-21.84C328.74,350,341.07,335,353.56,320c12.34-14.75,24.07-30,35.57-45.42,8.6-11.51,16.9-23.24,25.42-34.82s17.59-23.16,26.41-34.69c11.3-14.62,22.68-29.2,33.23-44.34,9.85-14.15,18.86-28.78,27.91-43.42,10-16.07,20.26-32,30.37-47.95,9.39-14.82,17.58-30.33,26.37-45.49,4.68-8.07,9.66-16,14.82-23.73.06-.08,0-.19-.12-.19a.08.08,0,0,0-.07,0ZM372.74,262l-1.26,1.65c.41-.55.84-1.11,1.26-1.65ZM282.45,375.33l-.46.61.46-.61Z"/><path class="cls-1" d="M759.28,21.14c-14,.57-28,1.81-42,2.83s-28.1,1.55-42.17,2.38c-27.54,1.66-54.85,5.77-82.23,8.71-26.56,2.9-53,5.66-79.29,10.56a.11.11,0,0,0,0,.23c40.63-2.87,81.37-1.74,122-3.77,19.24-.94,38.51-1.74,57.75-2.83,19.86-1.09,39.5-3.87,59.18-6.73,26.77-3.38,53.79-6.74,80.81-6.85.15,0,.19-.19,0-.23-11.81-1.74-23.5-3.66-35.46-4.26q-9.47-.5-19-.49c-6.54,0-13.09.16-19.62.45Z"/><path class="cls-1" d="M802.38,26.28c-.69-.1-1.38-.17-2.08-.21a1,1,0,0,0-.87.68.54.54,0,0,1-.08.23c-.23.6.38,1.09.91,1.17,15.44,2,30.91,0,46.24-2.14h0c3.58-.45,7.12-.85,10.69-1a.11.11,0,1,0,0-.23A106.76,106.76,0,0,0,843.84,24c-13.82,0-27.65,2.06-41.46,2.26ZM846.33,26l.13,0-.13,0Z"/><path class="cls-1" d="M850.92,22.8c-14.82,20-29.08,40.74-39.87,63.26-9.85,20.56-17.62,42.06-25.16,63.52,0,.11.15.19.23.08,12.37-20.14,24.93-40.21,36-61.11,11.17-21.16,20.48-43.34,29-65.64a.12.12,0,0,0-.13-.15.14.14,0,0,0-.1,0Z"/><path class="cls-1" d="M832.76,14c-.11,1.21-.19,2.38-.3,3.58v-.11A83.59,83.59,0,0,1,828,34.66c-10.81,24-25,46.15-38.24,68.74-3.89,6.6-8.64,12.79-12.86,19.16C773,128.37,769,134.07,765,139.8c-17.31,24.63-33.08,50.17-49,75.67Q702.62,236.75,689.26,258c-7.13,11.28-14.41,22.44-21,34-7.39,12.9-15,25.73-21.2,39.23-3.06,6.64-6.11,13.24-8.94,20l-2.94,7a5.91,5.91,0,0,0-.64,1.51c-3.12,7.39-6.2,14.86-9.25,22.33,0,.15.19.23.23.11,3.52-7.12,7.07-14.26,10.75-21.32a1,1,0,0,0,.52-1c3-5.77,6.12-11.49,9.37-17.1q11.26-19.35,24.18-37.53c17.43-24.56,36.36-48,54.06-72.39S758.6,183,775.2,157.76c9.43-14.33,18.18-28.82,26.59-43.8,3.28-5.77,5.85-12,8.6-18,5.36-11.66,10.22-23.46,14.49-35.57A241.32,241.32,0,0,0,832.27,36c1.77-7.21,1.55-14.67.75-22a.13.13,0,0,0-.26,0Z"/><path class="cls-1" d="M1044.81,22.54c-7.06,8.95-14.11,17.86-21,26.92l.2-.29c-9.36,11.77-18.75,23.69-27.08,36.21C987.47,99.49,979,114.17,971,129.11c-15.77,29.54-32.33,58.66-49,87.7a.12.12,0,0,0,.19.15c24.18-30.22,48.21-60.54,67.9-94,9.05-15.43,17.5-31.23,26.52-46.74C1026.85,58.79,1036.36,41,1045,22.69a.15.15,0,0,0-.12-.19.08.08,0,0,0-.07,0Z"/><path class="cls-1" d="M886.65,253.61Q863.23,283,839.76,312.3c-12.8,16-24.6,32.78-36.72,49.25v0q-12.22,15.39-24.67,30.56c-8.19,10-16,20.14-23.8,30.44-7.09,9.36-13.69,19.16-20.22,28.93-6.79,10.19-13.58,20.33-20.29,30.56-7.24,10.94-14.37,21.88-21.8,32.71-7.54,11-15.24,21.88-22.86,32.82-14.56,21-26.22,43.72-39.83,65.26-9.58,15.2-20.56,29.46-31.08,44-11,15.21-22.06,30.42-33.28,45.44l.07-.08-8.13,10.47c.11-.11.19-.23.3-.34-6.71,8.64-13.66,17.13-20.26,25.84-7.39,9.77-14.26,19.92-21.31,30-.08.11.11.26.19.15,8.9-10.79,17.65-21.69,26.52-32.48,8.11-9.88,16.33-19.69,24.22-29.8,7.39-9.47,14.3-19.31,21.58-28.86q12-15.84,24.07-31.61c7.28-9.51,14.6-19.09,21.2-29.12,7.51-11.47,14.6-23.16,21.54-35,6-10.18,12.34-20.26,19.16-29.91,7.66-10.83,15.43-21.58,22.94-32.52,12-17.47,23.46-35.38,35.08-53.15,5.85-9,11.58-18,17.65-26.78,6.4-9.27,13-18.35,19.58-27.44l-.15.16q12.17-15.67,24.44-31.23c8-10.15,15.47-20.67,22.94-31.23,3.7-5.28,7.36-10.68,11-16,3.55-5.13,7.24-10.11,10.9-15.16,6.49-8.94,13.24-17.65,19.84-26.48q14.15-18.9,28.25-37.87c.06-.08,0-.19-.12-.19a.08.08,0,0,0-.07,0ZM565.15,702.31l.07-.09-.07.09ZM769.6,411.57a2.73,2.73,0,0,0,.27-.36l-.27.36Z"/><path class="cls-1" d="M1531.37,25.08c-4,1.62-6.6,4.72-9.66,7.7-3.21,3.09-6.3,6.22-9.43,9.39-.11.08,0,.26.15.19,5.55-4.14,11-8.68,16.9-12.36-2.73,5.39-6.51,10.16-10.15,15l.11-.13c-8.29,10.52-16.4,21.12-24.36,31.9-8.41,11.39-16.22,23.27-24.07,35.08-13.84,20.78-27.12,42-40.55,63q-23.54,36.95-45.61,74.77c-6.56,11.28-12.9,22.71-19.28,34.1C1359.7,294,1353.51,304,1347.36,314c-14.11,23-28.52,45.87-43,68.73-12.71,20-25.24,40.21-38.25,60.05-.08.11.11.26.19.15,13.82-17.53,27.46-35.21,41.09-52.93a30.33,30.33,0,0,0,2.54-3.39c.46-.49.87-1,1.29-1.59,2.38-3.09,4.79-6.19,7.17-9.28,5.92-7.66,11.77-15.28,17.65-22.9,7.05-9.17,13.88-18.48,20.71-27.8,7.2-9.73,14.56-19.39,21.31-29.46,30-44.7,59.6-89.89,85.78-137q18.22-32.76,35.8-65.86c4.79-9,10.15-17.69,15.2-26.56,2.9-5.13,6-10.15,9-15.2,2-3.32,3.81-6.68,5.66-10.07,2.34-4.34,4.87-8.9,4.3-13.92a2.19,2.19,0,0,0-1.89-2,1.6,1.6,0,0,0-.6.12Zm-11.62,19.2-.37.47.37-.47ZM1307.39,390.06l-.2.25.2-.25Z"/></g></g></svg>