<svg xmlns="http://www.w3.org/2000/svg" viewBox="0 0 819.53 835.17"><defs><style>.cls-1{fill:#353535;}</style></defs><title>collaboration</title><g id="Layer_2" data-name="Layer 2"><g id="Draw_Layer" data-name="Draw Layer"><path class="cls-1" d="M341.68,31a338,338,0,0,0-50.43,6c-4.15.81-8.29,1.71-12.42,2.63q-2.47.55-4.92,1.15c-4.73,1-9.43,2.09-14.1,3.31-5.05,1.33-10.06,2.86-15,4.49-5.22,1.72-10.37,3.64-15.49,5.64-4.39,1.71-8.72,3.56-13,5.48-4.81,2.15-9.55,4.47-14.26,6.85-9.29,4.69-18.33,9.86-27.14,15.38a348,348,0,0,0-49,37.29c-7.83,7.11-15.27,14.65-22.4,22.45-6.81,7.46-13.24,15.26-19.33,23.3a332.83,332.83,0,0,0-33.09,53.73,336.75,336.75,0,0,0-32.64,186A333.89,333.89,0,0,0,89.35,576.18q9.38,11.82,19.78,22.76c7,7.42,14.41,14.47,22.07,21.22a331.82,331.82,0,0,0,49,35.63A340.67,340.67,0,0,0,425,696.29c10.63-2.24,21.13-5,31.49-8.33,5-1.59,10-3.32,14.87-5.14s9.93-3.9,14.84-6c9.8-4.22,19.35-9,28.71-14.09s18.16-10.55,26.86-16.42c8.45-5.71,16.59-11.88,24.49-18.32,8.06-6.58,15.75-13.58,23.13-20.9s14.37-15,21.07-23c6.46-7.69,12.53-15.69,18.28-23.92a335.24,335.24,0,0,0,50.66-112.47c2.56-10.42,4.57-21,6.12-31.58.71-4.83,1.3-9.69,1.84-14.54.61-5.54,1.06-11.1,1.4-16.67a339.09,339.09,0,0,0-2.66-65.56q-2.1-15.72-5.71-31.19c-1.17-5.07-2.49-10.1-3.9-15.1-1.5-5.36-3.2-10.65-5-15.91-3.39-9.85-7.31-19.51-11.58-29-4.38-9.76-9.29-19.28-14.58-28.58-5.18-9.08-10.86-17.88-16.87-26.42-2.81-4-5.71-7.94-8.76-11.77-1.62-2-3.28-4-5-6-1.91-2.28-3.78-4.58-5.7-6.84a336.58,336.58,0,0,0-96-77.59,344.53,344.53,0,0,0-57.82-24.48c-10.22-3.3-20.62-6.05-31.11-8.36-10.23-2.25-20.59-3.87-31-5.11-8.51-1-17.08-1.66-25.64-2q-5.7-.24-11.41-.24c-4.8,0-9.59.12-14.39.31Zm-15.49,3.66c7.74-.52,15.49-.72,23.24-.7,3.88,0,7.75.11,11.62.25s7.72.32,11.57.56c7.54.48,15.06,1.26,22.55,2.25a363.18,363.18,0,0,1,44.14,8.87c7.07,1.88,14.06,4,21,6.37,7.17,2.42,14.23,5.16,21.21,8.09q9.76,4.16,19.25,8.89c6.4,3.19,12.67,6.62,18.85,10.2a328.4,328.4,0,0,1,34.95,23.42q7.73,6,15.11,12.38c5,4.36,9.91,8.89,14.67,13.54s9.41,9.51,13.92,14.45c2.26,2.48,4.48,5,6.66,7.56s4.32,5.07,6.36,7.69q1.47,1.91,2.92,3.83c1.3,1.72,2.55,3.47,3.85,5.2,2.29,3,4.51,6.13,6.69,9.25,4.33,6.17,8.41,12.51,12.32,19a331.91,331.91,0,0,1,21.47,42l-.26-.62q4.19,10,7.77,20.2c1.26,3.6,2.42,7.23,3.58,10.87s2.29,7.47,3.35,11.23a337,337,0,0,1,9.36,45.48q.65,5,1.16,9.92c.35,3.53.63,7.07.87,10.62.51,7.52.73,15.05.73,22.59a329.57,329.57,0,0,1-2.75,43.41q-1.48,10.76-3.61,21.41c-1.51,7.55-3.32,15-5.35,22.47A335.5,335.5,0,0,1,659,496.77q-4.08,9.58-8.71,18.91c-3.12,6.28-6.47,12.44-10,18.51a328.75,328.75,0,0,1-23.93,35.62q-6.3,8.12-13.06,15.85c-4.94,5.63-10.1,11.06-15.41,16.35-5.07,5.05-10.34,9.91-15.73,14.63s-11,9.36-16.71,13.79a351.75,351.75,0,0,1-35.32,23.86,325.57,325.57,0,0,1-38.71,19.39l.57-.24q-10.16,4.25-20.55,7.93c-7.39,2.61-14.9,4.92-22.45,7a333.12,333.12,0,0,1-44.38,9q-10.66,1.39-21.38,2.13c-7.32.51-14.65.74-22,.77s-14.88-.22-22.31-.68-14.64-1.22-21.92-2.18-14.52-2.2-21.73-3.64c-7.58-1.51-15.1-3.33-22.55-5.36A333.87,333.87,0,0,1,221,674q-9.66-4.12-19-8.82c-6.29-3.15-12.45-6.54-18.53-10.08A335,335,0,0,1,147.84,631q-8.21-6.38-16-13.23c-5.21-4.57-10.24-9.32-15.15-14.21a333.77,333.77,0,0,1-28.06-31.77l.09.11q-6.49-8.41-12.47-17.18c-4-5.85-7.75-11.85-11.37-17.93A332.43,332.43,0,0,1,45,497.58l0,.12-.11-.25v0h0q-4.13-9.81-7.66-19.85c-2.42-6.88-4.56-13.84-6.52-20.86a336.21,336.21,0,0,1-9.1-44.44,349.71,349.71,0,0,1-3-45.15,338.07,338.07,0,0,1,2.94-44.47q1.45-10.75,3.54-21.4c1.41-7.16,3.08-14.27,5-21.32a332.63,332.63,0,0,1,14.62-42.76l-.1.23q4.3-10.18,9.23-20.07c3.19-6.4,6.61-12.67,10.2-18.84a333.11,333.11,0,0,1,23.86-35.42l0,.06a332.28,332.28,0,0,1,59.81-59.89q8.55-6.58,17.48-12.62c6-4,12.08-7.83,18.29-11.46s12.32-6.89,18.62-10,12.47-5.92,18.81-8.62q8-3.38,16.18-6.41c6.07-2.24,12.19-4.3,18.34-6.26s12.31-3.78,18.52-5.49q3.25-.77,6.51-1.48c7.53-1.64,15.14-2.88,22.77-3.92s15.29-1.78,23-2.29ZM303.1,37h0Zm92.19.07h0ZM221,60.43l-.09,0,.09,0Zm461.23,264,0,.16,0-.16ZM658.87,497l-.08.18.08-.18ZM555.35,630.49l-.39.3.39-.3ZM45,497.45l.06.14-.06-.14Z"/><path class="cls-1" d="M321.75,33.65c-1.47.13-2.94.3-4.41.48,0,0,0,0,0,0q4.34-.37,8.68-.79s0,0,0,0q-2.14.13-4.27.31Z"/><path class="cls-1" d="M342.24,29.67A250.45,250.45,0,0,0,292.66,37a292.33,292.33,0,0,0-47.95,17.16h0A285.66,285.66,0,0,0,216,64.57a274.4,274.4,0,0,0-28.84,14.34A269.13,269.13,0,0,0,161,96.08q-12,8.82-23.26,18.57a340.41,340.41,0,0,0-77.26,97.29,333.34,333.34,0,0,0-24.12,58.26,342.36,342.36,0,0,0-12.9,62.18,346.12,346.12,0,0,0-1.15,64.25Q23.42,412.4,26,428c1.73,10.69,4.08,21.28,6.87,31.75A335.85,335.85,0,0,0,55,519.19C59.55,528.73,64.7,538,70.21,547s11.31,17.64,17.52,26.07c1.46,2,3,3.93,4.44,5.93,1.31,1.81,2.63,3.62,4,5.35,3.46,4.24,7,8.38,10.7,12.45,7,7.8,14.4,15.26,22.08,22.4a352.24,352.24,0,0,0,49,37.92,299.46,299.46,0,0,0,27.24,15.68c9.37,4.74,19,9,28.75,12.85A343.51,343.51,0,0,0,294.5,703.4a333.16,333.16,0,0,0,64.22,6.12c11,0,22-.45,33-1.45s21.68-2.54,32.4-4.53a334.85,334.85,0,0,0,61-17.88,321.23,321.23,0,0,0,57.29-29.18c9-5.81,17.6-12.11,26-18.7,1.78-1.4,3.51-2.88,5.24-4.34,1.9-1.61,3.84-3.17,5.74-4.78,4.08-3.46,8.07-7,12-10.69,3.59-3.34,7.12-6.77,10.52-10.3,3.75-3.9,7.39-7.91,10.95-12,6.8-7.8,13.28-15.93,19.3-24.35a345.1,345.1,0,0,0,31.12-53.49,348.77,348.77,0,0,0,21.5-59,338,338,0,0,0,10.39-62.65c.37-5.16.6-10.34.74-15.51.15-5.71.23-11.42.16-17.13-.14-11-.88-22.06-2.1-33-1.18-10.61-2.7-21.15-4.75-31.62s-4.67-20.75-7.72-30.93a340.54,340.54,0,0,0-23.74-58.48c-4.85-9.37-10.19-18.48-15.9-27.35s-12-17.35-18.56-25.62-13.45-16.33-20.71-24-14.72-14.8-22.56-21.68-16.41-13.53-25-19.71-17.4-11.86-26.46-17.2a313.94,313.94,0,0,0-58.66-26.6,346.61,346.61,0,0,0-63-14.92,332,332,0,0,0-46.19-3.17q-9.19,0-18.38.48Zm-23.07,12c9-.81,17.93-1.47,26.93-1.74s18.05-.12,27.06.35c9.25.49,18.47,1.44,27.66,2.64A346.12,346.12,0,0,1,443,51.45a322.46,322.46,0,0,1,40.87,14.07c6.51,2.78,13,5.65,19.32,8.75C510,77.61,516.76,81.22,523.39,85a319.22,319.22,0,0,1,36.42,24.19,363.91,363.91,0,0,1,31.48,27.41,325.72,325.72,0,0,1,28.81,32.27,365.72,365.72,0,0,1,24.67,36.5,334.73,334.73,0,0,1,19.58,38.79,338.36,338.36,0,0,1,23,84.34,321.85,321.85,0,0,1,2.56,40.34,307.33,307.33,0,0,1-2.78,41.09,352.92,352.92,0,0,1-8.67,43.26,326.17,326.17,0,0,1-14.08,41.22q-4.1,9.65-8.76,19c-3.32,6.69-6.93,13.24-10.74,19.67-3.56,6-7.35,11.89-11.28,17.66S625.35,562.35,621,568a343.13,343.13,0,0,1-26.73,30.37C589.66,603,585,607.6,580.14,612c-2.43,2.23-4.9,4.41-7.39,6.56s-5.21,4.48-7.91,6.6c-1.53,1.17-3.06,2.32-4.58,3.5A373.73,373.73,0,0,1,524,653.1a339.13,339.13,0,0,1-40.17,20.31c-6.55,2.74-13.16,5.27-19.88,7.56s-13.68,4.36-20.61,6.23A351.42,351.42,0,0,1,400.08,696a326.94,326.94,0,0,1-44,2.84,353.8,353.8,0,0,1-44.18-3.2,344.5,344.5,0,0,1-41.89-8.51,327,327,0,0,1-40.79-14,372,372,0,0,1-39.07-19.43,324.64,324.64,0,0,1-36.72-24.57,333.19,333.19,0,0,1-31.41-28c-5-5-9.8-10.32-14.46-15.69q-1.66-1.91-3.28-3.85c-1.33-1.57-2.6-3.19-4-4.74-1-1.1-1.93-2.22-2.89-3.33-1.22-1.43-2.36-2.95-3.51-4.44l.18.23q-6.51-8.45-12.5-17.26c-4-5.95-7.81-12.1-11.42-18.32a341.72,341.72,0,0,1-19.27-38.72l.31.73A343.83,343.83,0,0,1,37,454.58a339.06,339.06,0,0,1-9-44.2,320.78,320.78,0,0,1-2.76-42.06A333.8,333.8,0,0,1,70.8,200.69a331,331,0,0,1,23.74-35.13q6.14-7.89,12.71-15.41c4.76-5.44,9.74-10.69,14.86-15.79A335.15,335.15,0,0,1,153,107.14a407,407,0,0,1,44-29.19,420.92,420.92,0,0,1,47.72-23.77h0a401.27,401.27,0,0,1,48.52-9.61q12.93-1.71,25.91-2.9ZM153.32,106.89l-.28.22.28-.22Zm405.75,1.7.32.24-.32-.24ZM311,695.47l.56.07-.56-.07Z"/><path class="cls-1" d="M338.22,12.73c-10.82.59-21.59,1.78-32.3,3.38s-21.26,3.8-31.76,6.34a336.76,336.76,0,0,0-58.63,20.2A340.91,340.91,0,0,0,122,104.83q-4.1,3.79-8.08,7.7c-7.47,7.32-14.52,15-21.27,23-6.61,7.82-12.82,16-18.72,24.33-6.09,8.64-11.68,17.61-16.89,26.8a338.56,338.56,0,0,0-40.4,118.87A335.62,335.62,0,0,0,43.86,493.63a329.09,329.09,0,0,0,32.09,55.18c5.94,8.28,12.21,16.32,18.85,24s13.94,15.38,21.38,22.61a331,331,0,0,0,48.27,38.64,338.87,338.87,0,0,0,116.24,48.45,351.25,351.25,0,0,0,64.18,7.3,337.88,337.88,0,0,0,64.27-4.75c10.68-1.81,21.24-4.24,31.71-7s20.72-6.07,30.85-9.79a346.73,346.73,0,0,0,57-27.44c9.21-5.46,18.12-11.42,26.75-17.75a299.88,299.88,0,0,0,23.79-19.61c7.61-6.88,14.88-14.15,21.84-21.7,7.21-7.82,13.93-16.09,20.36-24.56A306.92,306.92,0,0,0,639,531.32q8.28-13.59,15.4-27.84Q661.54,489,667.52,474c4-10,7.41-20.22,10.51-30.54s5.63-20.7,7.76-31.21a312.32,312.32,0,0,0,4.66-32q1.56-16,1.7-32.13a310,310,0,0,0-1.48-32.41c-.49-5.14-1.11-10.26-1.78-15.38-.77-5.84-1.65-11.66-2.74-17.46-1-5.11-2.08-10.19-3.28-15.25-1.28-5.41-2.83-10.76-4.44-16.09a323.5,323.5,0,0,0-24.28-58.59Q646.69,179,638,165.7c-6-9.1-12.47-17.85-19.31-26.33-6.44-8-13.14-15.73-20.2-23.16s-14.76-14.76-22.6-21.63S559.57,81.13,551,75,533.7,63,524.66,57.7s-18.18-10.13-27.6-14.58c-4.86-2.29-9.79-4.43-14.75-6.52-5.17-2.18-10.39-4.24-15.69-6.09a331.33,331.33,0,0,0-62.86-15.15,327,327,0,0,0-45.91-3.17q-9.82,0-19.63.54ZM342.14,22a334.39,334.39,0,0,1,44.08,2.89,362.14,362.14,0,0,1,45.94,9.32A374.76,374.76,0,0,1,477.77,50a331.25,331.25,0,0,1,71.1,41.41A357.06,357.06,0,0,1,579.29,118c5,4.88,9.76,10,14.41,15.18,4.43,4.95,8.74,10,12.83,15.26A366.65,366.65,0,0,1,631,184.51a335,335,0,0,1,19.66,39.2,357.76,357.76,0,0,1,14.6,42.11q3.11,11.23,5.56,22.63c1.62,7.59,3.09,15.23,4.17,22.92a365.21,365.21,0,0,1,3,45.82q0,11.54-.81,23.05c-.56,7.75-1.46,15.47-2.47,23.16-.9,6.53-2,13-3.25,19.51-1.43,7.16-3.12,14.27-5,21.33-1.78,6.65-3.9,13.21-6.14,19.71-2.3,6.68-4.85,13.26-7.58,19.78q-4,9.26-8.52,18.23c-3.1,6.09-6.42,12.06-9.88,17.94a326.46,326.46,0,0,1-22.48,32.69,352.61,352.61,0,0,1-30.23,34,380.49,380.49,0,0,1-34.19,29.6,327.2,327.2,0,0,1-34.28,23.23,342.26,342.26,0,0,1-38.43,19.17,336.85,336.85,0,0,1-39.49,13.67,321.07,321.07,0,0,1-42.42,8.48,333.19,333.19,0,0,1-86.62.17A352.22,352.22,0,0,1,262.29,672a336.81,336.81,0,0,1-41.89-14.41,332.37,332.37,0,0,1-38.33-19.17,340.22,340.22,0,0,1-34.91-23.62,343.77,343.77,0,0,1-31.56-27.7,361.64,361.64,0,0,1-28.53-32.28A343.39,343.39,0,0,1,43.2,479.65l.19.44a338.6,338.6,0,0,1-23-84.59,344.77,344.77,0,0,1,.24-90.64,336,336,0,0,1,22.87-83.3h0a336.21,336.21,0,0,1,42.58-73.23,342.58,342.58,0,0,1,28.16-32q3.3-3.31,6.7-6.52,11-10.31,23-19.62A333.22,333.22,0,0,1,216.6,47.46a341.69,341.69,0,0,1,39.95-13.91c6.8-1.91,13.68-3.56,20.59-5s14-2.62,21-3.6a344.67,344.67,0,0,1,44-3ZM228.69,40.53l-.11,0h0l.11,0ZM41.16,224.27l0,.1v0l0-.07ZM20.41,395.79l0,.16,0-.16ZM87.36,555.22l.11.14-.11-.14ZM305.56,680.88l.59.08-.59-.08Z"/><path class="cls-1" d="M312.08,19.24c-10.61,1.45-21.16,3.43-31.6,5.8a294.6,294.6,0,0,0-31.33,9.08,326.46,326.46,0,0,0-57.79,26.52c-9,5.27-17.79,11-26.29,17.08-8.76,6.26-17.12,13.06-25.35,20-3.92,3.3-7.64,6.87-11.33,10.43-4,3.82-7.8,7.78-11.61,11.76q-10.83,11.35-20.5,23.74T78.14,169.16c-5.69,8.86-10.9,18-15.72,27.37s-9,18.74-12.95,28.38S42,244.44,39,254.45c-2.06,6.93-3.78,14-5.24,21a352.12,352.12,0,0,0-7.65,37.84c-1.52,10.39-2.42,20.81-3.09,31.29a301.15,301.15,0,0,0-.24,32.28,326.8,326.8,0,0,0,9.08,63.51c2.54,10.37,5.53,20.64,9,30.72s7.56,19.92,12,29.6A328.91,328.91,0,0,0,85.19,556a345,345,0,0,0,40.6,46.82,340.25,340.25,0,0,0,48.15,38.29,330.68,330.68,0,0,0,54.91,29.21,343.9,343.9,0,0,0,126.08,26.29,340.21,340.21,0,0,0,126.41-22.38,342.73,342.73,0,0,0,45.19-21.13A333.2,333.2,0,0,0,567.26,626l-.13.1a339.27,339.27,0,0,0,45.28-41.84,334.23,334.23,0,0,0,36.94-49.61A351.83,351.83,0,0,0,677,478.76a336.41,336.41,0,0,0,17.48-62.48q2.88-16,4.35-32.24c1-10.72,1.32-21.49,1.24-32.25s-1-21.47-2.07-32.15-2.75-21.28-4.82-31.81A317.38,317.38,0,0,0,685.42,257c-3.07-10.11-6.67-20.08-10.63-29.88s-8.4-19.49-13.25-28.93a315.58,315.58,0,0,0-16.05-27.51q-8.59-13.23-18.15-25.76c-3.11-4.1-6.47-8-9.85-11.88q-5.36-6.14-10.94-12.08A336.3,336.3,0,0,0,558.34,79a321.25,321.25,0,0,0-55-31.88c-10-4.5-20.13-8.57-30.44-12.18a321,321,0,0,0-31.12-9.07c-10.39-2.5-20.91-4.45-31.47-6Q394,17.42,377.47,16.55q-9.23-.49-18.48-.49a347.15,347.15,0,0,0-46.91,3.18Zm51.24,12a338.07,338.07,0,0,1,42.76,2.92,328.67,328.67,0,0,1,41.78,8.66,334.78,334.78,0,0,1,40.37,13.86,375.17,375.17,0,0,1,39.61,19.88,327.12,327.12,0,0,1,35.63,24,346.15,346.15,0,0,1,32.64,29q7.5,7.56,14.45,15.63c2.43,2.82,4.76,5.72,7.17,8.55s4.63,5.59,6.86,8.45c3.89,5.07,7.65,10.23,11.22,15.54,4,6,7.79,12.14,11.46,18.36a332,332,0,0,1,19.17,38.06,338.88,338.88,0,0,1,13.73,40.09A330.37,330.37,0,0,1,689,317.61a346.22,346.22,0,0,1,2.65,43.22,340.63,340.63,0,0,1-2.89,45,334.5,334.5,0,0,1-22.88,83.62,324,324,0,0,1-18.42,36.86A335.33,335.33,0,0,1,624,561.14a342.79,342.79,0,0,1-27.83,31.66,352.5,352.5,0,0,1-32.28,28.5A344,344,0,0,1,490,664.36a335.93,335.93,0,0,1-41,14.1A327,327,0,0,1,407,687a344.59,344.59,0,0,1-89.51,0,331.25,331.25,0,0,1-84.75-23.29,335.11,335.11,0,0,1-72.45-42.22,335.49,335.49,0,0,1-103.6-134,362.15,362.15,0,0,1-14.56-41.65c-2.14-7.57-3.85-15.26-5.43-23-1.5-7.29-2.72-14.64-3.74-22a355,355,0,0,1-3.06-44.67c0-3.86,0-7.72.06-11.58s.29-7.52.54-11.28c.49-7.61,1.28-15.19,2.27-22.75q1.39-10.07,3.31-20c.86-4.41,1.84-8.81,2.92-13.17,2-6.67,4.16-13.29,6.45-19.87,2.67-7.71,5.54-15.33,8.7-22.85a335.1,335.1,0,0,1,42.47-72.24,359.5,359.5,0,0,1,27.66-31.48c5.07-5.13,10.37-10,15.79-14.77,2.58-2.26,5.2-4.47,7.85-6.65,2.82-2.33,5.61-4.71,8.49-7a354.8,354.8,0,0,1,37.48-25.23,364.07,364.07,0,0,1,40.45-20.07A354.87,354.87,0,0,1,276,43q11.27-3.11,22.73-5.47C305.9,36.06,313.17,35,320.43,34a329.31,329.31,0,0,1,42.9-2.74ZM623.73,161.09l.48.62-.48-.62Zm42.38,72.27.17.41-.17-.41ZM624,561.21l-.25.32.25-.32ZM406.49,687.05l-.28,0,.28,0Z"/><path class="cls-1" d="M364.15,38.77c-10.48.47-20.92,1.49-31.31,2.9a333.69,333.69,0,0,0-63.13,15.11c-9.47,3.25-18.76,7-27.9,11.06-9.5,4.23-18.77,9-27.83,14.06-9.34,5.25-18.38,11-27.2,17.09q-12.33,8.52-23.87,18.15c-8.15,6.79-16,14-23.44,21.49S125,153.93,118.36,162.05a331.84,331.84,0,0,0-35,52,336.68,336.68,0,0,0-24.69,58A343.66,343.66,0,0,0,45.12,333.6a340.19,340.19,0,0,0-2,64.87,331.57,331.57,0,0,0,31.4,121C79,529,84,538.26,89.36,547.29c5.49,9.27,11.54,18.2,17.87,26.91a331.78,331.78,0,0,0,41,46.31c7.6,7.16,15.58,13.9,23.81,20.33s16.6,12.32,25.29,17.9,18,10.89,27.3,15.7c9.12,4.71,18.53,8.88,28.05,12.72a340.39,340.39,0,0,0,61.4,18.14c10.41,2,20.93,3.54,31.48,4.6,10.91,1.09,21.87,1.57,32.83,1.62a338.46,338.46,0,0,0,63.78-5.94c10.42-2,20.73-4.53,30.9-7.5s20.09-6.42,29.89-10.29a329.9,329.9,0,0,0,55.14-28.07c8.84-5.59,17.37-11.65,25.65-18q12-9.25,23.14-19.52c7.51-6.9,14.67-14.18,21.51-21.74s13.09-15.24,19.14-23.26c6.2-8.21,11.95-16.74,17.33-25.5s10.31-17.89,14.95-27.12a335.87,335.87,0,0,0,22.67-58.43c3-10.37,5.37-20.9,7.3-31.51S713,413.6,714,403a334.21,334.21,0,0,0-13.15-127.16c-3-10.07-6.57-20-10.53-29.71-1.83-4.49-3.77-8.94-5.79-13.36-2.3-5-4.77-10-7.34-14.88-5-9.46-10.41-18.67-16.2-27.65-5.56-8.62-11.57-16.92-17.9-25a324.43,324.43,0,0,0-43-44.77c-7.65-6.63-15.65-12.87-23.88-18.77-8.53-6.12-17.39-11.79-26.48-17.06-9.92-5.75-20.18-10.92-30.62-15.66a322.47,322.47,0,0,0-30.7-12.06,314.91,314.91,0,0,0-43.31-11.09l-3-.71c-5.4-1.24-10.87-2.24-16.34-3.12a290.06,290.06,0,0,0-30.7-3.23q-7.54-.41-15.1-.39c-5.28,0-10.55.13-15.82.37Zm-7.5,2.51c7.89-.49,15.79-.61,23.69-.54a400.87,400.87,0,0,1,49,3.59l-.23,0q8,1.08,16,2.42c6.66,1.47,13.27,3.17,19.84,5a362.77,362.77,0,0,1,41.56,14.61l-.2-.08q9.83,4.17,19.4,8.92c6.48,3.22,12.82,6.74,19.06,10.41a339.79,339.79,0,0,1,35.43,24q8.15,6.35,15.93,13.16c5.61,4.91,11,10,16.3,15.33s10.44,10.87,15.39,16.55q7.14,8.18,13.81,16.76a327.12,327.12,0,0,1,43.34,74l-.15-.35.21.5,0,.06,0,0q4.05,9.65,7.53,19.52c2.51,7.12,4.74,14.35,6.75,21.62,2,7,3.6,14.16,5.06,21.31,1.54,7.52,2.74,15.09,3.78,22.7q1.41,10.74,2.17,21.54c.51,7.33.75,14.68.78,22s-.22,14.82-.68,22.22-1.21,14.67-2.17,22l.05-.39a353.23,353.23,0,0,1-9,44.53,337,337,0,0,1-14.41,41.92q-4.14,9.79-8.86,19.31c-3.11,6.28-6.53,12.42-10.08,18.46a338.77,338.77,0,0,1-23.29,34.47l.11-.14-.21.27-.11.15.07-.1q-6.29,8.12-13,15.85c-4.84,5.55-9.9,10.92-15.1,16.14a334,334,0,0,1-32,28.26q-8.42,6.47-17.2,12.42c-6.2,4.2-12.56,8.15-19,11.94A335.7,335.7,0,0,1,507.29,681l.25-.11-.29.12-.27.11.25-.11q-9.74,4.07-19.7,7.55c-6.8,2.38-13.7,4.47-20.64,6.38a342.49,342.49,0,0,1-43.77,8.92q-10.66,1.42-21.39,2.19c-7.35.53-14.71.78-22.08.83a331.46,331.46,0,0,1-45.48-3q-10.78-1.45-21.44-3.56c-7.16-1.41-14.28-3.1-21.33-5A329,329,0,0,1,249.23,681a351.79,351.79,0,0,1-37.86-18.81,332.06,332.06,0,0,1-36.7-24.53,340.23,340.23,0,0,1-32.55-28.79,349.56,349.56,0,0,1-28.6-32.7q-3.09-4-6.05-8.12c-2-2.81-4-5.66-5.93-8.53-4.06-6-7.9-12.2-11.57-18.47s-7-12.45-10.2-18.83S73.63,509.51,70.88,503a347.85,347.85,0,0,1-14.42-41.81c-2-7.1-3.64-14.27-5.13-21.49s-2.71-14.7-3.73-22.1q-1.44-10.83-2.21-21.72c-.52-7.35-.76-14.72-.78-22.08a337.3,337.3,0,0,1,3-45.3l0,.13q1.47-10.79,3.61-21.46c1.44-7.14,3.16-14.22,5.06-21.25a332.11,332.11,0,0,1,14.61-42.23l0,.09q4-9.49,8.64-18.72c3.2-6.43,6.64-12.75,10.24-19A334.63,334.63,0,0,1,114,170l-.12.16q6.6-8.51,13.71-16.61c4.72-5.38,9.64-10.59,14.7-15.66a345.85,345.85,0,0,1,32.93-28.91l0,0,0,0h0l0,0A327.42,327.42,0,0,1,248,66.55h0l.11,0,0,0h0q9.65-4,19.52-7.46c7-2.44,14.07-4.6,21.21-6.57A334.66,334.66,0,0,1,332,43.68q12.3-1.64,24.68-2.4Zm223.21,68.06.32.25-.32-.25Zm-532.28,308,0,.13,0-.13ZM70.9,503l0,0,0,0ZM507.24,681h0l0,0-.05,0Zm135.28-104.1,0-.05.1-.13-.14.18Zm65.71-158.35,0-.14,0,.14ZM47.56,328.74v0ZM685,245.55h0l-.06-.15.07.16ZM70.78,243.88l0-.1,0,.1ZM175.2,108.94h0Zm72.88-42.42-.08,0,.1,0Zm258.52-.12-.11,0,.11,0Z"/><path class="cls-1" d="M404.5,21.34a342.4,342.4,0,0,0-64,6.18c-10.44,2-20.78,4.55-31,7.54s-20.27,6.5-30.12,10.48c-9.31,3.76-18.42,8-27.35,12.56q-4.26,2.19-8.45,4.51a343.42,343.42,0,0,0-46,29.87c-8,6.13-15.67,12.69-23.1,19.51-7.8,7.17-15.21,14.74-22.29,22.61a336,336,0,0,0-36.79,49.61,332.46,332.46,0,0,0-27.54,57,336.6,336.6,0,0,0-16.49,62.21,343.06,343.06,0,0,0-4.58,63.12q.3,16.12,2.12,32.15c1.19,10.43,2.9,20.79,5.08,31.07,2.25,10.62,5.08,21.12,8.33,31.48,3.14,10,6.78,19.81,10.87,29.44s8.65,19.14,13.63,28.38,10.35,18.07,16.1,26.74c5.58,8.42,11.59,16.54,17.87,24.45,3.1,3.91,6.36,7.71,9.66,11.46,3.54,4,7.21,8,10.94,11.82a339.74,339.74,0,0,0,46.28,39.72,328.58,328.58,0,0,0,54.35,31.5A342,342,0,0,0,383.82,695c11,.68,22.12.74,33.18.32,10.74-.4,21.46-1.35,32.11-2.79s21.48-3.41,32.09-5.86c10.45-2.41,20.76-5.39,30.92-8.8,9.91-3.33,19.63-7.26,29.17-11.52s19-9.11,28.22-14.29a338.7,338.7,0,0,0,51.55-36,331.22,331.22,0,0,0,43.86-44.87q9.67-11.92,18.27-24.64C689,538,694.41,529,699.4,519.91a334.77,334.77,0,0,0,24.49-57.06c3.28-10.09,6-20.35,8.37-30.69s4.15-21,5.54-31.56c1.43-10.94,2.27-22,2.63-33a322.48,322.48,0,0,0-.67-32.7c-.73-10.61-2.05-21.17-3.73-31.67s-4-21.12-6.66-31.51a325.87,325.87,0,0,0-21.82-59.1c-2.21-4.59-4.56-9.13-7-13.61-2.63-4.87-5.42-9.65-8.26-14.4-5.33-8.94-11.14-17.6-17.28-26s-12.56-16.34-19.38-24.08-14.3-15.39-22-22.57S618.2,98.2,610,91.81,593.7,79.63,585.14,74.09c-8.8-5.7-17.92-10.88-27.24-15.67-9.17-4.72-18.59-8.92-28.16-12.76-9.81-3.94-19.83-7.38-30-10.41-10.28-3.08-20.73-5.61-31.26-7.7-10.32-2-20.74-3.55-31.2-4.64a314.51,314.51,0,0,0-32.72-1.56Zm-26.3,5.35c7.87-.54,15.77-.74,23.65-.71,7.49,0,15,.34,22.45.87s15.14,1.31,22.66,2.3q10.78,1.48,21.45,3.61c7.16,1.43,14.26,3.13,21.31,5s14,4.06,21,6.41,13.92,5.09,20.75,8a347.31,347.31,0,0,1,75.28,44l-.32-.25c2.56,2,5.1,4,7.59,6.06,2.86,2.36,5.66,4.78,8.44,7.24,5.29,4.68,10.41,9.55,15.39,14.55A352.51,352.51,0,0,1,666.92,157l-.43-.56a328.38,328.38,0,0,1,23.11,34.18,332,332,0,0,1,18.63,37.22C711,234.37,713.6,241,716,247.72c2.55,7.18,4.8,14.46,6.86,21.8A325.59,325.59,0,0,1,732,313.41a346.87,346.87,0,0,1-.11,91.07c0-.24.06-.48.1-.72a329.46,329.46,0,0,1-23.17,84.53A343.5,343.5,0,0,1,689.93,526a333,333,0,0,1-24.34,36.17,340.28,340.28,0,0,1-60,59.54,349.22,349.22,0,0,1-35.49,23.92A327.61,327.61,0,0,1,532,664.76,353.65,353.65,0,0,1,491,679a332.34,332.34,0,0,1-44,9.07q-11,1.46-22.07,2.23c-7.53.52-15.09.73-22.63.74a339.81,339.81,0,0,1-44.55-3l.59.08q-10.88-1.47-21.64-3.61c-7.46-1.48-14.86-3.26-22.21-5.25a328.1,328.1,0,0,1-41.12-14.21A349.28,349.28,0,0,1,235,645.86a332.61,332.61,0,0,1-35.79-24.05l.07.05a336.86,336.86,0,0,1-32.32-28.62,356.37,356.37,0,0,1-29-33.25q-6.42-8.42-12.34-17.2c-4-5.87-7.68-11.88-11.24-18a336.38,336.38,0,0,1-19-38.05l.08.19a337.34,337.34,0,0,1-14.35-41.65,341.5,341.5,0,0,1-8.69-43.2l.06.41a342.71,342.71,0,0,1-3.05-43.72,332,332,0,0,1,2.91-44.88q1.46-10.67,3.56-21.24c1.43-7.16,3.14-14.26,5-21.3a338.62,338.62,0,0,1,14.68-42.75l0,0q4.25-10,9.12-19.81c3.23-6.48,6.7-12.84,10.34-19.1a326.35,326.35,0,0,1,23.7-35.22A347.06,347.06,0,0,1,167,122.43a340.92,340.92,0,0,1,33-28.95l-.23.18q8.15-6.26,16.65-12c6-4.05,12.09-7.88,18.31-11.53q4.39-2.57,8.86-5,13-6.91,26.63-12.66l-.33.14A351.75,351.75,0,0,1,311.7,38a335.45,335.45,0,0,1,45-9.19q10.71-1.39,21.48-2.14ZM138.66,154.63l-.08.1.08-.1Zm569.59,73.2.16.38-.16-.38ZM71.63,313.88l0,.12,0-.12Zm.71,0,0,.15,0-.15Zm636.6,174-.15.34.15-.34Zm-.16.37-.11.26.11-.26Zm-42.83,73.41-.17.21.17-.21Zm-467.1,59.83.26.2-.26-.2ZM447,688.05l-.5.07.5-.07Z"/><path class="cls-1" d="M379.91,25.76c-4.83,0-9.66.21-14.48.46s-9.48.54-14.21.94c-8.54.72-17.05,1.8-25.52,3.17l-4,.48c-5.23.66-10.42,1.59-15.58,2.65S295.92,35.69,290.84,37c-5.51,1.43-11,3.07-16.36,4.84-9.77,3.2-19.33,7-28.75,11.13-9.62,4.2-19,8.88-28.23,13.93s-18,10.5-26.58,16.34c-4.09,2.78-8.11,5.66-12.07,8.62-3.8,2.82-7.5,5.76-11.22,8.69-2,1.54-3.85,3.17-5.74,4.77s-3.76,3.23-5.61,4.87c-4.08,3.61-8.05,7.34-11.95,11.15-7.64,7.46-14.88,15.33-21.79,23.47C116,152.58,109.76,160.69,103.9,169c-6,8.55-11.55,17.44-16.71,26.53s-9.78,18.33-14,27.8-8,19.31-11.41,29.2A343.44,343.44,0,0,0,47,315.17q-2.18,15.44-2.9,31c-.51,10.74-.44,21.49.07,32.23a332.8,332.8,0,0,0,9.13,62.72,338.53,338.53,0,0,0,20.39,58.91A331.7,331.7,0,0,0,105.1,555c6,8.44,12.34,16.57,19,24.44s13.84,15.55,21.26,22.85S160.55,616.45,168.6,623c7.81,6.37,15.93,12.33,24.3,18,8.62,5.79,17.54,11.12,26.67,16.08s18.5,9.51,28.05,13.63a330.54,330.54,0,0,0,59.08,19.05c10.32,2.3,20.76,4,31.25,5.37,10.84,1.38,21.75,2.22,32.68,2.58a337.18,337.18,0,0,0,64.53-4.21c5-.81,10.06-1.8,15.06-2.86,5.43-1.15,10.83-2.47,16.2-3.89,10.28-2.72,20.41-6,30.39-9.65a332.82,332.82,0,0,0,56.07-26.94c4.34-2.6,8.6-5.32,12.81-8.11,4.52-3,8.92-6.17,13.27-9.42,3.78-2.83,7.49-5.75,11.15-8.73,4.22-3.43,8.39-6.93,12.47-10.52A333,333,0,0,0,645.13,568q9.33-12,17.61-24.72c5.7-8.79,10.94-17.88,15.8-27.16s9.13-18.6,13.08-28.18c1.94-4.72,3.82-9.47,5.58-14.26,1.91-5.18,3.66-10.41,5.31-15.67a323,323,0,0,0,8-31.52q1.58-7.68,2.74-15.45c.8-5.37,1.45-10.77,2-16.18a336.38,336.38,0,0,0,.08-65.82c-1-10.52-2.57-21-4.55-31.38-2-10.53-4.59-20.95-7.63-31.23-1.44-4.87-3-9.69-4.67-14.48-1.8-5.21-3.78-10.36-5.82-15.48-3.78-9.49-8-18.79-12.65-27.9-4.74-9.34-10-18.45-15.52-27.33s-11.7-17.63-18.14-26q-4.51-5.88-9.3-11.55c-3.57-4.24-7.28-8.37-11-12.46-7.08-7.72-14.57-15.06-22.35-22.08S587.9,95.65,579.57,89.45C571,83.09,562.12,77.22,553,71.74A297.91,297.91,0,0,0,525,57.09c-9.29-4.32-18.8-8.18-28.44-11.66A337.74,337.74,0,0,0,435,29.73a333.42,333.42,0,0,0-52.07-4ZM355.08,28q5.17-.38,10.35-.56c3.95-.13,7.9-.17,11.85-.16a337.47,337.47,0,0,1,43.15,3c7.16,1,14.28,2.14,21.38,3.53,7.58,1.49,15.09,3.28,22.55,5.28A334.4,334.4,0,0,1,507,53.84q9.68,4.13,19.09,8.84c3.37,1.68,6.71,3.45,10,5.25s6.6,3.72,9.89,5.6a339.59,339.59,0,0,1,37.6,25.17A351.18,351.18,0,0,1,615,126.18q7.68,7.58,14.81,15.69c4.81,5.45,9.41,11.09,13.88,16.82s8.5,11.38,12.5,17.25,7.76,11.87,11.36,18,7,12.49,10.22,18.89,6.05,12.65,8.79,19.1l-.07-.18.14.32.07.15,0-.1a336.42,336.42,0,0,1,22.78,84.62l-.08-.6q1.45,11,2.21,22.16c.51,7.49.73,15,.75,22.51a337.83,337.83,0,0,1-2.86,43.92q-1.48,11-3.52,21.85c-1.46,7.73-3.25,15.39-5.25,23q-2.92,11.08-6.54,22c-1.21,3.62-2.5,7.22-3.83,10.8s-2.71,7-4.16,10.42a338.93,338.93,0,0,1-18.72,37.46A322.11,322.11,0,0,1,644,565.12q-6.08,7.81-12.59,15.27c-4.65,5.34-9.51,10.5-14.49,15.53-4.69,4.74-9.55,9.31-14.51,13.76q-7.87,7.07-16.21,13.56-8.82,6.78-18,13c-3.15,2.13-6.32,4.24-9.52,6.29s-6.42,4-9.67,5.93a336.05,336.05,0,0,1-40.19,20.19q-9.92,4.14-20.07,7.67c-6.84,2.38-13.77,4.48-20.76,6.4A343.65,343.65,0,0,1,424,691.59l.24,0-.32,0-.14,0h.09Q413,693,402.11,693.81c-7.42.52-14.86.75-22.29.79s-14.9-.22-22.34-.68-14.78-1.22-22.13-2.2l.4.06q-11-1.5-21.86-3.68c-7.55-1.51-15-3.32-22.47-5.33A339.93,339.93,0,0,1,249,668.13q-9.74-4.13-19.2-8.83c-6.33-3.14-12.53-6.53-18.64-10.08a339.38,339.38,0,0,1-36.13-24.42l.18.14q-7.82-6.08-15.29-12.58c-5.32-4.63-10.47-9.46-15.48-14.41A329.54,329.54,0,0,1,116,565.85l.13.17-.15-.2,0,0,0,0a352.72,352.72,0,0,1-24-35.48,331.49,331.49,0,0,1-19.83-39.41q-4.15-9.9-7.68-20c-2.35-6.78-4.45-13.66-6.35-20.59a336.42,336.42,0,0,1-8.85-43.49q-1.45-10.9-2.25-21.86c-.56-7.75-.79-15.52-.81-23.29a341,341,0,0,1,3-44.88c0,.11,0,.21,0,.32q1.48-11,3.64-21.79c1.43-7.15,3.14-14.24,5-21.29a334.88,334.88,0,0,1,14.74-42.52l-.14.33q4.2-9.85,8.95-19.45c3.15-6.34,6.53-12.56,10.08-18.68a336.89,336.89,0,0,1,24.3-36.18q6.58-8.49,13.65-16.57c4.8-5.47,9.82-10.74,15-15.88s10.29-9.88,15.65-14.59c2.8-2.46,5.65-4.86,8.53-7.23l3.09-2.55c1.59-1.31,3.23-2.55,4.85-3.81l-.1.08q8.25-6.33,16.85-12.16c5.85-4,11.85-7.71,17.93-11.31s12.46-7,18.84-10.26,12.8-6.14,19.34-8.91l-.32.14A382.88,382.88,0,0,1,291.6,39.76c3.79-1.08,7.59-2.1,11.41-3.08s7.58-1.83,11.37-2.69,7.81-1.75,11.72-2.57q4.29-.69,8.59-1.28h0q10.18-1.34,20.42-2.1ZM247.66,53.91h0Zm336.24,45,.24.18-.24-.18ZM116,157.27l-.09.11.09-.11ZM644,565.12l-.1.13.1-.13ZM248.73,668l.22.09-.22-.09ZM423.9,691.6H424l-.13,0ZM175.32,625l-.09-.07.09.07ZM116,565.82l0,0,0,0ZM686.66,232.1l0,0-.06-.15.08.2Zm-510.4-135,.16-.12-.16.12Z"/><path class="cls-1" d="M675.25,158.41a121.34,121.34,0,0,0-22,5c-3.34,1.1-6.61,2.4-9.84,3.79s-6.23,2.88-9.25,4.52a120.78,120.78,0,0,0-17.49,11.63q-4.36,3.46-8.44,7.26c-2.59,2.42-5,5-7.39,7.64a119.34,119.34,0,0,0-12,16.21q-2.64,4.26-4.89,8.75a123.94,123.94,0,0,0-5.37,11.94,120.5,120.5,0,0,0-8,44.47A119.71,119.71,0,0,0,590,343.76c2,3.13,4.26,6.16,6.56,9.1a107.76,107.76,0,0,0,7.36,8.39,119.15,119.15,0,0,0,35.63,25.51,121.44,121.44,0,0,0,43.18,10.9,119.58,119.58,0,0,0,44.68-5.7,122.14,122.14,0,0,0,38.34-21,121.14,121.14,0,0,0,28.16-32.77,120.75,120.75,0,0,0,9.29-20q1.91-5.27,3.35-10.7c1-3.63,1.72-7.3,2.35-11a120.48,120.48,0,0,0,1.67-23,123,123,0,0,0-2.81-23.07,112.8,112.8,0,0,0-7.07-21.41,120.76,120.76,0,0,0-41.46-50.29,114.64,114.64,0,0,0-18.61-10.52,121.46,121.46,0,0,0-43.14-10.66q-3.35-.21-6.71-.2a120.8,120.8,0,0,0-15.54,1Zm29.33,4.81a119.5,119.5,0,0,1,29.62,8,117,117,0,0,1,47.2,36.46,115.39,115.39,0,0,1,14.81,25.49l-.29-.7.64,1.51-.29-.69a122.91,122.91,0,0,1,8.34,30.45,121.4,121.4,0,0,1,0,31.39,119.27,119.27,0,0,1-2.93,14.34,112,112,0,0,1-4.88,14.21,119.74,119.74,0,0,1-15.11,25.85,117.34,117.34,0,0,1-9.46,10.75,122.2,122.2,0,0,1-11.63,10.21,114.59,114.59,0,0,1-25.44,14.83,117.31,117.31,0,0,1-116.65-15.09A121.26,121.26,0,0,1,607,360.11a126.14,126.14,0,0,1-10.18-11.66,116.36,116.36,0,0,1-14.58-25A118.59,118.59,0,0,1,574,293.17l0,.34a123.83,123.83,0,0,1-1.06-15.8,118,118,0,0,1,1.1-15.93l0,.32a120.08,120.08,0,0,1,8.18-30q1.59-3.74,3.43-7.37a118.88,118.88,0,0,1,11.21-17.58,121.11,121.11,0,0,1,9-10.32,113.71,113.71,0,0,1,11.36-10.22,119.92,119.92,0,0,1,26-15.19l-.22.09a117.34,117.34,0,0,1,61.56-8.35Zm-31.22,0-.32,0,.32,0Zm60.86,8,.46.19-.46-.19ZM582.07,323.13l.06.15-.06-.15Zm-.63,1.83h0ZM618.17,370l.13.1-.13-.1Zm142.57.34-.17.13.17-.13Z"/><path class="cls-1" d="M675.63,153.76c-3.72.66-7.4,1.53-11,2.54a107.4,107.4,0,0,0-10.74,3.61,121.57,121.57,0,0,0-19.08,9.63,130.44,130.44,0,0,0-17.61,13.26,113.71,113.71,0,0,0-14.4,15.45q-3.08,4-5.82,8.18-3.2,4.83-5.94,9.95a120.44,120.44,0,0,0-13.39,43.09,117.23,117.23,0,0,0-.41,23.1,120.36,120.36,0,0,0,12,43.62A117.59,117.59,0,0,0,600.84,345a122.75,122.75,0,0,0,14.71,16.36c2.69,2.5,5.5,4.87,8.41,7.11s6,4.42,9.16,6.45a119.29,119.29,0,0,0,20.28,10.41,120.54,120.54,0,0,0,21.79,6.42A117.13,117.13,0,0,0,687,393.39c3.89.35,7.81.49,11.72.46a122.54,122.54,0,0,0,23.33-2.53,117.1,117.1,0,0,0,21.55-6.65,121,121,0,0,0,50.67-39.6,117.15,117.15,0,0,0,11-17.94,120.27,120.27,0,0,0,12.07-41.64,119.15,119.15,0,0,0,.19-22.79,118.72,118.72,0,0,0-11.78-42.43,127.69,127.69,0,0,0-11.37-18.75,120.14,120.14,0,0,0-32-30.26,121.78,121.78,0,0,0-19.36-10.12,118.81,118.81,0,0,0-21.39-6.62,124.79,124.79,0,0,0-23.18-2.67l-2.11,0a118.29,118.29,0,0,0-20.76,1.95Zm21.49,3.9a113.85,113.85,0,0,1,82,33.66,127.25,127.25,0,0,1,10.34,11.81c1.42,1.86,2.8,3.75,4.09,5.7s2.65,4.18,3.88,6.32a116.33,116.33,0,0,1,6.13,12.36,116,116,0,0,1-15,115.91,116.45,116.45,0,0,1-20.23,20.33,131.44,131.44,0,0,1-12.62,8.58,116.84,116.84,0,0,1-13.71,7,119.35,119.35,0,0,1-29.51,8.07,121.26,121.26,0,0,1-31.08,0,130.88,130.88,0,0,1-15.55-3.1,115.87,115.87,0,0,1-14.71-5,123.41,123.41,0,0,1-13.07-6.49,111.55,111.55,0,0,1-12.5-8.4,118.07,118.07,0,0,1-20.36-20.47l.33.43A114.92,114.92,0,0,1,585.28,304a117.31,117.31,0,0,1-3.14-15.31,121.87,121.87,0,0,1,0-31.49,120,120,0,0,1,8.18-29.93,118.6,118.6,0,0,1,10.24-18.93q1.86-2.73,3.87-5.36a120.84,120.84,0,0,1,9.25-10.57,117.28,117.28,0,0,1,11.42-10.28,119.73,119.73,0,0,1,25.67-15,130.21,130.21,0,0,1,14.49-5.08,117.86,117.86,0,0,1,16-3.35,133.19,133.19,0,0,1,15.88-1Zm-15.48,1-.22,0,.22,0Zm31.67,0,.37,0-.37,0Zm29,7.86.46.2-.46-.2Zm69.36,90.59.05.37-.05-.37Zm.08,30.35,0,.2,0-.2ZM589,320.29l0,0,0,0Zm179.83,43.07-.35.27.35-.27Zm-143,1.18.11.09-.11-.09Z"/><path class="cls-1" d="M685.48,149.68a108.52,108.52,0,0,0-13,1c-3.84.53-7.66,1.28-11.43,2.18a123.29,123.29,0,0,0-22.79,8,114.43,114.43,0,0,0-19.63,11.72,133.45,133.45,0,0,0-17.94,15.74,110.66,110.66,0,0,0-7.38,8.79q-3.29,4.28-6.18,8.85a122.27,122.27,0,0,0-9.87,19.33,112.87,112.87,0,0,0-6.21,20.6q-.37,1.84-.68,3.7a121.72,121.72,0,0,0-1.48,34.87,125.78,125.78,0,0,0,4.73,23.72,122.16,122.16,0,0,0,9.15,22c1.83,3.43,3.86,6.77,6,10,1.06,1.58,2.16,3.15,3.27,4.7,1.28,1.8,2.6,3.57,4,5.27a122.62,122.62,0,0,0,16.58,16.46,124.56,124.56,0,0,0,19.55,13.2,119.37,119.37,0,0,0,22.16,9.27,124.15,124.15,0,0,0,24.27,4.74,123.45,123.45,0,0,0,48.61-5.2,123.42,123.42,0,0,0,21.45-9.32c3.4-1.88,6.67-4,9.89-6.13a117.11,117.11,0,0,0,25.75-23.57,121.48,121.48,0,0,0,12.69-19,124.51,124.51,0,0,0,8.82-20.78c1.11-3.45,2.05-7,2.84-10.5.87-3.9,1.5-7.85,2-11.81a119.15,119.15,0,0,0,.57-23.54,121.58,121.58,0,0,0-12.31-45.28,118.2,118.2,0,0,0-11.69-19,127.46,127.46,0,0,0-15.25-17,123.15,123.15,0,0,0-17.59-13.52,125.08,125.08,0,0,0-21.12-10.7,126.81,126.81,0,0,0-22.82-6.69,121.4,121.4,0,0,0-22.89-2.16l-2.1,0Zm-4.94,9.1c3-.25,5.93-.38,8.89-.41a114.55,114.55,0,0,1,31.11,3.9,107.13,107.13,0,0,1,13.57,4.62,120.94,120.94,0,0,1,13.39,6.73A112.63,112.63,0,0,1,759,181.33a118.45,118.45,0,0,1,20.42,20.32A113.42,113.42,0,0,1,802.22,256a120.47,120.47,0,0,1,0,30.59,122.06,122.06,0,0,1-8.07,29.78,120.19,120.19,0,0,1-14.9,25.44,121.54,121.54,0,0,1-9.86,11.11,129.16,129.16,0,0,1-11.58,10.16,114.87,114.87,0,0,1-24.42,14.2,122.81,122.81,0,0,1-29.81,8.16,119.71,119.71,0,0,1-30.32,0,116.6,116.6,0,0,1-42.82-14.66,112.72,112.72,0,0,1-12.17-8.16,115.08,115.08,0,0,1-11.65-10.42c-1.85-1.91-3.63-3.88-5.35-5.9s-3.48-4.14-5.15-6.26c-1.38-1.82-2.66-3.73-3.91-5.64s-2.48-4-3.64-6a112.62,112.62,0,0,1-13.79-40.46,121.18,121.18,0,0,1,0-31.19q.37-2.62.84-5.23a124.69,124.69,0,0,1,7-22.82,119.09,119.09,0,0,1,14.94-25.54,134.49,134.49,0,0,1,9-10.22,109.23,109.23,0,0,1,11.28-10.24,119.48,119.48,0,0,1,26-15.12,119.31,119.31,0,0,1,29.19-8c2.49-.33,5-.63,7.49-.85Zm78.59,22.66.4.3-.4-.3ZM582.88,228.18l-.2.48.2-.48ZM574.81,288l0,.37,0-.37Zm7.62,27.86.08.18-.08-.18Z"/><path class="cls-1" d="M677.45,167.47c-2.25.45-4.48,1-6.7,1.56,0,0,0,0,0,0q5.38-1.24,10.85-2h0a120.46,120.46,0,0,1,31.44,0,122.62,122.62,0,0,1,30.67,8.36,125.12,125.12,0,0,1,13.52,6.72,116.6,116.6,0,0,1,13,8.76l-.29-.22a123.74,123.74,0,0,1,20,19.5c1.64,2.13,3.19,4.33,4.72,6.53s3,4.57,4.45,6.93a117.36,117.36,0,0,1,7.2,14.25,124,124,0,0,1,5,14.34,119.28,119.28,0,0,1,3.19,15.52l0-.35,0,.36,0,.16,0-.15a121.91,121.91,0,0,1,1,15.7,119.85,119.85,0,0,1-1,15.44,121.9,121.9,0,0,1-8.34,30.53A119.34,119.34,0,0,1,791,355.28a121,121,0,0,1-9.48,10.77A119.53,119.53,0,0,1,770,376.26a120.91,120.91,0,0,1-26.32,15.32,119.36,119.36,0,0,1-29.63,8l.28,0a119.49,119.49,0,0,1-31,0,118.18,118.18,0,0,1-29.56-8l.28.12a116.36,116.36,0,0,1-47.14-36.13l0,0,0,0-.15-.19.1.13a123.33,123.33,0,0,1-8.35-12.38,115.63,115.63,0,0,1-6.72-13.38,118.71,118.71,0,0,1-8.09-29.65,122.77,122.77,0,0,1-1-15.54,114.6,114.6,0,0,1,1-15.5,119.37,119.37,0,0,1,3.15-15.24A125.93,125.93,0,0,1,592,239a130.79,130.79,0,0,1,16.66-28.58l-.15.19a136.64,136.64,0,0,1,10.78-12.32,127.26,127.26,0,0,1,12.48-11q3.53-2.71,7.23-5.19s0,0,0,0a115.51,115.51,0,0,0-18.28,12.09,107.42,107.42,0,0,0-15.46,15.29,109.38,109.38,0,0,0-12.16,18.16,111.2,111.2,0,0,0-8.48,20.83,123,123,0,0,0-4.5,45.39,120.4,120.4,0,0,0,55.79,91.08,119,119,0,0,0,19.7,9.92,121.76,121.76,0,0,0,44.51,8.46,119.83,119.83,0,0,0,44.31-8.47,118.39,118.39,0,0,0,19.44-9.91,121.94,121.94,0,0,0,17.3-13.31,119,119,0,0,0,33.47-53.72,121.68,121.68,0,0,0,4.3-22,119.5,119.5,0,0,0-4-45.08,117.53,117.53,0,0,0-8-20.3c-1.6-3.19-3.36-6.31-5.24-9.34a102.81,102.81,0,0,0-6.19-8.94c-1.09-1.39-2.21-2.76-3.36-4.11s-2.46-2.94-3.74-4.37c-2.42-2.71-5-5.29-7.65-7.77a117,117,0,0,0-58.27-29,117.53,117.53,0,0,0-21.13-1.9,121.09,121.09,0,0,0-23.88,2.39Zm66.27,8,.16.07-.16-.07Zm-111.9,11.78,0,0,0,0ZM814.44,299.3l0,.15,0-.15ZM591.76,329.74l.11.25-.11-.25ZM791.25,355l-.19.25.19-.25Zm-.21.27-.09.12.09-.12Zm-184.17.24v0l-.06-.08,0,.06Zm207.6-87.71h0v0Z"/><path class="cls-1" d="M657.49,153.22a122.82,122.82,0,0,0-32.36,11.34,130.8,130.8,0,0,0-28.4,19.68,105.48,105.48,0,0,0-11,11.64,131.27,131.27,0,0,0-9.66,13.47A118,118,0,0,0,563,238.77a112.25,112.25,0,0,0-4.24,24.81q-.22,3.74-.14,7.48a126.87,126.87,0,0,0,1.52,26.07,120.56,120.56,0,0,0,10.37,32.73,123.69,123.69,0,0,0,108.65,70,120.7,120.7,0,0,0,51.41-10,133.51,133.51,0,0,0,14.63-7.32c2.26-1.32,4.47-2.73,6.64-4.2,1.1-.74,2.17-1.51,3.24-2.29,1.22-.89,2.49-1.68,3.75-2.52a43.42,43.42,0,0,0,3.81-3.1c1-.87,2-1.76,3-2.65,2.11-1.92,4.14-3.94,6.1-6a125.63,125.63,0,0,0,31.47-59.36,123.91,123.91,0,0,0,2.6-35.78,134.89,134.89,0,0,0-7.08-35A115.23,115.23,0,0,0,791.43,215a118.15,118.15,0,0,0-8.92-13.9c-.8-1.09-1.53-2.23-2.31-3.34-1-1.48-2.26-2.86-3.43-4.24-1.84-2.16-3.78-4.24-5.77-6.26a126.31,126.31,0,0,0-13.4-11.64,109.12,109.12,0,0,0-29.76-16.43,129.41,129.41,0,0,0-34.33-7.88q-5.57-.54-11.16-.54a132.61,132.61,0,0,0-24.88,2.44Zm37.25,13.6a123.68,123.68,0,0,1,14.39,3,110.78,110.78,0,0,1,13.29,4.55,127.91,127.91,0,0,1,25.89,15.11,125.23,125.23,0,0,1,10.86,9.67c1.85,1.85,3.63,3.78,5.35,5.75.87,1,1.72,2,2.56,3s1.58,1.71,2.34,2.61a123.69,123.69,0,0,1,7.92,12,137.51,137.51,0,0,1,7.19,14.2,111.39,111.39,0,0,1,7.25,25.79,123,123,0,0,1-.06,30.28,120,120,0,0,1-7.77,28.35,118.41,118.41,0,0,1-14.17,24.25,119.71,119.71,0,0,1-9.85,11.05c-1.88,1.87-3.85,3.66-5.85,5.4-1,.87-2.07,1.68-3,2.6s-1.65,1.58-2.54,2.31a115.62,115.62,0,0,1-23.76,14,113.93,113.93,0,0,1-59.26,7.89,119.16,119.16,0,0,1-28.72-7.82,121.11,121.11,0,0,1-25.14-14.67,118.4,118.4,0,0,1-10.77-9.51,124.87,124.87,0,0,1-10-11.43,116.28,116.28,0,0,1-14.23-24.45,112.88,112.88,0,0,1-8.79-50.28q.12-1,.25-2a134.79,134.79,0,0,1,8.61-32.31,136.59,136.59,0,0,1,6.58-13.36,116.9,116.9,0,0,1,8.46-12.78,128.44,128.44,0,0,1,21.43-21.42,125.08,125.08,0,0,1,11.47-7.71,107.07,107.07,0,0,1,12.21-6.16,121.78,121.78,0,0,1,28.63-7.8,120.44,120.44,0,0,1,29.31,0Z"/><path class="cls-1" d="M259.3,575.08a105.88,105.88,0,0,0-16,2.9,115.93,115.93,0,0,0-28.23,11.53,118.75,118.75,0,0,0-12.39,8.14,26.11,26.11,0,0,0-3.17,2.55c-.78.8-1.53,1.62-2.29,2.43a15.9,15.9,0,0,1-1.34,1.11l-1.32,1.13c-1,.88-2,1.78-3,2.69a122.1,122.1,0,0,0-18.4,21.67,114.89,114.89,0,0,0-18.6,62.65,124.9,124.9,0,0,0,2.1,29.29,123.42,123.42,0,0,0,9.65,29.31A115.07,115.07,0,0,0,182.73,776a120.75,120.75,0,0,0,22.38,20.52,119.46,119.46,0,0,0,26.72,14,123.8,123.8,0,0,0,30.25,7.1A121.91,121.91,0,0,0,384.8,749.11,123.14,123.14,0,0,0,396.46,690a120.7,120.7,0,0,0-18.21-57.72A120.05,120.05,0,0,0,369,619.67a125,125,0,0,0-10.24-11.07,121.67,121.67,0,0,0-24.13-17.87,125.6,125.6,0,0,0-28.4-11.63A132.47,132.47,0,0,0,291.14,576a128,128,0,0,0-16-1.45q-1.71,0-3.43,0-6.21,0-12.39.61ZM277,583.19a118.67,118.67,0,0,1,14.91,1,115.49,115.49,0,0,1,27,7.5,119.79,119.79,0,0,1,25.32,14.78,117.78,117.78,0,0,1,20,19.92,124.87,124.87,0,0,1,15.48,26.4,115.07,115.07,0,0,1-15,114.9,122.43,122.43,0,0,1-9.43,10.7,120.55,120.55,0,0,1-11.57,10.17,112.22,112.22,0,0,1-54,22.59,121.51,121.51,0,0,1-30.87,0,120.13,120.13,0,0,1-15-3.08,118.07,118.07,0,0,1-14-4.83,121,121,0,0,1-25.7-15l.34.26-.39-.3-.24-.18.2.16-.69-.54a122.85,122.85,0,0,1-11.56-10.21,125,125,0,0,1-10.17-11.76,118.12,118.12,0,0,1-14.58-25,121.61,121.61,0,0,1-4.83-13.89,112.86,112.86,0,0,1-3.07-15,118.87,118.87,0,0,1-.87-20.65q.23-2.49.56-5l-.07.54a125.79,125.79,0,0,1,24.65-59.23,120.8,120.8,0,0,1,18.57-19c.9-.54,1.81-1.05,2.72-1.56,1.2-.67,2.29-1.57,3.42-2.35,2.27-1.58,4.62-3.07,7-4.49a117.32,117.32,0,0,1,13.68-6.95,133.32,133.32,0,0,1,15.89-5.48c3-.82,6-1.49,9-2.07,2.84-.54,5.69-1,8.55-1.45a116.57,116.57,0,0,1,14.69-.94Zm-43.8,3.53-.08,0,.08,0Zm85,4.7.42.18-.42-.18Zm1,211.6-.23.09.23-.09Zm-.56.24-.21.09.21-.09Zm-114.6-15,.05,0-.08-.06,0,0Z"/><path class="cls-1" d="M251.5,575.1a120.81,120.81,0,0,0-28.56,10.38,111.81,111.81,0,0,0-13.3,8,35.72,35.72,0,0,0-3.1,2.34l-1.43,1.27q-2.63,2-5.16,4.16a121.33,121.33,0,0,0-35,50.35,123.91,123.91,0,0,0-7.09,31.82,120.58,120.58,0,0,0,1.67,32.84,123.59,123.59,0,0,0,10.09,30.55,117.3,117.3,0,0,0,7.78,13.76c1.41,2.15,2.81,4.3,4.3,6.4,1.65,2.33,3.43,4.54,5.3,6.69a122.65,122.65,0,0,0,52.13,35.12,120.89,120.89,0,0,0,32.54,6.41,123.15,123.15,0,0,0,33.81-2.9,118.1,118.1,0,0,0,15.88-4.7,137.75,137.75,0,0,0,15.44-6.79,122.59,122.59,0,0,0,26.92-19.24,113.29,113.29,0,0,0,27.39-40,118.32,118.32,0,0,0,5-15,124.17,124.17,0,0,0,4.1-31.54,122.88,122.88,0,0,0-3.7-30,121.11,121.11,0,0,0-11.2-28.52,101.11,101.11,0,0,0-8.55-13.27q-2.46-3.2-5.11-6.25c-.8-.92-1.56-1.87-2.35-2.79s-1.87-2.11-2.83-3.14a120.61,120.61,0,0,0-22.59-18.92,122.54,122.54,0,0,0-27.74-13.33,127.56,127.56,0,0,0-31.73-6.14q-4.06-.29-8.14-.29a114.8,114.8,0,0,0-24.82,2.7Zm15.81,2.19h0Zm26.4,1.62a120.64,120.64,0,0,1,29.5,8,118,118,0,0,1,25.47,14.9A121,121,0,0,1,367.8,620.6a147.36,147.36,0,0,1,8.71,13.17,117.53,117.53,0,0,1,6.86,13.58,114.25,114.25,0,0,1,8,59.58,121.07,121.07,0,0,1-8,29.19,126.59,126.59,0,0,1-15.49,26.63,129,129,0,0,1-21.66,21.84,121.79,121.79,0,0,1-25.64,15,111.79,111.79,0,0,1-26.92,7.24,124.32,124.32,0,0,1-31.45,0,123.07,123.07,0,0,1-29.73-8.08,111.26,111.26,0,0,1-37.1-25.38c-1.93-2-3.77-4-5.56-6.15s-3.74-4.41-5.53-6.69a100.64,100.64,0,0,1-7.11-10.88,110.24,110.24,0,0,1-13.82-41,122,122,0,0,1,0-30.75,123.4,123.4,0,0,1,3.13-15.42,112.31,112.31,0,0,1,4.81-13.89,118.47,118.47,0,0,1,14.64-25.19,120.94,120.94,0,0,1,21.2-21.18l.92-.7c1.18-.73,2.36-1.46,3.5-2.25,2.23-1.54,4.51-3,6.83-4.41A117.56,117.56,0,0,1,233,587.4a121.59,121.59,0,0,1,14.91-5.1,131.66,131.66,0,0,1,16.22-3.24,121.54,121.54,0,0,1,29.61-.16ZM323.43,587l.38.16-.38-.16Zm25,14.58.28.22-.28-.22Zm.32.25.21.16-.21-.16ZM171.2,737.66l.13.32-.13-.32Zm175.56,46.53-.31.24.31-.24Z"/><path class="cls-1" d="M284.07,589.55a129,129,0,0,0-18.09,2,108.41,108.41,0,0,0-16.19,4.28,127.84,127.84,0,0,0-15.7,6.66,106.89,106.89,0,0,0-14.18,8.57,156.75,156.75,0,0,0-13.21,10.69,118,118,0,0,0-11.08,11.42A116.33,116.33,0,0,0,179.1,659,108.43,108.43,0,0,0,170,687.87q-.91,5.57-1.26,11.2a121,121,0,0,0,20.75,82.62c1.57,2.27,3.1,4.54,4.76,6.75s3.72,4.56,5.7,6.73a130.45,130.45,0,0,0,11.92,11.34,120.54,120.54,0,0,0,27.68,17.66,125.62,125.62,0,0,0,15.63,6,113.2,113.2,0,0,0,16.92,3.72,121.18,121.18,0,0,0,17.8,1.32,126.3,126.3,0,0,0,18-1.43,123.18,123.18,0,0,0,16.67-3.66A125.6,125.6,0,0,0,340.7,824a119.72,119.72,0,0,0,28.11-17.94,124.23,124.23,0,0,0,22.05-24.57,122.26,122.26,0,0,0,14.71-29.68,121.41,121.41,0,0,0,2.5-68.21A117.23,117.23,0,0,0,402.92,668q-1.58-3.9-3.41-7.7c-1.26-2.6-2.65-5.14-4-7.67a118.52,118.52,0,0,0-9-13.82,132.78,132.78,0,0,0-11-12.79,117.74,117.74,0,0,0-12-10.7,120,120,0,0,0-13.7-9.34,127,127,0,0,0-15.14-7.37A119,119,0,0,0,319,593.38a129.1,129.1,0,0,0-17.63-3.19,110.24,110.24,0,0,0-12.8-.72q-2.26,0-4.51.08ZM304.92,601a120.87,120.87,0,0,1,28.92,7.88,113.93,113.93,0,0,1,36.28,24.3,114.37,114.37,0,0,1,9.7,11.1,125.1,125.1,0,0,1,7.4,10.86,100.42,100.42,0,0,1,6.33,12.55,120,120,0,0,1,7.84,28.77,127.51,127.51,0,0,1,1.05,15.07,119,119,0,0,1-1,16,125.34,125.34,0,0,1-8.17,30.12,120.12,120.12,0,0,1-14.72,25.2,123,123,0,0,1-9.14,10.38,118.87,118.87,0,0,1-11.5,10.15,122.16,122.16,0,0,1-25.56,14.92,117.5,117.5,0,0,1-28.29,7.78,118.38,118.38,0,0,1-61.58-8.23,119.65,119.65,0,0,1-25.2-14.69,127.15,127.15,0,0,1-21.75-22.34,108.44,108.44,0,0,1-13.13-23.1,118.49,118.49,0,0,1-7.86-28.88,123.09,123.09,0,0,1-.26-28.9,140,140,0,0,1,8.84-30,119.82,119.82,0,0,1,14.79-25.29c2.77-3.53,5.66-6.95,8.77-10.19a119.4,119.4,0,0,1,10.8-9.91,141.32,141.32,0,0,1,12.34-8.22,117.05,117.05,0,0,1,14.08-7.17A125.86,125.86,0,0,1,273.85,601a124.36,124.36,0,0,1,31.07,0ZM273.06,826.13l.4.05-.4-.05Z"/><path class="cls-1" d="M265.48,570.85a127.66,127.66,0,0,0-17.07,1.56A121,121,0,0,0,218,581.54c-2.29,1-4.54,2.11-6.76,3.27-2.41,1.25-4.73,2.65-7,4.12a129.6,129.6,0,0,0-13.1,9.73,134.3,134.3,0,0,0-11.38,10.6,115,115,0,0,0-9.77,12,121.43,121.43,0,0,0-14.05,26.06,116.05,116.05,0,0,0-7.22,30.12q-.11,1-.21,2.05t-.27,2a112,112,0,0,0-.81,16.59,125.38,125.38,0,0,0,1.6,16.5,117.81,117.81,0,0,0,9.4,30.38,121.21,121.21,0,0,0,17.14,27.06,124.31,124.31,0,0,0,22.87,21.11,119.38,119.38,0,0,0,27.37,14.56,123.14,123.14,0,0,0,95.09-3.6,120.67,120.67,0,0,0,26.47-16.72,136.49,136.49,0,0,0,11.33-10.38,133.38,133.38,0,0,0,10.15-12,117.58,117.58,0,0,0,8.5-12.92,125.85,125.85,0,0,0,7.08-14.81,111.73,111.73,0,0,0,7.9-32.24,106,106,0,0,0,.57-16.47,130.8,130.8,0,0,0-2-16.87,117.45,117.45,0,0,0-4-15.64,121.32,121.32,0,0,0-6.1-14.88,117.66,117.66,0,0,0-7.56-13.28c-1.37-2.08-2.81-4.11-4.3-6.11-.87-1.17-1.77-2.33-2.72-3.45s-1.94-2.18-2.86-3.3a121.83,121.83,0,0,0-81.52-43.51,127.55,127.55,0,0,0-13.92-.74l-2.43,0Zm3.31,8.81a109.36,109.36,0,0,1,14.48.91,121.6,121.6,0,0,1,29.52,8.07,113.39,113.39,0,0,1,43.93,33.07c1.35,1.86,2.64,3.77,3.94,5.66,1.52,2.22,3,4.5,4.32,6.81a117.55,117.55,0,0,1,6.68,13.18A123.41,123.41,0,0,1,379.82,677a143.78,143.78,0,0,1,1,15.51,118.84,118.84,0,0,1-1,16.53,127.32,127.32,0,0,1-8.21,30.5,118.62,118.62,0,0,1-14.46,24.92,123.21,123.21,0,0,1-8.8,10A109.23,109.23,0,0,1,337.76,784a112.7,112.7,0,0,1-54.06,22.66,114.31,114.31,0,0,1-59.65-8,121.71,121.71,0,0,1-25.79-15,118.29,118.29,0,0,1-10.76-9.53,125.24,125.24,0,0,1-10.08-11.5,119.1,119.1,0,0,1-7.93-11.76,117.05,117.05,0,0,1-6.67-13.24,123.31,123.31,0,0,1-8.18-30,126.06,126.06,0,0,1-.44-28,122.57,122.57,0,0,1,3.07-14.21,130.21,130.21,0,0,1,5.24-15A119.52,119.52,0,0,1,177.35,625a137.56,137.56,0,0,1,9.25-10.58,108.07,108.07,0,0,1,10.8-9.83,123.88,123.88,0,0,1,13-8.67A140.07,140.07,0,0,1,225,588.54a121,121,0,0,1,29.12-7.91,124.29,124.29,0,0,1,14.69-1ZM253.73,806.72l.27,0-.27,0Z"/><path class="cls-1" d="M124.63,18.48a120.46,120.46,0,0,0-27,3.92A114.72,114.72,0,0,0,72.85,32.1,126.77,126.77,0,0,0,51.07,47,117.76,117.76,0,0,0,33.22,65.71a120.71,120.71,0,0,0-21.51,45.16,110.12,110.12,0,0,0-3,27A118.84,118.84,0,0,0,25,200.65a123.48,123.48,0,0,0,15.81,21.26,119.53,119.53,0,0,0,41.91,29.22,121.43,121.43,0,0,0,127.38-21,120,120,0,0,0,38.65-68.62A121.77,121.77,0,0,0,200.63,41.82,117.09,117.09,0,0,0,178.18,28.9a122.16,122.16,0,0,0-25.7-8,128.83,128.83,0,0,0-24.61-2.43q-1.62,0-3.25,0Zm21.08,7.7A117,117,0,0,1,174,34a120.08,120.08,0,0,1,25.7,15,120.72,120.72,0,0,1,20.84,20.95A117.28,117.28,0,0,1,235,94.71a116.23,116.23,0,0,1,8.15,60.89A121.94,121.94,0,0,1,235,185.41a119.38,119.38,0,0,1-14.91,25.5,122.24,122.24,0,0,1-21,21A120,120,0,0,1,173.13,247a117.38,117.38,0,0,1-28.82,7.77,120.46,120.46,0,0,1-30.61,0,122.93,122.93,0,0,1-15.41-3.14A114.8,114.8,0,0,1,84,246.75a115.46,115.46,0,0,1-46.31-35.69,115.79,115.79,0,0,1-23.23-55.6,121.71,121.71,0,0,1-1-17.56q.25-5.44,1-10.86a127.27,127.27,0,0,1,8.46-31.4A115,115,0,0,1,58.15,49.73a120,120,0,0,1,25.72-15,134,134,0,0,1,14.58-5.15,117.77,117.77,0,0,1,15.89-3.33,122.63,122.63,0,0,1,31.37,0Zm.24,0,.31,0-.31,0ZM199.3,48.66l.27.21-.27-.21Zm-140.6.64-.3.23.3-.23Zm176,44.89.16.39-.16-.39Zm-220.32,33-.06.41.06-.41Z"/><path class="cls-1" d="M134.55,8.71a123.81,123.81,0,0,0-28.65,3.65,107.75,107.75,0,0,0-12.4,3.95,128,128,0,0,0-12.4,5.48,118.22,118.22,0,0,0-11.38,6.62c-1.79,1.18-3.54,2.41-5.26,3.68a54.64,54.64,0,0,0-5.62,5.13c-.36.35-.8.66-1.19,1l-1.17,1c-.78.67-1.54,1.35-2.3,2-1.63,1.48-3.21,3-4.76,4.57a118.08,118.08,0,0,0-8.29,9.36A121.54,121.54,0,0,0,27.71,76a121,121,0,0,0-12.33,44.5,122.93,122.93,0,0,0,2.95,39.39,120.78,120.78,0,0,0,87.08,88.3A125.42,125.42,0,0,0,160,250a117.82,117.82,0,0,0,13.52-3.38,114.26,114.26,0,0,0,13.33-5.14c4-1.8,7.87-3.72,11.66-5.9a118.26,118.26,0,0,0,11.11-7.28A115,115,0,0,0,229,210.06a124.4,124.4,0,0,0,15.25-22.46,121.26,121.26,0,0,0,10-26A124.46,124.46,0,0,0,258,133a124.21,124.21,0,0,0-3-28.25,122.1,122.1,0,0,0-9.16-26.12,118.06,118.06,0,0,0-6.51-11.76,121.85,121.85,0,0,0-8.18-11.38,120.94,120.94,0,0,0-19-19.09,123.67,123.67,0,0,0-22.84-14.8A120.51,120.51,0,0,0,163.13,12a129.16,129.16,0,0,0-14.49-2.5,110.85,110.85,0,0,0-13.28-.79ZM152,18.57a123.09,123.09,0,0,1,29.84,8.14,117.86,117.86,0,0,1,24.77,14.52,112.75,112.75,0,0,1,19.21,19.25A122.3,122.3,0,0,1,241,86.35a119.29,119.29,0,0,1,7.94,29.12,120.28,120.28,0,0,1,0,30.44,125.34,125.34,0,0,1-8.23,30.38A119.13,119.13,0,0,1,226,201.61,121.85,121.85,0,0,1,215.86,213a133.64,133.64,0,0,1-12.1,10.53,112.26,112.26,0,0,1-23.49,13.91,131.46,131.46,0,0,1-14.78,5.22,117.34,117.34,0,0,1-15.87,3.29,115.34,115.34,0,0,1-29,0,120.46,120.46,0,0,1-29.95-8.13,115,115,0,0,1-46.16-35.48A121.52,121.52,0,0,1,29.33,176.5a115.11,115.11,0,0,1-8.57-56q.18-1.79.41-3.57a120.75,120.75,0,0,1,8.06-29.49A122.55,122.55,0,0,1,44.4,61.43,120.61,120.61,0,0,1,63.07,42.35c1-.67,2-1.31,3.09-1.94.63-.38,1.26-.75,1.89-1.12s1.18-.83,1.76-1.23c2.19-1.52,4.44-2.94,6.73-4.31a117.44,117.44,0,0,1,13.8-7,124.35,124.35,0,0,1,30.14-8.21,124.69,124.69,0,0,1,31.53,0Zm54.12,22.28.27.21-.27-.21ZM29.15,87.7l-.1.23.1-.23ZM241,175.63l-.14.32.14-.32ZM226.46,201l-.18.23.18-.23ZM66.56,227.13h0Z"/><path class="cls-1" d="M97.67,15.13a117.52,117.52,0,0,0-40.52,16A119.34,119.34,0,0,0,40.48,43.78l-.13.12Q38,45.78,35.79,47.78c-2.66,2.4-5.19,4.94-7.61,7.58a102.05,102.05,0,0,0-7,8.61,104.74,104.74,0,0,0-11.07,19.2A114.19,114.19,0,0,0,3,104.33,124.86,124.86,0,0,0,.09,126.79a122,122,0,0,0,1.33,23.06,119.14,119.14,0,0,0,14.31,41.29,125.53,125.53,0,0,0,12.56,17.93,116.17,116.17,0,0,0,15.49,15.39,121.52,121.52,0,0,0,37.16,20.87,119.51,119.51,0,0,0,44.28,6.51A120.47,120.47,0,0,0,229,182.89a118.51,118.51,0,0,0,11-43A119.72,119.72,0,0,0,120.47,13a122.42,122.42,0,0,0-22.8,2.15Zm38.57.63a119.65,119.65,0,0,1,29.85,8.12,116.64,116.64,0,0,1,46.87,36l-.16-.2a116.34,116.34,0,0,1,23.53,56.06v0l0,.32,0-.21a120.37,120.37,0,0,1,0,31.21,124.84,124.84,0,0,1-3.16,15.61,122.53,122.53,0,0,1-5.37,15.46l.15-.36a118,118,0,0,1-15,25.7,119.89,119.89,0,0,1-21,21,122.35,122.35,0,0,1-12.25,8.26,115.51,115.51,0,0,1-13.59,6.81,121,121,0,0,1-14,4.83,116,116,0,0,1-15.17,3.11,121.71,121.71,0,0,1-31.33,0l.16,0-.17,0-.3,0,.28,0A120.86,120.86,0,0,1,75,239.14l.44.18A114.95,114.95,0,0,1,50,224.52a120,120,0,0,1-20.84-20.7,121.31,121.31,0,0,1-15.36-26.21,118.09,118.09,0,0,1-8-29.26,120.47,120.47,0,0,1,0-31.31A124,124,0,0,1,9,101.86a125.19,125.19,0,0,1,5.12-15A137.43,137.43,0,0,1,22,71.09a139.48,139.48,0,0,1,9.79-14.45,132.58,132.58,0,0,1,9.92-11.35q3.49-3.16,7.22-6.06l0,0A121.22,121.22,0,0,1,75.27,23.91L75.1,24a116.67,116.67,0,0,1,61.14-8.21Zm-.19,0h0ZM49.14,39.11l-.13.1.13-.1ZM31.82,56.65l-.23.3.23-.3ZM228.21,85.93l0,.07,0-.07ZM13.67,177.19l.16.38-.16-.38Zm15.23,26.24.15.2-.15-.2Zm20.86,20.87.24.19-.24-.19Zm55.82,23.19h0ZM236.36,115.88v-.11h0l0,.12Z"/><path class="cls-1" d="M156.05,22.18a127.16,127.16,0,0,0-14.81,1.41,130.73,130.73,0,0,0-13.69,2.73,125.8,125.8,0,0,0-13.27,4.32A128,128,0,0,0,101.4,36.4a98,98,0,0,0-11.79,7,133,133,0,0,0-11.48,9.12,118.29,118.29,0,0,0-9.39,9.35,107.48,107.48,0,0,0-8.58,10.92A122.33,122.33,0,0,0,47.62,96.4,118.25,118.25,0,0,0,41,118.92a122.39,122.39,0,0,0-2,35.85,123.64,123.64,0,0,0,17.24,52.92,121.37,121.37,0,0,0,17,22.12,135.8,135.8,0,0,0,10.06,9.27,126.28,126.28,0,0,0,11.29,8.42,110.19,110.19,0,0,0,11.91,6.79,118.48,118.48,0,0,0,13.13,5.57,124.56,124.56,0,0,0,28,6.26,123.65,123.65,0,0,0,55.94-7.06A122.79,122.79,0,0,0,227.49,247c1.79-1.17,3.54-2.41,5.27-3.67,2.08-1.53,4.21-3,6.21-4.6a119.76,119.76,0,0,0,9.45-8.7,121.74,121.74,0,0,0,27.46-43.81A124.76,124.76,0,0,0,282.83,134a119.94,119.94,0,0,0-5-25.56,123.32,123.32,0,0,0-10.27-23.76A126.82,126.82,0,0,0,252,63a123,123,0,0,0-19.58-17.73,115.9,115.9,0,0,0-22.74-12.93,123.26,123.26,0,0,0-25.41-7.89,139,139,0,0,0-13.95-1.93c-3.43-.31-6.86-.45-10.3-.45q-2,0-4,.06Zm19.49,8.92A120.25,120.25,0,0,1,204.14,39a120.89,120.89,0,0,1,25.62,15A118.72,118.72,0,0,1,250,74.15a111.67,111.67,0,0,1,19.7,39.67,123.77,123.77,0,0,1,3.09,15.29,120.86,120.86,0,0,1,0,30.41,120.59,120.59,0,0,1-7.9,29,119.5,119.5,0,0,1-14.71,25.24,122,122,0,0,1-9.78,11c-1.82,1.81-3.7,3.56-5.63,5.25q-1.36,1.2-2.77,2.35c-1.08.89-2.12,1.84-3.18,2.75a118.83,118.83,0,0,1-24.19,14,120.82,120.82,0,0,1-29.48,8.07,119.8,119.8,0,0,1-30.17,0,118.41,118.41,0,0,1-55.83-23.4c-1.84-1.43-3.64-2.9-5.37-4.46-1.89-1.7-3.72-3.48-5.5-5.3a133.92,133.92,0,0,1-9.8-11.33,115.37,115.37,0,0,1-14.09-24.4A117.37,117.37,0,0,1,46.7,160a118.67,118.67,0,0,1,.06-30.12q.56-4,1.39-8a112.3,112.3,0,0,1,21.05-45A144.49,144.49,0,0,1,79,65.49,117.64,117.64,0,0,1,91,54.79c2.11-1.6,4.28-3.12,6.45-4.65s4.55-3.05,6.89-4.47a116.58,116.58,0,0,1,14.15-7.22,114.27,114.27,0,0,1,26.75-7.32,121,121,0,0,1,30.33,0Zm88.91,67.57.21.49-.21-.49ZM54.91,193.61h0Zm59.34,55,.28.12-.28-.12Z"/><path class="cls-1" d="M133.74.58a115.3,115.3,0,0,0-22.36,4.37,119.73,119.73,0,0,0-37,18.88q-4.42,3.33-8.56,7c-2.51,2.23-4.87,4.63-7.16,7.09A119.15,119.15,0,0,0,30.87,88.25Q30.1,91.09,29.49,94q-1,4.39-1.67,8.84a120.68,120.68,0,0,0,1.49,43.67,117.55,117.55,0,0,0,17.06,39.95,121.53,121.53,0,0,0,69.51,49.92,121.13,121.13,0,0,0,45.84,3.35,123.19,123.19,0,0,0,43.71-13.84c3.24-1.74,6.39-3.65,9.45-5.68q2.23-1.48,4.39-3.07c.7-.51,1.43-1,2.13-1.5,1-.67,1.86-1.41,2.75-2.16A118.08,118.08,0,0,0,239.53,198a122.37,122.37,0,0,0,12.26-17.79,119,119,0,0,0,14-41.3,123.32,123.32,0,0,0,1.25-22.37,120.61,120.61,0,0,0-2.81-21.58,121.19,121.19,0,0,0-16.93-39.88c-2.07-3.14-4.31-6.16-6.65-9.1s-4.63-5.6-7.12-8.25A119.15,119.15,0,0,0,199.41,12.5a121.36,121.36,0,0,0-42.75-12q-5.5-.52-11-.51-5.95,0-11.88.58Zm27.67,5a114.88,114.88,0,0,1,55.34,23.22,116.22,116.22,0,0,1,20,19.85l-.09-.12.1.14L237,49l-.24-.31a120.53,120.53,0,0,1,15.15,25.92,119.35,119.35,0,0,1,8,29.3,122.2,122.2,0,0,1,0,31.29,120.41,120.41,0,0,1-8,29.35,126.14,126.14,0,0,1-6.59,13.31,117,117,0,0,1-8.51,12.75,121.54,121.54,0,0,1-10.24,11.54c-2,2-4,3.84-6.15,5.66-1,.87-2,1.69-3,2.58s-2.07,1.79-3.15,2.64A119.29,119.29,0,0,1,188.76,228a116.87,116.87,0,0,1-28.88,7.81,120.07,120.07,0,0,1-31.06,0,118.54,118.54,0,0,1-29.24-7.94l.07,0a114.8,114.8,0,0,1-13.37-6.66,115.06,115.06,0,0,1-33-29.05h0a121.64,121.64,0,0,1-8.57-12.79A117.66,117.66,0,0,1,29.88,136a120.42,120.42,0,0,1,0-31q.81-5.92,2.2-11.73A119.85,119.85,0,0,1,37.84,76l-.14.33A119,119,0,0,1,52.92,50.23,122.25,122.25,0,0,1,74,29.13,119.81,119.81,0,0,1,99.83,14a124,124,0,0,1,30.49-8.36,119.33,119.33,0,0,1,31.09,0Zm-60.55,6.67-.08,0,.08,0ZM74.42,28.82l-.39.3.39-.3ZM252,74.74l.14.32-.14-.32Zm8,29.32.06.41-.06-.41ZM53.06,193.62h0ZM74,212.92l.18.14-.18-.14Zm25.34,14.82.22.09-.22-.09Zm29.78,8.08.12,0-.12,0ZM236.77,48.72l0,0v0l0,.06Z"/></g></g></svg>