<svg xmlns="http://www.w3.org/2000/svg" viewBox="0 0 1035.74 1040.64"><defs><style>.cls-1{fill:#353535;}</style></defs><title>css-icon</title><g id="Layer_2" data-name="Layer 2"><g id="Draw_Layer" data-name="Draw Layer"><path class="cls-1" d="M294.31,46.11c-6.45,2.83-12.84,5.8-19.18,8.87-3.28,1.59-6.53,3.22-9.77,4.88-3.76,1.92-7.5,3.88-11.2,5.92a423.12,423.12,0,0,0-37.53,23.41c-11.87,8.29-23.28,17.25-34.34,26.6-11.36,9.61-22.24,19.78-32.71,30.35s-20.15,21.35-29.54,32.63c-9.21,11.06-17.9,22.55-26.14,34.35-8.63,12.35-16.65,25.12-24.14,38.19s-14.3,26.5-20.59,40.18c-6,12.95-11.29,26.18-16.12,39.58-5.11,14.15-9.5,28.55-13.31,43.11a502.07,502.07,0,0,0-14.6,87.51C3.94,477.1,3.55,492.59,3.79,508c.11,7.42.46,14.83.92,22.23.49,7.94,1.21,15.86,2.08,23.77,1.57,14.44,3.84,28.8,6.65,43,2.91,14.75,6.56,29.35,10.79,43.77a495.53,495.53,0,0,0,32.25,81.71c6.65,13.33,14,26.33,21.78,39s16.33,25.11,25.29,37.11C112,810,121,820.93,130.32,831.49c9.75,11,20,21.51,30.75,31.59s22.08,19.8,33.73,29q16.76,13.2,34.58,24.95c12.28,8.12,25,15.63,37.89,22.65s26.27,13.41,39.8,19.26a501.22,501.22,0,0,0,84.35,27.68c14.67,3.45,29.52,6.16,44.45,8.23,14.7,2,29.48,3.35,44.3,4.07a465.89,465.89,0,0,0,89.93-4.73c11.33-1.66,22.59-3.79,33.77-6.26,0,0,0,0,0,0q-12.47,2.28-25,4l.12,0q-8.12,1.09-16.26,2c-6.11.65-12.23,1.16-18.36,1.6-12.2.87-24.43,1.26-36.65,1.3-5.46,0-10.93-.08-16.39-.2-6.18-.14-12.34-.42-18.51-.78-12.22-.72-24.41-2-36.55-3.58l.36,0q-8.1-1.11-16.18-2.45c-5.35-.88-10.68-1.89-16-2.95-10.57-2.11-21.07-4.62-31.48-7.42s-20.94-6.1-31.25-9.63c-10.84-3.71-21.51-7.87-32.07-12.31l.29.12q-14.68-6.23-28.95-13.35c-9.48-4.72-18.79-9.8-28-15.12a501.16,501.16,0,0,1-54.14-36.5l.21.16q-12.64-9.81-24.65-20.4c-8-7.05-15.77-14.41-23.32-22a508.13,508.13,0,0,1-42.72-48.62q-9.2-12-17.7-24.52c-6.07-8.94-11.8-18.11-17.28-27.43s-10.46-18.65-15.26-28.21-9.25-19.36-13.43-29.23l.1.23q-6.21-14.84-11.51-30c-3.55-10.2-6.71-20.53-9.6-30.93A500.73,500.73,0,0,1,10.33,566l0,.28q-1-7.73-1.85-15.49C7.93,545.19,7.46,539.6,7.06,534c-.85-11.74-1.21-23.52-1.26-35.29a499,499,0,0,1,4.44-67.59h0q1.1-8.07,2.45-16.1c.9-5.33,1.91-10.64,3-15.94,2.14-10.58,4.68-21.07,7.51-31.49a494.11,494.11,0,0,1,21-60.83l0,.07q3.1-7.33,6.4-14.57c2.24-4.92,4.6-9.78,7-14.62,4.83-9.72,10-19.26,15.49-28.64a499,499,0,0,1,36.32-53.86l0,0q9.17-11.81,19-23.06c6.95-8,14.19-15.64,21.63-23.14a499.58,499.58,0,0,1,48.29-42.55C213.17,94.9,228.69,84.12,244.65,74q6-3.78,12.09-7.4c2.07-1.24,4.14-2.49,6.23-3.71s4.19-2.43,6.29-3.62c8.21-4.67,16.59-9,25.07-13.18,0,0,0,0,0,0Zm-96.22,60.42-.14.11.14-.11ZM44.15,306.77l0-.12,0,.12Z"/><path class="cls-1" d="M474.78,4.48C459.42,5.66,444.15,7.74,429,10.36c-14.21,2.46-28.29,5.66-42.24,9.3s-27.52,8-41,12.8c-14.23,5.13-28.2,10.93-41.93,17.27-14.22,6.57-28.07,13.91-41.62,21.75-14,8.08-27.49,16.93-40.61,26.31a466.19,466.19,0,0,0-52,43.27c-4.15,4-8.2,8.08-12.2,12.21-1.78,1.84-3.52,3.71-5.3,5.54-2.23,2.29-4.35,4.69-6.48,7.07-3.83,4.3-7.52,8.72-11.17,13.17-3.52,4.29-6.87,8.73-10.17,13.19,0,0,0,0,0,0q9.21-10.55,18.77-20.8c3.48-3.73,7.06-7.39,10.56-11.11s7.16-7.3,10.84-10.85A566,566,0,0,1,211,109.34l-.3.23q12.23-9.43,25-18.11c9.09-6.18,18.42-12,27.9-17.56a475.92,475.92,0,0,1,55.64-27.78l-.21.09q7.59-3.18,15.27-6.13c5.22-2,10.49-3.88,15.77-5.7q14.62-5,29.54-9.11a505.25,505.25,0,0,1,63.91-13.09Q460,10,476.59,8.74c11.33-.87,22.7-1.19,34.06-1.29a489.94,489.94,0,0,1,67.91,4.26c10.28,1.4,20.51,3.08,30.69,5.09,10.88,2.15,21.67,4.73,32.38,7.59q7.52,2,15,4.29c5.57,1.71,11.1,3.57,16.61,5.46,10.38,3.55,20.62,7.51,30.73,11.75l-.68-.29a529.31,529.31,0,0,1,58.55,29.22c9.4,5.43,18.59,11.22,27.62,17.25,9.48,6.33,18.67,13.08,27.71,20l-.39-.3.42.32.22.17-.18-.14q11.9,9.22,23.23,19.12c7.69,6.73,15.13,13.75,22.39,20.95s14.28,14.67,21.1,22.3c7.11,7.95,13.89,16.18,20.45,24.59q10,12.92,19.15,26.4,9.54,14,18.11,28.69c5.41,9.2,10.4,18.66,15.17,28.21,4.85,9.72,9.31,19.61,13.55,29.6l-.12-.29.15.37.21.51-.16-.38q6.05,14.49,11.23,29.32c3.73,10.69,7,21.54,10,32.47a515.91,515.91,0,0,1,13,64.89q2.05,15.62,3.16,31.33c.82,11.52,1.18,23.08,1.22,34.63a484.3,484.3,0,0,1-17.76,132.22A508.12,508.12,0,0,1,970,698.22q-6.15,14.5-13.16,28.62c-4.79,9.63-10,19.06-15.36,28.35A494.08,494.08,0,0,1,906,807.81q-9.1,11.71-18.83,22.9c-6.93,8-14.15,15.67-21.56,23.18a486.45,486.45,0,0,1-47.08,41.62Q806.25,905,793.4,913.71c-8.75,6-17.74,11.57-26.83,17s-18.55,10.62-28.05,15.5q-14.89,7.65-30.33,14.16-17.38,7.26-35.23,13.23c-12.16,4.07-24.5,7.56-36.91,10.78a655.43,655.43,0,0,1-76.64,15.24l.17,0q-13.48,1.78-27,3s0,0,0,0a445.11,445.11,0,0,0,48.14-2.11,406.27,406.27,0,0,0,45.79-7.12,426.75,426.75,0,0,0,46.36-13c14.61-4.92,29-10.62,43.05-16.86q21.61-9.57,42.3-21,9.86-5.47,19.45-11.43c6.86-4.28,13.59-8.76,20.23-13.37,12.41-8.61,24.39-17.85,36-27.51,11.88-9.88,23.2-20.4,34.15-31.29A510.62,510.62,0,0,0,973.12,706.26C998.56,649.6,1012.81,588,1015.76,526c.76-16,.66-32.09-.16-48.12-.78-15.34-2.37-30.63-4.49-45.84-2.21-15.86-5.3-31.59-9.07-47.15-3.71-15.32-8.27-30.42-13.39-45.32-5-14.45-10.66-28.64-17-42.55-6.41-14.16-13.57-28-21.3-41.46q-5.59-9.76-11.59-19.28c-4.4-7-9-13.85-13.8-20.61-9-12.82-18.75-25.16-29-37.07q-7.5-8.75-15.36-17.18c-5.67-6.07-11.54-12-17.52-17.74-11.48-11.1-23.54-21.59-36-31.61-12.15-9.79-24.83-18.88-37.84-27.48C776,75.82,762.24,67.72,748.12,60.26,734.24,52.93,720,46.39,705.47,40.4a478.61,478.61,0,0,0-45.62-16.15Q648.65,20.9,637.32,18c-8.22-2.1-16.51-3.92-24.83-5.58-15.58-3.1-31.3-5.4-47.1-7C550.3,3.81,535.15,3.05,520,2.85q-2.66,0-5.31,0c-13.32,0-26.61.64-39.89,1.66Zm-31.49,7.73-.15,0,.15,0ZM1004.7,439.05v0ZM559.25,999.65l.16,0-.16,0ZM970.45,312.2l-.05-.13,0-.07.09.2ZM817.21,112.13l0,0,0,0,.06,0Z"/><path class="cls-1" d="M483.52,4.73q-9.94.64-19.85,1.62C456.83,7,450,8,443.21,9c-3.33.49-6.65,1-10,1.59s-6.54,1.06-9.8,1.64c-7,1.23-14,2.65-21,4.18-13.44,3-26.74,6.53-39.89,10.59a498.19,498.19,0,0,0-74.35,29.85c-12.07,6-23.9,12.5-35.47,19.41-5.57,3.32-11.06,6.79-16.5,10.33-5.85,3.81-11.56,7.82-17.22,11.91a503.44,503.44,0,0,0-60.32,51.44c-9.54,9.51-18.67,19.44-27.42,29.68-8.57,10-16.66,20.43-24.39,31.11a502.28,502.28,0,0,0-42,69.58C59,292,53.68,304.07,48.72,316.26c-5.21,12.8-9.73,25.89-13.8,39.09A518.68,518.68,0,0,0,17,437a502.42,502.42,0,0,0-4.47,82.94c.39,14.18,1.53,28.32,3.07,42.41,1.45,13.28,3.48,26.48,5.95,39.61A493.58,493.58,0,0,0,75.87,751.3Q85.24,768.09,96,784.08a386.37,386.37,0,0,0,23.57,31.34c8.48,10.25,17.53,20,27,29.42a390.7,390.7,0,0,0,29.74,26.58s0,0,0,0a684.74,684.74,0,0,1-46-53.22l.5.64Q120,805,110,790.63c-7-10.06-13.79-20.29-20.2-30.75a503,503,0,0,1-33.55-65.33,511.48,511.48,0,0,1-21.53-62A495.56,495.56,0,0,1,21.39,567a501.31,501.31,0,0,1,.21-131.05l-.08.59q1-7.42,2.22-14.81c.9-5.53,2-11,3.11-16.53,2.24-10.95,4.91-21.8,7.88-32.57a504.66,504.66,0,0,1,21.2-60.5q6.28-14.81,13.46-29.21c4.85-9.72,10.08-19.25,15.58-28.62a510.61,510.61,0,0,1,36-53.23q9.92-12.77,20.53-25c7.09-8.11,14.47-16,22.07-23.59a502.38,502.38,0,0,1,47.91-42.24l-.24.18.25-.19.25-.2-.24.18a538.09,538.09,0,0,1,53.19-36.12,481.88,481.88,0,0,1,58.92-29.58l-.41.17a509.09,509.09,0,0,1,59.36-20.61c10-2.79,20.05-5.22,30.19-7.38,4.84-1,9.7-2,14.57-2.86,5.39-1,10.8-1.8,16.23-2.53h0q18.28-2.41,36.7-3.69c12.21-.84,24.48-1.1,36.71-1.08a567,567,0,0,1,73.34,4.84h0q8.16,1.1,16.28,2.42s0,0,0,0a451.74,451.74,0,0,0-81.32-9.88q-5.74-.16-11.47-.16c-10.08,0-20.16.37-30.23,1ZM56.13,311.63,56,312l.15-.36Zm-.2,382.13.15.35-.15-.35ZM211.47,110.22h0l0,0Z"/><path class="cls-1" d="M488.8.43c-13.57.66-27.11,1.94-40.59,3.65-13.66,1.73-27.25,3.8-40.77,6.5s-27.14,6.08-40.51,9.94-26.32,8.24-39.21,13.12S302.3,43.83,290,49.78,265.86,62.1,254.18,69s-23,14-34.11,21.72c-11.27,7.8-22.11,16.25-32.65,25s-20.71,18.26-30.46,28-19.2,20.09-28.19,30.68c-4.35,5.12-8.46,10.43-12.53,15.77-4.31,5.64-8.48,11.4-12.54,17.22-8,11.39-15.25,23.18-22.37,35.11s-13.77,24.23-19.76,36.8-11.39,25.37-16.32,38.36S36,344,31.95,357.4a498.62,498.62,0,0,0-17,81.1c-1.75,13.78-3,27.58-3.69,41.45q-1,21.15-.38,42.31c.85,27.72,4.39,55.29,9.43,82.54,1.19,6.43,2.54,12.84,4,19.22s3.07,12.51,4.57,18.77c.71,3,1.47,6,2.24,8.93.82,3.17,1.93,6.3,2.93,9.42,2,6.23,4.14,12.42,6.38,18.57,4.44,12.19,9.42,24.18,14.77,36q8.36,18.47,18,36.33c6.18,11.38,13,22.45,20.25,33.2A342.83,342.83,0,0,0,118,817.35,363.78,363.78,0,0,0,175.74,871s0,0,0,0c-11.76-13.3-23-27-33.89-41q-11.92-15.48-23.15-31.48c-7.74-11-15.32-22.16-22.53-33.53s-14-23.11-20.41-35-12-23.9-17.29-36.22q-6.08-14.52-11.27-29.37c-1.81-5.17-3.5-10.38-5.14-15.6-.77-2.44-1.68-4.84-2.49-7.27s-1.62-5-2.35-7.5c-3-10.44-5.66-21-8-31.6-2.46-11.16-4.34-22.43-5.9-33.74a523.42,523.42,0,0,1-4.45-65A476.63,476.63,0,0,1,23,439.3a512,512,0,0,1,12.25-60.21c2.57-9.68,5.49-19.25,8.65-28.75,3.26-9.8,7.12-19.42,11.12-28.93a559.53,559.53,0,0,1,28.15-56.57q7.83-13.8,16.66-27c6-9,12.35-17.7,18.92-26.26,6.87-8.83,14.08-17.36,21.37-25.85q11.4-13.27,23.75-25.68c8.23-8.29,16.8-16.24,25.59-23.93,8.63-7.55,17.38-14.93,26.42-22a513.57,513.57,0,0,1,54.4-36.92c9.37-5.45,18.94-10.55,28.64-15.37,9.9-4.92,19.91-9.6,30.09-13.93A499.48,499.48,0,0,1,449.5,14.69q18.75-2.46,37.64-3.5Q508.38,10,529.68,9.95c13.86-.06,27.72.36,41.55,1.16,13.57.79,27.11,2.12,40.6,3.71,0,0,0,0,0,0A400.79,400.79,0,0,0,531.38.89q-12.46-.9-25-.89-8.81,0-17.62.43ZM449.23,14.72l-1,.13,1-.13ZM55.41,320.46l-.4.94.4-.94ZM23.25,568l.08.59-.08-.59Zm.09.69.06.47-.06-.47ZM141.17,829l.34.44-.34-.44Z"/><path class="cls-1" d="M878.13,164c5.84,7,11.51,14.1,17.08,21.29l-.27-.35q11.06,14.32,21.25,29.27c6.86,10.11,13.35,20.46,19.6,31S948,266.19,953.6,277q8.21,16,15.2,32.54a507.58,507.58,0,0,1,21.26,61.56,495.35,495.35,0,0,1,13,64.55,551,551,0,0,1,4.71,66.53,485.29,485.29,0,0,1-4.35,67.4,521.93,521.93,0,0,1-12.76,63.31c-2.76,10.38-5.87,20.68-9.39,30.83-3.42,9.88-7.2,19.63-11.25,29.27s-8.61,19.41-13.36,28.92-9.89,18.8-15.14,28-11,18.48-16.86,27.46-12.06,17.44-18.51,25.85a505.21,505.21,0,0,1-38.7,44.22q-10.76,10.95-22.1,21.29c-7.47,6.8-15.3,13.18-23.28,19.37q-6.26,4.79-12.66,9.41c-4.93,3.55-10,6.92-15,10.33-9.71,6.59-19.41,13.21-29.2,19.67s-19.79,12.63-29.75,18.84-20.16,12.43-30.34,18.49a0,0,0,0,0,0,0,295.12,295.12,0,0,0,34.91-11.37,314.34,314.34,0,0,0,34.35-16.35c5.38-2.93,10.65-6,15.85-9.29,5.61-3.49,11-7.34,16.32-11.26,5-3.67,9.79-7.54,14.63-11.39,5.21-4.15,10.31-8.43,15.34-12.78,4.64-4,9.18-8.16,13.75-12.27q7.43-6.67,14.56-13.65c9.17-8.91,17.9-18.25,26.31-27.88a558.05,558.05,0,0,0,46-61.06c7-10.66,13.59-21.61,19.64-32.84s11.52-22.51,16.66-34.06a536.3,536.3,0,0,0,25.92-72.23c14-49.69,19.61-101.65,17.81-153.2-1.79-51.1-12.07-101.93-29.36-150a508,508,0,0,0-30.95-69c-6-11.19-12.52-22.13-19.57-32.71-6.88-10.32-14.29-20.3-22-30q-8.49-10.63-17.61-20.73c-6.07-6.71-12.44-13.14-19-19.41a.35.35,0,0,0-.27-.14.45.45,0,0,0-.31.72ZM1003,435.26l0,.38,0-.38Zm.06.44.11.85-.11-.85Z"/><path class="cls-1" d="M269.28,80.45q-8.74,4.45-17.3,9.23c-6.62,3.69-13.12,7.57-19.56,11.57-12.56,7.81-24.71,16.27-36.48,25.2-5.29,4-10.48,8.18-15.6,12.41-6.05,5-11.95,10.2-17.75,15.5-10.79,9.85-21.1,20.23-31,31s-19,21.75-27.88,33.19-17.16,23.37-25,35.56c-8.14,12.67-15.64,25.74-22.61,39.09C49.45,305.92,43.42,319,37.89,332.26c-5.74,13.76-10.78,27.81-15.26,42s-8.19,28.48-11.35,43c-3.07,14-5.44,28.17-7.28,42.4-1.94,15-3.11,30-3.68,45.09-.58,15.46-.36,30.94.5,46.37.81,14.75,2.36,29.44,4.45,44.06,2.14,15,5.05,29.89,8.55,44.64,3.43,14.46,7.59,28.75,12.3,42.85,4.45,13.29,9.52,26.35,15.07,39.21,5.75,13.34,12.16,26.38,19.06,39.16s14.57,25.44,22.64,37.66c7.7,11.65,15.95,22.94,24.59,33.9,8.9,11.29,18.34,22.15,28.18,32.63S156,885.85,166.74,895.5c10.38,9.3,21.19,18.12,32.3,26.53,11.51,8.71,23.44,16.87,35.66,24.56,11.41,7.18,23.14,13.84,35.09,20.08,5.77,3,11.63,5.88,17.51,8.67s12,5.51,18.05,8.07,12.06,5,18.15,7.28c6.66,2.53,13.38,4.88,20.14,7.13,13.64,4.53,27.49,8.38,41.46,11.71,13.62,3.24,27.38,5.82,41.22,7.89,13.13,2,26.35,3.32,39.6,4.18,13.83.9,27.7,1.11,41.55.79,14.68-.33,29.34-1.41,43.92-3.07,0,0,0,0,0,0q-7.34.67-14.7,1.16c-4.87.32-9.76.55-14.64.74-9.69.37-19.39.42-29.09.25a525.81,525.81,0,0,1-59-4.46h0l-.17,0h0q-8.09-1.09-16.14-2.42c-5.41-.89-10.79-1.9-16.16-3-11.27-2.25-22.44-4.95-33.52-8-10.34-2.82-20.57-6-30.7-9.52-10.65-3.66-21.16-7.75-31.54-12.12l.18.08q-7.37-3.14-14.65-6.49c-4.84-2.23-9.64-4.56-14.41-6.95-9.52-4.76-18.87-9.87-28.07-15.22-9-5.23-17.79-10.79-26.44-16.58-9.09-6.07-17.94-12.49-26.61-19.14q-6.15-4.76-12.16-9.68c-4-3.3-8-6.68-11.91-10.1-8.29-7.22-16.3-14.76-24.09-22.51-7.37-7.32-14.46-14.91-21.36-22.68-7.26-8.17-14.2-16.62-20.91-25.25l.12.15q-4.75-6.16-9.33-12.45c-3.08-4.23-6.07-8.52-9-12.85-6.26-9.19-12.16-18.62-17.79-28.21C64,765,59,755.63,54.19,746.17c-4.93-9.79-9.48-19.76-13.75-29.85l.08.18q-3-7.22-5.85-14.52c-1.89-4.89-3.67-9.81-5.4-14.76-3.71-10.6-7-21.35-10-32.18-2.87-10.41-5.34-20.93-7.53-31.5-2.35-11.34-4.24-22.78-5.8-34.26v0Q4.88,581.15,4,572.94c-.56-5.45-1-10.92-1.38-16.39-.77-11.05-1.11-22.14-1.15-33.22S1.86,501.12,2.57,490c.72-11.3,1.88-22.56,3.37-33.78v0l0-.17v0H6Q7,448.26,8.34,440.43c.88-5.29,1.87-10.55,2.92-15.81,2.21-11,4.85-22,7.8-32.86,2.81-10.34,6-20.57,9.49-30.7,3.65-10.66,7.73-21.17,12.1-31.56h0l0-.06.05-.12v0q3.13-7.34,6.46-14.6c2.24-4.87,4.59-9.7,7-14.5,4.83-9.68,10-19.16,15.48-28.51s11.11-18.25,17.07-27.12c6.14-9.14,12.64-18,19.37-26.75l0,0q4.93-6.33,10-12.52c3.46-4.2,7-8.32,10.62-12.41,6.93-7.87,14.15-15.48,21.57-22.9a515.67,515.67,0,0,1,48.38-42.49q8.51-6.57,17.26-12.81c6.21-4.43,12.55-8.7,18.95-12.85,11.84-7.68,24-14.82,36.45-21.5,0,0,0,0,0,0ZM433.84,1017l.14,0-.16,0ZM6,589.49c0-.05,0-.11,0-.16l0,.16ZM6,456.12l0,.14c0-.05,0-.11,0-.16v0ZM40.67,329.47l0,0,.06-.13,0,.09Z"/><path class="cls-1" d="M498.88,22.53c-7.59,0-15.18.28-22.77.66-8.13.41-16.26,1-24.37,1.8-7.21.68-14.4,1.61-21.57,2.63-8.29,1.18-16.54,2.59-24.75,4.17-7.59,1.46-15.14,3.14-22.66,4.94-8.18,2-16.29,4.2-24.36,6.55-15.07,4.4-29.91,9.61-44.49,15.43C300,64.23,286.42,70.46,273.1,77.24c-13.79,7-27.22,14.74-40.31,23-13.31,8.37-26.18,17.45-38.63,27-11.85,9.13-23.25,18.82-34.25,28.94-12,11-23.33,22.67-34.16,34.79-5.29,5.93-10.41,12-15.42,18.17-4.69,5.78-9.21,11.7-13.65,17.68a432.5,432.5,0,0,0-26.5,40.39,437.31,437.31,0,0,0-22.85,45.42,0,0,0,1,0,0,0q6-11.85,12.45-23.44c4.55-8.14,9.32-16.16,14.25-24.08s10.12-15.76,15.44-23.47q7.81-11.31,16.16-22.23l-.16.21q4.46-5.77,9.05-11.44c3.47-4.27,7-8.46,10.63-12.62,7.27-8.37,14.86-16.47,22.67-24.35A495.94,495.94,0,0,1,197,127.88l-.14.11q12.78-9.79,26.13-18.79,13.07-8.81,26.73-16.73A498.45,498.45,0,0,1,306.2,64.34l-.27.12q14.67-6.15,29.68-11.4c10.17-3.56,20.47-6.73,30.86-9.6a494.53,494.53,0,0,1,64.17-13.1h-.08l.16,0,.21,0h-.08q16.91-2.24,33.93-3.47c11.35-.82,22.72-1.09,34.1-1.14a503.84,503.84,0,0,1,68,4.42q16.3,2.22,32.42,5.49c10.6,2.14,21.11,4.69,31.54,7.52s20.68,6,30.87,9.48c10.78,3.67,21.4,7.78,31.9,12.19l0,0,.06,0,.26.11-.08,0q14.06,6,27.76,12.8c9.76,4.84,19.33,10,28.75,15.51s18.6,11.26,27.63,17.3,17.67,12.34,26.21,18.91q12.09,9.38,23.61,19.45c8.16,7.13,16.05,14.57,23.73,22.2,7.41,7.36,14.54,15,21.47,22.8s13.65,16,20.1,24.3,12.64,16.93,18.57,25.67,11.47,17.6,16.81,26.65,10.3,18.16,15,27.47c5.07,9.95,9.74,20.09,14.12,30.36l-.1-.22q6.24,14.79,11.56,29.94c3.77,10.71,7.11,21.56,10.14,32.49,2.84,10.27,5.3,20.64,7.49,31.07q3.49,16.61,5.77,33.45c0-.13,0-.26-.05-.39q2.13,16,3.34,32.15c.87,11.57,1.27,23.18,1.34,34.78s-.36,23.14-1.07,34.68-1.9,22.93-3.41,34.32v-.07q-1,7.39-2.23,14.74c-.94,5.62-2,11.22-3.14,16.81-2.25,11.11-4.95,22.13-7.95,33.06A502.75,502.75,0,0,1,958,716.47q-6.2,14.59-13.26,28.79C940,754.7,935,764,929.69,773.09A506.17,506.17,0,0,1,893.39,827l.1-.13q-9.61,12.41-19.93,24.24-11,12.62-22.86,24.49a496.57,496.57,0,0,1-48.55,42.74l.25-.19q-12.36,9.49-25.26,18.23c-8.64,5.86-17.49,11.39-26.48,16.69S732.36,963.44,723,968.19c-9.94,5-20.07,9.67-30.32,14l.1,0q-14.72,6.2-29.8,11.5c-10.13,3.57-20.4,6.74-30.74,9.64a490.28,490.28,0,0,1-65.42,13.4h0l-.16,0h0Q551,1018.81,535.3,1020c-11.09.81-22.22,1.18-33.34,1.25a499.69,499.69,0,0,1-67.82-4.32h0q-7.54-1-15-2.24c-5.68-.93-11.33-2-17-3.15-11.21-2.27-22.33-5-33.36-8-10.85-3-21.59-6.37-32.22-10.05s-20.93-7.71-31.21-12l.27.11L302,980l.26.11q-10.28-4.38-20.37-9.14c-6.72-3.18-13.35-6.53-19.92-10-13.52-7.11-26.66-14.93-39.49-23.21,0,0,0,0,0,0q9.56,6.59,19.39,12.73c6.93,4.32,14,8.44,21.11,12.41,6.48,3.62,13.06,7.05,19.7,10.37q10.8,5.39,21.89,10.18c13.75,5.95,27.82,11.12,42.07,15.73,15,4.86,30.3,8.86,45.72,12.21,7.49,1.63,15,3,22.58,4.32s15.37,2.43,23.09,3.4c16.07,2,32.25,3.15,48.43,3.58s32.63,0,48.89-1.2c15.11-1.08,30.16-2.89,45.11-5.3,15.73-2.53,31.3-5.91,46.73-9.89s30.36-8.69,45.2-14.06c14.16-5.13,28-11,41.66-17.39,14-6.57,27.62-13.88,40.92-21.73s26-16.24,38.39-25.2c12-8.64,23.52-17.89,34.7-27.54,11.76-10.15,23-20.91,33.75-32.11s20.88-22.93,30.51-35.07c9.33-11.75,18.08-23.95,26.31-36.48,8.51-13,16.32-26.35,23.62-40q10.61-19.91,19.33-40.77,4.32-10.32,8.2-20.83c2.8-7.59,5.37-15.26,7.8-23a502.86,502.86,0,0,0,19.3-91c1.91-15.91,2.95-31.91,3.28-47.93s-.21-32.24-1.42-48.31c-1.15-15.26-3.13-30.45-5.64-45.54-2.57-15.46-5.94-30.78-10-45.92s-8.9-30.25-14.39-45c-5.29-14.23-11.32-28.19-17.87-41.88-6.64-13.87-14-27.4-21.91-40.58s-16.65-26.11-25.82-38.58c-8.93-12.14-18.48-23.82-28.43-35.13-10.26-11.66-21.12-22.77-32.42-33.42-11.62-11-23.82-21.29-36.42-31.09C793.63,118.25,781,109.38,768,101c-13.47-8.65-27.4-16.57-41.63-23.89-13.82-7.1-28-13.46-42.44-19.25q-22.11-8.87-45-15.55c-15.3-4.49-30.83-8.15-46.49-11.14-15.23-2.9-30.61-5-46-6.52-15.64-1.52-31.36-2.16-47.08-2.16Zm67.74,7.57.13,0-.13,0ZM992.7,590.21l0,.22,0-.22Zm-426,426.52.13,0h0l-.16,0Zm125.88-34.46.13-.06-.13.06ZM105.43,219.73l.05-.07-.05.07Zm91.37-91.67.09-.07-.09.07Zm497-63.15-.18-.08h0l.2.09ZM430.72,30.35h-.08l.22,0-.14,0Z"/><path class="cls-1" d="M529.78,19.44c-16.22.18-32.44,1.14-48.57,2.9a506.54,506.54,0,0,0-90.92,18.5,501.37,501.37,0,0,0-161.75,83.42q-18.16,14-35,29.6c-11.33,10.44-22.12,21.46-32.46,32.87-10.18,11.24-19.79,23-29,35.07-9.41,12.4-18.18,25.3-26.42,38.51-7.55,12.11-14.5,24.57-21,37.27A414.42,414.42,0,0,0,67.46,336,389.54,389.54,0,0,0,54,377.72c-2.88,10.92-5.13,22-6.92,33.12q-2.84,12.7-5,25.54A498.66,498.66,0,0,0,35.1,529c.27,16.25,1.43,32.49,3.27,48.64,1.75,15.35,4.32,30.6,7.34,45.75a496.33,496.33,0,0,0,26,87c2.49,6.23,5.14,12.4,7.88,18.52q4.81,10.76,10,21.33c6.68,13.48,14.05,26.63,21.93,39.44s16.32,25.18,25.35,37.14,18.59,23.43,28.61,34.53c10.3,11.4,21.18,22.3,32.44,32.76s23,20.34,35.18,29.69,25.16,18.2,38.33,26.41,26.79,15.73,40.68,22.65,28,13,42.34,18.69,29.3,10.7,44.27,15c7.27,2.11,14.63,3.86,22,5.54,8,1.83,16.14,3.41,24.27,4.83a436.63,436.63,0,0,0,47,5.38,461.5,461.5,0,0,0,47.93.43c3.86-.15,7.72-.42,11.59-.56s7.72-.34,11.58-.56,7.75-.52,11.62-.84c1.95-.16,3.89-.34,5.82-.52l3.89-.38q1.42-.12,2.84-.32,11.12-2,22.14-4.44c3.72-.83,7.5-1.4,11.25-2.1,4.37-.82,8.73-1.71,13.07-2.64,7.41-1.59,14.77-3.38,22.09-5.3,3.64-1,7.27-2,10.89-3,4.23-1.21,8.48-2.38,12.7-3.65A496.49,496.49,0,0,0,764.25,964c53.52-27.58,101.56-65.29,142.11-109.71a498.93,498.93,0,0,0,53.94-71.12c8.13-12.94,15.59-26.3,22.5-39.93s13-27.43,18.54-41.52a499.16,499.16,0,0,0,26.19-91.21,491.92,491.92,0,0,0,8.2-94.85,510.84,510.84,0,0,0-9.94-95.21,494.34,494.34,0,0,0-27.55-90.73,499.14,499.14,0,0,0-98.89-153.28c-10.54-11.22-21.64-21.91-33.15-32.13-10.91-9.69-22.32-18.8-34.05-27.48A498,498,0,0,0,578.6,21.21c-14.19-1.24-28.44-1.8-42.68-1.8q-3.07,0-6.14,0Zm3.94,3.4a492.2,492.2,0,0,1,65.88,4.31q15.9,2.17,31.64,5.28c11.11,2.2,22.13,4.84,33.06,7.81a506.33,506.33,0,0,1,62.22,21.51l-.1,0a500.62,500.62,0,0,1,111.52,65.15,530.73,530.73,0,0,1,48,42.07,495.89,495.89,0,0,1,42.73,48.51,514.91,514.91,0,0,1,35.18,52.17A491.76,491.76,0,0,1,993,327.89l-.21-.5q6.13,14.67,11.36,29.69c3.54,10.19,6.68,20.52,9.55,30.92a510,510,0,0,1,13.46,66c0-.18-.05-.37-.08-.56a515.33,515.33,0,0,1,4.51,66.1,495.71,495.71,0,0,1-4.42,67.1c-1.48,10.78-3.23,21.5-5.34,32.18-2.22,11.23-4.9,22.36-7.89,33.41a492.51,492.51,0,0,1-21.7,62.47l0-.09a524.51,524.51,0,0,1-28.89,57.58,509.29,509.29,0,0,1-36.65,54.37l.12-.15a518.31,518.31,0,0,1-40.46,46.27A477.79,477.79,0,0,1,839,914.5a513.18,513.18,0,0,1-52.76,35.65,495.09,495.09,0,0,1-58.16,29.14l.18-.07a511.83,511.83,0,0,1-56.46,19.86c-9.68,2.78-19.52,5-29.37,7.05-10.46,2.17-21,4-31.58,5.43q-7.48.59-15,1c-2.52.13-5,.23-7.55.32-3.23.12-6.45.52-9.67.8-5.16.46-10.33.8-15.5,1.1-5.79.33-11.58.58-17.37.55-10.9,0-21.79-.52-32.66-1.28q-16.85-1.18-33.6-3.37-8.17-1.13-16.31-2.49c-6.27-1.05-12.53-2.12-18.77-3.32-11.81-2.26-23.52-5-35.13-8.14s-22.87-6.37-34.15-10.12S352.89,978.7,342,974.15a521.2,521.2,0,0,1-58.68-29.52C273.68,939,264.26,933,255,926.72c-4.62-3.13-9.16-6.38-13.71-9.62-4.94-3.52-9.79-7.15-14.6-10.85A487.55,487.55,0,0,1,139,818.43l-2.08-2.7a514,514,0,0,1-34-50.29c-5.23-8.82-10.14-17.83-14.81-27-4.87-9.52-9.3-19.27-13.47-29.12a510.6,510.6,0,0,1-20.23-57.94c-2.83-10-5.3-20.12-7.5-30.29-2.42-11.19-4.29-22.48-5.85-33.82v0a519.27,519.27,0,0,1-4.58-67.92,497.55,497.55,0,0,1,4.42-66v0l0-.18v0h0q2.93-21.35,7.65-42.37c3.46-11.93,7.23-23.77,11.2-35.54,5.27-15.6,11.15-31,17.53-46.16C81.62,319,86.11,309,90.9,299.05s10.14-19.9,15.68-29.6a497.06,497.06,0,0,1,38.13-57q9.21-11.77,19.05-23c6.92-7.89,14.13-15.52,21.54-23a494.46,494.46,0,0,1,46.83-41.23l-.3.23q12.36-9.53,25.27-18.27c8.62-5.82,17.44-11.33,26.41-16.61a493.81,493.81,0,0,1,58-29.07h0l.07,0,.28-.12-.14.06q14.75-6.15,29.84-11.4c10.58-3.68,21.31-6.92,32.11-9.86a504.61,504.61,0,0,1,64.91-13,516.11,516.11,0,0,1,65.15-4.38Zm65.57,4.27.14,0-.14,0ZM838.09,127l.24.18-.24-.18ZM145,212.1l-.27.35.27-.35Zm-67.67,117-.29.69.29-.69Zm949.8,257.79,0,.24,0-.24ZM74.68,709.4l0,.11,0-.11Zm62.4,106.5.14.19-.14-.19Zm341.6,194.67.37,0-.37,0ZM41.09,587.3h0v0Zm-.14-134.09,0,.15c0-.05,0-.11,0-.16ZM341.56,61.54l0,0,.19-.08-.15.06Z"/><path class="cls-1" d="M529.87,19.53c-8.44.16-16.87.43-25.3.94-7.83.46-15.66,1.11-23.45,2s-15.37,2-23,3.19C442.48,28,427,31.25,411.7,35.1,404.41,36.94,397.16,39,389.93,41c-7.83,2.26-15.58,4.76-23.29,7.4q-21.37,7.34-42,16.71c-14,6.34-27.61,13.4-40.93,21q-20.23,11.55-39.37,24.91c-12.48,8.69-24.53,18-36.24,27.72-12,9.93-23.47,20.47-34.49,31.47a449.47,449.47,0,0,0-31,34.72c-4.54,5.58-8.94,11.29-13.25,17.05-4.84,6.48-9.45,13.11-13.92,19.85q-12.91,19.48-23.89,40.18c-7.32,13.82-13.89,28-19.92,42.45-2.87,6.88-5.44,13.88-7.93,20.9-2.7,7.62-5.18,15.32-7.5,23.06q-6.81,22.63-11.65,45.78c-.77,3.73-1.48,7.47-2.16,11.22S41.1,433,40.44,436.73C39.08,444.36,38,452,37,459.71a499.91,499.91,0,0,0-3.09,95.1c.95,15.61,2.7,31.16,5,46.62,2.35,15.68,5.55,31.21,9.31,46.61,3.69,15.09,8.17,30,13.25,44.67,2.32,6.68,5,13.24,7.73,19.77q4.27,10.28,9,20.36a496.51,496.51,0,0,0,43.48,75c4,5.64,8.05,11.19,12.24,16.66,4.53,5.92,9.18,11.75,14,17.41,2.48,2.89,5,5.72,7.55,8.59s4.88,5.49,7.36,8.2c5.37,5.87,10.91,11.58,16.54,17.18a517.45,517.45,0,0,0,70,58c6.23,4.32,12.62,8.37,19.09,12.32,3.1,1.89,6.17,3.81,9.29,5.68,3.64,2.18,7.31,4.29,11,6.37,13.2,7.46,26.77,14.25,40.59,20.48a524.19,524.19,0,0,0,61.53,23.13c10.79,3.31,21.71,6.19,32.7,8.78,11.71,2.76,23.58,4.88,35.47,6.69a503.65,503.65,0,0,0,68.34,5.61c11.76.18,23.52-.12,35.26-.76,5.93-.32,11.86-.79,17.78-1.32,2.64-.24,5.29-.52,7.93-.75l2.61-.34,4.15-.57c15.17-2,30.24-4.5,45.2-7.75,15.15-3.28,30.13-7.36,44.91-12a521.68,521.68,0,0,0,85.08-35.48c13.59-7.14,26.79-15,39.73-23.28a435.37,435.37,0,0,0,36.73-26.4c5.75-4.57,11.32-9.36,16.8-14.25,2.78-2.48,5.5-5,8.25-7.54,3.3-3,6.53-6.13,9.71-9.27a334.77,334.77,0,0,0,30.69-34.86q6.35-8.3,12.23-16.92s0,0,0,0c-13.94,14.91-28.45,29.27-43.33,43.23q-5.6,5.26-11.31,10.39t-11.34,9.87c-7.52,6.3-15.2,12.41-23,18.42l.79-.61c-8.3,6.37-16.8,12.44-25.4,18.39-4.07,2.82-8.19,5.55-12.33,8.24-4.62,3-9.36,5.84-14.11,8.64A491.17,491.17,0,0,1,726.72,977q-14.43,6-29.2,11.23c-9.89,3.47-20,6.45-30.07,9.22a501,501,0,0,1-63.9,12.95q-3.53.47-7.06.89c-2.7.33-5.4.56-8.1.79l-2,.26-4,.39c-3.29.32-6.59.6-9.89.86-11.77.93-23.57,1.37-35.37,1.46a494.87,494.87,0,0,1-68.57-4.36,532.51,532.51,0,0,1-64.82-13.09c-10.3-2.75-20.48-5.9-30.58-9.31-10.5-3.54-20.82-7.54-31-11.82l.86.36a514.07,514.07,0,0,1-56.95-28.43c-4.19-2.43-8.32-4.93-12.44-7.48-4.86-3-9.6-6.24-14.31-9.48s-9.14-6.25-13.64-9.48-8.93-6.55-13.32-9.92h0q-12-9.3-23.36-19.29c-7.81-6.85-15.36-14-22.73-21.3s-14.49-14.93-21.39-22.71c-3.76-4.23-7.38-8.58-10.93-13q-5-6.21-9.91-12.5a511.66,511.66,0,0,1-35.19-52.06A496.19,496.19,0,0,1,80,713.94c-4-9.57-7.7-19.26-11.3-29-4.11-11.08-7.77-22.33-11.08-33.68a486.06,486.06,0,0,1-14.79-70.65,509.37,509.37,0,0,1-4.21-64.06,495.52,495.52,0,0,1,4.26-65.71q1-7.41,2.2-14.78c.41-2.51.93-5,1.43-7.49s1-5,1.54-7.45c2.1-9.89,4.56-19.71,7.27-29.45a467.68,467.68,0,0,1,19.59-55.82l-.06.15.08-.19.29-.68-.24.58C79.38,325.32,84,315,89,304.89c5.31-10.77,11.07-21.32,17.09-31.71,5.62-9.69,11.61-19.16,17.87-28.45q9.86-14.64,20.62-28.66,9.42-12.13,19.51-23.71c3.68-4.22,7.46-8.34,11.24-12.47s7.64-8.18,11.55-12.19c7.39-7.57,15.06-14.86,22.91-21.95,8.32-7.51,17-14.66,25.81-21.53l-.25.19q12.48-9.6,25.51-18.44c8.71-5.91,17.64-11.48,26.74-16.79a514,514,0,0,1,57.76-28.77l-.08,0q13.62-5.73,27.53-10.68c10-3.58,20.23-6.85,30.52-9.67a499.84,499.84,0,0,1,61-12.54q18.1-2.36,36.33-3.64c5.84-.41,11.7-.69,17.55-.9,6.48-.23,13-.26,19.45-.2,12.23.12,24.46.68,36.67,1.54,12.6.89,25.17,2.36,37.69,4h-.11c11.48,1.55,22.92,3.38,34.34,5.34a0,0,0,1,0,0,0C616,25,584.58,20.85,553.16,19.7c-4.75-.18-9.51-.25-14.27-.25q-4.52,0-9,.08Zm-65.36,8-.17,0,.17,0Zm-.24,0-.13,0,.13,0ZM80,714.06l.31.74-.31-.74ZM74.91,335.82l0,0,.06-.14,0,.1Z"/><path class="cls-1" d="M480.95,39.23A505.06,505.06,0,0,0,304.68,82.11c-13.57,6-26.84,12.75-39.81,20-6.19,3.45-12.29,7.07-18.33,10.78-6.85,4.21-13.65,8.48-20.34,12.95-12.47,8.32-24.52,17.29-36.2,26.69-5.65,4.55-11.27,9.14-16.78,13.87-2.72,2.34-5.34,4.82-8,7.26-3.07,2.85-6.09,5.75-9.09,8.67a507.37,507.37,0,0,0-57.59,67.26q-6.72,9.36-13.09,18.95c-4.57,6.91-9,13.94-13.13,21.13a425.46,425.46,0,0,0-21.58,42.69,407.47,407.47,0,0,0-16.29,44.77c-2.43,8.06-4.53,16.22-6.41,24.42s-3.45,16.62-4.77,25c0,0,0,0,0,0,7-22.68,14.93-45.08,24.12-67q7.11-16.76,15-33.15c5.34-11,11-21.94,17-32.63,3.13-5.55,6.28-11.09,9.55-16.55S95.71,266.36,99.2,261c6.62-10.16,13.74-20,21.14-29.59a517.53,517.53,0,0,1,42.2-47.81c3.8-3.81,7.69-7.54,11.62-11.22S182,165,186,161.34c8.17-7.44,16.74-14.42,25.47-21.2l-.11.09q12.44-9.57,25.41-18.38c4.06-2.76,8.17-5.45,12.34-8,4.52-2.8,9.09-5.51,13.7-8.17a495.29,495.29,0,0,1,54.28-26.95h0a510,510,0,0,1,59.58-20.76,491.69,491.69,0,0,1,66-13.51q16.21-2.16,32.52-3.33c11.55-.83,23.14-1.2,34.73-1.22a496.71,496.71,0,0,1,66.69,4.45q15.79,2.17,31.41,5.28c11.22,2.24,22.35,4.93,33.39,7.94A496,496,0,0,1,703,78.91l-.18-.08a514.77,514.77,0,0,1,56.64,28.27,502.25,502.25,0,0,1,55,37l-.15-.12a513.64,513.64,0,0,1,48.6,42.88A501.23,501.23,0,0,1,904.23,234l-.09-.11Q914,246.71,923,260.11c6.24,9.24,12.21,18.65,17.81,28.29a494.67,494.67,0,0,1,28,56.14h0a508.62,508.62,0,0,1,20.33,58.22c2.77,9.79,5.18,19.66,7.34,29.59,1.16,5.3,2.19,10.63,3.18,16,1,5.67,1.85,11.38,2.63,17.09l0-.18c1.53,11.48,2.71,23,3.62,34.56s1.34,23.3,1.41,35a502.61,502.61,0,0,1-4.53,69.38v0q-2.22,16.15-5.45,32.13c-2.13,10.58-4.67,21.07-7.5,31.48a499.52,499.52,0,0,1-21.48,62.13q-6.22,14.67-13.31,28.94c-5,10.08-10.41,20-16.08,29.67a508.85,508.85,0,0,1-35.73,53l.21-.27q-9.53,12.31-19.77,24c-6.85,7.84-14,15.42-21.3,22.82a495.57,495.57,0,0,1-47.75,42.27,512.22,512.22,0,0,1-52.56,35.58,497.24,497.24,0,0,1-58.69,29.47l.07,0q-14.21,5.95-28.74,11c-9.95,3.49-20.05,6.57-30.21,9.39a474.38,474.38,0,0,1-62.51,13c-11.46,1.51-23,2.68-34.48,3.58-11.8.92-23.62,1.35-35.45,1.44a494.46,494.46,0,0,1-68.5-4.41q-15.82-2.19-31.47-5.33c-11-2.21-22-4.89-32.83-7.87a496.51,496.51,0,0,1-60.81-21.14,513.37,513.37,0,0,1-56.76-28.4,503.21,503.21,0,0,1-54-36.3q-15.13-11.76-29.37-24.58c-9.55-8.61-18.69-17.65-27.62-26.9a703.26,703.26,0,0,1-50.12-58l0,0q-8.34-10.85-16.29-22a0,0,0,0,0,0,0A400.13,400.13,0,0,0,108,838.17a395.44,395.44,0,0,0,27.41,35.33,422.47,422.47,0,0,0,32,32.77c11,10.23,22.54,19.93,34.45,29.12q18.12,14,37.41,26.32c12.77,8.17,26,15.69,39.41,22.67a502.2,502.2,0,0,0,272.74,54.05c15.66-1.3,31.21-3.69,46.67-6.47s30.8-6.39,45.93-10.63c14.91-4.18,29.61-9.14,44.07-14.65,13.91-5.3,27.55-11.3,40.93-17.81,54.35-26.47,103.55-63.3,145-107.25a509.43,509.43,0,0,0,55.66-70.88A496.46,496.46,0,0,0,1010,544.57c.17-16.22-.54-32.45-1.89-48.61a454.26,454.26,0,0,0-6.52-46.3c-.67-3.56-1.32-7.12-2-10.68s-1.47-7.07-2.26-10.59c-1.69-7.59-3.59-15.12-5.63-22.62-3.88-14.27-8.48-28.35-13.62-42.21a496.71,496.71,0,0,0-36.76-77.41q-5.65-9.68-11.69-19.12c-4.25-6.66-8.75-13.15-13.34-19.57-8.4-11.75-17.37-23.08-26.76-34.05A502.11,502.11,0,0,0,667,63.75c-15-5-30.2-9.22-45.57-12.79-14.78-3.43-29.75-6.14-44.79-8.14Q553,39.69,529.22,38.74q-9.29-.37-18.6-.37-14.84,0-29.67.86ZM120.06,231.78l-.18.24.18-.24ZM207.21,930l.42.33-.42-.33Zm110.67,64.87.44.19-.44-.19ZM903.14,841.61l.09-.11-.09.11Zm99.13-376.39v0ZM211.16,140.41l.23-.18-.23.18Z"/><path class="cls-1" d="M493.07,38.67a505.81,505.81,0,0,0-91.64,11.57,499.68,499.68,0,0,0-169.74,72.48Q213,135.19,195.37,149.23c-12.12,9.66-23.73,20-34.89,30.71s-21.78,22-31.8,33.8C119,225.08,110,236.88,101.35,249A503.33,503.33,0,0,0,55,329.68q-9.42,20.43-16.87,41.7c-5.21,14.92-9.62,30.11-13.38,45.46s-6.82,30.87-9.17,46.5c-2.3,15.34-3.86,30.79-4.75,46.28-.95,16.27-1,32.58-.35,48.85.61,15.45,2,30.88,4,46.2q3.05,22.65,8.07,44.95c3.29,14.61,7.32,29.06,11.91,43.32,4.38,13.58,9.38,27,15,40.11,2.87,6.75,5.82,13.48,9,20.12,3.42,7.22,7.06,14.34,10.83,21.38A496.06,496.06,0,0,0,184,916.93c11.17,9.6,22.82,18.62,34.7,27.3,6,4.4,12.15,8.63,18.36,12.76,3.1,2.06,6.24,4.07,9.39,6.07,3.77,2.39,7.52,4.8,11.31,7.16,1.55,1,3.17,1.85,4.75,2.77s3.19,1.82,4.79,2.71c3.2,1.8,6.42,3.54,9.66,5.27,7,3.75,14.15,7.29,21.34,10.7q9.33,4.42,18.87,8.43,11.23,4.72,22.61,9.07c7.11,2.71,14.3,5.21,21.54,7.59,1.81.59,3.63,1.17,5.45,1.75l1.43.54,2.86,1.07,1.8.52,3.6,1c2.4.68,4.81,1.33,7.23,2,15.16,4.06,30.53,7.3,46,9.9s31,4.43,46.63,5.6q11.38.86,22.78,1.27c8.36.29,16.71.3,25.07.12,16.36-.35,32.68-1.62,48.93-3.47,7.34-.84,14.64-1.95,21.92-3.19q12-2.05,23.94-4.8a397.47,397.47,0,0,0,44.45-13.23c7.12-2.55,14.19-5.24,21.18-8.13s14.11-6.16,21-9.55q1.92-.95,3.83-1.93a498.52,498.52,0,0,0,148.33-99.69,502.81,502.81,0,0,0,104.61-146.8,499.14,499.14,0,0,0-127-590.5A501.43,501.43,0,0,0,678.24,67.64,495.59,495.59,0,0,0,510,38.39q-8.49,0-17,.28ZM473.76,41.2c11.54-.86,23.11-1.26,34.68-1.32a497.58,497.58,0,0,1,67,4.29l-.12,0q16,2.15,31.79,5.27c11.09,2.19,22.09,4.82,33,7.77a496.79,496.79,0,0,1,62.12,21.4l0,0q14.64,6.19,28.89,13.25c10,5,19.84,10.32,29.51,15.95a501.83,501.83,0,0,1,53.51,36.08,516.59,516.59,0,0,1,47.47,41.7,501.78,501.78,0,0,1,43,48.78q9.64,12.56,18.52,25.66c5.93,8.75,11.52,17.72,16.88,26.83a495.21,495.21,0,0,1,29.16,58.3v0q6,14.45,11.2,29.25c3.7,10.57,7,21.29,9.94,32.09a501.28,501.28,0,0,1,13.11,64.52h0v0l0,.16v0q2.05,15.44,3.22,31c.87,11.65,1.27,23.34,1.33,35a497.33,497.33,0,0,1-4.34,67.05h0q-2.16,16-5.29,31.76c-2.21,11.13-4.86,22.17-7.83,33.13a497,497,0,0,1-21.23,61.54l.07-.18q-6.11,14.48-13.07,28.57c-4.88,9.88-10.14,19.56-15.66,29.09A502.14,502.14,0,0,1,904,842.43a517.26,517.26,0,0,1-42.12,47.9,501.21,501.21,0,0,1-47.73,42.07l.15-.12a512.09,512.09,0,0,1-52.53,35.57,493.56,493.56,0,0,1-53.05,27q-12.57,4.57-25.27,8.75c-6,2-12,3.92-18,5.67-6.5,1.88-13,3.63-19.59,5.3-12,3.07-24.19,5.74-36.37,8.17-13,2.58-26,4.66-39.13,6.46q-16.19,2.13-32.48,3.16c-11,.72-22,1-33,1.05a470.65,470.65,0,0,1-64.49-4.16q-15.79-2.19-31.43-5.32c-11-2.21-22-4.87-32.87-7.84l-3.6-1-3-.64c-2.36-.51-4.66-1.23-7-1.91-5.47-1.61-10.91-3.34-16.32-5.13s-10.75-3.7-16.09-5.67c-5.09-1.89-10.11-4-15.11-6.07l.06,0q-14.4-6.12-28.41-13.09c-9.31-4.62-18.45-9.59-27.46-14.79-2.21-1.28-4.47-2.5-6.69-3.77s-4.35-2.54-6.5-3.86c-4.76-2.92-9.46-5.95-14.12-9-8.76-5.79-17.34-11.86-25.67-18.26l.15.12a517.3,517.3,0,0,1-46.59-40.77c-7.63-7.52-14.94-15.35-22.07-23.34-7.56-8.47-14.79-17.23-21.75-26.19v0q-9.57-12.41-18.41-25.35c-6.19-9.07-12-18.38-17.6-27.84S69,770.36,64.08,760.5s-9.56-19.82-13.84-30l.09.21a508.48,508.48,0,0,1-20.94-60.56A500.56,500.56,0,0,1,16,604.28,516.78,516.78,0,0,1,11.51,539a497.34,497.34,0,0,1,4.21-66h0q2.17-15.93,5.31-31.7c2.22-11.15,4.89-22.21,7.91-33.16A522.23,522.23,0,0,1,50.64,346l-.13.31q6.13-14.51,13.11-28.62c5-10.05,10.36-19.9,16-29.58a507.2,507.2,0,0,1,36.23-53.63,543.28,543.28,0,0,1,42.61-48.62,506,506,0,0,1,50.14-44.26l-.05,0c7.84-6,15.83-11.84,24-17.38,8.7-5.88,17.62-11.44,26.68-16.77A489.5,489.5,0,0,1,315.9,79l-.12,0q14.78-6.21,29.91-11.5c10.7-3.74,21.54-7.06,32.46-10.06a500.31,500.31,0,0,1,64.61-13.11q15.45-2.06,31-3.22ZM969,344.94l0,.06,0-.06Zm34.34,126.16,0-.13v0c0,.05,0,.1,0,.16ZM315.9,79l.06,0-.06,0Z"/><path class="cls-1" d="M424.51,26.28q-20.49,3.29-40.6,8.29a7,7,0,0,0-1.71-2.81,6.71,6.71,0,0,0-5-2.05l-3.86.43a11.24,11.24,0,0,0-3.7.79L366.36,32c-4.75,1.52-9.47,3.15-14.17,4.83-9.44,3.37-18.72,7.12-27.93,11.06-13.69,5.75-27.13,12-40.29,18.9Q263.82,77.34,244.6,89.53A487.75,487.75,0,0,0,199,122.21q-3,2.32-5.93,4.67-3.81,2.91-7.58,5.88c-2.87,2.26-5.62,4.63-8.37,7-5.89,5.13-11.62,10.44-17.26,15.84-10.83,10.38-21.13,21.29-31,32.59A502.31,502.31,0,0,0,36.45,344.76q-8.15,22-14.09,44.75c-3.88,14.87-7,29.94-9.46,45.1a493.57,493.57,0,0,0-6.27,94.32c.46,16.25,1.6,32.46,3.51,48.61,1.84,15.65,4.46,31.23,7.61,46.67s7.06,30.83,11.53,46a458.66,458.66,0,0,0,15.65,44.66,332.26,332.26,0,0,0,20,41,417.45,417.45,0,0,0,25.92,38.82q2.37,3.19,4.82,6.32,6.78,9.91,14,19.5l1.44,1.9a490.31,490.31,0,0,0,49.55,56.4,526.06,526.06,0,0,0,70.41,57.39,487.77,487.77,0,0,0,81.35,45,527.89,527.89,0,0,0,88.23,29.27,510.12,510.12,0,0,0,94,13.12c9.7.48,19.41.61,29.11.52s19.27-.33,28.89-.86a503.93,503.93,0,0,0,56.82-6.66c18.81-3.2,37.43-7.39,55.86-12.29,9.29-2.47,18.47-5.27,27.57-8.33,2.43-.82,4.84-1.66,7.26-2.52,2.88-1,5.69-2.17,8.5-3.37,4.27-1.82,8.5-3.75,12.71-5.7a13.58,13.58,0,0,0-13.71-23.45l-5.26,2.28c-4.25,1.77-8.51,3.51-12.69,5.44-4,1.86-8.1,3.64-12.19,5.38-9.11,3.8-18.27,7.42-27.56,10.75-9.52,3.42-19.25,6.28-29,9a455.5,455.5,0,0,1-58.83,11.86c-10.19,1.35-20.39,2.51-30.63,3.33-11,.88-22,1.13-33,1.15a482.26,482.26,0,0,1-64-4.26,477.38,477.38,0,0,1-62.38-12.6,500.25,500.25,0,0,1-168-83.57,513.26,513.26,0,0,1-90.4-89.82q-7.85-10.27-15.19-20.92Q87.95,781.3,78.53,763c-4.81-9.36-9.44-18.82-14-28.32C59.87,724.91,55.36,715,51.12,705l-1.47-3.5a504.06,504.06,0,0,1-19.91-56.81c-2.8-9.83-5.06-19.83-7.15-29.83s-3.75-20.2-5.15-30.37a490.06,490.06,0,0,1-4.35-65.21A497.76,497.76,0,0,1,116.7,216.49a524.47,524.47,0,0,1,42.69-48.62c7.62-7.66,15.54-15,23.64-22.19q6.17-5.45,12.36-10.87c3-2.59,6-5.05,9.11-7.48a520.65,520.65,0,0,1,47.71-32,460,460,0,0,1,54.91-27.62q8-3.35,16.12-6.44c6.51-2.48,13.12-4.69,19.76-6.81s13.57-4.18,20.41-6.08Q367.71,47.15,372,46l1.7-.44a12.37,12.37,0,0,0,3.52-1.2l2.56-1.17a6.75,6.75,0,0,0,.87-.4l.1,0h0a6.6,6.6,0,0,0,1.42-1.09,7,7,0,0,0,2.05-5,7,7,0,0,0-.14-1.39q20-5.31,40.41-9s0,0,0,0Zm-99.29,21.2-.5.21.5-.21ZM52.6,326.14l-.24.57.24-.57Zm-.29.68-.13.3.13-.3Zm151.81,582.9.32.25-.32-.25Zm108,62.57.92.39-.92-.39Z"/><path class="cls-1" d="M484.27,17.29c-11.39.53-22.75,1.54-34.09,2.73-11.09,1.15-22.13,2.71-33.12,4.58-10.64,1.81-21.22,3.85-31.74,6.26-5.09,1.16-10.13,2.54-15.16,3.93-5.41,1.49-10.79,3.09-16.15,4.77A503.6,503.6,0,0,0,295.59,62a370,370,0,0,0-55,31.09,389.11,389.11,0,0,0-48.71,39.57,0,0,0,0,0,0,0,717.26,717.26,0,0,1,62.3-39.3c10.9-6.14,22-12,33.15-17.57,11-5.51,22.14-10.75,33.49-15.55a506.77,506.77,0,0,1,60.08-20.73c10.75-3,21.54-5.73,32.44-8.11,11.5-2.51,23.14-4.4,34.8-6l-.32,0a477.62,477.62,0,0,1,64.81-4,497.45,497.45,0,0,1,63.47,4.39,516.11,516.11,0,0,1,62,12.39,471.14,471.14,0,0,1,61.24,21,482.68,482.68,0,0,1,56.75,28.58q13.94,8.2,27.3,17.34c8.9,6.06,17.55,12.47,26.08,19l-.11-.09c14.45,11.21,28.44,23,42,35.24,13.77,12.37,27.18,25.19,39.95,38.58,0,0,0,0,0,0-6.33-8.55-12.91-16.91-19.86-25-7.23-8.37-14.87-16.38-22.83-24.07a398.51,398.51,0,0,0-51.14-41.36A520.58,520.58,0,0,0,679.83,47.16c-10.42-3.79-21-7.18-31.62-10.33s-21.49-5.94-32.37-8.38a491.39,491.39,0,0,0-64.52-9.88Q530,16.7,508.56,16.72q-12.15,0-24.29.57ZM699.52,59.37l.18.07-.18-.07Z"/><path class="cls-1" d="M487,17.28c-11.36.49-22.7,1.41-34,2.66-10.8,1.2-21.55,2.68-32.27,4.5a491.06,491.06,0,0,0-64.26,15.44q-15.87,5-31.35,11.11c-10.2,4.06-20.23,8.55-30.08,13.38A416.45,416.45,0,0,0,238,98.74c-1.06.75-2.11,1.5-3.16,2.26a0,0,0,0,0,0,0Q253,90.2,272,80.76c6.42-3.2,12.91-6.26,19.42-9.27s12.81-5.79,19.28-8.54A570.86,570.86,0,0,1,377,39.63,497.29,497.29,0,0,1,445.5,25.53l-.46.06a498.13,498.13,0,0,1,130.6.32l-.62-.08c10.68,1.46,21.33,3.23,31.9,5.39,10.95,2.24,21.81,4.89,32.58,7.87a503.72,503.72,0,0,1,61.59,21.59l-.46-.19c9.69,4.12,19.27,8.49,28.67,13.24,9.86,5,19.52,10.33,29,16a539.42,539.42,0,0,1,54.13,36.77q13.73,10.65,26.73,22.21c9.16,8.14,18,16.69,26.58,25.41a601.25,601.25,0,0,1,47.57,54l0,0Q923,240.73,932,254s0,0,0,0q-8.31-14.36-17.52-28.14c-6-8.9-12.26-17.55-18.81-26q-10.08-13-21.16-25.21c-7.38-8.09-15.16-15.81-23.14-23.3s-16.2-14.66-24.62-21.6S810,116.26,801.23,110a489.76,489.76,0,0,0-56.07-34.54q-14.65-7.73-29.78-14.54-14.84-6.71-30.11-12.41a502.08,502.08,0,0,0-63.94-19.06,512.05,512.05,0,0,0-65.91-10.52q-23-2.16-46.08-2.14-11.16,0-22.31.48ZM310.85,62.88l-.11,0,.11,0ZM700.63,60.5l-.2-.09.2.09Z"/><path class="cls-1" d="M820,128.32c15,13.67,29.45,27.92,43.22,42.81s26.79,30.42,39.2,46.43a541.26,541.26,0,0,1,35.67,52.58q8.12,13.61,15.28,27.77c5,9.85,9.55,19.89,13.84,30l-.27-.64q6.13,14.63,11.33,29.6c3.62,10.43,6.84,21,9.75,31.64a502.34,502.34,0,0,1,13.05,64.38q2.13,16.07,3.22,32.25c.72,10.94,1,21.91,1,32.88a497.71,497.71,0,0,1-4.42,65.49l0-.16,0,.21-.06.46,0-.29a523.28,523.28,0,0,1-13.42,66A494,494,0,0,1,966.22,711l.25-.58a511.4,511.4,0,0,1-29.28,58.47c-2.69,4.61-5.5,9.14-8.29,13.68-3.14,5.11-6.4,10.15-9.72,15.15-6.33,9.52-13,18.79-20,27.86l.18-.24c-3.36,4.34-6.76,8.66-10.29,12.87s-7,8.19-10.58,12.21c-7.18,8-14.63,15.83-22.26,23.44s-15.52,15-23.59,22.14q-6.06,5.37-12.29,10.54c-4.2,3.5-8.54,6.86-12.86,10.2l.14-.11q-5.35,4.13-10.76,8.17c-4.06,3-8.19,6-12.28,9,0,0,0,0,0,0a351.39,351.39,0,0,0,30.92-21.33q14.19-10.84,27.64-22.57c9.22-8.08,18.08-16.56,26.62-25.36s16.6-18,24.52-27.4,15.33-18.87,22.5-28.69c7.33-10,14.28-20.35,20.75-31a503.12,503.12,0,0,0,56.68-133.8c3.24-12.32,5.94-24.79,8.22-37.32s3.88-24.95,5.14-37.5a499.4,499.4,0,0,0,1.62-77.42,528.85,528.85,0,0,0-9.78-76.13,501.86,501.86,0,0,0-20.73-72.54,525.25,525.25,0,0,0-30.78-67.92C942,263.81,935.56,253,928.79,242.43c-3.17-4.95-6.52-9.78-9.89-14.59-3.65-5.2-7.42-10.31-11.26-15.36q-10.9-14.34-23.11-27.61c-8.25-9-17-17.55-26-25.79A381.45,381.45,0,0,0,820,128.29h0s0,0,0,0Zm180.86,455.45,0-.17v-.05l0,.22Z"/><path class="cls-1" d="M487.38,13.84c-8.25.38-16.47,1.11-24.68,2-15.55,1.64-31,3.7-46.41,6.55C400.57,25.28,385,29,369.65,33.43a468.72,468.72,0,0,0-45.14,15.64,496.24,496.24,0,0,0-83.35,42.58,509.59,509.59,0,0,0-72,56.07Q152.27,163.46,137,180.81c-9.9,11.25-19.23,23-28.16,35a493.16,493.16,0,0,0-48.07,79.8c-3.85,8-7.44,16.08-10.86,24.25-3.85,9.18-7.55,18.41-11,27.75a495.93,495.93,0,0,0-16.64,55.61A475.1,475.1,0,0,0,9.75,520.82a0,0,0,0,0,0,0,534.08,534.08,0,0,1,4.69-67.15l0,.16a532.91,532.91,0,0,1,13-64.78,496.32,496.32,0,0,1,21.78-63.52A512.71,512.71,0,0,1,113,218.27l-.37.49q9.63-12.38,20-24.11c7.32-8.27,15-16.21,22.78-24a500.7,500.7,0,0,1,47.74-42A516,516,0,0,1,314.94,63.41,510.64,510.64,0,0,1,442.82,28.9Q449.91,28,457,27.22c5.65-.6,11.35-.91,17-1.24,10.86-.62,21.73-1,32.61-1a487.73,487.73,0,0,1,64.09,4,516.59,516.59,0,0,1,60.07,11.87,445.39,445.39,0,0,1,59.58,20A532.56,532.56,0,0,1,745.9,88.38,481,481,0,0,1,799.33,124l5,3.89-.46-.35a542,542,0,0,1,95.66,95.53,502.44,502.44,0,0,1,33.21,49.66,464.23,464.23,0,0,1,27.1,53.85c4.17,9.94,8.17,19.95,11.81,30.11,3.83,10.71,7.36,21.52,10.45,32.47a508.58,508.58,0,0,1,13.9,66c.62,5,1.15,10,1.76,14.94.68,5.57,1.23,11.16,1.73,16.75s.7,11.51.91,17.26.29,11.45.32,17.18a495.8,495.8,0,0,1-4.28,67q-.83,6-1.82,12a8.1,8.1,0,0,0-.63.56,7.82,7.82,0,0,0-2.06,3.63h0q-.74,3-1.52,6.06c-.21,1.25-.43,2.51-.66,3.77s-.45,2.51-.69,3.76c-.92,5-1.95,10-3,14.94-2.06,9.87-4.5,19.65-7.13,29.38-2.59,9.54-5.51,19-8.67,28.35q-1,2.85-2,5.67-1.63,4.1-3.34,8.18-4.59,10.78-9.66,21.34l-1.35.57a8.86,8.86,0,0,0-3.17,3.17c-3.3,7.51-6.85,14.88-10.59,22.17q-1.7,3.33-3.45,6.64a9.06,9.06,0,0,0-2.94,3.05c-6.35,11.07-12.8,22.07-19.55,32.91q-1,1.6-2,3.19l-1,1.38a12,12,0,0,0-2,.37,12.1,12.1,0,0,0-5.34,3.11l-2.69,2.67-2,2.57q-1.09,1.56-2.2,3.13c-1.84,2.6-3.71,5.17-5.6,7.73s-3.6,5.21-5.39,7.83c-1.9,2.79-3.85,5.54-5.89,8.23q-7.82,10-16.1,19.66c-4.6,5.35-9.37,10.55-14.24,15.67q-2.84,2.58-5.72,5.12c-3.34,3-6.43,6.18-9.65,9.26l0,0a8.56,8.56,0,0,0-1.91,2.78c-9.4,8.79-19.25,17.12-29.39,25l-3.45,2.62a458.69,458.69,0,0,1-89.59,50.47q-6.13,2.56-12.31,5c-4.63,1.81-9.38,3.38-14.1,5-10.09,3.41-20.29,6.46-30.61,9.1s-20.81,4.85-31.27,7q-14.51,3-29.18,5l-2,.26q-2.69.32-5.37.7-3.9,1.13-7.81,2.22a12.87,12.87,0,0,0-4.93,2.64l-1,.1-2.87.39a16,16,0,0,0-3.21,1.44,10.84,10.84,0,0,0-4.36,4.4l-2,.7v0a5.62,5.62,0,0,0-1.22.51q-19.4,1.63-38.89,1.77a451.38,451.38,0,0,1-61-3.9c-8.71-1.19-17.4-2.54-26-4.13-4.14-.76-8.3-1.47-12.44-2.25-2.39-.45-4.77-1-7.18-1.35s-5-.84-7.52-1.27a7.4,7.4,0,0,0-3.93,14.27c3.64.94,7.28,1.92,11,2.62,3.54.68,7.1,1.3,10.66,1.89,7.84,1.32,15.76,2.2,23.66,3,15.4,1.59,30.91,2.21,46.39,2.38,15.88.18,31.77-.41,47.6-1.65,6.24-.49,12.47-1.07,18.69-1.77a9.68,9.68,0,0,0,1.69.32l2,.23a10.32,10.32,0,0,0,5,3.23l1.2.34a10.85,10.85,0,0,0,5.74,0l1-.17a12.51,12.51,0,0,0,2,.76,12.92,12.92,0,0,0,3.87.44c3.73-.06,7.59,0,11.25-.71q5.12-1,10.21-2.18,12-2.67,23.81-5.87c15.18-4.11,30-9.41,44.66-15s29.32-12.05,43.67-18.76c14.07-6.58,27.79-13.91,41.22-21.71s26.33-16.18,39-25q6.76-4.72,13.35-9.69c5.52-4,10.94-8,16.34-12.15q9.25-7,18.19-14.46a8.73,8.73,0,0,0,3.76-2.22q3.66-3.08,7.28-6.21c2.89-2.5,5.49-5.34,8.14-8.08,11.45-10.22,22.44-21,33-32.14,4.8-5.09,9.67-10.11,14.43-15.23q1.22-1.47,2.43-2.95c1.21-1.48,2.4-3,3.6-4.46s2.37-3,3.55-4.5l2-2.57q.88-1.69,1.74-3.4a12.16,12.16,0,0,0,1.22-2.89h0v0a12.23,12.23,0,0,0,.43-3.19,12,12,0,0,0-.22-2.31q0-.23-.09-.45l1.8-2.73,2.21-3a340.8,340.8,0,0,0,21.11-32,8.81,8.81,0,0,0,1.19-4.26c.94-1.53,1.87-3.06,2.77-4.61,4.43-7.61,8.62-15.36,12.74-23.14a8.57,8.57,0,0,0,.89-6.81q-.08-.28-.17-.55,4.2-9.31,8.07-18.75,2.69-6.55,5.19-13.17c4.08-9.77,7.92-19.62,11.44-29.61s6.7-20.3,9.57-30.59c1.53-5.49,2.91-11,4.21-16.57.58-2.47,1.13-5,1.67-7.44.17-1.27.34-2.55.51-3.82.2-1.54.38-3.08.57-4.62a6.91,6.91,0,0,0-1.2-4.27q2.25-12.91,3.91-25.92c2-15.76,3.2-31.62,3.71-47.5s-.07-31.8-.85-47.69c-.36-7.34-.92-14.64-1.76-21.93-.95-8.16-2-16.3-3.23-24.42-2.35-15.66-5.55-31.17-9.42-46.53s-8.37-30.32-13.65-45.13c-5.22-14.64-11.26-29-17.9-43s-14.06-28-22-41.55a466.22,466.22,0,0,0-26.2-39.82q-6.95-9.53-14.19-18.83c-4.94-6.33-10.11-12.47-15.38-18.53a463.5,463.5,0,0,0-32.66-33.71c-11.53-10.82-23.63-21-36.15-30.62A467.54,467.54,0,0,0,782.33,90.7,503.41,503.41,0,0,0,696.2,48.2,532.15,532.15,0,0,0,604.72,22c-15.45-2.9-31.05-5-46.7-6.46q-23.71-2.23-47.54-2.28h-.2c-7.64,0-15.27.22-22.9.57ZM315.86,63l-.47.2.47-.2ZM204,128l-.35.27L204,128ZM964.71,705.18l-.21.49.21-.49ZM591.51,996.46l-1.06.14,1.06-.14Z"/><path class="cls-1" d="M108.47,816.27a1.31,1.31,0,0,0-.19,1.61h0q2.11,3.3,4.25,6.58c1.55,2.38,3.25,4.68,4.91,7,3.47,4.84,7.1,9.57,10.8,14.23,7.38,9.29,15.27,18.18,23.51,26.71,4,4.13,8.23,8.05,12.46,11.93q6.88,6.3,14,12.34c8.95,7.61,18.2,14.85,27.63,21.86a517.31,517.31,0,0,0,59.27,37.95c5,2.73,10,5.36,15,8,5.55,2.88,11.18,5.63,16.83,8.29,10.61,5,21.41,9.58,32.34,13.83a490.45,490.45,0,0,0,68.14,20.84c11.68,2.68,23.5,4.82,35.35,6.6s23.49,3.11,35.31,3.95a494.39,494.39,0,0,0,73.27-.37c5.86-.46,11.72-1,17.56-1.7s11.72-1.33,17.57-2.12c11.92-1.61,23.75-3.77,35.51-6.3a508.57,508.57,0,0,0,132.37-48.67,478,478,0,0,0,112.07-82.93q1.85-1.83,3.67-3.69a0,0,0,1,0,0,0A533.83,533.83,0,0,1,815,911.21l.11-.08A509.81,509.81,0,0,1,704,976.45l-.08,0,.07,0-.18.08,0,0a490.94,490.94,0,0,1-61.74,21.36,521.88,521.88,0,0,1-66,13.18h.06q-7.85,1-15.73,1.87c-5.35.56-10.73.88-16.11,1.21-11.2.68-22.42.92-33.64.86a530,530,0,0,1-66.52-4.77,511.41,511.41,0,0,1-128.8-35.08q-13.9-5.9-27.44-12.59c-9.34-4.61-18.46-9.63-27.44-14.9a485.66,485.66,0,0,1-50.2-34l.07.06q-13.25-10.27-25.78-21.44c-4.29-3.8-8.52-7.68-12.66-11.64q-6.74-6.46-13.33-13.09c-4-4-8.07-8-12.05-12.08q-6.47-6.59-12.77-13.34-5.85-6.24-11.55-12.61-2.86-3.18-5.68-6.39c-2-2.31-4.12-4.58-6.16-6.89a1.2,1.2,0,0,0-.91-.39,1.39,1.39,0,0,0-1,.39ZM703.85,976.51l.06,0-.06,0Z"/></g><g id="Draw_Layer-2" data-name="Draw Layer"><path class="cls-1" d="M341.94,252.73q-13,.37-26,1.53a129,129,0,0,0-25,4.46,38.88,38.88,0,0,0-12,5.35c-5,3.65-7.56,9.31-9.67,15-2.59,6.94-3.74,14.23-5,21.49-.84,4.87-1.25,9.82-1.81,14.73-.5,4.34-.68,8.71-1,13.07-.6,8.3-.87,16.63-1.12,25-.55,17.55-.87,35.12-1.3,52.67-.39,16.11-.87,32.27-2.73,48.29-.31,2-.63,4-1.1,6a67.67,67.67,0,0,1-2.11,7.08q-.44,1-.9,2a38.25,38.25,0,0,1-3.81,6.22,44.92,44.92,0,0,1-5.59,5.62,54.31,54.31,0,0,1-9,5.29,124.33,124.33,0,0,1-23.32,6.45c-9,1.67-18,3.34-27,5.12-16.69,3.3-33.26,7.22-50,10.47-5.23,1-10.46,2-15.67,3.08-2.26.46-4.51,1-6.74,1.58-1.21.34-2.41.72-3.6,1.12-3.23,1.1-7,2.73-8.64,6-.82,1.64-1.78,3.7-1.57,5.63.11,1,.25,2,.41,3.07a10.68,10.68,0,0,0,2.76,4.73c3.09,3.41,7.9,3.71,12.18,4,2.87.22,5.75.26,8.63.36,5.24.18,10.44.59,15.66,1l-2.74-.36c4.1.55,8.21,1,12.29,1.75,4.65.82,9.28,1.66,13.9,2.63q12,2.5,23.82,5.7c8.59,2.32,17.23,4.59,25.66,7.48,8.27,2.84,16.45,5.85,24.52,9.23l.56.23c6.24,2.7,12.74,5.27,18.36,9.17a27.53,27.53,0,0,1,2,2,60.21,60.21,0,0,1,5.23,10.22l2.15,5.78c.87,2.32,1.47,4.76,2.2,7.13.54,1.75.89,3.58,1.33,5.36s1,3.66,1.31,5.52q2.61,13.59,4.91,27.21,4.54,26.72,8.85,53.47,2,12.34,4,24.68c1.43,8.52,2.77,17.06,4.5,25.52a75.62,75.62,0,0,0,3.51,11.5,102.69,102.69,0,0,0,5.95,12.92,83.7,83.7,0,0,0,7.88,11.95,26.58,26.58,0,0,0,7,6.11,27.24,27.24,0,0,0,4.52,2c1.26.46,2.53.87,3.82,1.24A71.11,71.11,0,0,0,333,789.48c14.39,1.86,29,1.44,43.42.82,6-.26,12-.63,18-1.06,3.27-.23,6.53-.47,9.79-.77a28.32,28.32,0,0,0,4.24-.57,2.46,2.46,0,0,0,1.47-1,3.51,3.51,0,0,0,.27-1.72,9.48,9.48,0,0,1,.52-1.76,7.3,7.3,0,0,1,.75-1.24l-.08.11a4.61,4.61,0,0,1,1.16-1.07l-.14.11.55-.25.59-.1.81,0a25.43,25.43,0,0,1,5.47,1.63h0a10.66,10.66,0,0,1,1.56.88l.18.22s0,0,0,0a6,6,0,0,0-2.36-1.79,25.64,25.64,0,0,0-3.77-1.68,4.79,4.79,0,0,0-5.08.76,10.2,10.2,0,0,0-2.72,3.64c-1.53,0-3.11-.35-4.61-.51-2-.22-3.92-.43-5.88-.66-4.28-.5-8.56-1-12.85-1.58q-12.07-1.65-24.07-3.68c-1.71-.29-3.4-.67-5.1-1s-3.69-.69-5.52-1.14a154.3,154.3,0,0,1-18.85-5.48,36.49,36.49,0,0,1-5-2.67c-.39-.37-.75-.76-1.11-1.16a77,77,0,0,1-6.93-13.05,146.74,146.74,0,0,1-7-21.24c-2-8.35-3.51-16.78-5.1-25.2-3.25-17.19-6.19-34.45-9.05-51.71q-2.09-12.63-4.1-25.26c-.7-4.45-1.34-8.92-2.13-13.36S289,608,288,603.66l-1.83-7.94c-.46-2-1.1-4-1.68-5.91a120,120,0,0,0-4.53-12.38c-1-2.46-2.13-4.88-3.27-7.29a38.86,38.86,0,0,0-5.35-7.8,29.54,29.54,0,0,0-7.87-6.21,58.54,58.54,0,0,0-6.47-3.07c-2.65-1.16-5.34-2.24-8-3.32-8-3.18-15.91-6.35-23.95-9.3-8.31-3.05-16.79-5.61-25.29-8.05-7.93-2.29-15.94-4.35-24-6.33Q171.36,525,167,524q10.43-2.09,20.86-4.15c8.46-1.66,17-3.1,25.44-4.67a139.88,139.88,0,0,0,24.26-6.4,91.06,91.06,0,0,0,12.21-5.52,59.92,59.92,0,0,0,8-5.67,41,41,0,0,0,6.64-6.61,66.07,66.07,0,0,0,5.12-7.31,46.24,46.24,0,0,0,3.39-7.47,42.48,42.48,0,0,0,2-6.18,73,73,0,0,0,1.6-14.44c0-4.26-.08-8.52-.18-12.78q-.31-13.47-.51-27c-.26-17.68-.55-35.36-.47-53,0-8.61.29-17.23.58-25.84.29-8.37.72-16.74,1.58-25.07l.73-7.13q.69-4.36,1.36-8.72a89.1,89.1,0,0,1,4.67-18,27.31,27.31,0,0,1,2.05-3.73,22.47,22.47,0,0,1,1.77-1.76,42,42,0,0,1,7.29-4c2.83-1,5.67-2,8.53-2.91a89.23,89.23,0,0,1,9.12-2.2c5.83-1.21,11.71-2.06,17.6-2.88,8-1,16-2,24-2.43,8.67-.49,17.32-.68,26-.67,17.14,0,34.21,1.8,51.31,2.79a0,0,0,1,0,0,0L419,258.58h0c-8.43-1.17-16.84-2.49-25.3-3.43s-17-1.69-25.45-2.1q-8.71-.43-17.39-.44-4.48,0-9,.12ZM235.68,566.09l1.43.6-1.43-.6Zm178,214.81-.11,0,.11,0Zm-29.38.94.82.11-.82-.11Zm34.8-523.24h0Z"/><path class="cls-1" d="M386.24,258.87a110.26,110.26,0,0,0-15.49,3.25,145.75,145.75,0,0,0-21.86,8.19c-3.37,1.55-6.75,3.07-10.06,4.74-9.08,4.59-18.14,9.28-26.32,15.38a60.42,60.42,0,0,0-10.36,9.74,57.06,57.06,0,0,0-8,13c-4.31,9.46-5.94,19.78-6.8,30.07a126.13,126.13,0,0,0-.13,20.72q.46,5.72.94,11.44c.26,3.15.86,6.3,1.3,9.43.36,2.5.7,5,1.14,7.48q1.76,10.06,3.48,20.13c1,5.81,1.76,11.64,2.55,17.48a91.18,91.18,0,0,1,.35,21.83A48.25,48.25,0,0,1,294.32,462a39,39,0,0,1-3.7,6.25,49.85,49.85,0,0,1-7.1,6.87A130.65,130.65,0,0,1,269,484.36c-4.31,2.41-8.71,4.75-13.23,6.73l-12,5.28-11.62,4.35c-1.28.48-2.61.81-3.91,1.2l-7.54,2.27c-1.34.41-2.75.65-4.12,1l-7.38,1.67c-1.71.38-3.47.58-5.2.86l-5.68.93c-4,.48-7.91,1-11.87,1.38q-7.73.77-15.46,1.51-6.58.62-13.17,1.15c-2.16.18-4.32.35-6.49.5l-3.49.23c-3.47.25-7.66.41-10,3.39l-1.5,1.93a9.57,9.57,0,0,0,3.43,13.09,16,16,0,0,0,3.64,1.34c1.17.21,2.32.32,3.5.45l2.9.3c1,.1,2,.23,3,.35,14.14,2.29,28.14,5.54,41.44,11a133.58,133.58,0,0,1,26.85,15.41,134.05,134.05,0,0,1,13.72,12.48,207.31,207.31,0,0,1,13.94,16.4c7.63,10,14.92,20.18,22.19,30.41,3.32,4.66,6.29,9.57,9.4,14.37a225.83,225.83,0,0,1,17.58,33.61c1.65,4,3.12,8,4.64,12,1.11,3,2.32,5.9,3.32,8.9,2.44,7.37,4.89,14.72,7.15,22.14,4.42,14.51,8.23,29.19,12.7,43.67a148,148,0,0,0,8.23,21.25,36.92,36.92,0,0,0,3.66,5.83,45,45,0,0,0,5.08,5.89,32.39,32.39,0,0,0,6.06,4.37,38.94,38.94,0,0,0,7.88,3.32,35.22,35.22,0,0,0,7.59,1.22,39.47,39.47,0,0,0,7.46-.28,61.08,61.08,0,0,0,7.75-1.34,57.59,57.59,0,0,0,8.07-2.8,144.75,144.75,0,0,0,13.72-6.41c4.47-2.39,8.84-5,13.18-7.65,6.11-3.7,12.25-7.36,18.32-11.15l20.94-13.07q9.89-6.17,19.81-12.32s0,0,0,0q-16.63,7.77-33.33,15.4c-13.73,6.25-27.46,12.49-41.32,18.46-3.62,1.5-7.28,2.81-11,4.06a78.59,78.59,0,0,1-12.1,3.18,52.24,52.24,0,0,1-10.41.13,32.4,32.4,0,0,1-5.29-1.4,34.88,34.88,0,0,1-5.43-3.15,30.51,30.51,0,0,1-3.24-3.33c-.87-1.19-1.69-2.41-2.47-3.67a35.24,35.24,0,0,1-2.18-4.36,259.35,259.35,0,0,1-9.11-27.91c-2.2-7.8-4.5-15.57-6.77-23.36q-2.77-9.49-5.89-18.9-2.07-6.29-4.16-12.57c-1.13-3.43-2.53-6.79-3.8-10.18l-2.33-6.24c-1.16-3.09-2.49-6.12-3.78-9.16a254.69,254.69,0,0,0-14.59-28.76c-2-3.37-4.22-6.62-6.33-9.92-1.57-2.46-3.08-5-4.76-7.39-4.29-6.12-8.54-12.28-12.94-18.33-8.66-11.92-17.24-23.95-27.35-34.7a138.79,138.79,0,0,0-17.07-15.05,123,123,0,0,0-20.24-12.4c-3.69-1.82-7.48-3.45-11.28-5-2.48-1-5-2-7.57-2.84l2-.33c7.31-1.21,14.54-2.72,21.78-4.27,1.46-.31,2.91-.77,4.36-1.16l6.68-1.78c1.26-.33,2.49-.81,3.73-1.22l7.2-2.37c3.49-1.15,6.89-2.65,10.32-4s6.59-2.77,9.86-4.25c5.11-2.31,10.14-4.64,15.1-7.27,4.28-2.27,8.44-4.76,12.48-7.41a78.81,78.81,0,0,0,12.18-9.64A41.45,41.45,0,0,0,302.5,469a48.24,48.24,0,0,0,4.16-15.67c1-8.52.16-17.3-1.11-25.75l-1.79-11.89c-.62-4.12-1.5-8.22-2.24-12.32-.89-4.91-1.84-9.81-2.77-14.71-.83-4.38-1.41-8.81-2.07-13.21q-.56-6.15-1.1-12.31a122.18,122.18,0,0,1-.28-12.51,148.82,148.82,0,0,1,1.24-16.83,80.09,80.09,0,0,1,4.8-18.51,58.21,58.21,0,0,1,6.14-10.77,65.9,65.9,0,0,1,4.35-5,61,61,0,0,1,6.24-5.4,188,188,0,0,1,21.87-13.59,247.74,247.74,0,0,1,23.44-11.71,123.94,123.94,0,0,1,28.15-8.17,50,50,0,0,1,12.58-.27,29.24,29.24,0,0,1,5.66,1.53,21.4,21.4,0,0,1,3.88,2.26h0a16.45,16.45,0,0,1,1.9,2h0a7.12,7.12,0,0,1,.92,1.48h0c.37.87.72,1.73,1.08,2.59,0,0,0,0,0,0a20.18,20.18,0,0,0-1.7-4.3,10.67,10.67,0,0,0-2.73-3,25.17,25.17,0,0,0-12.24-4.52,40,40,0,0,0-5-.3,78.18,78.18,0,0,0-9.64.72Zm18,1.61h0Zm-96.87,44.25-.28.35.28-.35ZM296.71,430.32l0,.36,0-.36Zm-104,114.22.53.23-.53-.23Zm54.84,43.4,1.15,1.49-1.15-1.49Z"/><path class="cls-1" d="M342.84,251.29c-4.32,1.51-8.59,3-12.83,4.77-4.46,1.82-8.84,3.78-13.22,5.77a110.59,110.59,0,0,0-26,16.16A75.88,75.88,0,0,0,279,290.71a60.63,60.63,0,0,0-8.9,16.48c-4.4,11.36-4.64,24-3.49,36,.68,7,1.94,14,3.13,21s2.65,13.73,4,20.6c.7,3.66,1.51,7.31,2.1,11s1.22,7.58,1.82,11.37c1.12,9.88,2.3,19.71,1.31,29.67a59.37,59.37,0,0,1-3.08,11.57,56.54,56.54,0,0,1-5.67,9.75,57.7,57.7,0,0,1-8,7.86,87.37,87.37,0,0,1-15.78,9c-9.55,3.86-19.51,6.77-29.32,9.89-8.58,2.73-17.15,5.45-25.74,8.1q-11.49,3.54-23.07,6.73c-8.53,2.34-17.06,4.75-25.66,6.83-13.2,3.2-26.43,6.1-39.87,8.14l3.11-.41-4.64.62.78-.11c-3.54.48-7.42.6-10.81,1.92a11.57,11.57,0,0,0-1.85.88h0A11.62,11.62,0,0,0,84,530.61a11.67,11.67,0,0,0,8.12,8.13c2.59,1,5.33.41,8,.05,1-.13,1.92-.27,2.88-.45,2.05-.38,4.11-.78,6.15-1.24l.67-.15c5.82-.47,11.65-.77,17.49-1,14.42-.68,29-.9,43.36.82a154.28,154.28,0,0,1,35.75,10.19,126.26,126.26,0,0,1,25.46,14.59,121,121,0,0,1,11.3,10.17,147.42,147.42,0,0,1,10.45,12.1c9.27,12.24,17.64,25.19,26.1,38,3.27,5,6.41,10,9.57,15,6.64,10.57,12.93,21.34,17.94,32.8a158.6,158.6,0,0,1,9.75,36.88c1.32,10.4,1.87,20.84,2.18,31.32A177.66,177.66,0,0,0,320.58,758a59.85,59.85,0,0,0,4.33,16.08,36.63,36.63,0,0,0,12.28,15.15c10.17,7.59,23.61,9.62,36,8.46s24.44-6,35.76-11.12c9.27-4.2,18.46-8.55,27.67-12.87,13.95-6.54,27.94-13,42.12-19h0l1.15-.48s0,0,0,0q-19.57,5-39,10.73-10.28,3-20.54,6.09l-11.72,3.52c-4.67,1.43-9.34,2.87-14.07,4.09-4.56,1.17-9.23,2-13.88,2.76a69.45,69.45,0,0,1-15.19.12A55.14,55.14,0,0,1,355,778.76a43.81,43.81,0,0,1-6.55-3.71,38.93,38.93,0,0,1-4.2-4.18,42.12,42.12,0,0,1-3-5.23,72.18,72.18,0,0,1-3.54-14.55c-1.1-9-1.5-18.08-2.38-27.11-.77-8-1.61-15.9-2.93-23.8a158,158,0,0,0-10.54-36.32c-6.53-15.19-15.5-29-24.35-42.91-4.16-6.53-8.47-13-12.85-19.35-8.25-12.06-16.34-24.23-25.76-35.43A124,124,0,0,0,231.43,542c-10.52-6.82-22.19-11.85-34-16.07a142,142,0,0,0-24.29-6.2l.6-.18c7.67-2.34,15.32-4.73,22.92-7.26q12.82-4.27,25.57-8.73c10.57-3.68,21.19-7.23,31.47-11.66a84.71,84.71,0,0,0,14.92-8.35,63.59,63.59,0,0,0,13.73-12.68,65,65,0,0,0,5.06-7.34,69,69,0,0,0,4-8.44C294,449,295,442.49,295.63,436c.77-8.39-.24-16.82-1.16-25.15-.53-4.84-1.23-9.64-2-14.45-1.13-7.35-2.51-14.65-3.89-22-.77-4.06-1.64-8.13-2.3-12.22q-1.1-6.77-2.2-13.55c-1.22-9.44-2.09-18.93-1-28.42a66.64,66.64,0,0,1,3.84-14.06,69.24,69.24,0,0,1,7.19-12.06A86.61,86.61,0,0,1,308,280.29a149.78,149.78,0,0,1,14.68-9.63c2.65-1.53,5.26-3.13,8-4.59,6.06-3.25,12.13-6.47,18.45-9.21A67.3,67.3,0,0,1,365,252.37a127.64,127.64,0,0,1,29.9.38l-.18,0a40.17,40.17,0,0,1,8.55,2.21s0,0,0,0a47.66,47.66,0,0,0-13.49-4.74,143.88,143.88,0,0,0-17.48-2.65q-3.08-.29-6.15-.29a70.29,70.29,0,0,0-23.29,4.07ZM100.1,514.93l-1.25.17,1.25-.17Z"/><path class="cls-1" d="M355,253.78a120,120,0,0,0-19.42,1.92,111.69,111.69,0,0,0-33.91,11.16,58.77,58.77,0,0,0-25,25.13A62.74,62.74,0,0,0,271,308.6a69.43,69.43,0,0,0-1.25,16.21c.23,4.7.52,9.37.92,14.06.38,4.54.82,9.08,1.24,13.61,1.69,18,4.28,35.91,6.95,53.8q.77,6,1.55,12c.56,4.28.88,8.6,1.31,12.9.4,4.09.55,8.21.81,12.31.11,1.88,0,3.79,0,5.67a97.87,97.87,0,0,1-.52,10.47,46.44,46.44,0,0,1-2,8.13c-.42.84-.88,1.64-1.38,2.44-.37.41-.74.8-1.14,1.17s-.89.53-1.35.77a31.39,31.39,0,0,1-4.6,1.18c-7.22.7-14.44.34-21.68.09-4.4-.15-8.81-.32-13.21-.48-8.25-.31-16.5-.52-24.75-.26-4.18.13-8.39.11-12.55.49l-15.58,1.43c-2.17.2-4.37.6-6.53.92l-9.64,1.41c-4.15.61-8.24,1.52-12.36,2.36-6.45,1.31-12.85,2.93-19.17,4.79-7.1,2.09-14.26,4.13-21.24,6.6-2.17.77-4.35,1.53-6.5,2.37a31,31,0,0,0-3.76,1.67,16.69,16.69,0,0,0-3.88,2.82q-1.16,1.48-2.3,3c-1.28,2.18-1.39,4.31-1.67,6.73a13.28,13.28,0,0,0,.68,4,12.38,12.38,0,0,0,3.62,5.67c2.29,2.15,5.19,3.21,8.12,4.16a23.63,23.63,0,0,0,2.48.49c1.83.31,3.73.58,5.57.78s3.94.39,5.92.5c8.29.45,16.59.9,24.83,1.9a113.48,113.48,0,0,1,25.59,6.43,87.82,87.82,0,0,1,15.71,9.38q3.5,2.79,6.82,5.78c2.47,2.22,5,4.52,7.22,6.94l5.52,5.91c3.33,3.56,6.64,7.1,9.81,10.79,3.35,3.89,6.78,7.73,10,11.71q5.23,6.43,10.46,12.85,5.47,7.37,10.92,14.74c.56.75,1,1.6,1.52,2.39L255,617l5.75,9.09c.41.65.72,1.37,1.08,2l2.84,5.39,5.28,10c1.28,2.42,2.29,5,3.42,7.5q1.92,4.21,3.83,8.42l3.45,8.91c1.95,5,3.74,10,5.32,15.15a164.65,164.65,0,0,1,5.66,24c.48,3.23,1,6.47,1.44,9.7.35,3.89.83,7.79,1,11.69.21,5,.4,9.89.5,14.84,0,2,0,4,.07,5.94,0,2.2.06,4.39.24,6.59a41.47,41.47,0,0,0,.84,5.5,24,24,0,0,0,2.46,5.77c1.53,2.91,4.16,5.15,6.73,7.09a30.06,30.06,0,0,0,7.59,4c5.92,2.26,12.21,3.08,18.49,3.54a124.94,124.94,0,0,0,18.08-.26q6.15-.44,12.28-1.28l15-2c4.67-.64,9.31-1.63,14-2.44,3.91-.68,7.8-1.45,11.69-2.2,16.48-3.17,32.93-6.5,49.49-9.22,0,0,0,0,0,0-16.8.79-33.6,1.78-50.41,2.46-8.68.35-17.37.6-26.06.86-4.56.14-9.15,0-13.72-.06a202.47,202.47,0,0,1-24.44-1.47A72.57,72.57,0,0,1,322,762.84a34.58,34.58,0,0,1-4.58-2.52c-.59-.52-1.15-1.07-1.69-1.65-.18-.29-.35-.58-.51-.88-.18-.57-.33-1.15-.47-1.73-.41-5.45-.3-11-.48-16.43-.14-4.08-.26-8.22-.71-12.28a296.46,296.46,0,0,0-5.36-33.88,182.8,182.8,0,0,0-8.25-26.7l-3.35-8.43c-.94-2.37-1.82-4.8-2.88-7.11-2.09-4.5-4.15-9-6.22-13.51-1.47-3.19-3.08-6.27-4.73-9.38l-4.19-7.94c-.65-1.22-1.23-2.53-2-3.69q-4.21-6.68-8.42-13.37c-.72-1.14-1.39-2.37-2.19-3.47l-3.69-5c-3.09-4.2-6.06-8.53-9.33-12.6-5.48-6.83-10.89-13.69-16.52-20.39-2.67-3.18-5.25-6.47-8-9.54l-10.84-11.9a137.39,137.39,0,0,0-23.24-20.23c-10.73-7.43-23.35-11.69-36-14.42-3.77-.81-7.58-1.44-11.4-2l3.91-1c2.42-.63,4.82-1.31,7.26-1.8l11.38-2.29c2.26-.45,4.55-.72,6.83-1l7.81-1.11,14.26-1.26c4-.36,8-.4,12-.53s8-.21,12.09-.14c4.26.08,8.52.13,12.77.29,4.43.16,8.86.35,13.29.48,7.23.23,14.5.67,21.72,0a61.41,61.41,0,0,0,9.78-1.66,29.57,29.57,0,0,0,5-2,26.58,26.58,0,0,0,7.21-5.08,31,31,0,0,0,3.2-4.08c2-2.69,3.14-6.11,4.13-9.27a55.64,55.64,0,0,0,1.65-9.59c.38-3,.52-6.08.62-9.12.09-2.8-.06-5.6-.11-8.39-.1-5-.45-10-.95-15-.63-6.22-1.26-12.42-2.08-18.61-1.59-12.14-3.47-24.23-5.24-36.33q-1.73-13.87-3.13-27.76-.75-7.61-1.49-15.23a107.56,107.56,0,0,1-.26-22.07,65,65,0,0,1,3.49-12.74,54.53,54.53,0,0,1,5.21-9,59,59,0,0,1,8.42-8.34,90,90,0,0,1,17.37-9.82,136.65,136.65,0,0,1,32-8.84,115.41,115.41,0,0,1,27.7.16,72.14,72.14,0,0,1,16.1,4.06h0a40.53,40.53,0,0,1,7.37,4.15A31.12,31.12,0,0,1,410.7,275a34.32,34.32,0,0,1,3.92,6.6,37.76,37.76,0,0,1,2.11,7.81v0c.06.53.11,1,.16,1.57a0,0,0,0,0,0,0,38.53,38.53,0,0,0-.63-7.21,29.5,29.5,0,0,0-2.16-6.41c-2-4.62-5.51-8.18-9.47-11.19s-9-5.1-13.76-6.76A108.23,108.23,0,0,0,371.81,255a110.19,110.19,0,0,0-16.57-1.21Zm1.16,8.52-.73.1.73-.1Zm26.21.22.37.05-.37-.05Zm16.2,4,.29.12-.29-.12Zm7.56,4.15.22.17-.22-.17Zm4.5,4.23.07.1-.07-.1Zm4,6.73v0Z"/><path class="cls-1" d="M312.68,275.51A70.19,70.19,0,0,0,287.38,293a61.17,61.17,0,0,0-14.18,26.58c-2.66,10.77-1.73,21.85-.11,32.69,1.24,8.32,3.15,16.56,4.87,24.79.58,2.75,1.17,5.49,1.63,8.26q.83,4.94,1.65,9.88.54,5,1.08,10c.31,2.9.42,5.8.58,8.71a151.21,151.21,0,0,1-.33,25.71,60.66,60.66,0,0,1-3.27,12.8,42.19,42.19,0,0,1-3.78,6.49,38,38,0,0,1-4.43,4.39,51.79,51.79,0,0,1-9,5.12c-13.52,5.36-28,7.41-42.3,9.73-6.55,1.06-13.13,2.06-19.66,3.27-7.58,1.41-15.16,2.76-22.68,4.4-5.23,1.14-10.42,2.26-15.57,3.69a137.57,137.57,0,0,0-14.61,5c-2.65,1.07-5.22,2.28-7.81,3.48a101.24,101.24,0,0,0-9.58,5.08c-3.95,2.38-7.95,5.42-9.1,10.11a10.23,10.23,0,0,0,.15,4.64,10,10,0,0,0,2.22,4c1.6,2,3.83,3,6.16,3.89,4.21,1.67,8.95,1.93,13.39,2.5,3.52.45,7.08.58,10.62.95s7.11.72,10.67,1.09a128.38,128.38,0,0,1,13.22,2.59,102.26,102.26,0,0,1,13.22,4.46,118.18,118.18,0,0,1,23.8,14,117,117,0,0,1,19.13,19.26c8.29,11,14.6,23.22,20,35.83,2.77,6.67,5.32,13.46,7.53,20.34,1.56,4.86,3.1,9.72,4.67,14.58,2.34,7.24,4.57,14.51,6.87,21.77q6.83,21.55,13.77,43.08c2.19,6.78,4.3,13.59,6.48,20.38,2,6.19,3.84,12.44,6,18.58q2.19,6.29,4.4,12.56c1.23,3.49,2.68,6.93,4.22,10.28A49.61,49.61,0,0,0,314.95,780a26.3,26.3,0,0,0,4.45,4.07,22.43,22.43,0,0,0,5.38,2.76,39.78,39.78,0,0,0,12.3,1.92,57.22,57.22,0,0,0,13.19-.53s0,0,0,0a47.68,47.68,0,0,1-8.42-.08l.11,0-4.7-.66c-1.29-.18-2.59-.41-3.88-.63a35.07,35.07,0,0,1-6.73-2,22.88,22.88,0,0,1-4.47-2.56,31.14,31.14,0,0,1-3.71-3.87,45.91,45.91,0,0,1-5.31-9.54,145,145,0,0,1-5.65-18c-.89-3.36-1.85-6.71-2.67-10.09q-2.69-11-5.48-22-5.74-22.46-12.12-44.72c-4.22-14.71-8.53-29.39-13.2-44-1.42-4.43-2.83-8.85-4.38-13.22a274.93,274.93,0,0,0-12.25-29.35,150.81,150.81,0,0,0-16.87-26.79,114.37,114.37,0,0,0-9.81-10.89,123.89,123.89,0,0,0-12.48-10.47,114.51,114.51,0,0,0-44.08-20c-5-1.09-10.11-1.73-15.21-2.4-4.41-.58-8.82-1.11-13.24-1.66-1.79-.25-3.57-.53-5.34-.89,1.45-.73,2.92-1.44,4.38-2.16l5.83-2.47-.34.15a146.54,146.54,0,0,1,23.83-6.79l13.55-2.62c3.51-.68,7.05-1.19,10.58-1.78,3-.5,6-1,8.94-1.47q12.44-1.91,24.88-3.8c6.95-1,13.87-2.2,20.72-3.8a103.1,103.1,0,0,0,14-4.28c2.56-1,5.08-2.1,7.53-3.33a46.66,46.66,0,0,0,7.76-5.16,37.07,37.07,0,0,0,5.06-4.72,48.47,48.47,0,0,0,4.62-6.33,52.18,52.18,0,0,0,5.8-16.09A107.64,107.64,0,0,0,299,426.07c-.19-7.16-.51-14.34-1.38-21.45q-.46-3.8-.93-7.59c-.22-1.78-.38-3.6-.7-5.36l-2.27-12.48c-.7-3.87-1.73-7.71-2.6-11.55-.77-3.39-1.51-6.79-2.27-10.18-1.18-5.28-2.32-10.57-3.12-15.93-.38-3.11-.69-6.22-.81-9.36a48.49,48.49,0,0,1,3.81-21.22,59,59,0,0,1,6.47-11,67.36,67.36,0,0,1,10.51-10.38,75.63,75.63,0,0,1,14.22-8.25,80.49,80.49,0,0,1,18.67-5.17,86.9,86.9,0,0,1,21.42.17l-.58-.08c14.76,2,29,6.53,43.16,10.94,0,0,0,0,0,0-19-8.23-38.6-16.84-59.64-17.38l-1.67,0a76.54,76.54,0,0,0-28.61,5.78ZM152.1,509.19l-1.35.57,1.35-.57ZM191,537.42l.46.19-.46-.19Zm23.7,14.1.48.37-.48-.37Z"/><path class="cls-1" d="M338.46,252.74c-4.54,1.46-8.93,3.34-13.36,5.11a85.42,85.42,0,0,0-26.4,16.88A83.94,83.94,0,0,0,288.26,287a107.87,107.87,0,0,0-8.56,14.3c-1,2-1.89,4.06-2.81,6.11-.8,1.76-1.61,3.51-2.28,5.31q-1.23,3.33-2.46,6.66c-.67,1.81-1.09,3.74-1.62,5.6a148.45,148.45,0,0,0-3.69,19.78c-.93,6.6-1.6,13.25-2.39,19.87l.05-.36c-.72,5.31-1.37,10.64-2.35,15.91-.53,2.85-.94,5.75-1.6,8.58s-1.22,5.92-2,8.81L256,406.44c-.84,3-1.9,5.85-2.85,8.77-1.67,5.14-3.7,10.15-5.69,15.17q-1.43,3.14-2.85,6.29a81.47,81.47,0,0,1-4.67,8.5,87.89,87.89,0,0,1-5,7.34,66.32,66.32,0,0,1-9.51,10l-3.61,3c-3.78,2.68-7.6,5.26-11.53,7.73A155.65,155.65,0,0,1,190.63,484a125.17,125.17,0,0,1-24.4,6.82c-3.81.7-7.62,1.25-11.45,1.79-9.77,1.05-19.57,1.83-29.3,3.15-4.82.66-9.62,1.41-14.39,2.43-2.41.52-4.79,1.12-7.18,1.75a36.3,36.3,0,0,0-7.56,2.89,5.86,5.86,0,0,0-1.6,1.26c-.61.94-.41.43-.5,1.75,0,0,0,0,0,0l.2-1,.48-.57h0a5.35,5.35,0,0,1,1.66-1l-.06,0a35.46,35.46,0,0,1,5.29-1.3l-.13,0,.17,0h0c15.86-2.05,31.82-.49,47.73-.25a194.31,194.31,0,0,0,26.28-1.15,114.24,114.24,0,0,0,15.92-3,93.66,93.66,0,0,0,15.74-6.09c3.89-1.85,7.63-4,11.32-6.24a102.25,102.25,0,0,0,22.47-17.67,84.37,84.37,0,0,0,9.86-13.1,80.84,80.84,0,0,0,6.4-12.71q1.3-3.23,2.57-6.46c.75-1.9,1.33-3.87,2-5.8,1.19-3.52,2.24-7.09,3.32-10.65s2-7,2.86-10.49c1-4.18,2-8.32,2.77-12.53.77-4.05,1.39-8.11,2-12.19,1.15-7.67,2-15.4,2.8-23.11q1.16-10.92,2.5-21.8.75-4.18,1.5-8.36c.24-1.36.7-2.7,1-4l1-4c.35-1.35.91-2.68,1.36-4s.9-2.67,1.35-4,1-2.53,1.57-3.79l1.47-3.56a113.68,113.68,0,0,1,12.09-20.71A80.06,80.06,0,0,1,313,273.15a95.09,95.09,0,0,1,16-9.69c3.41-1.62,6.78-3.29,10.25-4.78a101,101,0,0,1,23.72-6.87c7.78-.92,15.53-.5,23.33-.16,5,.22,9.93.7,14.88,1.13,0,0,0,0,0,0-4.55-.92-9.12-1.89-13.71-2.57-5.67-.84-11.33-1.75-17.06-2.14q-2.16-.14-4.32-.14a90.14,90.14,0,0,0-27.57,4.83Zm24.74-1-.17,0,.17,0Zm-.36.05-.16,0,.16,0Zm-98.2,111.29-.14,1c0-.34.09-.69.14-1ZM94.95,504.3l0,0,0,0Zm6.93-2.24h0Z"/><path class="cls-1" d="M140.69,505.06q-7.82.26-15.64.58c-3.9.16-7.8.48-11.69.74q-9.37.64-18.71,1.41s0,0,0,0c10.28.73,20.59,1.33,30.85,2.25q7.66.69,15.33,1.32c4.09.34,8.17.95,12.24,1.43l9.52,1.7A105.49,105.49,0,0,1,181.43,520l6.73,2.9c2.39,1,4.69,2.32,7,3.48,2.16,1.07,4.25,2.28,6.36,3.46a117.42,117.42,0,0,1,12.8,8.18,72.27,72.27,0,0,1,10.85,10.69,85,85,0,0,1,9.2,16.32c1.57,3.85,3,7.78,4.24,11.73,1.36,4.16,2.74,8.32,3.86,12.54,2.34,8.76,4.4,17.59,6.62,26.38a454.46,454.46,0,0,0,15.57,48.4c3.27,8.71,6.52,17.45,10.29,26,1.76,4,3.37,8,5.32,11.89q1.83,3.62,3.66,7.22c.81,1.58,1.55,3.22,2.46,4.74l4,6.65c.92,1.53,1.79,3.12,2.8,4.59,2.73,4,5.38,8,8.34,11.75,2.75,3.52,5.47,7,8.4,10.4,3.13,3.6,6.35,7.07,9.65,10.52a63.55,63.55,0,0,0,17.4,13.4,54.21,54.21,0,0,0,27.48,5.12c9.62-.58,19-3.28,27.89-6.87,4.47-1.81,8.82-3.85,13.18-5.91,12.22-5.78,24.32-11.85,36.32-18.07a0,0,0,0,0,0,0c-8.69,3.2-17.48,6.16-26.26,9.14-4.28,1.46-8.59,2.85-12.9,4.23a166.14,166.14,0,0,1-25.36,6.49,74.9,74.9,0,0,1-17.83.25,54.34,54.34,0,0,1-11.21-3,49.81,49.81,0,0,1-7.93-4.57,71.31,71.31,0,0,1-10.43-10.53L325,741.47c-2.51-3.32-5-6.62-7.37-10-1.27-1.84-2.65-3.64-3.83-5.55q-2.5-4.07-5-8.13c-2.56-4.12-4.74-8.49-7.08-12.73-1-1.78-1.77-3.68-2.64-5.51-1.16-2.42-2.32-4.82-3.49-7.23l-4.47-10.66c-1.73-4.14-3.19-8.42-4.78-12.61-3.15-8.32-5.92-16.8-8.78-25.22-2.56-7.56-4.94-15.2-7.11-22.88-2.42-8.59-4.65-17.23-7.09-25.81-1.14-4-2.31-8.07-3.63-12.06-1.56-4.67-3.24-9.26-5-13.86-.87-2.27-1.92-4.5-2.9-6.74-1.5-3.41-3.08-6.73-4.9-10a80.25,80.25,0,0,0-10.24-14.17,73.27,73.27,0,0,0-14.43-12c-6-4-12.59-6.82-19.15-9.74-2.15-1-4.37-1.75-6.56-2.6-1.78-.69-3.54-1.37-5.36-2l-6.7-2.16a106.73,106.73,0,0,0-18.26-3.64c-2.41-.32-4.85-.45-7.27-.63-1.87-.14-3.74-.38-5.62-.4-3.09,0-6.19-.15-9.29-.15-1.1,0-2.21,0-3.31.05Z"/></g><g id="Draw_Layer-3" data-name="Draw Layer"><path class="cls-1" d="M671.05,251.44c-7.29.08-14.57.26-21.85.49q-9.53.31-19.06.65s0,0,0,0c11,.39,22,.61,33,1.11,5.16.24,10.33.46,15.49.82s10.1.85,15.15,1.37c4.2.6,8.4,1.19,12.57,2a85.51,85.51,0,0,1,16.52,4.41,33.92,33.92,0,0,1,6,3.51,37.46,37.46,0,0,1,5.24,5.35,54.08,54.08,0,0,1,5.82,10.44c4.28,10.72,6.06,22.17,7.92,33.49,1.11,6.77,2,13.57,2.95,20.36.83,7.2,1.63,14.39,2.33,21.6s1.06,14.26,1.24,21.38c.11,4,.19,8,.21,12.07s-.08,7.76-.17,11.65c-.17,7.23-1,14.42-1.73,21.6q-1.46,10.26-3.21,20.47c-1.28,7.57-2.79,15.13-3.63,22.77a14.61,14.61,0,0,0,.34,4.64,19.06,19.06,0,0,0,1.49,3.93c1.14,2.37,3.49,4.16,5.61,5.55a21.66,21.66,0,0,0,3.72,1.71A32,32,0,0,0,760.3,484a65.23,65.23,0,0,0,9.62,1.7c4,.5,8,.89,12,1.06,8,.35,15.94.58,23.91.81,11,.32,22.09.77,33.09,1.76-2.83,1.36-5.59,2.81-8.38,4.26-6,3.14-11.81,6.73-17.83,9.87-6.69,3.49-13.39,6.92-20.27,10-3.51,1.58-7,3.11-10.58,4.63-6.85,2.83-13.73,5.57-20.52,8.53-1.56.68-3.1,1.39-4.65,2.12a26.63,26.63,0,0,0-5.23,3.41,22.75,22.75,0,0,0-4.92,5.79,38.3,38.3,0,0,0-3.08,6.73,55,55,0,0,0-2,6.93c-.78,3.23-1.3,6.51-1.78,9.8-.63,4.41-1.2,8.82-1.68,13.25-.4,3.76-.63,7.52-.89,11.3-.89,12.79,1,25.47,2.68,38.12.7,5.22,1.48,10.43,2.24,15.64l1.37,11.1c.38,3.09.58,6.19.83,9.3s.55,6,.67,9.08q.27,6.84.54,13.67c.13,3.19,0,6.39,0,9.58s0,6.07-.17,9.11q-.24,3.8-.48,7.61c-.08,1.22-.09,2.47-.24,3.68q-.58,4.63-1.17,9.25c-1.36,7.71-2.64,15.5-5.43,22.84a25.39,25.39,0,0,1-1.62,2.79,24.26,24.26,0,0,1-2.06,2,48.23,48.23,0,0,1-7.8,4.26c-3.57,1.42-7.22,2.56-10.91,3.62-2.52.73-5,1.52-7.55,2.19-5,1.36-10.08,2.75-15.12,4.1-14.39,3.87-28.83,7.78-43.61,9.89a104.07,104.07,0,0,1-13.4.85,117.4,117.4,0,0,1-13.75-1c-7.76-1.13-15.42-2.82-23.08-4.44-4.6-1-9.12-2.16-13.67-3.34-3.92-1-7.79-2.28-11.66-3.5-5-1.57-10-3.17-14.9-5,0,0,0,0,0,0,7,3.66,14.22,7,21.37,10.45,3.42,1.64,6.91,3.1,10.38,4.63,3.26,1.42,6.59,2.64,9.92,3.91,6.12,2.33,12.26,4.6,18.53,6.48a107.26,107.26,0,0,0,15.32,3.3,100.1,100.1,0,0,0,16.85.94c12.4-.27,24.63-2.35,36.85-4.3,3.92-.63,7.81-1.49,11.71-2.24,3.48-.68,6.95-1.41,10.41-2.14s7-1.59,10.5-2.43c2.22-.54,4.41-1.13,6.6-1.79a76.55,76.55,0,0,0,8-3,50.88,50.88,0,0,0,7.23-3.69,37.23,37.23,0,0,0,6.09-4.94,25.84,25.84,0,0,0,4.44-6.2,45.94,45.94,0,0,0,4.23-13.92c.7-4.13,1.37-8.24,1.93-12.39,1-7.16,1.78-14.34,2.07-21.56.13-3.29.42-6.62.37-9.92q-.1-6.66-.2-13.31c0-2.78-.25-5.55-.4-8.33-.19-3.31-.27-6.66-.59-10q-.63-6.38-1.24-12.76c-.35-3.67-.92-7.32-1.42-11-.92-6.8-2-13.57-2.95-20.37.09.68.18,1.35.27,2-1.49-11-3.09-22-3.05-33.22,0-7.47.77-14.9,1.53-22.32,1-7.43,2-14.93,4.69-22a27.28,27.28,0,0,1,2-3.54,17.45,17.45,0,0,1,1.39-1.37A69.86,69.86,0,0,1,772,537.11c3.27-1.5,6.58-2.92,9.89-4.35,6.82-2.94,13.65-5.83,20.44-8.84,13.39-5.94,25.95-13.48,39-20.13,3.21-1.64,6.48-3.11,9.76-4.58,3.32-1.26,6.61-2.52,10-3.6s6.75-2.05,10.15-3c1.69-.47,3.38-.95,5.06-1.43a21.43,21.43,0,0,0,3.57-1.35,12.51,12.51,0,0,0,2.76-1.94c3-2.67,2.66-7.95,0-10.65-2-2-4.7-2.6-7.38-2.83a22.91,22.91,0,0,0-5.61.21,15.75,15.75,0,0,0-5.88,2.06c-.54.33-1.07.65-1.62,1l-.73.21a30.59,30.59,0,0,1-5-.29c-13.52-1.91-27.08-3.37-40.71-4.22-7.31-.46-14.62-.9-21.93-1.38-3.76-.25-7.52-.56-11.28-.87-2.78-.23-5.55-.61-8.32-1a62.47,62.47,0,0,1-10.65-2.45l-.78-.41c0-1.58.24-3.14.42-4.72.22-2,.45-3.91.68-5.87.39-3.38.78-6.75,1.18-10.13.87-7.45,1.73-14.91,2.52-22.38.18-1.66.25-3.32.38-5s.32-3.43.39-5.15c.13-3.65.39-7.32.35-11s0-7.53-.22-11.3q-.28-6.07-.7-12.12c-1-15.22-3.08-30.34-5.52-45.39-1.12-6.89-2.67-13.73-4.14-20.55-.72-3.35-1.49-6.71-2.36-10a170.71,170.71,0,0,0-5.52-18.13c-3.4-8.81-8.23-17.67-15.92-23.44a37.17,37.17,0,0,0-11.45-5.67,75.28,75.28,0,0,0-8.36-1.85c-3.58-.69-7.18-1.14-10.79-1.63-1.81-.25-3.63-.36-5.45-.52-1.57-.14-3.14-.32-4.72-.4-6.6-.34-13.18-.61-19.78-.61Zm81.59,172.63a.15.15,0,0,1,0,0v0Zm8.66,42.11.24.32-.24-.32Zm.47.13.23.54q-.13-.26-.23-.54Z"/><path class="cls-1" d="M681.21,267.46c-4.29.11-8.6.11-12.88.34l-14.24.78c-8.08.45-16.16,1-24.25,1.37-7.93.37-15.85.76-23.79,1.09,0,0,0,0,0,0,14.36.61,28.7,1,43.07,1.13,13.5.16,27.12,0,40.53,1.71a90.59,90.59,0,0,1,20,4.94,47.22,47.22,0,0,1,8.3,4.64,44,44,0,0,1,5.9,5.89,53.26,53.26,0,0,1,5.07,8.85c3.19,8,4.89,16.4,6.11,24.86,2.2,17.1,2.54,34.43,2.68,51.64.14,17.78,0,35.54.31,53.31q.09,6.29.33,12.56c.08,2.18.19,4.36.31,6.54.14,2.54.46,5,.82,7.57a21.13,21.13,0,0,0,.89,3.34,28.84,28.84,0,0,0,2.69,5.79,32.18,32.18,0,0,0,3.13,4.21,27.18,27.18,0,0,0,2.59,2.6,45.27,45.27,0,0,0,7.59,5.38,69,69,0,0,0,8.85,3.91,86.6,86.6,0,0,0,9.92,3.1c2.4.63,4.83,1.1,7.25,1.62,1.86.4,3.71.85,5.58,1.18,9.34,1.61,18.68,3.12,28.09,4.24l6.09.71L818.79,493c-3.58,2.41-7.16,4.85-10.73,7.27s-7.19,4.65-10.8,7-7.21,4.32-10.83,6.45c-3.21,1.9-6.53,3.65-9.84,5.37q-5.81,3-11.65,6c-1.92,1-3.83,1.93-5.74,2.93-3.72,1.94-7.45,4-10.23,7.22-3.85,4.44-5.44,10.27-6.53,15.92a107,107,0,0,0-1.63,13.15c-.3,4.35-.64,8.68-.75,13s-.28,8.46-.21,12.69c.09,4.44,0,8.92.28,13.36q.43,7.7.87,15.4c.25,4.44.78,8.88,1.18,13.31.72,8.07,1.68,16.14,2.82,24.17,3.17,22.34,6.66,44.62,9.72,67,1.22,9.41,1.9,19,.9,28.42a43.22,43.22,0,0,1-2.09,7.77,23.45,23.45,0,0,1-1.67,2.86,31.94,31.94,0,0,1-3.27,3.18,33.77,33.77,0,0,1-5.07,2.91,73.78,73.78,0,0,1-14.18,3.52c-12.28,1.49-24.78,1.24-37.11.64-6.64-.32-13.29-.49-19.92-.92q-10.2-.65-20.4-1.28c-5.59-.34-11.16-1-16.73-1.48l-10.43-1.61c-3.24-.5-6.43-1.24-9.63-1.91-6.62-1.38-13.24-2.84-19.71-4.82,0,0,0,0,0,0,8.33,3.63,17,6.42,25.62,9.29,4.1,1.37,8.36,2.36,12.53,3.51,1.16.32,2.33.53,3.5.76l9.48,1.9c8.18,1.64,16.45,2.86,24.68,4.18,4.7.76,9.45,1.29,14.17,1.92,5.81.78,11.6,1.52,17.43,2.11s11.9.9,17.88,1a100.85,100.85,0,0,0,18.81-1.49,43.74,43.74,0,0,0,15.85-5.7,35.3,35.3,0,0,0,6.27-5.15,25.56,25.56,0,0,0,5.4-8.6c4.57-11.4,3.59-24.2,2.16-36.13-.76-6.38-1.74-12.74-2.67-19.1-2.52-17.38-5.3-34.73-7.67-52.14q-.27-2-.54-3.95c-.77-6.95-1.61-13.9-2.12-20.87l-.95-12.89c-.32-4.29-.32-8.63-.47-12.94-.12-3.24-.11-6.47-.11-9.72,0-3.52-.06-7.05.1-10.57.38-8.45.77-16.88,1.81-25.28A63.46,63.46,0,0,1,759.44,548a22.65,22.65,0,0,1,1.31-2.34c.33-.35.67-.69,1-1a114.33,114.33,0,0,1,11-6.29c3.22-1.71,6.49-3.36,9.73-5,6.85-3.53,13.58-7.24,20.29-11,6.13-3.46,12.07-7.28,18-11.09q4.28-2.75,8.57-5.47a134.32,134.32,0,0,1,16-9.07,48.48,48.48,0,0,1,8.55-2.47l4.76.59,2.09.29,4,.55a6.75,6.75,0,0,0,1.66.08,10.08,10.08,0,0,0,2.63-.35,9.66,9.66,0,0,0,6.74-11.88,10.28,10.28,0,0,0-4.44-5.77c-1.87-1.33-4.54-1.9-6.8-2.31-2-.37-4-.69-6-1-4.33-.68-8.69-1.23-13-1.8-10.86-1.46-21.73-2.89-32.53-4.76-6.38-1.11-12.72-2.31-19.08-3.58-2.85-.57-5.68-1.33-8.51-2a108.56,108.56,0,0,1-14.74-4.55,46.21,46.21,0,0,1-6.2-3.5,26.67,26.67,0,0,1-2.11-2c-.39-.59-.75-1.19-1.09-1.81a57.92,57.92,0,0,1-1.92-9.25c-2-16.37-2.83-32.83-3.82-49.29q-.82-13.82-1.75-27.65c-.58-8.75-1.38-17.45-2.36-26.16-.54-4.76-1.48-9.48-2.29-14.19A112.54,112.54,0,0,0,746.24,312a99.2,99.2,0,0,0-7-17.83,49.12,49.12,0,0,0-10.08-13.33,44.62,44.62,0,0,0-6.4-4.85,43.72,43.72,0,0,0-8.15-3.81,68.86,68.86,0,0,0-15.87-3.63,124.32,124.32,0,0,0-15.56-1.16l-2,0Zm61.4,501.3-.27.12.27-.12Z"/><path class="cls-1" d="M685.49,262.84a210.79,210.79,0,0,0-24,4.45l-13.74,3.51-13.73,3.55c-6.29,1.64-12.52,3.5-18.76,5.3,0,0,0,0,0,0,6-1.19,12-2.48,18.09-3.55L645,274.05c8.56-1.54,17.1-3.22,25.72-4.41,11.76-1.57,23.79-2.85,35.62-1.39a51.6,51.6,0,0,1,11.07,3,38.67,38.67,0,0,1,6.31,3.72A37,37,0,0,1,728.8,280a43.24,43.24,0,0,1,4.63,8.06,63.9,63.9,0,0,1,3.45,13.2c1.21,10.09.49,20.28-.45,30.37-.46,5-.85,9.94-1.38,14.91s-1,10-1.63,14.94q-1.06,8.37-2.12,16.76c-1,7.13-2,14.25-2.89,21.39q-.94,7.56-1.87,15.11c-.46,3.65-.74,7.33-1.1,11-.34,3.46-.64,6.9-.86,10.36-.4,6.24-.81,12.41-.65,18.67a95,95,0,0,0,2,16.86,61.51,61.51,0,0,0,6.18,16.5A46.9,46.9,0,0,0,737,495a42.36,42.36,0,0,0,4.94,5.1,54,54,0,0,0,14.73,9,81.75,81.75,0,0,0,8.31,3.13c2.55.8,5.17,1.4,7.77,2a171.29,171.29,0,0,0,18.62,2.93c4.77.54,9.57.76,14.36,1.09q3.69.25,7.38.41c-2.31,1.64-4.57,3.36-6.79,5.11L796,531.83c-4.12,3.24-8,6.87-11.8,10.48-4,3.84-7.88,7.92-11.61,12.07-3.22,3.57-6.18,7.37-9.23,11.07-2.33,2.84-4.61,5.7-6.83,8.63-4.06,5.37-8.1,10.73-12,16.19-2.7,3.77-5.38,7.53-7.93,11.41a125,125,0,0,0-6.66,11.4,74.12,74.12,0,0,0-5.71,14.24,52.68,52.68,0,0,0-1.79,13.76A73,73,0,0,0,724,654.65c1.16,6.09,3,12,4.74,18l3.07,10.82c1,3.43,1.71,6.95,2.46,10.42,1,4.49,1.74,9,2.4,13.56q.94,7.6,1.16,15.23a110.92,110.92,0,0,1-.85,16.74,97.67,97.67,0,0,1-5.73,21.72,85.41,85.41,0,0,1-9.29,16.18,75.68,75.68,0,0,1-11.56,11.6A67,67,0,0,1,698.28,796a90.83,90.83,0,0,1-20.78,5.45,129,129,0,0,1-30.7,0,130.51,130.51,0,0,1-13.9-2.72,107.59,107.59,0,0,1-14.57-4.94c-8-3.41-16-7.09-23.88-10.8-7.45-3.48-14.93-6.92-22.21-10.74,0,0,0,0,0,0,7.09,4.78,14.39,9.22,21.65,13.74,3.46,2.16,7,4.27,10.42,6.4,6,3.66,12,7.28,18.33,10.34a109,109,0,0,0,32,9.52,111.55,111.55,0,0,0,34.41-.21,70.22,70.22,0,0,0,29.91-12.27,77.64,77.64,0,0,0,21.44-23.91c6.57-11.25,10.15-24.07,11.85-36.91a131.29,131.29,0,0,0,1.09-20.54,188.66,188.66,0,0,0-1.92-21.09c-.83-6.12-2-12.18-3.34-18.21-.49-2.25-1.14-4.48-1.71-6.71-2.07-8.17-4.53-16.29-5.83-24.62a60,60,0,0,1-.22-12,56.92,56.92,0,0,1,3.26-11.34c4.83-10.8,11.83-20.29,18.7-29.86,3.13-4.37,6.48-8.59,9.76-12.84q5.29-6.31,10.6-12.6c3.21-3.82,6.8-7.38,10.34-10.89,4.83-4.77,10-9.18,15.25-13.47,9.32-7.11,18.66-14.47,29.39-19.31a47.37,47.37,0,0,1,8.47-2.45,42,42,0,0,1,7.8.08c9.21,1.52,18,5,27,7.28a65.59,65.59,0,0,0,8.65,1.57,29.27,29.27,0,0,0,6.69.16,26.68,26.68,0,0,0,4.75-.85,19.63,19.63,0,0,0,3.8-1.69,11.39,11.39,0,0,0,3.15-2.74,9.7,9.7,0,0,0,2.5-4.29,8,8,0,0,0,.64-3.39,12.08,12.08,0,0,0-4.17-9,22.74,22.74,0,0,0-8-4.12,59.93,59.93,0,0,0-8.65-1.8c-2.58-.46-5.22-.71-7.82-1-1.74-.23-3.48-.37-5.23-.52-4.05-.37-8.08-.57-12.14-.75-7.24-.32-14.5-.35-21.74-.47q-14.29-.25-28.57-.7c-3.48-.11-6.94-.35-10.41-.58l-8.22-.54c-3.12-.2-6.23-.55-9.33-.93A105.4,105.4,0,0,1,763,492.85a54.36,54.36,0,0,1-9.15-5.12,46.8,46.8,0,0,1-6-6,50.35,50.35,0,0,1-4.65-8.13,70.3,70.3,0,0,1-3.85-14.88,90.46,90.46,0,0,1-.79-13.42q.09-3.23.18-6.45c.1-3.53.2-7,.44-10.57.3-4.25.49-8.53.91-12.78q.67-6.81,1.37-13.62c1.47-14.61,3.4-29.19,4.67-43.83.74-8.6,1.45-17.19,2-25.81,1.06-17.47,1.13-35.91-7.91-51.51A37.86,37.86,0,0,0,731,270.23a38.68,38.68,0,0,0-13.3-6.71,57.28,57.28,0,0,0-14.57-2l-1.73,0a120.26,120.26,0,0,0-15.87,1.31ZM647.11,801.5l.51.07-.51-.07Z"/><path class="cls-1" d="M659.67,269.49c-12.34,1.8-24.46,4.84-36.61,7.6-4.84,1.1-9.63,2.38-14.44,3.62a0,0,0,1,0,0,0c7.48-1.33,15-2.59,22.47-3.76l16.84-2.65c14.61-1.78,29.27-2.9,43.93-1.07a76.68,76.68,0,0,1,17.74,4.63,54,54,0,0,1,9.19,5.33,47.67,47.67,0,0,1,7.37,7.4,53.62,53.62,0,0,1,5.38,9.5,82,82,0,0,1,4.58,18.22,188.37,188.37,0,0,1,1.21,23.39c0,4.14.09,8.29-.08,12.43-.19,4.78-.27,9.58-.56,14.35q-.47,7.66-.94,15.32c-1,16.78-2.33,33.53-3,50.33-.35,8.79-.85,17.6-.89,26.4q0,4,0,8a93.48,93.48,0,0,0,1.54,16.9,32.66,32.66,0,0,0,2.86,8.62,35.7,35.7,0,0,0,4.8,7,28.66,28.66,0,0,0,6.71,5.4,44.25,44.25,0,0,0,9.61,4.29,58.65,58.65,0,0,0,8.52,2,99.22,99.22,0,0,0,10.06,1.2,143.41,143.41,0,0,0,19.29-.09c5.3-.3,10.59-1,15.87-1.5,5.1-.5,10.18-1.11,15.27-1.66a127.45,127.45,0,0,0-9.82,8.45l-5.65,5.46c-1.49,1.43-2.85,3-4.26,4.53-3.15,3.36-6.08,6.88-9,10.42-3.2,3.82-6,8-8.94,12-1.35,1.86-2.47,3.93-3.69,5.87-1,1.55-1.92,3.1-2.8,4.71l-3.32,6c-1.23,2.23-2.22,4.63-3.32,6.93s-2.08,4.8-3,7.23c-1.21,3-2.38,6-3.37,9.13a111.13,111.13,0,0,0-3.89,19,106.41,106.41,0,0,0-1.11,18.1c.18,4.22.21,8.47.56,12.68.35,4.36.7,8.72,1.07,13.08q1.15,13.27,2,26.53c.28,4.15.34,8.32.49,12.48a152,152,0,0,1-.84,23.64,85.88,85.88,0,0,1-4.64,17.66,55.75,55.75,0,0,1-5.11,8.93,49.53,49.53,0,0,1-6.28,6.35A69.13,69.13,0,0,1,738.77,757a182.4,182.4,0,0,1-33.17,9.48q-7.41,1.24-14.8,2.54Q683.38,770,676,771c-5.15.68-10.34,1.06-15.49,1.6-4.72.49-9.48.67-14.22,1-1.65.12-3.33.09-5,.07l-2.44,0A97.29,97.29,0,0,1,626,773a54.35,54.35,0,0,1-10.17-2.7c-1.23-.45-2.44-1-3.66-1.45-1.65-.77-3.27-1.55-4.86-2.44,0,0,0,0,0,0a63.91,63.91,0,0,0,16.63,9.48c6.52,2.45,13.5,3.32,20.33,4.42,4.49.73,9.1.91,13.63,1.28,4.27.36,8.57.43,12.84.59,3.89.15,7.74.18,11.63.18h2.46c3.21,0,6.43,0,9.64-.17,5.52-.31,11.06-.54,16.57-1.1,12.47-1.27,25-3.44,36.76-7.8a65,65,0,0,0,16-8.42,55.11,55.11,0,0,0,7.23-6.28,63.69,63.69,0,0,0,5.9-7.43c3.43-4.87,5.77-10.57,7.76-16.14A96.8,96.8,0,0,0,789,714.61c1.56-12.44,1.6-25,1.24-37.56-.25-8.51-.65-17-1-25.49-.19-4.48-.47-9-.47-13.43V629.5a104.8,104.8,0,0,1,.86-12.53,114.12,114.12,0,0,1,5.86-22.66c.94-2.52,2.06-5,3.11-7.46l-1.07,2.55c1.31-2.69,2.49-5.49,3.94-8.11s2.95-5.64,4.63-8.32l3.12-5c.69-1.09,1.32-2.25,2.08-3.3l5.12-7.1,5.66-6.83c2.18-2.63,4.67-5.06,7-7.57,1.19-1.3,2.52-2.49,3.77-3.74,1.09-1.07,2.14-2.23,3.29-3.24,3-2.62,5.9-5.27,9-7.76a106.72,106.72,0,0,1,19.64-11.54,96.06,96.06,0,0,1,12-4c1.83-.46,3.69-1,5.55-1.4l5.88-1.08a151.77,151.77,0,0,1,18-1.15q5.53,0,11,.13l5.48.09a34.6,34.6,0,0,0,10.53-1.07,12.3,12.3,0,0,0,8.43-8.43,12.17,12.17,0,0,0-5.54-13.62l-.47-.27a11.91,11.91,0,0,0-6-1.64,23.83,23.83,0,0,0-3.22,0c-1.44,0-2.88.13-4.32.19-2,.08-4,.16-6,.23q-6.93.21-13.85.39h-.87c-2.91,0-5.83.05-8.75.25-5.12.13-10.25.27-15.36.51-9.41.44-18.78,1-28.17,1.65-5,.35-10,1-15,1.47-3.79.37-7.57.87-11.35,1.34q-9.08,1.13-18.19,2.21c-11.65,1.39-23.37,2.52-35.08,1.22a55.72,55.72,0,0,1-11.11-2.74,32.36,32.36,0,0,1-3.85-2.18,12.52,12.52,0,0,1-4-5.19A53.85,53.85,0,0,1,748,473.54a233,233,0,0,1-1.17-27.7c0-9.16.13-18.3.29-27.45.3-17.19,1.59-34.35,1.78-51.54q.08-7.41.16-14.83c0-1.84-.11-3.7-.16-5.54q-.14-4.72-.31-9.44c-.13-3.56-.49-7.11-.89-10.64a117.31,117.31,0,0,0-3.47-18.4c-3-10.84-8.62-20.88-17.33-28.13a51,51,0,0,0-13.61-7.79c-5.37-2.19-11.2-3.18-16.92-3.91a95.77,95.77,0,0,0-12.25-.75,170,170,0,0,0-24.46,2.07ZM726.46,291l.23.3-.23-.3ZM612.09,768.8h0Z"/><path class="cls-1" d="M666.81,262.78c-4,.23-7.93.35-11.86.73-4.39.42-8.81.76-13.19,1.3q-7.9,1-15.79,2c-3.42.44-6.82,1-10.22,1.53-6,.95-12,1.92-18,3,0,0,0,0,0,0,8.36-.54,16.72-.93,25.08-1.39,6.18-.33,12.38-.4,18.56-.6,2.9-.1,5.82-.07,8.72-.1,2.73,0,5.45-.06,8.18,0,3.16.08,6.37,0,9.53.28l10.59.93,8.58,1.36a85.74,85.74,0,0,1,18.06,5,47.56,47.56,0,0,1,8.52,4.78,36.09,36.09,0,0,1,4.77,4.81,41.55,41.55,0,0,1,3.75,6.5,49.61,49.61,0,0,1,2.8,10.34,69.53,69.53,0,0,1-.23,14.86c-1.21,8.26-3,16.44-4.3,24.68s-2.41,16.38-3,24.62-.95,16.28-1.12,24.45c0,2,.11,4,.17,5.94.05,1.74.16,3.46.31,5.2.16,1.9.24,3.82.49,5.7l1,7.35c.62,4.63,1.47,9.24,2.53,13.79,2.41,10.42,7.35,20.44,15.39,27.66,8.19,7.36,19,11.22,29.6,13.62a165.52,165.52,0,0,0,24,3.45c3.79.29,7.59.68,11.39.8,4.48.13,9,.27,13.43.39s8.91-.08,13.34-.13c3.46,0,6.92-.18,10.39-.3,18.89-.67,37.75-1.82,56.61-3.12a0,0,0,0,0,0,0c-26.84-1.28-53.61-3.72-80.34-6.43l1.33.18q-7.47-1-14.94-2-6.28-1.08-12.57-2.13c-4.2-.7-8.38-1.69-12.5-2.74a122.72,122.72,0,0,1-15.35-5,59.38,59.38,0,0,1-11-6.18,41.72,41.72,0,0,1-5.31-5.32,48.29,48.29,0,0,1-4.55-7.86c-3.23-8.4-4.59-17.39-5.82-26.28q-.34-3.84-.7-7.67c-.23-2.55-.22-5.13-.32-7.69-.17-4.67.07-9.38.26-14s.4-9,.77-13.55c.42-5,.93-10,1.49-15,1.11-7.53,2.32-15,3.38-22.58.48-3.44.9-6.87,1.16-10.34a65,65,0,0,0-1.39-18.21,48.48,48.48,0,0,0-6.09-14.79,39.73,39.73,0,0,0-11.57-12c-4.17-2.89-9.12-4.63-13.94-6a101.68,101.68,0,0,0-17.55-3.08c-1.88-.2-3.79-.26-5.68-.39-1.73-.11-3.48-.34-5.21-.34h-6.92l-2.73,0c-.68,0-1.36,0-2,.05Z"/><path class="cls-1" d="M891.7,481.76c-1,.05-1.94.1-2.91.18-1.59.11-3.63-.06-5,.9a.89.89,0,0,0-.18,1.37c1.19,1.28,3.1,1.57,4.73,2,1,.27,2,.51,3,.73l.94.2-1.89.4c-2.08.47-4.15,1-6.23,1.49-4.44,1.06-8.83,2.3-13.24,3.51-4.15,1.14-8.2,2.64-12.29,4s-8,3.19-12,4.8c-4.51,1.83-8.84,4.17-13.2,6.31-1.37.67-2.67,1.48-4,2.23l-7.35,4.18c-3.75,2.15-7.37,4.58-11,6.88-1.64,1-3.24,2.15-4.85,3.23-1.83,1.23-3.72,2.4-5.51,3.7-5,3.63-10,7.23-14.75,11.15a107,107,0,0,0-24,28c-6.7,11.28-10.7,23.92-12.78,36.81-1.18,7.3-1.8,14.6-2.41,21.95-.68,8-.92,16.06-1.08,24.08-.17,9.1-.23,18.19-.4,27.29-.24,13.44-.35,26.92-2,40.28a113.14,113.14,0,0,1-6.1,24.42,61,61,0,0,1-6,10.23,60.09,60.09,0,0,1-8.24,8.16,85.09,85.09,0,0,1-15.77,9c-14.13,5.67-29.17,8.3-44.11,10.92-7,1.23-14.07,2.22-21.12,3.24l-11.81,1.08c-3.45.32-6.93.35-10.39.49-7.23.28-14.48.51-21.71.21a0,0,0,0,0,0,0c9.17,1.86,18.51,2.93,27.79,4.1,4.58.58,9.19.83,13.8,1.17,4.24.31,8.5.28,12.75.34,3.8.06,7.56,0,11.35-.07,5.83-.16,11.65-.27,17.47-.66,12.57-.87,25.26-2.59,37.18-6.8s23.06-11.22,30.93-21.3a64.29,64.29,0,0,0,5.62-8.27,79,79,0,0,0,4.24-9.3,95.76,95.76,0,0,0,5-18.12,221.09,221.09,0,0,0,2.9-26.52c.52-8.32.84-16.65,1.15-25q.54-14.41,1.25-28.8c.43-8.83,1.28-17.61,2.24-26.4q.21-2,.43-4a127.8,127.8,0,0,1,7.11-28.17A109.83,109.83,0,0,1,791.49,567a137,137,0,0,1,11.65-12.68c2.24-2.16,4.6-4.17,6.92-6.23,3.81-3.36,7.7-6.61,11.59-9.88,6.54-5.51,13.24-10.78,20-16.05,4.29-3,8.52-6.14,13-8.88l8-4.93c2.59-1.59,5.4-2.88,8.08-4.31,4.33-2.31,8.78-4.46,13.27-6.44l8.1-3.56,4.25-1.87,1.49-.65c.7-.32,1.39-.64,2.08-1a6,6,0,0,0,2.23-1.93,2.25,2.25,0,0,0-1-3.72,20.85,20.85,0,0,0-5-.39c-.73,0-1.47,0-2.19,0-1.76-.08-3.5-.27-5.24-.48-.72-.11-1.43-.22-2.14-.37,1.91-.46,3.87-.72,5.8-1l7.7-1.22s0,0,0,0l-8.37.45Z"/></g></g></svg>