<svg xmlns="http://www.w3.org/2000/svg" viewBox="0 0 652.2 1408.22"><defs><style>.cls-1{fill:#353535;}</style></defs><title>fb-icon</title><g id="Layer_2" data-name="Layer 2"><g id="Draw_Layer" data-name="Draw Layer"><path class="cls-1" d="M525.33,12.8l-13.08.73c-6.37.36-12.72,1.28-19,2.18A241.72,241.72,0,0,0,463.57,22a297.31,297.31,0,0,0-32.75,11.44,339.18,339.18,0,0,0-36,16.53l-9.93,5.41A192.73,192.73,0,0,0,365.38,68a172,172,0,0,0-20.15,16.91,159.44,159.44,0,0,0-18.41,22.29c-10.64,15-18.37,31.88-24.67,49.09-6.43,17.57-10.68,35.78-14,54.17-3.45,19.25-6,38.68-8,58.13-1,9.32-1.75,18.66-2.51,28-.47,5.7-1,11.39-1.34,17.09l-2.39,44q-1.16,21.53-2.34,43.06c-.13,2.43-.14,4.87-.2,7.3l-.56,22.46c-.64,25.55-1.47,51.1-1.87,76.66q-.76,49.57-1.53,99.13c-.37,24.2-1.27,48.39-1.93,72.58q-.64,22.81-1.27,45.62c-.2,7.29-.71,14.58-1.11,21.86L260,802.52c-.54,9.68-.92,19.38-1.62,29-2.12,29.14-4.46,58.26-6.28,87.42-1.21,19.43-2.5,38.86-2.13,58.34a459.36,459.36,0,0,0,4.74,58.45,356,356,0,0,0,13.52,56.55c2.72,8.52,5.92,16.86,9.42,25.1a201.91,201.91,0,0,0,13.67,25.93c8.08,13.28,17,26.06,25.9,38.8,8,11.52,16,23.16,24.63,34.27,0,0,.06,0,0,0-7.21-12.73-13.71-25.88-20.47-38.84-9.17-17.58-18.79-35-26.63-53.26-6-14.61-10.38-29.72-14.24-45a436.25,436.25,0,0,1-9.16-46.49A572.6,572.6,0,0,1,266.78,975c-.52-19.46.79-38.93,1.84-58.34.74-13.88,2.06-27.73,3.15-41.59,1.93-24.54,3.83-49.07,5.54-73.63q2-28,3.92-56c.5-7.12,1.09-14.25,1.39-21.39L287,624.42c1-23.16,1.47-46.33,2.12-69.5s1.26-46.32,2.05-69.49q1-28,1.93-56c.33-9.62.44-19.28,1-28.89q2.59-43.55,5.19-87.09c.56-9.52,1.49-19,2.32-28.53,1.13-13.07,2.48-26.13,4.17-39.14,2.26-16.57,4.82-33.12,8.41-49.47a289.11,289.11,0,0,1,14.6-47.14,195.86,195.86,0,0,1,22.55-39.35,159.55,159.55,0,0,1,25.61-25.61,248.59,248.59,0,0,1,38.55-23.9c4.79-2.42,9.52-5,14.41-7.17q8.67-3.86,17.32-7.77c9.72-4,19.53-7.59,29.59-10.6a279.84,279.84,0,0,1,35.49-7.86q9.08-1.1,18.16-2.25c4.76-.6,9.55-.9,14.33-1.28,7.54-.6,15.08-1.26,22.63-1.72,8.35-.52,16.69-.86,25-.79a213.26,213.26,0,0,1,22.75,1.52l-.32,0,.38.05h0a73.71,73.71,0,0,1,16,3.85A18,18,0,0,1,634.7,28,45.26,45.26,0,0,1,639,31.24s.06,0,0,0c-1.27-1.3-2.55-2.58-3.86-3.84a19.68,19.68,0,0,0-3.3-2.34,50.51,50.51,0,0,0-10.07-4.41,98.61,98.61,0,0,0-12-3.17c-4.77-1.06-9.58-1.88-14.41-2.55a297.31,297.31,0,0,0-39.53-2.47q-11-.06-22.08-.06c-2.8,0-5.64.3-8.44.44ZM631.2,26.21l.06,0-.06,0ZM294.33,1123.27l.33.76-.33-.76ZM615.29,22.4h0Z"/><path class="cls-1" d="M201.74,516l-8,.06h-.85c-.57,0-1.14,0-1.7,0q-21.51,1.06-43,2.35-16.64,1-33.29,2.06c-2,.14-4.05.39-6.07.6q-5.92.59-11.84,1.25-12.32,1.37-24.59,3.13c-7.85,1.14-15.7,2.43-23.51,3.82a86.48,86.48,0,0,0-10.59,2.53,32.55,32.55,0,0,0-4.39,1.7,45.31,45.31,0,0,0-4.85,3.19,1.59,1.59,0,0,0,0,2.71,22.88,22.88,0,0,0,5.26,2.22c1.06.27,2.13.49,3.18.76,1.62.4,3.23.83,4.86,1.22,3.38.81,6.77,1.61,10.17,2.39q11.65,2.67,23.39,5s0,0,0,0c-7.14-1.83-14.27-3.68-21.35-5.69-6.89-1.94-13.81-3.86-20.54-6.3a11.87,11.87,0,0,1-1.21-.67c.64-.33,1.28-.66,1.93-1a46.14,46.14,0,0,1,10.57-2.45c4.32-.54,8.66-.81,13-1.12,5-.36,10-.85,15-1.22,9.84-.71,19.69-1.14,29.55-1.49q10.3-.36,20.58-.44,27.34-.22,54.66-.73c4.38-.08,8.74-.16,13.11-.27,3.89-.1,7.81.07,11.7.1,18.6.12,37.2.06,55.8.06,8.55,0,17.1-.12,25.65.16l52.33,1.73,23.27.77c2.4.08,4.81.15,7.22.28,16.48.93,32.95,1.9,49.43,2.72,27.49,1.37,55,2.3,82.52,3.13,23.62.71,47.26.83,70.88,1,21.52.15,43,.44,64.56.26a0,0,0,0,0,0,0c-13.06-.78-26.1-1.83-39.14-2.8L557,534.12q-22.61-1.68-45.23-3.29c-4.69-.33-9.37-.8-14.05-1.19q-14.37-1.21-28.74-2.37c-27.78-2.24-55.57-4.42-83.38-6.33-8.86-.61-17.7-1.29-26.57-1.64l-53.56-2.18-21.91-.89c-2.18-.09-4.35-.16-6.53-.16L227.89,516H218q-8.13,0-16.27,0ZM45.91,534.84l-.21,0,.21,0Z"/><path class="cls-1" d="M567.61.17c-7.43.4-14.82,1.06-22.21,1.9S530.52,4,523.12,5.21C515.94,6.4,508.85,8,501.76,9.57c-3,.69-6,1.59-9,2.39-1.6.43-3.19,1-4.78,1.5s-2.95.89-4.38,1.44a180,180,0,0,0-20.94,9.21c-13,7-25.82,14.21-38.64,21.44-12.14,6.85-24.28,13.71-36.2,20.93C382,70,376.31,73.89,370.69,77.86c-3.58,2.52-6.95,5.41-10.4,8.11-3,2.35-5.81,5.05-8.7,7.57-2.42,2.1-4.62,4.5-6.9,6.75s-4.24,4.25-6.28,6.49l-8.13,8.92c-2.54,2.78-4.86,5.79-7.28,8.67a300.07,300.07,0,0,0-27.6,37.83,210.45,210.45,0,0,0-12.63,25.44,310.8,310.8,0,0,0-11.34,31c-6.18,19.94-10.33,40.44-13.76,61-3.61,21.64-6,43.49-8,65.33-.62,6.81-1,13.6-1.33,20.43q-.81,15.48-1.6,31c-.59,11.31-1.47,22.63-1.43,34l.22,58.36q0,5.06,0,10.13c0,1.3-.06,2.62,0,3.92q.42,7.53.85,15.07,1.72,30,3.42,59.92c.52,9.07,1.22,18.11,2,27.16,2.34,28.76,4.75,57.51,7,86.27,2.38,30.81,4.94,61.62,7.12,92.44q6.66,93.68,13.23,187.35c.74,10.61,1.61,21.22,2.22,31.83l2.73,47.63c1,16.87,1.88,33.74,3,50.61.19,2.88.27,5.78.39,8.67q.57,14.14,1.27,28.29.71,14.83,1.56,29.66c.21,3.73.49,7.45.58,11.19q.34,13.86.78,27.73.21,6.13.42,12.26c.06,1.48.11,2.94,0,4.42q-.54,13.75-.93,27.52c-.17,5.87-.6,11.69-1,17.56-1,15-1.83,30-2.62,45.07-.25,4.79-.5,9.58-.85,14.37,0,0,0,0,.06,0,3.4-13.82,5.93-27.89,8.41-41.89q2.32-13,4.45-26.11c1-6,1.56-12.16,2.24-18.23q.8-7.19,1.56-14.38c.2-1.93.5-3.88.58-5.81q.51-12.58.93-25.16c.41-12.27.64-24.51.73-36.79q.19-27.38,0-54.75c-.1-10.79-.72-21.59-1.17-32.37-1.15-27.77-2.15-55.56-3.6-83.33q-5.15-98.14-10.46-196.26c-1.52-28.15-3.35-56.28-5.05-84.43-1.68-27.75-3.53-55.48-5.37-83.23q-.92-13.81-1.83-27.64c-.22-3.27-.5-6.54-.64-9.82q-1.06-24.73-2.14-49.44-.6-13.85-1.2-27.7c-.13-3-.35-6.06-.32-9.1q.23-26.92.47-53.83.06-8.21.14-16.4c0-2.22-.07-4.49.06-6.71q.82-13.37,1.6-26.73,1.17-19.31,2.33-38.63c1.11-18.31,3.14-36.59,5.51-54.78,5.18-37.57,12.43-75.26,26.86-110.47a236.56,236.56,0,0,1,10.67-21.64,253.14,253.14,0,0,1,13.83-21.65c4.15-5.89,8.56-11.59,12.94-17.32l9.79-11.78c1.41-1.69,3-3.26,4.49-4.89l5.25-5.71c1.9-2.07,4.06-4,6.08-5.91,1.48-1.45,3-2.85,4.54-4.22,2-1.75,3.92-3.61,6-5.25l5.5-4.38c7.76-5.54,15.66-10.82,23.82-15.75C422.43,70,431.14,64.8,439.85,59.6c8-4.79,16-9.77,24-14.58,4.3-2.58,8.57-5.21,13-7.6C479,36.26,481.07,35,483.29,34l6.76-3.1c5.76-2.22,11.52-4.41,17.42-6.22,7.28-2.23,14.58-4.33,22-6.24,7.05-1.82,14.13-3.46,21.23-5.05,6.74-1.51,13.5-2.72,20.3-3.87l9.16-1c1.73-.19,3.51-.2,5.25-.3s3.63-.31,5.43-.31c1.16,0,2.33,0,3.5,0,2.38,0,4.78-.06,7.15.08,4.43.28,8.86.52,13.27,1a66.36,66.36,0,0,1,14.58,3.66,50.91,50.91,0,0,1,7.64,4.47,37.86,37.86,0,0,0,4.57,2.8,89.09,89.09,0,0,0,10.67,4.29s0,0,0,0c-2.25-1-4.5-1.89-6.69-3a43.47,43.47,0,0,1-5.93-3.65q-1.8-1.49-3.54-3a40.27,40.27,0,0,0-7.69-5.17,55.18,55.18,0,0,0-10.64-4,81.52,81.52,0,0,0-8.52-1.95A164.28,164.28,0,0,0,589,.52C584.06.25,579.14,0,574.21,0c-2.2,0-4.39,0-6.59.17Zm71.86,17.22.09.07-.09-.07ZM284,304.48c-.15,1.13-.3,2.25-.46,3.38q.23-1.69.46-3.38Z"/><path class="cls-1" d="M99.26,501.75c-6.24,1.68-12.42,3.46-18.49,5.69-2.65,1-5.33,1.89-7.94,3l-11.38,4.67c-5.49,2.25-10.89,4.71-16.32,7.07q-8.52,3.71-17.07,7.34l.2-.09c-1.23.51-2.52.89-3.76,1.36a14.18,14.18,0,0,0-4.85,3.52,2.63,2.63,0,0,0,.53,4.1c2.22,1.14,4.36,2.43,6.65,3.44a37.28,37.28,0,0,0,8.24,2.26c5.56,1.09,11.23,1.58,16.85,2.3,6.62.91,13.29,1.48,19.94,2.18q12.63,1.34,25.26,2.67c12.68,1.32,25.37,2.5,38.07,3.66,10.89,1,21.79,1.86,32.67,2.87,17.39,1.62,34.78,3.16,52.17,4.73,9.28.84,18.56,1.61,27.83,2.59L301,570.69c9.49,1,19,1.91,28.47,3.08l52.32,6.46c6.49.8,13,1.62,19.46,2.34q21.31,3.33,42.67,6.32,10.2,1.44,20.41,2.82c4.09.56,8.13,1.45,12.18,2.18q14.24,2.6,28.5,5.07c4.24.74,8.48,1.42,12.71,2.28q13.05,2.68,26.13,5.26c5.61,1.1,11.18,2.37,16.77,3.59q32.48,7,65,14s0,0,0,0c-13.18-5-26.48-9.65-39.8-14.25q-9-3.11-18-6.06c-6.16-2-12.29-4.09-18.49-5.93-12.24-3.63-24.45-7.35-36.82-10.51q-13.58-3.47-27.19-6.83l-11.69-2.88c-1.38-.34-2.76-.73-4.14-1Q447,572.16,424.39,568q-9.46-1.72-19-3.38c-3.88-.68-7.83-1.06-11.73-1.56-18.19-2.34-36.42-4.52-54.63-6.77l-13.5-1.67c-4-.49-8-.81-11.94-1.21l-55.72-5.63-15-1.51c-3.49-.35-7-.55-10.49-.82l-55.23-4.29-12.95-1c-4.94-.38-9.92-.47-14.86-.68q-24.79-1.06-49.59-1.8c-13.63-.43-27.29-.48-40.93-.7L54,536.93c-7.24-.12-14.51.15-21.71-.73a46,46,0,0,1-5-1c-.67-.18-1.33-.39-2-.6l.15-.13A89.72,89.72,0,0,1,33.26,530c1.52-.85,3.05-1.67,4.61-2.47,3.89-2,7.78-4,11.72-5.88,3.69-1.78,7.34-3.65,11.1-5.29l13.56-5.89,0,0c3.78-1.47,7.53-3,11.35-4.36,4.54-1.57,9.1-3,13.71-4.35,0,0,0,0,0,0Zm-71,27.65.15-.06-.15.06Z"/><path class="cls-1" d="M610.79,40.11l-13,1.27-25.08,2.47c-2,.19-3.91.61-5.85.92l-16.16,2.57-11.6,1.85c-2.28.36-4.53.85-6.79,1.31l-15.18,3c-2.41.48-4.83.91-7.21,1.49l-13.63,3.31c-2.77.67-5.58,1.25-8.31,2.07l-13.21,3.95c-2.65.79-5.32,1.52-7.92,2.46l-13.3,4.78-5.85,2.09c-2.8,1-5.54,2.17-8.29,3.3-8.54,3.52-16.9,7.45-25.14,11.64a155.88,155.88,0,0,0-25.12,16.17c-3.86,3-7.63,6.11-11.32,9.32s-7.24,6.62-10.77,10c-7.83,7.57-15.53,15.26-22.71,23.46q-9.25,10.58-17.49,22a264.13,264.13,0,0,0-17.52,28.36,279,279,0,0,0-12.57,26.48q-6.53,15.7-11.61,31.92a425.08,425.08,0,0,0-14.39,64.08c-3.2,21.25-5.28,42.68-6.6,64.13-.66,10.64-1.08,21.31-1.44,32-.19,5.33-.33,10.67-.48,16-.06,2-.14,4-.14,6q0,9.67,0,19.35.06,30.37.1,60.75c0,2.88,0,5.77.07,8.65l.77,19.89q1.22,31.62,2.45,63.23c.33,8.41.66,16.81,1.1,25.22q5.26,101.16,10.64,202.31c.43,8,.86,16.09,1.19,24.14q1.22,29.73,2.45,59.48.91,22.08,1.82,44.17c.14,3.38.15,6.76.22,10.14l.58,27.91,1.23,59.17c.06,2.71.15,5.42.14,8.14q-.06,10.49-.13,21-.17,29.8-.35,59.61c0,2.9,0,5.79-.17,8.68q-.59,13-1.1,26-.64,15.8-1.18,31.6c-.15,4.29-.21,8.6-.46,12.89q-1.41,24.09-2.62,48.18c-.12,2.36-.41,4.72-.61,7.07q-.7,8.22-1.37,16.45c-.5,6.11-.88,12.24-1.5,18.34q-2.42,23.88-4.61,47.8c-1.06,11.51-2,23-3.21,34.55,0,0,0,0,0,0,3-15.66,5.35-31.44,7.79-47.19,1.09-7,2.13-14,3.17-21,.87-5.87,1.81-11.74,2.52-17.63q1.74-14.54,3.4-29.1l1-9c.21-1.83.3-3.67.44-5.5q1.2-15.49,2.3-31c.34-4.74.73-9.48,1-14.23q1.43-27.89,2.6-55.82.24-5.52.45-11.05c.06-1.44.16-2.89.17-4.34,0-5.16.06-10.31.1-15.46q.19-30.76.4-61.51c0-3.63.12-7.27.06-10.9q-.13-8-.26-16.11l-1-63.21c-.15-9.4-.2-18.79-.52-28.18q-1.85-53-3.69-106c-.35-10-.92-20-1.39-29.95q-1.51-32.16-3-64.34-1.9-40.44-3.88-80.88-1.26-25.94-2.51-51.87c-.5-10.32-.84-20.66-1.24-31q-1.22-30.89-2.43-61.78c-.14-3.51-.39-7-.41-10.54l-.12-17.5q-.23-32.95-.47-65.88c0-2.33,0-4.65,0-7,.19-12.44.45-24.88.89-37.32.89-25.4,2.84-50.8,6.1-76,0,.28-.07.56-.12.84l.12-.92,0-.22,0,.22A483.89,483.89,0,0,1,288.69,271a362.21,362.21,0,0,1,17.19-52.11l-.06.13q3.43-8,7.25-15.89c2.64-5.41,5.53-10.7,8.51-15.94S327.7,177,331,172c3.14-4.74,6.55-9.3,10-13.81l-.07.09c3.61-4.62,7.3-9.18,11.14-13.62s7.93-8.73,12-13,8.12-8.13,12.3-12.07c4.72-4.44,9.67-8.59,14.77-12.58q4.77-3.62,9.7-7a146.82,146.82,0,0,1,12.71-7.62c4.37-2.38,8.86-4.54,13.35-6.7s9-4.13,13.58-6.08l-.35.15c3.26-1.37,6.52-2.71,9.84-3.93L460.48,72l8.07-3c1.86-.68,3.8-1.2,5.7-1.79l11-3.42c1.53-.48,3.05-1,4.6-1.41l19.88-5.08c4.24-1.09,8.55-1.92,12.84-2.83l11.29-2.41c1.64-.35,3.28-.75,4.93-1q16.95-3,33.89-6l23.75-2.8,13.77-1.64c6.21-.73,12.45-1.17,18.68-1.72a0,0,0,0,0,0,0c-6,.39-12.07.66-18.09,1.25ZM279.08,321.76v0Z"/><path class="cls-1" d="M17.4,558.93c-3.09,1.84-6.2,3.65-9.27,5.54l-4.26,2.6a12.52,12.52,0,0,0-3.27,2.22C0,570,.07,571.16,0,572a.9.9,0,0,0,.67.87c2.17.52,4.31,1.1,6.48,1.63a55.7,55.7,0,0,0,6,1c5.16.64,10.37.84,15.56,1q6.45.23,12.91.49,12.12.48,24.24.93,16.87.63,33.74,1.17,26.78.86,53.57,1.46,13,.28,25.9.64c18.46.57,36.92,1,55.39,1.3,8.4.15,16.78.3,25.18.61,27.18,1,54.35,2.09,81.53,3,18,.57,36.09,1.17,54.14,1.6,4.22.1,8.45.28,12.67.28q8.3,0,16.59,0,22.36-.07,44.72-.31c6.33-.07,12.65-.33,19-.5q12.39-.35,24.77-.72c25.36-.76,50.72-1.68,76.07-2.58l18.52-.67a0,0,0,1,0,0,0q-42.34-1.5-84.68-2.49c-13.67-.34-27.36-.7-41-1-4.51-.11-9-.15-13.54-.32q-10.39-.4-20.79-.78-14.32-.51-28.65-1c-3.84-.12-7.67-.16-11.5-.36q-23.51-1.22-47-2.2-40.86-1.7-81.71-3.57c-9.88-.44-19.76-1.06-29.65-1.27-16.61-.37-33.22-.79-49.83-1q-12.18-.19-24.35-.3c-2.59,0-5.17-.06-7.76,0q-24.6.29-49.17.81c-26.08.55-52.16,1.39-78.22,2.33-4.47.16-8.94.39-13.42.58a109,109,0,0,1-18.81-.31c-1.9-.29-3.8-.63-5.7-.92,0-.21,0-.43,0-.64l.1-.43.26-.35.47-.41c5-3.41,9.87-7,14.82-10.43,0,0,0,0,0,0Z"/><path class="cls-1" d="M500.7,33.81a209.3,209.3,0,0,0-23.58,5.3,180.81,180.81,0,0,0-18.73,6.34q-9.89,4-19.75,8.11c-6.57,2.73-13,5.94-19.37,9A246.3,246.3,0,0,0,388.48,80c-7,4.68-13.71,9.79-20.25,15.07-5.49,4.42-10.94,9-16,14l-16.05,15.7a230.25,230.25,0,0,0-26.29,31A177.92,177.92,0,0,0,297.4,176,229.78,229.78,0,0,0,286,201.89c-6.19,16.29-9.91,33.44-12.72,50.59-5.84,35.56-7.06,71.6-6.85,107.57.11,18,.82,36,1.77,54,.46,8.65,1,17.28,1.56,25.92.34,5.19.56,10.4,1.06,15.58l8.29,84.89c1.75,17.89,3.49,35.76,5.48,53.61q5.41,48.51,10.82,97c2.17,19.43,3.29,39,4.75,58.46l3.77,50.63c.47,6.22,1.2,12.46,1.21,18.71.06,30,0,59.92.19,89.87,0,2.55.2,5.16,0,7.7q-.39,6.49-.76,13Q303.18,954.7,302,980c-.17,3.52-.18,7.08-.48,10.6q-.76,8.61-1.48,17.21c-1,11.77-1.73,23.55-3.16,35.28q-1.67,13.78-3.22,27.57c-1,8.57-2.22,17.1-3.26,25.65-1.91,15.54-3.63,31.1-5.46,46.65,0,0,0,0,0,0,4.4-17.69,8.23-35.53,12-53.37,1.69-8,3.38-16.07,4.85-24.14q1.68-9.17,3.3-18.35c.66-3.71,1.41-7.44,1.91-11.18l-.17,1.23q2.91-21.05,5.62-42.13c1.2-9.31,2-18.68,2.85-28q2.24-23.57,4.21-47.17c.6-7.16.52-14.37.64-21.55L321.1,846l.36-21.36c0-2.73.28-5.54.15-8.27-1.42-27.15-2.68-54.32-4-81.49L316,701.89c-.35-7.08-1.19-14.17-1.8-21.24q-4.1-48.09-8.2-96.17c-1.67-19.58-3-39.18-4.48-58.78-2.19-29.27-4.75-58.53-6.15-87.86-1.34-28.07-2.22-56.17-1.76-84.27.22-13.49.52-27,1.2-40.46q1-20.63,3.7-41.11c3.29-23.63,8.22-47,17.2-69.17a200.31,200.31,0,0,1,9.77-19.62,194.49,194.49,0,0,1,13.29-19.88c2.64-3.3,5.4-6.5,8.24-9.65,2.39-2.65,4.78-5.35,7.32-7.86l9.13-9,8.56-8.47c3-3,6.21-5.72,9.36-8.5,3.55-3.14,7.2-6.15,10.92-9.08a277.24,277.24,0,0,1,35-22.67q8.88-4.81,17.71-9.7c4.18-2.32,8.47-4.45,12.73-6.62,8-4.1,16-8.15,24.31-11.76a254,254,0,0,1,61.46-16.12,235.45,235.45,0,0,1,27.17-2,198.55,198.55,0,0,1,26.93,1.58,72,72,0,0,1,16.71,4.17A30.41,30.41,0,0,1,620.17,51a17,17,0,0,1,2.32,2.44l-.12-.17A11.88,11.88,0,0,1,624,56.09v0c.12.51.24,1,.35,1.54.08,1.7.11,3.38.13,5.08,0,0,0,0,0,0,.16-1.14.36-2.36.49-3.51a9.15,9.15,0,0,0,0-3.41,19.42,19.42,0,0,0-3.46-6.35c-1.88-2.4-4.89-4-7.45-5.57A64.3,64.3,0,0,0,602.64,39a147.2,147.2,0,0,0-22.77-5.51,208.53,208.53,0,0,0-26.07-2.92q-5.49-.28-11-.27a265.38,265.38,0,0,0-42.11,3.55ZM624.36,57.49v0Z"/><path class="cls-1" d="M548.62,518.39q-5.32.34-10.62.72c-5.37.37-10.74,1.24-16.08,1.89-3.88.48-7.75.94-11.62,1.48q-33.24,4.6-66.43,9.64-17.78,2.68-35.55,5.51-17,2-33.91,4.15-8.17,1-16.34,2.13c-2.57.34-5.17.46-7.75.67-14.52,1.21-29,2.55-43.53,3.83-7.77.68-15.53,1-23.33,1.3q-20.28.87-40.55,2.05c-9.23.55-18.49.79-27.73,1.25q-17.17.83-34.33,1.89c-16.21,1-32.44,2.12-48.6,3.76-7.57.77-15.12,1.78-22.65,2.85-8,1.14-16,2.23-24,3.61a174.39,174.39,0,0,0-28.78,7.24,91.59,91.59,0,0,0-11.59,5.3A101.57,101.57,0,0,0,33.26,585s0,.06,0,0c1.54-.76,3.06-1.52,4.64-2.22h0c4.35-1.71,8.73-3.34,13.19-4.73a100,100,0,0,1,15.63-3.26c15.33-2,30.78-2,46.21-2.51,16.16-.49,32.3-.45,48.47-.35,14.63.08,29.27,0,43.91-.14q18.11-.17,36.2-.6c3.21-.07,6.44-.28,9.66-.44q11.41-.54,22.82-1.2c7-.41,14-.85,21-1.27,2.29-.14,4.58-.24,6.86-.48q20.34-2.1,40.68-4.22,7.18-.75,14.36-1.56c3.59-.39,7.16-1.07,10.72-1.66q20.78-3.43,41.51-7.12c8.7-1.55,17.32-3.64,26-5.55,11-2.42,21.9-4.9,32.84-7.37q18.18-4.11,36.32-8.36c10-2.35,20.12-4.57,30.19-6.83,6.69-1.5,13.52-2.64,20.31-3.59h-.06a13.63,13.63,0,0,1,3.09,0l-.42-.06a11.53,11.53,0,0,1,2.82.69l1.09.63.75.75a8.33,8.33,0,0,1,1.14,2.14c0-.09-.07-.17-.1-.25l.31,1.24a26.25,26.25,0,0,1,0,4.18,75.19,75.19,0,0,1-2.09,9.38s0,0,0,0a55.1,55.1,0,0,0,3.64-10.62,11.72,11.72,0,0,0-.27-6C564,521.24,562.16,520,560,519a13.18,13.18,0,0,0-5.54-1c-2,0-4,.24-5.87.37Zm6.51,3.11-.27,0,.27,0Z"/><path class="cls-1" d="M21.93,542.89c-2.06,0-4.12.13-6.17.3a27.52,27.52,0,0,0-6.55,1.39A7.28,7.28,0,0,0,5,547.83a7.06,7.06,0,0,0,0,7.11l.14.3q.37.89.76,1.78a9.4,9.4,0,0,0,3.38,3.7,24.48,24.48,0,0,0,6.34,2.92A41.5,41.5,0,0,0,23,565c1.95.26,3.91.47,5.86.71,4.38.61,8.76,1.11,13.18,1.45,5.07.39,10.15.56,15.23.69,4.79.13,9.6.32,14.4.31l22.36,0h12c8.36,0,16.71,0,25.07-.06l50.21-.52,2.53,0,43,4.06c4,.37,8,.41,12,.58l28.58,1.19c4.29.19,8.6.46,12.9.51q11.2.12,22.4.19c12.17.07,24.34.11,36.51.06q16.86-.08,33.72-.27c28.39,2.22,56.77,4.54,85.17,6.69,11.63.88,23.27,1.74,34.92,2.45q20.47,1.24,40.95,2.37,8.62.47,17.23.93c3.53.19,7.07.3,10.6.55q6.94.51,13.86,1c4.22.29,8.45.51,12.68.85l-2.55.26-9.77,1c-4.68.5-9.4.82-14.1,1.16-11.46.82-22.92,1.69-34.37,2.42,0,0,0,.06,0,.06,11.64.45,23.3.93,34.95,1.14,5.5.1,11,.24,16.48.14l10.46-.22c3-.07,6.09.06,9.11-.23a17.26,17.26,0,0,0,4.54-1,9,9,0,0,0,3.58-3,3.37,3.37,0,0,0,.84-3.17,3.25,3.25,0,0,0-2.28-2.27c-2.15-.49-4.3-1-6.47-1.47s-4.34-.67-6.51-.92c-3.24-.37-6.49-.55-9.74-.86q-6.09-.6-12.18-1.17-8.45-.8-16.9-1.52-20.16-1.74-40.33-3.5c-12.14-1.08-24.3-2.06-36.44-3.25l-12-1.14.54,0c6-.29,12-.77,18-1.18q10.7-.73,21.39-1.5c3.39-.25,6.78-.58,10.17-.88a0,0,0,0,0,0,0c-16.28-.1-32.55-.41-48.83-.55-5.14,0-10.28-.21-15.43-.31q-13.25-.24-26.5-.4-8.28-.1-16.55-.26l-16-1.41L364.3,562.1c-3.29-.29-6.57-.64-9.86-.86l-46.48-3-24.31-1.57c-2.51-.16-5-.34-7.51-.39l-49.95-1.16c-9.93-.23-19.87-.6-29.8-.6H178.72q-13.81,0-27.63,0l-7.06-.9-39.54-5c-4.87-.62-9.73-1.13-14.62-1.6l-14.3-1.39c-2.18-.21-4.35-.48-6.53-.63l-11.44-.75c-2.92-.19-5.86-.46-8.8-.58-7-.27-14.08-.54-21.14-.69-1.51,0-3-.06-4.53-.06Z"/><path class="cls-1" d="M565.58,38.85a282.9,282.9,0,0,0-40.25,9L510.88,52c-2.05.6-4.09,1.18-6.09,1.94q-12.06,4.56-24.1,9.19c-2.55,1-5,2.26-7.46,3.42l-15.16,7.06A423.29,423.29,0,0,0,418,95.09c-18,10.9-34.24,24.36-49.37,39-7.76,7.49-15.2,15.28-22.69,23.07l-8.68,9c-5.51,5.73-10.69,11.84-15.83,17.9a362.35,362.35,0,0,0-36.59,51.74c-10.58,18.16-18.89,37.63-26.22,57.29-3.38,9-6.34,18.25-9.4,27.41-1.85,5.56-3.67,11.08-5.3,16.7l-7.74,26.6c-2,6.75-3.47,13.67-5.2,20.48-1.47,5.81-3.09,11.59-4.28,17.47l-5.8,28.93c-.48,2.39-1,4.75-1.31,7.15q-.63,4.75-1.25,9.51l-3.67,27.94c-.19,1.44-.26,2.89-.36,4.34q-.51,7.42-1,14.84t-1,14.81c-.15,2.11-.37,4.24-.44,6.36q-.41,13.08-.81,26.16c-.18,5.61-.43,11.21-.46,16.82q-.08,14.68-.18,29.35c-.17,30.19.35,60.38.89,90.57.1,5.57.48,11.12.77,16.68q.68,12.59,1.35,25.17c.12,2.26.51,4.55.77,6.81L216,743.74c.71,6.28,1.37,12.53,2.47,18.76L223.29,790c1.1,6.25,2.51,12.46,3.8,18.67q4.79,23.15,9.66,46.27c3.08,14.63,5.72,29.34,8.48,44,1.06,5.63,1.87,11.3,2.76,17q1.86,11.86,3.7,23.74c1.67,12.69,3.5,25.38,4.79,38.11q1.44,14.25,2.88,28.49c.67,6.59,1,13.23,1.49,19.84q3.12,42.75,3.85,85.66c.57,31.95.86,63.9,2,95.84.54,15.29,1.06,30.58,1.8,45.86.31,6.62.48,13.24.76,19.86.26,6.43.64,12.86.84,19.29.59,19.47,1.39,38.93,2,58.4.59,19.06,1.39,38.1,1.74,57.16a0,0,0,0,0,.06,0c2.76-13.8,5.41-27.62,7.79-41.5,1.18-6.91,2.35-13.83,3.42-20.77,1.19-7.76,2.49-15.52,3.44-23.31,1.85-15.07,3.61-30.13,4.83-45.26.6-7.53,1.32-15.08,1.69-22.62q.68-13.45,1.17-26.92c1-28.1.84-56.26-.38-84.35-.68-15.54-1.3-31.09-2.2-46.63-.44-7.31-.74-14.64-1.3-21.94l-2.1-27.4c-.44-5.83-1-11.64-1.61-17.45-.76-7.49-1.33-15-2.27-22.47-1.93-15.16-3.67-30.34-6-45.44q-2.15-13.89-4.29-27.78c-1-6.57-2.36-13.1-3.55-19.64s-2.21-13.1-3.61-19.59q-3-13.69-5.91-27.4c-2.71-12.54-5.79-25-8.8-37.43q-4.73-19.52-9.37-39c-2.94-12.3-5.27-24.74-7.83-37.11-1.06-5.12-1.53-10.39-2.24-15.57q-1.26-9.14-2.51-18.28-.88-11.9-1.75-23.82c-.42-5.74-1-11.47-1.16-17.23-.53-14.88-1.16-29.76-1.52-44.65-.74-30.51-1.62-61-1.28-91.55q.16-13.84.31-27.69c0-3.12.31-6.25.48-9.37q.47-9.63,1-19.25.27-5.25.52-10.5c.16-3.21.73-6.44,1.09-9.63Q231.42,452.83,233,439l6.74-36.59c.34-1.82.86-3.63,1.3-5.44q1.58-6.62,3.16-13.25c1.3-5.43,2.41-11,3.91-16.34L254,346.27c1.3-4.67,2.48-9.39,4-14q3.72-11.53,7.44-23,5.7-17.69,12.94-34.83l-.57,1.37a341.06,341.06,0,0,1,18.15-36.55,337,337,0,0,1,24.3-35.8q6.08-7.76,12.5-15.24c3.9-4.54,7.84-9.11,12-13.43l12.95-13.47c4.55-4.73,9.1-9.44,13.74-14.08a361.4,361.4,0,0,1,33.09-29.58A301.72,301.72,0,0,1,434.61,98c8-4.62,16.16-9,24.49-13l25.06-11.85q8.29-3.21,16.57-6.43l8.33-3.27c1.48-.58,3.06-1,4.58-1.44q10.93-3.37,21.84-6.81c2.42-.76,4.87-1.44,7.33-2.09l7.61-.58,9.92-.77c.81-.06,1.65-.06,2.47,0h1.37l8.45-.15c16.24-.28,32.51-.73,48.75.2,1.89.1,3-1.56,3.2-3.2l0-.41A3.22,3.22,0,0,0,623,45.42a12,12,0,0,0-3.38-1.75,74.05,74.05,0,0,0-11.37-3.8,97.2,97.2,0,0,0-12.84-2,94.31,94.31,0,0,0-10.11-.52,144.88,144.88,0,0,0-19.75,1.51Zm54.43,5,.24.1-.24-.1Zm-27.37,1.87c-6.68.38-13.35.91-20,1.45l-4.07.33q3.27-.54,6.56-1l-1.16.16a130.45,130.45,0,0,1,18.68-1Z"/><path class="cls-1" d="M489.2,35.43c-23,3.38-43.88,13.79-63,26.64-7.32,4.93-14.29,10.41-21.3,15.78-17.2,13.18-32,29-45.11,46.18,0,0,0,0,0,0l5.73-4.49-.13.11c10.1-7.61,20.37-15,31.11-21.62q9.77-6.06,19.79-11.63,7.26-4.06,14.46-8.23a284.18,284.18,0,0,1,30-14.8A164.24,164.24,0,0,1,498,52.49a123.29,123.29,0,0,1,18.38-.5l8.58.39c4.58.19,9.06.2,13.63.06A261.24,261.24,0,0,0,566,49.72q3.08-.41,6.15-.86c7.32-.85,14.57-1.4,22-1.56a0,0,0,0,0,0,0A122.57,122.57,0,0,0,579,42.63a139,139,0,0,0-14.59-2q-8.85-1-17.7-1.77c-4.62-.42-9.22-1.08-13.83-1.62q-5.27-.81-10.56-1.52c-5.12-.68-10.22-1.28-15.39-1.46q-1.29,0-2.57,0a104.63,104.63,0,0,0-15.19,1.25ZM460.28,63.62l-1,.44,1-.44Z"/><path class="cls-1" d="M515.48,18c-12.41.2-25,1.85-37.23,3.86a129.09,129.09,0,0,0-17,3.92C453.93,28,446.92,31.44,440,34.6c-9.94,4.54-19.74,9.45-29.51,14.33q-7.14,3.57-14.12,7.48a160.89,160.89,0,0,0-19.8,13.17c-18.19,14.07-28.5,35-39.07,54.84-3.55,6.66-6.54,13.65-9.78,20.46s-6.43,13.42-9.59,20.16c0,0,0,.06,0,0a270.49,270.49,0,0,1,34.11-31.71c12.92-10,26-19.67,40.9-26.48,11.83-4.62,24.21-7.67,36.42-11.11,10-2.82,20-5.87,29.78-9.61,10.44-4,20.68-8.52,31.21-12.32a194.17,194.17,0,0,1,30.49-8.56c15.6-2.89,31.17-5.9,46.79-8.66,4.67,0,9.32.28,14,.61,7.37,1.08,14.69,2.38,22,3.69,3.85.69,7.67,1.47,11.5,2.29a69.72,69.72,0,0,0,7.31,1.06c1.94-.15,3.88-.39,5.81-.71a20,20,0,0,0,8-4.55,16,16,0,0,0,2-20.5c-.4-1-.82-1.92-1.24-2.88A19.31,19.31,0,0,0,634,31.43c-2.78-3.34-7.24-5.25-11.13-6.86a49.25,49.25,0,0,0-10.23-2.82c-4.13-.74-8.38-1.31-12.57-1.64-5.56-.44-11.1-.89-16.67-1.14-11.55-.5-23.1-.68-34.66-.72-8.83,0-17.66-.26-26.49-.26q-3.41,0-6.82.05ZM638.13,37.91l.15.35,0,0q-.07-.16-.13-.32Zm.55,1.05.12.15-.12-.15Z"/><path class="cls-1" d="M519.44,34.15c-8.54.68-17.07,1.38-25.59,2.26C486,37.23,478,38,470.19,39.12l-7.51,1.06c-1.74.25-3.51.43-5.24.76l-7.07,1.34c-1.76.33-3.57.6-5.32,1L438,45c-1.6.39-3.25.7-4.83,1.18l-6.95,2.11c-1.77.53-3.59,1-5.33,1.62l-13,4.58c-3.88,1.37-7.71,2.92-11.56,4.4-3.55,1.35-7.06,2.86-10.58,4.3-2.16.88-4.27,1.87-6.39,2.84-1.7.77-3.45,1.49-5.1,2.36l-6.8,3.58c-1.55.82-3,1.79-4.49,2.72s-3,1.76-4.38,2.76L352.28,82c-1.68,1.22-3.3,2.54-4.93,3.85s-3.45,2.71-5.09,4.15c-2.92,2.55-5.87,5.07-8.71,7.71-3.28,3.06-6.5,6.14-9.66,9.33-2.95,3-5.72,6.11-8.52,9.23-1.35,1.52-2.58,3.19-3.86,4.77-1.56,1.93-3.06,3.87-4.51,5.87-1.18,1.63-2.46,3.22-3.56,4.92l-4.15,6.32c-4.38,6.69-8.4,13.65-12.22,20.67-2.07,3.8-4,7.67-5.89,11.56-1.82,3.7-3.42,7.51-5.09,11.29-3.59,8.13-6.56,16.49-9.38,24.91a462.79,462.79,0,0,0-13,47.62c-1.65,7.49-3,15.07-4.09,22.66-.65,4.46-1.35,8.91-1.85,13.39s-1.11,8.77-1.44,13.17q-.54,7.11-1,14.21c-.23,3.32-.27,6.66-.35,10-.1,4.17-.37,8.36-.3,12.53q.11,7,.25,14c.06,3.17,0,6.37.28,9.53q.66,8.25,1.34,16.52c.7,8.49,2.21,16.9,3.46,25.32.51,3.38,1.23,6.73,1.88,10.08.68,3.56,1.35,7.12,2,10.68q2.47,12.65,4.85,25.32.89,4.79,1.76,9.57s.06,0,0,0q-1.45-25.63-2.58-51.29c-.36-8.19-.29-16.4-.38-24.61,0-3.55.31-7.12.48-10.66.13-2.82.26-5.63.38-8.45.06-1.32.06-2.67.19-4q1.06-11,2.05-22c.29-3.21.78-6.41,1.17-9.6s.77-6.47,1.16-9.7c1.22-7.83,2.41-15.64,3.79-23.45,1.31-7.47,2.68-14.94,4.34-22.34,3.6-16,7.4-32,12-47.76,1-3.47,2-7,3-10.43.77-2.69,1.71-5.33,2.56-8,1.79-5.53,3.84-10.94,5.87-16.38l3.18-7.41c1.13-2.63,2.4-5.2,3.64-7.78,2.71-5.66,5.64-11.21,8.72-16.68,3.25-5.78,6.63-11.46,10.11-17.1,2.88-4.67,6.14-9.06,9.45-13.42,3-3.48,5.91-6.92,9-10.25s6.53-6.7,9.85-10c6.54-6.49,13.52-12.52,20.54-18.49l5.33-4c2.22-1.68,4.66-3.11,7-4.65A151.07,151.07,0,0,1,394.74,75c5.4-2.81,10.83-5.5,16.3-8.18,4.62-2.25,9.32-4.33,14-6.46l11-4.56c1.45-.6,3-1.06,4.46-1.58l7-2.47c1.64-.57,3.35-1,5-1.47l7.05-2c1.62-.47,3.31-.77,5-1.15l7.59-1.75c4.23-1,8.54-1.66,12.8-2.47,3.65-.7,7.32-1.29,11-1.91,7.93-1.35,15.89-2.46,23.86-3.6,9.12-1,18.32-1.91,27.47-.72l-.1,0,.18,0h0a61,61,0,0,1,12.4,3.27l0,0a34.19,34.19,0,0,1,6.53,3.66l0,0A13.28,13.28,0,0,1,568,45.17l0,0A19.78,19.78,0,0,1,570,48.86h0l.49,1.19s.06,0,0,0a21.7,21.7,0,0,0-2.3-5.08,14.5,14.5,0,0,0-3.76-3.3c-4.22-3-9.4-4.67-14.36-6a69.4,69.4,0,0,0-14.86-1.88q-2.45-.1-4.93-.1c-3.64,0-7.3.15-10.91.44ZM570,48.85h0ZM547.37,36.67h0Z"/><path class="cls-1" d="M480.59,54.61c-3.46.39-7,.64-10.39,1.18a190.42,190.42,0,0,0-26.35,5.94c-4.12,1.25-8.14,2.85-12.18,4.33-6.36,2.32-12.57,5-18.82,7.58-2.48,1-4.92,2.18-7.37,3.27-2.91,1.31-5.87,2.55-8.74,4L386,86.12a169.45,169.45,0,0,0-18.29,10.44,166.53,166.53,0,0,0-19.89,15.68c-3.13,2.81-6.08,5.83-9.09,8.77-5,4.88-9.75,10-14.54,15.06-1.73,1.83-3.38,3.74-5.06,5.62-2.26,2.54-4.62,5-6.8,7.65-5.58,6.71-11.17,13.4-16.42,20.38a232.39,232.39,0,0,0-14.69,22.37c-2.2,3.77-4.13,7.68-6.1,11.58q-2.27,4.45-4.54,8.91c-.48,1-.85,2-1.27,2.95q-1.58,3.66-3.17,7.31c-1.17,2.71-2.45,5.41-3.5,8.17q-2.26,6-4.51,12c-2.39,6.32-4.29,12.8-6.32,19.23-.63,2-1.12,4-1.61,6q-1.67,6.77-3.33,13.54c-.49,2-.78,4-1.12,6.08q-1.16,7-2.34,14.07c-1.17,7-1.72,14.17-2.49,21.26-.71,6.49-.94,13-1.37,19.55-.44,6.79-.59,13.61-.87,20.4-.57,13.68-1,27.36-1.5,41-.47,13.29-.73,26.58-1,39.88-.11,6.76-.06,13.53-.08,20.3s.28,13.5.45,20.26.73,13.26,1.11,19.88,1.06,13.43,1.61,20.14c1.1,13.65,2.29,27.3,3.34,41,2,25.81,3.9,51.62,6.24,77.39q3.66,40.45,8.32,80.79,2.53,22.12,5.21,44.2c1.68,14,3.21,27.93,4.79,41.89,1.48,13.09,2.51,26.23,3.68,39.34.5,5.66,1.14,11.32,1.51,17q.59,8.94,1.18,17.89,1,14.39,1.9,28.8c.24,3.68.53,7.36.69,11.05q1.12,25.22,2.24,50.46c.54,12.23.75,24.49,1.06,36.73q.48,18,.91,36.06.34,14.41.78,28.81c.11,3.72.23,7.42.51,11.14q1.73,23.47,3.68,46.93c.11,1.43.39,2.88.6,4.29q.73,5,1.46,10.09,2,13.94,4.13,27.87c.65,4.38,1.24,8.78,2,13.15q1.87,11,3.78,21.95c4.65,26.9,9.26,53.81,14.41,80.61a0,0,0,0,0,.06,0c-1.58-13.87-2.91-27.78-4.31-41.68q-2.14-21.08-4.33-42.15-1.05-10-2.11-20.06c-.58-5.4-1-10.83-1.44-16.23q-1.29-14.41-2.64-28.8c-.35-3.73-.79-7.45-.92-11.19q-.83-23.85-1.86-47.7c-.21-4.76-.06-9.57-.09-14.34-.06-9.6-.19-19.21-.31-28.81q-.24-18.62-.52-37.26c-.16-11.58-.32-23.14-.72-34.72q-.79-23.33-1.59-46.66c-.18-5.24-.6-10.47-.91-15.7l-1.69-29.1c-.23-4.13-.39-8.26-.74-12.38l-2-23.18-2-24c-.41-4.84-1-9.68-1.57-14.51-1.56-14.18-3.14-28.35-4.83-42.52q-2.61-21.89-5.1-43.8-4.62-40.3-8.39-80.67c-2.4-25.7-4.29-51.46-6.19-77.21-1-13.29-2.11-26.56-3.14-39.84-1-13.58-2-27.17-2.24-40.79-.12-6.86-.2-13.7-.13-20.56s.18-13.46.35-20.19c.35-13.48.87-27,1.5-40.43q.92-20,1.8-39.93c.31-6.73.6-13.46,1-20.18l.75-11.67c.19-2.92.6-5.86.9-8.78l1-9.73,1.67-10.43c.53-3.33.89-6.74,1.66-10l3.34-14.17c.7-3,1.5-5.83,2.39-8.76l3.77-12.54c.31-1,.73-2.05,1.1-3.08l3-8.43c2.36-6.57,5.1-13,7.78-19.44l7.82-16c2.34-4.77,5.17-9.35,8-13.87,4-6.46,8.39-12.62,12.87-18.72,7-9,14-18,21.45-26.67,4.42-5.12,8.78-10.27,13.35-15.25l7-7.69c3-3.29,6.28-6.36,9.55-9.38,2.89-2.69,6-5.19,9.06-7.62,12.6-9.5,26.52-17,40.36-24.48,4.91-2.66,10-5.08,14.93-7.61,4.78-2.42,9.76-4.5,14.64-6.71a162.62,162.62,0,0,1,30-9.14c7-1.34,14-2.71,21.09-3.84,0,0,0-.06,0-.06-4.54.36-9,.81-13.57,1.31Z"/><path class="cls-1" d="M340.6,156.25c-1.29,1.48-2.58,3-3.84,4.48-1.44,1.72-2.82,3.51-4.21,5.26q-3.53,4.46-6.82,9.08c-2.53,3.55-4.85,7.24-7.14,10.93-2.68,4.34-5.16,8.8-7.57,13.29-4.06,7.59-7.58,15.47-10.9,23.41-1.76,4.21-3.38,8.49-5,12.78-.89,2.44-1.8,4.89-2.55,7.39q-3.51,11.77-7,23.54l-.77,2.62c-.15.48-.22,1-.33,1.46l-2.67,12.14-2.73,12.51c-.35,1.57-.7,3.13-.94,4.72q-1.9,12.42-3.76,24.84c-.25,1.64-.56,3.29-.72,4.93q-.45,4.75-.89,9.5-1.09,11.69-2.15,23.39c-.14,1.52-.16,3.06-.23,4.59-.23,4.56-.45,9.12-.68,13.68q-.3,6.42-.61,12.84c-.09,1.8-.22,3.59-.26,5.39q-.23,10.91-.48,21.82c-.12,5.83-.31,11.66-.38,17.48q-.11,10.93-.23,21.87c-.06,5.84-.16,11.68-.18,17.52-.06,13.19-.18,26.39-.16,39.59q0,11.07,0,22.16c0,5.92,0,11.84,0,17.77.09,12.73.15,25.46.27,38.19q.36,40.07.7,80.15.11,10.66.2,21.33c0,2.3.15,4.61.21,6.91q.22,7.34.44,14.69c.09,2.92.17,5.84.26,8.77.06,2.21.29,4.42.44,6.62l1.5,22.23c0,.73.16,1.47.24,2.21.2,1.8.39,3.62.6,5.42l1.6,14.45c.2,1.83.36,3.67.63,5.49q.75,5.29,1.51,10.6c.85,5.9,1.64,11.8,2.56,17.7q1.78,11.49,3.57,23c.6,3.84,1.11,7.69,1.66,11.55l1.88,13.09q1.17,11.06,2.32,22.12c.2,1.92.47,3.84.6,5.75q.34,5.18.67,10.37.45,6.8.89,13.6c.12,1.94.29,3.89.36,5.83q.41,12.26.83,24.52c.16,4.73.25,9.46.33,14.2q.22,13.11.44,26.24c.23,13.38.28,26.77.42,40.17q.17,16.5.32,33c.12,12.88.19,25.75.36,38.63q.34,24.43.71,48.84.12,7.31.25,14.63c.1,5.4.31,10.79.48,16.19.41,13.75.79,27.51,1.31,41.26q.88,23.42,1.83,46.86c.52,13,.94,26.09,1.43,39.14q.62,17.07,1.25,34.13c.29,8,.59,16.07.83,24.11,0,0,.06,0,.06,0,0-14-.13-28-.23-41.92s-.22-28.13-.34-42.2c-.21-23.9-.69-47.8-1-71.7q-.33-22.92-.73-45.84c-.08-4.55-.08-9.1-.13-13.66q-.13-14.31-.33-28.62-.51-39.94-.82-79.91-.18-20-.42-40c-.13-12.76-.36-25.52-.59-38.27-.08-4.79-.16-9.58-.32-14.37l-.87-25c0-1.5-.17-3-.27-4.48L294.43,899q-.35-5.41-.72-10.82c-.12-1.85-.35-3.69-.56-5.53L291.35,866c-.3-2.74-.54-5.49-1-8.22q-1.17-8-2.36-15.92c-.44-3-.85-5.94-1.33-8.9q-1.17-7.28-2.34-14.57c-.55-3.38-1.13-6.74-1.62-10.13L279,782.56l-2.48-21.82c-.19-1.72-.44-3.45-.56-5.18q-.4-5.69-.79-11.38-.45-6.53-.91-13.07c-.11-1.66-.24-3.32-.29-5q-.39-12.55-.77-25.08c-.15-5-.18-10-.22-15q-.1-10.66-.19-21.33c-.1-12.15-.15-24.31-.23-36.46-.18-26.27-.41-52.54-.38-78.82,0-26.47,0-52.94.35-79.4l.29-23.35c0-3.54.06-7.07.15-10.6l.51-22.23q.12-5.45.25-10.89c0-1.38,0-2.76.1-4.14q.87-17.92,1.73-35.86c.06-1.38.23-2.76.35-4.13q.5-5.78,1-11.54.76-8.88,1.49-17.75,1.86-13.29,3.68-26.58l.46-3.32c0-.31.12-.61.19-.91.16-.82.33-1.64.49-2.47q1.73-8.54,3.44-17.09.71-3.54,1.42-7.1c.15-.74.27-1.49.47-2.22l3.67-13.42q1.83-6.71,3.66-13.41c.41-1.54,1-3.07,1.45-4.58.94-2.89,1.95-5.76,3-8.63,2-5.77,4.32-11.45,6.7-17.1l-.12.27q2.77-6.43,5.81-12.74c2.22-4.59,4.66-9.08,7.16-13.53s5.18-8.78,8-13,6.05-8.57,9.19-12.77l0,0c1.21-1.56,2.45-3.1,3.69-4.64a0,0,0,0,0,0,0Zm-61.69,626,0,.19,0-.19Z"/><path class="cls-1" d="M378,560.62q-11.88.6-23.76,1.27c-5.45.3-10.89.82-16.32,1.25q-10.13.8-20.25,1.64c-6.28.52-12.54,1.3-18.8,2-25.69,2.75-51.32,6-76.93,9.38-26.19,3.42-52.41,6.53-78.62,9.8-12.26,1.53-24.49,3.27-36.72,5-1.64.23-3.29.55-4.92.83l-12.87,2.18-12.32,2.12c-1.39.24-2.77.44-4.14.75Q62.18,599.06,52,601.37l-9.56,2.17c-4.21,1-8.39,2.12-12.57,3.21,0,0,0,.06,0,0,4.38-.77,8.74-1.6,13.14-2.25l11.14-1.64q9.65-1.43,19.29-2.9,9.94-1,19.89-2.1c5.1-.55,10.2-1.2,15.32-1.63,12.85-1.06,25.7-2.2,38.55-3.21q20-1.57,40-3.34c6.25-.56,12.51-1,18.74-1.71q10.26-1.08,20.51-2.19,19.24-2.1,38.47-4.38c5.36-.64,10.72-1.35,16.09-1.94q11.17-1.21,22.34-2.47c5.05-.58,10.1-1.25,15.16-1.73q11.89-1.15,23.79-2.35c4.66-.47,9.3-1,14-1.37q12.67-1,25.32-2.12c5-.43,9.94-.73,14.92-1.07,6.24-.41,12.47-1,18.72-1.27,13.86-.68,27.71-1.4,41.57-2,12.13-.56,24.27-1,36.4-1.57s24.05-1.23,36.09-1.53c0,0,0-.06,0-.06-25.64-1.43-51.34-2.12-77-2.47q-10.11-.14-20.23-.15c-18,0-36.08.37-54.1,1.3Z"/><path class="cls-1" d="M290.61,554.62c-12.19.14-24.4.22-36.59.6q-22.27.71-44.55,1.56c-4.42.16-8.83.53-13.24.81q-12.9.81-25.78,1.66c-3.67.23-7.28.57-10.93,1L133.44,563c-3.92.42-7.79.85-11.68,1.47l-25.07,4.06-8.27,1.35c-2.39.39-4.76,1-7.12,1.53-8.65,1.86-17.36,3.56-25.91,5.83,0,0,0,.06,0,0,5.87-1.22,11.78-2.14,17.7-3.09l15.6-2.53q18.68-2.06,37.36-4.13c1.74-.19,3.52-.2,5.26-.3l12.55-.71,21.36-1.23c1.18-.06,2.35-.06,3.52-.08l11-.22q12.63-.24,25.27-.52c3.37-.08,6.72-.09,10.09-.09q13,0,26.06,0,16.41,0,32.83,0,7.28,0,14.56,0c7,0,14,0,21,.06q40.65.4,81.29.25,35.8-.11,71.59-1,20.49-.53,41-1.28c12.07-.46,24.15-1,36.23-1.23a45.26,45.26,0,0,1,5.27.19l.6.14.32.2.14.31c0,.12,0,.24,0,.36l-.23.29a17.3,17.3,0,0,1-1.85,1,45,45,0,0,1-4.32,1.3s0,.06,0,0a31.55,31.55,0,0,0,5.27-1.18c.61-.21,1.53-.49,1.86-1.12a1.83,1.83,0,0,0-.1-1.61c-.57-.85-1.93-.93-2.82-1.12a52.74,52.74,0,0,0-6.57-.71c-1.36-.11-2.72-.23-4.09-.31q-9-.52-18.06-.84c-12.46-.44-24.94-.77-37.41-1.09q-40.13-1-80.28-1.74c-24.35-.4-48.69-.79-73-.85h-5.62q-14.05,0-28.1.15Z"/><path class="cls-1" d="M507.45,550c-16,0-32.06.39-48.09.8-15,.39-30.07,1-45.11,1.35q-16,.37-32.08.85c-6,.19-12,.48-18,.57-31.17.52-62.33,1.53-93.5,2.3q-31.76.77-63.52,2c-11.26.44-22.5,1.18-33.75,1.88q-31.1,1.9-62.19,4.09c-4.07.28-8.1.75-12.16,1.21Q82.6,567,66.15,569c-13,1.55-26,3.76-39,5.82,0,0,0,.06,0,.06l27.3-2.14c6.66-.53,13.34-.82,20-1.15q15.4-.76,30.79-1.59c3.78-.21,7.57-.17,11.35-.21q32.84-.39,65.66-1.06c10.31-.22,20.6-.43,30.92-.48q50.38-.31,100.75-1.59,17.34-.44,34.7-1c5.54-.19,11.07-.3,16.59-.6q26.31-1.4,52.61-3.12c14.62-.94,29.21-2.3,43.8-3.47,16.49-1.34,33-2.9,49.46-4.05,6.5-.46,13-1,19.5-1.44l9.31-.65a77.51,77.51,0,0,1,10.75-.35l.89.14.78.33a3,3,0,0,1,.47.88s0,0,0,0c-.26-.91-.32-1-1.17-1.47a10.41,10.41,0,0,0-2-.51,22,22,0,0,0-2.31-.23c-1.75-.16-3.51-.31-5.26-.39q-6.45-.28-12.9-.41-9.36-.19-18.75-.19Zm43.2,1.85h0Zm.88.13h0Z"/><path class="cls-1" d="M501.19,63.53a179,179,0,0,0-21.09,1.35,122.31,122.31,0,0,0-22.57,5,154.52,154.52,0,0,0-19.64,8.34c-3.22,1.56-6.39,3.25-9.52,5S422,86.73,419,88.73q-7.35,4.88-14.62,9.86c-3.13,2.14-6.24,4.25-9.24,6.56q-9,6.88-17.92,13.85c-7.7,6-15,12.6-22.36,19-3.83,3.34-7.48,6.89-11.19,10.34-3.05,2.84-6.16,5.65-9.11,8.61q-5.08,5.05-10.12,10.14c-1.81,1.82-3.74,3.59-5.43,5.53l-8.42,9.65c-1.82,2.09-3.73,4.13-5.45,6.31-9,11.51-18.35,22.91-26.56,35,0,0,0,0,0,0,7.2-7.81,15-15.05,22.8-22.28,3.71-3.45,7.36-7,11.22-10.25q6.83-5.8,13.63-11.61,9-6.85,17.89-13.77c7.16-5.27,14.19-10.73,21.4-15.92,8-5.74,15.81-11.68,23.91-17.23q8.25-5.66,16.45-11.41c3-2.09,6.09-4,9.15-6,15.76-10.23,31.4-20.83,48.61-28.48A133.5,133.5,0,0,1,479,81.4a144.23,144.23,0,0,1,17.64-3.49c9.52-1.2,19.1-1.86,28.69-2.2,8-.28,16-.52,24-.35l13.8.27c4.91.09,9.81.42,14.72.61,3.87.16,7.74.49,11.6.75,6.25.41,12.46.84,18.68,1.63a74.71,74.71,0,0,1,8,1.56,61.37,61.37,0,0,1,7.18,2.57h0l1.06.45s.06,0,0,0a85,85,0,0,0-7.77-4.1,52,52,0,0,0-8-2.67c-4-1.11-8-2-12.09-2.74-5.48-1-11-2.18-16.46-3q-15.93-2.39-31.9-4.3c-4.94-.59-10-1.08-14.91-1.42s-10.12-.89-15.17-1c-5.4-.14-10.8-.37-16.21-.37Z"/><path class="cls-1" d="M538,62.42c-8.33.15-16.58,2-24.66,3.9-4,.94-8,1.86-11.9,2.95-16.5,4.57-32.95,9.55-48.8,16-8.48,3.47-16.93,7-25.24,10.85-7.94,3.68-15.86,7.43-23.45,11.8l-6.64,3.84c-1.38.8-2.67,1.76-4,2.65l-6.89,4.67c-1.67,1.14-3.24,2.41-4.83,3.64a225.66,225.66,0,0,0-19.94,16.82c-6.12,6-12.26,12.05-17.83,18.6-2.82,3.3-5.74,6.54-8.4,10-4.16,5.36-8.4,10.64-12.23,16.24a165.68,165.68,0,0,0-17,33,159.28,159.28,0,0,0-7.46,24.41q-1.69,7.72-3.38,15.46c-.2.93-.31,1.89-.45,2.84l-1.35,8.65q-1.12,7.14-2.24,14.29c-.64,4.11-1,8.28-1.37,12.42l-1.86,18.12c-.23,2.18-.44,4.35-.55,6.54q-.85,16.72-1.68,33.43c-.34,6.74-.27,13.5-.32,20.26l-.24,29.67c0,2.19.11,4.4.17,6.6q.24,8.64.48,17.28l.8,29c.2,7.28.6,14.57.89,21.85q.71,17.2,1.42,34.4c.2,4.75.22,9.51.27,14.26q.34,30.48.68,61c0,1.77-.13,3.57-.19,5.34q-.27,7.6-.55,15.2-.66,18.46-1.15,36.9c-.12,4.67-.17,9.31-.5,14q-1.15,16.36-2.19,32.73c-1,15.75-1.93,31.5-3.09,47.25q-2,27-3.89,54.1c-1.51,21.32-2.86,42.66-4.72,64,0,0,0,0,0,0,5.81-35.75,11.3-71.55,16.8-107.35,1.19-7.8,2.51-15.6,3.57-23.42s2.13-15.84,3.17-23.75q2.43-18.4,4.74-36.79c.58-4.61,1.2-9.2,1.53-13.83,1.48-20.93,2.67-41.86,3.88-62.8.31-5.21.12-10.47.15-15.7L307.8,536q0-7.37.06-14.75c0-1.72.06-3.43,0-5.15l-.7-26.94c-.44-17-.87-33.95-1.1-50.93l-.44-32.87c-.09-6.9.23-13.81.38-20.71l.58-27.53c.07-3.39.42-6.8.62-10.19q.58-9.46,1.15-18.93l.6-9.87c.15-2.34.5-4.67.76-7q1.3-11.84,2.6-23.68c.65-4.07,1.28-8.15,1.92-12.23s1.12-8.36,2-12.45q1.8-8.46,3.59-16.93a162.36,162.36,0,0,1,8.78-27.64q3.28-7.5,7.23-14.66a122.86,122.86,0,0,1,8.57-13.6l7.29-9.84c2.89-3.57,5.72-7.21,8.77-10.64l6.95-7.86c1.62-1.83,3.4-3.53,5.1-5.29,1.52-1.56,3-3.21,4.6-4.7q3.89-3.61,7.75-7.25c3.6-3.37,7.48-6.44,11.25-9.62l9.4-7c1.1-.83,2.3-1.54,3.46-2.3l7-4.56c3.42-2.24,7.06-4.19,10.6-6.26,3.7-2.16,7.49-4.17,11.23-6.24,7.05-3.91,14.26-7.52,21.43-11.17S474,90.35,481.44,87.07q11.5-4.7,23.08-9.17c3.63-1.39,7.3-2.63,11-3.9a136.21,136.21,0,0,1,23.24-6.32,48.28,48.28,0,0,1,11.41-.09,42.52,42.52,0,0,1,9.12,2.59,47,47,0,0,1,7.65,4.37,30.21,30.21,0,0,1,4.91,4.89,59.08,59.08,0,0,1,3,5.37l2.57,4.95a0,0,0,0,0,0,0c-.9-2.29-1.83-4.56-2.75-6.84a29.61,29.61,0,0,0-2.45-5.09,26.77,26.77,0,0,0-5.05-5.57,42.62,42.62,0,0,0-12-7.12,42,42,0,0,0-15.84-2.7Zm28.68,12,.19.15-.19-.15Z"/><path class="cls-1" d="M307.18,625.14c-1.3,8.11-2.68,16.2-3.75,24.35q-1.31,9.89-2.56,19.8-1.34,10.49-2.64,21c-.31,2.51-.6,5-.78,7.53q-1.31,18.44-2.47,36.91c-.06,1.06,0,2.14,0,3.2q0,5.41-.06,10.83l0,10.71c0,1.67-.09,3.35,0,5,.48,9.87.84,19.77,1.59,29.62.85,11.23,1.74,22.45,2.76,33.66,1.88,20.66,4.11,41.29,6.09,61.94,1.06,11.09,2.14,22.17,3.09,33.26s1.72,22,2.46,33.08c.36,5.37.47,10.78.7,16.16.19,4.47.3,8.93.39,13.41.23,11.33.31,22.65.36,34,.08,20.15-1.29,40.3-3.21,60.34-2.09,21.87-4.39,43.71-6.6,65.56-1.34,13.25-2,26.56-2.95,39.84-.55,7.65-1.16,15.26-1.83,22.89-.57,6.47-1.39,12.9-2.12,19.34-3.44,23.49-7,47-10,70.51q-.88,5.79-1.74,11.6c-.56,3.84-1.4,7.65-2.1,11.47s-1.72,7.3-2.59,10.93-2.18,7.24-3.3,10.84c-1,3.11-2.15,6.17-3.26,9.24q-2.16,6-4.36,11.95c-2.72,7.44-5.38,14.88-8.37,22.22,0,0,0,0,0,0,5.22-9.46,10.44-18.9,16-28.18,2.46-4.13,5.08-8.22,7.3-12.48q2.15-4.12,4.31-8.24c1.13-2.17,2-4.48,3-6.73s1.93-4.23,2.69-6.41q1.74-4.94,3.47-9.89c.68-1.94,1.2-3.94,1.78-5.91.71-2.43,1.49-4.84,2.11-7.29,2.6-10.22,5.05-20.49,7.46-30.76s4.77-20.61,6.76-31c2.09-10.93,3.74-21.92,4.86-33q1.55-15.47,2.14-31c.41-10.52.65-21.05,1-31.58.79-21.51,1.9-43,3.1-64.48,1.14-20.37,1.73-40.73,1.2-61.14q-.46-17.65-1.13-35.28c-.37-9.41-.85-18.85-1.64-28.23-1-11.54-2-23-3.14-34.56-1-10.42-2.22-20.81-3.36-31.22-2.35-21.34-4.91-42.66-7.44-64-1.28-10.86-2.43-21.74-3.65-32.6-.48-4.28-.78-8.57-1.16-12.85q-.46-5.32-.94-10.62c-.14-1.55-.35-3.1-.41-4.65q-.34-8.71-.7-17.43c-.18-4.17-.56-8.39-.51-12.57q.22-18.47.31-37c0-2.35.15-4.69.27-7q.57-10.5,1.1-21,.5-9.64.94-19.28c.39-8.3,1.06-16.57,1.62-24.86,0,0,0,0,0,0Z"/><path class="cls-1" d="M510.2,579c-11.93,0-23.86.44-35.78.88-12.12.45-24.23,1.28-36.33,2s-24,1.8-35.92,2.76c-20.74,1.68-41.48,3.48-62.23,5.11q-20.39,1.6-40.76,3.38c-4.42.38-8.86.6-13.27.9l-25.3,1.72c-10,.68-20.08,1.26-30.12,1.87-10.76.65-21.53,1.4-32.3,2q-37.7,2.08-75.37,4.47c-11.61.73-23.21,1.73-34.81,2.63-1.69.14-3.38.37-5.07.56L71,608.65l-18.49,2.08c-1.72.19-3.43.6-5.13.92l-12,2.2-11,2c-4,.75-8,1.73-12,2.67,0,0,0,.06,0,0,3.18-.52,6.37-1.1,9.56-1.56l-.09,0L40.3,614.8l10.4-1.28c1.07-.13,2.11-.24,3.19-.3q11.16-.63,22.31-1.29c4.33-.25,8.65-.61,13-.73,11.63-.33,23.25-.81,34.87-1.06q18.84-.41,37.69-.89,19.85-.51,39.69-1.14c11.39-.36,22.79-.94,34.18-1.47q14.84-.7,29.65-1.66l25.13-1.6c3.3-.21,6.6-.38,9.89-.64Q322,601,343.66,599.09c10.59-.93,21.17-2.08,31.75-3.18q15.64-1.64,31.27-3.39c11.65-1.31,23.29-2.75,35-4q11.84-1.24,23.7-2.54c4.69-.52,9.4-.92,14.1-1.35,11.64-1.07,23.29-2.07,34.95-2.92l13-.94,5-.34,4.23-.26a34.41,34.41,0,0,1,5.34-.09,14.91,14.91,0,0,1,1.8.35l0,0,.52.22.34.28.2.47a3.35,3.35,0,0,1,0,1.26l-.27.63c-.27.41-.55.82-.83,1.22,0,0,0,.06,0,0a5.29,5.29,0,0,0,1.37-2.47,2,2,0,0,0-.23-1.39,4.43,4.43,0,0,0-2.15-1,23.58,23.58,0,0,0-5.33-.49c-2.56-.08-5.14-.12-7.71-.14q-5.93,0-11.86,0Zm31.7,1.08h0Zm2.23.54h0Zm.53,2h0Z"/><path class="cls-1" d="M466.45,542c-23.63.31-47.27.85-70.88,1.87q-33.06,1.43-66.07,3.5c-25,1.61-50,3.68-74.94,5.74-43.43,3.59-86.7,9-129.87,14.9q-56.85,7.7-113.4,17.37s0,.06,0,.06q70.15-1.76,140.18-6.39c47.86-3.2,95.7-7.08,143.47-11.39,20.08-1.81,40.13-3.8,60.19-5.8q38.33-3.81,76.63-8.07,22.34-2.47,44.7-4.79,13.56-1.4,27.13-2.84c3.83-.41,7.65-.81,11.48-1.22,4.88-.54,9.76-1.18,14.66-1.35l.94.19.32.45-.26.41-.48.46a0,0,0,0,0,0,0,2.65,2.65,0,0,0,.94-.83.14.14,0,0,0,0-.15c-.39-.81-.39-1-1.5-1.12-2.11-.28-4.21-.5-6.34-.58-2.78-.1-5.57-.19-8.35-.25-6.08-.15-12.15-.23-18.23-.28q-6,0-12.06,0-9.17,0-18.33.12Z"/><path class="cls-1" d="M598.11,69.52c-6.69.12-13.36.59-20,1.2-7.07.64-14.13,1.45-21.15,2.54q-8.87,1.38-17.74,2.8c-8.32,1.34-16.56,3-24.81,4.72q-8.91,1.8-17.77,3.81A191.69,191.69,0,0,0,461.87,95.8c-11.18,4.91-21.4,12.07-31,19.56a270.57,270.57,0,0,0-26.45,24A363.94,363.94,0,0,0,380,167.29Q368.14,182.14,357.75,198c-4.36,6.66-8.73,13.38-12.67,20.3q-3.28,5.74-6.54,11.49-8.33,14.68-16.61,29.39c-8.21,14.58-16.08,29.35-24.08,44.06q-11.63,21.38-23.2,42.81-3.3,6.09-6.6,12.2s0,0,0,0c10.37-15.94,21-31.72,31.5-47.55q14.48-21.76,28.89-43.57c5.79-8.76,11.76-17.39,17.63-26.09q5.27-7.82,10.52-15.66c1.72-2.57,3.55-5.07,5.36-7.58,4.38-6.1,8.83-12.16,13.39-18.14q15.77-20.35,33.34-39.27a323.56,323.56,0,0,1,37.62-35c9.15-6.94,18.73-13.23,29.28-17.85,12.76-5.21,26-9,39.3-12.57q6.71-1.76,13.4-3.57c2.66-.72,5.32-1.54,8-2.17q11.17-2.61,22.32-5.35A395.09,395.09,0,0,1,599,76.12l-.89.12,6.77-.92-.81.1c9.7-1.3,19.66-2.67,29.45-1.62h0a94.25,94.25,0,0,1,15.29,3.65s0,0,0,0a91.83,91.83,0,0,0-14.71-5.77,47.64,47.64,0,0,0-7.59-1.39c-3.47-.42-7-.67-10.44-.81-2.06-.08-4.12-.11-6.19-.11-3.93,0-7.86.11-11.78.18Zm35.52,4.31.18,0-.18,0Zm-187.76,52-1,.73,1-.73Zm-69.55,72.69-.78,1,.78-1Z"/><path class="cls-1" d="M483.36,70a79.53,79.53,0,0,0-11,2.52c-6.91,2-13.49,5.19-19.89,8.4a202,202,0,0,0-21.59,12.88,371.5,371.5,0,0,0-71.27,62.76c-1.43,1.6-2.76,3.28-4.1,4.95L347.84,171l-7,8.73c-1.25,1.56-2.6,3.1-3.75,4.75q-5.29,7.59-10.54,15.2c-3.66,5.3-7.36,10.58-10.83,16-4.21,6.62-8.31,13.33-12.19,20.15-4.21,7.39-8.07,15-11.75,22.63A304.62,304.62,0,0,0,274.38,304a324.13,324.13,0,0,0-10,48.84c-1.06,7.82-1.85,15.67-2.49,23.54-.32,4-.66,8-.78,12q-.35,11.06-.69,22.12-.17,5.12-.32,10.23c0,1.33-.15,2.67-.12,4l.89,38.63c.08,3.65.35,7.29.53,10.93l1.28,24.46c.52,10.06,1.22,20.12,1.89,30.18q2.47,37.15,5.08,74.3c3.09,44.57,5.92,89.16,8.77,133.75.63,9.82,1.24,19.64,2,29.44q1,12.3,1.93,24.61c.33,4.25.56,8.51,1,12.74q2.07,20,4.14,39.93c1,9.9,2.4,19.76,3.7,29.64,3.24,24.7,6.91,49.34,10.74,74,1.51,9.69,2.82,19.4,4.25,29.1,1.51,10.31,3.11,20.6,4.61,30.92q3.65,25.2,7.47,50.38c2.68,17.77,5.47,35.51,8.1,53.28,0,0,.06,0,0,0q-2.09-32.67-4.58-65.32-1.52-20.37-3.13-40.72c-.9-11.32-2-22.63-3.06-33.95-.85-9.19-1.66-18.38-2.72-27.55q-2.49-21.73-5.19-43.45c-1.32-10.58-2.64-21.16-4-31.72q-1.15-8.79-2.31-17.57c-.48-3.67-.77-7.36-1.16-11q-1.28-12.26-2.55-24.52c-.4-3.91-.92-7.82-1.22-11.74q-1.55-20.4-3.11-40.79c-.78-10.25-1.29-20.51-1.89-30.78q-.85-14.5-1.69-29-4.24-73.3-9-146.57c-1.35-20.65-2.72-41.3-3.77-62l-1.21-24c-.16-3.14-.31-6.28-.38-9.42l-.53-23.31q-.11-4.86-.23-9.73c0-1.15-.1-2.31-.06-3.47l.85-28.68c.09-3.1.19-6.2.27-9.3.06-2,.26-4,.39-6,.23-3.28.49-6.57.77-9.85q.71-8.44,1.82-16.84a359.19,359.19,0,0,1,7.79-40.23A302.6,302.6,0,0,1,300,273.17c4-9.25,8.41-18.28,13.07-27.2,4.84-9.28,10.27-18.26,15.75-27.16,1.48-2.41,3.11-4.74,4.66-7.09q4.4-6.7,8.75-13.41l5.09-7.86c.35-.56.78-1.07,1.18-1.6l3.46-4.71q7.2-9.77,14.34-19.56c19.35-24.35,41.2-46.72,65.79-65.82l-.08.06.15-.11.06,0-.05,0c5.51-4.23,11.09-8.33,16.94-12.08a144.35,144.35,0,0,1,20.4-10.94,76.6,76.6,0,0,1,17.64-5,31.41,31.41,0,0,1,6.84,0,36.89,36.89,0,0,1,4.8,1.52h0a38.33,38.33,0,0,1,4.36,2.14c1.51.87,3,1.87,4.43,2.84,0,0,.06,0,0,0a59.94,59.94,0,0,0-7-4.67,26.07,26.07,0,0,0-8-2.84,25.67,25.67,0,0,0-3.69-.16h-.16a39.91,39.91,0,0,0-5.3.49Zm-13.89,5.69-.22.09.22-.09Zm-37.35,23-.07.06.08-.06Z"/><path class="cls-1" d="M573.23,544.63c-14.46,1.7-28.94,3.09-43.41,4.57L511.94,551c-5.77.6-11.54,1.29-17.32,1.76l-25.35,2.07c-4.48.37-8.93.71-13.42.92-12.88.61-25.74,1.35-38.63,1.86q-24.74,1-49.49,2.15c-3.51.17-7,.22-10.55.31q-14.14.37-28.28.86c-10.76.36-21.51.7-32.27.89l-48.33.85c-24.58.43-49.16.93-73.73,2q-14.33.62-28.65,1.31c-4,.2-8.1.31-12.13.64q-23.41,1.91-46.81,4c-3.62.33-7.22.85-10.83,1.33-7.75,1-15.48,2.18-23.18,3.55a264.79,264.79,0,0,0-45.8,12.34s0,.06,0,0c2.55-.66,5.09-1.35,7.67-1.88s5.3-1.08,8-1.59q8.57-1.63,17.2-2.82l-.44.06c9.77-1.3,19.6-2.1,29.45-2.71,5.91-.36,11.84-.79,17.76-.89q11.6-.18,23.21-.41,11.8-.24,23.6-.53c3.95-.1,7.9,0,11.84,0,14.46,0,28.93-.14,43.4-.17q23.39,0,46.77-.39c10.56-.16,21.11-.44,31.67-.7l28.88-.73c4.25-.1,8.52-.14,12.78-.32,15.94-.68,31.88-1.35,47.8-2.15,3.59-.18,7.2-.31,10.78-.6q11.55-.91,23.11-1.88c12.47-1,25-2,37.4-3.35,13.75-1.46,27.52-2.73,41.21-4.75l25.65-3.8c5.5-.82,11-1.85,16.47-2.78q19.27-3.3,38.52-6.66c7.79-1.38,15.58-2.73,23.37-4.2,0,0,0,0,0,0Z"/><path class="cls-1" d="M34.59,518.37s0,0,0,.06q30.16,2.85,60.33,5.22c14,1.1,27.93,2.27,41.91,3.09q40.08,2.38,80.18,4.09c30.68,1.36,61.38,2.29,92.08,3.24q41.49,1.28,83,1.76c28.37.35,56.76.33,85.13.25,10.52,0,21,.06,31.55.06,6.13,0,12.26.15,18.4.19,2.79,0,5.58.1,8.36.15,5.32.08,10.65,0,15.95.54l-.16,0a8.74,8.74,0,0,1,1.78.41,8,8,0,0,1,.84.49c-.38.24-.77.45-1.17.65a54.76,54.76,0,0,1-6.31,1.63s0,.06,0,0l4.79-.69a11.37,11.37,0,0,0,3.63-1.25.43.43,0,0,0,.09-.68,12.73,12.73,0,0,0-1.42-1.12,6.45,6.45,0,0,0-1.93-.65,43.72,43.72,0,0,0-5.52-.87c-2.78-.37-5.58-.56-8.37-.82-3.53-.33-7.05-.68-10.58-1-6.5-.52-13-1.08-19.51-1.51q-21.48-1.4-43-2.53c-26.22-1.37-52.45-2.49-78.67-3.74-30.4-1.45-60.81-2.57-91.22-3.73-29.23-1.11-58.47-2-87.72-2.59-24.21-.46-48.43-.41-72.65-.64q-25.59-.24-51.19-.22-24.32,0-48.64.14Z"/></g></g></svg>