<svg xmlns="http://www.w3.org/2000/svg" viewBox="0 0 749.79 768.32"><defs><style>.cls-1{fill:#444;}</style></defs><title>insta-icon</title><g id="Layer_2" data-name="Layer 2"><g id="Draw_Layer" data-name="Draw Layer"><path class="cls-1" d="M594.51,103.73a30.82,30.82,0,0,0-7,2.55,26.29,26.29,0,0,0-4.17,2.45,29.2,29.2,0,0,0-4.35,1.41,34.8,34.8,0,0,0-5.48,2.77,39,39,0,0,0-4.67,3.61,27.86,27.86,0,0,0-3.37,3.65,42.32,42.32,0,0,0-3.91,5.77,48.73,48.73,0,0,0-2.63,6,44.76,44.76,0,0,0-1.63,5.29,55.76,55.76,0,0,0-1.56,13.07,52.93,52.93,0,0,0,1.46,12.18,48.76,48.76,0,0,0,4.63,11.86,50.73,50.73,0,0,0,6.55,9.23l.57.65a51.08,51.08,0,0,0,4.13,4.11,43.45,43.45,0,0,0,19.47,9.87,40.88,40.88,0,0,0,23.12-1.62,39.38,39.38,0,0,0,10-5.52,47.2,47.2,0,0,0,4.29-3.65,45.77,45.77,0,0,0,4.39-5.21,43.49,43.49,0,0,0,5.33-9.68q.9-2.12,1.58-4.3.95-1.67,1.76-3.43a42.52,42.52,0,0,0,3.44-10.93,28,28,0,0,0-.62-12.92,18.78,18.78,0,0,0-.72-1.87,24.76,24.76,0,0,0-1.05-8.34A22.71,22.71,0,0,0,636.76,120a32.59,32.59,0,0,0-5.29-3.58c-.76-.4-1.53-.76-2.32-1.11l-.75-.61a39.43,39.43,0,0,0-4.83-3.35,36.21,36.21,0,0,0-6.21-2.71l-.94-.3c-.82-.41-1.66-.8-2.5-1.18-2.1-.94-4.24-1.78-6.39-2.61a26.14,26.14,0,0,0-6.52-1.29,12.3,12.3,0,0,0-1.46-.08,29.35,29.35,0,0,0-5.05.59Zm13.72,42.93h0l.06.11c.08.26.15.52.21.78,0,.49,0,1,0,1.46a22,22,0,0,1-.83,2.93q-.6,1.24-1.31,2.4l-.06,0c-.3-.26-.58-.53-.85-.82-.1-.17-.2-.34-.29-.51s-.14-.51-.2-.77q0-.12,0-.23a18.48,18.48,0,0,1,.52-1.88,25.68,25.68,0,0,1,1.86-3.11l.43-.25.28-.08ZM605,151.12l0,.19,0-.19Z"/><path class="cls-1" d="M588.82,101a26.69,26.69,0,0,0-7.14,2.76,61.71,61.71,0,0,0-7.16,4.6,73,73,0,0,0-12.4,11.29,59,59,0,0,0-5,6.62,49.59,49.59,0,0,0-4.11,8.07,74.81,74.81,0,0,0-2.77,7.81,79.85,79.85,0,0,0-2.73,26.68,69.43,69.43,0,0,0,3.91,17.77,59.23,59.23,0,0,0,8.39,15.58,54.12,54.12,0,0,0,5.59,6.37,45.29,45.29,0,0,0,7.18,5.54,50.58,50.58,0,0,0,16,6.36,70.72,70.72,0,0,0,18.22,1.7c1.36-.05,2.71-.21,4.06-.39a40.24,40.24,0,0,0,4.77-.85,27.41,27.41,0,0,0,4.41-1.71,19.42,19.42,0,0,0,3.78-2.31,32.05,32.05,0,0,0,3.57-3.1,37.16,37.16,0,0,0,3.08-3.7,46,46,0,0,0,4.6-7.64,69,69,0,0,0,3.53-8.78,83.67,83.67,0,0,0,2.25-8.88,149,149,0,0,0,2.43-18.93,120,120,0,0,0-2.52-36.46,51.39,51.39,0,0,0-2.88-8.36,36.59,36.59,0,0,0-4.06-7.29,31.86,31.86,0,0,0-13.78-10.56,35.81,35.81,0,0,0-16.42-2.45l-.83-.09c-1.95-.21-3.89-.43-5.86-.45h-.44a38.78,38.78,0,0,0-7.72.81Zm8.44,1a29.4,29.4,0,0,0-8.83,4.46c-4.53,3.37-8.26,7.6-12.1,11.7a61.68,61.68,0,0,0-5.35,6.42s0,0,0,0a59,59,0,0,1,5.24-4.93c.83-.72,1.71-1.38,2.56-2.07q2.17-1.75,4.37-3.46c1.35-1,2.75-1.95,4.18-2.85a37.06,37.06,0,0,1,4.94-2.69,31.88,31.88,0,0,1,6.39-1.68,31,31,0,0,1,7,0,37.33,37.33,0,0,1,8,2.24,25.8,25.8,0,0,1,9.79,7.32,31.11,31.11,0,0,1,1.42,2.91v0c.74,1.84,1.44,3.7,2.12,5.57,0,0,0,0,0,0-.8-2.33-1.58-4.67-2.55-6.94l-.14-.32a29.57,29.57,0,0,1,2.16,3.95,50.52,50.52,0,0,1,3,11.13q.57,4.58.82,9.19c.21,3.8.2,7.62.13,11.43s-.31,7.82-.61,11.72c-.27,3.57-.59,7.13-1,10.68a88.68,88.68,0,0,1-5.08,20.35,48,48,0,0,1-4.83,8.63,25.49,25.49,0,0,1-3.16,3.24,22.18,22.18,0,0,1-3.06,1.79,30.36,30.36,0,0,1-5.29,1.33,59.72,59.72,0,0,1-13.49-.11,54.73,54.73,0,0,1-12.19-3.12,43.78,43.78,0,0,1-8.15-4.69,47.16,47.16,0,0,1-7-7.13,58.19,58.19,0,0,1-6.62-11.48,61.44,61.44,0,0,1-4.76-25,82.15,82.15,0,0,1,.72-9.27,76,76,0,0,1,4.67-17.84,55.86,55.86,0,0,1,6.67-11.23,73.17,73.17,0,0,1,12.54-12.36,39.56,39.56,0,0,1,7.88-4.83,34,34,0,0,1,7-1.86c.86-.11,1.73-.19,2.59-.24Zm23.16,9.82h0l0,0Z"/><path class="cls-1" d="M358.23,203.42a166.89,166.89,0,0,0-24.18,3.18,163.07,163.07,0,0,0-22.49,6.27,171.17,171.17,0,0,0-41,21q-5,3.48-9.69,7.3c-5.54,4.22-10.9,8.7-16,13.44a179.36,179.36,0,0,0-47.41,74A152.26,152.26,0,0,0,192,350.67a187.88,187.88,0,0,0-2.68,23.93c-.09,1.89-.14,3.79-.17,5.68,0,.94,0,1.86-.1,2.8s-.17,1.8-.25,2.7-.14,1.79-.21,2.69a24.4,24.4,0,0,0,0,2.78c.09,2.19.24,4.37.42,6.55a188.71,188.71,0,0,0,3.48,23.89A131.2,131.2,0,0,0,197,438.45c2.08,5.89,4.51,11.66,7.15,17.32a137.61,137.61,0,0,0,8.43,15.53c3.22,5.08,6.75,9.95,10.45,14.69a199,199,0,0,0,14.8,17.91A192.29,192.29,0,0,0,253.78,519a179.76,179.76,0,0,0,261.08-30.48,177.73,177.73,0,0,0,34.55-117.82,186.51,186.51,0,0,0-9.18-46.16,174.56,174.56,0,0,0-20.75-42.14,178.84,178.84,0,0,0-14.24-18.37,162.14,162.14,0,0,0-16.64-16.21A213,213,0,0,0,470,234a174.08,174.08,0,0,0-20.11-11.71,179.28,179.28,0,0,0-81.22-19.08q-5.2,0-10.39.27Zm12.71,9a169.41,169.41,0,0,1,44.14,5.89,168.31,168.31,0,0,1,20.84,7.15,176,176,0,0,1,17.7,8.76,148.33,148.33,0,0,1,16.78,11A190.56,190.56,0,0,1,503.1,278,171.71,171.71,0,0,1,533,337.19a162,162,0,0,1,4.4,21.4,182.36,182.36,0,0,1,0,46.46,168.78,168.78,0,0,1-33.69,80.49,169.78,169.78,0,0,1-68.22,52.64,176.31,176.31,0,0,1-43.27,11.75,178.78,178.78,0,0,1-45.14-.08,168.12,168.12,0,0,1-80.39-33.72,182.36,182.36,0,0,1-15-13.15,160.44,160.44,0,0,1-14.27-16.17c-1.86-2.42-3.71-4.86-5.34-7.44-2-3.14-3.84-6.37-5.62-9.64-1.64-3-3.16-6.09-4.63-9.19s-3-6.23-4.35-9.4a234.57,234.57,0,0,1-8.07-23.68,172.47,172.47,0,0,1-5.12-24q-.48-3.76-.81-7.53c-.14-1.56-.24-3.12-.34-4.69-.08-1.24-.21-2.47-.36-3.7v0q-.07-.54-.14-1.08-.16-1.24-.31-2.49a30.07,30.07,0,0,1-.19-3.7c0-2.53.1-5,.22-7.57.22-4.57.65-9.13,1.23-13.66a182.34,182.34,0,0,1,5-23.73c1-3.68,2.09-7.33,3.31-11s2.62-7.29,4.1-10.87a178.07,178.07,0,0,1,22.2-38,169,169,0,0,1,27.74-28.21,186,186,0,0,1,36.6-21,182.45,182.45,0,0,1,44.86-12.23,184.29,184.29,0,0,1,23.6-1.67ZM347,214.17l-.34,0,.34,0Zm122.77,30.55.26.2-.26-.2ZM238,275.75l-.36.47.36-.47Zm299.28,81.86.06.43-.06-.43ZM238.52,496.18l0,.05,0-.05Z"/><path class="cls-1" d="M386,218.32a11.89,11.89,0,0,1-1.59,0h-.86l-2.44.05c-3.5.09-7,.31-10.48.61a181.06,181.06,0,0,0-19.54,2.8,167.43,167.43,0,0,0-26.45,7.6c-6,2-11.94,4.33-17.74,6.92a157.9,157.9,0,0,0-34.14,21,195.54,195.54,0,0,0-15,13.33,163.5,163.5,0,0,0-13.32,15,171,171,0,0,0-20.91,34.19,177.86,177.86,0,0,0-12.66,37.9,180.71,180.71,0,0,0-3.74,40.54A180.55,180.55,0,0,0,247.64,509.8a177.08,177.08,0,0,0,61,47.92,183.08,183.08,0,0,0,37.93,13.36,187,187,0,0,0,20.83,3.53,164.66,164.66,0,0,0,20.25,1.16A174.57,174.57,0,0,0,408,574.41c6.9-.85,13.77-2,20.56-3.49a177.64,177.64,0,0,0,37.64-13.18,174.43,174.43,0,0,0,16.8-9.22,170.51,170.51,0,0,0,16.28-11.66,177.85,177.85,0,0,0,26.85-26.68,186.27,186.27,0,0,0,30.44-52.76c2.37-6.21,4.31-12.57,6.06-19,.84-3.1,1.58-6.23,2.25-9.37.33-1.56.55-3.15.79-4.73.34-2.27.63-4.54.91-6.81.39-3.2.66-6.42.87-9.64a88.13,88.13,0,0,0-.12-10.31c-.09-1.6-.14-3.19-.17-4.8s-.08-3.21-.14-4.81c-.14-3.48-.39-7-.83-10.41a188.43,188.43,0,0,0-3.86-21,183.47,183.47,0,0,0-13.93-37.82,181.07,181.07,0,0,0-9.6-17c-3.55-5.56-7.48-10.84-11.56-16a178.16,178.16,0,0,0-136.48-67.57l-2.51,0h0a20.82,20.82,0,0,0-2.23.17Zm-.82,5a16.8,16.8,0,0,1,2.26.17l1.68,0,1.67.05c1.94.07,3.88.18,5.82.3,3.63.24,7.26.63,10.88,1.1a173.59,173.59,0,0,1,42.86,11.63,171.45,171.45,0,0,1,69.06,53.18,169.46,169.46,0,0,1,20.79,35.68,179.1,179.1,0,0,1,7,20.26,166.89,166.89,0,0,1,4.51,21.8q.74,5.81,1.11,11.64c.27,4.26.56,8.51.64,12.78,0,.8,0,1.61,0,2.41,0,1.07-.09,2.13-.18,3.19-.17,2.11-.39,4.21-.63,6.31s-.39,4.28-.59,6.43c-.17,1.83-.38,3.66-.61,5.48-.51,3.6-1.16,7.17-1.76,10.76-.7,4.22-1.59,8.41-2.6,12.57-.94,3.86-2.17,7.68-3.44,11.45-1.2,3.6-2.55,7.15-4,10.65a180.21,180.21,0,0,1-9.46,18.88,160.93,160.93,0,0,1-11.5,17.08,176.64,176.64,0,0,1-30.2,30.15,186.61,186.61,0,0,1-39,23,169.76,169.76,0,0,1-41,11.54,184.66,184.66,0,0,1-46.55.06,180.2,180.2,0,0,1-21.68-4.42,166.92,166.92,0,0,1-20.68-7.14,174.14,174.14,0,0,1-37-21.71,190.05,190.05,0,0,1-16.36-14.35,179.39,179.39,0,0,1-15.19-17.12,177.11,177.11,0,0,1-22-37.6A179.24,179.24,0,0,1,222,439a162.21,162.21,0,0,1-4.33-21.25A177.79,177.79,0,0,1,216.19,396a169.11,169.11,0,0,1,1.49-22.71A185.13,185.13,0,0,1,222.17,351a173,173,0,0,1,7.54-21.95,182.7,182.7,0,0,1,10-19.79,187.41,187.41,0,0,1,13-19.15,194.83,194.83,0,0,1,14.61-16.65,167.4,167.4,0,0,1,16.95-15,189.5,189.5,0,0,1,40.37-23.91l1.46-.6a178.42,178.42,0,0,1,37.08-9.18,182.17,182.17,0,0,1,22-1.47Zm-22.34,1.51-.17,0,.17,0ZM325,234.41l-.33.14.33-.14Zm194,54.84.19.25-.19-.25Zm-272.4,3.51-.11.14.11-.14ZM539.33,462.06l-.16.37.16-.37ZM489.5,526.58l-.36.28.36-.28ZM318.7,550l.54.23-.54-.23Z"/><path class="cls-1" d="M305.28,231c-2.62.7-5.24,1.51-7.79,2.45s-5.27,1.91-7.88,2.95a160.71,160.71,0,0,0-28.23,14.77,163.76,163.76,0,0,0-24.86,20c-3.75,3.65-7.36,7.42-10.78,11.39s-6.75,8.3-9.85,12.66a170.94,170.94,0,0,0-16.06,28,175.93,175.93,0,0,0-15.75,63.35c-.34,5.54-.39,11.09-.21,16.64a164.78,164.78,0,0,0,1.55,16.75,178,178,0,0,0,100.73,137,174.62,174.62,0,0,0,60.37,15.95,176.74,176.74,0,0,0,28.11-.13,170.92,170.92,0,0,0,26.77-4.4,167.71,167.71,0,0,0,50.11-21.54s0,0,0,0a189.37,189.37,0,0,1-18,8.83l.14-.05a184.15,184.15,0,0,1-22.87,7.95,179.71,179.71,0,0,1-23.43,4.71l.39-.05A188.43,188.43,0,0,1,364,569.76a172.74,172.74,0,0,1-106.19-36.12l.55.42a172.15,172.15,0,0,1-53.6-69.3A174.43,174.43,0,0,1,193,421.5a193.49,193.49,0,0,1-1.48-23,169.07,169.07,0,0,1,13.31-67.45A180.56,180.56,0,0,1,227.72,292a183.59,183.59,0,0,1,15.14-17.24,182.86,182.86,0,0,1,35.39-27.62c3.11-1.88,6.27-3.66,9.47-5.37,1.7-.91,3.41-1.78,5.13-2.64s3.27-1.63,4.95-2.36c1.89-.8,3.76-1.62,5.65-2.42l-.07,0,.22-.09.1,0,0,0c5.84-2.45,11.75-4.72,17.78-6.67,0,0,0,0,0,0q-8.17,1.32-16.16,3.45Zm-7.18,5.63-.29.12.29-.12Zm-37.59,22.59-.19.15.19-.15Zm-32.83,32.83-.31.4.31-.4Zm-34.68,82,0,.35,0-.35ZM226.62,502.3l.26.34-.26-.34Zm113.29,65.77.2,0-.2,0ZM303.6,234.27l-.16.07.22-.09-.06,0Z"/><path class="cls-1" d="M309,209.24a180,180,0,0,0-56.2,30.65,169.08,169.08,0,0,0-41.52,48.56A172.87,172.87,0,0,0,191,348.25l-.1.67s0,0,0,0a177.75,177.75,0,0,1,10.82-36v0a186,186,0,0,1,23.93-40.61,182.15,182.15,0,0,1,31.63-31.69l-.34.26a175.39,175.39,0,0,1,18.29-12.39,173.38,173.38,0,0,1,20-10,175.15,175.15,0,0,1,43.48-11.78,181.32,181.32,0,0,1,47,0,176.46,176.46,0,0,1,43.92,12,172.55,172.55,0,0,1,81.51,71A164.2,164.2,0,0,1,521,309.26,175.46,175.46,0,0,1,528.52,331a185.12,185.12,0,0,1,4.73,23.69,179.69,179.69,0,0,1-.05,46.57l0-.34-.05.37,0,.29,0-.27a175.93,175.93,0,0,1-11.89,43.56l0-.11a169.15,169.15,0,0,1-53.26,69l.41-.32a170.27,170.27,0,0,1-38,22.16A185.87,185.87,0,0,1,384.54,548a192.11,192.11,0,0,1-50.09.12l.28,0a197.69,197.69,0,0,1-26.24-5.37s0,0,0,0A164.19,164.19,0,0,0,373,553.3a165.31,165.31,0,0,0,61.24-14.53,180.38,180.38,0,0,0,37.7-22.9A177.72,177.72,0,0,0,503,484.36l-.31.41q4.7-6.07,8.91-12.48c2.82-4.33,5.43-8.79,7.86-13.35a177.78,177.78,0,0,0,12.25-29.14,175.37,175.37,0,0,0,7.8-65.57,166.68,166.68,0,0,0-2-16.71c-.93-5.38-2.15-10.72-3.58-16a177.75,177.75,0,0,0-11.3-30.12,181.73,181.73,0,0,0-16.08-27.16,178,178,0,0,0-43.81-43,171.48,171.48,0,0,0-27-15.22,175.64,175.64,0,0,0-29.81-10.36,178,178,0,0,0-32.08-4.86q-5.13-.32-10.28-.31A175,175,0,0,0,309,209.24Zm29.7-2.53-.56.07.56-.07Zm47.31,0,.17,0-.17,0Zm43.14,11.75.37.16-.37-.16Zm70.08,53.72.26.33-.26-.33Zm-273.63.14-.23.29.23-.29Zm295.44,37,.1.23-.1-.23ZM201.7,313l-.05.12.05-.12ZM533.19,401.3v0Z"/><path class="cls-1" d="M341.53,228.51a178.22,178.22,0,0,0-35.7,7.42c-5.41,1.72-10.7,3.83-15.92,6.07a162.46,162.46,0,0,0-14.85,7.32,165.44,165.44,0,0,0-27.14,19.19,155.5,155.5,0,0,0-23.7,25.63l-.24.32-1.15,1.41a178.6,178.6,0,0,0-17.17,25.44c-2.5,4.49-4.78,9.1-6.87,13.8s-4.12,9.74-5.8,14.74a179.91,179.91,0,0,0-9,52.42c-.14,6-.07,12.06.32,18.08a179.57,179.57,0,0,0,5.84,35.11,177.24,177.24,0,0,0,28.84,59q5,6.76,10.66,13.07a162.39,162.39,0,0,0,11.62,11.69,183.76,183.76,0,0,0,27.48,20.69c2.3,1.42,4.63,2.81,7,4.07,2.68,1.42,5.42,2.74,8.18,4,5.59,2.58,11.3,4.88,17.11,6.9a169.47,169.47,0,0,0,17,4.91c6,1.41,12.15,2.42,18.3,3.23a173.72,173.72,0,0,0,18.08,1.39c3,.08,6,.18,9,.12,3.2-.07,6.4-.24,9.59-.48a180.06,180.06,0,0,0,35.87-6.4,181.88,181.88,0,0,0,32.71-13,180.75,180.75,0,0,0,73.68-70.14,182.94,182.94,0,0,0,14.44-31.84,177.37,177.37,0,0,0,8.08-34.84,175.25,175.25,0,0,0,1.4-18.15,180.55,180.55,0,0,0-.35-18.16,174,174,0,0,0-28.77-84.1A170,170,0,0,0,499.37,293a185.8,185.8,0,0,0-25.16-24.84A180.09,180.09,0,0,0,413,235.29a177.92,177.92,0,0,0-35-6.95c-6.09-.61-12.21-.78-18.32-.79h-.3a174.66,174.66,0,0,0-17.93,1Zm21.93,5.57a181.16,181.16,0,0,1,22.61,1.56,174.3,174.3,0,0,1,43.2,11.8l-.7-.3a175.57,175.57,0,0,1,38.25,22.24,170.71,170.71,0,0,1,29.71,29.81,184.83,184.83,0,0,1,23.26,39.66,176.86,176.86,0,0,1,11.93,43.47,193.54,193.54,0,0,1,1.64,22.85,162.3,162.3,0,0,1-1.49,22.95A169.17,169.17,0,0,1,430.39,561.34a175.4,175.4,0,0,1-43.28,11.8A179.6,179.6,0,0,1,365,574.6c-4,0-8,0-12-.29-3.63-.24-7.24-.62-10.85-1.08A177.47,177.47,0,0,1,299,561.45a213.94,213.94,0,0,1-21.09-10.66,174.64,174.64,0,0,1-19.57-13,183.86,183.86,0,0,1-31.62-31.61,176.64,176.64,0,0,1-21.83-37.31,178.62,178.62,0,0,1-12.17-44.27A161.53,161.53,0,0,1,191.3,403a175.09,175.09,0,0,1,1.53-21.81A181.49,181.49,0,0,1,205,336.78a176.73,176.73,0,0,1,22.4-38.34l.66-.85a199.61,199.61,0,0,1,27-25.42,195.18,195.18,0,0,1,41.71-24.46,179.86,179.86,0,0,1,44.41-12.16,167.73,167.73,0,0,1,22.22-1.47Zm22.7,1.57.5.07-.5-.07ZM520,471.85l-.16.38.16-.38Z"/><path class="cls-1" d="M332.33,233.32s0,0,0,0a171.4,171.4,0,0,1,22.07-1.17,183.31,183.31,0,0,1,108.19,37.39,175.61,175.61,0,0,1,30.09,30.18A188.36,188.36,0,0,1,515.58,339a176.52,176.52,0,0,1,11.67,42.69q.65,5.18,1,10.39c.13,1.89.22,3.77.29,5.66.08,2.16-.1,4.33-.23,6.49-.11,1.9-.08,3.82-.13,5.72s-.14,3.81-.26,5.71c-.22,3.83-.6,7.65-1.08,11.45a155.53,155.53,0,0,1-4.11,19.61,172.84,172.84,0,0,1-6.61,19.14c-6.2,14.32-14.76,27.62-24.21,40a280.56,280.56,0,0,1-47.31,47.72,240.5,240.5,0,0,1-20.09,13.83.5.5,0,0,0,.43.9,145.55,145.55,0,0,0,43-15.82,140.11,140.11,0,0,0,36.59-30.62,149.49,149.49,0,0,0,14.26-20.33,183.6,183.6,0,0,0,10.82-22.23,194.28,194.28,0,0,0,7.55-21.85,200.78,200.78,0,0,0,4.82-22.8A192,192,0,0,0,544.37,410c.05-1.9.12-3.82,0-5.72s-.3-3.7-.49-5.54-.2-3.79-.34-5.67c-.16-2.19-.37-4.37-.62-6.55a180.6,180.6,0,0,0-11.06-45.56,189.66,189.66,0,0,0-9.83-21.3,157.82,157.82,0,0,0-12.36-19.1,181.1,181.1,0,0,0-31.84-33.14,185.37,185.37,0,0,0-32.05-20.91,164.93,164.93,0,0,0-74.2-17.55,180.18,180.18,0,0,0-39.24,4.39Zm160.6,66.75.34.44-.34-.44Z"/><path class="cls-1" d="M21,159.34a2.76,2.76,0,1,0,2.76-2.76A2.79,2.79,0,0,0,21,159.34Z"/><path class="cls-1" d="M230.52,32.37c-7.75.43-15.49,1-23.22,1.77-7.28.77-14.57,1.49-21.84,2.32q-11.53,1.32-23,3.29c-4,.68-7.91,1.41-11.85,2.24-3.61.76-7.16,1.76-10.72,2.72-7.19,2-14.36,4.09-21.33,6.73A91.67,91.67,0,0,0,108.24,56c-3.21,1.7-6.31,3.55-9.34,5.56A165.07,165.07,0,0,0,81.16,75.5,130,130,0,0,0,66,91.42c-4.58,5.66-9,11.5-13,17.58-1.64,2.49-3.21,5-4.72,7.62l1.89-3.55c2.24-4.2,4.46-8.43,6.91-12.51a0,0,0,0,0,0,0c-2.74,3-5.36,6.19-8,9.32S44,116,41.55,119.09A124,124,0,0,0,33.1,131a50.55,50.55,0,0,0-3.43,6.78c-.5,1.18-1,2.37-1.38,3.58a34.28,34.28,0,0,0-1.21,4.88c-.94,4.73-.89,9.7-1,14.52-.23,7.28-.59,14.54-1.25,21.79-.65,7.06-1.61,14.1-2.37,21.15-1.62,14.93-2.63,29.9-3.66,44.88-.5,7.33-1,14.66-1.44,22-.43,7.77-.78,15.55-1.14,23.33-.35,7.58-.64,15.15-.74,22.73-.1,7.39-.32,14.77-.57,22.16-.5,15.28.47,30.56,1.44,45.8.48,7.61.64,15.2.66,22.81s0,14.94,0,22.41c0,7.28,0,14.55-.07,21.83-.09,8-.18,16-.08,24,.09,7.63.59,15.25,1.07,22.86.46,7.37.66,14.74.82,22.12.32,15.23.11,30.54,2.51,45.63,1.24,7.8,2.87,15.51,4.41,23.25,1.47,7.4,2.75,14.83,4.29,22.22s3.34,14.45,5.45,21.55a158.74,158.74,0,0,0,8.45,21.94c3.12,6.66,6.93,13,10.67,19.33,1.93,3.27,3.87,6.53,5.83,9.77s4,6.26,6.11,9.3A50.27,50.27,0,0,0,74,702.25l2.31,2.06c1.25,1.11,2.72,2.09,4.05,3.12a75.31,75.31,0,0,0,9.56,5.88,169.85,169.85,0,0,0,21.37,9.61c13.47,5.18,27.13,10.07,41.15,13.52,7.45,1.82,14.95,3.36,22.5,4.71,7.73,1.39,15.53,2.4,23.32,3.35,3.6.44,7.21.78,10.83,1.08s7.17.38,10.76.43,7.15-.14,10.71-.31c3.76-.18,7.52-.37,11.28-.65,15.18-1.16,30.28-3.25,45.45-4.56,14.76-1.28,29.57-1.53,44.38-1.72,15.57-.2,31.16-.29,46.73-.46,15-.17,30-.08,45,.77s29.71,2.09,44.59,2.53c7.25.21,14.51.28,21.76,0,7.82-.25,15.61-.77,23.39-1.54,14.92-1.48,29.85-2.81,44.73-4.65s30.15-3.4,44.7-7.64c3.75-1.09,7.48-2.22,11.2-3.44s7.24-2.75,10.79-4.29a70.58,70.58,0,0,0,9.82-5.18c3.11-2,6.2-4,9.35-5.9,6.18-3.76,12.6-7.05,18.88-10.62A74.16,74.16,0,0,0,672.3,692a36.33,36.33,0,0,0,7.89-8.16c2-2.79,4-5.65,5.88-8.54s3.89-5.93,5.67-9a164.92,164.92,0,0,0,10-19.78c1.49-3.59,2.83-7.23,4.06-10.92,1.16-3.49,2.15-7,3.19-10.56,2.11-7.15,4.16-14.33,5.73-21.62,3.18-14.75,4.39-29.85,5.46-44.88.53-7.5.88-15,1.34-22.52.43-6.91,1-13.82,1.51-20.72.53-7.6.89-15.19,1.15-22.8.25-7.37.57-14.73.71-22.1s0-15,0-22.43,0-14.86.16-22.29.46-14.62.74-21.94q.45-11.46,1-22.91c.75-14.81,1-29.64,1.64-44.45.69-15.07,1.52-30.15,1.78-45.24.13-7.4-.16-14.8-.43-22.19s-.75-14.84-1.25-22.26c-.52-7.66-1-15.36-2.09-23-1-7.2-1.92-14.44-3.31-21.58q-2.14-10.94-4.83-21.75c-.84-3.36-1.71-6.71-2.53-10.08s-1.67-6.9-2.6-10.33-2-7.09-3-10.63c-1-3.32-1.86-6.68-3-10a102.89,102.89,0,0,0-4.53-11.66c-1.67-3.49-3.56-6.83-5.51-10.17-1.77-3-3.61-6-5.45-9A112.63,112.63,0,0,0,685.38,99c-1.46-1.9-2.93-3.76-4.5-5.57a49.17,49.17,0,0,0-3.66-3.73c-3.15-2.93-6.51-5.6-9.92-8.22-2.69-2.07-5.5-4-8.33-5.89-3-2-6.08-4-9.19-5.9-6.41-3.91-12.88-7.77-19.47-11.37a61.37,61.37,0,0,0-5.72-2.72c-1.7-.71-3.39-1.44-5.15-2-3.48-1.08-7-2-10.52-2.86-6.85-1.72-13.64-3.6-20.52-5.18-3.5-.81-7-1.57-10.55-2.2-4-.71-8.11-1.25-12.18-1.78-3.57-.46-7.16-.77-10.74-1.12-3.87-.38-7.73-.77-11.59-1.13-7.22-.67-14.45-.91-21.69-1.14-7.52-.23-15-.39-22.54-.69s-15.23-.88-22.84-1.34q-10.91-.66-21.81-1.53c-7.42-.57-14.85-1.19-22.29-1.45-7.64-.27-15.28-.31-22.92-.29-14.82,0-29.64,0-44.46-.05q-11.38,0-22.77-.21c-7.48-.11-15-.08-22.45-.11s-15-.24-22.57-.5c-7.23-.25-14.45-.54-21.68-.56H269c-12.83,0-25.67.16-38.48.88Zm-29.75,13.3c7.68-.87,15.35-1.7,23.06-2.16,15-.91,30-1.15,45-1.11,14.8,0,29.58,1,44.38,1.45,7.46.21,14.91.32,22.38.49q11.69.26,23.38.52c7.32.15,14.65.29,22,.35s14.45,0,21.67.06c7.75,0,15.51,0,23.26.13,7.49.11,15,.57,22.43,1.15,7.25.56,14.5,1.17,21.75,1.63,7.69.48,15.38.93,23.07,1.43s15.23.7,22.86.88c7.23.18,14.46.46,21.68.93,4.47.29,8.93.77,13.39,1.19,4.72.45,9.44.92,14.16,1.45,4.24.61,8.44,1.33,12.61,2.34,4.61,1.11,9.17,2.43,13.71,3.8s8.73,2.83,13.09,4.23,8.47,2.67,12.62,4.26c1.52.7,3,1.43,4.51,2.19,2,1,4,2.27,6,3.42l10.94,6.33A221.56,221.56,0,0,1,659,93.92c2.13,1.7,4.26,3.44,6.21,5.33,1.29,1.25,2.55,2.51,3.77,3.83.87.93,1.68,1.91,2.5,2.89,1.73,2.37,3.37,4.79,5,7.28,1.8,2.84,3.56,5.71,5.34,8.57q2.52,4.05,5,8.16a82.68,82.68,0,0,1,4,7.82c2.21,5.63,4,11.39,5.77,17.18q2.77,9,5,18.11c1.51,6.17,3,12.34,4.43,18.54s2.5,12.49,3.43,18.79c.89,6.88,1.72,13.77,2.4,20.68.7,7.13,1.09,14.32,1.26,21.48.18,7.52.06,15-.11,22.56s-.58,15-1.21,22.47c-1.25,14.69-2.24,29.41-2.33,44.16-.09,15.14.48,30.28.76,45.42.14,7.36.39,14.71.43,22.07,0,7.6,0,15.2,0,22.79,0,14.94.06,29.89-.74,44.81-.39,7.33-.79,14.66-1.08,22-.28,7.07-.71,14.14-1.16,21.2-.46,7.27-.94,14.54-1.29,21.81s-.86,14.58-1.43,21.86c-.39,5-.73,9.93-1.14,14.88-.35,4.27-.86,8.53-1.4,12.78-.73,5.19-1.54,10.37-2.61,15.5-1.27,6.09-2.68,12.14-4.09,18.2-1.3,5.61-2.5,11.24-3.83,16.85-.69,2.93-1.4,5.86-2.17,8.76-.69,2.59-1.54,5.12-2.46,7.64-.4.93-.8,1.85-1.24,2.76-.66,1.37-1.38,2.69-2.12,4a52.81,52.81,0,0,1-4.22,6.19c-1.79,2.15-3.62,4.25-5.57,6.26a65.22,65.22,0,0,1-6.1,5.55c-1.82,1.29-3.67,2.52-5.59,3.66-2.13,1.27-4.32,2.41-6.51,3.56-4.05,2.13-8.23,4-12.24,6.21s-8,4.56-11.87,7c-1.9,1.18-3.78,2.39-5.75,3.44s-4.16,2.07-6.29,3c-3.11,1.24-6.25,2.4-9.45,3.38-3.64,1.11-7.29,2.16-10.95,3.21-7.1,2-14.3,3.78-21.56,5.18-15.08,2.91-30.2,5.55-45.41,7.71-6.16.87-12.33,1.7-18.5,2.53-7.43,1-14.85,1.73-22.33,2.12s-14.87.56-22.3.82c-3.64.13-7.28.27-10.91.27-3.95,0-7.9-.05-11.84-.12-7.16-.14-14.31-.22-21.46-.45-15.27-.48-30.54-.49-45.82-.76s-30.52-1.16-45.78-1.84c-7.61-.34-15.22-.56-22.83-.81-7.12-.23-14.24-.36-21.36-.12-15.16.52-30.29,1.71-45.46,2.09-7.5.18-15,.25-22.5,0-6.92-.2-13.79-1.06-20.65-1.94q-5.38-.77-10.75-1.62c-3.57-.57-7.12-1.31-10.66-2-3.37-.68-6.73-1.53-10.05-2.39-3.62-.93-7.25-1.86-10.85-2.89-7.18-2-14.26-4.36-21.24-7s-13.73-5.42-20.62-8.07q-2.89-1.11-5.77-2.25c-4-1.75-8-3.64-11.87-5.64-2.24-1.15-4.42-2.42-6.6-3.69a50.31,50.31,0,0,1-4.69-3.19l-2.31-2a41.42,41.42,0,0,1-5-5.39c-1.19-1.62-2.37-3.24-3.49-4.92-1.43-2.15-2.82-4.31-4.2-6.49-2.5-3.93-5-7.87-7.41-11.82-2.57-4.12-5.07-8.27-7.47-12.49-2.3-4-4.32-8.22-6.26-12.44-2.37-5.71-4.67-11.48-6.48-17.39a205.92,205.92,0,0,1-5-20.27c-1.43-7.2-2.84-14.41-4.39-21.59-.69-3.21-1.44-6.43-2-9.66s-1.11-6.64-1.6-10q-.63-5.54-1.12-11.09c-.34-3.82-.46-7.66-.64-11.49-.34-7.43-.51-14.87-.81-22.3s-.95-14.57-1.29-21.87c-.37-7.7-.66-15.41-.64-23.12,0-15.31.21-30.63.3-45.94,0-7.57.15-15.14,0-22.7s-.89-14.87-1.52-22.29c-.65-7.64-1.12-15.27-1.27-22.94s0-15,.52-22.55.84-15.25,1.36-22.86,1.16-15,1.77-22.55,1.26-14.74,1.88-22.11,1.16-14.86,1.8-22.28,1.25-14.89,2-22.32,1.57-15.07,2.26-22.61c.72-7.9,1.4-15.8,1.57-23.73.09-4.12-.07-8.24-.25-12.35q-.13-3-.29-5.92a70.62,70.62,0,0,1,.09-10.61,57.45,57.45,0,0,1,2.27-9q2.34-4.07,4.8-8.06c3.78-6.09,7.76-12,12.11-17.74Q63,101.79,69.8,94.52c2.42-2.57,4.92-5,7.48-7.47,2.32-2.2,4.78-4.24,7.27-6.24a131.58,131.58,0,0,1,28.27-16.72c5-2,10-3.9,15.16-5.44,6-1.79,11.95-3.38,18-4.85,5.39-1.31,10.88-2.3,16.35-3.2,5.73-.94,11.47-1.85,17.22-2.67,7.07-.86,14.16-1.46,21.24-2.26Z"/><path class="cls-1" d="M236.44,30.05c-7.77.56-15.48,1.73-23.18,2.87l-8.94,1.3c-3.22.42-6.45.83-9.69,1.06-3.82.27-7.64.46-11.46.65-3.62.18-7.23.45-10.85.78-4.2.38-8.37,1-12.52,1.71-7.08,1.16-14.1,2.81-21.08,4.45a190.12,190.12,0,0,0-21.2,5.83q-3.06,1.1-6,2.38a6,6,0,0,0-1.36.6q-1.84.83-3.65,1.74-5,2.53-10,5.11C93.34,60.2,90.2,62,87.15,63.86c-1.25.78-2.52,1.56-3.74,2.4l4.39-6.78c4.91-7.6,9.73-15.27,14.81-22.76,0,0,0,0,0,0C97,42.94,91.52,49.33,86,55.68c-6,6.95-12,13.93-17.84,21A160.63,160.63,0,0,0,57.35,91.13c-3.43,3.72-6.92,7.38-10.28,11.17a89.6,89.6,0,0,0-10.25,14.13,96.13,96.13,0,0,0-7.21,16c-1,2.73-1.83,5.48-2.54,8.29A52.86,52.86,0,0,0,25.82,149a49.08,49.08,0,0,0,0,7.88c.09,1.3.14,2.6.31,3.89.3,2.2.6,4.39,1,6.57,0,0,0,0,0,0-.19-1.85-.33-3.71-.47-5.57-.11-1.44-.13-2.86-.15-4.31,0-1.29,0-2.56.05-3.85s.18-2.6.3-3.9c.34-2.18.75-4.32,1.31-6.46a52,52,0,0,1,2.57-7c1.49-3.33,3.07-6.61,4.82-9.81a83.86,83.86,0,0,1,6.1-9.4c1.34-1.69,2.7-3.34,4.18-4.9q1.36-1.43,2.77-2.8-.17.55-.33,1.1a50.19,50.19,0,0,0-1.15,5.48c-.31,1.87-.61,3.75-.93,5.62-1.27,7.54-2.63,15.07-3.93,22.61-1.38,8-2.09,16.18-2.72,24.3-.55,7.11-.79,14.24-1,21.37q-.28,11.57-.5,23.13c-.16,7.62-.25,15.23-.55,22.85-.17,4.26-.3,8.54-.7,12.78-.21,2.18-.34,4.38-.62,6.54q-.39,3-.78,5.93c-.63,3.85-1.27,7.69-2,11.53-.65,3.52-1.36,7-2,10.57-.69,4-1.36,8-2,12s-1,7.94-1.5,11.91c-.24,2-.3,4.12-.45,6.16-.14,1.85-.13,3.7-.16,5.55-.06,3.41,0,6.82.15,10.23.25,7.86.52,15.71.83,23.56.61,15,.87,30,1.57,45.05.37,7.82.87,15.63,1.12,23.45.24,7.48.05,14.93-.29,22.4-.13,2.84-.42,5.69-.73,8.52q-.49,4.59-1,9.18c-.73,6.24-1.54,12.47-2.37,18.7l.09-.72c-1.21,7.17-2.45,14.33-3.8,21.48-1.41,7.52-2.94,15-4.19,22.57-.66,4-1.44,7.93-1.93,11.93l-.86,7c-.18,1.5-.43,3-.52,4.5l-.41,7c-.09,1.5-.24,3-.23,4.5l0,6.83c0,1.59,0,3.18,0,4.77.09,2.18.19,4.34.29,6.52.07,1.64.1,3.28.22,4.91.29,3.78.51,7.57.91,11.34.43,4,.78,8,1.33,12,.53,3.81,1,7.64,1.63,11.43.69,4,1.35,7.93,2.18,11.86l1.34,6.33c.41,2,1,3.88,1.52,5.82.64,2.47,1.32,4.89,2.1,7.33A96.82,96.82,0,0,0,32.55,662c4.68,9.07,11.44,16.92,18.78,23.93,1.5,1.44,3.09,2.79,4.66,4.16s2.83,2.57,4.3,3.79L68.86,701q4.58,3.82,9.16,7.64c1.76,1.46,3.5,2.95,5.31,4.34l5.36,4.12c1.29,1,2.66,1.87,4,2.77l2.86,1.93c1.8,1.21,3.73,2.26,5.63,3.3a71.27,71.27,0,0,0,14.06,5.79,74.89,74.89,0,0,0,11.7,2.2c1.64.21,3.29.46,4.93.6l6.67.6c3.52.31,7,.57,10.56.91,2.89.27,5.79.5,8.67.84l8.69,1c3.2.48,6.42.9,9.59,1.5,3.81.73,7.63,1.41,11.42,2.25s7.73,1.7,11.58,2.64l12.34,3c3.54.88,7.11,1.61,10.68,2.36.69.15,1.4.21,2.1.32l3.9.6c2.06.31,4.11.59,6.19.76l6.07.49c.48,0,1,0,1.46,0H247c1.56,0,3.12-.12,4.68-.22,1.79-.11,3.58-.22,5.36-.4,16-1.63,31.85-4.46,47.75-6.93,3.1-.4,6.2-.81,9.32-1.11,3.91-.37,7.8-.74,11.72-1s8.09-.51,12.14-.68,8-.29,12.06-.37c7.81-.17,15.63-.15,23.45-.18q11.27,0,22.53-.13c14.83-.1,29.68-.14,44.5-.61q6.24-.19,12.46-.49c4.06-.19,8.11-.47,12.16-.75,7.89-.54,15.75-1.59,23.58-2.67,14.73-2,29.28-5.21,43.88-8q11.84-2.27,23.69-4.55c3.26-.63,6.52-1.29,9.78-1.92,3.71-.71,7.43-1.39,11.13-2.18,4.05-.87,8.08-1.78,12.11-2.76,3.5-.85,6.94-1.93,10.38-3s6.57-2.13,9.85-3.2c3.61-1.17,7.22-2.33,10.8-3.57s7.2-2.48,10.77-3.8c3.93-1.45,7.84-2.93,11.73-4.48,3.63-1.45,7.21-3,10.79-4.55a93,93,0,0,0,9.95-4.92,54.82,54.82,0,0,0,11.7-9.25,65.26,65.26,0,0,0,6.22-7.93c.93-1.32,1.77-2.75,2.59-4.15,1.05-1.8,2.07-3.62,3.08-5.45a123.39,123.39,0,0,0,9.16-20.76,201,201,0,0,0,5.59-21.8c1.56-7.42,3.08-14.84,4.68-22.25,1.54-7.11,2.86-14.26,4.1-21.43,1.3-7.47,2.32-15,2.92-22.53.58-7.24.7-14.52,1-21.78.34-7.62.79-15.25,1.17-22.87s.55-15.09.72-22.63c.17-7.29.47-14.57.81-21.86.36-7.7.67-15.39,1-23.09.33-7.43.54-14.86.77-22.3s.64-14.66.83-22c.11-4,.22-8,.4-12,.17-3.83.46-7.65.76-11.47.59-7.54,1.46-15.05,2.21-22.57s1.28-15.21,1.7-22.84c.39-7.27.49-14.58.58-21.86.09-7.56.15-15.14-.07-22.7-.12-4.3-.3-8.58-.53-12.87-.19-3.59-.59-7.16-1-10.73-.43-3.78-.89-7.55-1.31-11.33-.4-3.57-.65-7.16-.93-10.75-.57-7.45-1.06-14.9-1.74-22.34q-1.08-11.71-2.48-23.39c-.94-7.87-2.2-15.69-3.91-23.43a176.72,176.72,0,0,0-6.39-21.4c-1.25-3.5-2.68-6.95-4.09-10.39s-2.7-6.77-4-10.17c-1.58-4.12-3.26-8.17-5.07-12.19a48.87,48.87,0,0,0-2.48-4.58c-.91-1.54-1.83-3.07-2.83-4.54-2.32-3.4-4.7-6.77-7.3-10-2.36-2.91-4.77-5.75-7.23-8.57S668.86,80.73,666,78c-2.6-2.53-5.41-4.82-8.2-7.13-3.29-2.73-6.73-5.28-10.13-7.86-3-2.25-6-4.36-9.11-6.48-1.48-1-3-1.94-4.56-2.9-.66-.42-1.37-.79-2.06-1.18s-1.59-.93-2.41-1.34a82.38,82.38,0,0,0-11.73-4.9C614.08,45,610.3,44,606.48,43c-3.41-.86-6.88-1.62-10.36-2.15-7.63-1.17-15.28-2-23-2.59-7.53-.58-15.05-1.22-22.58-1.8s-15-.81-22.52-1.08l-22.52-.79c-7.3-.25-14.6-.42-21.89-.77q-11.45-.54-22.87-1.41c-3.78-.29-7.55-.56-11.33-.77-3.52-.19-7-.22-10.56-.24q-22.58-.11-45.16,0c-14.83.09-29.67.3-44.51.4-7.5,0-15,.09-22.5.23-7.81.15-15.6.29-23.41.17-7.39-.11-14.78-.48-22.14-1S266.43,30,259.06,29.77c-3.11-.1-6.21-.16-9.31-.16-4.44,0-8.87.12-13.3.44Zm5.87,13.61c7.37-.34,14.74-.43,22.11-.16q5.95.22,11.88.57c3.47.21,6.94.49,10.41.66q11.69.58,23.39.64t23.69,0q10.66,0,21.32,0c7.31,0,14.63.08,21.94,0,7.84-.12,15.67-.25,23.51-.29,7.28,0,14.55,0,21.83-.05,7.45,0,14.89-.09,22.34,0,7.63.13,15.24.94,22.84,1.47,7.37.51,14.75.85,22.13,1.26,14.9.83,29.8,1.41,44.71,1.93,7.34.25,14.69.56,22,1s14.94.82,22.4,1.42c3.88.31,7.74.72,11.6,1.18,4.39.64,8.75,1.41,13.06,2.46,2.4.59,4.78,1.2,7.15,1.88s4.89,1.54,7.31,2.41a58.86,58.86,0,0,1,5.84,2.8c1.2.68,2.45,1.32,3.62,2.05l4.23,2.65c2.45,1.53,4.79,3.25,7.14,4.94,2.09,1.49,4.14,3,6.19,4.57a133.09,133.09,0,0,1,12.74,11,149,149,0,0,1,11,12.78c1.35,1.83,2.67,3.66,4,5.53s2.58,4,3.84,6,2.33,3.93,3.45,5.91c1.22,2.15,2.2,4.44,3.21,6.68,2.44,5.89,4.83,11.79,7.3,17.66,2.54,6.11,5,12.25,6.94,18.56a177.2,177.2,0,0,1,4.85,19.68c1.29,6.7,2.28,13.44,3.25,20.19s1.92,13.38,2.84,20.07c.92,7.1,1.78,14.2,2.71,21.3s2.16,14.34,3.22,21.52l.61,5.27c.23,2,.34,4.05.5,6.07.29,3.56.45,7.13.59,10.7q.45,11.24.39,22.5c0,8-.09,16-.34,23.94-.24,7.37-.71,14.73-1.19,22.09-.5,7.72-1,15.43-1.27,23.16-.29,7.27-.23,14.54-.35,21.82-.25,14.95-.95,29.89-1.75,44.82-.4,7.5-.79,15-1.27,22.49s-.8,15.27-1.05,22.91-.59,15.39-1,23.09-.94,15.28-1.35,22.93c-.39,7.4-.75,14.79-1.63,22.15-2.09,14.22-5.89,28.09-9.23,42-1.7,7.09-3.1,14.25-4.65,21.38-1.62,7.43-3.34,14.87-6.18,21.95l-.64,1.61c-1.82,4.05-3.76,8.05-5.91,11.94-1.17,2.12-2.37,4.21-3.6,6.3s-2.62,4-4,6a51.93,51.93,0,0,1-7.86,7.87,59.89,59.89,0,0,1-10.2,6c-2.43,1.11-4.86,2.17-7.31,3.21-6.64,2.74-13.3,5.4-20.06,7.81-7.52,2.66-15.05,5.27-22.63,7.75-3.4,1.11-6.82,2.16-10.25,3.18-3.73,1.12-7.54,2-11.32,2.91s-7.48,1.63-11.23,2.39q-5.05,1-10.11,2c-12,2.25-24,4.31-36,6.29q-9.2,1.51-18.39,3.11c-5.53,1-11.08,1.77-16.63,2.56-3.69.44-7.38.87-11.08,1.21-3.89.36-7.77.62-11.66.88-3.41.23-6.83.38-10.24.5-4,.14-8,.3-12.06.39-15.65.34-31.3.23-47,.19-7.39,0-14.78-.07-22.18-.1s-14.82-.13-22.22,0c-7.77.09-15.52.2-23.28.65-4,.23-8,.49-12,.83s-8.21.8-12.32,1.27c-4.84.55-9.67,1.28-14.49,2s-9.7,1.43-14.55,2.13c-3.17.42-6.34.83-9.52,1.18-1.66.18-3.31.39-5,.52-2.07.16-4.15.39-6.23.48l-6.43.25c-1.85.07-3.71,0-5.55-.06-1.48,0-2.93-.05-4.41-.19l-6-.54c-3.17-.49-6.32-1-9.46-1.63-4.2-.9-8.36-1.88-12.53-2.89-3.73-.91-7.49-1.77-11.23-2.64-3.47-.81-7-1.42-10.49-2.13-2-.39-3.95-.66-5.91-1s-4.15-.69-6.24-1c-3.75-.5-7.5-1.07-11.27-1.45-4-.4-8-.8-12-1.11s-8.25-.6-12.38-.86c-3-.19-5.92-.41-8.89-.63-2.21-.16-4.41-.45-6.61-.71a71.84,71.84,0,0,1-14.85-4,82.31,82.31,0,0,1-9.76-5l-3.39-2.07c-.7-.43-1.43-.82-2.1-1.29l-5.83-4.05c-1.45-1-2.84-2.11-4.26-3.18q-9.08-6.86-18.12-13.78l-7.4-6A92.76,92.76,0,0,1,46,666a87.21,87.21,0,0,1-5-7.49,78.3,78.3,0,0,1-4.23-8.45,88.69,88.69,0,0,1-3.41-9.62l-2-7.19c-1-3.47-1.7-7-2.52-10.53-.35-1.52-.61-3.06-.9-4.59q-.56-2.86-1.11-5.72c-.35-1.79-.57-3.62-.86-5.43l-.84-5.3q-.53-4.16-1.07-8.32c-.35-2.7-.6-5.42-.87-8.13-.24-2.37-.46-4.72-.62-7.09l-.39-5.89c-.06-1-.16-2-.18-3l-.23-10c-.06-2.57.1-5.14.2-7.71.09-2.37.14-4.73.39-7.09q.5-4.76,1-9.51L25,523.75c.58-3.86,1.3-7.7,2-11.54s1.29-7.48,1.93-11.22c.59-3.47,1.2-6.95,1.71-10.43.54-3.71,1.18-7.42,1.6-11.15.44-3.89.93-7.77,1.32-11.66s.78-7.58,1.11-11.38c.36-4.19.67-8.37.93-12.56.22-3.6.27-7.21.33-10.81s.09-7.11,0-10.67c-.14-7.78-.41-15.55-.46-23.32-.1-15,.37-30.07.68-45.1.17-8.11.29-16.22.48-24.33.07-3.39.14-6.79.37-10.18.13-1.9.2-3.82.42-5.71l.69-6.11c.51-3.45,1-6.91,1.61-10.35.66-3.85,1.38-7.69,2.1-11.52.7-3.68,1.45-7.34,2.13-11,.77-4.12,1.54-8.26,2-12.43l.73-6.14c.21-1.79.33-3.57.47-5.36.27-3.45.48-6.9.56-10.36.18-7.63.25-15.27.34-22.9.11-9.75.16-19.53.7-29.27.27-4.79.52-9.59,1-14.37s1-9.67,1.61-14.49c.5-3.3,1-6.58,1.6-9.86.65-3.57,1.38-7.13,2.07-10.7,1.36-7.1,2.26-14.29,3.1-21.47.13-.93.27-1.87.41-2.8a45.46,45.46,0,0,1,1.15-5,65.73,65.73,0,0,1,2.59-7.45c1.1-2.5,2.3-5,3.57-7.37,5.46-4.55,10.9-9.12,16.5-13.5,2.34-1.76,4.67-3.54,7.12-5.13,2.7-1.75,5.44-3.45,8.25-5C103.32,68,109.13,65,115,62.28c1.31-.55,2.63-1.05,4-1.51,5.15-1.74,10.39-3.18,15.68-4.41S145.41,54,150.8,52.93c5.2-1,10.43-2.16,15.69-2.89l2.29-.31-.3,0c8.06-1.08,16.2-.87,24.3-1.09,8.64-.24,17.19-1.46,25.75-2.62h0l4.28-.58-1.85.25c7.11-.92,14.23-1.75,21.39-2.09Zm-76.7,6.5-.44.06.44-.06ZM114.75,62.4l-1.08.46,1.08-.45Z"/><path class="cls-1" d="M331,26.26q-10.75.11-21.48.41c-7.1.2-14.19.49-21.29.79-3.36.14-6.72.26-10.08.39-1.52.05-3.05,0-4.57.05s-3.16.07-4.74.05c-3.43,0-6.87-.05-10.3-.12s-7.09-.15-10.64-.15h-6.48c-1.54,0-3.08.11-4.61.18s-2.94.08-4.4.19l-6.89.55c-3.2.26-6.39.69-9.59,1-1.77.2-3.54.49-5.31.73-1.62.23-3.24.43-4.86.68-7.16,1.12-14.3,2.29-21.47,3.37-6.39,1-12.81,1.82-19.2,2.85-7,1.12-14,2.27-20.92,3.82l-5.43,1.21c-2,.44-3.9,1-5.84,1.45-3.19.8-6.34,1.75-9.48,2.72-6,1.84-11.84,3.94-17.71,6s-11.68,4.13-17.5,6.24A72.62,72.62,0,0,0,76.9,63.87a50.33,50.33,0,0,0-9.64,7.55c-1.18,1.13-2.29,2.33-3.41,3.51l-4.4,4.61c-.54.57-1.06,1.16-1.59,1.75l-4.7,5.23q-4.9,5.46-9.74,11s0,0,0,0C48.51,92,53.63,86.52,58.74,81c1.38-1.48,2.82-2.89,4.25-4.33l3.4-3.43a64.73,64.73,0,0,1,6-5.28l-.08.07a54.78,54.78,0,0,1,5.11-3.39A56.71,56.71,0,0,1,84,61.51l-.12.05c3.65-1.47,7.38-2.75,11.1-4l9.89-3.38c5.53-1.89,11.06-3.8,16.74-5.2L127,47.64c1.39-.34,2.81-.62,4.21-.93,2.87-.63,5.76-1.24,8.65-1.75,3.31-.58,6.62-1.16,9.93-1.68,3-.49,6.1-.91,9.15-1.35,7.86-1,15.72-1.95,23.58-3,8.08-1,16.15-2.15,24.21-3.26l5.24-.63c1.5-.18,3-.39,4.51-.53,3.55-.32,7.1-.68,10.66-.87l5.59-.3c.59,0,1.2,0,1.79,0l4.16-.06c3.56-.05,7.11.09,10.67.18,3.4.09,6.8.27,10.21.41l4.25.15c1.79.06,3.58.16,5.37.19,3.27,0,6.54.16,9.8.13,3.55,0,7.11-.07,10.67-.14,13.89-.25,27.79-.39,41.68-.06,7.08.16,14.16.33,21.23.68,7.25.36,14.5.81,21.75,1.2,6.95.37,13.89.58,20.85.73q10.1.22,20.2.12c3.44,0,6.87-.08,10.3-.18l10.47-.31c7.26-.22,14.52-.41,21.77-.68,5-.2,10.05-.46,15.07-.75,5.78-.32,11.56-.66,17.34-.76l4.06-.07c.48,0,1,0,1.43,0l2.91.09c1,0,2.06,0,3.08.13l5.42.45c2.76.23,5.5.6,8.25.92,2.53.3,5.06.67,7.59,1l-1-.14c3.48.52,7,1,10.44,1.64,1.38.24,2.75.48,4.13.75,1.77.36,3.55.67,5.31,1.07,3.48.79,7,1.57,10.43,2.42l10.81,2.66c6.55,1.63,13.14,3,19.74,4.44q4.64,1,9.26,2.07c3.2.75,6.4,1.49,9.54,2.44,1.66.5,3.31,1,5,1.53s3.28,1.15,4.92,1.75l-.27-.12c1,.42,2,.82,3,1.3,1.18.57,2.41,1.09,3.56,1.72l3.75,2c.54.29,1.05.64,1.58,1l2.3,1.41c2.11,1.29,4.17,2.68,6.27,4,1.18.74,2.36,1.52,3.56,2.22l4.42,2.58c4.7,2.73,9.54,5.21,14.36,7.7,5.63,2.9,11.37,5.75,16.43,9.59,1.23,1,2.4,2,3.54,3.11a38.65,38.65,0,0,1,3.77,4.34l2.2,3.06c.31.44.57.92.86,1.37s.65,1,.93,1.51c1.18,2.19,2.32,4.39,3.3,6.68h0l.28.68s0,0,0,0a70.69,70.69,0,0,0-3.45-9.47c-.29-.64-.57-1.29-.9-1.9l-1.5-2.81a37,37,0,0,0-6.83-8.85,66.81,66.81,0,0,0-10.21-7.74c-2.81-1.86-5.72-3.56-8.59-5.34-6.06-3.74-12.11-7.48-18-11.55-2.77-1.93-5.51-3.92-8.32-5.81-1.38-.92-2.75-1.82-4.17-2.67l-2.13-1.27c-.89-.52-1.83-1-2.74-1.45-1.37-.73-2.8-1.37-4.21-2-.94-.45-1.94-.81-2.9-1.21-.77-.32-1.54-.63-2.32-.92-3.1-1.14-6.22-2.27-9.4-3.15-3.46-1-6.92-1.84-10.41-2.67-3-.71-6-1.32-9-2-7.13-1.55-14.22-3.23-21.3-5-2.87-.7-5.74-1.41-8.62-2l-6.17-1.32c-1.68-.36-3.37-.64-5.06-1-7-1.3-14.15-2.18-21.25-3.06-1.31-.16-2.62-.32-3.93-.46-1.85-.2-3.7-.47-5.55-.61l-5.89-.44c-1.51-.11-3-.14-4.52-.18s-2.92-.11-4.38-.08l-6.21.12c-3.28.06-6.57.24-9.84.39-7.21.33-14.43.65-21.65.84s-14.33.26-21.5.37l-10.55.17c-3.48.06-7,0-10.45.05-13.69,0-27.38-.39-41.05-1-7.2-.34-14.41-.7-21.61-1-3.48-.12-7-.16-10.46-.23-1,0-1.91,0-2.87,0h-1.27l-3.88,0Z"/><path class="cls-1" d="M704.54,653.47a144.9,144.9,0,0,1-11.77,10.22l-5.23,3.76c-1.69,1.21-3.48,2.3-5.23,3.44-7.5,4.9-15,9.73-23.25,13.37a204.19,204.19,0,0,1-22.72,7.35c-6.92,1.94-14,3.36-21,4.75-3.16.62-6.35,1.11-9.52,1.67-3.94.7-7.87,1.46-11.81,2.21-6.59,1.26-13.2,2.54-19.84,3.48l-11.35,1.62-5.54.8c-2,.29-3.91.72-5.86,1.08-1.39.25-2.8.45-4.17.78l-7,1.64c-3.59.84-7.14,1.86-10.7,2.83-13.33,3.63-26.43,8.11-39.74,11.8-7,1.93-13.94,3.74-20.9,5.66-3.43.95-6.86,1.85-10.27,2.87s-6.95,2.11-10.43,3.13-7,2.19-10.61,3.1l-6.37,1.61c-1.62.41-3.24.88-4.88,1.24l-11.84,2.57c-3.67.8-7.4,1.36-11.09,2-3.33.61-6.7,1-10,1.51q-4.73.69-9.47,1.33L364.34,752l-12,1.39c-3.4.39-6.83.61-10.25.9-3.13.26-6.25.5-9.38.7-3.57.22-7.15.57-10.72.65l-12.6.27c-1.18,0-2.36,0-3.54-.05l-7.86-.12c-3.39-.05-6.78-.26-10.16-.42s-6.55-.36-9.83-.64c-3-.26-6-.44-9-.83l-9.48-1.22-11.44-2c-1.32-.24-2.64-.58-3.95-.87l-6.73-1.5c-3.24-.72-6.46-1.54-9.7-2.28-3.4-.77-6.8-1.53-10.2-2.32-14-3.29-28-6.89-42-10.51-3.57-.93-7.16-1.81-10.71-2.82-3.88-1.1-7.72-2.23-11.57-3.45-7-2.21-13.89-4.68-20.8-7.1-6.71-2.35-13.41-4.72-20.06-7.23s-13.12-4.91-19.7-7.32c-2.09-.77-4.2-1.49-6.27-2.32l-6.92-2.78c-3.2-1.44-6.33-3-9.38-4.71a87.71,87.71,0,0,1-9.57-6.42,95.66,95.66,0,0,1-15.85-15.22,66.67,66.67,0,0,1-7-12.22s0,0,0,0a74.58,74.58,0,0,0,4.63,11.06,48.51,48.51,0,0,0,3.8,5.67c1.44,1.93,3,3.78,4.57,5.59a100.29,100.29,0,0,0,10.34,10A87.11,87.11,0,0,0,73,702.25c2.28,1.36,4.62,2.55,7,3.7,1.71.83,3.41,1.72,5.14,2.49q5,2.2,9.95,4.38c6.68,2.92,13.3,6,20,8.74,6.9,2.82,13.86,5.46,20.86,8q5.53,2,11.07,4c3.11,1.11,6.22,2.26,9.38,3.21,3.4,1,6.79,2.07,10.21,3l11.21,3.06c6.64,1.81,13.25,3.72,19.88,5.54q10.67,2.92,21.39,5.64c7.42,1.89,14.8,3.91,22.21,5.81,3.5.9,7,1.64,10.54,2.39l4.87,1c1.84.38,3.73.59,5.58.89,3.74.6,7.46,1.17,11.22,1.61,3.49.41,7,.91,10.49,1.16l12.17.87c1.53.11,3.06.12,4.59.18l7.49.29c3.49.14,7,0,10.48,0,1.29,0,2.6.06,3.89,0l5.56-.27c3.38-.16,6.77-.27,10.14-.52l12.64-.93c1.32-.1,2.63-.28,3.95-.42l7.88-.84c3.34-.36,6.66-.83,10-1.26,7.21-.94,14.42-1.86,21.63-2.87l7-1c1.45-.2,2.9-.36,4.34-.61l11.95-2.12c1.34-.23,2.67-.57,4-.86L429,755c3.57-.77,7.1-1.76,10.64-2.66s6.93-1.95,10.38-3,6.77-2,10.16-3c6.76-2,13.59-3.84,20.41-5.65s13.65-3.7,20.44-5.68,13.31-4,20-5.95,13.41-3.79,20.17-5.52c3.29-.84,6.64-1.46,10-2.19,1.54-.33,3.11-.52,4.66-.79l5-.85c7.1-.91,14.22-1.75,21.3-2.8,7.27-1.07,14.52-2.32,21.76-3.61s14.37-2.61,21.5-4.21c3.25-.73,6.46-1.69,9.63-2.69,3.73-1.19,7.4-2.5,11.07-3.85,2.68-1,5.31-2.21,7.95-3.32,2.24-1,4.4-2.12,6.59-3.2,5.45-2.7,10.33-6.55,15-10.43,3.52-3,6.79-6.25,10-9.54a142,142,0,0,0,10.09-11c3-3.82,6.14-7.61,8.88-11.65a0,0,0,0,0,0,0ZM60.36,688.78l.1.08-.1-.08Zm.24.19.1.08-.1-.08Z"/><path class="cls-1" d="M307.16,6.75q-23.88.06-47.72,1.15c-15.48.7-30.91,2.17-46.31,3.84-3.7.4-7.39.8-11.09,1.27-4.16.52-8.36.94-12.51,1.6l-7.22,1.16c-1.73.28-3.5.47-5.21.84L164,19.44c-1.16.25-2.3.62-3.44.95L152,22.81c-3.55,1-7,2.3-10.49,3.53-3.31,1.16-6.57,2.37-9.82,3.68-3.75,1.51-7.55,2.94-11.22,4.63q-6.69,3.09-13.34,6.25c-1.79.85-3.51,1.91-5.25,2.87L95,47.6C93,48.71,91,50,89.09,51.26c-2.65,1.72-5.22,3.56-7.73,5.48A156.93,156.93,0,0,0,67.23,69c-4.44,4.32-8.47,9.06-12.46,13.8S46.86,92.43,43,97.36a0,0,0,0,0,0,0C52.56,88.23,62,78.9,72.4,70.72A182.7,182.7,0,0,1,96.1,55.24c3.77-2.06,7.69-3.86,11.54-5.77,5.57-2.75,11.32-5.09,17-7.56q4-1.57,8.06-3.16c2.24-.88,4.46-1.83,6.73-2.64L150,32.33c2.23-.8,4.5-1.43,6.79-2.08l9.1-2.61c1-.29,2.07-.45,3.1-.67l6.71-1.45c5.43-1.17,10.91-2,16.4-2.82,15.75-1.92,31.51-3.7,47.34-4.86,15.54-1.13,31.11-1.63,46.68-1.71,16.17-.09,32.33,0,48.5.59,8.15.29,16.29.75,24.42,1.3,7.3.49,14.61,1.22,21.9,1.88,16.18,1.47,32.36,3,48.57,4.11,8.16.58,16.32,1,24.48,1.49s16.3,1.06,24.45,1.64c7.76.55,15.5,1.43,23.24,2.28q12.06,1.32,24.13,2.72c7.88,1.13,15.72,2.4,23.57,3.67,7.68,1.24,15.36,2.43,23,3.74,7.82,1.35,15.64,2.68,23.49,3.83,7.53,1.11,15.13,2,22.55,3.73,2.29.52,4.53,1.1,6.78,1.75,2,.58,4,1.32,6,2l3.64,1.61c1.64.73,3.21,1.72,4.8,2.57s3.21,2,4.8,3c1.33.84,2.59,1.83,3.86,2.79l4.52,3.81c.64.54,1.22,1.19,1.82,1.78l3,2.92c1.46,1.43,2.77,3.05,4.13,4.57s2.84,3.36,4.24,5q7.8,9.43,15.59,18.86l4.41,6c.8,1.09,1.46,2.33,2.18,3.47l2.52,4c.65,1,1.17,2.18,1.74,3.26l2.34,4.41c.59,1.11,1.07,2.31,1.59,3.46l1.52,3.31,2.54,6.44c.55,1.39.93,2.88,1.38,4.29.39,1.21.88,2.44,1.17,3.68l2,8.25c.32,1.34.46,2.75.69,4.11l.54,3.21q.3,2.72.59,5.43c.21,1.92.29,3.85.4,5.78.21,3.68.36,7.37.38,11.05,0,8-.07,16.06-.11,24.09,0,7.66.15,15.31.2,23s.06,15.47-.05,23.21c-.12,8.47-.24,16.95-.31,25.42,0,3.67.06,7.34.1,11,0,2.07.18,4.16.26,6.23.07,1.6.13,3.19.26,4.79.34,4.1.67,8.19,1.13,12.28s1,8.32,1.52,12.48c1.06,8.15,2.14,16.3,3.18,24.45q3,23.82,5,47.75c.58,7.34,1,14.73,1.21,22.09.11,4.22.21,8.43.21,12.64,0,4.4-.12,8.79-.26,13.18-.22,7.41-.68,14.82-1.05,22.23q-.63,12.43-1.3,24.86c-.84,15.42-1.79,30.85-3.27,46.22-.45,4.68-1,9.35-1.56,14-.6,3.7-1.16,7.41-1.91,11.09-1,4.86-2.06,9.69-3.19,14.52-.92,4-2,7.89-3.23,11.76-.66,2.07-1.24,4.19-2,6.23l-2.24,5.9-2.6,5.7c-.93,2-2.05,4-3.08,6-1.85,3.59-3.8,7.14-5.79,10.66-2.16,3.83-4.29,7.72-6.7,11.41l-3.93,6c-1.11,1.7-2.36,3.31-3.57,4.94l-2,2.37c-.69.85-1.35,1.76-2.1,2.55l-3,3.13c-.71.74-1.38,1.55-2.14,2.24l-3.3,3c-.78.71-1.54,1.49-2.36,2.15l-5.07,4.05c-2,1.46-4,3-6.1,4.32-2.47,1.57-4.9,3.25-7.46,4.67s-5.25,3.09-8,4.39L624,679.26l-10.38,4.22c-1.45.59-2.95,1.08-4.42,1.63l-7.72,2.83c-3.71,1.36-7.53,2.48-11.29,3.71-3.12,1-6.25,2-9.39,2.95q-24.57,7.38-49.21,14.49c-3.12.9-6.27,1.74-9.4,2.61-3.94,1.08-7.86,2.23-11.82,3.25-7.29,1.89-14.55,3.91-21.84,5.83-7.68,2-15.31,4.22-23,6.18-8.09,2.05-16.14,4.27-24.26,6.25q-11.4,2.78-22.79,5.59c-8.49,2.09-17,4.25-25.5,6.17,0,0,0,0,0,0,16.56-2.12,33.09-4.56,49.62-6.95,3.21-.46,6.42-1,9.62-1.57q7.62-1.25,15.23-2.54c7.85-1.33,15.65-3,23.45-4.58,7.39-1.5,14.73-3.28,22.07-5,4-.94,7.93-2,11.89-3,3.15-.8,6.31-1.57,9.45-2.4q24.8-6.51,49.57-13.16,4.75-1.27,9.47-2.66c3.79-1.11,7.63-2.12,11.39-3.34l7.13-2.32c1.71-.56,3.45-1.06,5.14-1.68l11.71-4.26c2.17-.79,4.28-1.84,6.4-2.75,1.84-.8,3.77-1.49,5.55-2.41,3.61-1.87,7.24-3.67,10.73-5.75,1.54-.92,3.15-1.78,4.64-2.79l6.06-4.09c1.56-1.05,3-2.3,4.5-3.45,1.73-1.33,3.43-2.66,5.06-4.1,1.38-1.22,2.86-2.38,4.15-3.7l4.9-5c1.39-1.41,2.59-3,3.88-4.55,1.53-1.8,2.91-3.71,4.32-5.6a232.82,232.82,0,0,0,13.25-20.28c1.79-3,3.57-6,5.24-9.1l3.4-6.25c1-1.84,1.82-3.78,2.73-5.66s1.66-3.73,2.42-5.62,1.56-3.64,2.19-5.51l2.31-6.89c.61-1.83,1.09-3.71,1.61-5.57,1.14-4,2.13-8.12,3.13-12.2.39-1.6.69-3.23,1-4.84.15-.73.32-1.46.48-2.2.56-8.15,1.14-16.3,2-24.44,1.11-10.35,2.24-20.7,3.3-31.05,1.1-10.64,2-21.29,3.11-31.93q.36-6.48.73-13c.43-7.41,1-14.81,1.36-22.23.21-4.39.4-8.78.49-13.18.08-4.22.06-8.43,0-12.64,0-7.36-.33-14.74-.72-22.09-.84-15.93-1.79-31.86-3.2-47.75-.72-8.16-1.48-16.3-2.34-24.45s-1.73-16.5-2.44-24.77c-.63-7.32-.81-14.7-.94-22q-.23-12.71-.55-25.42-.3-11.61-.91-23.21c-.4-7.67-1.31-15.3-1.9-23-.61-8-.87-16.06-1.25-24.09-.17-3.69-.45-7.37-.79-11.05-.45-4.77-1.1-9.51-1.75-14.26-.25-1.84-.69-3.68-1-5.51-.31-1.66-.65-3.27-1.07-4.89l-1.58-6.14c-.2-.76-.51-1.5-.76-2.25L715,129.41c-.52-1.52-1.15-3-1.76-4.48-.87-2.14-1.7-4.31-2.68-6.41l-3-6.52c-.86-1.84-1.9-3.59-2.86-5.38-.71-1.32-1.4-2.61-2.2-3.87l-3.89-6.18c-.3-.47-.67-.91-1-1.35L695.17,92c-1.28-1.72-2.57-3.42-3.93-5.07q-7.71-9.32-15.44-18.62c-1.15-1.39-2.28-2.81-3.48-4.15-1.43-1.59-2.78-3.29-4.3-4.78l-4.67-4.57c-1.45-1.42-3.11-2.65-4.66-4a91.1,91.1,0,0,0-10.54-7.41c-1.56-1-3.19-1.8-4.82-2.66s-3.59-1.67-5.42-2.46-4-1.56-6-2.26c-1.79-.61-3.62-1.07-5.45-1.55-3.55-.94-7.21-1.48-10.83-2.09-3.86-.64-7.75-1.12-11.62-1.63l-10-1.32c-16-2.27-31.9-4.69-47.85-7-8-1.17-16-2.29-24-3.13s-16.1-1.59-24.16-2.34c-15.81-1.48-31.67-2.26-47.54-3-7.46-.34-14.93-.63-22.38-1.09q-12.63-.77-25.25-1.74c-15.56-1.2-31.11-2.56-46.7-3.36-15.06-.77-30.12-1-45.19-1Z"/><path class="cls-1" d="M719.51,612.8c-3.13,5.57-6.55,11-9.9,16.43q-2.57,4.17-5.15,8.32c-2.93,4.74-5.88,9.48-9.25,13.93a110,110,0,0,1-18.48,17.74c-2.75,2.1-5.56,4.12-8.34,6.19-2.54,1.89-5.21,3.61-7.9,5.29a94.35,94.35,0,0,1-8.41,4.76q-4.35,2.13-8.67,4.31c-2.74,1.38-5.56,2.64-8.32,4q-7.07,3.42-14.19,6.74c-2.46,1.14-4.9,2.32-7.39,3.4l-8.37,3.64L587,715.05c-2.91,1.21-5.83,2.36-8.76,3.53-1.18.47-2.36,1-3.55,1.42l-5.34,1.84-4.77,1.64c-1.36.47-2.79.79-4.18,1.18-3,.84-5.95,1.71-9,2.42l-6.52,1.52c-1.2.28-2.39.6-3.59.83l-11.25,2.2c-3.53.69-7.11,1.16-10.66,1.73-3.18.51-6.36.94-9.55,1.39q-10.42,1.48-20.85,2.9c-12.48,1.63-25,3.31-37.48,4.68l-12.45,1.36c-2.57.28-5.17.41-7.75.6l-11.64.87c-2.7.2-5.42.2-8.12.29l-12.08.42c-2.43.08-4.86,0-7.29,0l-12.71-.1c-2.23,0-4.46-.14-6.69-.23-6.5-.25-13-.43-19.5-.87s-13.15-.8-19.71-1.38q-20.82-1.86-41.61-3.91c-7.14-.7-14.28-1.47-21.41-2.21-6.63-.68-13.24-1.56-19.86-2.34l-2.29-.27c-6.89-1-13.78-2-20.67-3-2.13-.29-4.26-.66-6.39-1q-6.93-1.09-13.86-2.14c-5.5-.83-11-1.82-16.46-2.75q-6.93-1.18-13.86-2.32c-1.83-.3-3.69-.55-5.51-.91q-12.13-2.38-24.28-4.68L135,715.42c-5.46-1-10.89-2.16-16.33-3.25,0,0,0,0,0,0,5.13,1.52,10.25,3.09,15.42,4.49l10.48,2.82q12.33,3.29,24.69,6.49c5.23,1.35,10.54,2.4,15.82,3.55q6.61,1.44,13.23,2.86c1.62.34,3.24.71,4.88,1q11.07,2.06,22.16,4c2.69.47,5.4.82,8.1,1.21l12.61,1.86c6.69,1,13.42,1.69,20.13,2.51,6.31.77,12.64,1.42,19,2.11,12.46,1.36,24.93,2.68,37.4,3.9,6.32.62,12.64,1.25,19,1.73s12.95,1.08,19.44,1.39,13.26.77,19.9.88l13.49.23c2.09,0,4.17.09,6.25,0l13.22-.34c2.25-.06,4.52-.07,6.77-.22l13-.86c2.25-.15,4.49-.29,6.73-.5,6.64-.65,13.29-1.26,19.93-2l20.9-2.32q10.67-1.2,21.33-2.45c5.69-.66,11.39-1.27,17.08-2l11.34-1.51c3.73-.5,7.44-1.19,11.15-1.8,3-.5,6-1.14,9-1.75s5.85-1.22,8.77-1.95c3.11-.77,6.25-1.48,9.32-2.42s6.34-1.84,9.44-3,6.46-2.27,9.66-3.5l10.43-4q9.23-3.52,18.4-7.21c6.18-2.48,12.27-5.18,18.36-7.86,5.73-2.54,11.5-5,17.11-7.81l5.65-2.85a94,94,0,0,0,8.84-5.22,140.15,140.15,0,0,0,14-10.92,95.1,95.1,0,0,0,19.21-22.07c3-4.86,5.16-10.2,7.39-15.45.83-1.95,1.58-3.93,2.37-5.89,3.25-8.18,6.59-16.35,9.57-24.63,0,0,0,0,0,0Zm-43.12,56.69-.4.31.4-.31Z"/><path class="cls-1" d="M318.49,0c-8.22.05-16.45.13-24.66.34-16.89.42-33.77,1.07-50.56,3.05-16.24,1.92-32.45,4.53-48.44,8-8.11,1.74-16.21,3.55-24.23,5.67-4,1.05-7.94,2.1-11.88,3.3S150.86,22.7,147,24c-15.87,5.26-31.82,10.3-47.35,16.53-4.08,1.64-8.07,3.44-12.07,5.25A88.15,88.15,0,0,0,64.86,60.5c-8.2,7.4-14.48,16.82-19.34,26.68-1.17,2.36-2.2,4.8-3.2,7.24-.77,1.85-1.51,3.75-2.1,5.67q-1.12,3.64-2.23,7.28c-.75,2.47-1.25,5-1.85,7.54s-1,4.89-1.52,7.35c-.45,2.27-.86,4.53-1.23,6.81-.45,2.73-1,5.46-1.3,8.21q-.55,4.62-1.07,9.24c-.21,1.82-.48,3.65-.55,5.48q-.19,5.12-.37,10.25C30,166.1,30,169.94,30,173.8c0,0,0,0,0,0,.42-4.34.92-8.63,1.48-13q.62-4.78,1.22-9.57c1.66-8.35,3.14-16.75,5.27-25q1-4,2-7.94c.53-2.09,1.2-4.14,1.8-6.2A131.36,131.36,0,0,1,46.42,99,106.57,106.57,0,0,1,59.18,76.79,84.31,84.31,0,0,1,72.72,63.16,88.25,88.25,0,0,1,90,52.93l8.22-3.62c7.11-2.79,14.23-5.54,21.48-8q11.65-3.91,23.33-7.74c3.92-1.28,7.83-2.61,11.79-3.78s7.83-2.41,11.79-3.42c8.07-2.05,16.14-4.06,24.3-5.68l10-2c2.8-.55,5.64-1,8.46-1.46,5.43-.93,10.88-1.71,16.33-2.52,3.71-.47,7.42-1,11.14-1.38,4-.38,8.06-.89,12.1-1.14,8.11-.5,16.23-1,24.36-1.12,16.5-.22,33-.41,49.53,0s32.93,1.21,49.39,1.61,33,.57,49.45,1.27c9,.38,17.91.86,26.86,1.61,7.75.65,15.46,1.6,23.17,2.57,3.61.56,7.24,1.07,10.84,1.73,4.21.78,8.41,1.56,12.59,2.42,8.21,1.68,16.43,3.37,24.65,5L544,32.08c7.84,1.54,15.72,2.83,23.55,4.38,4.47.89,9,1.75,13.38,2.92q7.46,2,14.86,4.09c4.09,1.18,8.18,2.44,12.2,3.85,2.22.78,4.48,1.48,6.66,2.37l6.52,2.65c3.74,1.71,7.49,3.4,11.16,5.27L638.9,61c2.89,1.47,5.66,3.23,8.39,5s5.51,3.73,8.16,5.73c8.32,6.57,15.65,14.2,23,21.84,2.74,2.86,5.28,5.95,7.91,8.91,1.14,1.29,2.15,2.71,3.22,4.07l3.34,4.22c2.85,4,5.71,7.92,8.4,12,1.32,2,2.69,4,3.93,6.06l4.77,8c1.39,2.32,2.6,4.78,3.89,7.16,1.06,2,2.05,3.95,3,5.95,1.09,2.21,2.23,4.41,3.24,6.66l3.46,7.7c1.58,3.85,3.15,7.69,4.59,11.59.7,1.91,1.45,3.8,2.07,5.73l2.57,7.91c.68,2.1,1.21,4.26,1.82,6.38.52,1.84,1,3.68,1.44,5.54.49,2.09,1.07,4.16,1.44,6.27l1.25,7c.37,3.25.77,6.51,1,9.78l.4,7.27c.11,1.94,0,3.89.07,5.83,0,1.57.07,3.14,0,4.7q-.16,4-.31,8c-.14,3.69-.53,7.38-.81,11.07-.6,7.88-1.53,15.75-2.3,23.61-.81,8.16-1.68,16.34-2.14,24.54-.45,7.87-.85,15.74-1.06,23.62s-.4,16-.52,24c-.06,3.93-.08,7.86-.18,11.79s-.07,8.1-.33,12.13q-.24,3.66-.48,7.32c-.11,1.64-.15,3.3-.33,4.94l-1.24,11.54q-.79,5.26-1.58,10.52c-.28,1.89-.73,3.76-1.09,5.63q-.62,3.18-1.23,6.35c-.79,4.09-1.83,8.14-2.74,12.21s-1.85,8-2.77,12c-1.76,7.67-3.59,15.36-5,23.1-.8,4.31-1.59,8.61-2.25,12.94s-1.26,8.66-1.84,13c-1.27,9.41-2.57,18.83-3.68,28.26s-2.11,19-3.27,28.54q-.79,5.51-1.68,11c-.65,4-1.54,8-2.43,11.91s-2,7.53-3.21,11.23c-1.05,3.24-2.33,6.4-3.64,9.55-1.37,3-2.77,5.92-4.24,8.85s-3,5.54-4.6,8.24-3.23,5.36-5,7.93c-.93,1.33-1.81,2.7-2.8,4l-2.07,2.71-3.29,3.85a79.72,79.72,0,0,1-7.08,7.13c-2.66,2.42-5.5,4.61-8.34,6.8q-6.87,5-13.73,10.09l-7.37,5.43c-1.1.81-2.29,1.52-3.43,2.28l-4.79,3.2c-.7.46-1.43.86-2.15,1.27l-5.46,3.12c-2.22,1.27-4.46,2.44-6.75,3.59s-4.72,2.45-7.14,3.55l-8.29,3.81-10,4.06c-1.72.7-3.51,1.25-5.26,1.87l-6.57,2.34c-3.82,1.36-7.72,2.52-11.57,3.78s-7.9,2.47-11.85,3.7-8.24,2.38-12.36,3.57-8,2.17-12.07,3.25c-8,2.15-16,4.14-24.06,6.11-7.84,1.92-15.78,3.46-23.69,5s-15.8,3-23.72,4.5c-7.59,1.4-15.19,2.78-22.76,4.32q-12.32,2.5-24.63,5.11c-11.5,2.42-23,4.88-34.55,7.09-6.09,1.17-12.19,2.25-18.3,3.3-5.36.92-10.75,1.71-16.12,2.53L328.2,749c-3.89.51-7.8.87-11.7,1.3-7.73.85-15.49,1.42-23.25,1.9-7.52.47-15.08.8-22.62.69l-8.41-.12c-1.11,0-2.19,0-3.29-.12l-13.37-1.13-12.31-1.87c-3.81-.58-7.56-1.59-11.32-2.42l-4.93-1.1c-1.79-.4-3.56-1-5.32-1.48-3.72-1-7.48-2-11.16-3.13L186.16,737c-1-.32-2-.7-3-1.06l-8.43-3.06c-7.42-2.7-14.73-5.67-22.06-8.59l-9.45-4.23c-2.63-1.18-5.29-2.3-7.87-3.57-6.36-3.14-12.73-6.26-19.06-9.44-4.14-2.08-8.3-4.15-12.47-6.18-2.5-1.21-4.95-2.53-7.42-3.81q-5.26-2.72-10.55-5.39c-2.11-1.07-4.16-2.27-6.23-3.42q-3.72-2.06-7.36-4.28c-4-2.43-8-5-11.71-7.77a55.94,55.94,0,0,1-4.34-3.83,57.35,57.35,0,0,1-4.88-5.6c-1.57-2.1-3.07-4.25-4.53-6.44a78.76,78.76,0,0,1-4.68-8.47q-2.17-4.34-4.41-8.64c-2.15-4.15-4.32-8.3-6.21-12.58l0,.06c-.39-.95-.73-1.89-1-2.87a0,0,0,1,0,0,0,61,61,0,0,0,2.24,8.51c.54,1.73,1.11,3.45,1.7,5.17q1.13,3.29,2.27,6.57A153.92,153.92,0,0,0,42.28,663a74.77,74.77,0,0,0,8.27,13.77A66.14,66.14,0,0,0,62.34,688.1a190.59,190.59,0,0,0,20.5,14.27q6.59,4,13.24,7.83c3.44,2,7,3.79,10.55,5.63,7.56,3.94,15.16,7.8,22.76,11.68,3.34,1.71,6.82,3.18,10.23,4.74s6.93,3.24,10.48,4.67l14.56,5.86c3.34,1.34,6.77,2.47,10.15,3.68s6.58,2.41,9.94,3.43l13.4,4c1.54.46,3.13.81,4.68,1.21l8.6,2.22c3.57.92,7.2,1.58,10.82,2.31l6.18,1.24c1.77.36,3.64.5,5.43.74l8.24,1.09c1.25.16,2.51.37,3.77.45l14.12.93c1.6.11,3.24,0,4.84,0l8.45,0c4.14,0,8.3-.35,12.45-.54,3.95-.18,7.88-.56,11.82-.87,7.93-.64,15.82-1.61,23.7-2.61s16-2.1,23.91-3.43c8.11-1.36,16.25-2.67,24.32-4.25,16.33-3.2,32.61-6.64,48.89-10.08,7.79-1.64,15.57-3.35,23.39-4.81q12.71-2.38,25.45-4.66l24.93-4.49c8.25-1.48,16.45-3.23,24.65-5q24-5.13,47.78-11.42c3.94-1,7.87-2.13,11.8-3.21s7.71-2.25,11.55-3.41c7.69-2.33,15.2-5.16,22.69-8.07,4.25-1.66,8.43-3.51,12.63-5.3,3.79-1.62,7.45-3.55,11.16-5.37,1.29-.63,2.51-1.39,3.75-2.11l6.1-3.54c1.83-1.06,3.57-2.3,5.36-3.44l4.26-2.75,11.46-7.43c4.29-2.79,8.43-5.88,12.43-9.08a83.72,83.72,0,0,0,13.84-14.4c2.45-3.17,4.85-6.36,7-9.74a148.57,148.57,0,0,0,11.58-21.41c1.95-4.52,3.69-9.09,5.27-13.75,1.27-3.75,2.22-7.59,3.17-11.42s1.64-7.91,2.32-11.88c.74-4.35,1.32-8.73,1.84-13.11,1-8.4,1.83-16.82,2.75-25.23s2.05-16.62,3.14-24.92c.45-3.33.9-6.66,1.39-10,.65-4.43,1.39-8.83,2.14-13.24.66-3.85,1.53-7.67,2.32-11.5.25-1.23.56-2.44.86-3.66,1.13-10.59,2.59-21.14,4-31.69,1.27-10.11,2.18-20.25,3.41-30.36,1.27-10.37,2.71-20.77,2.81-31.23s-.41-21.21.36-31.75c.37-5.12,1-10.22,1.57-15.32s1.3-10.41,2.23-15.58c-.18-8-.29-16-.52-24.06-.32-11.58-1-23.16-1.52-34.73s-1.95-22.88-3.13-34.33c-1.12-10.87-1.47-21.8-2.66-32.67l-.13-.84c-1.42-8.92-2.73-17.83-3.72-26.78q-1.23-2.86-2.48-5.71c-.61-1.39-1.27-2.77-1.91-4.14-.92-2-1.79-4-2.77-5.88-1.79-3.51-3.5-7.08-5.42-10.52-2.05-3.66-4.07-7.33-6.28-10.9l-3.64-5.87c-1.11-1.79-2.36-3.5-3.53-5.24-2.43-3.61-5-7.11-7.56-10.63S699,98.7,696.21,95.2c-2.57-3.2-5.41-6.2-8.16-9.25-2.58-2.88-5.36-5.6-8.05-8.38-1.23-1.28-2.56-2.48-3.84-3.71-1.88-1.82-3.75-3.64-5.7-5.4A153.57,153.57,0,0,0,658,58.38c-2.21-1.62-4.5-3.12-6.82-4.59-2-1.28-4.09-2.56-6.21-3.67-3.49-1.83-6.94-3.76-10.5-5.44l-6.82-3.22c-2-.95-4.09-1.75-6.13-2.61-1.56-.66-3.1-1.36-4.69-1.94l-7.26-2.64c-1.71-.62-3.47-1.14-5.21-1.7s-3.41-1.1-5.12-1.61c-4.32-1.28-8.63-2.51-13-3.67-7.53-2-15.19-3.5-22.84-5q-12.8-2.44-25.56-5l-22.17-4.46c-8.05-1.62-16.09-3.34-24.18-4.73-4.43-.76-8.85-1.47-13.3-2.11S469,4.85,464.44,4.32c-4-.45-7.94-.76-11.91-1.12-3.67-.33-7.37-.6-11.05-.77-8-.37-16.09-.74-24.15-.9q-12.43-.25-24.87-.36c-16.33-.16-32.66-.5-49-.85C336.06.17,328.64,0,321.23,0Zm410,513.68-.08.61.08-.61Z"/><path class="cls-1" d="M52.58,92.6a14.12,14.12,0,0,0-3.68,2.5,44.8,44.8,0,0,0-4.66,4.85A62.27,62.27,0,0,0,40,105.51a152.9,152.9,0,0,0-10,16.94c-1.61,3.07-3.06,6.23-4.55,9.36-.64,1.35-1.19,2.74-1.78,4.11-.68,1.57-1.4,3.14-2,4.74-1.32,3.5-2.66,7-3.84,10.55s-2.39,7.37-3.49,11.09c-1,3.44-1.88,6.92-2.76,10.41-.38,1.52-.65,3.08-1,4.62s-.65,3.06-.9,4.6c-.66,4-1.27,8-1.79,12-.48,3.79-.87,7.58-1.24,11.38C5.93,212.23,5.52,219.2,5,226.16c-.48,6.73-1,13.45-1.54,20.18-.3,3.77-.59,7.55-.83,11.33s-.37,7.58-.51,11.38c-.12,3.25,0,6.52-.05,9.77s.12,6.48.24,9.7q.44,11.43,1.1,22.84c.82,13.77,1.79,27.55,2.11,41.35.66,28.36.38,56.74,1.21,85.1.43,14.43.88,28.88,2,43.29,1.11,14.59,2.52,29.15,3.78,43.73,1.21,14.07,2.25,28.14,3.8,42.18.84,7.59,1.95,15.17,3.06,22.73,1,6.91,2.22,13.79,3.5,20.66s2.61,13.75,4.29,20.55c.89,3.63,1.91,7.22,3.14,10.75a102.1,102.1,0,0,0,5.63,12.86c.95,1.83,2.05,3.59,3.07,5.38,1.59,2.79,3.42,5.48,5.25,8.12,2.14,3.09,4.36,6.11,6.61,9.12,2.45,3.27,5,6.45,7.64,9.6,1,1.16,1.9,2.3,2.89,3.42,1.19,1.35,2.35,2.75,3.63,4q2.23,2.22,4.48,4.42c1.16,1.13,2.46,2.13,3.7,3.17,1.51,1.27,3,2.58,4.61,3.73q2.85,2,5.72,4.05c5.81,4.09,12,7.59,18.2,11.11,3.27,1.88,6.67,3.55,10,5.3s6.54,3.07,9.8,4.57c3.08,1.42,6.23,2.66,9.38,3.92,3,1.19,5.9,2.39,8.88,3.53,9.13,3.5,18.27,7,27.42,10.44,0,0,0,0,0,0-11.8-7.08-23.41-14.49-35-21.94-10.76-6.94-20.92-14.72-31.12-22.46q-2.94-2.34-5.89-4.65c-1.93-1.51-3.79-3.11-5.67-4.67a133.37,133.37,0,0,1-10.35-9.58c-3.59-3.68-7-7.47-10.39-11.34-2.91-3.35-5.68-6.82-8.42-10.31-5.53-7.62-10.85-15.34-14.71-24-1.13-2.84-2.07-5.72-3-8.63-.75-2.28-1.25-4.64-1.86-7s-1.06-4.78-1.59-7.17-1-4.93-1.51-7.39c-1.87-9.2-3.36-18.45-4.68-27.74q-1.33-10.47-2.39-21c-.69-7-1.08-14.11-1.52-21.16s-.89-14-1.39-21c-.46-6.56-1.06-13.12-1.55-19.68-1.09-14.66-1.92-29.31-2.33-44-.39-13.94-.54-27.89-.79-41.84-.26-14.26-.37-28.52-.75-42.77-.19-7.23-.42-14.45-.82-21.68-.42-7.38-1-14.75-1.55-22.12-1.12-13.89-2.41-27.77-3-41.7-.17-3.78-.3-7.54-.37-11.32s0-7.44,0-11.16c.08-6.64.54-13.27.91-19.9.66-11.7,1-23.4,1.51-35.1.23-5.44.73-10.86,1.16-16.29.4-5.15,1.1-10.28,1.76-15.4q.63-3.74,1.25-7.48c.42-2.56,1-5.11,1.54-7.65.95-4.7,2.12-9.37,3.34-14A215.58,215.58,0,0,1,37.67,118l-.24.57c3.22-7.57,6.8-15,11.78-21.63a26.12,26.12,0,0,1,3-3.13,15.51,15.51,0,0,1,2.3-1.35,15.81,15.81,0,0,1,2.62-.89s0,0,0,0a15.16,15.16,0,0,0-4.53,1.09Z"/><path class="cls-1" d="M309,223.68a124.18,124.18,0,0,0-20.12,8.72q-7.06,3.63-14,7.46c-2.43,1.35-4.84,2.71-7.23,4.14l-3.38,2c-1.24.74-2.41,1.63-3.61,2.44a124.91,124.91,0,0,0-23.51,21.32c-1.66,1.89-3.33,3.77-4.9,5.74-1.79,2.24-3.63,4.45-5.34,6.75s-3.49,4.58-5.15,6.93l-4.91,7c-1.55,2.21-3,4.52-4.45,6.78-.59.91-1.1,1.88-1.65,2.81l-2.32,4c-.56,1-1,2-1.53,3l-1.95,3.77c-.61,1.19-1.12,2.44-1.68,3.65s-1.23,2.64-1.79,4c-1,2.43-2.05,4.86-3,7.32-1.06,2.79-2.09,5.57-3.08,8.39-1.64,4.66-3.2,9.39-4.5,14.16-1.46,5.33-2.87,10.65-4,16.06-.57,2.75-1,5.51-1.5,8.29s-.75,5.71-1.1,8.57c-.15,1.23-.17,2.5-.25,3.75s-.19,2.25-.18,3.39l0,5.19c0,1,.11,2.07.2,3.11q.21,2.4.42,4.81c.14,1.59.45,3.2.69,4.78l.6,3.94c.22,1.48.63,2.95.93,4.41,2.13,10,5.76,19.69,8.78,29.48,1.63,5.27,3.21,10.54,4.9,15.79.88,2.73,1.83,5.42,2.82,8.12a98.13,98.13,0,0,0,7.7,16.33c.67,1.13,1.43,2.21,2.14,3.31s1.27,2.06,2,3c1.74,2.36,3.41,4.79,5.26,7.07s3.44,4.3,5.24,6.38,3.86,4.39,5.85,6.54c1.76,1.91,3.61,3.74,5.44,5.59.84.86,1.79,1.63,2.69,2.43s1.59,1.48,2.45,2.16c2.4,1.88,4.77,3.83,7.29,5.55l4,2.76c1,.68,2,1.27,3.06,1.89,4.64,2.86,9.38,5.51,14.14,8.15A152.51,152.51,0,0,0,285.09,552c2.51,1.06,5,2.16,7.56,3.07s5,1.82,7.55,2.59c5.09,1.54,10.2,3,15.37,4.25,5,1.22,10.05,2.41,15.13,3.35,3.22.59,6.45,1.24,9.7,1.66s6.29.8,9.43,1.19a122.46,122.46,0,0,0,18,.64A169.19,169.19,0,0,0,391,566.41c7.78-1.28,15.42-3.37,23-5.4,3.74-1,7.5-2,11.17-3.2a0,0,0,1,0,0,0c-2.71.56-5.45.93-8.2,1.31-4.74.58-9.48,1.08-14.23,1.55a154.77,154.77,0,0,1-17.18.61,169.67,169.67,0,0,1-19.38-1.42,148.79,148.79,0,0,1-15.82-3c-2.8-.71-5.65-1.32-8.43-2.1q-8.26-2.34-16.53-4.62-7.56-2.1-15.16-4.09c-5.14-1.34-10.18-3-15.22-4.64-2.39-.78-4.74-1.77-7.09-2.67l-4.65-2c-1.75-.76-3.46-1.62-5.2-2.43-3.46-1.62-6.86-3.38-10.24-5.16-3.08-1.62-6.17-3.26-9.11-5.11l-3.45-2.18c-.54-.34-1.11-.66-1.63-1l-4.43-3.22c-1.61-1.34-3.28-2.64-4.79-4.09-2.07-2-4.11-3.95-6.09-6s-3.82-4.18-5.7-6.31c-1.42-1.61-2.73-3.32-4.06-5-1.5-2.08-3.08-4.12-4.43-6.3l-3.12-5a67.22,67.22,0,0,1-4.44-8.69c-4.23-10.37-6.61-21.35-9.84-32-1.62-5.37-3.32-10.71-4.94-16.07-.8-2.66-1.54-5.33-2.28-8-.67-2.43-1.18-4.91-1.74-7.37-.23-1-.36-2-.54-3l-.6-3.41q-.17-1.46-.34-2.92c-.13-1.14-.32-2.3-.37-3.45l-.25-5.46c-.05-1.08,0-2.16,0-3.24,0-1.4,0-2.82.12-4.21q.19-2.4.38-4.8c.16-2.06.44-4.1.71-6.15.8-4.59,1.61-9.18,2.69-13.73,1.16-4.88,2.36-9.75,3.69-14.59s2.86-9.86,4.44-14.74c1.36-4.2,3-8.28,4.71-12.36l2.71-5.85c.83-1.8,1.82-3.52,2.75-5.27s1.79-3.27,2.76-4.89,2-3.47,3.13-5.15l4.11-6.29c1.14-1.75,2.38-3.44,3.57-5.15,2.24-3.23,4.63-6.35,7-9.49l5.7-6.83c.61-.73,1.29-1.4,1.93-2.09l3.76-4c1.84-2,3.88-3.78,5.82-5.66.73-.71,1.54-1.35,2.32-2l3.5-3,5.11-3.72c1.71-1.25,3.54-2.33,5.31-3.48,3.16-2,6.41-4,9.65-5.89q6-3.55,12-7.05c1.55-.9,3.14-1.72,4.72-2.57,3-1.64,6.07-3.18,9.23-4.54a79.72,79.72,0,0,1,19.2-5.36,72.66,72.66,0,0,1,11.05-.48,115.44,115.44,0,0,1,11.59,1.13h0l2.59.38a0,0,0,1,0,0,0c-3.45-.79-6.9-1.54-10.39-2.12a71.71,71.71,0,0,0-11.35-.95h-.33A71.74,71.74,0,0,0,309,223.68ZM416.9,559.09h0ZM349.36,222.94h0Z"/><path class="cls-1" d="M579,109.23a19.12,19.12,0,0,0-8.71,5.2,14.12,14.12,0,0,0-2.71,4,23,23,0,0,0-1.18,3.88s0,0,0,0c.31-.82.64-1.63,1-2.45h0a13.86,13.86,0,0,1,1.38-2.47,19.2,19.2,0,0,1,2.74-2.79,23.16,23.16,0,0,1,4.11-2.39,20.27,20.27,0,0,1,4.51-1.19,31.12,31.12,0,0,1,6.66.21,85.48,85.48,0,0,1,12.73,2.95c2.22.67,4.39,1.43,6.57,2.21,1.85.66,3.64,1.46,5.45,2.22l-.77-.32c1.3.64,2.64,1.21,3.9,1.92a65.13,65.13,0,0,1,6.52,4.07,66.66,66.66,0,0,1,10.18,10.33,35.94,35.94,0,0,1,3.58,6c1.65,4.39,2.47,9.06,3.68,13.59a133.41,133.41,0,0,1,3.27,13.22,38.19,38.19,0,0,1-.07,8.37,62.2,62.2,0,0,1-2.57,10.16c-.39,1.17-.75,2.35-1.2,3.5s-1,2.56-1.49,3.84-1.19,2.6-1.77,3.91a48.67,48.67,0,0,1-5.32,8.83,110.33,110.33,0,0,1-10.06,11.19s0,0,0,0c2.2-1.5,4.33-3.1,6.46-4.7A59.56,59.56,0,0,0,636,203.24a76.5,76.5,0,0,0,9.48-15.5c.5-1,.92-2.06,1.36-3.11a67.24,67.24,0,0,0,2.6-7.11,43.81,43.81,0,0,0,1.66-10.71,49.07,49.07,0,0,0-.36-6.56c-.28-2.91-.79-5.82-1.27-8.7q-.62-3.71-1.33-7.41a42.87,42.87,0,0,0-1.75-6.57,32.4,32.4,0,0,0-5.87-9.71A42.44,42.44,0,0,0,637,124.3a34.22,34.22,0,0,0-3.55-2.91,53,53,0,0,0-9-5.29,72.06,72.06,0,0,0-9.95-3.39,133.82,133.82,0,0,0-15.08-3.13c-1-.16-2-.31-3-.43-1.35-.16-2.71-.39-4.07-.47-2-.11-4.06-.24-6.08-.24a29.16,29.16,0,0,0-7.21.79Zm-11.6,10.63h0Z"/><path class="cls-1" d="M598.81,100.65a43,43,0,0,0-6.13.69A36,36,0,0,0,586.4,103,62.2,62.2,0,0,0,575,108.88a102.78,102.78,0,0,0-10.64,7.53,86.21,86.21,0,0,0-9.43,9.27c-2.3,2.54-4.43,5.25-6.6,7.9l-3.71,4.52c-2,2.41-3.94,4.85-5.79,7.36,0,0,0,0,0,0,2.39-2.44,4.91-4.74,7.45-7l4.47-4c1.65-1.48,3.27-3,4.94-4.44s3.66-3.06,5.54-4.52a102,102,0,0,1,21.42-12c1.74-.71,3.5-1.36,5.3-1.9a40.71,40.71,0,0,1,5.51-1.19,36.66,36.66,0,0,1,7.32-.13,44.55,44.55,0,0,1,9.25,2.67,65.29,65.29,0,0,1,12.69,7.23,46.91,46.91,0,0,1,7,7,74.57,74.57,0,0,1,7.32,13.32,71.87,71.87,0,0,1,2.64,7c.46,1.53.84,3.06,1.21,4.61.28,1.18.44,2.4.62,3.6s.3,2.5.31,3.73.1,2.78,0,4.15-.09,2.9-.25,4.33l-.44,4q-.33,1.95-.67,3.9a43.85,43.85,0,0,1-2.8,9.25,84.78,84.78,0,0,1-9.21,15.06c-.91,1.14-1.8,2.33-2.78,3.41L623.45,206c-.6.67-1.28,1.28-1.93,1.91a102.78,102.78,0,0,1-8.2,7l0,0-7.69,5.89s0,0,0,0c4.57-2.79,9.26-5.48,13.59-8.63.87-.63,1.78-1.23,2.6-1.92,1-.84,2.08-1.62,3-2.53l2.86-2.74c.89-.86,1.7-1.84,2.54-2.75,1.46-1.6,2.8-3.33,4.1-5.06,1.71-2.28,3.34-4.61,4.84-7a50,50,0,0,0,5.86-14.89c.52-2.24,1-4.49,1.33-6.77q.28-2,.54-4c.18-1.32.27-2.65.39-4a58,58,0,0,0,.16-6.64,73.41,73.41,0,0,0-.68-7.85,52.52,52.52,0,0,0-1.53-7.14,67.62,67.62,0,0,0-2.23-6.59c-.8-2-1.65-4-2.65-6a40.65,40.65,0,0,0-5.87-8.34,45.81,45.81,0,0,0-7-6.25,60,60,0,0,0-8.81-5.46,62.55,62.55,0,0,0-9.14-3.81,34.33,34.33,0,0,0-10.32-1.75Zm38.79,84.59-.06.15.06-.15Z"/><path class="cls-1" d="M271.06,12.33q-4.2.12-8.38.32c-6.34.3-12.67.68-19,1.06-3.43.21-6.86.52-10.28.77-3,.22-6,.53-8.95.81-2.74.25-5.46.55-8.2.88-2.94.34-5.9.6-8.82,1.08L196,19.13c-.71.11-1.39.27-2.09.43l-6.52,1.51-4.49,1c-1,.24-2,.61-3,.91l-10.12,3.07c-1,.3-2,.74-3,1.11l-6.51,2.45c-2.23.84-4.46,1.66-6.64,2.63-6,2.66-12,5.33-17.95,8.14l-5.87,2.78c-1,.46-2,.9-2.91,1.38l-9.27,4.66L114,51.09c-.46.23-.93.45-1.38.7l-7.16,4.06-6.25,3.57c-.49.28-1,.6-1.43.9l-3.87,2.45L85.69,68,84,69.11c-.6.38-1.15.86-1.71,1.28l-8.32,6.25-3,2.29c-1.3,1-2.5,2.1-3.72,3.18,0,0,0,0,0,0l2.54-2,0,0c1-.72,2-1.38,3-2.05l5.59-3.77,4.83-3.27c.58-.39,1.15-.81,1.76-1.16l9.9-5.73c2-1.19,4.06-2.44,6.16-3.54L111.59,55c.79-.41,1.56-.87,2.36-1.25l3.57-1.67L128,47.16c2.54-1.2,5.13-2.29,7.69-3.43l6.72-3q7.2-3,14.39-6.07l-.41.18c4.59-1.66,9.18-3.3,13.76-5,1.46-.53,3-.91,4.47-1.34L183.35,26c1.66-.48,3.39-.76,5.08-1.12l7.8-1.66c.48-.1,1-.15,1.47-.22l4.29-.61,6.8-1,10.4-1c2.85-.27,5.71-.42,8.57-.6,5.66-.36,11.32-.66,17-.85q10.35-.35,20.71-.58c5.69-.12,11.38-.1,17.07,0,2.84.07,5.68.08,8.52.27l10.93.71c1.1.07,2.2.21,3.29.32l6.8.68c2.72.27,5.43.57,8.15.87s5.29.6,7.95.84l11.72,1c3,.27,5.93.41,8.89.62,2.54.17,5.09.35,7.63.48l10.92.55c3.3.17,6.62.24,9.93.36,6.11.21,12.21.36,18.32.54,12.27.34,24.55.46,36.83.59q10,.11,20.07.25c6.06.09,12.13.3,18.19.46,3,.08,5.92.26,8.87.39,2.48.11,5,.21,7.43.35,6.53.38,13.06.75,19.58,1.21l10,.71c3.36.23,6.71.57,10.06.84,6.48.51,12.95,1.12,19.42,1.67,6,.51,12,1.11,17.95,1.63,2.85.25,5.69.59,8.54.88,2.61.26,5.22.47,7.82.78,4.82.57,9.64,1.13,14.47,1.65l-.38-.05q6.73.91,13.47,1.78l12.53,1.86c4.7.7,9.41,1.38,14.09,2.2a0,0,0,0,0,0,0c-5.86-1.83-11.78-3.45-17.7-5.05C613.9,37,611,36.2,608,35.49q-5.67-1.38-11.35-2.73c-2.43-.58-4.89-1-7.34-1.55-3-.6-5.93-1.27-8.92-1.78-5.81-1-11.62-2-17.45-2.86-6.57-.93-13.14-1.85-19.74-2.62q-5.44-.63-10.88-1.23c-3-.33-6-.54-9.07-.8-12.57-1.06-25.17-1.65-37.77-2.25-3.09-.14-6.2-.22-9.29-.33-2.4-.09-4.8-.18-7.2-.23-6.55-.12-13.11-.25-19.66-.29-12.93-.08-25.87-.12-38.8-.22-12.21-.09-24.42-.37-36.62-.75-6.54-.21-13.07-.5-19.61-.81-3-.14-5.94-.37-8.9-.56-2.52-.16-5-.32-7.57-.53L326.64,15c-3.2-.27-6.39-.63-9.59-.95q-4-.39-7.95-.71c-2.84-.24-5.67-.54-8.51-.67l-10.93-.52c-.73,0-1.47,0-2.2,0h-1.1l-6.81,0h-.27c-2.74,0-5.48.11-8.21.2Z"/><path class="cls-1" d="M523.51,10.37q-22.63.16-45.26.44c-14.35.19-28.71.38-43.06.92-14.87.56-29.74,1.16-44.59,2.05S361,15.61,346.19,16.57c-7.44.48-14.87.94-22.31,1.47s-15,1-22.54,1.65L286.26,21c-2.55.22-5.11.41-7.65.71l-14.52,1.69c-2.79.32-5.6.59-8.38,1l-13.6,2.06c-2.79.42-5.59.77-8.36,1.29l-13.83,2.63c-2.66.51-5.34,1-8,1.58-7.32,1.72-14.71,3.27-21.95,5.34L175.8,41.4c-2.8.8-5.54,1.83-8.3,2.78l-7.28,2.5c-1.34.46-2.71.87-4,1.42l-11.13,4.75-4.89,2.1c-1,.42-1.9,1-2.84,1.44q-6.12,3.15-12.22,6.32c-.78.4-1.52.91-2.27,1.37l-6.8,4.21c-2.58,1.6-5.18,3.15-7.67,4.9Q98.06,80.47,87.76,87.81,73.91,97.7,60.15,107.7s0,0,0,0q19.24-12.34,38.4-24.82l11.23-7.33c2.54-1.66,5.19-3.12,7.82-4.64l6.5-3.75c.9-.52,1.79-1.1,2.72-1.55q6.21-3,12.39-6l2.54-1.24,10.83-4.43,4.92-2c.92-.38,1.88-.65,2.82-1l14-4.73c2.71-.92,5.49-1.62,8.24-2.39l12-3.37c1-.28,2-.46,3-.69l7.92-1.82c3.1-.71,6.2-1.55,9.33-2.12l13.45-2.46L235.48,32c1.61-.29,3.24-.47,4.85-.71l16.81-2.43q11.31-1.22,22.61-2.47c3.45-.38,6.93-.57,10.39-.85l12.84-1c7.71-.63,15.45-1,23.16-1.54S341.3,22,348.88,21.6Q371.3,20.26,393.74,19c7.39-.41,14.79-.69,22.18-1q10-.45,20-.67,23-.5,46.07-.61c6.64,0,13.29,0,19.93,0,7.52,0,15.06,0,22.59.24s14.85.48,22.27,1c3.82.29,7.63.63,11.45,1,3.07.32,6.14.73,9.2,1.14,4.63.75,9.22,1.56,13.83,2.42,4.8.89,9.56,2,14.33,3s9.17,2.34,13.71,3.66c2.19.64,4.34,1.49,6.49,2.25,1.77.61,3.49,1.39,5.22,2.14h0l6,2.86c1,.5,2,1.11,3,1.66l3,1.66c.82.45,1.61,1,2.4,1.48l3.44,2.12c1.89,1.17,3.68,2.55,5.51,3.82s3.56,2.73,5.22,4.23l3.79,3.43a58.49,58.49,0,0,1,6.51,7.18c4.59,6.18,8.21,12.95,11.93,19.68,2.9,5.26,5.93,10.43,9.25,15.44s6.65,9.71,9.68,14.76c1.45,2.43,2.85,4.91,4.05,7.47s2.25,4.91,3.31,7.4q3.77,9.84,7,19.88c2.28,7.16,4.44,14.36,6.63,21.54,2.1,6.88,4.3,13.74,6.26,20.67,2,7.08,3.89,14.2,5.39,21.41.95,4.52,1.87,9,2.73,13.58.75,3.93,1.35,7.88,2,11.83l.48,4c.2,1.66.47,3.34.59,5l.84,11.9c.1,1.47.07,3,.11,4.45q.09,4.08.19,8.16c.07,3.17,0,6.34-.06,9.51-.21,14.36-.87,28.71-1.63,43-.8,15.06-1.67,30.12-3.08,45.14-.73,7.82-1.6,15.62-2.48,23.42-.74,6.53-1.51,13.06-2.17,19.6-.76,7.46-1.54,14.93-2.17,22.41-.64,7.68-1.29,15.34-1.8,23-1,15.56-2,31.13-3,46.69-.48,7.44-1,14.88-1.39,22.33-.37,6.59-.65,13.18-1,19.77-.77,15.29-1.48,30.57-2.5,45.85-.78,11.72-2.21,23.37-3.75,35,0,0,0,0,0,0-.2,1.4-.39,2.8-.61,4.2,0,0,0,0,0,0,1.64-7.51,3-15.07,4.49-22.61s2.42-14.94,3.45-22.43c1.91-13.8,3.27-27.67,4.71-41.52,1.6-15.43,3.1-30.87,4.74-46.3s3.35-30.77,5.09-46.14C728,442.46,729,434.72,730,427q2.93-21.46,6-42.89c2.21-15.51,3.95-31.07,5.6-46.66,1.54-14.52,3-29.05,4.33-43.6.27-3,.55-5.93.73-8.9q.42-6.67.83-13.34c.07-1.12,0-2.27.06-3.39q.06-4.14.13-8.29c0-.46,0-.92,0-1.38-.57-11.26-1.93-22.39-3.09-33.59q-.2-1.91-.37-3.83c-.43-2.4-.91-4.8-1.38-7.2-.59-3-1.28-6.07-2-9.07-1-3.84-1.93-7.66-3-11.47s-2.22-7.38-3.38-11.07c-1-3.09-2.1-6.16-3.22-9.21q-2.13-5.78-4.29-11.55-3.93-10.51-8-21c-1.36-3.46-2.8-6.9-4.31-10.3-1.43-3.22-2.85-6.44-4.47-9.57a159.44,159.44,0,0,0-11.09-18.61c-2.06-2.92-4.18-5.8-6.23-8.72q-3.26-4.65-6.39-9.37c-2.07-3.14-3.93-6.43-5.85-9.66-1.81-3.06-3.64-6.11-5.52-9.12A80.27,80.27,0,0,0,660.12,47c-1.7-1.48-3.35-3-5.14-4.37l-5.09-3.87c-1.41-1.08-2.95-2-4.42-3S642.54,33.88,641,33c-1.3-.78-2.59-1.58-3.93-2.29-1.73-.92-3.45-1.95-5.23-2.77l-5.64-2.61c-2-.9-4-1.63-6-2.43-1.4-.55-2.8-1-4.23-1.5-1.64-.54-3.27-1.11-4.94-1.56l-5.79-1.56c-2-.54-4.11-.91-6.16-1.37-3.09-.68-6.22-1.25-9.35-1.76-7.38-1.2-14.79-2.34-22.25-3-4-.35-8-.68-11.95-.94s-7.69-.4-11.54-.56c-5.3-.22-10.63-.3-15.94-.3l-4.6,0Zm206.43,417-.11.83.11-.83Z"/><path class="cls-1" d="M739,311q.7,20.36,2.18,40.68c.79,10.79,1.68,21.57,2.94,32.32q.46,3.87.95,7.73c.3-3.68.5-7.36.54-11.05.1-10.55-.41-21.21.36-31.75.18-2.46.41-4.91.67-7.36Q743,326.27,739.06,311h0Z"/><path class="cls-1" d="M723.51,579.47c-1.31,3.94-2.86,7.79-4.4,11.64q-5.48,12.74-11.56,25.2c-1.07,2.18-2.22,4.32-3.35,6.47s-2.43,4.25-3.67,6.37a119.32,119.32,0,0,1-7.2,10.52c-1.65,2-3.3,4.06-5,6-2.2,2.5-4.45,4.95-6.72,7.39a154.31,154.31,0,0,1-16.23,15.53,162.71,162.71,0,0,1-17.2,11c-2.31,1.32-4.61,2.66-7,3.9-2.76,1.45-5.48,3-8.29,4.36-5,2.36-9.92,4.75-15,7q-8.63,3.79-17.3,7.48l-.18.08c-4.82,1.92-9.61,3.93-14.5,5.63l-9.54,3.32c-2.77,1-5.63,1.71-8.44,2.57-10.28,3.12-20.77,5.65-31.3,7.76q-9.18,1.84-18.38,3.52c-5.81,1.05-11.64,2-17.47,2.93-11.37,1.86-22.81,3.33-34.23,4.9l-1.88.26q-34.93,4.49-69.86,9C384.9,743.59,375,745,365,746.42c-10.26,1.34-20.51,2.73-30.75,4.25q-8.54.94-17.08,2-5.78.69-11.55,1.4c-1.5.18-3,.41-4.49.55q-17.51,1.71-35,3.54c-9,.92-18,2-27,2.64,0,0,0,0,0,0,11.51.25,23,.18,34.56.17H281c8.21,0,16.43,0,24.64-.25,11.63-.41,23.28-.66,34.87-1.7,12-1.07,24-2.36,35.92-3.7,22.73-2.55,45.48-4.81,68.21-7.25q18.57-2,37.12-4.17c11.63-1.38,23.21-3,34.78-4.77,4.86-.72,9.71-1.52,14.55-2.4,5.68-1,11.36-2,17-3.21,2.82-.58,5.67-1.09,8.48-1.76l9.86-2.34c2.29-.54,4.56-1.16,6.84-1.77,2.52-.67,5.06-1.27,7.55-2l10.31-3.15c2.14-.65,4.24-1.42,6.35-2.16,5.87-2.07,11.69-4.25,17.51-6.46,2.2-.84,4.39-1.71,6.57-2.58,3-1.18,6-2.32,8.93-3.61l9.74-4.25c2.31-1,4.56-2.15,6.83-3.26,13.89-6.77,27.8-14.21,39-25.05a224.76,224.76,0,0,0,24.23-27c.47-.63,1-1.25,1.44-1.88,2.16-6.13,4.2-12.3,6-18.54,2.74-9.4,4.21-19.19,5.62-28.88,1.16-9.22,2.15-18.45,2.82-27.73q-1.32,4.2-2.71,8.39Z"/><path class="cls-1" d="M358.13,22.34l-16.22.93c-5.63.33-11.25.59-16.89.84-4.5.2-9,.27-13.51.28q-8.74,0-17.46,0c-9.94-.06-19.88-.2-29.82-.3-5.7-.06-11.39,0-17.1,0-2.07,0-4.14.09-6.21.16-2.5.08-5,.11-7.52.25-5.33.29-10.65.57-16,1-2.22.18-4.44.32-6.65.57l-9.67,1.07c-2.44.27-4.87.68-7.29,1-2.2.32-4.42.61-6.61,1l-9,1.67c-.91.17-1.81.42-2.71.63l-5.41,1.25c-4.54,1.06-9,2.36-13.52,3.66-4.92,1.43-9.87,2.84-14.73,4.47-9.88,3.33-19.73,6.78-29.48,10.47-2.72,1-5.37,2.15-8,3.31-1,.44-2.06.83-3,1.33l-4.12,2.11c-.87.45-1.79.86-2.63,1.36l-4.19,2.5c-2.21,1.32-4.31,2.77-6.45,4.2-1.85,1.24-3.66,2.59-5.43,3.93-1.93,1.47-3.87,2.94-5.79,4.42q-6.46,5-13,9.84C54.9,87.9,50,91.38,45.39,95.2c-6.8,5.63-12.18,12.7-17.14,19.95-6,8.69-11.66,17.7-15.69,27.47-1,2.38-2,4.73-2.84,7.16S8,154.72,7.29,157.25s-1.39,4.91-1.87,7.43c-.6,3.14-1.3,6.27-1.65,9.45s-.7,6.44-1.06,9.66c-.23,2.12-.23,4.27-.31,6.4q-.1,2.6-.2,5.19c0,.75-.1,1.52-.08,2.27q.11,4.36.23,8.72c.05,2.09,0,4.2.18,6.28l.68,8.76q.34,4.38.73,8.76c.2,2.16.58,4.32.89,6.46q1.28,8.87,2.71,17.71c.34,2.08.89,4.14,1.33,6.2q1.15,5.33,2.33,10.64c1,4.47,2.34,8.86,3.59,13.26s2.48,8.84,3.85,13.21q3.32,10.55,6.66,21.09c2.23,7,4.4,14,6.7,21,0,0,0,0,0,0-1.55-8.2-2.78-16.46-4.08-24.69q-1.72-10.89-3.44-21.77-1.36-10.39-2.78-20.77c-.47-5.81-.94-11.61-1.45-17.42-.4-4.59-.58-9.2-.86-13.8s-.68-9.25-.84-13.88c-.12-3.63-.29-7.26-.44-10.89-.07-1.66-.18-3.32-.17-5q0-5.82,0-11.65c0-2.48.14-4.93.28-7.41.15-2.81.19-5.65.48-8.45l1-9.23.61-3.75c.22-1.33.37-2.7.67-4,.7-3.13,1.34-6.27,2.21-9.36l1.51-5.31c.45-1.6,1.08-3.17,1.61-4.74.84-2.46,1.82-4.86,2.8-7.26,1-2.18,2-4.38,3.11-6.53,1.43-2.78,2.88-5.53,4.39-8.27a128,128,0,0,1,9.75-15.33,69.65,69.65,0,0,1,9.18-9.6L59.84,97c2.7-2.3,5.51-4.49,8.27-6.73C73.39,86,78.62,81.59,83.9,77.31c1.89-1.45,3.77-2.9,5.74-4.25,1.18-.81,2.34-1.71,3.58-2.44l4.29-2.55c2.55-1.51,5.21-2.78,7.86-4.12,1-.51,2-.93,3.08-1.37l3.4-1.47c4.51-1.73,9-3.41,13.54-5.17,5-1.95,9.91-3.93,14.91-5.79,9.91-3.69,20-6.88,30.11-10,3.18-1,6.43-1.74,9.64-2.61,1.88-.51,3.83-.84,5.74-1.26,1.52-.33,3-.72,4.57-1l6.09-1.08c1.65-.29,3.3-.64,5-.87l10.74-1.54c4.85-.58,9.7-1.16,14.57-1.6,2.42-.22,4.84-.49,7.26-.65l9.79-.64c2.07-.14,4.16-.21,6.23-.3,2.52-.1,5.05-.25,7.57-.3,5.29-.11,10.57-.23,15.86-.31,20.61-.32,41.26-.59,61.82-2.29q13.8-1.14,27.6-2.34c4.36-.38,8.73-.63,13.09-1q9.58-.7,19.16-1.36a0,0,0,0,0,0,0c-12.32.29-24.66.61-37,1.3ZM21.55,271.21l.1.74-.1-.74Z"/><path class="cls-1" d="M346.42,13.61c-3.74,0-7.48,0-11.22.11l-13.61.47c-1.46.05-2.92.18-4.37.26l-8,.48c-3.79.23-7.57.66-11.35,1s-7.43.84-11.14,1.29-7.55,1-11.32,1.5c-8.93,1.24-17.86,2.56-26.79,3.81-9.24,1.11-18.48,2.13-27.72,3.19-9.61,1.1-19.18,2.45-28.76,3.8l.79-.11c-7.48,1-15,2-22.48,2.8-8.13.85-16.27,1.57-24.41,2.32-3.6.34-7.21.75-10.79,1.29-1.87.28-3.77.49-5.62.85L122.95,38c-1.91.38-3.79.89-5.68,1.34s-3.77,1-5.64,1.46c-3.43.91-6.86,1.85-10.23,2.94-1.75.56-3.54,1.06-5.26,1.71-2.07.78-4.2,1.47-6.23,2.38l-5.16,2.32c-.78.35-1.53.82-2.29,1.22l-2.89,1.54c-.73.38-1.42.86-2.12,1.29l-3,1.82c-1.72,1-3.35,2.26-5,3.39-1.37.93-2.68,1.93-4,2.91-1.55,1.15-3.1,2.29-4.62,3.48L55.59,69.9c-1.66,1.3-3.24,2.71-4.86,4.07-1.15,1-2.25,2-3.35,3-1.36,1.24-2.76,2.44-4,3.76l-4.7,4.83c-1.53,1.57-2.91,3.31-4.28,5-1.77,2.18-3.41,4.46-5,6.77-1.34,1.93-2.53,3.95-3.75,6-.87,1.43-1.76,2.84-2.57,4.3-2.08,3.77-4.13,7.54-6.12,11.36q-1.07,2.06-2.11,4.14c-.87,1.75-1.79,3.49-2.6,5.27L9.42,134.5c-1,2.15-1.71,4.42-2.54,6.63a84.4,84.4,0,0,0-2.78,9.18A96,96,0,0,0,2.16,161.8l-.76,6.25c-.08.64-.1,1.3-.15,1.95q-.18,2.27-.35,4.54c-.3,3.91-.43,7.84-.61,11.76-.07,1.49-.08,3-.11,4.46,0,2-.11,4.08-.12,6.11,0,3.66-.07,7.32,0,11,.07,7.85.15,15.7.63,23.54.24,3.93.47,7.84.83,11.76s.72,7.75,1.19,11.62.93,8,1.52,12c.56,3.82,1.05,7.66,1.71,11.46s1.3,7.73,2,11.57,1.45,7.6,2.13,11.41c.63,3.5,1.34,7,1.85,10.52q.81,5.64,1.62,11.29c.83,7.29,1.67,14.58,2.23,21.9.6,8,1.16,16,1.52,24,.68,15.1.65,30.21.74,45.32,0,3.77.05,7.53.15,11.29,0,1.69,0,3.39.14,5.08q.21,3.48.43,7c.22,3.61.62,7.2,1,10.8.14,1.48.35,2.95.53,4.43.26,2.16.5,4.33.8,6.49,1,7.16,2.12,14.3,3.23,21.45q1.62,10.46,3,20.95,1.51,11.64,3,23.29c.93,7.55,1.63,15.12,2.3,22.69.64,7.19,1.14,14.39,1.82,21.58.75,8,1.55,16.07,2.57,24.09.49,3.83,1,7.67,1.71,11.46s1.46,7.56,2.47,11.27l1.64,6c.56,2.06,1.24,4.1,1.86,6.14.54,1.78,1.21,3.54,1.82,5.3s1.44,3.69,2.18,5.52a119.29,119.29,0,0,0,11.26,20.59c2.06,3.16,4.18,6.29,6.4,9.34,1.22,1.69,2.42,3.39,3.75,5l2.37,2.88c.52.63,1,1.33,1.59,1.92l4.51,4.65c1.31,1.36,2.8,2.55,4.21,3.8,1.16,1,2.33,2,3.54,3,1.81,1.44,3.6,2.91,5.45,4.29q5.08,3.79,10.2,7.54c1.21.88,2.44,1.74,3.68,2.59,1.57,1.09,3.1,2.25,4.73,3.25,3.18,2,6.31,4.06,9.63,5.8l6.71,3.52c3.18,1.66,6.46,3.11,9.77,4.5a131,131,0,0,0,15.2,5.38,128.54,128.54,0,0,0,17.35,3.46c5.22.71,10.46,1.15,15.71,1.49,1.45.1,2.92.09,4.37.13,4.95.15,9.89.29,14.84.38,3.07.06,6.15-.06,9.22-.11q12.34-.21,24.66-.7,23.59-.93,47.18-1.7c8.36-.27,16.71-.57,25.07-.77,0,0,0,0,0,0-15.26-.93-30.52-2-45.78-2.9q-24.52-1.51-49-2.77l-9.87-.47c-1.89-.08-3.77-.25-5.65-.38-3.91-.27-7.82-.51-11.74-.75-4.18-.26-8.34-.69-12.5-1.23a151.68,151.68,0,0,1-15.54-3.05,116.54,116.54,0,0,1-16-5.43c-3.53-1.52-7-3.14-10.4-5l-6.94-3.84c-3.44-1.91-6.69-4.12-10-6.25-1.61-1-3.12-2.22-4.68-3.34q-2.09-1.49-4.14-3-4.38-3.3-8.74-6.63l-5.45-4.4c-.79-.64-1.53-1.36-2.29-2l-3.18-2.84c-.75-.67-1.42-1.44-2.11-2.16l-2.93-3c-.73-.75-1.37-1.62-2-2.41l-2.17-2.59c-4-5.34-7.91-10.73-11.58-16.3-.86-1.3-1.73-2.6-2.53-3.94-.93-1.54-1.91-3.06-2.74-4.65L60.51,637c-.31-.6-.66-1.2-.94-1.82l-2-4.43-1.93-5.13c-.66-1.73-1.18-3.52-1.76-5.29-1.09-3.3-2.06-6.65-2.95-10s-1.8-7-2.41-10.49c-.32-1.82-.69-3.64-.95-5.47l-.79-5.52c-.91-7.46-1.76-14.92-2.47-22.41-.75-8-1.43-15.93-2.19-23.88-1.43-15.11-3.57-30.15-5.65-45.18-1.87-13.47-4.14-26.87-6.15-40.31-.41-3.2-.86-6.4-1.18-9.61q-.37-3.67-.74-7.35c-.17-1.72-.25-3.45-.37-5.18s-.27-3.25-.32-4.88l-.25-7.63c-.11-3.41-.1-6.83-.12-10.25,0-7.76-.05-15.52-.16-23.27q-.09-6.16-.25-12.32c-.11-4-.29-8-.46-12-.15-3.65-.42-7.29-.64-10.94q-.31-5.14-.77-10.27c-.71-7.86-1.4-15.74-2.52-23.55Q22,316,21.5,312.24c-.2-1.4-.37-2.8-.62-4.19-.68-3.84-1.34-7.68-2-11.5s-1.45-7.52-2.08-11.3-1.37-7.66-1.91-11.5q-.73-5.27-1.46-10.54-.66-6.05-1.33-12.11c-.16-1.48-.23-3-.35-4.45q-.27-3.5-.54-7c-.13-1.65-.13-3.32-.2-5-.07-1.88-.2-3.77-.22-5.65l-.07-6.32c0-1.73-.08-3.46-.05-5.19.13-7.76.26-15.52.63-23.28.2-4.21.42-8.41.7-12.61s.61-8.1,1-12.15c.26-3,.67-6,1-9a113.13,113.13,0,0,1,2.74-13c.54-2,1.25-3.9,1.9-5.84.43-1.29.85-2.57,1.36-3.82l2.13-5.25c2.37-5.38,4.75-10.75,7.33-16l2.39-4.91c.59-1.21,1.28-2.37,1.91-3.55l2.21-4.09c.94-1.75,2.06-3.42,3.14-5.09,1.2-1.87,2.51-3.66,3.85-5.43,2.05-2.59,4.28-5,6.47-7.5.64-.72,1.38-1.37,2.06-2l3.38-3.34c.71-.7,1.49-1.33,2.23-2l3.67-3.25c.91-.8,1.88-1.55,2.82-2.31l3.19-2.61c3.94-3,7.87-6,12.09-8.66l4.23-2.61c1.14-.7,2.37-1.27,3.54-1.9,2.09-1.11,4.25-2.05,6.41-3l5.26-2c1.92-.72,3.91-1.28,5.86-1.91,3.75-1.22,7.57-2.26,11.36-3.32,3.62-1,7.25-2,10.92-2.78,1.89-.41,3.78-.88,5.68-1.2l6.37-1.08c4.45-.57,8.9-1.1,13.36-1.58,4.18-.45,8.36-.84,12.54-1.32,9.77-1.13,19.51-2.39,29.25-3.71l-.8.11c4.05-.54,8.1-1.14,12.14-1.7l9.77-1.29c3.25-.43,6.52-.76,9.78-1.13,6.3-.72,12.62-1.39,18.92-2.17,13.18-1.63,26.3-3.8,39.45-5.73l12-1.58c3.9-.51,7.83-.82,11.74-1.23,3.74-.39,7.5-.59,11.25-.87,3.55-.26,7.11-.44,10.67-.62s7-.37,10.57-.46c4.07-.11,8.15-.29,12.23-.31q6.63,0,13.26-.11c4,0,8,0,12,.06,6.43,0,12.86.22,19.28.41,8,.23,15.93.39,23.89.54,3.08.06,6.17,0,9.25,0h3c2.37,0,4.74,0,7.11,0,9.25-.14,18.5-.28,27.74-.5,0,0,0,0,0,0q-8-.18-16.08-.39c-3.94-.1-7.89-.14-11.82-.29-7.53-.29-15.07-.48-22.59-.93-3.9-.23-7.81-.42-11.71-.7l-13.2-1c-7.86-.57-15.72-1-23.59-1.36q-9.28-.43-18.59-.43ZM204.48,33.76l-.24,0,.24,0Z"/><path class="cls-1" d="M451.42,1.47c-2.35,0-4.7,0-7,.16L435,2.15c-.82,0-1.65.15-2.47.23l-5.91.56-3.34.32c-.82.08-1.65.22-2.46.33l-9.39,1.26h0l-.16,0h0c-1.67.23-3.33.49-5,.74l-6.57,1L388.66,8c-.83.11-1.66.19-2.49.28L378.85,9l-4.12.42c-1.59.16-3.19.25-4.79.38-3.24.26-6.48.55-9.72.75l-11.58.73c-3.86.24-7.71.42-11.57.63-6.25.34-12.5.71-18.76,1q-10.7.56-21.4,1c-3.9.16-7.79.37-11.69.55-3.07.15-6.13.38-9.2.59l-6,.42c-1,.07-1.93.17-2.89.27L255.32,17c-1.09.11-2.18.28-3.27.41l-7.67,1-4.28.55c-1.24.16-2.48.36-3.72.55L225,21.17c-3.81.57-7.62,1.21-11.43,1.82-2.78.44-5.54.92-8.31,1.4-3.21.56-6.44,1.08-9.64,1.7L183.22,28.5c-3.28.64-6.54,1.39-9.81,2.09-1.17.25-2.35.47-3.52.76l-5,1.24-6.5,1.61c-.93.23-1.84.47-2.77.73l-9.49,2.67c-2.09.59-4.16,1.25-6.24,1.89s-4.38,1.3-6.53,2.06L124,44.83c-.5.18-1,.39-1.48.6l-5,2.09-4.31,1.82c-.67.28-1.36.54-2,.86l-8.18,4.05-3.8,1.88c-2,1-4,2.07-6,3.13,0,0,0,0,0,0,2-.95,4.08-1.92,6.15-2.82l4.45-1.94,7.91-3.46,10.73-4,1.47-.55c.33-.12.67-.21,1-.31L132,44c1-.32,2.09-.68,3.15-1l6.43-1.75c1.3-.35,2.6-.74,3.91-1.06l5.4-1.36L157,37.37c1-.25,2-.46,3-.69l6.81-1.53c1.33-.3,2.66-.64,4-.9q5.79-1.15,11.58-2.33c3.14-.64,6.3-1.2,9.45-1.79,1.75-.33,3.5-.69,5.25-1l6-1.07c3.77-.67,7.54-1.36,11.31-2,4.06-.67,8.11-1.36,12.18-2L240.48,22h-.07l11.11-1.48,3.76-.5,1.11-.11,3.31-.34,7-.72c1-.11,2.09-.24,3.14-.32l12.54-1c.82-.06,1.63-.11,2.44-.15l7.42-.4,9-.48c7-.36,14-.74,21-1.18l21.72-1.37q4.52-.28,9-.6c3.26-.23,6.52-.43,9.78-.71l12-1.06c1.2-.11,2.4-.27,3.6-.4l7.43-.83c3-.33,5.95-.77,8.92-1.18l5.26-.73c1.3-.18,2.61-.41,3.91-.61,2.94-.46,5.87-1,8.81-1.38L423.36,4.9l11.13-1.11c1.06-.11,2.13-.14,3.2-.2l7.09-.4c.92-.05,1.83-.07,2.75-.08L454.84,3c1,0,1.91,0,2.87,0l6.89.21,4.45.13c.46,0,.93.06,1.39.09l3.83.23L480,4c1.51.09,3,.25,4.51.38l5.53.47c1.63.14,3.26.32,4.89.48l10.06,1c5.3.5,10.61,1,15.92,1.43,4.19.36,8.39.69,12.57,1.07l9.18.82c2.16.2,4.32.44,6.48.66s4.08.41,6.11.68l7.81,1,8,1.46c.79.14,1.56.34,2.34.52,1.77.41,3.52.88,5.26,1.38A97.18,97.18,0,0,1,588.76,19q3.82,1.64,7.5,3.53a92.94,92.94,0,0,1,8.95,5.36c.26.18.51.38.77.57l1.74,1.27,2.76,2,4.91,4.19c.26.22.49.49.73.73l1.6,1.59,1.6,1.59c.26.26.54.5.78.78l2.58,2.92c.61.7,1.26,1.37,1.84,2.09L629,51.18q4.73,6.15,9.49,12.26c1.54,2,3.15,3.88,4.74,5.82.58.7,1.14,1.44,1.74,2.12l2.91,3.26,2.8,3.15c.67.75,1.38,1.48,2.07,2.21L658,85.53l3.6,3.84c.56.6,1.13,1.2,1.67,1.82l5.53,6.39,5.8,7.6c.55.72,1,1.48,1.56,2.22l3.57,5.18c1.58,2.29,3.11,4.61,4.66,6.93q2.48,3.73,4.95,7.46l3.27,4.95c.48.73.93,1.48,1.39,2.22l3.39,5.5c.54.89,1.11,1.76,1.6,2.67l4.66,8.62c.18.34.33.7.49,1.05l1.41,3,2.12,4.54,2,5.08,1.11,2.81c.16.43.29.87.43,1.3l2.22,6.93c.12.39.22.77.32,1.17q.44,1.78.88,3.55l.83,3.34c.13.54.29,1.07.39,1.61q.67,3.41,1.33,6.82c.11.58.26,1.17.34,1.75l.36,2.65.86,6.24c.36,3.47.74,6.94,1.09,10.42.38,3.81.77,7.63,1,11.45a0,0,0,0,0,0,0c-.17-3.42-.43-6.83-.7-10.24-.3-3.71-.62-7.43-.94-11.14-.11-1.27-.28-2.53-.42-3.79q-.33-2.87-.66-5.72c-.05-.45-.14-.89-.22-1.33q-.28-1.7-.56-3.4c-.17-1.06-.35-2.13-.52-3.19-.07-.42-.14-.84-.23-1.25l-1.34-6.25c-.17-.79-.34-1.59-.51-2.38-.09-.45-.23-.88-.36-1.32l-1.78-6.3c-.11-.39-.2-.79-.34-1.18l-.86-2.45-2-5.62c-.1-.28-.22-.55-.34-.83l-1.34-3.15-2.23-5.23c-.14-.32-.32-.64-.47-1l-1.62-3.24-2.55-5.07c-.13-.26-.28-.5-.43-.75l-1.75-3-3.15-5.41c-.66-1.14-1.4-2.23-2.11-3.34-1.83-2.87-3.65-5.75-5.52-8.59s-3.7-5.67-5.61-8.46l-3.82-5.59-1-1.46c-.29-.42-.62-.82-.93-1.23l-4.12-5.46-1.16-1.54c-.32-.42-.66-.81-1-1.21l-4.27-5-1-1.19c-.49-.57-1-1.11-1.53-1.66l-7.55-8.17c-1-1.1-2.05-2.18-3-3.31l-4.76-5.45c-.85-1-1.65-2-2.46-3l-3.93-4.86q-2.77-3.59-5.54-7.19l-3.86-5c-.87-1.14-1.78-2.25-2.68-3.36l-2.08-2.56c-.25-.31-.5-.62-.77-.92l-4.22-4.71c-.36-.4-.77-.75-1.14-1.12l-2.52-2.46c-.38-.37-.74-.77-1.15-1.11L615.3,31.4c-1.1-.92-2.17-1.87-3.34-2.71l-5-3.6c-.65-.46-1.4-.91-2.08-1.34-1-.64-2.05-1.25-3.09-1.86-1.89-1.1-3.85-2.09-5.81-3a101.43,101.43,0,0,0-12.41-5c-2-.68-4.12-1.26-6.21-1.8-1.05-.27-2.12-.51-3.18-.75-.7-.16-1.49-.34-2.19-.46l-6.12-1c-1.08-.18-2.15-.37-3.23-.5l-6.93-.84c-3.34-.41-6.69-.68-10-1s-6.64-.55-10-.8c-6.59-.5-13.18-1-19.77-1.45S502.71,4.18,496.12,3.6c-3.47-.31-6.94-.61-10.41-.87l-5.53-.42c-1.55-.12-3.11-.17-4.66-.26l-5.06-.28c-.67,0-1.34-.07-2-.09L458,1.41l-1.58,0c-1.68,0-3.36.05-5,.08Zm111.74,10.6.15,0-.15,0Zm25.27,6.79.26.11-.26-.11ZM411.3,4.87h0Z"/><path class="cls-1" d="M715.55,268q-1.71,16-1.88,32.19c-.1,10.66,0,21.33,0,32,.08,10.51.28,21,.7,31.53.43,10.91,1,21.82,1.7,32.72.31,5,.67,10,1,15s.58,10.25.76,15.39c.37,10.29.47,20.59.41,30.88-.06,10.79-.23,21.57-.34,32.35-.11,10.47-.11,20.95-.15,31.42,0,5.31-.11,10.62-.2,15.93,0,2.5-.18,5-.27,7.5s-.24,4.74-.42,7.1c-.4,5.26-.83,10.52-1.37,15.77q-.87,8.29-1.72,16.58c-.44,4.39-1,8.77-1.5,13.15-1,6.93-2,13.85-3.49,20.68-.36,1.65-.69,3.32-1.12,5-.49,1.87-.9,3.77-1.48,5.61l-1,3.33c-.23.73-.43,1.49-.69,2.21l-1.92,5.21-2,4.64c-.31.71-.68,1.39-1,2.08l-1.6,3.25c-.87,1.76-1.83,3.47-2.75,5.2s-1.87,3.47-2.81,5.21Q689.65,665,686.86,670a94.73,94.73,0,0,1-6.92,10.85,62.82,62.82,0,0,1-9.87,10c-6.08,4.54-12.85,7.89-19.65,11.19-3.35,1.62-6.74,3.15-10.12,4.68l-7.33,3c-2.2.91-4.46,1.65-6.7,2.45-2.06.74-4.12,1.49-6.21,2.15l-9.16,2.9c-2.54.81-5.11,1.53-7.67,2.3-1.93.58-3.86,1.16-5.8,1.7-5.25,1.46-10.5,2.94-15.79,4.3s-10.64,2.72-16,4c-2.56.63-5.12,1.29-7.69,1.87l-8.17,1.84c-2.29.52-4.58,1.08-6.88,1.55l-8.56,1.72c-2.29.46-4.56,1-6.86,1.38l-8.44,1.48-7.16,1.26c-1.17.21-2.36.34-3.54.5l-14,1.92-17.77,1.62c-4.76.43-9.54.57-14.32.81-4.39.22-8.79.5-13.18.62q-10.27.26-20.54.58c-4.81.15-9.62.17-14.43.25l-7.64.14c-.48,0-1,0-1.45,0L400.3,747c-5.11-.12-10.23-.15-15.33-.42-5.49-.29-11-.57-16.48-.87-7.38-.4-14.78-.72-22.15-1.32a0,0,0,1,0,0,0c5.19.66,10.39,1.17,15.6,1.7q8.3.84,16.61,1.66l8.52.83c2.07.2,4.16.28,6.24.42l10.9.72c1.37.09,2.73.16,4.1.19q9.3.21,18.59.39c1.06,0,2.12,0,3.18,0h13c4.23,0,8.45,0,12.68-.16,6.2-.21,12.39-.45,18.59-.69,2-.08,4.08-.3,6.11-.45l11.1-.83c5-.37,10-1,15-1.63,2.15-.25,4.32-.45,6.46-.77l8.87-1.34c2.39-.36,4.8-.67,7.18-1.09l8.21-1.43c2.44-.43,4.89-.8,7.32-1.27l8.23-1.62q8-1.58,16-3.31c5.33-1.14,10.64-2.37,16-3.6s10.36-2.56,15.54-3.87c3.77-1,7.5-2,11.24-3.07s7.52-2.18,11.28-3.28,7.27-2.37,10.89-3.57c1.51-.5,3-1.11,4.46-1.68,2.09-.8,4.19-1.57,6.25-2.44l-.14.06,2.42-1-.13.05.39-.16,0,0h0l4.5-1.9-.12,0,.12-.05.93-.39-.78.33c2.71-1.15,5.38-2.39,8.06-3.6a82,82,0,0,0,16.71-9.8,55.91,55.91,0,0,0,7.55-7.06c1.16-1.3,2.21-2.68,3.27-4.07a38.88,38.88,0,0,0,2.37-3.38l2.33-3.83c.21-.35.39-.73.59-1.09l1.45-2.73c1.06-2,2-4,3-6l3.61-7.35q1.88-3.82,3.71-7.66c.41-.86.8-1.73,1.19-2.61.7-1.56,1.45-3.11,2.07-4.7.88-2.25,1.81-4.48,2.56-6.77l1.37-4.15c.43-1.31.75-2.67,1.13-4,.71-2.54,1.3-5.12,1.92-7.68.25-1,.44-2.11.66-3.16.25-1.2.53-2.4.74-3.61.45-2.55.93-5.11,1.3-7.68.42-2.9.84-5.8,1.19-8.71.64-5.33,1.11-10.68,1.53-16,.39-5,.71-10,1-15q.5-8.21.78-16.43c.37-10.61.39-21.22.39-31.84,0-10,.05-20,.27-30,.23-10.55.54-21.09.77-31.64.23-10.36.42-20.72.28-31.08-.07-5.2-.13-10.41-.33-15.61-.2-5.37-.45-10.74-.62-16.11-.34-10.41-.6-20.82-1.07-31.23s-1.05-21-1.72-31.55c-.69-10.73-1.59-21.45-2.46-32.17-.4-4.92-.8-9.86-1-14.79-.12-2.65-.32-5.3-.38-8q-.1-4.46-.23-8.91c0-1,0-2.09,0-3.13h0ZM643.4,714.61l.87-.37-.87.37Zm3.55-1.5-.26.11.29-.12Z"/><path class="cls-1" d="M332.93,219.75a53.66,53.66,0,0,0-7.64,1.06c-2.52.52-5,1.17-7.48,1.93a92.94,92.94,0,0,0-14.34,5.9c-1.45.74-2.93,1.47-4.33,2.3L297,232.24l-6.47,3.89c-3,1.79-5.85,3.69-8.75,5.56-1.16.75-2.33,1.48-3.48,2.25l-5,3.34-4.76,3.2c-1.43,1-2.83,2-4.24,3s-2.69,1.87-4,2.85c-1.64,1.23-3.31,2.43-4.93,3.68h0l0,0h0l0,0h0l-4.38,3.37-.17.13,0,0-.2.16,0,0c-2.47,1.91-4.95,3.82-7.41,5.75,0,0,0,0,0,0q8.94-6.52,18.15-12.67c1.6-1.07,3.25-2.07,4.87-3.1,1.14-.72,2.27-1.46,3.42-2.16l5.85-3.54c1.29-.78,2.57-1.59,3.87-2.35q5.23-3.05,10.43-6.13c1-.61,2.09-1.18,3.13-1.76q3.26-1.83,6.51-3.68c1-.56,2-1.09,3-1.62,2.93-1.52,5.89-3,8.93-4.25l-.35.14a97.89,97.89,0,0,1,10.17-3.7A71.86,71.86,0,0,1,332,222.15a53,53,0,0,1,13.33-.19,64.69,64.69,0,0,1,8.28,1.88c1.37.38,2.75.76,4.11,1.18s2.89,1,4.34,1.49c0,0,0,0,0,0-1.12-.5-2.22-1-3.33-1.52s-2.31-.93-3.47-1.38c-2.39-.91-4.79-1.81-7.25-2.51a41,41,0,0,0-11.29-1.44c-1.26,0-2.53,0-3.79.12Zm-1.09,2.41-.12,0,.12,0Zm-81.2,41.49h0Zm.3-.23h0l0,0,0,0Zm0,0,0,0,0,0Zm4.39-3.38h0Z"/><path class="cls-1" d="M580.31,103.71l-3.07.7a64.76,64.76,0,0,0-7.65,2.4,43.66,43.66,0,0,0-6.76,3.1,22.16,22.16,0,0,0-5.84,4.92,29.69,29.69,0,0,0-4.08,6.63,68,68,0,0,0-3.06,7.9c-.63,1.89-1.14,3.81-1.63,5.73-2.5,4.44-4.67,9.07-6.91,13.64-1.82,3.73-3.67,7.45-5.26,11.29,0,0,0,0,0,0,1.58-2.8,3.33-5.5,5.12-8.17,1.65-2.46,3.29-4.93,5-7.38l0,.13c-.75,4-1.31,8-1.71,12-.35,3.46-.69,6.88-.7,10.36a55,55,0,0,0,2.86,17.67,49.71,49.71,0,0,0,3.43,7.75,52.59,52.59,0,0,0,5.33,7.79,53.21,53.21,0,0,0,13.49,11.65,53.76,53.76,0,0,0,8,4q2,.84,4.13,1.49a32.94,32.94,0,0,0,5.46,1.06,31.43,31.43,0,0,0,8.83-.26,41.78,41.78,0,0,0,8.48-2.29,83.6,83.6,0,0,0,12.76-6.2c1.84-1.08,3.69-2.14,5.48-3.3,5.55-3.61,11-7.36,15.69-12.13a55.29,55.29,0,0,0,5.85-7.29,52.92,52.92,0,0,0,4.36-7.87,70,70,0,0,0,5.65-17.93,51.78,51.78,0,0,0,.77-9.51,45.17,45.17,0,0,0-.52-5.23,48.78,48.78,0,0,0-.92-4.86,55.16,55.16,0,0,0-7.46-17,48.48,48.48,0,0,0-5.6-7,31.74,31.74,0,0,0-3.1-2.74,45.17,45.17,0,0,0-4.89-3.45,48.72,48.72,0,0,0-8.57-3.88,59.44,59.44,0,0,0-8.64-2.33,88.16,88.16,0,0,0-16.67-1.74,62.38,62.38,0,0,0-8.74.77,44.41,44.41,0,0,0-8.4,2.09,56.53,56.53,0,0,0-7.64,3.31,47.52,47.52,0,0,0-7.26,4.84,69.53,69.53,0,0,0-11.31,11.09A61.6,61.6,0,0,0,550.7,131a59.44,59.44,0,0,1,2.68-8.46,35.23,35.23,0,0,1,3.77-6.7l-.06.07a23.62,23.62,0,0,1,4-4l-.06.05a33.13,33.13,0,0,1,6.84-3.87l-.06,0c7-2.93,14.33-4.66,21.69-6.28,0,0,0,0,0,0-3.07.61-6.12,1.29-9.18,2Zm20,11.1a82.44,82.44,0,0,1,18.8,4.84,43.88,43.88,0,0,1,7.72,4.37,35.41,35.41,0,0,1,4.82,4.84,52.51,52.51,0,0,1,5.49,9.61,52.31,52.31,0,0,1,3,10.62,40.57,40.57,0,0,1-.06,8.55,68.42,68.42,0,0,1-4.1,14.68,55,55,0,0,1-6,10.43,49.49,49.49,0,0,1-7.86,7.83l-2.87,2.24c-2.17,1.53-4.32,3.08-6.54,4.52L609,199.73a72,72,0,0,1-9.85,5.27,41.08,41.08,0,0,1-8.32,2.39,30,30,0,0,1-6.23,0,45.39,45.39,0,0,1-9.38-2.73,51.43,51.43,0,0,1-9.93-5.76,49.69,49.69,0,0,1-7.67-7.65,51.15,51.15,0,0,1-5.87-10A55,55,0,0,1,548.16,168a51.68,51.68,0,0,1-.48-6.74l0-3.17c0-1.78,0-3.54.13-5.32.11-1.94.14-3.9.36-5.82q.36-3.21.72-6.41,1.24-1.72,2.52-3.4a68.26,68.26,0,0,1,5.53-6.36,65.13,65.13,0,0,1,5.75-5.07,66,66,0,0,1,13-7.84,52.78,52.78,0,0,1,11.72-3.16,57,57,0,0,1,12.88.1Zm-37.15,10.57-.31.24.31-.24Zm-5.39,66.05.24.31-.24-.31Z"/></g></g></svg>