<svg xmlns="http://www.w3.org/2000/svg" viewBox="0 0 774.25 1115.73"><defs><style>.cls-1{fill:#353535;}</style></defs><title>linkedin-icon</title><g id="Layer_2" data-name="Layer 2"><g id="Draw_Layer" data-name="Draw Layer"><path class="cls-1" d="M49.41,321.94c-1.52,6-3.22,11.87-4.22,18-1.11,6.82-1.94,13.69-2.67,20.57-.7,6.58-1.4,13.19-1.72,19.81q-.83,16.91-1.65,33.83-.66,13.62-1.32,27.26c-.08,1.62,0,3.26,0,4.88q0,7.15-.06,14.3-.15,31.77-.28,63.54c0,1.27.09,2.55.14,3.82L38,540q.25,6.78.51,13.56l-.29,4.46c-2.28,35.52-4,71.07-5.88,106.61-.26,5-.22,10.13-.32,15.18q-.36,19.21-.73,38.42-.28,15.28-.58,30.56c-.08,4.36,0,8.73.11,13.1q.5,33.95,1,67.9c.08,5,.48,10,.75,15q1.07,19.33,2.14,38.64.44,8,.88,15.9c.11,2,.13,4.13.35,6.17.88,8.43,1.84,16.87,2.77,25.29q1.94,17.74,3.88,35.48c.56,5.07,1.28,10.1,2.06,15.15,2,13.24,4.27,26.44,7.19,39.52,1.1,4.93,2.37,9.83,3.59,14.74,1.31,5.21,2.72,10.38,4.44,15.46.92,2.74,2,5.4,3.17,8.06a52.4,52.4,0,0,0,3.08,6.35,52,52,0,0,0,4.94,6.49c1.73,2.08,3.59,4,5.3,6.14s4.91,3.09,7.47,3.09a10.4,10.4,0,0,0,7.47-3.09c1.87-2,3.89-3.87,5.18-6.36a21.2,21.2,0,0,0,2-9.74c0-1.84-.21-3.68-.14-5.52l.14-3.39c.18-4.29.41-8.59.52-12.88.22-8.66.6-17.33.64-26,.08-17.24.24-34.49.15-51.74-.09-18-.05-35.92-.29-53.88q-.46-34.48-.94-69c-.17-12.88-.49-25.75-.82-38.64q-.94-35.89-1.87-71.79c-.32-12.59-.82-25.16-1.26-37.74q-1.27-36.65-2.55-73.3c-.37-10.62-.66-21.24-1-31.87-.72-25.68-1.78-51.32-3.35-77-.73-11.92-1.7-23.82-2.37-35.73q-2-35.13-4.9-70.2-1.07-12.82-2.25-25.63c-1.13-12.23-2.06-24.47-3.15-36.69a0,0,0,1,0,0,0c-1.23,13-2.47,26-3.32,39.07q-1.05,16.28-1.91,32.56-1.7,32.09-2.61,64.22c-.09,3.35,0,6.7,0,10q0,15.62.21,31.24c.33,25.1,1.25,50.16,2.33,75.24,1.53,35.54,3.82,71,5.84,106.55,2.06,36.33,3.79,72.68,5.61,109,1.71,34,2.63,68.07,3.85,102.1.26,7.25.29,14.52.42,21.76l.7,36.31c.13,6.56,0,13.11-.09,19.67s-.14,12.84-.22,19.25c0,2.61.05,5.26-.14,7.87q-.35,4.66-.7,9.31-.47-8.59-.91-17.2c-.45-8.75-.76-17.52-1.35-26.26q-1.07-16.14-2.14-32.28l-1.16-17.46c-.14-2.06-.23-4.12-.42-6.17l-2.15-23.15Q74,871.52,71.1,840.19c-1.59-17.33-3.39-34.64-5.09-52q-2.7-27.53-5.4-55.06c-.56-5.65-.79-11.36-1.18-17q-1.3-18.74-2.6-37.46c-1.16-16.63-2.37-33.26-3.47-49.89,0-7.87,0-15.74-.08-23.62q-.2-26.53-.65-53.08-.2-12.67-.53-25.34,2.37-49.6,4.68-99.19c.73-15.5,1.37-31,2.19-46.5.45-8.61.85-17.22,1.37-25.83.26-4.37.57-8.73.86-13.1.11-1.79.22-3.58.39-5.37.23-2.37.59-4.71.76-7.08a35.57,35.57,0,0,0-.61-7.75,6.35,6.35,0,0,0-1.65-2.82,6.39,6.39,0,0,0-10.68,2.82ZM66.08,931.32c-.53-4.55-1-9.07-1.35-13.63q-1.47-18.1-2.94-36.21-1.21-15-2.43-30c-.45-5.57-.63-11.17-.92-16.75l-2-38.77c-.18-3.39-.39-6.78-.58-10.16l1.42,13c4.13,37.66,8,75.33,11.93,113,.54,5.19,1.21,10.38,1.56,15.59L73,960.21l1.16,17.18c.14,2,.34,4.07.39,6.1q.27,10.84.53,21.69c-.68-4.59-1.33-9.19-2-13.78-2.2-20-4.66-40.05-7-60.07Z"/><path class="cls-1" d="M286.53,287.08l-3.38,31.78-.86,8.15c-.21,2-.23,4-.35,6q-1,17.25-2,34.5l-.32,5.37c-.37-1.76-.76-3.51-1.19-5.27-1.59-6.56-3.23-13.63-8-18.66-1.29-1.35-3.78-3.17-5.8-2.56a4.88,4.88,0,0,0-2.7,1.64,9.42,9.42,0,0,0-1.2,3,22.71,22.71,0,0,0-.61,3.72,35.11,35.11,0,0,0-.23,3.79c0,1.65-.1,3.29-.14,4.94-.12,3.92-.05,7.87-.06,11.79a0,0,0,1,0,0,0c.29-6.36.45-12.77,1.27-19.09l0,.14a31,31,0,0,1,1.13-4.9h0a16.47,16.47,0,0,1,1.13-2.16l.39-.36.58-.26.73-.11.67.08a5.73,5.73,0,0,1,1.48.87l-.25-.19a12.13,12.13,0,0,1,1.55,1.5,23.46,23.46,0,0,1,2.66,4.63c2.27,6,3,12.53,3.85,18.86,0-.23-.06-.45-.08-.66,1.61,12.35,1.65,24.79,2,37.22.08,3.52.2,7,.28,10.57q.16,7.38.34,14.74-.14,6.27-.28,12.53c-.14,6.24-.42,12.5-.42,18.74v24.68q-.32,5.72-.63,11.44c-.22,3.88-.28,7.75-.36,11.62l-1.45,67.36c-.08,3.78-.11,7.53-.08,11.31q.14,16.42.29,32.84.15,16.95.3,33.88c0,4,.11,7.87.29,11.82q1.44,32.71,2.89,65.42c.19,4.38.6,8.71,1,13.07q1.61,18,3.23,36,1,11.12,2,22.23c.22,2.44.63,4.88.94,7.31q1.08,8.43,2.16,16.88,2.05,16,4.11,32.09c.89,7,2,13.9,3,20.86.17,1.14.33,2.27.51,3.42-.22,10.41-.38,20.82-.42,31.23q-.06,12.29,0,24.58c0,4.81.18,9.62.29,14.43l.5,20.51c.11,4.47.45,9,.75,13.41s.68,8.92,1.18,13.38,1.07,8.95,1.85,13.38a32.63,32.63,0,0,0,2.07,7.25,55.85,55.85,0,0,0,2.85,5.3,6.63,6.63,0,0,0,12.11-1.58,32.5,32.5,0,0,0,.89-8c-.06-2-.46-3.93-.58-5.89q-.25-4-.49-7.93c-.23-3.74-.43-7.48-.62-11.22q-.67-13.26-1.32-26.52-.28-5.58-.59-11.16c.17,0,.34,0,.51,0a9,9,0,0,0,6.34-2.63,8.69,8.69,0,0,0,2.63-6.34c-.36-4.09-.6-8.19-1.23-12.25-.33-2.15-.67-4.31-1-6.46q-1.37-8.9-2.75-17.78c-1.1-7.07-2.25-14.12-3.39-21.17-.11-.67-.22-1.35-.33-2-.26-2.84-.41-5.69-.63-8.53L312,865c-1.41-18-2.27-36-3.3-54-1-16.89-1.73-33.79-2.57-50.68q-1.05-21.14-2.12-42.27-1.53-30.33-3.08-60.67c-.88-17.54-2-35.07-3-52.6-2.08-36.52-4-73-6.63-109.53q-1-14-2.08-28l1.2-30.29c.18-4.46.29-8.92.57-13.37l1.84-29.48c1-16.29,2-32.59,3.13-48.88,1.31-18.51,2.61-37,4-55.51l.38-5q-6.93,1.17-13.86,2.37Zm-21.35,61.35-.08,0,.08,0Zm-.93.14h0Z"/><path class="cls-1" d="M492.49,356.79a271,271,0,0,0-36.94,4.38c-24.06,4.24-47.42,11.61-70,20.8q-16.67,6.78-32.7,15c-10.68,5.5-21,11.61-31.21,18-7.34,4.59-14.58,9.37-21.78,14.2q-5.44,3.66-10.68,7.61c-3.51,2.64-7,5.36-10.47,8,0,0,0,.06,0,0,6.94-4.42,13.75-9.08,20.89-13.19,7.5-4.32,15-8.59,22.62-12.74,14.67-8,29.64-15.44,45.05-22h0a475.53,475.53,0,0,1,50.79-18,370.16,370.16,0,0,1,52.33-11A242,242,0,0,1,500,365.67,207.71,207.71,0,0,1,527.21,367a127.43,127.43,0,0,1,30.57,8.67,88.67,88.67,0,0,1,17.61,10.09,115.48,115.48,0,0,1,18.15,18.75,224,224,0,0,1,14.8,22.33,228.79,228.79,0,0,1,13,25.86c4.41,10.57,8.19,21.38,11.72,32.27,3.63,11.2,7.13,22.47,10.38,33.79,6.82,23.73,12.06,47.88,17.06,72q1.8,8.71,3.57,17.41c.24,1.22.51,2.43.72,3.66l1.16,6.73,4.9,28.42q5.92,34.33,11.83,68.67c.73,4.26,1.59,8.52,2.21,12.81q1.11,7.74,2.23,15.48,6.89,47.89,13.78,95.78c4,30.68,7.89,61.37,12,92v-.1a1.48,1.48,0,0,0,0,.17v0h0a.38.38,0,0,0,0,.1h0v0h0a.21.21,0,0,0,0,.07.1.1,0,0,0,0,0h0c.82,6.34,1.48,12.68,2.25,19q2.17,18,4.39,36c2,16.1,3.77,32.21,5.67,48.31.67,5.74,1.35,11.48,2,17.22.91,8.09,2,16.18,2.81,24.28q.76,7.32,1.58,14.64.22,2,.4,4l1.74-.22.38-.06c-.36-6.83-.85-13.65-1.36-20.48-.69-9-1.55-18-2.38-27.06-.66-7.19-1.29-14.4-2-21.59q-2.19-23.84-4.62-47.66-1.81-17.9-3.72-35.77c-.46-4.39-.9-8.78-1.42-13.16-2.45-20.56-5-41.12-7.57-61.67-1.47-11.85-2.87-23.7-4.49-35.54q-4.44-32.46-8.89-64.93-2.11-15.47-4.23-30.94c-.48-3.51-.88-7-1.46-10.54q-9.41-56.64-18.82-113.29c-.2-1.25-.42-2.49-.62-3.74-.48-2.92-1.16-5.81-1.74-8.71l-1.75-8.71q-1.9-9.45-3.88-18.88c-2.54-12.08-5.23-24.14-8.19-36.13s-6.24-23.63-9.82-35.32c-6.73-22-13.58-44-23.65-64.68A232.08,232.08,0,0,0,607,408a140.4,140.4,0,0,0-20.75-24.63,83.34,83.34,0,0,0-11.86-9.08,99.1,99.1,0,0,0-14.87-7.46,137.18,137.18,0,0,0-14.71-5.12,109.67,109.67,0,0,0-17-3.57c-5.54-.72-11.1-1.1-16.68-1.29q-4.65-.16-9.29-.17t-9.29.17ZM367.79,396.71l-.16.06.16-.06Z"/><circle class="cls-1" cx="367.27" cy="396.93"/><circle class="cls-1" cx="712.98" cy="932.05"/><circle class="cls-1" cx="712.98" cy="932.04"/><path class="cls-1" d="M367,397l.25-.11L367,397Z"/><path class="cls-1" d="M712.95,931.79v0Z"/><path class="cls-1" d="M713,931.89v0Z"/><path class="cls-1" d="M713,931.93v0a.11.11,0,0,0,0,0Z"/><path class="cls-1" d="M713,932v-.09a.59.59,0,0,0,0,.09Z"/><path class="cls-1" d="M418.48,350.22c-12.83.47-25.63,1.89-38.35,3.62a319.59,319.59,0,0,0-37.84,7.64c-6,1.58-12,3.43-17.9,5.44s-11.65,4.07-17.3,6.51a106.2,106.2,0,0,0-15.54,8,88.09,88.09,0,0,0-12.36,9.7,0,0,0,0,0,0,0,91.81,91.81,0,0,1,17.73-10.48l-.26.11c10.51-4.42,21.53-7.34,32.59-10a338.32,338.32,0,0,1,34.85-6.32A440.84,440.84,0,0,1,409,361.3a321.07,321.07,0,0,1,48,2.48,280.78,280.78,0,0,1,68.22,18.11c15.52,6.68,30.51,14.5,44,24.72a248.92,248.92,0,0,1,42,42.79,459.3,459.3,0,0,1,30.08,45.23,435.66,435.66,0,0,1,25.59,50.86C689,598.6,702.25,655.1,710,712c2,15.1,3.69,30.23,4.91,45.41,1.26,15.72,2,31.47,2.77,47.23.54,11.48.66,23,1.07,34.47.32,9.14.89,18.29,1,27.44q.32,20,.88,39.94c.2,7.25.23,14.51.35,21.76.13,8.27.32,16.53.37,24.81q.06,7.82.2,15.63c.08,4.36,0,8.73,0,13.1,0,4.05-.07,8.09-.1,12.14a139.68,139.68,0,0,1-.88,15.91c-.09.26-.17.52-.25.78l-.28.47-.3,0a9.42,9.42,0,0,1-1.62-.91,29.93,29.93,0,0,1-2.75-2.74,57,57,0,0,1-5.58-9.39,0,0,0,0,0,0,0,59.59,59.59,0,0,0,4.92,12,13.7,13.7,0,0,0,3.83,4.1,3.38,3.38,0,0,0,4.36-.39,8.62,8.62,0,0,0,1.62-2.31,14.13,14.13,0,0,0,.87-2.83,59.26,59.26,0,0,0,1.31-6.19c.4-2.62.83-5.25,1.11-7.89,1.09-10.13,1.8-20.27,2.38-30.44,1.17-20.57,1.95-41.16,2.45-61.75q.45-18.63.7-37.27c.14-10.57-.12-21.17-.25-31.74q-.12-10.43-.33-20.86c-.13-6.41-.43-12.79-.75-19.19-.78-15.75-1.75-31.49-3.2-47.19s-3.42-31.11-5.66-46.59a733.58,733.58,0,0,0-19-91.18,538.14,538.14,0,0,0-31.48-85.89,442.37,442.37,0,0,0-21.47-39.79c-7.61-12.61-15.8-24.92-24.59-36.75a282.45,282.45,0,0,0-28.74-33,194.4,194.4,0,0,0-34.37-27.24,232.7,232.7,0,0,0-32-16,264,264,0,0,0-35.9-11.91,257.27,257.27,0,0,0-38-6.47A252.15,252.15,0,0,0,431.36,350q-6.45,0-12.88.25ZM568,405.62l.79.61-.79-.61ZM720.56,1010l0,.32,0-.32Z"/><path class="cls-1" d="M455.32,334.22a192.57,192.57,0,0,0-24.23,2,212.27,212.27,0,0,0-59.23,17.44,273.75,273.75,0,0,0-53,32.52c-13.72,10.58-26.33,22.54-36.63,36.52-4.33,5.88-8.59,11.9-11.24,18.76a0,0,0,0,0,0,0,66,66,0,0,1,5.77-8.46c2.72-3.13,5.47-6.18,8.32-9.2a176.81,176.81,0,0,1,19.6-17.64,254.69,254.69,0,0,1,23.79-16.1q-6.42,4.93-12.43,10.4a153.63,153.63,0,0,0-21.62,23.78,78.15,78.15,0,0,0-7.86,14.12,152.91,152.91,0,0,0-5.19,14.86s0,0,0,0c1.86-4.2,3.72-8.4,5.74-12.53a77,77,0,0,1,7.67-12.08c7.57-9.64,17-17.77,26.6-25.31l-.58.45A194.12,194.12,0,0,1,362,379.44,200.55,200.55,0,0,1,411.13,366a193.24,193.24,0,0,1,47.3,0,188.32,188.32,0,0,1,44.06,12.32c13.92,6,27,13.82,40,21.66a416.26,416.26,0,0,1,37.63,25.87,395.24,395.24,0,0,1,33.65,29.3L619.53,466c2.25,4.23,4.25,8.52,6.25,12.87l8.2,17.85q5.9,14.75,11.79,29.5c.39,1,.66,2,1,3l3.13,9.62,6.37,19.61c1,3,1.66,6.18,2.42,9.3l5.35,22c.73,3,1.54,6,2.11,9.09l3.49,18.94c1.76,9.53,3.57,19,5,28.61q2.75,18.56,5.49,37.12c2.56,19.34,5.06,38.68,7.28,58.05q4,35.07,7.71,70.16c2.29,21.8,4.48,43.62,6.7,65.42.91,9,1.71,18.07,2.55,27.11.88,9.43,1.84,18.85,2.54,28.29q.82,10.95,1.62,21.89c.28,3.72.65,7.44.79,11.17q.39,10.12.76,20.26c.17,4.45.14,8.89.14,13.34,0,10.67-.17,21.33-.2,32,0,4.95.26,9.88.62,14.82a137.51,137.51,0,0,0,2.07,16.19,51.87,51.87,0,0,0,3.8,11.63c1.93,4.25,4.75,8.43,8.89,10.83,4.66,2.71,10.26,4.13,15.6,2.67a19.28,19.28,0,0,0,7.84-4.54,44.51,44.51,0,0,0,4-5c.21-.48.42-1,.63-1.44a19.52,19.52,0,0,0,2-5.21,48,48,0,0,0,.91-4.84,118.14,118.14,0,0,0,1.36-14.32c.11-2.92,0-5.84,0-8.76,0-2.18,0-4.37-.06-6.54q-.62-16.91-1.43-33.81c-1-20.06-1.9-40.13-2.89-60.19q-1.72-34.61-3.66-69.2c-.45-8.19-.77-16.41-1.44-24.58l-3.26-40.37c-.67-8.27-1.12-16.6-2-24.85l-4.08-36.2-3.92-34.73c-.47-4.15-1.13-8.29-1.72-12.42q-1.73-12.22-3.66-24.42-3.71-23.35-8.83-46.42c-3.36-15.16-7.1-30.23-11.53-45.11-4.3-14.37-9.39-28.55-15-42.45a281.25,281.25,0,0,0-19.94-40.22,300.63,300.63,0,0,0-26.3-36.28,256,256,0,0,0-20.14-21.23c-2.39-4.65-4.81-9.27-7.43-13.81a306.81,306.81,0,0,0-25.76-37.95,159.4,159.4,0,0,0-32.1-30.38c-11.9-8.51-25.75-14.37-39.69-18.6a229.25,229.25,0,0,0-45.29-8.37q-9.82-.91-19.7-.91Zm126.81,72.36a408.29,408.29,0,0,0-37.81-24c-13.07-7.36-26.25-14.43-40.31-19.72a189.6,189.6,0,0,0-32.08-9q-3.51-.66-7.06-1.13,10.23.42,20.43,1.7c16.31,2.34,32.42,6.12,47.7,12.34a125.09,125.09,0,0,1,24.64,14.43,165.53,165.53,0,0,1,25.95,26.36l-1.46-1Zm-170-40.7-.55.08.55-.08ZM294.82,428.82l-.11.13.11-.13ZM277,432.95l-.07.09.07-.09ZM693.43,667.56l-3.54-22.87c-.54-3.52-1-7.07-1.65-10.58q-3.4-18.41-6.79-36.82c-1.83-9.92-4.42-19.71-6.73-29.54q-1-4.38-2.06-8.76c-.24-1-.44-2.09-.75-3.11l-5.21-16.77q-2.61-8.38-5.21-16.76c-.29-.94-.69-1.84-1-2.75l-3.63-9.5-1.35-3.52q1.86,3,3.65,6a263,263,0,0,1,15.46,30.81c11,26.54,19.33,54.1,25.9,82.07,3.44,14.66,6.53,29.4,9.17,44.22,2.58,14.5,4.75,29.06,6.85,43.63q4,34.23,8,68.46c.84,7.13,1.3,14.29,1.9,21.44q1.79,21.47,3.6,42.93c.61,7.31.92,14.63,1.31,22q1,19.82,2,39.63c.51,9.85.65,19.73,1,29.58.29,9.2.59,18.38.65,27.58.07,11.91.25,23.8-.06,35.7-.44-7.15-.94-14.28-1.55-21.42-1.7-19.94-3.84-39.84-6.28-59.7-5.6-45.61-11.52-91.18-17.48-136.74-2.41-18.46-5-36.89-7.54-55.33-2.67-20-5.62-39.9-8.7-59.79Zm-13.59,14.09.22,1.67c-.08-.55-.15-1.11-.22-1.67ZM743.54,1060l.57.44q-.29-.19-.55-.42l0,0Zm-16.52.77-.18.14.18-.14Z"/><path class="cls-1" d="M451.64,345.52c-12.91,2.58-25.67,5.93-38.3,9.63s-25.1,7.9-37.42,12.51c-11.83,4.43-23.44,9.39-34.9,14.67-5.58,2.57-11.12,5.24-16.64,7.95-6,2.95-12,5.91-17.84,9.11-4.1,2.24-8.13,4.6-12.2,6.88,0,0,0,.05,0,0,5.24-2.32,10.44-4.75,15.71-7l-.19.08c12.73-5.36,25.65-10.33,38.61-15.11,13.12-4.83,26.4-9.18,39.8-13.16,13.61-4,27.35-7.59,41.18-10.83,14.29-3.35,28.71-6.13,43.25-8.13,11-1.45,22-2.56,33.06-2.92a218,218,0,0,1,34,1.25,143.28,143.28,0,0,1,32.68,8.84,103.76,103.76,0,0,1,10.74,5.36,113.3,113.3,0,0,1,11.75,8A198,198,0,0,1,628,406.28a315.56,315.56,0,0,1,27.45,42.87c8.52,15.92,15.57,32.58,22.59,49.2l-.06-.14c4.91,11.71,9.42,23.58,13.72,35.52q3.2,8.86,6.27,17.77c1.74,5,3.55,9.92,5.18,14.92q3.71,11.41,7.43,22.84l11.83,36.36q1.83,5.59,3.64,11.18c2.13,6.55,3.91,13.23,5.78,19.87,5.68,20.18,10.84,40.52,15.18,61q6.37,30.28,10.56,61s0-.08,0-.11l0,.36c0,.14,0,.29.06.42,0-.05,0-.1,0-.15q2.6,19.43,4.28,39c.56,6.35,1,12.72,1.47,19.09q.33,4.77.6,9.55c.16,2.66.4,5.34.45,8q.19,11.78.38,23.57.32,19.11.62,38.22.1,5.76.19,11.52c0,1.13,0,2.23-.08,3.36-1.25,22.1-2.31,44.21-3.29,66.33l-.36,8.46c-.08,1.88-.35,3.76-.53,5.64q-1.72,18.1-3.36,36.2c-.51,5.63-.93,11.26-1.62,16.87q-1.67,13.51-3.29,27l3.78-.76.07-.41q1.48-8.68,2.95-17.38c.64-3.81,1.4-7.62,1.9-11.46q.58-4.33,1.15-8.65,2.45-18.45,4.81-36.91l1.25-9.76c.21-1.66.25-3.36.38-5q2.46-33.72,4.55-67.46c.1-1.54.29-3.12.27-4.67l-.11-8.24q-.24-18.34-.48-36.68-.18-14.36-.38-28.73c0-1.44-.1-2.86-.17-4.29q-.52-10.35-1.25-20.69-1.38-19.89-3.64-39.71c-3-26-7.21-51.85-12.51-77.46s-12.08-51-19.33-76.22c-.68-2.37-1.47-4.72-2.23-7.07l-4.69-14.55q-5.92-18.36-11.84-36.73l-4-12.52c-1.59-4.95-3.33-9.85-5-14.77-4.28-12.36-8.61-24.71-13.25-37-4.51-11.93-9.48-23.68-14.53-35.4-5-11.52-10.19-22.93-16-34a325.21,325.21,0,0,0-19-31.56C632.28,394,616,375.7,596.53,361.59a103,103,0,0,0-14.64-8.8A122.28,122.28,0,0,0,564.5,346a152,152,0,0,0-36.05-6.63q-7.62-.5-15.23-.49c-20.67,0-41.32,2.63-61.57,6.68Z"/><path class="cls-1" d="M757.68,779.19l0-.27,0-.24c0,.17,0,.34.07.51Z"/><path class="cls-1" d="M263.48,306.38c-.79,4.72-1.68,9.39-2.1,14.17-.51,5.69-.69,11.41-.81,17.12-.1,4.29-.15,8.58-.07,12.87q.27,14.88.61,29.76c.3,13.49.85,27,1.47,40.44.57,12.85,1.32,25.68,1.79,38.53.72,19.34,1.65,38.67,2.59,58,.54,10.93.76,21.87,1.05,32.81q.73,26.7,1.44,53.41c.36,13.38.43,26.77.64,40.16s.44,26.94.63,40.41c.45,31.41.76,62.81,1.34,94.21q.8,43.56,1.79,87.13c.32,14.64.53,29.29,1.14,43.93.14,3.32.2,6.67.48,10,.35,4.05.7,8.1,1.07,12.15.14,1.54.46,3.08.7,4.6.39,2.46.77,4.93,1.16,7.4.57,3.57,1.44,7.11,2.19,10.65,1.53,7.29,3.2,14.58,5.18,21.77,0,0,.05,0,0,0-.38-2.29-.72-4.58-1-6.87,0,0,0,.07,0,.1-1.8-14-3.54-28.1-3.7-42.25,0-3.34-.14-6.68-.09-10q.1-6.89.17-13.78c.06-7.16.3-14.32.41-21.48.42-27.56,1-55.12,1.17-82.69.2-32.7-.09-65.4-.33-98.1q-.34-45.84-.84-91.67c-.11-11.39-.45-22.77-.71-34.16q-.57-24.9-1.13-49.8c-.11-4.58-.42-9.16-.64-13.73-.5-10.53-1-21.06-1.55-31.58-.63-11.93-1.28-23.85-2.27-35.76q-2.09-25.25-4.45-50.49c-.66-7-1.16-14-1.75-21Q268,360,266.86,347.34c-.48-5.4-.7-10.84-.92-16.25q-.25-5.92-.2-11.85c0-3.09.3-6.15.57-9.22.27,1.14.46,2.29.75,3.43l1,3.88c.48,1.9,1,3.79,1.45,5.7q2.26,9.31,4.53,18.6s0,0,0,0q-1.39-9.1-2.85-18.2c-.61-3.85-1.36-7.68-2-11.53a16.81,16.81,0,0,0-.82-4.54c-.55-1.41-1.61-1.83-3-2.08l-.34,0a1.52,1.52,0,0,0-1.61,1.14Z"/><path class="cls-1" d="M442.81,338.23A233.6,233.6,0,0,0,411.46,343a221.75,221.75,0,0,0-57.94,21.78,178.74,178.74,0,0,0-47.2,37.6,190.43,190.43,0,0,0-18.08,23.51,85.39,85.39,0,0,0-6.86,12.53,61.68,61.68,0,0,0-4,13.58s0,0,0,0c.51-1.62,1.12-3.19,1.78-4.76,0,0,0,0,0-.06l0,0h0a86.54,86.54,0,0,1,3.77-7.82,71.82,71.82,0,0,1,5.83-8.51,200.19,200.19,0,0,1,16.48-18.23,204.27,204.27,0,0,1,18.79-16.51,195.43,195.43,0,0,1,41.29-24,249.57,249.57,0,0,1,60.89-16.52,268,268,0,0,1,27.39-2,196.11,196.11,0,0,1,28,1.18,154.74,154.74,0,0,1,36.51,9.66A161.76,161.76,0,0,1,551,383.69,188.5,188.5,0,0,1,582.16,415c19.59,25.69,35,54.5,47.64,84.16a431.77,431.77,0,0,1,19.9,59.18A575.26,575.26,0,0,1,662,622.61c1.78,13.43,3.34,26.9,4.09,40.43q.91,16.39,1.81,32.79l.7,12.82c.08,1.26.16,2.52.14,3.79l-.41,27.72q-.12,8.18-.25,16.36l.59,4.48c.14,1.1.37,2.22.44,3.34q.36,5.54.71,11.09,1.34,20.71,2.66,41.42c.53,8.27.19,16.61.2,24.88q0,.16,0,.31c3.58-17.43,6.16-35.07,8-52.76.59-5.64,1.07-11.3,1.5-16.95.2-2.61.44-5.22.51-7.84.1-3.44.17-6.88.26-10.31l.82-33.36q.11-4.53.22-9.06c0-1.53-.12-3.08-.19-4.61l-1.45-31.47c-.37-8-.57-15.94-1.27-23.87-4.07-46.46-11.7-93-27.38-137a459.75,459.75,0,0,0-27.81-62.52q-7.84-14.68-17-28.56A288.55,288.55,0,0,0,589,397.05a175.5,175.5,0,0,0-50.82-41.23,152.3,152.3,0,0,0-31-12.42,172.19,172.19,0,0,0-34.07-5.62c-3.85-.26-7.72-.39-11.58-.39-6.26,0-12.51.31-18.74.82Zm-77.73,34.06-.17.07.17-.07ZM279.21,447.2s0,0,0,.06a.1.1,0,0,1,0-.06Zm382.84,176c.05.4.11.81.17,1.22-.06-.41-.11-.81-.17-1.22Z"/><path class="cls-1" d="M288.61,431.12l.18-.23-.18.23Z"/><circle class="cls-1" cx="279.18" cy="447.26"/><path class="cls-1" d="M454.43,356c10.56.62,21.1,1.65,31.63,2.64,11.75,1.09,23.51,2.16,35.21,3.72l-.3,0a246.93,246.93,0,0,1,31.13,6.47c5.42,1.47,10.82,3,16.18,4.69,5.2,1.64,10.3,3.57,15.34,5.68a138.59,138.59,0,0,1,28.74,16.43,92.19,92.19,0,0,1,14.74,14.83,116.93,116.93,0,0,1,8.69,13.32A158.32,158.32,0,0,1,643,438.49a237.51,237.51,0,0,1,9.74,29.24c1.36,5.06,2.55,10.17,3.69,15.29.7,3.14,1.47,6.28,2,9.44q2.29,13,4.57,25.95c1,5.55,2.1,11.09,2.89,16.67l3.76,26.68q1.41,10,2.83,20,3,24.77,6,49.55c1.59,13.25,2.77,26.56,4.07,39.85q1.2,12.35,2.42,24.71c.48,4.94.6,9.93.88,14.89l1.72,30.69c.11,2.09.23,4.16.35,6.25s0,4,0,5.93l.14,30.42q0,6.55.06,13.1c0,1.5.07,3,0,4.49q-1,24.49-2,49c-.23,5.8-.84,11.61-1.26,17.4l-2,27.29c-.44,5.93-1.15,11.85-1.73,17.77q-1.18,11.9-2.37,23.82c-1.19,12-2.68,24-3.85,36.08q-1.05,10.75-2.12,21.49-.36,3.76-.74,7.53c-.41,4.18-.73,8.37-1,12.56-.13,2.09-.16,4.17-.14,6.26a34.29,34.29,0,0,0,.58,4.76c.18,1.16.37,2.33.54,3.5a8.9,8.9,0,0,0,8.58,6.52,9,9,0,0,0,8.57-6.52,42.63,42.63,0,0,0,1.43-5.37c.38-2,.59-4.13.83-6.19,1-7.06,2.33-14.1,3.57-21.12,1.32-7.5,2.58-15,3.85-22.52.44-2.6,1-5.19,1.31-7.81l1.52-11.18q1.07-7.79,2.12-15.57c.36-2.67.83-5.37,1.09-8.06,1.62-17.15,3.17-34.29,4.51-51.46.26-3.27.51-6.51.61-9.79q.34-11.72.59-23.44.62-28.71.73-57.43c0-2.8,0-5.58-.14-8.39q-.46-13.49-1.05-27-.71-16.55-1.59-33.1c-.57-11-1.38-21.89-2.21-32.83a0,0,0,1,0,0,0c-.65,10.2-1.23,20.42-1.94,30.62q-1,14.57-1.91,29.16c0-.17,0-.34,0-.51L699,697.58c-.08-1.17-.23-2.34-.36-3.51q-.62-5.79-1.25-11.58L693.94,651c-.48-4.48-.91-9-1.48-13.45q-1.62-12.55-3.23-25.11c-1.81-14-3.53-28-5.59-41.89q-2.28-15.42-4.56-30.84c-.67-4.54-1.33-9.07-2.15-13.59-4.08-22.77-7.61-45.69-14-68a221.25,221.25,0,0,0-10.65-29.61,142.16,142.16,0,0,0-6.82-13.34,107.09,107.09,0,0,0-9.2-13.1,82.84,82.84,0,0,0-9.57-10.1,95,95,0,0,0-12.91-9.48,136.11,136.11,0,0,0-28.38-13.09c-10.19-3.51-20.74-5.74-31.31-7.74a252.83,252.83,0,0,0-31.53-4c-10.81-.67-21.65-.82-32.48-1.09-11.87-.3-23.76-.64-35.63-.64a0,0,0,0,0,0,0ZM672.57,582.45l.1.71-.1-.71ZM521,362.29l-.33,0,.33,0Z"/><path class="cls-1" d="M83,354.44c-.16,11.81-.17,23.61-.45,35.42q-.37,15.26-.6,30.51-.42,28.46-.36,56.92c0,3.6-.17,7.22-.26,10.81q-.35,15.23-.54,30.48c-.29,22.45-.35,44.91,0,67.36,0,3.48.17,7,.13,10.44q-.1,9.68-.23,19.37l-.82,69.69c-.06,5.24-.14,10.49-.19,15.74s-.42,10.68-.63,16l-2.7,68c-.51,12.66-1.3,25.31-2,38q-.93,17.72-1.73,35.45c-.21,4.69-.36,9.39-.66,14.09q-1.7,27.15-3.19,54.32c-.51,9.07-1.28,18.13-1.9,27.2-.51,7.54-1.07,15.08-1.61,22.62q-.77,10.5-1.49,21c-.47,7-1,13.93-1.07,20.92,0,0,0,0,.05,0q.15-1.2.32-2.4h0q4.08-26.09,7.59-52.28c0,.2-.05.39-.08.59,2-14.73,4-29.46,5.77-44.21q2.07-17.16,4.07-34.32c.63-5.43,1.31-10.85,1.85-16.28q3.12-31,5.89-62c.39-4.5.86-9,1.13-13.51Q90,783,90.66,771.77q1.9-32.81,3.8-65.64c.68-11.72.8-23.46,1.13-35.2q.93-33.57,1.87-67.15c.28-10,.21-20,.12-30-.2-23.63-.76-47.27-1.58-70.89-.36-10.58-.66-21.17-1.46-31.72q-2.23-29.41-5-58.77Q88.42,400.17,87.2,388c-1.13-11.21-2.66-22.36-4.12-33.52a0,0,0,0,0,0,0,0,0,0,0,0,0,0Z"/><path class="cls-1" d="M508.72,339c-8.87.85-17.69,2.26-26.45,3.88s-17.34,3.49-25.93,5.61c-4.13,1-8.23,2.12-12.32,3.25-1.35.37-2.69.74-4,1.17q-10.64,3.47-21.27,7l-10.38,3.42c-1.08.36-2.18.7-3.23,1.12q-10.25,4.08-20.48,8.21l-10,4c-1.16.47-2.32.93-3.46,1.45q-9.75,4.47-19.48,9Q335.9,394.42,320,401.69q-7.45,3.41-14.89,6.84c-5.21,2.4-10.46,4.69-15.7,7,0,0,0,.05,0,0,26.61-9.43,52.85-19.82,79-30.37l5.59-2.26c1.54-.63,3.15-1.11,4.72-1.67q11.73-4.15,23.43-8.34l5.43-1.95c1.74-.62,3.58-1,5.36-1.56q12-3.51,24-7.07l5.66-1.69c1.18-.35,2.38-.62,3.57-.92q5.15-1.29,10.33-2.48c14-3.22,28.07-5.87,42.25-7.83q13.86-1.82,27.86-2.33a173,173,0,0,1,27.71,1.33,140.8,140.8,0,0,1,17.08,3.44,137.06,137.06,0,0,1,16.88,5.88c3.77,1.62,7.5,3.37,11.14,5.28,4.27,2.23,8.4,4.72,12.47,7.28,7.72,4.87,15.25,10.07,22.49,15.63,5,3.93,9.77,8.07,14.47,12.33a121.87,121.87,0,0,1,13.69,14.28,136.65,136.65,0,0,1,16.38,28A173.65,173.65,0,0,1,687.4,468c2.2,9.59,4,19.29,5.35,29,1.11,8.54,1.89,17.12,2.55,25.71.7,9,1.31,17.94,1.74,26.93s.65,18.11.8,27.16c.1,5.64.26,11.29.19,16.92q-.27,21.82-.55,43.62-.11,8.71-.22,17.42c0,3-.29,6.08-.45,9.11q-1.26,24-2.15,48c-.36,9.44-1.24,18.85-1.92,28.26q-.93,12.9-1.81,25.81c-.26,3.89-.46,7.8-.79,11.69q-3.17,38.11-6,76.25c-.91,11.92-1.75,23.86-2.83,35.77,0,0,0,0,0,0,2-11.66,3.72-23.35,5.5-35q2.6-17.07,5.15-34.15,3.08-20.86,6.07-41.71c.57-4,1-8,1.49-12q1.58-12.8,3.09-25.6,1.27-10.69,2.49-21.37c.28-2.46.48-4.89.66-7.34,1.13-15.94,2.19-31.9,3.1-47.86.18-3.21.48-6.44.53-9.66q.11-8.33.23-16.66.31-22.18.62-44.36c.07-5-.09-10-.17-15-.15-9.06-.39-18.11-.79-27.17s-1-18-1.75-27-1.53-17.81-2.68-26.67-2.73-17.63-4.57-26.37a224.47,224.47,0,0,0-6.5-24.6,135.44,135.44,0,0,0-24.48-44c-5.33-6.38-11.67-11.87-18-17.27a244,244,0,0,0-20.43-15.66c-7-4.86-14.27-9.49-21.74-13.67A162,162,0,0,0,585.7,346c-16.13-5.91-33.44-8.32-50.56-8.49h-1.45c-8.34,0-16.68.66-25,1.46Zm44.72,9.32.88.12-.88-.12Z"/><path class="cls-1" d="M715.56,511.55c.21,9.54.5,19.09.57,28.63q.11,13.76.33,27.51.2,13,.5,26c.07,3,.1,6,.07,9q-.24,26.33-.06,52.68c0,3.33,0,6.61-.18,9.94q-.58,14-1,27.94-.31,9.14-.55,18.27c0,1.73-.29,3.48-.43,5.21q-.52,6.27-1,12.54c-.75,9.51-1.43,19-2.12,28.53-.26,3.53-.53,7.05-.89,10.57q-2.56,24.66-4.86,49.35c-1.31,14.12-2.84,28.22-4.21,42.34q-3.81,39.28-7.31,78.58c-.86,9.65-1.56,19.32-2.23,29-.74,10.74-1.47,21.49-1.82,32.25a0,0,0,1,0,0,0c1.37-13.12,3.18-26.2,4.85-39.28q3-21.36,6.06-42.68c2.06-14.11,4.18-28.2,6.25-42.3,3.74-25.44,7.56-50.86,10.9-76.35Q720.27,785.14,722,771c.43-3.48.85-7,1.18-10.45,1.55-16.19,3.11-32.38,4.5-48.58.09-1.13.09-2.25.13-3.38q.17-5.64.32-11.29.4-14.5.65-29c.06-3.58.17-7.15,0-10.73q-.51-12.24-1.13-24.49-.69-13.91-1.5-27.8c-.19-3.15-.36-6.29-.67-9.43q-2.64-26.34-5.67-52.63c-1.22-10.58-2.71-21.11-4.24-31.65h0s0,0,0,0ZM695.24,960.34l0,.12,0-.12Z"/><path class="cls-1" d="M469,333.91c-4.89.08-9.77.2-14.64.49-5.34.32-10.64,1-15.92,1.84a165.6,165.6,0,0,0-29,7.22,189.3,189.3,0,0,0-27.61,12.35c-4.15,2.24-8.16,4.73-12.14,7.25-3.66,2.34-7.38,4.65-10.93,7.15l-7.93,5.55c-7.05,5-14.12,9.89-21.06,15L316,401c-3.37,2.5-6.66,5.12-10,7.68l-.41.32c-6.34,4.9-12.57,9.94-18.56,15.27-6.68,6-13.39,11.9-19.79,18.16,0,0,0,.05,0,0,5-4.2,10.14-8.18,15.3-12.17l-.11.09,8.69-6.61c3-2.24,6.08-4.28,9.11-6.42,5.58-3.93,11.36-7.56,17.07-11.31,6.32-4.16,12.78-8.13,19.16-12.2,5.54-3.54,11.17-6.92,16.75-10.38,3.6-2.23,7.16-4.53,10.82-6.67,5.43-3.18,10.84-6.39,16.38-9.41s11.18-5.63,16.94-8.09a186.46,186.46,0,0,1,21.83-7.59,188.37,188.37,0,0,1,24.24-4.82q6.67-.83,13.37-1.16c2.44-.12,4.88-.2,7.33-.26s4.9-.19,7.34-.15l10.28.18c6.52.11,13,.2,19.55.44,7,.26,14.09.43,21.13.8L546.57,348c3.48.18,6.94.57,10.41.85l13.35,1.11c1,.08,1.91.23,2.86.36l8.34,1,11.3,1.41c9.49,1.48,18.93,3.21,28.25,5.54a192.5,192.5,0,0,1,27.14,8.94q7.49,3.22,14.72,7a106.68,106.68,0,0,1,14.81,9.48,95.49,95.49,0,0,1,15.55,15.5,117.82,117.82,0,0,1,9.27,14.25,187.64,187.64,0,0,1,8.14,17.07c1.81,4.38,3.5,8.81,5.09,13.28.8,2.23,1.62,4.47,2.3,6.74q1.81,6,3.62,12.06c1.75,5.83,3.63,11.61,5.08,17.52q3.2,13,6.38,26.06c1.47,6,2.64,12.13,3.94,18.19,1.47,6.91,3,13.79,4.22,20.75l4.73,27q1.43,10.8,2.85,21.6c.7,5.23,1.43,10.44,1.93,15.69,1.35,14.13,2.84,28.24,3.83,42.39l2,28.55c.31,4.48.51,9,.72,13.45l1.36,29.08c.08,1.84.25,3.7.26,5.55q0,3.57,0,7.16c0,9.82.05,19.64.13,29.46q0,4.21.08,8.41c0,1.39-.12,2.79-.18,4.17q-.66,14.12-1.22,28.25-.26,6.4-.5,12.82c-.06,1.45,0,2.95-.17,4.39q-3.36,29.85-6.39,59.74-3.64,20.44-7.16,40.91-2.05,12-4.07,24c-1.66,9.94-3.94,19.75-6,29.62,0,0,0,0,0,0,1.44-4.84,2.92-9.67,4.36-14.52,1-3.28,2-6.57,2.8-9.89.46-1.87.91-3.75,1.38-5.63q3.19-13.1,6.31-26.22,3.34-14,6.6-28c.79-3.39,1.75-6.77,2.27-10.21q3.89-25.76,7.53-51.57l1-6.94c.22-1.56.3-3.11.4-4.67q.87-13.86,1.66-27.72.37-6.63.73-13.27c.1-1.69.28-3.39.27-5.09q0-10.84-.12-21.68l-.2-23.35c0-1.51-.14-3-.21-4.53q-.32-6.66-.64-13.32-.62-12.74-1.24-25.47c-.26-5.53-.73-11.06-1.1-16.58l-1.7-25.07c-.42-6.17-1.1-12.33-1.65-18.49l-1.29-14.49c-.17-1.84-.28-3.7-.51-5.54q-1.52-12.5-3-25-.56-4.61-1.12-9.21c-.3-2.43-.75-4.86-1.14-7.28q-2.1-13-4.2-26c-.27-1.71-.66-3.4-1-5.09q-1.44-7.12-2.87-14.24c-1.14-5.63-2.2-11.27-3.51-16.86q-3.07-13.07-6.15-26.12c-.39-1.66-.88-3.29-1.35-4.93q-2-7-4.07-13.92l-2.92-10c-1-3.51-2.37-7-3.63-10.41-1.82-5-3.82-9.93-6-14.8-1.9-4.33-3.9-8.61-6.08-12.79A112.43,112.43,0,0,0,705.35,396a113.74,113.74,0,0,0-8.58-10.73,90.1,90.1,0,0,0-11.07-10.13A114.09,114.09,0,0,0,674,366.94a148.23,148.23,0,0,0-13.5-7,195.23,195.23,0,0,0-28.17-10.68,274.28,274.28,0,0,0-44.11-8.54c-6.82-.82-13.64-1.81-20.49-2.37l-14.33-1.16c-2.4-.2-4.81-.45-7.22-.57l-24.46-1.28c-7.29-.39-14.61-.56-21.91-.83-6.62-.25-13.25-.33-19.87-.46-2.91-.06-5.83-.15-8.74-.15l-2.15,0Zm-25.71,13-1,.13,1-.13Zm-46.22,12.51-.65.27.65-.27ZM647.82,367l.22.09-.22-.09Zm62.92,63.53.47,1.1-.47-1.1Z"/><path class="cls-1" d="M265,290.87q-.52,2.84-1,5.7-1.55,9.61-3,19.25-2.58,16.87-4.93,33.76c-.49,3.54-.76,7.1-1.1,10.65q-1,11-2,21.94c-.88,10.31-1.71,20.64-2.43,31-1.38,19.84-2.33,39.69-3.4,59.55-1.13,21.11-1.65,42.23-2.58,63.33-1.89,42.41-3.7,84.83-6.26,127.21q-4,67.27-8,134.54c-.66,11.09-.93,22.22-1.4,33.32-.39,9.2-.91,18.42-1,27.63-.12,21.33-.32,42.69.48,64q.43,11.43.93,22.84c.17,4,.24,8,.54,12q.61,8.54,1.28,17.06c.35,4.57.5,9.21,1.1,13.76q1.35,10.16,2.75,20.31c.65,4.7,1.62,9.35,2.5,14,1.87,9.85,3.76,19.7,6,29.46.54,2.33,1.1,4.66,1.71,7,0,0,.05,0,0,0-1.37-10.23-2.21-20.55-3.1-30.84q-.75-8.74-1.56-17.48c-.18-2-.18-4-.27-5.94q-.27-5.93-.57-11.86c-.54-10.88-.23-21.81-.27-32.71,0-10.19.45-20.4.66-30.58.17-8.35.3-16.69.7-25q1-21.29,1.77-42.57c.28-7.87.88-15.72,1.35-23.58.78-13.19,1.45-26.38,2.18-39.57.45-8.25,1.22-16.49,1.84-24.72q1.55-20.52,3.09-41c1.64-21.69,3.36-43.38,5-65.08,3.26-42,6.16-84.06,9-126.1,1.45-21.45,2.72-42.91,3.58-64.39.84-20.86,1-41.74,1-62.61,0-21-.47-42.07-1.13-63.09-.08-2.42,0-4.84,0-7.27q0-10.59-.05-21.18c-.08-11.07-.43-22.16-.38-33.23l-3.17.57Z"/><path class="cls-1" d="M90.25,317.73a63.86,63.86,0,0,0-5.1,4.91,26.7,26.7,0,0,0-3.51,5.51,87.26,87.26,0,0,0-6.25,16c-1.75,5.79-3.15,11.7-4.38,17.62-.86,4.16-1.69,8.36-2.32,12.56q-1.19,7.93-2.36,15.87c-.56,3.82-1.25,7.65-1.66,11.48Q63,416.82,61.48,432c-.25,2.48-.59,5-.74,7.45q-.33,5.59-.66,11.17-1,17.75-1.94,35.5c-.26,5-.28,10-.32,15.05q-.11,18.5,0,37,0,7.62.1,15.23c0,1.78-.06,3.57,0,5.35q1.69,30.09,3.4,60.2.4,6.87.78,13.74c.09,1.55.13,3.11.26,4.66q.73,8,1.46,15.9-.09,6.93-.09,13.86,0,34.81,0,69.61c0,13.1.36,26.18.66,39.27.44,19,1,38,1.31,57,0,1.95.24,3.91.36,5.85L67,853.44q1.16,18.91,2.3,37.81.43,7.17.87,14.34c.11,1.81.14,3.63.32,5.44.79,7.77,1.64,15.53,2.46,23.3L76.67,970c.56,5.34,1.22,10.65,2,16q2.85,20.42,5.7,40.84c1.2,9.61,2.36,19.22,3.54,28.83a199.19,199.19,0,0,1,1.27,22.57c0,4.44-.23,8.92-.63,13.34-.3,3.32-.67,6.66-.87,10a30.93,30.93,0,0,0,.61,8.34,8.87,8.87,0,0,0,2.1,3.66,7.56,7.56,0,0,0,3.82,1.94,7.67,7.67,0,0,0,8.33-3.66,17.84,17.84,0,0,0,1.45-3.41c.16-.76.28-1.52.37-2.29q.24-1.61.39-3.22c.31-3,.21-6,.25-9,0-1.76,0-3.51,0-5.27q-.08-14.36-.26-28.72c-.1-9.18-.45-18.35-.67-27.53-.18-7.3-.58-14.59-.9-21.88q-.6-13.74-1.19-27.47c-.32-7.38-1-14.74-1.44-22.11-1.1-16.81-2-33.66-3.32-50.46q-2.52-32.52-5-65c-2.77-35.83-5.89-71.63-8.92-107.43Q79,688,74.87,638c-.28-3.36-.43-6.73-.58-10.11q.1-10.1.19-20.2c.1-9.48.2-19,.26-28.44,0-5.07.29-10.13.45-15.2q.58-18.53,1-37.07c.14-5.55.19-11.09.47-16.64.92-18.2,1.65-36.41,2.7-54.61.85-14.65,1.53-29.31,2.37-44q.66-11.53,1.16-23.09c.15-3.49.37-7,.57-10.47.23-3.91.42-7.84.9-11.74v0a10.64,10.64,0,0,1,.38-2,5.3,5.3,0,0,1,.91-1.58h0l.7-.61h0l.77-.55s0-.06,0,0a9,9,0,0,0-1.64,1,6,6,0,0,0-1.2,1.54,9.28,9.28,0,0,0-.73,2.09c-.26.91-.5,1.82-.7,2.74-.48,2.27-.92,4.53-1.34,6.82-.76,4.17-1.24,8.4-1.75,12.6-1,8-1.57,16.05-2.36,24.08s-1.46,16-2.24,24.07q-1.42,14.55-2.71,29.13c-.83,9.18-1.56,18.36-2.31,27.55L70,494.41c0-2,0-3.91,0-5.87q.28-16.87.44-33.72c.06-6.5,0-13,.29-19.48q.46-10.59.88-21.17c.17-4.22.18-8.48.5-12.7,1-13.95,1.77-27.93,3.54-41.82,0,.09,0,.17,0,.26,1.44-10.6,3.29-21.26,7.22-31.25l-.07.16a31,31,0,0,1,3.65-6.69c1.24-1.49,2.51-3,3.84-4.37a0,0,0,0,0,0,0ZM83,919.19c-.45-4.27-.89-8.5-1.16-12.78L79.8,874l-2.18-34.23c-.24-3.8-.45-7.58-.56-11.38q-.68-23.62-1.36-47.24c1.23,12.69,2.48,25.37,3.6,38.07q2.65,30,5.31,60.1c1.22,13.76,2.5,27.51,3.54,41.28q2.35,31.06,4.7,62.11c.15,1.94.19,3.9.28,5.85q.39,8.68.78,17.36l.35,7.69c-.51-3.58-1-7.16-1.53-10.74Q91,990.16,89.21,977.49c-2-19.44-4.13-38.87-6.18-58.3Zm1.37,108.17.09.62-.09-.62Zm-8.73-667.7,0-.3,0,.3Z"/><path class="cls-1" d="M273.27,290.54c-.71,12.43-1.35,24.87-2.12,37.3q-1.11,18.25-2,36.51c-.3,5.93-.45,11.88-.88,17.8q-1,13.18-1.82,26.36c-2.47,37.89-4.38,75.83-5.49,113.78-.94,32.3-1.62,64.6-2.39,96.91-.43,17.82-1,35.64-1.47,53.46-.38,13.86-.69,27.72-1.19,41.57q-1.18,32.63-2.35,65.27c-.59,16.26-1.44,32.51-2.18,48.75s-1.36,32.44-2,48.67q-.32,8.47-.63,16.93c-.08,2.15-.2,4.31-.23,6.45q-.23,15-.46,29.92c-.1,6.75-.19,13.47-.12,20.21q.14,13.49.27,27c.09,8.49.34,17,.24,25.47q-.08,7.75-.17,15.51c0,3.93-.34,7.87-.51,11.8q-.06,1.43-.17,2.86a8.42,8.42,0,0,0-3.43,2.17,10.41,10.41,0,0,0-2.67,4.41,20.51,20.51,0,0,0-.66,4.5c0,.48.08,1,.12,1.45a32.9,32.9,0,0,0,.49,3.34,13.77,13.77,0,0,0,.68,2.23,20.56,20.56,0,0,0,2.07,4.19l.06.48c.32,2.43.64,4.87,1,7.29.12.85.29,1.72.44,2.57s.3,1.56.49,2.34a16.27,16.27,0,0,0,1.19,2.76,5.62,5.62,0,0,0,7.68,2,6.06,6.06,0,0,0,2.58-3.36c1.29-3.29,1.36-6.91,1.66-10.4a11.5,11.5,0,0,0,4.66-6.47,31.85,31.85,0,0,0,.51-4.93q0-2.39-.2-4.78c-.17-2.14-.33-4.28-.53-6.42q-.71-7.79-1.36-15.58.24-3.34.45-6.68,1.69-26.82,3.39-53.65c.39-6.17.68-12.35,1-18.53q1-18.66,2-37.31,1-18.15,2-36.29c1.92-34.71,4-69.41,5.7-104.12,1.84-37.3,3.36-74.61,4.81-111.93L283.46,609q.41-10.68.82-21.36.27-7,.56-14.06c.12-2.89.34-5.79.36-8.68a0,0,0,0,0,0,0c-.15,3.47-.54,6.94-.82,10.41l-1.11,13.79q-1.19,14.64-2.4,29.29-2.21,26.86-4.39,53.72-4.16,51.07-7.75,102.19c-2.43,35-4.57,70-6.85,105-1.29,19.83-2.47,39.67-3.71,59.51q0-.51,0-1,.06-17,.11-34c0-6,.31-12,.53-18l1.25-34.4c.19-5.06.48-10.1.75-15.15q1-18.2,2-36.42,1.16-21.64,2.23-43.29c.82-16.52,1.76-33,2.47-49.57q1.36-31.5,2.71-63,2.27-52.63,4.33-105.26c.57-14.16,1.26-28.32,1.77-42.48.55-15.56,1-31.11,1.28-46.67q.52-32,.42-64.06c0-4.5-.19-9-.36-13.5q-.68-18.14-1.53-36.26-.39-8.27-.82-16.56c-.48-9.56-1.24-19.1-1.92-28.64a0,0,0,0,0,0,0,0,0,0,0,0,0,0Z"/><path class="cls-1" d="M489.56,348.28a314.07,314.07,0,0,0-38.45,6.57l-26.53,6c-1.48.33-2.92.77-4.38,1.19l-13.34,3.82q-7,2-14,4.07c-3.88,1.14-7.68,2.4-11.51,3.75-19.1,6.73-37.86,15-54.58,26.53A146.49,146.49,0,0,0,304.5,419a124.31,124.31,0,0,0-17.43,23.21c-5,8.43-8.7,17.57-12,26.75-1.44,4-2.67,8-4,12-2.15,6.45-4,13-6,19.5-1,3.17-2,6.33-2.81,9.56,0,.18.23.32.32.13,1-2.26,2-4.54,3.05-6.82,0,0,0-.05,0,0-.79,1.59-1.57,3.2-2.37,4.79.82-2.49,1.76-5,2.65-7.42,1.19-3.31,2.39-6.61,3.61-9.91,1.1-3,2.15-5.93,3.33-8.86q2.18-5.41,4.38-10.82c2.46-5.58,5.06-11.05,8-16.38a127.74,127.74,0,0,1,10-15.26,125.26,125.26,0,0,1,21.17-21,162.3,162.3,0,0,1,19.19-12.57A212.62,212.62,0,0,1,356,396a319.1,319.1,0,0,1,40.34-13.71c9.16-2.44,18.29-5,27.44-7.47,5.25-1.44,10.59-2.47,15.91-3.62l22.58-4.87c3.2-.68,6.47-1.16,9.7-1.71s6.5-1.06,9.76-1.51c6.67-.86,13.38-1.4,20.1-1.72a105.92,105.92,0,0,1,34.19,3.5A98.33,98.33,0,0,1,547.9,369a104.54,104.54,0,0,1,20.81,12,130.46,130.46,0,0,1,21.08,21.22c4.13,5.47,7.88,11.2,11.57,17,3.93,6.15,7.59,12.45,11.08,18.85s7,13.13,10.39,19.77c8,15.72,16.12,31.38,23.09,47.6q5,12,9.32,24.31c3.11,8.88,5.77,17.91,8.16,27a463.15,463.15,0,0,1,10.46,53.11c1.62,12.16,3.07,24.36,3.94,36.59q1,14.32,2,28.62l1.59,22.45c.32,4.62.42,9.26.61,13.9.64,15,1.43,30,1.93,45,.55,16.78,1.16,33.55,2,50.33,1.33,27.93,2.78,55.84,4.56,83.75s3.4,55.62,5.14,83.43q.75,12,1.47,23.95s0,0,0,0q1.63-44.35,2.64-88.74c.64-29.37.87-58.77.91-88.15q0-38.1-1.23-76.2-.51-15.25-1-30.51-.2-6-.4-12c0-1.4-.05-2.8-.14-4.19q-1.56-24.73-3.14-49.47l-.45-7.15c-.2-3-.58-6.07-.89-9.09q-.83-8.22-1.81-16.43a486.57,486.57,0,0,0-11.42-62.49,374.93,374.93,0,0,0-20.61-58.74c-5-11.38-10.65-22.49-16.39-33.52-4-7.6-7.82-15.26-11.93-22.78-4.87-8.9-9.77-17.79-15.32-26.29a225.84,225.84,0,0,0-18-24.72,132.65,132.65,0,0,0-21.65-19.77A107.71,107.71,0,0,0,550,353.86c-9.62-3.62-19.75-5.42-30-6.41-3.25-.31-6.49-.44-9.74-.44-6.93,0-13.86.59-20.76,1.27ZM674,610.77l.13,1-.13-1Z"/><path class="cls-1" d="M92.72.6A48.39,48.39,0,0,0,83.28,3a66,66,0,0,0-16.56,8.71q-3.4,2.44-6.59,5.14a29.18,29.18,0,0,0-4,1.33,48.55,48.55,0,0,0-7.87,4.13c-2.53,1.62-4.89,3.53-7.25,5.38a67.05,67.05,0,0,0-7.39,6.88A135.24,135.24,0,0,0,22.09,49,159.51,159.51,0,0,0,11.9,66.26C9.09,71.54,6.62,77.06,4.15,82.5A52.78,52.78,0,0,0,.93,91.67a36.37,36.37,0,0,0-.85,5.46,30.35,30.35,0,0,0,3.4,16.13,21.35,21.35,0,0,0,3.11,4.42,16.8,16.8,0,0,0,4,3.4,49.11,49.11,0,0,0,4.77,2,25.31,25.31,0,0,0,5.35.94,35.37,35.37,0,0,0,8.93-.13c.39.11.78.21,1.15.29,6.32,1.41,12.63-.79,17.8-4.4a50.06,50.06,0,0,0,5-4.07,124,124,0,0,0,14.45-8.32A143.33,143.33,0,0,0,97.94,81.26a137.66,137.66,0,0,0,11.63-15.83A121.94,121.94,0,0,0,118.67,47c1.13-2.74,2.15-5.49,3.08-8.3s1.9-5.77,2.64-8.71a27.5,27.5,0,0,0,.17-11.24,19.28,19.28,0,0,0-4.84-10.43A27.79,27.79,0,0,0,104.19.54,41.29,41.29,0,0,0,98.5,0h-.23a40.39,40.39,0,0,0-5.55.6Zm9.14,21.51a7.35,7.35,0,0,1,.56.73l-.56-.73ZM102,23q.32.22.62.46v0L102,23Zm-1.58.24c.78.18,1.54.38,2.3.63l0,.19c0,.38,0,.76,0,1.13a104.42,104.42,0,0,1-5,15.93c-1.65,3.69-3.42,7.3-5.39,10.83a89.93,89.93,0,0,1-6.57,9.87c.87-3,1.6-6,2.25-9s1.19-6.11,1.72-9.16a33.74,33.74,0,0,0,.22-10,19.66,19.66,0,0,0-2.32-7.33l1.19-.58a49.56,49.56,0,0,1,8.36-2.48,27.26,27.26,0,0,1,3.21,0Zm-24,10.5c-.23,3.33-.51,6.65-.9,10a93,93,0,0,1-5.61,21.18c-2,4.5-4.22,8.86-6.5,13.21-1.69,3.23-3.48,6.39-5.47,9.43q-3.11,2.08-6.33,4l-.81.47a9.26,9.26,0,0,1-1-.78l.46.36a12.12,12.12,0,0,1-1.42-1.44,9.16,9.16,0,0,1-.89-1.56,51.93,51.93,0,0,1-2.15-8.33Q46.6,78,47.5,75.8c2.29-5.27,4.84-10.45,7.59-15.49A118.76,118.76,0,0,1,64.4,46.18a95.16,95.16,0,0,1,12-12.46ZM43.23,87a19.88,19.88,0,0,0,1.9,5.48,8.54,8.54,0,0,0,1.39,1.85c-2.12,1.09-4.27,2.12-6.44,3.1.88-3.52,2-7,3.16-10.43Zm4.45,1.09.2.48q-.11-.24-.2-.48Z"/><path class="cls-1" d="M69.93,299.78c-1.44,5.33-2.93,10.64-4.33,16-.62,2.4-1.26,4.8-1.74,7.22s-1,5-1.47,7.56q-3,15.42-5.79,30.87Q53.92,376.2,51.41,391c-.6,3.57-1.18,7.09-1.49,10.68q-2.56,30-4.37,60.06-.71,11.9-1.28,23.8c-.18,3.79-.05,7.59,0,11.39.27,18.65.84,37.29,1.5,55.93.06,1.64.23,3.28.35,4.91q.56,7.56,1.13,15.11,1,13.27,2.09,26.53c1.13,14.17,2.55,28.31,3.78,42.48,1.26,14.63,2.49,29.26,3.51,43.9,0,0,.05,0,.05,0,.35-16.48.56-33,.76-49.46.17-13.9.18-27.81.34-41.7q.19-16.11.3-32.21c0-4.54,0-9.08.2-13.62.68-19.49,1.27-39,1.43-58.5,0-3.32.21-6.64.36-10q.66-14.72,1.1-29.46.8-26,1-52.09c0-.85.13-1.7.2-2.54q.39-4.67.76-9.35,1.19-15,2.21-30,.94-13.75,1.72-27.5l.34-6.18c.14-2.38.43-4.75.69-7.13.58-5.44,1.28-10.87,1.87-16.31a0,0,0,0,0,0,0l0,0Z"/><path class="cls-1" d="M98.44,311.57c-1.47,5.55-3,11.08-4.23,16.68q-1.77,7.76-3.5,15.55-1.82,8.18-3.6,16.37c-.42,1.89-.88,3.78-1.19,5.69Q83.37,381,81,396.23q-.71,4.45-1.41,8.92c-.54,3.45-.81,6.94-1.19,10.41q-1.5,13.7-2.88,27.42c-.36,3.46-.54,6.94-.8,10.41q-.65,8.72-1.25,17.43c-1.07,15.18-1.76,30.38-2.61,45.57C70,532,69.43,547.6,68.54,563.2q-.91,16-1.82,32.06c-.39,6.91-1,13.81-1.5,20.71-1.33,17.88-2.85,35.73-4.4,53.59-.57,6.55-1.05,13.12-1.55,19.68q-.65,8.6-1.31,17.2c-.16,2.15-.36,4.3-.47,6.45q-.74,15.36-1.47,30.7c-.32,6.71-.43,13.41-.55,20.12-.14,7.85-.49,15.73-.31,23.59q.34,14.28.84,28.56c.12,3.41.53,6.83.8,10.24q.63,8,1.31,15.92c.22,2.59.56,5.17.87,7.75q1,8.47,2,16.92c1,8.5,2.46,16.95,3.79,25.41,1.26,8.06,2.63,16.1,4,24.14,1.5,9,2.6,18.06,3.85,27.09,2.16,18.76,4.59,37.51,6.21,56.32,0,0,.05,0,.05,0,.16-17.74-.17-35.48-.36-53.21-.09-8.23-.49-16.46-.78-24.68s-1-16.18-1.54-24.26q-.86-12.46-1.78-24.92c-.6-8.18-.93-16.4-1.41-24.59-.46-8-.61-16-.9-24-.1-2.87-.3-5.75-.29-8.62q0-7.14,0-14.27c0-7.29-.08-14.57.09-21.85.23-9.7.38-19.39.57-29.09.05-2.8.26-5.6.39-8.39l.84-17.92c.3-6.4.63-12.76,1.1-19.15q2-27.15,4.25-54.27c1.44-17,2.64-34,3.89-51,.54-7.28.86-14.6,1.28-21.89.39-7,.85-13.95,1.17-20.92.76-16.71,1.55-33.41,2-50.13q.69-27.59,1.1-55.19c.11-6.7.32-13.38.57-20.08q.32-8.8.58-17.59c.08-2.46.05-5,.23-7.41q.85-11.87,1.65-23.74.43-6.52.84-13c.09-1.47.15-2.94.31-4.41q1.39-12.9,2.71-25.81.6-6,1.19-11.94c.51-5.27,1.25-10.51,1.9-15.76a0,0,0,0,0,0,0l0,0Z"/><path class="cls-1" d="M277.35,324.93c-1.34,8-2.86,15.92-3.91,23.94q-.85,6.48-1.69,13-2.63,20.39-5.16,40.79c-.7,5.64-1.49,11.27-1.93,16.94q-1.38,18.12-2.69,36.26-1.11,15.54-2.16,31.08c-.51,7.58-.7,15.19-1,22.78q-1.24,28.84-2,57.67-.76,29.87-1.48,59.73-.74,30.46-1.81,60.89c-1.26,36.48-3.7,72.91-6.67,109.28-3.18,39-5.86,78.1-5,117.21.38,17.39,1.31,34.75,2.55,52.1.63,8.83,1.36,17.65,2.15,26.47q.51,5.7,1.06,11.4.29,3.07.6,6.15a39.9,39.9,0,0,0,1.16,7.93.06.06,0,0,0,.09,0,1.06,1.06,0,0,0,.36-.31s0-.05,0,0l-.19.15h0l-.12.06a40,40,0,0,1,.43-8.32q.4-4,.79-8,.66-6.72,1.19-13.46,1.1-13.61,1.68-27.29.66-15.47.91-31c.14-8.19.2-16.4.43-24.59.27-9.73.42-19.47.76-29.2q.31-8.71.52-17.4c.11-3.86.4-7.73.59-11.58.44-9,.79-18.06,1.32-27.08q.85-14.66,1.56-29.33c.94-19.56,1.83-39.12,2.54-58.7.33-9.28.81-18.57,1-27.85q.34-17.19.7-34.4c.4-19.84.67-39.67,1-59.51.29-19.35.74-38.7,1.13-58s1-38.83,1.44-58.24c.39-18.85,1.38-37.68,2-56.51q.37-10.82.73-21.64c.06-1.89.29-3.79.44-5.68L271.76,395q1.34-18,2.59-35.95c.25-3.48.48-7,.73-10.45.54-7.91,1.54-15.79,2.32-23.67a0,0,0,0,0,0,0,0,0,0,0,0,0,0Z"/><path class="cls-1" d="M276.65,529.47c-3.28,16.53-7.29,32.9-10.69,49.4-.36,1.73-.57,3.5-.85,5.24-.38,2.31-.86,4.63-1.1,7-.39,3.88-.91,7.78-1.11,11.67q-.35,6.85-.66,13.71c-.2,4.44-.11,8.9-.15,13.34-.08,8.61.19,17.21.39,25.82.2,8.4.82,16.79,1.31,25.17.45,7.74,1.19,15.45,1.9,23.16q1,10.89,2.17,21.76c3.61,32.84,8.11,65.58,11.09,98.5q1.26,13.85,2.51,27.72c.28,3.11.42,6.25.63,9.37q.6,9,1.21,18.1c.42,6.29.81,12.55,1,18.85q.53,16.07,1.29,32.15c.08,1.7.08,3.39.08,5.09q0,7.78.06,15.56c0,7.19.35,14.41.05,21.6q-.54,13.67-1,27.35c0,1.07-.2,2.15-.3,3.2l-.75,8q-.57,6.14-1.13,12.26l-1.28,8.19c-.46,3-.81,6-1.39,8.89q-1,3.32-1.95,6.64c-.88,3.08-1.77,6.17-2.61,9.26-1.31,4.84-2.92,9.67-3.18,14.7a2,2,0,0,0,3,1.69,14,14,0,0,0,1.48-1.08,6.82,6.82,0,0,0,1.44-2.43,26.1,26.1,0,0,0,1-2.78c.45-1.31,1-2.59,1.41-3.88,1.13-3.17,2.11-6.38,3.08-9.59,1.16-3.81,2.46-7.6,3.45-11.46l3.92-15.26c.79-3.1,1.24-6.29,1.81-9.44q1.36-7.47,2.71-14.94c.58-3.2.79-6.48,1.16-9.71q1-8.77,1.93-17.55c.23-2.16.49-4.31.6-6.48q.77-15.88,1.41-31.76c.27-6.6.06-13.19-.06-19.8q-.16-8.9-.38-17.8c-.06-2.5,0-5-.21-7.53l-2-29.34c-1.08-15.64-2.68-31.24-4.13-46.86-.88-9.39-2.09-18.75-3.14-28.12-.79-7.1-1.65-14.2-2.49-21.29q-3-24.94-6.29-49.83c-1.15-9.08-2.21-18.16-3.38-27.24-1-7.93-1.69-15.91-2.53-23.86-.87-8.18-1.47-16.37-2.13-24.57-.64-7.87-1-15.76-1.47-23.64-.23-3.93-.2-7.89-.32-11.83-.1-3.48,0-7,0-10.44,0-7.07.51-14.14,1-21.19s1.22-14.33,1.84-21.5c.65-7.37,1.29-14.74,1.88-22.1a0,0,0,0,0,0,0,0,0,0,0,0,0,0Z"/><path class="cls-1" d="M238.89,315.28a3.37,3.37,0,0,0-.31,2.76c.2,1.31.43,2.61.63,3.91.22,1.46.47,2.91.72,4.36.22,3.82.29,7.65.36,11.48q.16,8,.33,16.08c.17,7.89,0,15.79.08,23.68q.07,21.18-.11,42.35-.24,26.67-.42,53.34-.14,20.62-.09,41.24c0,9.7.15,19.41.26,29.12.09,7.77.08,15.54.16,23.3q.26,25.15.92,50.29c.38,14.65.7,29.3,1.17,43.95.1,3.06.08,6.13.12,9.19q.11,8.54.26,17.07c.11,6.66.12,13.28.07,19.94q-.07,8.82-.11,17.62c0,5.35-.39,10.72-.57,16.06-.18,4.92-.51,9.82-.82,14.73-.34,5.29-.72,10.58-1.37,15.84a58.47,58.47,0,0,1-1.14,6,36.57,36.57,0,0,1-1.81,5.15s0,0,0,0a48,48,0,0,0,2.35-5,54.2,54.2,0,0,0,2.1-7.28c.56-2.33,1-4.71,1.44-7.06.74-3.75,1.4-7.5,2.06-11.27,1.44-8.22,2.57-16.48,3.75-24.74.38-2.61.63-5.22.92-7.84q.9-8.41,1.78-16.83c.7-6.66,1.16-13.34,1.62-20,.51-7.47,1.18-14.94,1.47-22.41q.6-14.85,1.09-29.7c.52-15.82.71-31.65.84-47.47.11-13.87,0-27.76-.32-41.64-.36-17.43-.79-34.85-1.42-52.27-.52-14.38-1-28.78-1.77-43.15q-1.39-26.26-3.3-52.49c-.86-11.75-2-23.49-3.09-35.22-.48-5.09-1.17-10.15-1.8-15.22q-.61-5-1.24-9.94a123.36,123.36,0,0,0-3.45-17.77.71.71,0,0,0-.7-.54.84.84,0,0,0-.69.36Z"/><path class="cls-1" d="M226.82,312.63a4.5,4.5,0,0,0-1.59,1.35,8.59,8.59,0,0,0-1.42,2.4,69.14,69.14,0,0,0-2.89,9.57c-.71,3.06-1.09,6.16-1.52,9.27-.23,1.73-.52,3.45-.62,5.19-.38,6.47-.74,12.93-1,19.41a0,0,0,1,0,0,0c.64-6.8,1.43-13.58,2.19-20.36l1.46-7.69a72.18,72.18,0,0,1,4-13.5,14.58,14.58,0,0,1,1.47-2.54l.51-.53.2-.1h.12l.4.16.54.34.37.34a10.8,10.8,0,0,1,1.13,2,57.7,57.7,0,0,1,2.15,10c.61,5.14.83,10.33,1.12,15.5.33,6,.41,12,.47,18.05,0,4.7.08,9.39.07,14.09q-.07,16.11-.06,32.21,0,24,.24,48c0,5,0,10,.2,15.05.3,9.14.66,18.28,1,27.42.56,14.59,1,29.19,1.75,43.78q2.61,51.92,5.18,103.84c.32,6.54.48,13.09.7,19.63l1.07,29.78c.2,5.73.22,11.47.31,17.21q.26,15.74.51,31.5c.09,5.41.07,10.83.08,16.25q0,15.74.08,31.49c0,15.46-.13,30.92-.08,46.39.09,31.06-.08,62.12.26,93.19.17,16.16.45,32.3,1.07,48.44.12,3.32.26,6.63.49,9.94.29,4,.5,8,.91,11.93.84,8,1.82,16,3.05,24,.54,3.54,1.17,7.07,1.83,10.59,0,0,0,0,0,0-.57-8.24-.82-16.48-1-24.74s0-16.26.11-24.39c0-3.83.24-7.67.35-11.5.09-3,.16-6,.26-9.07.25-7.68.43-15.36.65-23q1.44-51.15,1.49-102.32c0-31.28-.55-62.55-1-93.83-.1-7.11-.32-14.23-.49-21.34q-.33-14.13-.65-28.26c-.14-6.2-.47-12.4-.7-18.6l-1.18-30.58C250,632.24,249,616,248.24,599.86q-1.17-23.57-2.35-47.14c-.68-13.65-1.24-27.29-1.76-41-.42-11.14-.83-22.27-1.28-33.41-.17-4.27-.38-8.54-.47-12.81q-.54-25.21-1.3-50.42c-.6-20.67-1.05-41.37-2.37-62-.41-6.35-1.07-12.67-1.78-19a67,67,0,0,0-3.74-17,7.44,7.44,0,0,0-2.85-3.79,5.93,5.93,0,0,0-2.57-.89,1.82,1.82,0,0,0-.94.24Zm3.56,5.42.08.18-.08-.18Zm-4.75.08-.05.13.05-.13Zm-.06.14-.07.14.07-.14Z"/><path class="cls-1" d="M101.48,345.21l-.27.65v0C98.82,351.46,96.11,357,94,362.7c-1.07,2.92-1.9,5.92-2.74,8.9-.92,3.26-1.75,6.54-2.52,9.83-1.5,6.36-2.77,12.78-4,19.21q-.85,4.65-1.66,9.29c-.45,2.58-1,5.15-1.31,7.74l.07-.53c-2.66,19.52-5.13,39.06-7.57,58.61q-.77,6.21-1.53,12.42c-.15,1.2-.32,2.4-.43,3.61q-.93,11.06-1.84,22.14c-1.63,20.15-3.08,40.32-4.44,60.5-1.16,17.26-2.16,34.53-3.17,51.79q-1.43,24.29-2.74,48.59-1.3,23.79-2.59,47.58c-.07,1.26-.14,2.52-.21,3.79a0,0,0,1,0,0,0q2.41-24.87,4.87-49.74,2.37-24.28,4.67-48.57,2.48-26.53,4.84-53.08,2.65-29.56,4.93-59.15.9-11.75,1.73-23.52c.08-1.06.2-2.11.31-3.16q.61-5.83,1.21-11.66,3-29.67,5.83-59.39c.08-.82.2-1.64.32-2.46q.64-4.93,1.3-9.87v.12c1.42-10.55,3-21.08,5.19-31.49a127.09,127.09,0,0,1,3.82-14.48c1.63-4.82,3.62-9.51,5.32-14.31.58.23,1.17.42,1.75.66h0l.41.23,0,0,.3.3.13.33h0l.07.85s0,0,0,0c0-.3.1-1-.15-1.25a5.52,5.52,0,0,0-2.13-1.21l-.42-.21h-.07a.16.16,0,0,0-.14.11Zm.63.12h0ZM87.36,405.86l0-.15,0,.15Zm13.86-60v0Z"/><path class="cls-1" d="M496.94,338.79c-2.76.06-5.52.11-8.27.25l-15.32.82c-3,.16-6,.19-8.91.5q-12.39,1.3-24.77,2.71c-5.49.63-10.95,1.73-16.35,2.83-5.68,1.15-11.31,2.53-16.9,4.07-5.79,1.59-11.46,3.43-17.11,5.46Q382,358,374.69,360.71c-3,1.08-5.86,2.47-8.75,3.76l-11,4.92c-1.56.71-3.11,1.39-4.6,2.21-6.37,3.48-12.83,6.85-19,10.65-13.72,8.44-26.65,18.39-37.22,30.6a138.92,138.92,0,0,0-13.77,19c-4.22,7-7.89,14.3-11.5,21.6,0,0,0,.05,0,0,4.55-6.79,9.16-13.54,14.12-20a149.15,149.15,0,0,1,25.21-25.4A184,184,0,0,1,327,395.62c4.46-2.62,9-5.19,13.72-7.38q8-3.73,16-7.49,7.53-2.88,15-5.8c1.66-.65,3.32-1.42,5-2l6.2-1.93c5.56-1.75,11.09-3.67,16.71-5.24a317.4,317.4,0,0,1,40.5-8.52c10-1,20-2.3,30-2.85L490,353.35c6.36-.36,12.8-.32,19.17-.22a212.52,212.52,0,0,1,23,1.74,141.49,141.49,0,0,1,33,8.46,118.58,118.58,0,0,1,23.83,13.82,175.88,175.88,0,0,1,28.66,29.62l-.48-.62.5.66.49.63-.46-.59c6.59,8.66,12.64,17.63,18.39,26.87,2.28,3.66,4.41,7.41,6.57,11.15,3.82,6.61,7.72,13.19,11.4,19.88,3.81,6.92,7.73,13.78,11.31,20.81,3.86,7.58,7.72,15.15,11.43,22.81,5.11,10.55,10.27,21.09,15,31.81,0,0,.05,0,0,0-2.8-8.2-5.8-16.32-8.77-24.46-2.34-6.42-4.65-12.87-7.17-19.22-2.89-7.32-5.67-14.68-8.85-21.88s-6.11-14.21-9.45-21.17c-4.41-9.21-8.68-18.48-13.51-27.48C633.6,406.42,621,387.92,605,372.5a111.59,111.59,0,0,0-26.58-18.88,126.35,126.35,0,0,0-31.33-10.69,206.36,206.36,0,0,0-33.92-4.06c-2.79-.13-5.58-.17-8.38-.17-2.62,0-5.24,0-7.86.09Zm120.72,68.05,0,0,0,0,.05.07Z"/><path class="cls-1" d="M408,373.13a182.14,182.14,0,0,0-50.89,18.25c-15.17,8.13-28.76,19.07-41.58,30.46a175.89,175.89,0,0,0-18.35,18.94,69.3,69.3,0,0,0-6.48,9.17,36.81,36.81,0,0,0-3.85,10.52s0,0,0,0c.2-.63.42-1.24.66-1.86h0c.7-1.59,1.4-3.17,2.17-4.74a33.23,33.23,0,0,1,3.63-5.55l-.11.15a107.42,107.42,0,0,1,10.52-10.95c4-3.68,8.09-7.14,12.35-10.47,15.13-11.55,31-22.2,48.55-29.77a188.32,188.32,0,0,1,46-12.38,216.84,216.84,0,0,1,53.48.13,206.55,206.55,0,0,1,27.23,5.62,233.6,233.6,0,0,1,26.74,9.41,282.42,282.42,0,0,1,25.64,12.69,215.68,215.68,0,0,1,25.43,16.36,207.43,207.43,0,0,1,35,35.07,223,223,0,0,1,26.69,46.15c11,26.63,16.81,55,20.78,83.48,0-.11,0-.22,0-.33l0,.33h0a.11.11,0,0,1,0,0v0c0,.36.1.72.14,1.08,0-.35-.1-.7-.14-1,1.64,12.32,2.8,24.68,3.73,37.08q.46,6.3.94,12.62c.19,2.49.08,5,.08,7.48q0,5.51,0,11c0,1.35-.2,2.72-.3,4.06-.17,2.37-.36,4.73-.53,7.1q-.18,2.38-.39,4.75.19.87.36,1.75l.82,4.09c.66-3.21,1.27-6.43,1.87-9.64.51-2.74,1-5.49,1.54-8.23.26-1.41.58-2.83.75-4.26q.9-7.81,1.81-15.63c.39-3.26.37-6.57.49-9.85l.59-15.42c.16-4.14.08-8.31.08-12.46,0-6.48-.14-13-.45-19.44-.57-12.33-1.72-24.66-3.48-36.88a247.19,247.19,0,0,0-7.8-35.21,192.13,192.13,0,0,0-14-33.88,203.6,203.6,0,0,0-73.12-77.72,272.12,272.12,0,0,0-31.82-16.57,257.13,257.13,0,0,0-34.47-12.49,191.62,191.62,0,0,0-36.09-6.32c-5-.42-10-.62-15-.62A205.49,205.49,0,0,0,408,373.13Zm108.53,26.29,1,.42-1-.42Z"/><path class="cls-1" d="M287.58,458.61a0,0,0,0,0,0,0,0,0,0,0,1,0,0Z"/><circle class="cls-1" cx="287.58" cy="458.62"/><circle class="cls-1" cx="651.67" cy="593.84"/><path class="cls-1" d="M638,454.86c1.49,4.6,3,9.17,4.19,13.85q1.86,7.3,3.75,14.6,3.74,14.41,7.59,28.79c.36,1.32.6,2.67.86,4q1.34,6.57,2.7,13.14,3.55,17.19,7.3,34.34c1,4.65,2,9.27,2.86,14q2.88,16.54,5.95,33c1,5.57,2.22,11.13,3,16.74q2.33,16.28,4.84,32.52c.55,3.54,1.1,7.08,1.66,10.63.83,8.46,1.71,16.91,2.57,25.37q.76,7.54,1.53,15.07c.17,1.59.31,3.15.37,4.75q.59,15.9,1.19,31.81.2,5.54.42,11.08c.08,2.07-.08,4.16-.13,6.23q-.41,16.64-.81,33.29c0,1.79,0,3.59-.2,5.37l-1.18,13q-1.25,13.94-2.37,27.88c-.21,2.57-.6,5.14-.91,7.71q-1,8.77-2,17.55c-3.32,29.83-7,59.6-10.53,89.4q-1.55,11.13-3.06,22.28c-.32,2.36-.82,4.69-1.26,7q-1.19,6.25-2.36,12.49c-.59,3.11-1.44,6.2-2.15,9.29-.67,2.92-1.34,5.86-2,8.78l-1.2,5.09c-.46,3.22-.92,6.45-1.37,9.67,1.9-5.34,3.71-10.72,5.49-16.09q2.26-6.79,4.5-13.57c1.1-3.33,2-6.73,2.93-10.1s2.11-6.92,2.88-10.44q1.64-7.53,3.26-15c1.59-7.37,3-14.75,4.37-22.16,1.35-7.24,2.74-14.48,3.94-21.75q2.64-16,5.17-31.93c2.52-16,4.54-32,6.63-48,.31-2.37.47-4.76.7-7.14q.82-8.68,1.59-17.36.67-7.52,1.32-15c.14-1.64.25-3.25.3-4.9q.48-16.24.94-32.49.14-4.35.26-8.71c.08-2.77-.14-5.58-.22-8.33l-.86-33.07c-.16-6.05-.79-12.07-1.29-18.1-.81-9.78-1.6-19.56-2.45-29.33-.2-2.4-.65-4.79-1-7.16q-1.18-8-2.4-16-2-13-4.09-26c-.37-2.27-1-4.54-1.44-6.79q-1.72-8.09-3.5-16.18-3-13.77-6.16-27.51c-.32-1.44-.79-2.85-1.19-4.27q-1.93-6.72-3.88-13.44-4.62-15.91-9.41-31.76c-1.28-4.26-2.49-8.53-4.07-12.69q-5.45-14.33-11-28.62-2.38-6.1-4.78-12.19c-1.69-4.3-3.73-8.43-5.72-12.6l0,0a0,0,0,0,0,0,0Z"/><path class="cls-1" d="M426.61,334.48a193.52,193.52,0,0,0-21.66,4c-7.1,1.62-14.17,3.42-21.13,5.57a190.72,190.72,0,0,0-20.18,7.67,174.51,174.51,0,0,0-36.58,21.66A183.24,183.24,0,0,0,297,403.31c-2.12,2.62-4.19,5.28-6.24,8-1,1.3-2,2.58-3,3.92l-4.28,6.05q-5.6,7.95-11.17,15.93c-2.34,3.36-4.53,6.81-6.77,10.22,0,0,0,.05,0,0,3.53-4.44,7.05-8.86,10.67-13.21s7.41-8.94,11.09-13.43c11.42-13.88,23.8-27.2,38-38.28C339.66,371.6,355.5,363,372,356c4.5-1.87,9.05-3.62,13.66-5.21,5-1.71,10-3.21,15-4.66,10.14-2.91,20.35-5.86,30.81-7.33a146.47,146.47,0,0,1,25.27-.87l13.88.67c5.77.26,11.56.52,17.29,1.23h0l2.23.31s0,0,0,0c-5.09-1.19-10.28-2.06-15.47-2.76l-9.37-1.24c-5.56-.73-11.12-1.57-16.72-2-3.2-.23-6.42-.35-9.64-.35a112.89,112.89,0,0,0-12.41.66Zm4.86,4.37h0ZM372,356.07l-.3.12.3-.12Z"/><path class="cls-1" d="M437.14,331.86a209.28,209.28,0,0,0-78.93,24.4A195.82,195.82,0,0,0,324.65,379a215.51,215.51,0,0,0-30.73,32.47c-4.46,5.68-8.6,11.58-12.56,17.62-2.12,3.23-4.19,6.49-6.25,9.76s-3.81,6.4-5.69,9.61c0,0,0,.05,0,0,1.44-2.24,2.83-4.5,4.28-6.73,1.64-2.52,3.38-5,5.09-7.45,3.44-5,6.95-9.86,10.63-14.64l0,0,.08-.1,0,0h0a218.27,218.27,0,0,1,38.14-38.66l-.25.2a198.26,198.26,0,0,1,42.93-24.73,225.48,225.48,0,0,1,26.72-9.3,213.65,213.65,0,0,1,27.65-5.59A284.94,284.94,0,0,1,463.07,339a296.78,296.78,0,0,1,38.31,2.83l-.19,0A410.22,410.22,0,0,1,547.58,351a334.32,334.32,0,0,1,44.71,15.11h0a312.2,312.2,0,0,1,33.05,16.35A265,265,0,0,1,656,402.6l-.68-.52a144.57,144.57,0,0,1,14.64,13,183.42,183.42,0,0,1,13.17,15.09c3.37,4.39,6.55,8.94,9.77,13.44l6.21,8.68c1.59,2.21,3.06,4.5,4.59,6.76a87.45,87.45,0,0,1,4.88,8.22s.05,0,0,0a77.83,77.83,0,0,0-3.69-7.88q-2-3.58-4-7.16c-1-1.89-2.19-3.73-3.29-5.58-1.41-2.37-2.8-4.74-4.22-7.1-1.66-2.74-3.28-5.51-5-8.24-1.82-3-3.78-5.82-5.82-8.64A170.86,170.86,0,0,0,670,406.91a143.1,143.1,0,0,0-15-13.8c-5.31-4.34-10.86-8.4-16.52-12.28a280.31,280.31,0,0,0-74.43-35.7,312.63,312.63,0,0,0-41.26-9.69,367.22,367.22,0,0,0-42.63-4.9q-6.71-.35-13.44-.35a264.62,264.62,0,0,0-29.62,1.67Zm-11.43,9.45-1,.13,1-.13Zm74.42.33.76.11-.76-.11Zm92.73,24.67.58.24-.58-.24ZM289.52,419.56l-.06.08.09-.11,0,0Zm37.82-38.42.1-.08-.1.08Z"/><path class="cls-1" d="M696.33,616.79c-1.84,10.65-3.36,21.35-4.88,32.05-1.12,7.81-1.64,15.71-2.37,23.57S688,688.13,687.51,696s-.79,15.62-1.13,23.43q-2.12,48.44-3.35,96.91c-.39,15.59-1,31.16-1.62,46.74-.32,7.94-.82,15.87-1.28,23.8-.17,2.88-.29,5.75-.58,8.61q-.78,7.88-1.51,15.75l-.15,1.65q-1.23,8.68-2.4,17.37c-2.63,15.69-5.26,31.4-7.62,47.13a347.79,347.79,0,0,0-4,47.78,0,0,0,0,0,.05,0c1.33-8,3.11-15.84,4.81-23.72Q671.22,990.22,674,979q3.08-12.23,6-24.52,1.12-4.73,2.16-9.47c.9-4.08,1.9-8.16,2.65-12.27,1.4-7.67,2.88-15.33,3.84-23.07q1-7.69,1.85-15.36c.37-3.16.54-6.35.79-9.51,1.21-15.48,2.06-31,2.45-46.51.82-33,.29-65.91-.09-98.87-.17-15.13-.48-30.26-.51-45.4,0-7.84-.08-15.66.14-23.49s.26-15.64.82-23.45c.7-10.12,1.35-20.22,2.26-30.32a0,0,0,0,0,0,0,0,0,0,0,0,0,0ZM675.47,930.38l-.08.57.08-.57Z"/></g></g></svg>