<svg xmlns="http://www.w3.org/2000/svg" viewBox="0 0 678.49 975.3"><defs><style>.cls-1{fill:#353535;}</style></defs><title>location-icon</title><g id="Layer_2" data-name="Layer 2"><g id="Draw_Layer" data-name="Draw Layer"><path class="cls-1" d="M641,457.72a24.83,24.83,0,0,1-2.54-.85q-.84,3-1.64,5.93c-1.26,4.71-2.36,9.46-3.49,14.2q-3.28,13.83-6.93,27.56c-1.16,4.34-2.51,8.63-3.93,12.89-.65,2-1.26,4-2,5.89l-2.62,6.82q-1.32,3.05-2.66,6.1c-1.07,2.45-2.31,4.84-3.47,7.26-2.34,4.88-5,9.59-7.65,14.32-4.88,8.81-10.45,17.25-15.72,25.82q-8.68,14.12-17.85,27.9c-2.78,4.17-5.49,8.37-8.1,12.64s-5,8.7-7.29,13.17c-3.62,7.07-7.17,14.18-11.21,21a201.11,201.11,0,0,1-12.62,18.39q-4.42,5.54-9,10.95c-3.24,3.86-6.7,7.55-10.07,11.28-6.58,7.29-12.95,14.74-19.68,21.89-6.32,6.71-13.3,12.78-19.68,19.43-3.37,3.51-6.58,7.11-9.59,10.92s-6,7.77-9,11.67c-3.91,4.88-7.92,9.64-12.13,14.27-4.48,4.92-8.9,9.86-13.12,15a167.09,167.09,0,0,0-11.82,17.08c-3.41,5.41-7,10.61-10.9,15.71-3.1,3.91-6.17,7.84-9.16,11.83a132.33,132.33,0,0,0-7.8,11.35c-2.57,4.31-5,8.69-7.25,13.15s-4.39,8.9-6.63,13.33a212.35,212.35,0,0,1-15.11,24.86c-2.68,3.88-5.54,7.66-8,11.66-1.41,2.27-2.79,4.52-4.07,6.87-1.38,2.54-2.58,5.16-3.73,7.8q-1.17-2.51-2.38-5c-2.21-4.58-4.37-9.19-6.82-13.64s-5.13-9.14-7.68-13.72-5.32-9.09-7.68-13.79c-2.44-4.86-5.09-9.61-7.36-14.55s-4.62-9.8-6.92-14.71c-2.37-5.07-4.76-10.11-7.27-15.11l-3.5-7c-.36-.72-.82-1.41-1.22-2.11l-1.51-2.6q-1.49-2.33-3-4.64c-3.71-5.71-7.37-11.45-11.1-17.16-6.28-9.61-12.69-19.12-19-28.72-1.51-2.29-2.86-4.7-4.29-7-1.32-2.16-2.52-4.4-3.73-6.62-2.54-4.65-5.08-9.3-7.5-14-4.7-9.13-9.63-18.16-14.9-27l-2-3.31c-2.26-3.59-4.66-7.07-7.16-10.5-2.94-4-5.91-8.06-8.55-12.28q-1.1-1.76-2.18-3.52c-.73-.92-1.45-1.85-2.14-2.8q-9.84-13.45-19.77-26.82-3.72-4.65-7.43-9.3c-3.12-3.91-6.27-7.79-9.24-11.82q-4-5.42-7.69-11c-2.55-3.85-5.16-7.64-7.88-11.37-5.8-7.43-11.88-14.64-17.51-22.2-2.78-3.74-5.49-7.52-8.09-11.39-1.41-2.11-2.73-4.27-4-6.43l-.45-.57q-6.67-8.46-13.36-16.91A25.12,25.12,0,0,1,96,563.43c-6.1,0-13.3-2.43-17.49-7.12,1.35,2.1,2.73,4.17,4.12,6.25,3.11,4.65,6.59,9.09,10,13.49l10.84,13.88c3,3.82,5.93,7.65,9,11.4,3.54,4.34,7.23,8.52,10.94,12.7,3.12,3.52,6.43,6.88,9.54,10.42l6.48,7.37c1.79,2,3.39,4.27,5.07,6.4l.74.94c2.73,3.88,5.48,7.75,8.09,11.73q4.82,7.37,9.55,14.8c5.68,8.89,11.32,17.8,17,26.7,2.48,3.9,5.11,7.71,7.54,11.65l4.52,7.3c1.53,2.46,2.88,5.05,4.32,7.57,2.54,4.44,4.95,9,7.43,13.43s5.05,8.94,7.6,13.39c4.95,8.65,9.47,17.51,14.24,26.26,5.29,9.71,10.8,19.28,16.39,28.82q2.27,3.21,4.5,6.44c3,4.42,5.79,9,8.51,13.63.54.92,1.08,1.84,1.61,2.77l2.5,3.79c3,4.61,5.8,9.34,8.63,14.07,2.71,4.54,5.05,9.3,7.52,14,2.37,4.5,4.48,9.13,6.79,13.66s4.95,8.8,7.51,13.11c.41.7.94,1.35,1.41,2q1.55,2.2,3.13,4.39c2.15,3,4.25,6.19,6.67,9q5.06,5.86,10.25,11.61c3.62,4,7.52,7.81,11.3,11.66,1.35,1.37,2.61,2.83,3.92,4.24q3.76,4.06,7.55,8.09c6.58,7,13,14.21,19.41,21.32l.43.48c.9-1,1.8-2,2.68-3-2.54-5.86-5.12-11.7-7.7-17.54q-1.91-4.32-3.89-8.59c1.09-1.86,2.24-3.68,3.37-5.52.91-1.47,2-2.84,3-4.26,8-10.17,17-19.6,24.58-30.09,3.9-5.37,7.63-10.86,11.33-16.37s7.4-10.78,11.34-16c3.19-3.93,6.46-7.79,9.79-11.62s6.52-7.4,9.66-11.21c6.59-8,12.16-16.79,18.31-25.14,3.19-3.92,6.49-7.7,9.93-11.41s6.91-7.2,10.3-10.85c7-7.56,13.18-15.82,19.62-23.86S489.92,745,497,737.7c3.58-3.68,7.17-7.36,10.55-11.23s6.88-8,10.34-11.92c7.15-8.18,14.51-16.18,21.26-24.7l2.25-2.86,2.38-3.67a128.17,128.17,0,0,1,10-13.45c1.5-2.32,2.94-4.66,4.36-7,2.66-4.42,4.93-9.11,7.29-13.7s4.8-9.21,7.34-13.76c2.43-4.36,5.23-8.52,8-12.66s5.49-8.07,8.16-12.16c6.05-9.27,11.9-18.66,17.84-28,5.46-8.6,10.88-17.2,15.73-26.16,2.46-4.53,4.91-9.07,7.11-13.73,1.28-2.71,2.58-5.39,3.73-8.16s2.34-5.25,3.3-7.95l3-8.3c.91-2.54,1.66-5.14,2.47-7.7,1.41-4.41,2.69-8.87,3.94-13.33,2.93-10.48,5.5-21.05,8.54-31.5q1.32-4.55,2.78-9.06A25.19,25.19,0,0,1,641,457.72Z"/><path class="cls-1" d="M637.89,460.6l-1.3,5.05c-.49,1.9-1.11,3.79-1.67,5.67-3.75,12.74-8.94,25-14.07,37.24-3,7-6.08,13.86-9.15,20.79-1.65,3.7-3.18,7.45-4.72,11.2-.66,1.59-1.2,3.24-1.78,4.86-.53,1.47-1.08,2.93-1.55,4.42-1.17,3.73-2.33,7.45-3.41,11.21s-2.14,7.45-3.21,11.18c-1,3.36-2,6.69-3.19,10-.54,1.55-1.07,3.11-1.68,4.64L590.08,592l-3,6.55c-.35.76-.77,1.48-1.18,2.2l-2.48,4.47c-1.07,1.92-2.4,3.71-3.61,5.54-1.31,2-2.75,3.89-4.16,5.82-2.68,3.64-5.45,7.21-8.07,10.89-1.27,1.79-2.61,3.54-3.8,5.38l-4.49,7c-1.42,2.2-2.68,4.51-4,6.76-1.24,2.09-2.43,4.2-3.64,6.31-2.25,3.91-4.49,7.83-6.88,11.66s-5,7.93-7.71,11.71c-1.42,2-2.79,3.95-4.26,5.86l-4.44,5.77q-3.53,4.36-7.06,8.72c-1.45,1.79-2.93,3.55-4.34,5.37l-4.36,5.67c-2.21,2.88-4.27,5.87-6.36,8.84-2.52,3.6-5.09,7.16-7.68,10.71l-4.63,6c-1.79,2.31-3.73,4.53-5.6,6.79s-3.71,4.36-5.57,6.53-3.66,4.36-5.48,6.55c-3.6,4.3-6.91,8.83-10.25,13.34-1.54,2.09-3,4.23-4.51,6.34s-3,4.17-4.57,6.25l-4.25,5.32c-1.54,1.93-3.2,3.77-4.8,5.64-3.41,4-6.84,7.9-10,12.05-1.54,2-3.05,4-4.5,6.11l-2.2,3.16c-.9,1.29-1.7,2.67-2.55,4-2.64,4.14-5.16,8.35-7.75,12.52-2.75,4.42-5.75,8.7-8.73,13q-4.11,5.89-8.32,11.72c-3,4.2-6.08,8.41-9.21,12.55-3.3,4.37-6.57,8.75-9.72,13.23-4,5.76-7.43,12-10.94,18s-7.28,12.19-11.29,18.06c-4.3,6.3-8.56,12.61-12.49,19.16s-7.55,13.41-11,20.26c0,0,0,0,0,0q5.43-9.25,11.23-18.26c3.68-5.73,7.84-11.15,12-16.55l-.07.09q3.44-4.45,6.8-8.94c2.29-3.06,4.4-6.27,6.54-9.44s4.16-6.36,6.23-9.55,4.26-6.24,6.47-9.32l3.44-4.45,0-.05c4.46-5.54,8.9-11.09,13.21-16.74,4.05-5.31,7.95-10.77,11.85-16.19,2.08-2.89,4.21-5.77,6.19-8.73s4.12-6.24,6.13-9.41c1.64-2.59,3.23-5.21,4.89-7.78,1-1.49,1.89-3,2.92-4.47l3.54-5c2.61-3.36,5.22-6.7,8-9.92,3.17-3.65,6.42-7.25,9.43-11,1.56-2,3.19-3.89,4.66-5.91s3-4.05,4.45-6.11c2.9-4.12,5.84-8.19,8.81-12.25,1.54-2,3.05-4,4.66-5.91,1.89-2.28,3.77-4.57,5.69-6.83,4.16-4.91,8.38-9.79,12.31-14.89,2.05-2.66,4.11-5.31,6.08-8s4-5.6,6-8.42c1.77-2.53,3.58-5,5.38-7.55,1.56-2.18,3.24-4.28,4.88-6.4,6.47-8,13-16,19-24.41,3-4.21,5.88-8.52,8.63-12.91s5.28-8.75,7.85-13.18c1.19-2,2.37-4.1,3.59-6.13,1.41-2.34,2.76-4.71,4.25-7l2.84-4.34c.49-.75.95-1.52,1.48-2.24l5-6.88c1.61-2.23,3.35-4.37,5-6.55s3.24-4.29,4.86-6.43c.55-.72,1-1.5,1.54-2.24l2.67-3.91c.46-.68.86-1.41,1.28-2.13l2.78-4.79c.46-.8.83-1.68,1.23-2.51l2.13-4.37c1.12-2.3,2.06-4.69,3.08-7s1.89-4.82,2.83-7.23c.48-1.25.87-2.55,1.3-3.82s.79-2.25,1.14-3.39c.78-2.5,1.57-5,2.35-7.51s1.54-5.2,2.39-7.77l2.62-7.95c.39-1.16.87-2.31,1.3-3.46l1.6-4.27,2.8-6.59c1.06-2.5,2.25-4.94,3.38-7.41,2.16-4.72,4.3-9.45,6.39-14.2s4-9.23,5.89-13.88c.93-2.26,1.9-4.5,2.77-6.78l3.3-8.59c.41-1.06.74-2.15,1.1-3.23l1.71-5c.84-2.45,1.5-5,2.23-7.43,1.13-3.83,2.12-7.71,3-11.6a24.85,24.85,0,0,1-6.17-.88q-1.15-.32-2.26-.74-.43,1.82-.9,3.63ZM393.14,876.87l-.29.38.29-.38Z"/><polygon class="cls-1" points="392.81 877.3 392.8 877.3 392.81 877.3 392.81 877.3 392.81 877.3"/><path class="cls-1" d="M94.21,587.89c2.9,4.73,6.12,9.27,9.2,13.89s6.27,9.25,9.41,13.88c2.51,3.7,4.95,7.46,7.39,11.21,3,4.57,5.86,9.22,8.9,13.75l2.27,2.72q7.62,9.23,15.32,18.37l10,13c3.76,4.88,7.27,10,11.08,14.79q10.75,13.65,21.38,27.38l9.46,13.28c1.23,1.74,2.33,3.59,3.49,5.38l5.35,8.25c3,4.57,5.77,9.25,8.66,13.87s5.72,8.93,8.59,13.39,5.7,8.75,8.56,13.12c1.09,1.66,2.07,3.41,3.09,5.11l4.8,8c1.14,1.89,2.12,3.89,3.17,5.82l3.21,5.89c2.58,3.89,5,7.88,7.35,11.9,5.43,9.2,10.13,18.79,15,28.27l1.14,2.2,4.6,8.25c.89,1.6,1.79,3.19,2.6,4.83l4.53,9.15c.86,1.74,1.79,3.46,2.56,5.24l.48,1.11c1.95,3.91,3.9,7.83,5.95,11.7,2.45,4.6,5.06,9.15,7.24,13.88l.74,1.6,1.37,2.7c1.37,2.71,2.55,5.57,3.72,8.37q1.09,2.61,2.18,5.23,1.76,3.54,3.54,7.09c1.11,2.2,2.38,4.34,3.57,6.5,1.06,1.93,2.1,3.86,3.19,5.77,1.52,2.61,3,5.22,4.55,7.83.46.79.91,1.59,1.34,2.4q1.23,2.17,2.42,4.36l1.5,2.76c1.07,1.5,2.19,3,3.28,4.47l3.08,4.21q2.39,3.27,4.79,6.52l.42-.74c-3.13-5.6-6.16-11.25-9.22-16.88-1.81-3.33-3.46-6.75-5.19-10.13-.75-1.47-1.34-3.05-2-4.56l-2.52-5.73q-1.33-3.42-2.67-6.84c-.93-2.37-1.94-4.72-2.8-7.12q-2.91-8.07-5.89-16.11c-2-5.33-3.87-10.68-5.85-16-1.84-5-3.87-9.86-5.87-14.76-.66-1.62-1.3-3.26-2.07-4.84q-2.35-4.83-4.71-9.65c-.82-1.66-1.57-3.38-2.46-5l-4.91-8.84c-5.18-9.33-10.5-18.57-15.76-27.85s-10.23-18.41-15.36-27.6c-.81-1.46-1.71-2.86-2.59-4.29l-5.53-8.93c-1-1.61-2.09-3.17-3.15-4.75l-5.42-8.11c-6-9-11.82-18.22-17.63-27.39-2.86-4.5-5.86-8.91-8.79-13.36-.87-1.32-1.82-2.6-2.75-3.88l-6.52-9c-1.42-2-2.94-3.86-4.43-5.77l-8-10.23c-3.74-4.78-7.58-9.5-11.37-14.25l-9.69-12.78c-3.44-4.54-7-9-10.5-13.48-3.19-4.1-6.64-8-10-12s-6.51-7.77-9.76-11.67-6.38-7.77-9.52-11.71l-5.85-7.34c-1.18-1.48-2.44-2.9-3.66-4.34-3.3-3.89-6.58-7.8-9.94-11.64-3.51-4-7.12-8-10.51-12.09s-6.7-8.07-10-12.16l-1.59-2c3.38,5.43,6.65,10.95,10,16.39Z"/><path class="cls-1" d="M363.37,919l.11-.15-.11.15Z"/><path class="cls-1" d="M326.46.3c-5.22.2-10.43.57-15.64,1q-13.92,1.22-27.7,3.59c-4.7.81-9.38,1.82-14,2.86C264,8.92,259,10.24,254,11.62q-14.3,4-28.18,9.3c-9.42,3.59-18.66,7.68-27.7,12.13s-17.86,9.38-26.45,14.64c-8.89,5.45-17.47,11.4-25.8,17.66-8.05,6.05-15.79,12.51-23.26,19.27-7.7,7-15,14.34-22,22-6.82,7.46-13.25,15.26-19.37,23.31-6,7.87-11.55,16-16.78,24.43s-10.22,17.27-14.74,26.23A323.39,323.39,0,0,0,28,235.88a326.78,326.78,0,0,0-11.37,60c-1,10.52-1.38,21.09-1.36,31.66s.6,20.88,1.62,31.27a323.39,323.39,0,0,0,6.39,39.33,298.49,298.49,0,0,0,11.88,39.52,318.2,318.2,0,0,0,38.56,72.05s0,0,0,0q-4.1-6.23-7.95-12.62c-2.7-4.5-5.27-9.07-7.75-13.69C53.3,474.48,49,465.32,45,456l0,.08q-4.2-10-7.77-20.26c-2.53-7.25-4.78-14.6-6.84-22a334.26,334.26,0,0,1-9.08-44.34v0Q20,359.21,19.31,348.85c-.53-7.51-.76-15-.77-22.57,0-7.2.32-14.4.77-21.59.47-7.42,1.23-14.82,2.2-22.19q1.43-10.41,3.49-20.71c1.45-7.24,3.18-14.42,5.13-21.54a323.72,323.72,0,0,1,13.76-39.67A331.55,331.55,0,0,1,62.17,164a322.48,322.48,0,0,1,23.06-34.33q6.05-7.83,12.54-15.31c4.63-5.34,9.46-10.49,14.44-15.5a326.48,326.48,0,0,1,31.47-27.78l-.08.06q7.94-6.12,16.23-11.74c5.78-3.92,11.71-7.61,17.73-11.16a318.14,318.14,0,0,1,37.1-18.66q10.46-4.38,21.16-8.09c7.15-2.48,14.39-4.66,21.7-6.62s14.63-3.6,22-5q10.38-2,20.86-3.48,4.62-.61,9.26-1.1c3.56-.37,7.13-.65,10.7-.9s7.41-.43,11.11-.57,7.39-.16,11.09-.18A314.5,314.5,0,0,1,384.81,6.4l-.19,0,.41.06h0q10,1.37,19.83,3.32c6.86,1.36,13.68,3,20.43,4.8A321.16,321.16,0,0,1,466,28.48q9.7,4.1,19.15,8.77c6.38,3.16,12.64,6.56,18.8,10.12s12.17,7.3,18.06,11.25c6.05,4.05,11.94,8.35,17.71,12.8l-.32-.24q8.13,6.32,15.88,13.09c5.32,4.65,10.45,9.51,15.47,14.47s9.82,10.14,14.49,15.44q7.33,8.32,14.11,17.08,6,7.84,11.57,16c3.8,5.59,7.38,11.33,10.81,17.15,3.32,5.63,6.41,11.4,9.36,17.24,3.11,6.15,6,12.41,8.67,18.75l0,0q4.06,9.67,7.53,19.57c2.35,6.7,4.43,13.49,6.33,20.33a323.1,323.1,0,0,1,8.68,42.5h0l0,.19v0a328.05,328.05,0,0,1,0,86.67h0q-1.47,10.89-3.65,21.67c-.71,3.5-1.5,7-2.32,10.46-1,4-2,8-3.14,12a350,350,0,0,1-14.64,42.19l0-.08q-4.17,9.87-8.92,19.48s0,0,0,0c4.78-8.89,9.19-18,13.08-27.3q2.75-6.59,5.21-13.28c1.81-4.94,3.45-9.93,5-15,3-9.64,5.36-19.46,7.35-29.35s3.47-19.79,4.55-29.79a328,328,0,0,0,.75-60.71,323.25,323.25,0,0,0-31.11-114.83,339.29,339.29,0,0,0-31-52,319.16,319.16,0,0,0-40.58-45.93c-7.39-6.93-15.14-13.47-23.15-19.66s-16.09-11.79-24.48-17.2A306.22,306.22,0,0,0,488,34.83c-9-4.59-18.31-8.7-27.74-12.41A323.08,323.08,0,0,0,400.79,5.5c-9.58-1.77-19.23-3.09-28.93-4C361.74.51,351.57.08,341.41,0h-1.62c-4.44,0-8.89.12-13.33.3ZM143.93,70.87l-.11.08.11-.08ZM639.65,200.22l0,.09,0-.09Zm-594.52,256-.07-.16.07.16ZM662.26,282.91l0-.15h0c0,.05,0,.11,0,.16ZM385,6.43h0l-.22,0,.24,0Z"/><path class="cls-1" d="M206.48,31.12a330.31,330.31,0,0,0-43.43,22.59c-6.9,4.27-13.61,8.83-20.15,13.63C136.58,72,130.5,77,124.59,82.09A312.75,312.75,0,0,0,90.69,117a331.75,331.75,0,0,0-28,38.74,323.46,323.46,0,0,0-37.85,89.08,329.6,329.6,0,0,0-8.61,48.57,338.37,338.37,0,0,0-1.34,50.25A326.08,326.08,0,0,0,21,393,319.63,319.63,0,0,0,34.37,440.2a292.19,292.19,0,0,0,20.4,44.05,296.53,296.53,0,0,0,27.06,39.4,269,269,0,0,0,24.94,26.69,0,0,0,0,0,0,0q-6.18-7.23-12-14.75l.15.2Q87.49,526.09,80.53,516c-4.75-6.87-9.17-14-13.41-21.15a388,388,0,0,1-22.61-45.12l.3.71a332.54,332.54,0,0,1-14.13-40.81,321.87,321.87,0,0,1-8.62-42.62c0,.23.06.46.09.69a324.73,324.73,0,0,1-2.87-42.4,329,329,0,0,1,2.85-42.74,323.11,323.11,0,0,1,22-80.72h0a339.41,339.41,0,0,1,19-38.09,323.66,323.66,0,0,1,23.68-35.14q6.7-8.61,14-16.75c5-5.61,10.25-11,15.63-16.29a389.84,389.84,0,0,1,33.76-29.36l0,0,.13-.1.22-.17-.08.06a333.43,333.43,0,0,1,56.08-35,0,0,0,0,0,0,0ZM86.64,128.89l-.14.18.14-.18ZM150.27,66.2l-.09.07.23-.18-.14.11Z"/><path class="cls-1" d="M414.33,10.05q11.5,3.76,22.66,8.44a382.3,382.3,0,0,1,49.13,25.42c8,4.86,15.84,10,23.61,15.21s15.34,10.49,22.72,16.13a408.69,408.69,0,0,1,32,27.77q7.86,7.56,15.26,15.6c5.13,5.56,9.95,11.4,14.59,17.37a340.35,340.35,0,0,1,22.87,33.81,327.77,327.77,0,0,1,18.89,37.48q3.87,9.29,7.18,18.79c2.29,6.55,4.29,13.18,6.21,19.85a298.75,298.75,0,0,1,8.76,41.44q1.44,10.93,2.19,21.92c.25,3.76.34,7.54.42,11.3,0,1.89.05,3.79.06,5.68s.16,3.58.21,5.36c.07,2,0,3.94-.09,5.9s-.12,3.92-.2,5.88c-.16,3.84-.39,7.68-.65,11.52-.49,7.2-1.26,14.38-2.19,21.54a373.52,373.52,0,0,1-9.77,47.32,388.35,388.35,0,0,1-16,45.84v0q-.74,1.75-1.5,3.49s0,0,0,0A286.2,286.2,0,0,0,651,431.26c2.81-7.27,5.25-14.7,7.5-22.16q3.46-11.54,5.87-23.36a310.87,310.87,0,0,0,6-47.22c.19-3.79.32-7.57.52-11.35.21-4.05,0-8.17-.13-12.23-.25-7.93-.67-15.85-1.4-23.75a359.79,359.79,0,0,0-7.71-47.61,307.46,307.46,0,0,0-14.5-45.17,326.24,326.24,0,0,0-49.48-84.15,310.72,310.72,0,0,0-32.17-35,315,315,0,0,0-38.14-29.75A195.78,195.78,0,0,0,507,37.75c-7.22-3.63-14.64-6.87-22.16-9.86a282.55,282.55,0,0,0-44.52-13.3c-8.6-1.87-17.29-3.33-26-4.55h0a0,0,0,0,0,0,0Zm22.34,8.31.3.13-.3-.13Zm.35.15.2.08-.2-.08ZM593.36,134.7l.48.63-.48-.63Zm38.89,335v0Z"/><path class="cls-1" d="M298.91,1.31A281.2,281.2,0,0,0,267,5.39c-2.28.54-4.55,1.13-6.77,1.8L241.11,13c-4.43,1.34-8.77,2.9-13.14,4.42-4.64,1.62-9.31,3.17-13.9,4.93q-8.48,3.26-17,6.52l-8.55,3.62-1.79.78a330.35,330.35,0,0,0-78.51,56c-6.28,6.06-12.41,12.36-18.08,19-5.94,7-11.57,14.21-16.94,21.62C68,137.1,63.05,144.58,58.41,152.23s-9,15.29-13,23.17a322.49,322.49,0,0,0-20.61,50.47A343.4,343.4,0,0,0,15.18,388.3a299.5,299.5,0,0,0,14.33,51.36,318.85,318.85,0,0,0,16.28,36.25A274.39,274.39,0,0,0,67.3,510a271.49,271.49,0,0,0,47.82,50l-1.1-1.73q-2.41-3.83-4.6-7.77-3.16-3.86-6.22-7.79h0a409.34,409.34,0,0,1-52.34-88.39,353.54,353.54,0,0,1-24-88A312.19,312.19,0,0,1,27,284.88a319.44,319.44,0,0,1,21.93-80.41,346.22,346.22,0,0,1,17.43-35.25A297.17,297.17,0,0,1,88.93,135.5q6.55-8.41,13.62-16.39c2.55-2.88,5.07-5.79,7.68-8.62s5.27-5.61,8-8.35a342.3,342.3,0,0,1,33.14-29.47,333.64,333.64,0,0,1,72.29-42.18,397.63,397.63,0,0,1,45.91-15.71,362,362,0,0,1,47.71-10Q325.85,3.68,334.52,3c2.66-.22,5.32-.47,8-.61,3.31-.17,6.62-.28,9.93-.36a0,0,0,0,0,0,0C342,1,331.46.55,321,.55q-11,0-22.05.77Zm18.79,3.45-.19,0,.19,0ZM224.46,30.13l-.51.21.51-.21ZM102.83,542.2l.13.16-.12-.16Z"/><path class="cls-1" d="M103.25,542.74l0,0,0,0Z"/><path class="cls-1" d="M20.36,278.82A315.75,315.75,0,0,0,14,325.37c-.44,7.93-.84,15.84-.76,23.79s.57,16.13,1.29,24.16A232.12,232.12,0,0,0,18,397.6c1.55,7.84,3.41,15.64,5.5,23.36,1,3.68,2.17,7.32,3.35,10.94q1.89,5.83,4,11.57c1.34,3.61,2.77,7.2,4.24,10.76,1.63,3.94,3.42,7.81,5.25,11.67,2.94,6.2,6.21,12.25,9.68,18.18a5.17,5.17,0,0,0,.68,1,224.16,224.16,0,0,0,14.17,21.13C70.8,514,77.18,521.35,83.7,528.58c6,6.69,12.36,13.12,18.86,19.36q5.86,5.63,11.93,11l-.47-.75q-1.42-2.25-2.76-4.55l-.58-.65c-4.22-4.76-8.24-9.7-12.15-14.72l.05.07-.08-.1,0-.06h0l0,0,0,0v0l0-.06,0,0a271,271,0,0,1-19.66-29.52c-3-5.15-5.81-10.39-8.66-15.61q-4-7.36-7.79-14.84a10.88,10.88,0,0,0-.45-1Q56.1,465.6,51,453.73q-1.37-3.25-2.74-6.5-4.49-10.81-8.27-21.9c-2.8-8.19-5.37-16.48-7.55-24.85-2.07-7.95-3.86-16-5.58-24-1.79-8.39-3.23-16.84-4.4-25.34q-1.14-8.62-2-17.3c-.27-2.82-.52-5.64-.65-8.47-.15-3-.23-6.07-.34-9.11a310.22,310.22,0,0,1,.93-37.44h0Z"/><path class="cls-1" d="M98.47,538.24l0,0,0,0-.05-.07Z"/><path class="cls-1" d="M567.25,93.39q1.67,2.08,3.3,4.19h0l.05.07,0,0a489.61,489.61,0,0,1,35.26,53.11Q613.92,164.61,621,179c4.7,9.51,9.3,19.08,13.47,28.84,2.69,6.45,5.1,13,7.34,19.63,2.33,6.9,4.55,13.82,6.48,20.84a344.89,344.89,0,0,1,8.86,42.77,324.42,324.42,0,0,1,2.52,46.49q-.19,11.94-1.06,23.85c-.59,7.89-1.52,15.76-2.55,23.59-.91,6.56-2.15,13.08-3.42,19.57-1.38,7.11-3,14.17-4.88,21.18a299.62,299.62,0,0,1-13.63,40.07h0q-.76,1.79-1.53,3.57s0,0,0,0a350.47,350.47,0,0,0,19.81-42.37c2.86-7.34,5.38-14.8,7.67-22.34s4.06-15.07,5.74-22.68c1.78-8.05,3-16.23,4-24.41q1.49-11.87,2-23.81a351.54,351.54,0,0,0-1.57-48.54,307,307,0,0,0-24.58-94.52,223.88,223.88,0,0,0-23.27-41.15,237.8,237.8,0,0,0-14.86-19c-5.18-5.95-10.67-11.64-16.37-17.08a276.13,276.13,0,0,0-24-20.13h0s0,0,0,0Zm88.91,291-.08.6.08-.6Zm-.1.7-.06.49.06-.49ZM570.58,97.62l0,0h0l0,0Z"/><path class="cls-1" d="M144.91,68.07a326.77,326.77,0,0,0-37.57,29.73A312.85,312.85,0,0,0,74,133.71,321.67,321.67,0,0,0,46.88,174a327.32,327.32,0,0,0-35.16,91.57c-1.79,8.12-3.23,16.31-4.39,24.54s-2,16.32-2.49,24.52c-.25,4.11-.41,8.23-.51,12.35-.05,2.07-.07,4.15-.08,6.22,0,.95,0,1.89-.05,2.83,0,1.33,0,2.66,0,4q.17,12.77,1.37,25.49A325,325,0,0,0,14,414.74a331.32,331.32,0,0,0,38,90.83A291.87,291.87,0,0,0,80.9,545.1a280.07,280.07,0,0,0,35.14,34c5.43,4.41,11.05,8.57,16.79,12.56,0,0,0,0,0,0-10.23-8.74-20-18-29.31-27.7a388.27,388.27,0,0,1-26.77-31.12,371.82,371.82,0,0,1-24.17-35.48,320,320,0,0,1-20-39.29A325.94,325.94,0,0,1,19,418.67a317.32,317.32,0,0,1-8.39-41.35Q9.25,366.9,8.49,356.41c-.27-3.74-.45-7.48-.59-11.23s-.17-7.27-.3-10.91c-.06-1.72,0-3.46,0-5.19q0-3.1.16-6.2c.12-3.76.34-7.52.57-11.28.46-7.28,1.2-14.55,2.15-21.79l0,.17a330.94,330.94,0,0,1,8.44-41.89,316.05,316.05,0,0,1,14-40.41l-.13.3A326,326,0,0,1,75,136h0l.16-.21-.05.07A343.59,343.59,0,0,1,136.3,74.51h0q4.26-3.28,8.62-6.43a0,0,0,0,0,0,0ZM76.78,532.81l.3.38-.3-.38ZM75,136h0l.11-.14L75,136Zm61.32-61.46h0Z"/><path class="cls-1" d="M198.07,37.95a329.67,329.67,0,0,0-43.56,21,287.56,287.56,0,0,0-75.06,62.46,331,331,0,0,0-29.23,39.36,311.66,311.66,0,0,0-23.1,44A334.35,334.35,0,0,0,10.76,252.2a340.39,340.39,0,0,0-8.93,49.55Q.45,314.36.14,327.06c-.21,8.55-.2,17.13.13,25.68S1.37,369.58,2.42,378l.17,1.3a6.59,6.59,0,0,1,.84,3.51q0,1-.09,2c.9,6.24,2,12.45,3.24,18.62a310.67,310.67,0,0,0,14.13,48.13c3.09,8.07,6.61,16,10.46,23.75,1.79,3.59,3.77,7.11,5.77,10.59,2.17,3.77,4.38,7.52,6.68,11.21A290.18,290.18,0,0,0,73.19,536.4a284,284,0,0,0,27.92,27.39,0,0,0,0,0,0,0c-4.77-5.62-9.4-11.37-13.92-17.2l0,0h0l-.12-.16,0,0h0a355,355,0,0,1-26.32-39.85c-4.13-7.2-8-14.55-11.65-22-3.59-7.29-6.77-14.79-9.94-22.26a375.36,375.36,0,0,1-15.09-43.09A332.48,332.48,0,0,1,14.87,375c-.88-6.72-1.56-13.47-2.1-20.23-.6-7.5-1-15-1-22.57a340.36,340.36,0,0,1,2.82-42.68A320.75,320.75,0,0,1,36.4,209.75a337.86,337.86,0,0,1,42.69-73.11,349.8,349.8,0,0,1,30.3-34,389,389,0,0,1,35-30.79A340.35,340.35,0,0,1,198.08,38a0,0,0,0,0,0,0ZM36.77,208.86l-.32.76.32-.76ZM87.15,546.5l-.08-.1.08.1Z"/><path class="cls-1" d="M87,546.32l0-.05,0,.05Z"/><path class="cls-1" d="M87,546.37l0,0,0,0Z"/><path class="cls-1" d="M87.21,546.58h0l0,0,0,0Z"/><path class="cls-1" d="M87.22,546.59h0Z"/><path class="cls-1" d="M316.38,7.92c-4.31.09-8.62.24-12.91.59-8.1.66-16.18,1.66-24.21,2.9s-16,2.84-24,4.7-15.92,4-23.75,6.52C223.9,25.06,216.38,27.87,209,31c-7.23,3-14.3,6.36-21.29,9.87a264.73,264.73,0,0,0-23.62,13.51c-7.32,4.68-14.36,9.82-21.2,15.16,0,0,0,0,0,0,8.94-5.7,18.12-11,27.47-16,9.68-5.18,19.57-10,29.67-14.25l-.48.21a378.54,378.54,0,0,1,42.7-15Q253.1,21.36,264.15,19c7.51-1.59,15.08-2.87,22.68-3.92l-.12,0,.16,0,.47-.07-.29,0q5.23-.69,10.47-1.23c3.63-.37,7.27-.63,10.9-1,7.31-.66,14.64-1,22-1.2,1.62,0,3.25,0,4.88,0,1.94,0,3.89.07,5.83.13,3.54.1,7.08.28,10.62.5,7.5.46,15,1.21,22.43,2.19l-.48-.07A328.92,328.92,0,0,1,415,22.75a319.1,319.1,0,0,1,40.49,14A336.58,336.58,0,0,1,492.29,55.1a318.72,318.72,0,0,1,35.21,23.64l-.35-.27a326.13,326.13,0,0,1,57.72,57.62h0a329.74,329.74,0,0,1,42.08,72.15l-.23-.56a340,340,0,0,1,14.44,41.44,333.89,333.89,0,0,1,9,43.79c0-.19-.05-.38-.07-.57A335.48,335.48,0,0,1,653,337.92a356.16,356.16,0,0,1-3.15,45.74l.05-.36q-2.17,15.89-5.8,31.52A325.19,325.19,0,0,1,635,446.39s0,0,0,0a324.23,324.23,0,0,0,14.23-46.17,308,308,0,0,0,6.94-47.52,317.51,317.51,0,0,0-.64-49.52,325.12,325.12,0,0,0-7.89-47.78c-1.92-7.94-4.21-15.78-6.76-23.53s-5.37-15.31-8.51-22.79a324,324,0,0,0-21.91-42.95,336.39,336.39,0,0,0-61.41-74,337.77,337.77,0,0,0-37.8-29.39A320.21,320.21,0,0,0,469.36,39a326.92,326.92,0,0,0-92.79-27.79c-7.91-1.15-15.87-2-23.85-2.55-3.86-.28-7.73-.46-11.6-.61-4.24-.15-8.48-.16-12.72-.23q-2.25,0-4.51,0-3.75,0-7.51.08Zm-29.51,7.17h0l.21,0-.18,0Z"/><path class="cls-1" d="M629,207.26a345.27,345.27,0,0,1,19,76.46c1,7.67,1.77,15.36,2.36,23.07.63,8.23,1,16.48,1.11,24.73.08,8-.07,15.93-.54,23.89s-1.24,15.66-2.26,23.44v-.09l0,.12-.1.74,0-.36c-4.21,30.93-11.67,61.56-23.83,90.37h0q-1.45,3.43-3,6.82a.31.31,0,0,0,0,.2q-2.07,4.49-4.29,8.92s0,0,0,0q2.4-4.31,4.67-8.68a.25.25,0,0,0,.15-.15c4.12-7.86,8-15.84,11.52-24s6.81-16.6,9.66-25.1,5.27-17.16,7.3-25.91c2.07-8.91,3.63-17.91,4.8-27s1.91-17.92,2.35-26.93.45-18.23.1-27.35a274.47,274.47,0,0,0-7.66-53.82,311.74,311.74,0,0,0-21.32-59.42h0s0,0,0,0ZM624.82,469.5l0,.07,0-.07Zm23.77-90.24.05-.38v0l-.05.4Z"/><path class="cls-1" d="M173.3,79a323,323,0,0,0-79.93,60.19,309.63,309.63,0,0,0-31.94,39.63,324.33,324.33,0,0,0-25.84,45.22c-3.69,7.84-7,15.9-10,24s-5.72,16.41-8.1,24.76A345.4,345.4,0,0,0,7,324.79c-1.13,9-1.84,18.12-2.22,27.21-.37,8.78-.28,17.58.1,26.36A323.28,323.28,0,0,0,12,432.26c1.86,8.65,4.13,17.21,6.77,25.66q1.3,2.71,2.66,5.39c2.37,4.66,4.81,9.28,7.25,13.9,4.57,8.67,8.81,17.52,13.22,26.27,2.37,4.7,4.7,9.44,7.28,14,2.82,5,5.79,9.91,8.81,14.8,5.8,9.43,12.27,18.42,18.61,27.49,4.46,6.38,8.52,13,12.55,19.7q4.51,4.57,9.17,9c6.25,6,12.66,11.73,19.3,17.23a311.4,311.4,0,0,0,40.7,28.72s0,0,0,0q-7.34-5.17-14.45-10.65l.14.1a332.41,332.41,0,0,1-28.71-25q-6.93-6.77-13.39-14T89.77,570.27l0,0,0,0-.11-.14-.16-.21.14.18-.14-.18c-1.69-2.21-3.33-4.44-5-6.64l.61.78c-2.2-2.85-4.34-5.76-6.45-8.68s-4.41-6.09-6.55-9.18-4.23-6.24-6.27-9.41c-2.18-3.38-4.35-6.77-6.43-10.22q-5.94-9.83-11.11-20.08c-1.71-3.39-3.36-6.8-4.95-10.25-.85-1.84-1.66-3.7-2.51-5.53-.74-1.61-1.46-3.21-2.16-4.84a332.8,332.8,0,0,1-22.44-82.55A340.88,340.88,0,0,1,16.16,314L16,315a311.52,311.52,0,0,1,8.23-40.32,317.19,317.19,0,0,1,13.2-38.11,346.38,346.38,0,0,1,18.87-38,326.44,326.44,0,0,1,23.83-35.52,358,358,0,0,1,63.29-63.62A326.55,326.55,0,0,1,173.31,79a0,0,0,0,0,0,0ZM16.16,403l0,.35,0-.35Zm0,.36.07.55-.07-.55Z"/><path class="cls-1" d="M73,167.68a302.23,302.23,0,0,0-45.57,77.52C15.74,274,8.81,304.66,5.93,335.55A332.66,332.66,0,0,0,11,430q2.29,11.71,5.5,23.21c1.58,3.41,3.21,6.8,4.91,10.15,2.37,4.66,4.81,9.28,7.25,13.9,4.57,8.67,8.81,17.52,13.22,26.27,2.37,4.7,4.7,9.44,7.28,14,2.82,5,5.79,9.91,8.81,14.8,5.8,9.43,12.27,18.42,18.61,27.49s11.87,18.67,17.64,28.08l0,0q2.34,2.41,4.73,4.78a273.81,273.81,0,0,0,36,29.65,318.39,318.39,0,0,0,39.86,23.52l2.28,1.13c-1.45-1.81-2.89-3.62-4.3-5.46-8.16-5.21-16-10.84-23.71-16.74q-8.93-6.94-17.42-14.44C125.62,605,119.8,599.4,114,593.72A362.08,362.08,0,0,1,82.71,558.6a330.74,330.74,0,0,1-23.86-35.55c-3.74-6.45-7.34-13-10.7-19.63q-4.88-9.68-9.12-19.67a334.72,334.72,0,0,1-23-83.22,322.7,322.7,0,0,1,9.13-130.36,348.94,348.94,0,0,1,14.73-42.12,364,364,0,0,1,33.18-60.36s0,0,0,0Zm-34.3,315.4.2.46-.2-.46Z"/><path class="cls-1" d="M304.89,35.77A321.58,321.58,0,0,0,188.84,68a330.32,330.32,0,0,0-94.65,70.13,334.36,334.36,0,0,0-36.36,46.39c-5.5,8.43-10.57,17.14-15.26,26S33.69,228.7,29.84,238A328.59,328.59,0,0,0,11.93,297.2c-2.05,10-3.57,20.11-4.71,30.26a310.79,310.79,0,0,0-1.81,31.27c-.05,5-.08,10.07.06,15.11.14,5.4.44,10.8.87,16.18.39,4.94,1,9.86,1.63,14.77q1,7.95,2.55,15.82a255.06,255.06,0,0,0,16.25,53l1.89,3.58c4,7.66,7.81,15.45,11.68,23.19a432.17,432.17,0,0,1-14.95-46.7A425.3,425.3,0,0,1,15.58,404c-.87-6.7-1.55-13.42-2.09-20.16-.61-7.5-.88-15-1-22.55,0-1.69,0-3.39,0-5.08,0-2.11.09-4.21.16-6.32.12-3.77.33-7.54.58-11.3q.73-11,2.13-21.87a314.85,314.85,0,0,1,22.4-81.57l-.31.75a341.63,341.63,0,0,1,18.52-37,321.74,321.74,0,0,1,23.32-34.74l-.44.57a334.28,334.28,0,0,1,27.39-31.22A326.76,326.76,0,0,1,137.36,106l-.52.4A335.29,335.29,0,0,1,171.33,83a318.71,318.71,0,0,1,37.07-18.6,332.81,332.81,0,0,1,39.69-13.76A317.63,317.63,0,0,1,334.66,39,333.81,333.81,0,0,1,377.6,42h0l.23,0-.17,0,.39.05-.14,0a339,339,0,0,1,40.34,8.11c6.63,1.76,13.18,3.77,19.68,5.95s13,4.73,19.38,7.39a336.25,336.25,0,0,1,39,19.6,342.26,342.26,0,0,1,35.54,24.1,333.11,333.11,0,0,1,58.89,59l-.24-.3A324.64,324.64,0,0,1,632.14,237h0a331,331,0,0,1,13.72,39.73,319.61,319.61,0,0,1,8.51,42v0a348.54,348.54,0,0,1,3,43.93,335.66,335.66,0,0,1-3,45.46h0q-1.11,8.08-2.57,16.09s0,0,0,0a324.25,324.25,0,0,0,6.64-61.55c.13-10.56-.33-21.13-1.25-31.65-.87-10-2.31-19.89-4.1-29.75a322.1,322.1,0,0,0-16.43-58.07A332.25,332.25,0,0,0,611,190.75a328.26,328.26,0,0,0-34.7-47.09,324.49,324.49,0,0,0-43.53-40.9A313.7,313.7,0,0,0,482.42,70.7a340.35,340.35,0,0,0-56.09-22.46A322.23,322.23,0,0,0,367,36.3a310.56,310.56,0,0,0-33.22-1.74c-9.64,0-19.28.42-28.89,1.21Z"/><path class="cls-1" d="M377.92,42h0Z"/><path class="cls-1" d="M654.36,318.63l0-.16c0,.05,0,.11,0,.16Z"/><path class="cls-1" d="M654.35,408s0,0,0,0a.1.1,0,0,0,0,0Z"/><path class="cls-1" d="M607.54,178.61q.93,2,1.8,4l-.07-.16c.45,1.3,1.07,2.55,1.61,3.82,4.32,10.33,8.32,20.77,11.88,31.39q5.68,17,10.07,34.38c2.95,11.57,5.86,23.16,8.62,34.79,1.34,5.63,2.43,11.31,3.58,17s2.07,11.07,2.85,16.65c.32,2.46.63,4.92,1,7.38l-.36-2.67c1.08,8.14,1.66,16.35,2,24.55.09,1.85.13,3.7.14,5.55,0,2.09.28,4.21.41,6.31.27,4.46.35,8.93.36,13.4,0,4.16-.18,8.32-.29,12.46-.12,4.56-.27,9.12-.54,13.66-.11,1.94-.25,3.87-.39,5.8S650.1,411,650,413c-.28,4.24-.82,8.47-1.38,12.68a2.62,2.62,0,0,0,.24,1.48q-.16,1.31-.34,2.63A271.63,271.63,0,0,1,640.82,465s0,0,0,0c5.28-12,9.74-24.29,13.87-36.7l.06-.06a3.3,3.3,0,0,0,.89-1.61h0c1.11-3.56,2.09-7.16,3.18-10.72.5-1.65.95-3.32,1.5-5,.7-2.08,1.18-4.21,1.69-6.36a248.73,248.73,0,0,0,4.52-24.87q.74-5.74,1.29-11.51c.39-4,.85-8,1.16-12.07.14-1.82.07-3.66.1-5.49s0-3.82,0-5.73c0-4.15-.12-8.3-.29-12.44-.16-3.65-.3-7.31-.59-11-.32-4-.77-8.08-1.2-12.12a250.15,250.15,0,0,0-3.74-24.78c-.77-3.7-1.6-7.4-2.52-11.07-1-3.94-2.18-7.81-3.46-11.66a211,211,0,0,0-9.58-23.54A241.42,241.42,0,0,0,629.06,206c-3.4-5-7-9.84-10.71-14.59-3.44-4.39-7.13-8.57-10.79-12.77h0a0,0,0,0,0,0,0Zm3.26,7.48,0,.11,0-.11Zm37.78,243.06,0,.29,0-.29Z"/><path class="cls-1" d="M541.75,104.94a347.26,347.26,0,0,1,42.43,45.37,336.69,336.69,0,0,1,42.67,73.14c2.41,5.78,4.46,11.69,6.55,17.59,2.3,6.5,4.32,13.08,6.12,19.74a382,382,0,0,1,8.71,40.86c1,8.3,1.89,16.64,2.47,25a260,260,0,0,1,.75,26.86c-.14,4.22-.08,8.45-.22,12.67-.15,4.47-.36,8.94-.58,13.41q-.69,14-2.2,27.86-1,6.82-2,13.63c-.71,4.82-1.65,9.58-2.54,14.37s-1.86,9.67-2.74,14.51c-.4,2.2-1,4.36-1.41,6.55-.19.93-.36,1.88-.51,2.82s-.18,2.08-.25,3.13c-.78,5-1.73,10.06-3,15a0,0,0,0,0,0,0c1.92-3.31,3.88-6.59,5.81-9.89.84-1.44,1.63-2.91,2.57-4.29A20.16,20.16,0,0,0,647,458.8a42.71,42.71,0,0,0,1.91-4.5,159.46,159.46,0,0,0,7.86-21.13c2.14-7.42,4.24-14.82,5.7-22.41.74-3.82,1.57-7.63,2.23-11.47.79-4.58,1.43-9.19,2-13.8,1-8,1.4-15.94,1.64-24,.11-3.59.05-7.14-.14-10.73-.23-4.22-.34-8.45-.61-12.67-.54-8.3-1.47-16.57-2.7-24.79-1.18-8-2.79-15.85-4.5-23.71s-3.75-15.57-6.16-23.2c-2.35-7.46-5.07-14.78-7.89-22.07-1.43-3.7-2.95-7.35-4.49-11s-3.4-7.19-5.08-10.79a313.48,313.48,0,0,0-22.64-40.27,327,327,0,0,0-28.88-37.11A317,317,0,0,0,550.77,112q-4.44-3.65-9-7.12h0s0,0,0,0Z"/><path class="cls-1" d="M581.73,144.16A380.69,380.69,0,0,1,620,213.7c12.92,30.91,22.39,63.31,27.05,96.5,1.33,10.27,2.17,20.58,2.64,30.92.24,5.31.22,10.63.38,15.94s0,10.53-.09,15.79-.32,10.63-.58,15.95-.37,10.82-.64,16.23c-.26,5.14-.7,10.26-1.24,15.38s-1.09,10.24-1.76,15.34a222.6,222.6,0,0,1-4.92,24.31c-2.05,8.07-4.63,16-7.47,23.78,0,0,0,0,0,0,3.43-6.84,6.61-13.8,9.69-20.8s6-14.16,8.76-21.34,5.44-14.21,7.64-21.52,4.22-14.85,5.85-22.39a196.72,196.72,0,0,0,3.52-25c.65-7.72,1-15.52.86-23.26A322.83,322.83,0,0,0,665,300.66a280,280,0,0,0-28.89-85.39,288.34,288.34,0,0,0-54.39-71.12h0a0,0,0,0,0,0,0Z"/><path class="cls-1" d="M404.13,32.94A334.76,334.76,0,0,1,449,48.25a394.05,394.05,0,0,1,43.65,22,394.63,394.63,0,0,1,41.28,27.14,348.74,348.74,0,0,1,60.56,60.87,366.31,366.31,0,0,1,25.89,39.11c4,6.86,7.66,13.89,11.13,21,3.35,6.9,6.63,13.83,9.65,20.88a299.92,299.92,0,0,1,12.2,36.06c.84,3.08,1.62,6.18,2.36,9.29.83,3.45,1.38,7,2.08,10.44,1.25,6.27,2.29,12.58,3.17,18.92a245.7,245.7,0,0,1,2,25.31c.1,4,.26,8,.29,12.06,0,4.43.28,8.86.17,13.29-.21,8.55-.72,17.08-1.32,25.61s-1.4,17-2.5,25.39c-1.39,10.14-3.05,20.27-5.21,30.28-1.16,5.39-2.4,10.75-3.87,16.06-1.4,5.07-3,10.09-4.59,15.09,0,0,0,0,0,0A354.52,354.52,0,0,0,664.39,434c2.68-7.57,4.82-15.35,6.75-23.14s3.43-15.72,4.59-23.68c.59-4.05,1-8.11,1.37-12.18s.58-8.18.87-12.28c.27-3.79.51-7.61.52-11.4,0-4-.08-8-.22-12.06s-.46-7.75-.73-11.61c-.29-4.25-.7-8.48-1.12-12.71-.84-8.39-2-16.76-3.45-25.07-.66-3.8-1.59-7.58-2.36-11.36-.83-4.07-1.76-8.11-2.75-12.14-1.89-7.69-4.09-15.3-6.54-22.83s-5-14.87-7.86-22.18c-3.1-7.86-6.63-15.51-10.45-23a297.21,297.21,0,0,0-24.79-40.26,313.83,313.83,0,0,0-31.35-37,336.66,336.66,0,0,0-36.5-31.54A302.93,302.93,0,0,0,511.27,64.3a267.2,267.2,0,0,0-43.73-18.35,298.52,298.52,0,0,0-46.18-10.82c-5.73-.89-11.47-1.61-17.23-2.21,0,0,0,0,0,0ZM593.66,157.19l.51.67-.51-.67Z"/><path class="cls-1" d="M322.33,27.69a326,326,0,0,0-65.54,12.6l-3.17,1s0,0,0,0A322.24,322.24,0,0,1,298.06,32H298A338.32,338.32,0,0,1,387.26,32l-.43-.05a320.66,320.66,0,0,1,80.78,21.85l-.08,0a328.25,328.25,0,0,1,38.28,19.2,344.69,344.69,0,0,1,35.55,24.19l-.09-.07.1.08.58.44-.38-.29q9.89,7.66,19.31,15.89c6.55,5.73,12.88,11.75,19.07,17.86s11.88,12.14,17.55,18.46S608.7,162.24,614,168.85c0,0,0,0,0,0A249.42,249.42,0,0,0,595.26,141a265.81,265.81,0,0,0-22.84-25.77,284.4,284.4,0,0,0-26-22.61A292.15,292.15,0,0,0,518,73.39a334.77,334.77,0,0,0-60.67-28.48,326.81,326.81,0,0,0-66-15.67,317.44,317.44,0,0,0-41.56-2.73q-13.74,0-27.44,1.18ZM467.75,53.82l.34.14-.34-.14Zm73.8,43.45-.2-.15h0l.21.16Z"/><path class="cls-1" d="M23.18,360.64A326.62,326.62,0,0,0,24.93,409a257.43,257.43,0,0,0,9.9,47.13c9.66,30.77,26.27,58.93,46.75,83.72a272.33,272.33,0,0,0,32.93,33.28,0,0,0,1,0,0,0q-2.42-3-4.8-6.09l.11.15a406,406,0,0,1-31-46.67c-4.61-8.08-9-16.3-13-24.69s-7.77-16.88-11.4-25.43a533.27,533.27,0,0,1-18.54-50.61,338.71,338.71,0,0,1-12-53.23v0q-.39-3-.73-5.93h0Zm.76,5.9a1,1,0,0,0,0-.1v.1Z"/><path class="cls-1" d="M99.54,142.68c-20.41,23.29-38,49.15-50.64,77.49a237.93,237.93,0,0,0-9,23.11c-2.44,7.48-4.46,15.11-6.29,22.76-.88,3.71-1.59,7.48-2.28,11.23-.82,4.5-1.58,9-2.15,13.55-1,7.91-1.68,15.84-2.15,23.79-.48,8.19-.72,16.45-.46,24.64s.87,16.12,1.68,24.15a388.91,388.91,0,0,0,8.07,47.75c1.82,7.91,4,15.73,6.38,23.48s5,15.3,7.83,22.81,6,15,9.5,22.35c3.39,7.12,7.18,14,11.24,20.8a239.54,239.54,0,0,0,23.82,32.9q6,6.94,12.41,13.49-.69-1.31-1.35-2.63a116.08,116.08,0,0,1-6.32-15.75q-5.78-9.12-11.15-18.49a500.62,500.62,0,0,1-25.19-50.27,289.56,289.56,0,0,1-20.06-73.71,298.2,298.2,0,0,1-2.33-41,360.38,360.38,0,0,1,2.76-43.2,430.59,430.59,0,0,1,11.32-55.38,448.71,448.71,0,0,1,18.41-54.59A326.08,326.08,0,0,1,99.56,142.7s0,0,0,0Zm-26,49.46-.29.69.29-.69Z"/><path class="cls-1" d="M316.13,16.52a328.35,328.35,0,0,0-89.65,23.22,312.28,312.28,0,0,0-40.89,20.93A321.8,321.8,0,0,0,148.34,87.1a287.59,287.59,0,0,0-32.16,30.72,277.39,277.39,0,0,0-47.61,74.46s0,0,0,0a394.88,394.88,0,0,1,28.87-42.87l0,.06a404.4,404.4,0,0,1,29.28-33.72A364.35,364.35,0,0,1,159.48,85.7q2.32-1.86,4.67-3.69a338.92,338.92,0,0,1,36.21-24.44A344.65,344.65,0,0,1,239.63,38l-.39.16a317.1,317.1,0,0,1,76.89-21.6s0,0,0,0Z"/><path class="cls-1" d="M66.7,486.65c.34,5.86.94,11.69,1.53,17.52a150.86,150.86,0,0,0,2.14,15.6,97.42,97.42,0,0,0,3.29,11.71c.71,2.07,1.52,4.09,2.4,6.09.59,1.33,1.2,2.66,1.88,3.94l2.22,4.13c.64,1.18,1.39,2.3,2.09,3.43s1.38,2.09,2.11,3.1c.89,1.23,1.8,2.47,2.76,3.66,1.71,2.11,3.46,4.18,5.21,6.25S95.54,566,97.11,568c1.66,2.22,3.3,4.45,4.85,6.74s3.18,4.83,4.72,7.28a127.82,127.82,0,0,1,7.87,14.74c.42.91.8,1.83,1.19,2.75h0c.76,1.84,1.52,3.68,2.26,5.52,0,0,0,0,0,0-1.78-5.41-3.61-10.82-5.91-16s-4.77-10.27-7.48-15.24S99,564,95.91,559.33s-6.33-8.91-9.24-13.54l-1.81-2.85c-.55-.86-1-1.77-1.55-2.64a98.78,98.78,0,0,1-5.8-11.42c-1.25-3-2.42-6-3.45-9.12-1.18-3.52-2-7.12-2.87-10.73-.62-2.63-1.11-5.29-1.66-7.93-1-4.8-2-9.61-2.79-14.45h0Zm10.92,42.52.08.19-.08-.19Z"/><path class="cls-1" d="M657,381.82c-.08,3.35-.14,6.69-.3,10l-.41,9.28q-.12,2.87-.24,5.73c0,.67-.12,1.35-.18,2q-.21,2.26-.4,4.51-.22,2.5-.44,5c-.06.72-.1,1.44-.18,2.16q-.69,5-1.36,9.94c0-.08,0-.17,0-.25,0,.19-.07.38-.1.57l-.35,1.84q-.43,2.33-.87,4.67c-.33,1.79-.71,3.57-1.09,5.35-.44,2.08-.86,4.17-1.32,6.25q-.91,4-1.8,8.1c-.15.7-.29,1.41-.46,2.11l-.64,2.48q-1.08,4.21-2.16,8.41c-.38,1.5-.89,3-1.36,4.44q-1.35,4.28-2.68,8.57c-.5,1.61-1.07,3.2-1.64,4.79-1.22,3.41-2.51,6.8-3.91,10.15h0c-1.26,3-2.61,5.92-4,8.83q-1,2.1-2.07,4.18-.52,1-1.05,2.08c-.35.69-.69,1.4-1.06,2.08-1,1.73-1.91,3.48-2.87,5.22-2,3.65-4,7.32-6,11q-7.15,12.8-14.3,25.6-6.27,11.21-12.54,22.43l-1.83,3.25a0,0,0,1,0,0,0l13.45-22.43q7.72-12.87,15.39-25.77c1.93-3.24,3.82-6.5,5.71-9.76l4.32-7.45c.51-.88,1-1.77,1.48-2.67,1.53-2.85,3-5.72,4.45-8.62a176.76,176.76,0,0,0,7.47-17.75c.49-1.36,1-2.72,1.42-4.11l1.14-3.67q1.28-4.14,2.55-8.28c.46-1.52.8-3.08,1.19-4.63q.93-3.8,1.86-7.6c.14-.57.25-1.16.36-1.73q.48-2.29.95-4.57c.93-4.49,1.8-9,2.67-13.5.11-.57.2-1.14.29-1.71l.76-4.61.48-2.91c.14-.83.2-1.68.29-2.52q.42-3.78.84-7.56c.07-.62.07-1.26.11-1.88.08-1.48.16-3,.24-4.46q.2-3.71.39-7.43c0-.4,0-.8,0-1.2,0-1.23,0-2.46,0-3.69q0-4.73,0-9.46c0-.93,0-1.87,0-2.8,0-2-.08-4-.14-6.05,0-.64,0-1.28-.05-1.92h0Zm-2.16,38.83v0Z"/><path class="cls-1" d="M651.86,396.57c-1,4.45-2.07,8.91-3.06,13.37q-1.42,6.46-2.82,12.92c-.41,1.87-.81,3.74-1.18,5.62q-1.21,6.21-2.41,12.43c-1.11,5.76-2.28,11.52-3.42,17.27-.14.7-.34,1.51-.5,2.2-.25,1.08-.5,2.16-.77,3.25-.52,2.16-1.09,4.31-1.68,6.46-1.25,4.48-2.77,8.89-4.34,13.28-.43,1.2-.91,2.38-1.38,3.57l-2.54,6.39L625.89,498l0,.08,0,.07,0-.07c-2.21,5.15-4.43,10.3-6.59,15.47l-4.83,11.61c-.3.71-.62,1.43-.89,2.15L612,531.43l-4.15,11c-1,2.55-1.88,5.11-2.82,7.67l-2.12,5.76c-.28.76-.55,1.53-.84,2.28l-4.15,10.55-1.79,4.56-3.92,8.91-2.19,5c-.27.61-.55,1.21-.85,1.81l-5.51,11c-.41.81-.79,1.63-1.22,2.43L580.49,606l-5.24,9.91c-.4.76-.77,1.53-1.16,2.3L571,624.46c-1.14,2.28-2.29,4.55-3.4,6.84l-2.84,5.85c-.54,1.11-1.07,2.23-1.62,3.33l-4.84,9.63c-1.23,2.45-2.57,4.84-3.87,7.25l-2.62,4.86c-.39.72-.8,1.42-1.2,2.12l-5.82,10.05c-.4.7-.86,1.36-1.29,2l-3.69,5.76-2.17,3.39c-.15.23-.31.45-.47.67l-1.73,2.46-3.63,5.19c-.52.74-1,1.48-1.57,2.21l-6.14,8.38c-.3.41-.62.82-.93,1.23l-2.46,3.22-3.32,4.36.07-.09-6.64,8-.72.87c-.23.28-.5.53-.74.8l-4.4,4.71L502,730.65l-.57.57-2.09,2.1L495,737.75c-.62.62-1.24,1.24-1.84,1.88l-7.6,8.06c-.14.16-.27.32-.41.48l-1.41,1.7-4.39,5.31c-.6.73-1.22,1.44-1.8,2.19l-3.24,4.13c-1.75,2.23-3.48,4.49-5.29,6.67l-7.07,8.46c-.67.8-1.38,1.57-2.07,2.35l-4.53,5.14c-.61.69-1.23,1.37-1.82,2.07l-3.41,4.06-3.72,4.42c-.55.66-1.07,1.34-1.6,2l-3.84,5c-.67.88-1.37,1.75-2,2.66l-5.76,8.24c-.79,1.12-1.54,2.27-2.3,3.4l-3.36,5c-1.81,2.68-3.59,5.38-5.39,8.06l-4.77,7.14-3,4.43c-.62.93-1.28,1.85-1.93,2.77L408.62,849c-.5.73-1,1.45-1.54,2.16l-6.34,8.45-6.42,8.12c-1.6,2-3.26,4-4.91,6l-3.93,4.75c-.5.61-1,1.24-1.54,1.82L376,888.94l-2.87,3.14c-.49.54-1,1-1.55,1.55l-9.14,9.09c-4.33,4.32-8.7,8.6-13,12.89l-4,4c-.57.57-1.14,1.14-1.72,1.7l-7.34,7.09-4.12,4c-.5.48-1,1-1.51,1.43l-8.82,7.63L318.9,944l-.57.47.36.62c.38-.29.75-.59,1.12-.89l9.18-7.66,2.68-2.24c.15-.12.29-.27.43-.4l1.69-1.58c4.48-4.2,9-8.36,13.38-12.62l9.54-9.24c1.48-1.44,3-2.88,4.45-4.33l8.58-8.48,3.64-3.61c.44-.44.87-.87,1.29-1.33l8.28-9.05,2.34-2.56c.16-.17.3-.36.44-.54l1.7-2.05,6.83-8.29c.68-.82,1.33-1.68,2-2.52l4.24-5.37c.53-.67,1.07-1.33,1.59-2l3.19-4.25,3.29-4.39c.56-.75,1.08-1.52,1.62-2.29l3.61-5.2c.64-.92,1.3-1.84,1.93-2.77l6.18-9.26q5-7.46,10-14.89l2.59-3.83c.77-1.14,1.57-2.26,2.36-3.38l3.28-4.69c.59-.84,1.23-1.65,1.85-2.47l5-6.57,6.77-8c1.79-2.12,3.64-4.17,5.48-6.25l3.47-3.93c.61-.69,1.2-1.41,1.79-2.11l4.15-5,1.71-2c.24-.29.49-.57.72-.86l6.79-8.62c1.74-2.21,3.56-4.35,5.35-6.51l3.21-3.87c.13-.15.25-.29.39-.44l1.71-1.8,4.42-4.67c.7-.75,1.39-1.5,2.12-2.23l7.79-7.79c.55-.55,1.09-1.13,1.62-1.7l4.61-4.9,1.68-1.79c.18-.2.38-.38.55-.59l3.14-3.74,3.71-4.43c.55-.66,1.07-1.33,1.59-2l3.8-4.95c.72-.94,1.46-1.87,2.16-2.82l6.38-8.66c.52-.71,1-1.43,1.52-2.15l4-5.65,1.3-1.86c.13-.18.25-.35.36-.53l2.71-4.21,3.34-5.2c.44-.69.88-1.37,1.29-2.07l6-10.28c.34-.59.67-1.17,1-1.77l3-5.58,2.47-4.59c.43-.79.82-1.61,1.23-2.41l2.83-5.65c.55-1.1,1.13-2.2,1.66-3.31l4.81-9.92c1.14-2.36,2.33-4.69,3.51-7l2.82-5.61c.37-.73.73-1.46,1.11-2.19l5.55-10.5,1.5-2.83c.56-1.07,1.08-2.16,1.63-3.24l5.31-10.6c.28-.55.51-1.11.76-1.68l2.51-5.7,2.51-5.7c.38-.86.79-1.72,1.14-2.6l3.84-9.73c.88-2.23,1.78-4.44,2.61-6.69l4.29-11.59c2.13-5.75,4.34-11.46,6.52-17.18q.3-.8.63-1.58l2.06-4.89q1.93-4.6,3.87-9.19l4-9.17c.92-2.13,1.85-4.26,2.71-6.42q2.23-5.64,4.45-11.27c.8-2,1.5-4.11,2.21-6.18q2.27-6.69,4-13.56c.53-2.16,1-4.34,1.47-6.51.13-.59.25-1.17.36-1.76l1.07-5.87c.5-2.73,1-5.46,1.48-8.2q1-5.77,2-11.55c.36-2.16.7-4.33,1.1-6.49Q647.7,419,649,412q.5-2.71,1-5.41c.61-3.35,1.29-6.7,1.93-10,0,0,0,0,0,0Z"/><path class="cls-1" d="M653.71,293.54c-1.15,14.29-2.35,28.59-3.3,42.9-.48,7.36-1,14.71-1.31,22.08q-.54,12.28-.89,24.56c-.07,2.67-.17,5.33-.29,8-.15,3.38-.19,6.78-.41,10.16q-.37,5.74-.66,11.47c-.08,1.71-.3,3.42-.46,5.13L646,423c.09-.64.17-1.29.26-1.94-.45,3.34-.8,6.71-1.38,10-.62,3.58-1.2,7.18-1.91,10.75-.76,3.78-1.52,7.55-2.36,11.32s-1.7,7.38-2.59,11.05c-1.57,6.51-3.22,13-5.1,19.45-1.11,3.78-2.27,7.52-3.48,11.26-1.17,3.59-2.45,7.15-3.68,10.71-1.5,4.29-3.15,8.54-4.75,12.79l-1.87,4.08c-.68,1.47-1.28,3-2.05,4.43-1.7,3.11-3.32,6.28-5.14,9.31s-3.73,6.19-5.59,9.29-3.82,6.23-5.62,9.4-3.8,6.58-5.61,9.91-3.57,6.6-5.38,9.89c-1.69,3.09-3.31,6.23-5.09,9.26s-3.47,6.09-5.37,9-3.81,6-5.86,8.91-4.07,5.86-6.17,8.74-4.32,5.83-6.38,8.81l-3.66,5.28c-.85,1.23-1.76,2.43-2.55,3.7-1.87,3-3.81,6-5.62,9s-3.54,6.11-5.41,9.1-3.81,6.19-5.89,9.17-4.27,6.12-6.49,9.12c-4.32,5.82-8.7,11.63-12.7,17.68-2,3-3.92,5.89-5.77,8.92s-3.81,6.23-5.63,9.4c-3.75,6.51-7.41,13.07-11.16,19.59-1.86,3.23-3.83,6.38-5.8,9.55s-4.07,5.92-6.15,8.85l0,0c-4.17,5.29-8.43,10.52-12.51,15.88-2.28,3-4.55,6-6.73,9.07s-4.35,6.16-6.49,9.27c-4.23,6.12-8.59,12.14-13,18.12q-3.26,4.38-6.46,8.81c-2.14,2.95-4.2,6-6.27,9-4.15,6-8.11,12.18-12.13,18.29-3.75,5.67-7.68,11.25-11.74,16.7s-8.3,11.17-12.5,16.72c-4.37,5.78-8.78,11.54-13,17.45q-5.91,8.34-11.72,16.77c-3.56,5.16-7.32,10.18-11.06,15.21-1.86,2.49-3.7,5-5.54,7.51s-3.59,5.16-5.34,7.79c-5.28,7.94-9.59,16.5-15.26,24.19a41.14,41.14,0,0,1-2.89,3.38,37.32,37.32,0,0,1-3.95,3.38h0l-.65.49a0,0,0,0,0,0,0,44,44,0,0,0,5.75-4.25,49.57,49.57,0,0,0,6.09-7.07c2.82-3.68,5.36-7.57,8-11.37,1.33-1.91,2.62-3.86,4-5.71l5.16-6.78c2.13-2.54,4.23-5.1,6.38-7.62,2.3-2.7,4.63-5.37,6.87-8.11s4.49-5.46,6.68-8.23,4.49-5.73,6.76-8.57c9-11.27,18.07-22.43,27.08-33.66,4.74-5.91,9.5-11.8,14-17.88s8.8-12.28,13.09-18.51q6.22-9,12.77-17.83c2.17-2.93,4.37-5.84,6.57-8.75s4.36-5.94,6.52-8.93c2.82-3.89,5.49-7.89,8.28-11.8,1.62-2.27,3.18-4.6,4.88-6.82l4.86-6.36c2-2.46,4-4.91,5.94-7.39,2.41-3.06,4.88-6.07,7.13-9.25l3.84-5.4c1-1.36,1.79-2.86,2.67-4.28,2-3.2,3.87-6.42,5.73-9.68,3.64-6.35,7.23-12.73,10.91-19.07s7.63-12.22,11.63-18.21c2-3,4.21-5.88,6.34-8.8s4.32-5.83,6.48-8.75,4.1-5.81,6.14-8.72c.8-1.14,1.5-2.36,2.24-3.53l3.14-5c1.79-2.84,3.37-5.8,5.16-8.63l3.36-5.3c.77-1.21,1.5-2.46,2.32-3.64,2.09-3,4.11-6,6.26-8.92l6.7-9.13c2.2-3,4.3-6,6.45-9.06.88-1.23,1.68-2.54,2.52-3.8l3.2-4.84c1-1.45,1.81-3,2.71-4.46s1.69-2.71,2.49-4.1c1.77-3.09,3.54-6.18,5.3-9.27s3.6-6.45,5.48-9.62,3.84-6.68,5.88-9.94l6-9.58c.93-1.48,1.88-3,2.82-4.45s2-3,2.85-4.5l3-5.15c.76-1.3,1.58-2.57,2.25-3.92,1.73-3.5,3.61-7,5.07-10.6s3-7.21,4.39-10.86L641,500.07c1.2-3.13,2.39-6.27,3.47-9.44l1.82-5.34c.68-2,1.23-4,1.85-6,1-3.33,1.93-6.68,2.88-10,.85-3,1.66-6,2.4-9.06.89-3.62,1.78-7.23,2.58-10.88q.6-2.7,1.19-5.4c.43-2,.74-4,1.11-6,.7-3.73,1.22-7.48,1.76-11.23.59-4.1.93-8.21,1.31-12.33.33-3.58.36-7.19.46-10.79.09-3.3,0-6.59-.06-9.9s-.15-6.32-.34-9.48q-.4-6.42-.87-12.84c-.41-5.73-1-11.46-1.44-17.18-.52-6.46-1.09-12.91-1.65-19.36-1.18-13.75-2.52-27.48-3.73-41.22h0Z"/><path class="cls-1" d="M28,328.88q-.56,6.44-1,12.88-.21,3.07-.41,6.14c-.05.86-.14,1.71-.16,2.57q-.09,5.43-.17,10.87c0,2.57.12,5.14.3,7.7a90.15,90.15,0,0,0,1.24,10.24c.54,2.91,1,5.82,1.66,8.7s1.3,6,2,9q2,9.08,3.91,18.19c1.2,5.76,2.34,11.54,3.8,17.24s3,11.46,4.38,17.21c2.82,11.81,5.33,23.89,10.61,34.9.64,1.33,1.22,2.7,1.92,4l2.63,4.92c1.21,2.28,2.48,4.53,3.75,6.78,3,5.29,6,10.55,9.19,15.7,1.46,2.33,2.91,4.66,4.47,6.92.74,1.07,1.46,2.17,2.25,3.21l3,4c2,2.57,4,5.06,6.07,7.57l6.29,7.74c7.38,9.11,15,18,22.31,27.16,7.67,9.7,15.31,19.41,23,29.06,4.51,5.64,9.09,11.22,13.58,16.87,1.3,1.68,2.61,3.36,3.86,5.08,1.68,2.29,3.35,4.58,5,6.86,3.8,5.12,7.66,10.2,11.91,15l3.08,3.45c1,1.17,2.18,2.27,3.27,3.4l6.34,6.59c.69.71,1.36,1.44,2,2.18l-1.31-1.76-7.43-9.3c-3.12-3.91-6.27-7.79-9.24-11.82q-4-5.42-7.69-11c-2.55-3.85-5.16-7.64-7.88-11.37-5.8-7.43-11.88-14.64-17.51-22.2-2.78-3.74-5.49-7.52-8.09-11.39-2.46-3.68-4.65-7.53-7-11.29-2.63-4.23-5.4-8.39-8.06-12.61q-4.25-6.76-7.83-13.89c-1-1.94-1.88-3.93-2.71-5.94-2.46-2.86-4.91-5.75-7.38-8.6-3.87-4.45-7.75-8.88-11.39-13.52l-.38-.48c-2.34-3.14-4.64-6.3-6.88-9.52-2.48-3.57-4.81-7.22-7.15-10.88s-4.56-7.29-6.8-11c-1.09-1.78-2.05-3.64-3.07-5.46-.46-.82-.82-1.7-1.23-2.55l-1.29-2.7C57,471.37,56,469,55.17,466.59c-1-3-2-6-2.89-9-1.8-6-3.54-12-5.4-18-1.66-5.3-3.54-10.55-5.05-15.9-1.7-6-3.32-12-4.95-18-1.31-4.82-2.68-9.64-4-14.46a166.12,166.12,0,0,1-4.53-20.43c0,.07,0,.14,0,.21a86.16,86.16,0,0,1-.83-9.07l-.08-4-.12-5.64c0-.75-.06-1.52,0-2.28.21-7.07.4-14.14.73-21.21,0,0,0,0,0,0Z"/><path class="cls-1" d="M205.56,684.72c1.58,2.52,3.19,5,4.74,7.56s3.21,5.09,4.68,7.7l5.11,9c1.53,2.71,2.9,5.53,4.34,8.28,2.7,5.16,5.32,10.37,8,15.55,2.18,4.25,4.31,8.52,6.44,12.79.8,1.59,1.5,3.22,2.24,4.84l2.78,6.09c2,5,4,9.91,5.93,14.91q1.76,4.66,3.59,9.29c1.15,2.94,2.16,5.94,3.25,8.9,4.27,11.57,8.33,23.21,12.49,34.82,3.13,8.74,6.36,17.44,9.46,26.19,3.57,10.07,7.22,20.13,10.55,30.29,0,0,0,0,0,0-1.4-6.5-2.85-13-4.27-19.48-1.11-5.1-2.2-10.2-3.36-15.29-2.74-12-5.43-24-8.37-35.93q-1.38-5.57-2.78-11.13c-.55-2.2-1.08-4.41-1.7-6.6-.82-2.9-1.62-5.8-2.45-8.7q-3.55-5.35-7.08-10.71c-1.51-2.29-2.86-4.7-4.29-7-1.32-2.16-2.52-4.4-3.73-6.62-2.54-4.65-5.08-9.3-7.5-14-4.8-9.33-9.84-18.55-15.25-27.55-2.74-4.56-5.72-8.93-8.85-13.23-2.94-4-5.91-8.06-8.55-12.28q-1.1-1.75-2.18-3.52c-.73-.92-1.45-1.85-2.14-2.8l-2-2.67.84,1.32Z"/><path class="cls-1" d="M181.53,49.3C171.29,57.7,161,66,150.71,74.4q-16.94,13.81-33.83,27.68l-10.7,8.82c-1.24,1-2.48,2-3.68,3.12q-9.54,8.55-19,17.18c-.77.69-1.52,1.39-2.27,2.11-3.68,3.58-7.36,7.17-11,10.82q-5,5.06-9.73,10.36c-3.39,3.8-6.6,7.76-9.71,11.78a208.24,208.24,0,0,0-16.06,23.86,214.85,214.85,0,0,0-12.61,26.08c-2.39,5.88-4.47,11.87-6.4,17.91a160,160,0,0,0-5,19.8A167.15,167.15,0,0,0,8.4,273.38C8,280.29,8,287.24,8.27,294.16c.11,3.14.3,6.29.53,9.42.11,1.57.25,3.14.38,4.7s.24,2.87.43,4.29q.42,3.1.84,6.2l2.13,15.82-.09-.7c.12.9.32,1.77.5,2.66q.68,3.23,1.35,6.47L17,355.86c.45,2.14,1.05,4.24,1.61,6.35l3.63,13.9c.5,1.91,1,3.81,1.56,5.7l4,13.53c.66,2.24,1.28,4.5,2,6.73l3.87,12.28,1.95,6.18c.28.9.55,1.8.85,2.69l3.4,10,3.74,11c.21.6.45,1.2.68,1.79l2.35,6.16,4.52,11.84c.26.67.54,1.33.83,2l2.34,5.41,5.25,12.15c1,2.27,2.14,4.47,3.23,6.7L68.46,502c1.15,2.36,2.39,4.68,3.59,7l5.18,10c.45.87.93,1.73,1.39,2.59l3.54,6.59c1.29,2.39,2.53,4.81,3.91,7.15l6.73,11.45c.37.63.74,1.22,1.14,1.82l3.84,5.78,3.34,5c.48.72,1,1.41,1.52,2.11l5.39,7.22c1,1.39,2.06,2.81,3.14,4.18l8.68,11q3.35,4.53,6.72,9.06c.54.72,1.1,1.43,1.61,2.18l3.33,4.89c1.72,2.52,3.46,5,5.16,7.56q3.66,5.44,7.33,10.87c1.77,2.61,3.5,5.23,5.25,7.85l3.16,4.72c.54.8,1,1.64,1.52,2.46l5.93,9.72c.23.37.42.78.63,1.16l1.48,2.74,3.26,6.05c.54,1,1,2.05,1.5,3.09l2.48,5.24,2,5c.32.78.54,1.6.8,2.4a38.59,38.59,0,0,1,1.1,4c-1.14-1.72-2.41-3.33-3.7-4.94-.95-1.17-1.9-2.33-2.86-3.49-.82-1-1.61-2-2.41-3h0l-.77-1s0,0,0,0c1.67,2.53,3.43,5,5.24,7.41.91,1.22,1.82,2.45,2.71,3.68.3.42.58.84.87,1.27a15.83,15.83,0,0,0,1.17,1.8c.26.29.64,0,.68-.28a4.58,4.58,0,0,0,0-1.35c-.15-1-.34-2.08-.56-3.11-.17-.79-.43-1.58-.63-2.36-.14-.53-.27-1.06-.45-1.58l-1.19-3.5c-.18-.54-.34-1.09-.55-1.62l-.83-2-2.4-5.87c-.46-1.11-1-2.19-1.54-3.27l-3.16-6.64c-.36-.75-.72-1.47-1.12-2.19l-3.35-6.1-2.59-4.71c-.5-.9-1.07-1.77-1.61-2.65q-3.13-5.12-6.29-10.21c-3.4-5.52-6.9-11-10.42-16.43l-3.8-5.86c-.57-.87-1.11-1.77-1.72-2.61q-3.62-5.06-7.26-10.1c-1.77-2.46-3.67-4.84-5.51-7.25-1.73-2.26-3.48-4.5-5.16-6.81l-7.5-10.36c-.46-.64-.87-1.31-1.3-2l-4-6.21-2.87-4.44c-.54-.84-1-1.72-1.5-2.59l-6.35-11.08c-.32-.55-.6-1.12-.9-1.68l-2.95-5.6c-1.44-2.74-2.92-5.46-4.33-8.22l-5.09-10c-1.16-2.27-2.35-4.52-3.46-6.81l-5-10.32-2.73-5.63c-.32-.66-.67-1.32-1-2l-8-18.42Q53.17,452.9,49.35,443c-.25-.66-.46-1.34-.69-2l-2.19-6.36-4.21-12.23c-.77-2.23-1.46-4.49-2.18-6.74L35.73,402.1c-.62-1.92-1.2-3.85-1.78-5.78l-4.13-13.8c-.51-1.71-1.06-3.43-1.52-5.16l-2.92-10.93L22.57,355.9c-.11-.41-.2-.81-.29-1.23q-.52-2.42-1-4.84-1.35-6.28-2.7-12.56l-.8-3.72c-.12-.54-.18-1.09-.26-1.64l-2.86-20.27q-.6-5.79-1-11.59c-.3-4.37-.45-8.74-.53-13.12s0-9,.2-13.56c.2-4.22.65-8.44,1.19-12.63q.8-5.7,2-11.33c.91-4.36,2.09-8.65,3.37-12.91A236.31,236.31,0,0,1,28.21,213l-.23.53a219.38,219.38,0,0,1,12.21-24.4,207.94,207.94,0,0,1,14.92-21.94l0,0,0,0,.29-.38-.22.29q4.29-5.51,8.89-10.77c3.39-3.86,6.94-7.57,10.53-11.24,3.32-3.39,6.7-6.71,10.07-10,.62-.61,1.28-1.19,1.92-1.78q9.32-8.63,18.62-17.29c1.26-1.18,2.59-2.27,3.89-3.4l10.75-9.32q6.38-5.54,12.74-11.09,24.54-21.38,49-42.89s0,0,0,0ZM164.19,661.51h0ZM55.11,167.24h0l.07-.09-.07.09Z"/><path class="cls-1" d="M596.52,150c2.26,3,4.48,6,6.69,9,1.55,2.12,3,4.31,4.46,6.48,2.8,4.13,5.52,8.31,8.24,12.49.79,1.2,1.47,2.48,2.2,3.72s1.2,2.29,1.79,3.43c1.16,2.27,2.24,4.58,3.34,6.88,2.29,4.81,4.88,9.48,7.27,14.24,1.12,2.24,2.15,4.52,3.18,6.79.75,2,1.57,3.94,2.19,6l1.28,4.2c.31,1,.53,2,.79,3.05.61,2.4,1.19,4.8,1.77,7.21.5,2.09,1,4.18,1.48,6.29s1,4.38,1.36,6.59c.44,2.5.89,5,1.29,7.5.74,4.8,1.42,9.62,2.08,14.43q1,7.78,2,15.57c.65,5.3,1.14,10.62,1.6,15.94.88,10.2,2,20.38,2,30.62,0,3.05,0,6.11.05,9.16,0,1.15,0,2.3.05,3.45,0,1.5,0,3,.15,4.52l.41,5c.12,1.48.38,3,.58,4.45.38,2.75.79,5.5,1.21,8.24.52,4,1,8.06,1.24,12.12.05,1,.16,2,.16,3,0,1.45,0,2.89,0,4.33,0,2.22-.17,4.45-.27,6.67-.19,4-.44,8-.75,12-.18,2.22-.29,4.46-.53,6.67s-.5,4.7-.75,7.05c-.65,4.76-1.33,9.5-2.29,14.21l-.84,4.1c-.3,1.45-.7,2.89-1,4.34-.61,2.53-1.32,5-2,7.55-1.33,4.88-2.8,9.74-4.27,14.58q-2.44,8-5,16c-2,6.21-3.82,12.5-5.69,18.76-.86,2.86-1.76,5.7-2.75,8.51-.5,1.44-1,2.89-1.52,4.31l-1.82,4.61a77,77,0,0,1-4.44,8.51c-.81,1.34-1.72,2.63-2.59,3.93-1.5,2.25-3,4.47-4.55,6.7-1.41,2.06-2.76,4.14-4.09,6.26s-2.61,4-3.72,6.15q-2.34,4.46-4.65,8.95c-1.05,2-1.91,4.21-2.83,6.31-2.34,5.33-4.61,10.68-6.84,16.05q-1.35,3.25-2.69,6.5-3.41,7.68-6.8,15.38c-1.94,4.42-4,8.79-6,13.17-4.25,9.23-8.38,18.54-12.86,27.66,0,0,0,0,0,0,6.07-9.09,12-18.31,17.86-27.51l4.69-7.3c1.11-1.74,2.15-3.53,3.22-5.3q2.92-4.8,5.82-9.61c.78-1.29,1.55-2.58,2.29-3.9,2.66-4.78,5.28-9.58,7.94-14.36q2.6-4.66,5.16-9.33c1-1.84,2.12-3.62,3.21-5.41l2.75-4.55c.38-.63.74-1.27,1.15-1.87q2.63-3.83,5.21-7.67c1.54-2.29,3.16-4.53,4.73-6.79,1.43-2.05,2.77-4.17,4.14-6.25.79-1.19,1.45-2.48,2.13-3.73.86-1.59,1.61-3.24,2.32-4.9.88-2.05,1.67-4.11,2.44-6.21,1-2.61,1.79-5.25,2.63-7.89.71-2.25,1.3-4.54,1.89-6.81q1.13-4.32,2.28-8.62c1.32-4.94,2.78-9.84,4.21-14.75q2.3-7.88,4.52-15.79c2.78-9.93,5.53-19.93,7.13-30.13.48-3.05,1-6.1,1.34-9.17.36-2.82.68-5.63.95-8.46.51-5.3.78-10.6,1-15.92q.24-5.57.43-11.14a106.12,106.12,0,0,0-.4-10.92c-.07-1-.21-1.93-.32-2.89-.14-1.23-.26-2.47-.44-3.7l-.82-5.7c-.28-1.93-.65-3.84-1-5.76-.28-1.64-.52-3.28-.78-4.93-.25-2.33-.52-4.64-.66-7-.18-3-.3-5.94-.41-8.92-.18-5-.37-10-.84-15-.27-2.91-.58-5.81-.93-8.71-.28-2.29-.59-4.57-.88-6.86-.7-5.61-1.3-11.23-2.09-16.83-1.54-10.8-3.1-21.6-5-32.34-.9-5-1.94-10-3.25-14.95s-2.82-9.91-4.46-14.8l-1.52-4.54c-.42-1.25-.94-2.48-1.42-3.71-.95-2.46-2.08-4.83-3.2-7.22-.22-.46-.5-.91-.75-1.36l-1.32-2.42c-.54-1-1.12-2-1.7-3q-2.18-3.69-4.41-7.33c-2.62-4.28-5-8.71-7.46-13-.6-1-1.16-2.11-1.81-3.11l-2.52-3.84c-.76-1.16-1.62-2.26-2.43-3.39L612,170.8c-2.38-3.33-4.71-6.69-7.09-10-1-1.38-2.06-2.71-3.1-4.06q-2.62-3.39-5.3-6.73h0a0,0,0,0,0,0,0Z"/><path class="cls-1" d="M670.44,311.51c-.29,3.19-.65,6.38-1,9.56-.27,2.55-.65,5.09-1,7.63q-.53,3.08-1.05,6.15c-.28,1.65-.69,3.28-1.05,4.91-.75,3.38-1.57,6.73-2.48,10.07C662,357,660,364.2,658.22,371.43s-3.55,14.4-5.37,21.59-3.75,14.47-5.49,21.74c-.93,3.88-1.8,7.77-2.66,11.66-.79,3.6-1.73,7.16-2.68,10.73-.88,3.33-1.79,6.67-2.41,10.07q-.29,1.57-.58,3.14c-.18.95-.29,1.91-.43,2.86-.29,1.89-.54,3.79-.8,5.68-.24,1.71-.52,3.43-.79,5.14-.14.91-.33,1.82-.5,2.73-.14.75-.27,1.51-.43,2.25-.42,2-.84,3.91-1.32,5.86s-1,3.72-1.49,5.57c-.91,3.27-1.89,6.52-2.88,9.76-.57,1.85-1.13,3.7-1.75,5.54l-1,3.09c-.27.82-.61,1.61-.92,2.42l-.81,2.12c-.65,1.47-1.26,3-2,4.39-.9,1.76-1.8,3.5-2.78,5.22-1.81,3.18-3.79,6.25-5.68,9.38-.91,1.49-1.85,3-2.71,4.49s-1.85,3.18-2.69,4.81-1.75,3.31-2.56,5l-2.64,5.48-2.69,5.59c-.71,1.48-1.48,2.94-2.23,4.4s-1.35,2.72-2.09,4l-3.57,6.39c-.58,1-1.14,2.09-1.76,3.1l-3.67,6.14c-1.62,2.72-3.25,5.44-4.91,8.14q-6.59,10.65-13.1,21.34c-3.86,6.32-7.56,12.72-11.29,19.11-2.79,4.78-5.61,9.54-8.42,14.3-3.42,5.82-6.81,11.64-10.28,17.43a0,0,0,0,0,0,0q13-19.31,25.68-38.86c1.68-2.59,3.35-5.19,5.06-7.75q3.9-5.84,7.78-11.69c2-2.94,3.88-5.89,5.82-8.83,1.74-2.66,3.49-5.3,5.17-8l4.21-6.77c.68-1.1,1.4-2.19,2-3.31l3.36-5.91c.7-1.24,1.44-2.47,2.09-3.74l3.18-6.28c.78-1.54,1.49-3.1,2.23-4.65,1.47-3.09,2.91-6.21,4.46-9.26.84-1.66,1.66-3.33,2.57-4.95s1.88-3.36,2.88-5c2-3.32,4.1-6.61,6.16-9.91.43-.68.82-1.39,1.23-2.08s.83-1.38,1.21-2.09l1.65-3.09c.36-.68.68-1.39,1-2.09l1.21-2.59c.48-1,.85-2.1,1.27-3.14.28-.7.59-1.39.83-2.1l1.18-3.37c1.21-3.48,2.27-7,3.36-10.53s2.09-6.84,3-10.3c.5-1.9.93-3.81,1.37-5.72.16-.68.28-1.36.41-2,.18-.92.38-1.84.54-2.76.61-3.7,1.14-7.39,1.73-11.09.31-2,.67-4,1.05-5.94.13-.65.28-1.29.43-1.94.22-.93.41-1.87.66-2.8,1-3.75,2-7.5,3-11.26.93-3.5,1.68-7.05,2.47-10.59s1.64-7.18,2.48-10.77q2.61-11.17,5-22.39c1.51-7.12,2.82-14.28,4.25-21.42.69-3.43,1.42-6.86,2.14-10.29q1.28-6,2.46-12.1c.31-1.59.56-3.19.82-4.79s.56-3.25.73-4.89q.34-3.12.67-6.25c.08-.73.09-1.46.13-2.2l.25-4.15c.21-3.65.3-7.31.35-11h0Z"/><path class="cls-1" d="M655,390q-2.13,6.86-4.18,13.73c-1.06,3.52-2,7.07-3.12,10.59-1.22,4-2.44,8-3.73,12-1.15,3.5-2.37,7-3.51,10.49q-.82,2.5-1.64,5c-.52,1.57-.95,3.18-1.42,4.77-.81,2.74-1.51,5.51-2.36,8.24l-1.54,4.95c-.39,1.25-.83,2.46-1.28,3.69s-.93,2.69-1.49,4L629,471.73c-.78,1.65-1.51,3.34-2.36,5s-1.75,3.4-2.67,5.07c-1.89,3.41-3.83,6.82-5.57,10.31s-3.47,7.11-5.1,10.72-3.26,7.31-4.89,11c-3.26,7.29-6.61,14.53-9.86,21.82-.83,1.87-1.6,3.76-2.4,5.64-.7,1.66-1.4,3.31-2.07,5-.75,1.87-1.54,3.73-2.25,5.61l-2.51,6.61c-1.08,2.85-2.07,5.73-3.1,8.59s-2.1,5.94-3.15,8.91-2.27,6.09-3.41,9.13c-.5,1.35-1.12,2.67-1.68,4l-1.63,3.88h0c-1.55,3.34-3.1,6.68-4.69,10q-2.79,5.82-5.54,11.66-2.66,5.68-5.29,11.37c-.68,1.48-1.45,2.93-2.18,4.38s-1.51,3.17-2.39,4.68l-2.46,4.2-1.2,2c-.14.25-.28.51-.44.74l-4.47,6.51L544,653.16c-1.18,1.5-2.49,2.9-3.75,4.34-2.43,2.78-4.93,5.5-7.31,8.31s-5,6-7.23,9.14-4.58,6.45-6.65,9.82q-3.32,5.37-6.62,10.75c-.8,1.3-1.58,2.6-2.42,3.87L505.68,706c-2.18,3.32-4.51,6.55-6.79,9.81s-4.65,6.47-7,9.7q-8.63,11.95-17.19,24s0,0,0,0c5.33-6.52,10.74-13,16.13-19.45q3.83-4.59,7.67-9.16c2.56-3.05,5.05-6.16,7.55-9.25,2.32-2.87,4.5-5.84,6.71-8.8S517,697,519.08,694c1.8-2.61,3.53-5.26,5.35-7.85,1.07-1.51,2.09-3.06,3.2-4.54l3.33-4.47,3.62-4.54c.41-.52.86-1,1.3-1.51l2.64-3.07c1.26-1.46,2.58-2.87,3.88-4.31s2.5-2.83,3.75-4.25,2.3-2.73,3.41-4.14,2.43-3,3.52-4.55l4-5.81c.32-.46.59-1,.87-1.45l2.25-3.76,1.29-2.16c.36-.6.65-1.26,1-1.88l3.11-6c1-1.85,1.79-3.76,2.68-5.64l2-4.1c3.69-7.64,7.49-15.23,11.21-22.86.68-1.39,1.28-2.81,1.91-4.23.88-2,1.85-4,2.65-6,1.36-3.48,2.77-6.95,4-10.46l4.46-12.2c1.3-3.55,2.6-7.1,4-10.61,1-2.44,2-4.88,3-7.32,1.39-3.29,2.79-6.58,4.22-9.85q2.38-5.43,4.79-10.84c3.16-7.14,6-14.41,9-21.64.65-1.53,1.27-3.06,2-4.57.82-1.79,1.59-3.6,2.45-5.37s1.7-3.51,2.55-5.26,1.7-3.38,2.48-5.1c1.67-3.66,3.36-7.32,4.73-11.11.65-1.8,1.34-3.59,1.9-5.41s1.19-3.66,1.67-5.52,1-3.89,1.49-5.86l1.46-6.39c.9-4,1.93-7.86,3-11.77,1-3.55,2-7.08,3-10.63,1.1-4,2.11-8.07,3.12-12.13.89-3.57,1.66-7.18,2.5-10.76q1.63-7,3.27-14a0,0,0,0,0,0,0Zm-26.21,82-.09.2.09-.2Z"/><path class="cls-1" d="M434.25,820.32c-.62.85-1.25,1.68-1.89,2.51h0l0,0v0q-1.85,2.34-3.73,4.64c-1.12,1.37-2.23,2.76-3.42,4.06-1.34,1.46-2.65,3-4,4.37s-2.86,2.92-4.32,4.37q-4.85,4.83-9.65,9.7c-2.7,2.73-5.39,5.48-8,8.32-2.79,3.06-5.55,6.13-8.21,9.31s-5.32,6.53-7.86,9.89c-4.91,6.53-9.64,13.2-14.55,19.72l-3.24,4.32.43-.55q-3.72,4.8-7.42,9.64c-1.27,1.67-2.6,3.31-3.81,5l-4.21,5.95c-1,1.38-1.86,2.8-2.75,4.22s-2,3.1-2.95,4.7c-2,3.51-4.05,7-6,10.56q-3.32,6-6.57,12.12s0,0,0,0c3.45-5.07,6.86-10.19,10.38-15.21l3.2-4.58c.49-.7,1-1.42,1.48-2.1l5.07-6.65c2.5-3,5-5.93,7.57-8.82q4.56-5.07,9.11-10.15c5.33-6,10.43-12.14,15.38-18.42q2.26-2.87,4.49-5.78l-.12.15q2.27-2.9,4.52-5.82c2.58-3.21,5.14-6.43,7.74-9.62,2.76-3.37,5.55-6.73,8.31-10.11,2.36-2.89,4.74-5.75,7.05-8.68,1.36-1.71,2.74-3.41,4-5.17l2.16-2.9c.55-.74,1.14-1.46,1.65-2.23l2.93-4.38c.89-1.33,1.67-2.74,2.49-4.11,1.65-2.73,3.24-5.5,4.72-8.33a0,0,0,0,0,0,0Zm-40.59,54.89-.36.47.36-.47ZM389.19,881l-.15.19.15-.19Zm43.14-58.1,0,0h0l0,0Z"/><path class="cls-1" d="M432,819.35c-4,4.3-8,8.66-12,13-3.59,3.84-7.23,7.64-10.8,11.52s-7.25,7.91-11.09,11.66-7.75,7.48-11.5,11.34c-7.55,7.78-15.09,15.62-21.87,24.1-3.55,4.44-7,8.95-10.35,13.57A126.51,126.51,0,0,0,345.75,918c-2.17,4-4,8.15-5.79,12.36l-1.2,2.83c-2.64,6-5.5,11.9-8.51,17.73,0,0,0,0,0,0,2.9-3.2,5.85-6.36,8.69-9.62a96.45,96.45,0,0,0,7.37-9.94c2.17-3.26,4.23-6.61,6.49-9.82,2.46-3.49,5-6.89,7.59-10.3q4.36-5.64,8.63-11.34l2.28-3c6.7-8.47,13.45-16.88,20.07-25.41,3.32-4.28,6.77-8.46,10.17-12.68s6.78-8.72,10.11-13.11l.51-.68c3.3-4.24,6.63-8.45,9.93-12.68s6.61-8.66,9.89-13a0,0,0,0,0,0,0Zm-63.29,81-.29.37.29-.37Zm-8.33,11-.64.83.64-.83Z"/><path class="cls-1" d="M299,905.49l.72,1.55,1.39,2.74c1.2,2.38,2.25,4.86,3.28,7.33,1.17,2.16,2.48,4.23,3.84,6.28,1.61,2.43,3.46,4.73,5.25,7q2.36,3,4.8,6c3.35,4,7.14,7.62,10.52,11.6,1.82,2.15,3.54,4.39,5.39,6.53,0,0,0,0,0,0-1.15-2.5-2.12-5.08-3.39-7.53a71.3,71.3,0,0,0-4.1-6.82c-2.89-4.32-5.89-8.59-8.89-12.84s-6.41-8.52-9.37-12.95A95.66,95.66,0,0,0,299,901.71q-1.85-2-3.8-3.81c1.35,2.5,2.66,5,3.85,7.59Z"/><path class="cls-1" d="M295.15,848.64c.1,3.07,0,6.16,0,9.24,0,2.43.07,4.86.12,7.29s.05,4.64.22,6.95q.38,5.05.8,10.09c.22,2.63.74,5.26,1.16,7.87a111,111,0,0,0,2.26,11.09,84.74,84.74,0,0,0,7.61,19,86,86,0,0,0,7.82,11.1,103.67,103.67,0,0,0,9.41,10c2.07,2,4,4.15,5.92,6.33l1,2.94c.72,2,1.5,4.07,2.42,6a22.15,22.15,0,0,0,3.31,4.89c.34.4.68.82,1,1.21.8.84,1.63,1.64,2.48,2.43.42.39.86.76,1.3,1.13s.9.76,1.4,1.12l.52-.69c1.18-1.55,2.32-3.18,3.58-4.66,1.52-1.79,3-3.61,4.57-5.37l3-3.37-.69-1.37c-.92-1.82-1.73-3.71-2.6-5.55a71.38,71.38,0,0,0-5.73-9.66c-1-1.46-2.17-2.81-3.25-4.21-.47-.61-.94-1.2-1.44-1.79q-2.06-2.41-4.18-4.77c-2.43-2.68-4.76-5.41-7.08-8.18-1.55-2.07-3.1-4.13-4.54-6.29a98.94,98.94,0,0,1-8-15.25c-4.73-11.61-7.89-23.73-11-35.87-1.19-4.68-2.23-9.41-3.61-14-.82-2.78-1.56-5.6-2.48-8.35l-.83-2.47q-2.82-4.6-5.73-9.14c.6,7.43.92,14.88,1.18,22.32Z"/><path class="cls-1" d="M495.89,736.57c-14.9,17.72-30,35.31-44.62,53.23q-10,12.18-19.74,24.52c-7,8.88-13.8,17.89-20.6,26.91-3.18,4.21-6.43,8.39-9.54,12.65-3.5,4.8-7,9.59-10.49,14.41q-4.78,6.65-9.45,13.39c-1.18,1.69-2.2,3.52-3.28,5.27q-3.15,5.09-6.26,10.21c-4.52,7.45-8.86,15-13.16,22.57a131.14,131.14,0,0,0-10.82,23,44.78,44.78,0,0,0-2.52,15.89,22.41,22.41,0,0,0,.76,5c.37-.49.75-1,1.13-1.43a27.55,27.55,0,0,1,.12-4.38,44,44,0,0,1,3-10.54c4.2-9.62,10.49-18.05,16.64-26.48,3.13-4.3,6.21-8.63,9.35-12.92q6.24-8.54,12.36-17.15c.85-1.2,1.67-2.45,2.57-3.62q2.07-2.71,4.13-5.43c6.76-8.94,13.3-18,19.94-27.09,6.47-8.82,13-17.6,19.37-26.5,13-18.18,25.47-36.74,37.7-55.45,7.86-12,15.62-24.1,23.44-36.14a0,0,0,0,0,0,0Z"/><path class="cls-1" d="M512.72,720.94q-10.19,11.45-20.11,23.12-6.44,7.58-12.71,15.29c-2.44,3-4.73,6.13-7.07,9.2-6.68,8.77-13.47,17.47-20,26.34l-21.69,29.4c-5.55,7.52-10.91,15.17-16.36,22.75-2.17,3-4.43,6-6.64,9q-4,5.41-7.92,10.91-10.47,13.41-20.45,27.2c-2.8,3.86-5.34,7.9-8.15,11.75q-2.94,4-5.85,8.08c-3,4.22-6.2,8.34-9,12.7a74.31,74.31,0,0,0-4.87,8.49,59.09,59.09,0,0,0-3.38,8.84,32.49,32.49,0,0,0-1.24,8.82,14,14,0,0,0,.43,3.47,14.61,14.61,0,0,0,.7,1.68c.26.56.52,1.11.8,1.66,0,0,0,0,0,0-.3-1.14-.57-2.29-.76-3.45a15.89,15.89,0,0,1,.11-2.4,33.08,33.08,0,0,1,2.12-7.07,56.9,56.9,0,0,1,6.63-11c2.16-2.72,4.5-5.31,6.87-7.85s4.73-4.76,7.07-7.17,4.51-4.68,6.76-7c3.66-3.84,7.15-7.85,10.67-11.82s7-7.72,10.53-11.61q6-6.74,12-13.57c1.3-1.5,2.47-3.12,3.68-4.7q2.48-3.22,4.92-6.48c1-1.66,2.05-3.32,3.16-4.94l5.88-8.6c1.35-2,2.72-3.9,4.2-5.79l6.86-8.73,1.27-1.59,7-9.83q20.54-28.87,41.12-57.71c.64-.89,1.32-1.76,2-2.64q2.92-3.87,5.79-7.79,2.71-3.68,5.38-7.39c1.18-2.23,2.37-4.45,3.59-6.65,2.57-4.64,5.27-9.21,7.9-13.82,2.48-4.34,4.9-8.73,7.51-13,2.76-4.53,5.56-9,8.56-13.39,1.87-2.72,3.79-5.4,5.68-8.1q-11.49,12.66-22.9,25.4Z"/><path class="cls-1" d="M501.05,741.78c-6.8,7.91-13.79,15.66-20.71,23.46q-12.12,13.68-24.21,27.38-5,5.71-10,11.46c-3.27,3.8-6.4,7.66-9.5,11.6-3.75,4.78-7.51,9.53-10.9,14.57-1.87,2.78-3.69,5.59-5.52,8.39-1.48,2.27-2.73,4.71-4.07,7.06l-2.75,4.8c-1.11,1.93-2.15,3.91-3.35,5.79s-2.47,4.13-3.87,6.06l-3.75,5.14c-3.32,4.2-6.7,8.4-9.76,12.79s-6.05,9-8.74,13.65-5.24,9.4-8,14c-2.81,4.79-5.66,9.55-8.61,14.27-5,8-10,16.09-14.7,24.33-2.32,4.1-4.65,8.2-6.7,12.44-2.33,4.84-4.6,9.69-6.73,14.61l.36-.64c.68-1.18,1.52-2.29,2.27-3.42s1.37-2,2.11-2.94,1.36-1.82,2-2.73l0-.06c2.32-3.31,4.71-6.53,7.14-9.75,3.39-4.11,6.82-8.17,10.41-12.11,2.46-2.7,5-5.34,7.54-8l2-2.43,2.49-3.08c1.87-2.83,3.77-5.63,5.75-8.38,6.23-8.66,12.85-17,19.07-25.71,3.26-4.56,6.61-9.1,9.65-13.81s6-9.3,9-14c1.29-2,2.52-4.09,3.87-6.07l5.88-8.6c1.35-2,2.72-3.9,4.2-5.79l6.86-8.73c3.23-4.11,6.67-8,10.07-12l5.84-6.82c.86-1,1.79-1.95,2.7-2.9l2.93-4.26q4.27-7.28,8.48-14.59c10.54-18.27,20.71-36.75,31.18-55.07,0,0,0,0,0,0Z"/><path class="cls-1" d="M490.1,725c-11.8,14.46-23.75,28.81-35.5,43.32-13.54,16.72-26.91,33.58-39.81,50.8-5.41,7.23-10.91,14.4-16.37,21.59-2.39,3.15-4.85,6.26-7.18,9.46-2.58,3.54-5.16,7.08-7.71,10.65-11.16,15.59-21.85,31.5-32.66,47.32q-4.1,6-8.15,12c-1.06,1.58-2,3.28-2.95,4.91l-3.58,6c-1,1.64-1.8,3.4-2.7,5.09l-3.45,6.53c-.9,1.72-1.73,3.49-2.59,5.23q-1.66,3.37-3.31,6.75l.1.18q2-3,4-6c1.16-1.71,2.28-3.46,3.48-5.14L339.36,933l4.31-5.47c1.14-1.45,2.23-3,3.44-4.36q5.59-6.49,11.14-13c2.3-2.71,4.52-5.48,6.76-8.23q5.79-7.12,11.49-14.32c2-2.51,3.92-5.07,5.85-7.62q6.19-8.16,12.23-16.42,7.41-10.15,14.83-20.29c5.11-6.95,10.25-13.87,15.29-20.87,6.67-9.28,13.16-18.69,19.58-28.14,10.83-15.93,21.42-32,32-48.11,4.62-7.05,9.2-14.12,13.87-21.15a0,0,0,0,0,0,0Z"/><path class="cls-1" d="M431.42,832.72c-7.25,8-14.23,16.29-21.18,24.56-5.61,6.68-11.14,13.41-16.39,20.39A180.23,180.23,0,0,0,376.75,906q-6,12.16-11.63,24.55c-1.64,3.63-3.26,7.25-4.84,10.91s-3,7.13-4.22,10.78l1.32-1.51c1.8-2.07,3.69-4.1,5.4-6.24q5.17-6.45,10.35-12.88l1.24-1.54q2.18-3.68,4.31-7.38c2.95-5.13,5.76-10.34,8.52-15.58,2.39-4.54,4.75-9.08,7.16-13.6,3.73-7,7.94-13.78,12.1-20.55,4-6.46,8.06-12.84,12-19.3,4.3-7,8.48-14,12.94-20.91,0,0,0,0,0,0Z"/><path class="cls-1" d="M305.6,881.89c2.31,12.2,4.67,24.43,8.38,36.3A122.42,122.42,0,0,0,326.6,945c2.5,4.11,5.2,8.09,8,12,2.66,3.72,5.64,7.17,8.6,10.65l.06-.09c-1.22-3-2.54-6-3.8-9-1.51-3.65-2.95-7.34-4.45-11q-2.54-6.17-5.15-12.3c-3.47-8.2-7.14-16.3-10.72-24.45-2.73-6.21-5.48-12.39-8.42-18.5-1.69-3.51-3.42-7-5.08-10.52h0s0,0,0,0Z"/><path class="cls-1" d="M328.58,21.47,310.43,22c-.44,0-.87,0-1.32.07-1.86.11-3.73.25-5.59.4q-5.85.46-11.67,1.26c-3.62.49-7.23,1.12-10.82,1.82-1,.19-1.93.36-2.87.59l-1.62.41-10.16,2.54c-1.89.47-3.74,1.07-5.6,1.64L252,33.38c-.65.2-1.29.45-1.94.68L244.66,36c-5.07,1.77-10.12,3.61-15.18,5.43l-7.56,2.72q-3.25,1.17-6.47,2.4c-2.35.89-4.71,1.76-7,2.72l-4.88,2c-.88.36-1.76.71-2.63,1.11l-4.32,1.94c-1,.45-2,.88-3,1.36l-7.7,3.68c-1,.47-2,1-2.93,1.52l-4.77,2.48c-.61.32-1.2.66-1.79,1l-5,2.9c-.7.4-1.41.79-2.08,1.23L165,71.32c-.88.57-1.78,1.13-2.64,1.73l-3.7,2.57c-4,2.78-8,5.58-12,8.32l-7.32,5c-2.45,1.67-4.86,3.4-7.3,5.11-2,1.42-4,3-5.94,4.46l-2.67,2c-1,.79-2,1.65-3,2.48-1.95,1.62-3.89,3.23-5.79,4.91s-3.94,3.42-5.84,5.21l-3.92,3.69c-.64.61-1.31,1.2-1.92,1.85l-6.09,6.39c-.22.23-.42.5-.62.75l-1.49,1.79-3.44,4.14c-.45.55-.87,1.11-1.29,1.68l-3.25,4.48c-.51.7-1.06,1.38-1.52,2.12l-2.61,4.15c-.57.9-1.18,1.78-1.7,2.71l-2.3,4c-2.5,4.38-4.88,8.83-7.26,13.28q-3.86,7.24-7.75,14.46c-1.34,2.5-2.7,5-4.05,7.5-1.12,2.07-2.2,4.17-3.29,6.27l-2,3.94c-.42.81-.79,1.65-1.18,2.48l-2.31,4.9c-.34.71-.68,1.43-1,2.15l-3.61,8.46c-.33.79-.62,1.6-.93,2.39l-2.11,5.48c-.32.83-.67,1.66-1,2.5l-1.2,3.57-1.71,5.09c-.25.74-.52,1.48-.74,2.23l-2.61,9.3c-.56,2-1,4-1.54,6.07q-2,8.38-4,16.78c-2.36,10.09-5.06,20.09-7.62,30.13-1.22,4.82-2.34,9.66-3.48,14.5-.44,1.88-.77,3.77-1.12,5.66q-.45,2.37-.89,4.73c-.27,1.45-.5,2.91-.72,4.37,0,0,0,0,0,0,.27-1.45.54-2.89.86-4.33q.61-2.79,1.22-5.59l.74-3.4c.2-.91.48-1.82.71-2.72L22.44,302c.68-2.61,1.45-5.2,2.17-7.8,1.23-4.44,2.52-8.86,3.71-13.31q1.28-4.74,2.55-9.48c.64-2.39,1.21-4.81,1.82-7.21q1.61-6.37,3.27-12.74c.41-1.58.78-3.18,1.24-4.75l2.38-8,.79-2.66c.14-.49.33-1,.5-1.44q1.46-4.14,2.91-8.27c.52-1.46,1.11-2.89,1.68-4.33q1.32-3.31,2.64-6.62l3.55-8c1-2.32,2.21-4.58,3.32-6.86.43-.88.84-1.78,1.3-2.64l2-3.69c1.14-2.11,2.26-4.22,3.43-6.32q4.29-7.69,8.55-15.4c2.35-4.25,4.66-8.51,7-12.75,1.12-2,2.23-4,3.39-6,1.26-2.16,2.49-4.34,3.84-6.44l2.84-4.44c.39-.61.78-1.21,1.21-1.8l4.79-6.54,3.45-4.13c1-1.15,1.88-2.33,2.91-3.41l5.2-5.46c1.05-1.1,2.17-2.12,3.28-3.17l2.66-2.52c.44-.41.87-.84,1.32-1.24l5.09-4.51c2.65-2.36,5.4-4.61,8.13-6.88l-.34.26,7-5.39c.52-.4,1-.77,1.58-1.15l4.65-3.29c3.89-2.75,7.84-5.42,11.74-8.14l13.88-9.7c.86-.61,1.76-1.16,2.64-1.74l4.35-2.86c.67-.44,1.38-.82,2.07-1.23l5-2.91c1.74-1,3.54-1.91,5.33-2.84s3.85-2,5.81-2.95L193.6,59c.64-.31,1.28-.62,1.93-.91l7-3.11,7.72-3.14c.71-.29,1.44-.54,2.16-.81L218,49c4.4-1.64,8.85-3.14,13.28-4.68l9.36-3.28c2.25-.79,4.53-1.54,6.79-2.3l4.55-1.54c.55-.18,1.09-.36,1.64-.52l9.81-2.87c1-.3,2.06-.64,3.11-.89L273,31.38l6-1.45c1.59-.38,3.21-.64,4.82-.93,2.7-.48,5.42-.9,8.14-1.27l-.54.07c6.16-.8,12.36-1.28,18.56-1.61.48,0,1,0,1.44,0l4-.09,9.16-.2,3.23-.07c.36,0,.71,0,1.07,0l15.37.63,5.75.23c1,0,1.92.15,2.88.23q2.35.2,4.7.44c3.44.34,6.87.75,10.29,1.21s7,1,10.49,1.64c4,.69,7.89,1.48,11.81,2.3l5.43,1.17,1.19.27,2.95.75q10,2.51,20,5c4.62,1.13,9.23,2.34,13.84,3.5l8.73,2.2c1.52.38,3.05.7,4.59,1l14.79,3.3c1.34.3,2.69.54,4,.81l8.75,1.76,11.84,2.35c4.09.81,8.2,1.62,12.3,2.36,0,0,0,0,0,0-5.32-1.21-10.61-2.57-15.9-3.91l-16.54-4.2c-1.62-.41-3.24-.82-4.85-1.26l-9.89-2.72-7.72-2.11c-1.81-.5-3.6-1.07-5.39-1.61l-11-3.24c-1.79-.53-3.59-1.09-5.39-1.59q-8.85-2.47-17.71-4.88l-6.54-1.77c-1.21-.32-2.44-.57-3.65-.84-1.81-.41-3.62-.8-5.43-1.18-3.93-.82-7.87-1.55-11.83-2.22-7.62-1.28-15.3-2.18-23-2.85-1.53-.13-3.06-.28-4.59-.33l-4.13-.15-11.37-.41-3.92-.14c-.36,0-.72,0-1.08,0Z"/><path class="cls-1" d="M331.45,117.49c-5.87.2-11.72.73-17.54,1.52a185.63,185.63,0,0,0-64.18,21,187.81,187.81,0,0,0-71.42,68.61,185.3,185.3,0,0,0-23.41,63.27A187.52,187.52,0,0,0,156,341.24a184.57,184.57,0,0,0,25.29,62.17,188.8,188.8,0,0,0,45.16,48.78A185.44,185.44,0,0,0,421.28,470a188.66,188.66,0,0,0,89.53-95.75q3.32-8,5.9-16.17c1.7-5.43,3.11-10.94,4.29-16.5a184.76,184.76,0,0,0-7.48-102.16,186.81,186.81,0,0,0-32.46-55.7A178.18,178.18,0,0,0,441,148.5q-1-.71-2-1.41c-2.44-1.68-4.94-3.29-7.47-4.83a162,162,0,0,0-15.09-8.13,174.09,174.09,0,0,0-32.52-11.54,180.22,180.22,0,0,0-34.47-5c-3.2-.16-6.4-.23-9.6-.23q-4.2,0-8.4.15Zm4.26,3.23c4.1,0,8.21.13,12.3.4s8.32.71,12.46,1.26a191.18,191.18,0,0,1,48.78,13.43,217.53,217.53,0,0,1,25,12.62q2.23,1.31,4.43,2.67,4.38,3,8.61,6.25l-.09-.07a197,197,0,0,1,35,35,186.88,186.88,0,0,1,23.42,40.19l-.13-.32.15.36.09.21-.07-.15a184.43,184.43,0,0,1,12.67,46.73,192.09,192.09,0,0,1-.12,50.14,188.11,188.11,0,0,1-12.74,46.43l0,0,0,.07-.19.44.11-.26a188.13,188.13,0,0,1-10.64,21.13,185.31,185.31,0,0,1-13.14,19.41l.21-.27a187.83,187.83,0,0,1-33.08,33.05l.05,0-.12.09-.19.15.07-.06a184.43,184.43,0,0,1-39.85,23.17l.34-.14a188.71,188.71,0,0,1-22.7,7.9,182.1,182.1,0,0,1-24.45,5l.37,0a190.72,190.72,0,0,1-49.7,0,188.51,188.51,0,0,1-23.75-4.84,182.53,182.53,0,0,1-22.78-7.88l.09,0a186.38,186.38,0,0,1-40.62-23.72l0,0-.12-.09-.09-.07,0,0a186.82,186.82,0,0,1-32.93-32.94l.15.2a183.07,183.07,0,0,1-36.75-87.75l0,.27a188.59,188.59,0,0,1,0-49.37l0,.16a189.32,189.32,0,0,1,4.83-23.91,181.92,181.92,0,0,1,8-23,186.91,186.91,0,0,1,23.69-40.52,188.8,188.8,0,0,1,33.38-33.39,184.85,184.85,0,0,1,40.45-23.59,188.73,188.73,0,0,1,22.4-7.73,182.63,182.63,0,0,1,23.7-4.82l-.41.06a197.59,197.59,0,0,1,23.88-1.71ZM266.06,135l-.08,0,.08,0Zm143.46,1,.17.07-.17-.07ZM225.64,158.55l-.1.07.1-.07ZM482,191.93l.23.3-.23-.3ZM192.22,192l-.07.09.07-.09ZM518.35,328.76l0,.32,0-.32ZM448.59,449.49l.12-.09.07-.05-.18.14Zm-223.14-.66.09.07-.15-.12.06,0Zm280-72.79.08-.18v0l-.09.21ZM155.85,279.19l0-.12,0,.12Zm349.86-46.65,0-.06,0,0,0,.09Z"/><path class="cls-1" d="M304.81,125a188.66,188.66,0,0,0-62.33,25.54,194,194,0,0,0-66.05,71.25A188.67,188.67,0,0,0,163.54,252a183.62,183.62,0,0,0-7.33,31.86,187.8,187.8,0,0,0,2.39,66.57,183.1,183.1,0,0,0,9.34,30.34A190.37,190.37,0,0,0,200.8,434.6a185.78,185.78,0,0,0,22,21.54,196,196,0,0,0,26.35,18.52,191.2,191.2,0,0,0,29.84,14,181.18,181.18,0,0,0,32.31,8.66c5.85,1,11.75,1.75,17.67,2.23,2.78.23,5.56.38,8.35.48,1.37.05,2.75,0,4.11.14l1.83.14c.91.06,1.83,0,2.75,0a193.29,193.29,0,0,0,35.36-3.68,189,189,0,0,0,63.4-24.89,196.66,196.66,0,0,0,26.95-20.27,182,182,0,0,0,22.41-24A193.58,193.58,0,0,0,512.6,399c2.73-5.19,5.12-10.54,7.36-16,2.15-5.2,4-10.51,5.69-15.88a196.72,196.72,0,0,0,7.17-34.49,188.38,188.38,0,0,0,.86-35.24c-.41-6.14-1.17-12.27-2.14-18.35q-1.37-8.58-3.59-17A191.75,191.75,0,0,0,516,229.59a189.47,189.47,0,0,0-38.79-54.67,186.72,186.72,0,0,0-46.17-33.14,196.21,196.21,0,0,0-20.87-9.28,180.87,180.87,0,0,0-33.61-9,188.9,188.9,0,0,0-31.66-2.65A196.29,196.29,0,0,0,304.81,125Zm38.3,6.26a181.83,181.83,0,0,1,24.06,1.67,188.14,188.14,0,0,1,46.29,12.63q5.67,2.43,11.17,5.21,4.29,2.22,8.47,4.67a182.93,182.93,0,0,1,52.5,46.15A184.53,184.53,0,0,1,508.73,241a179.88,179.88,0,0,1,12.53,93.95,182.74,182.74,0,0,1-12.2,44.46,183.05,183.05,0,0,1-56.78,73.82A180.31,180.31,0,0,1,390.66,484a172.86,172.86,0,0,1-22.79,4.69q-6,.78-12,1.18c-2.11.14-4.23.23-6.34.3s-4.21,0-6.3.13l-2.44.14c-1.16.06-2.35,0-3.5-.09-2.09-.07-4.18-.18-6.27-.32-3.88-.26-7.75-.66-11.6-1.16a187.78,187.78,0,0,1-46-12.61,185.17,185.17,0,0,1-39.57-23.09,179.53,179.53,0,0,1-45.16-51.24,180.68,180.68,0,0,1-10.45-20.7,185.8,185.8,0,0,1-12.58-46,190.13,190.13,0,0,1,0-48.61,185.74,185.74,0,0,1,12.56-45.83,188.83,188.83,0,0,1,23.49-40.2,182.12,182.12,0,0,1,32.11-32,178.37,178.37,0,0,1,85.34-35.66,194.4,194.4,0,0,1,23.94-1.59Zm69.34,13.86.8.34-.8-.34ZM163.36,287.49v0Zm15,94,.13.31-.13-.31ZM412,476.55l-.73.31.73-.31Z"/><path class="cls-1" d="M290.86,136.67a185.82,185.82,0,0,0-66,30.29,171.65,171.65,0,0,0-58.13,73.16,161.16,161.16,0,0,0-6.06,17c-.88,3-1.66,6-2.34,9.06A179.22,179.22,0,0,0,152,288.59a187.23,187.23,0,0,0-3.86,39.82,172.51,172.51,0,0,0,4.61,38.69,184.84,184.84,0,0,0,57.77,95.62,188,188,0,0,0,67.65,37.72,196.9,196.9,0,0,0,39.09,7.85,187.72,187.72,0,0,0,113.05-24.56,190.07,190.07,0,0,0,55.74-49.57,186.53,186.53,0,0,0,32.6-68.45,192.23,192.23,0,0,0,2.34-79A189,189,0,0,0,492.64,216a190.89,190.89,0,0,0-51.75-52.42,185.56,185.56,0,0,0-70.43-29,189.42,189.42,0,0,0-34.76-3.19,195.65,195.65,0,0,0-44.84,5.23Zm45,2a198.85,198.85,0,0,1,24.43,1.61A186.65,186.65,0,0,1,406,152.7a182.09,182.09,0,0,1,73.59,56.54,178.29,178.29,0,0,1,35.76,85.49,192.27,192.27,0,0,1,1.59,24.13,181,181,0,0,1-1.58,23.8,180.45,180.45,0,0,1-36.15,86.43A181.2,181.2,0,0,1,406,485.35a186.35,186.35,0,0,1-45.44,12.4,190.73,190.73,0,0,1-49,.07,181.36,181.36,0,0,1-44-12.09A186.08,186.08,0,0,1,246.32,475a197.51,197.51,0,0,1-20-13.62,191.59,191.59,0,0,1-17.86-15.85,201.13,201.13,0,0,1-15.83-18.06,187.29,187.29,0,0,1-23.44-40.14,198.77,198.77,0,0,1-8.25-24,205.85,205.85,0,0,1-5.31-26A188.52,188.52,0,0,1,154,312.3,202.78,202.78,0,0,1,155.78,287a186.27,186.27,0,0,1,4-20.6q1.51-4,3.17-7.9l0,0a227.6,227.6,0,0,1,12.5-25,189.52,189.52,0,0,1,13.57-20,212.67,212.67,0,0,1,37.21-37.27,189.49,189.49,0,0,1,40.77-23.77,184.49,184.49,0,0,1,45.68-12.43,174.4,174.4,0,0,1,23.22-1.53Zm-109.12,37.3-.22.17.22-.17Zm219.54.12.26.2-.26-.2Zm56.32,72.29.2.47-.2-.47Zm12.66,45.54.05.4-.05-.4Z"/><path class="cls-1" d="M335.39,137a185.39,185.39,0,0,0-62.68,16.82,181.77,181.77,0,0,0-29,16.63,171.22,171.22,0,0,0-62,83.71,0,0,0,0,0,0,0,205.27,205.27,0,0,1,22.16-36l-.07.09L204,218l.16-.21-.08.11a207.77,207.77,0,0,1,36.5-36.45l-.71.54c3.31-2.55,6.66-5.06,10.09-7.45s7-4.73,10.65-6.95a173.09,173.09,0,0,1,22.78-11.71,180.32,180.32,0,0,1,70-14.09c4.37,0,8.73.07,13.09.3,4.14.22,8.27.67,12.38,1.21h0a182.85,182.85,0,0,1,45.66,12.35l-.23-.1.29.12.19.08-.17-.07a187.21,187.21,0,0,1,40.53,23.68l0,0,.06,0,.3.23-.22-.17a188.46,188.46,0,0,1,33.13,33.19l-.15-.2a186.73,186.73,0,0,1,24,41.11l0,0a184.12,184.12,0,0,1,12.4,45.75l0-.33a193.44,193.44,0,0,1,1.73,24.75,186.86,186.86,0,0,1-1.69,25.24c0-.1,0-.2,0-.31a180.62,180.62,0,0,1-36.19,86.94,182.16,182.16,0,0,1-73.34,56.58,188.73,188.73,0,0,1-21.37,7.43,170.45,170.45,0,0,1-22.4,4.76A189.39,189.39,0,0,1,355,506c-4.49,0-9-.12-13.45-.39-4.23-.26-8.44-.68-12.64-1.23a183.38,183.38,0,0,1-68.44-23.7,194.61,194.61,0,0,1-20-13.55,209.93,209.93,0,0,1-18.8-16.44A192.2,192.2,0,0,1,205,431.83h0a189.79,189.79,0,0,1-24.12-41.17h0q-1-2.27-1.86-4.57s0,0,0,0a187.1,187.1,0,0,0,13.28,30.72,182.62,182.62,0,0,0,17.13,25.82,177.93,177.93,0,0,0,21.39,22.64,175.11,175.11,0,0,0,26,19,183.93,183.93,0,0,0,62.09,23.36c5.65,1,11.35,1.76,17.07,2.28,2.79.25,5.58.42,8.38.55,3.06.14,6.13.22,9.2.16a198.24,198.24,0,0,0,35.1-4.07,188.16,188.16,0,0,0,110-68.09,186.89,186.89,0,0,0,31-57.89,181.55,181.55,0,0,0,7.49-33.06,190,190,0,0,0,1.23-35.29,184.08,184.08,0,0,0-5.18-34,187.35,187.35,0,0,0-99.62-122.82,191.12,191.12,0,0,0-30.86-11.86,187.16,187.16,0,0,0-33.38-6.34c-5.7-.57-11.41-.93-17.14-.95h-.47c-5.44,0-10.88.26-16.3.74ZM522.1,253.23l0,.1,0-.1Zm0,141.76,0,.11,0-.11ZM240.05,466.77l.17.13-.17-.13Zm41.48,24.52.37.15-.37-.15Zm.37.15.23.1-.23-.1Zm143.3.65-.06,0,.06,0Zm-44,12.25-.25,0,.25,0ZM180.92,390.67v0ZM204,218l-.1.13.18-.23L204,218Zm261.25-38.56-.08-.06h0l.1.08Zm-40.63-23.76h0l-.06,0,.08,0Z"/></g></g></svg>