<svg xmlns="http://www.w3.org/2000/svg" viewBox="0 0 1198.18 1260.65"><defs><style>.cls-1{fill:#444;}</style></defs><title>node-icon</title><g id="Layer_2" data-name="Layer 2"><g id="Draw_Layer" data-name="Draw Layer"><path class="cls-1" d="M618.16,0c-1.52,0-3,.08-4.56.15a89.73,89.73,0,0,0-10.07,1.11,96.43,96.43,0,0,0-17.59,4.61c-5.61,2-11.14,4.28-16.75,6.33-6,2.2-12.05,4.2-18,6.44-6.5,2.43-13,5-19.32,7.85s-12.85,6-19.23,9.07c-6.16,3-12.26,6.06-18.36,9.17s-12,6.48-18,9.79S464.56,61,458.62,64.06c-5.54,2.88-11.21,5.49-16.87,8.13-5.8,2.7-11.66,5.35-17.36,8.25q-9.63,4.91-19.18,10c-11.21,5.94-22.45,11.93-33.39,18.36-11.5,6.75-23,13.57-34.72,19.87-6.41,3.43-12.79,6.87-19.15,10.39-5.41,3-10.79,6.09-16,9.41-11.37,7.2-22.68,14.5-34.09,21.63-11.76,7.34-23.48,14.73-35.62,21.43-5.62,3.1-11.34,6-16.93,9.17l-10.71,6c-2.87,1.62-5.66,3.4-8.47,5.12-5.34,3.26-10.6,6.7-16,9.8-6.37,3.63-12.77,7.17-19.21,10.68q-8.78,4.78-17.44,9.76c-5.59,3.23-11.12,6.58-16.69,9.87C115.45,258.57,104,265,93.19,272.36c-5.9,4-11.75,8.11-17.69,12.08-5.29,3.54-10.76,6.81-16,10.38a116.87,116.87,0,0,0-16.15,12.82,70.16,70.16,0,0,0-5.71,6.18,93.14,93.14,0,0,0-6.75,9c-1.65,2.64-3.34,5.29-4.73,8.08a100.47,100.47,0,0,0-4.45,10.3,60.16,60.16,0,0,0-2.18,8c-.67,3.1-1.31,6.21-1.87,9.33-2.42,13.5-3.78,27.15-5.09,40.8C11.26,412.57,10,425.8,8.53,439Q6.5,458,5,477c-1.11,14-2,28-2.87,42.07C1.32,531.8.54,544.58.38,557.36.21,571.55.22,585.74.25,599.93c.06,26.5,0,53-.14,79.53-.1,26.88-.34,53.79.48,80.66Q1.24,781.06,2.33,802c.7,13.45,1.21,26.9,1.73,40.35.25,6.52.72,13,1.27,19.52.59,7,1.63,13.88,2.68,20.79,1,6.32,2.25,12.59,3.48,18.86,1.21,6.11,2.41,12.28,4.07,18.29a88.92,88.92,0,0,0,2.72,8.64,39.38,39.38,0,0,0,4,8.35,58.84,58.84,0,0,0,4.07,5.3c4.6,5.23,10.21,9.57,15.76,13.75,5.16,3.88,10.44,7.54,15.86,11s10.84,6.82,16.07,10.5q6.13,4.33,12.12,8.81c10.18,8.07,20.3,16.19,30.88,23.73s21.29,15,32.3,22q8.64,5.44,17.44,10.59c5.68,3.32,11.39,6.59,17.06,9.93,5.44,3.21,10.84,6.5,16.42,9.46,3.1,1.65,6.21,3.2,9.39,4.7,1.81.86,3.67,1.59,5.53,2.33,1.63.64,3.24,1.33,4.91,1.87l5,1.63c1.72.56,3.52.95,5.27,1.41,2.75.74,5.56,1.35,8.36,1.89,3.23.63,6.45,1.24,9.7,1.79,4,.67,8,1.32,12.07,1.74a157.72,157.72,0,0,0,18.47,1c6.26-.09,12.49-.52,18.71-1.12,3.86-.37,7.71-1.05,11.52-1.8a79.32,79.32,0,0,0,9.59-2.71c2.14-.71,4.29-1.69,6.36-2.57,1.37-.58,2.75-1.14,4.09-1.76q5-2.29,9.84-4.75c5.48-2.77,10.87-5.73,16.12-8.92a137.24,137.24,0,0,0,16.89-12.41c1.21-1,2.3-2.21,3.43-3.31a48.64,48.64,0,0,0,4-4.61c1.39-1.73,2.71-3.51,4-5.35a62.43,62.43,0,0,0,5-9.42,139.83,139.83,0,0,0,6.85-19.27c3.37-11.82,6.44-23.79,8.88-35.84A256.67,256.67,0,0,0,409,925.57c.5-13,.5-26.08.73-39.12s1.08-25.94,1.68-38.91c.61-13.32,1.31-26.64,1.76-40,.44-12.9,0-25.8-.11-38.7-.16-13.44-.25-26.86-.45-40.3-.19-12.72-.27-25.45-.47-38.17-.21-13-.43-26-.4-39,0-13.24.36-26.49.1-39.74-.26-13.43-.51-26.87-1.12-40.29-.25-5.52-.6-11-.85-16.54-.26-5.85-.43-11.71-.72-17.55-.52-10.79-1.25-21.61-2.49-32.35S404,483.63,402,473.06c-2.25-12-4.74-24-7.35-36,0,0,0,0,0,0,1.12,13.89,2.48,27.76,3.29,41.67.73,12.51.3,25.06-.14,37.57-.46,12.84-1.09,25.68-1.48,38.53-.39,13.18-.52,26.36-.7,39.53-.09,6.54-.16,13.09-.36,19.63-.2,6.83-.52,13.65-.82,20.47-.55,12.74-.85,25.5-1,38.25-.17,13.41-.27,26.82-.38,40.23-.11,13-.34,26-.48,39.07s-.12,26.18-.46,39.26S391,817.13,390,830c-1,13.34-2,26.67-2.92,40-.88,13-1.46,26.07-2.09,39.11-.29,5.95-.49,11.91-.91,17.86-.4,5.75-.92,11.47-1.62,17.19-.88,5.55-1.89,11.06-3.19,16.52-1.45,6.13-3.09,12.22-4.71,18.31-2.94,11.06-6,22.1-10.15,32.76a63.57,63.57,0,0,1-5.19,9.22,69.26,69.26,0,0,1-6.41,6.71c-1.61,1.46-3.26,2.83-4.93,4.18-2.52,1.8-5.05,3.54-7.64,5.24-3,2-6.21,3.79-9.37,5.53-6.28,3.48-12.63,6.75-19.18,9.69a63.42,63.42,0,0,1-7.71,2.51c-1.53.36-3.05.8-4.59,1.07l-4.17.74c-5.39.65-10.78,1.13-16.22,1.28a131.23,131.23,0,0,1-17.5-.92c-2.37-.35-4.74-.72-7.1-1.14-3.44-.62-6.85-1.33-10.27-2.06-2.92-.62-5.83-1.39-8.69-2.24-1.49-.45-3-.82-4.49-1.35l-5.43-1.94c-1.7-.73-3.39-1.48-5.05-2.31-2.82-1.42-5.59-2.9-8.35-4.43-4.81-2.67-9.5-5.56-14.23-8.35-10.27-6-20.68-11.85-30.89-18-4.7-2.82-9.31-5.8-13.91-8.77-4.84-3.12-9.67-6.27-14.45-9.48s-9.76-6.61-14.57-10c-4.45-3.15-8.8-6.41-13.13-9.72-8.5-6.65-17-13.35-26.07-19.22-4.64-3-9.32-6-14-8.94s-8.92-5.87-13.26-9c-2.92-2.32-5.79-4.68-8.54-7.2a71.77,71.77,0,0,1-6.8-7.19c-.57-.81-1.11-1.63-1.65-2.48A23.92,23.92,0,0,1,39,920c-3.53-9.35-5.76-19.11-8-28.83-1.08-4.66-2.12-9.38-2.94-14.09-.78-4.47-1.48-8.93-2.13-13.42-.67-6.36-1.26-12.71-1.78-19.08-.54-6.64-.86-13.32-1.26-20-.85-13.91-2-27.81-2.92-41.72-1.77-26.08-2.62-52.23-2.89-78.37-.27-27-.31-53.95-.5-80.92q-.15-21.25-.18-42.49c0-13-.16-26,.31-38.92.51-14,1.2-28,1.86-42.05.61-12.79,1.34-25.58,2.31-38.35,1-13.66,2.23-27.29,3.5-40.93,1.2-12.77,2-25.6,3.43-38.35q.56-4.84,1.18-9.67c.81-5.21,1.68-10.41,2.82-15.56.57-2.55,1.12-5.13,1.86-7.64.67-2.29,1.44-4.53,2.29-6.76,1.27-2.82,2.66-5.56,4.16-8.27a105.26,105.26,0,0,1,5.7-9L48,322.8c1.09-1.38,2.35-2.65,3.52-4s2.54-2.52,3.79-3.77,2.7-2.35,4-3.51c2-1.5,3.94-3,6-4.37,2.75-1.89,5.54-3.7,8.33-5.52q8.65-5.62,17.07-11.58c5.57-3.95,11.17-7.84,16.88-11.59,5.45-3.59,11.07-6.95,16.69-10.27,11.05-6.54,21.94-13.39,33.18-19.61q9.92-5.49,19.86-10.93c5.79-3.17,11.43-6.58,17-10l7.09-4.35c3-1.81,5.89-3.71,8.92-5.43,6.52-3.69,13-7.34,19.64-10.89,5.46-2.94,10.95-5.86,16.29-9q9.69-5.74,19.26-11.67c11.13-6.87,22.14-13.92,33.16-20.95S321,151.74,332.5,145.61c11.86-6.32,23.66-12.71,35.27-19.5,11.42-6.69,22.89-13.28,34.58-19.48q9.35-5,18.74-9.84c6.11-3.18,12.34-6.14,18.56-9.09,11.44-5.42,23.06-10.49,34.2-16.54,10.83-5.88,21.59-11.89,32.59-17.43,10.52-5.3,21.21-10.26,32-15,5.46-2.24,11-4.38,16.52-6.34,5.92-2.09,11.92-4,17.89-5.89,5.42-1.75,10.82-3.58,16.27-5.22a118.71,118.71,0,0,1,15.63-3.41,90.33,90.33,0,0,1,18.71-.63A57.89,57.89,0,0,1,631.31,19c2.1.65,4.14,1.39,6.2,2.16,5.32,2.33,10.54,4.85,15.74,7.46,5.59,2.8,11.21,5.58,16.69,8.57,2.85,1.56,5.7,3.09,8.48,4.77l4.44,2.68c1.84,1.11,3.57,2.43,5.35,3.64,5.37,3.66,10.55,7.64,15.8,11.45,10.51,7.63,21.81,14.09,32.95,20.73,5.65,3.38,11.27,6.85,17,10.09q9.42,5.33,18.95,10.43c4.45,2.39,9,4.67,13.46,7,5.06,2.62,10.09,5.28,15.14,7.91,5.62,2.93,11.27,5.75,17,8.52,2.59,1.26,5.26,2.36,7.89,3.52s5.4,2.34,8.13,3.45c11.53,4.68,23.19,9,34.92,13.16,5.11,1.81,10.25,3.55,15.36,5.35,3,1,6,2,8.87,3.14l8,3.11c2.34,1,4.71,2,7,3.15,3,1.51,6,3,8.93,4.56q9.29,5,18.56,10c5.48,3,11,5.9,16.32,9.13,2.85,1.73,5.68,3.48,8.48,5.29s5.38,3.63,8,5.48c5,3.49,9.87,7.23,14.84,10.79q8.27,5.93,16.67,11.67c10.86,7.38,21.73,14.75,32.8,21.82,9.62,6.14,19.36,12.07,28.48,18.93,6.14,5,12.09,10.16,18.21,15.15q10.15,8.28,21.07,15.52c7.14,4.73,14.53,9.09,21.89,13.47,6.76,4,13.37,8.26,19.77,12.84,1.07.86,2.12,1.73,3.16,2.64a25,25,0,0,1,2.74,2.88,29.71,29.71,0,0,1,1.61,2.63c.84,2.4,1.5,4.89,2.19,7.33q1.9,6.67,3.44,13.42c1.87,8.25,3.21,16.59,4.39,25,.7,6.47,1.27,12.92,1.65,19.41s.36,12.92.34,19.38q-.05,19.26-.55,38.53c-.34,13.42-.4,26.85-.85,40.27-.43,13-2.34,25.89-3.66,38.82-.71,6.93-1.23,13.88-1.63,20.83-.36,6.17-.43,12.34-.49,18.51-.07,6.36.23,12.75.48,19.11.26,6.7.5,13.39.81,20.09q.95,20.34,2.78,40.59c.61,6.68,1.29,13.36,2,20,.77,7.05,1.85,14.07,2.91,21.08.93,6.16,2,12.31,3,18.46.85,5.31,1.58,10.64,2.3,16,.78,6.28,1.56,12.56,2.13,18.86q.94,10.55,1.57,21.12c.78,13.33,1.15,26.66,1.25,40,.09,12.57.27,25.17,0,37.74-.27,13.25-1,26.49-2,39.71-.66,9-1.4,17.91-1.54,26.9-.07,4.71-.1,9.42-.13,14.13,0,3.65,0,7.32-.3,11l-.09.37c-2.57,2.81-5.32,5.48-8,8.22-3.32,3.43-6.65,6.87-10,10.25-3.18,3.18-6.45,6.29-9.87,9.2-1.75,1.49-3.46,3-5.28,4.46l-5.07,4q-15.37,11.34-30.68,22.77c-4.94,3.66-9.91,7.36-15.11,10.64-5.75,3.62-11.51,7.25-17.43,10.6s-11.72,6.56-17.53,9.93c-3,1.72-5.85,3.48-8.73,5.33-2.67,1.71-5.24,3.57-7.84,5.39-5.23,3.66-10.34,7.53-15.69,11-5.58,3.64-11.18,7.23-16.87,10.7-5.92,3.6-11.84,7.2-17.84,10.66s-11.89,6.44-18,9.41c-5.4,2.64-11,5-16.46,7.38-6.43,2.84-12.81,5.73-19.14,8.78-5.41,2.59-10.71,5.39-16.11,8q-8.81,4.27-17.68,8.43c-12.56,5.87-25,11.89-37.77,17.4l-1.63.7c-11.78,4.82-23.68,9.39-35.44,14.29-13.29,5.54-26.58,11.09-39.77,16.87-5.86,2.57-11.61,5.39-17.37,8.17s-11.66,5.6-17.52,8.34c-11.82,5.54-23.93,10.41-35.67,16.12-7.07,3.44-14.1,6.93-21.15,10.4-6.33,3.12-12.72,6.1-19.07,9.17-6.86,3.31-13.65,6.77-20.46,10.18-5.9,3-11.9,5.7-18,8.3-8.3,3.42-16.62,6.8-25.08,9.8s-17.11,5.82-26,7.27a36.85,36.85,0,0,1-3.88.21c-1.4,0-2.78-.1-4.15-.24a69.66,69.66,0,0,1-6.82-1.65,52.19,52.19,0,0,1-5-1.81c-3.78-1.78-7.47-3.68-11.12-5.73-3.85-2.16-7.64-4.43-11.45-6.64q-12.19-7.07-24.67-13.61c-8.24-4.33-16.53-8.57-25-12.46-8.27-3.82-16.74-7.18-25.15-10.67-4.21-1.82-8.27-3.85-12.36-5.94a46.46,46.46,0,0,0-4.57-2c-1.28-.49-2.85-1.07-4.21-.7,0,0,0,0,0,0l.49,0,.51.19a22.41,22.41,0,0,1,2.59,1.73c3.88,3.14,7.22,6.88,11.14,10,4.88,3.88,10,7.45,15.06,11.06q16,11.34,32.05,22.52c10.8,7.49,21.49,15.21,32.82,21.88a135.68,135.68,0,0,0,18.14,9.1,84.86,84.86,0,0,0,8.41,2.86,39.7,39.7,0,0,0,4.63.88c2.36.38,4.72.61,7.1.75a52.06,52.06,0,0,0,10.33-.88c3.23-.45,6.42-1.12,9.59-1.86,2.81-.65,5.57-1.53,8.32-2.38,3.1-1,6.19-2,9.27-3,12.25-4.16,24.25-9,36.1-14.2,5.65-2.48,11.16-5.32,16.67-8.1q9.15-4.61,18.4-9c5.63-2.68,11.3-5.26,16.91-8,6.3-3.05,12.59-6.16,18.89-9.22,7.15-3.47,14.41-6.68,21.68-9.87q12-5.27,23.85-10.94c7.39-3.52,14.66-7.3,22.07-10.78,7.14-3.35,14.41-6.42,21.67-9.5,11.77-4.95,23.52-9.94,35.42-14.52,6.13-2.36,12.29-4.64,18.34-7.16q10.21-4.25,20.34-8.67c6-2.62,11.88-5.39,17.85-8,6.19-2.73,12.4-5.43,18.55-8.26,11.94-5.49,23.65-11.45,35.72-16.63,6.27-2.7,12.55-5.38,18.79-8.16,5.8-2.59,11.38-5.58,17-8.58,2.52-1.36,5-2.86,7.45-4.34l8.6-5.19c5.82-3.53,11.67-7,17.4-10.7s11.46-7.59,17.06-11.58q4-2.88,8.09-5.73c2.38-1.67,4.8-3.34,7.3-4.82,11.43-6.77,23.16-13,34.32-20.25,2.51-1.62,5.05-3.19,7.46-4.95,2.84-2.07,5.65-4.16,8.43-6.3,4.5-3.46,9-7,13.42-10.46,4.67-3.52,9.35-7,14.11-10.41,5.9-4.21,11.86-8.37,17.53-12.89,2.57-2,5.18-4,7.67-6.19,2.88-2.47,5.73-5,8.54-7.5,4.52-4.07,9-8.19,13.64-12.12,1.15-1,2.3-2,3.46-2.92.79-.65,1.52-1.3,2.29-2a21.78,21.78,0,0,0,3.28-4.19l.37-.85a12.91,12.91,0,0,0,1.49-3.93c0-.36.1-.72.15-1.08a31.09,31.09,0,0,0,.49-3.93c.1-1.42.06-2.84,0-4.26-.09-6.05,0-12.1.14-18.15.14-6.33.31-12.66.59-19s.71-12.65,1.09-19c.81-13.24,1.38-26.46,1.4-39.73,0-12.6,0-25.22-.39-37.81-.41-13.2-.94-26.43-2-39.6-.56-6.89-1.18-13.76-2-20.62-.89-7.54-1.9-15.07-2.93-22.59-1.78-13-4-25.93-5.91-38.89-1.51-12.31-2.64-24.67-3.63-37-.54-6.71-1-13.43-1.37-20.16s-.56-13.69-.76-20.54-.37-13.41-.55-20.12c-.16-6.06-.29-12.17-.1-18.23.21-6.53.45-13.05.94-19.57.54-7.07,1.21-14.13,2-21.18.65-6.16,1.42-12.35,1.8-18.54.41-6.73.77-13.46.82-20.21.1-13.43.12-26.86.15-40.3.06-26.2,0-52.51-3.63-78.51a270.32,270.32,0,0,0-6-32.16c-1.21-4.58-2.53-9.35-5.42-13.18a43.4,43.4,0,0,0-3.29-3.95c-.74-.77-1.59-1.46-2.39-2.16a86.19,86.19,0,0,0-7.76-5.76c-4.68-3.2-9.61-6.09-14.46-9-4.34-2.65-8.75-5.18-13.14-7.75-4.89-2.87-9.68-5.91-14.47-8.94-4.54-2.87-8.85-6.1-13.17-9.29-4.64-3.73-9.19-7.54-13.66-11.49-5-4.45-10.07-8.81-15.45-12.82-5.1-3.79-10.57-7.05-16-10.34s-11.11-6.76-16.61-10.24c-11-7-21.91-14.1-32.58-21.57-11-7.72-21.81-15.8-33-23.34-4.53-3.06-9.29-5.86-14.06-8.52-5.67-3.16-11.39-6.22-17.13-9.26q-8.13-4.31-16.29-8.55c-5.41-2.82-11-5.29-16.55-7.74-3.41-1.5-6.95-2.75-10.43-4.09-3.09-1.19-6.24-2.23-9.36-3.33-5.86-2.07-11.74-4.08-17.6-6.16-5.62-2-11.23-4-16.8-6.11q-9-3.44-17.94-7.05l-8.68-3.82c-3.12-1.37-6.16-2.93-9.24-4.4-5.84-2.79-11.55-5.85-17.3-8.81-11.59-6-23.22-11.84-34.6-18.21s-22.84-13.16-34.12-19.94q-8.89-5.34-17.43-11.2c-5.5-3.76-10.85-7.73-16.22-11.67a147.76,147.76,0,0,0-15.63-10.13c-6-3.34-12.14-6.57-18.29-9.74q-8.31-4.29-16.78-8.27C645.5,6,642.1,4.7,638.7,3.44A58.56,58.56,0,0,0,626.46.58,59.72,59.72,0,0,0,618.24,0Zm-174,1179.64h0Zm0,0h0Z"/><path class="cls-1" d="M403.37,445.92c.17,3.46.36,6.92.63,10.38.24,3.07.54,6.14.8,9.21s.41,6.12.51,9.18.07,5.84,0,8.77c-.07,6-.28,11.9-.55,17.85-.29,6.14-.53,12.3-.51,18.46s.12,12.17.27,18.25c.07,3,.27,6,.43,8.93.19,3.32.26,6.66.29,10,0,6.18.18,12.35.5,18.52.16,2.93.36,5.87.53,8.8.18,3.11.29,6.21.39,9.32.21,6.28.3,12.55.44,18.84s.29,12.51.16,18.77c-.13,6.5-.09,13,0,19.48.06,6.33.22,12.67.26,19,0,6.8-.19,13.6-.5,20.39-.3,6.53-.79,13-1.14,19.57s-.61,13.26-.81,19.89c-.21,6.86-.45,13.71-.93,20.56-.46,6.56-1.28,13.1-2,19.64s-1.08,13-1.27,19.46c-.19,6.71.11,13.4.59,20.09.46,6.39,1.17,12.77,1.43,19.17.13,3.38.23,6.75.26,10.13a72.89,72.89,0,0,1-.49,8.58,168.71,168.71,0,0,1-4.17,18.65c-1.69,6.13-3.7,12.16-5.24,18.33-1.61,6.48-3,13-4.52,19.5-1.41,6.23-3,12.44-4.56,18.63s-3.63,12.48-5.65,18.65-3.95,12.42-6.1,18.57c-1.07,3.05-2.21,6.08-3.33,9.12s-2,6-3,9-1.86,6.15-2.94,9.18-2.27,6-3.5,9c-.84,2-1.69,3.89-2.59,5.82-1.05,2.26-2.19,4.49-3.33,6.71s-2.44,4.48-3.74,6.68a61.45,61.45,0,0,1-3.85,5.62c-1.36,1.62-2.73,3.22-4.22,4.71-.9.89-1.81,1.75-2.75,2.6-.7.63-1.44,1.22-2.17,1.81-2.64,2-5.32,3.85-8,5.79s-5.19,3.95-7.76,6c-3.28,2.48-6.59,4.89-10.07,7.08a79,79,0,0,1-10.81,5.46c-3.42,1.41-6.85,2.75-10.39,3.81-4.1,1.24-8.25,2.3-12.41,3.3-4,1-8,1.79-11.94,2.68-4.5,1-9,2.16-13.44,3.23,0,0,0,0,0,0,3.45-.43,6.89-.89,10.34-1.26,3.21-.34,6.42-.61,9.63-1,6.48-.73,13-1.73,19.35-3.06a87.59,87.59,0,0,0,8.73-2.39c1.37-.44,2.71-.93,4.07-1.41,1.69-.6,3.41-1.23,5-2,2.91-1.34,5.74-2.79,8.52-4.4,2.57-1.49,5.07-3.1,7.52-4.77,2.72-1.86,5.39-3.79,8.13-5.61l3.7-2.43c1.41-.93,2.86-1.84,4.21-2.87,1.52-1.15,3-2.31,4.46-3.54,1.24-1.05,2.39-2.21,3.53-3.38a69.45,69.45,0,0,0,6.39-7.9c.91-1.27,1.71-2.64,2.55-4s1.66-2.81,2.43-4.24c1.54-2.87,3-5.75,4.44-8.68s2.66-5.93,3.84-8.94c1.25-3.2,2.36-6.43,3.36-9.71.9-3,1.58-6,2.4-9s1.79-6.18,2.76-9.25c2-6.23,3.6-12.56,5.36-18.86,1.71-6.11,3.69-12.14,5.38-18.26,1.74-6.29,3.3-12.62,4.82-19,1.48-6.18,2.73-12.42,4.21-18.6,1.53-6.42,3.25-12.78,5.07-19.12.93-3.21,1.85-6.43,2.65-9.67s1.54-6.63,2.19-10c.28-1.43.5-2.87.68-4.32s.42-3.19.48-4.79.09-3.44.07-5.16c0-1.57-.09-3.15-.17-4.73-.18-3.59-.42-7.18-.71-10.76-.25-3.1-.63-6.19-1-9.27-.72-6.5-1.42-13-1.61-19.57q-.3-10.26,0-20.52c.07-3,.29-6.09.5-9.13.24-3.53.49-7.05.73-10.58q.66-9.84.8-19.71c.11-6.49.07-13,.18-19.48.11-6.78.38-13.55.77-20.32.38-6.58.8-13.17,1-19.76.24-6.78.32-13.57.45-20.35.12-6.34.21-12.7.62-19,.19-3,.44-6,.63-9q.3-4.77.41-9.54c.15-6.43.27-12.87.43-19.31.16-6.16.4-12.31.87-18.46.45-5.95.92-11.9,1.48-17.84.31-3.25.74-6.48,1.09-9.72a91.43,91.43,0,0,0,.54-9.48c0-6.17-.3-12.36-.79-18.52-.47-5.93-1.06-11.84-1.68-17.76-.32-3.12-.62-6.23-1-9.35s-.84-6.34-1.36-9.5c-.95-5.75-1.73-11.54-2.89-17.25-.63-3.11-1.29-6.22-1.95-9.32s-1.15-6.18-1.64-9.28c-.32-2-.62-4.08-.92-6.12h0ZM301,1053.79l-.41.17.41-.17Z"/><path class="cls-1" d="M49.45,927.91a64.91,64.91,0,0,0,9.39,12.54c3.68,3.83,7.57,7.43,11.48,11s7.82,7.39,11.68,11.15c3.7,3.6,7.32,7.28,11.14,10.75a110.09,110.09,0,0,0,13.38,10.4c4.64,3.06,9.39,6,14.09,9,4.52,2.88,8.86,6.05,13.19,9.2,4.18,3,8.38,6,12.55,9.08,8.9,6.53,17.48,13.48,26.5,19.84a144.22,144.22,0,0,0,13.82,8.59c4.52,2.47,9.17,4.7,13.84,6.9,5,2.36,10.1,4.59,15.3,6.49a56.47,56.47,0,0,0,7.33,2c2.54.55,5.09,1,7.65,1.5,5.72,1,11.46,1.95,17.25,2.45a88.1,88.1,0,0,0,15.39-.12c2.57-.23,5.14-.52,7.73-.68s5-.25,7.57-.31l7.9-.15a54.76,54.76,0,0,0,8.18-.79,32.71,32.71,0,0,0,6.95-2.22,46.55,46.55,0,0,0,6.89-3.74c4.45-2.81,9-5.41,13.55-8a77.57,77.57,0,0,0,14.09-10.18c2.18-2,4.25-4.18,6.33-6.32s4.52-4.51,6.83-6.7c0,0,0,0,0,0-5.07,4.15-9.85,8.65-15,12.73a68.25,68.25,0,0,1-6.88,4.53c-2.55,1.43-5.12,2.81-7.76,4.08s-5.54,2.63-8.3,4c-2.4,1.15-4.78,2.35-7.19,3.47-1.28.52-2.56,1-3.9,1.37a26.51,26.51,0,0,1-3.73.74,26.87,26.87,0,0,1-3.24.18c-1.26,0-2.49-.13-3.74-.27-7.49-1-15-2.24-22.59-2.22-3.94,0-7.84,0-11.78-.24q-5.27-.32-10.5-1a122.58,122.58,0,0,1-23.21-5.45c-4.24-1.88-8.32-4.07-12.49-6.1-4.66-2.29-9.33-4.55-13.9-7a153.13,153.13,0,0,1-13.77-8.5c-4.52-3.1-8.83-6.51-13.18-9.84-4.11-3.14-8.22-6.3-12.39-9.37-4.54-3.34-9.09-6.65-13.61-10-4.25-3.14-8.6-6.12-13.13-8.84s-9.15-5-13.73-7.54c-1.77-1-3.53-1.91-5.27-2.93s-3.49-2.1-5.22-3.19c-3.12-2-6-4.26-8.94-6.49-6.51-5-13.09-9.91-20-14.42-3.24-2.12-6.56-4.11-9.81-6.22-3.41-2.21-6.74-4.49-10-6.93a61.39,61.39,0,0,1-6.77-6.17h0a0,0,0,0,0,0,0Zm285,104.38-.1.08.1-.08Zm-90.8,14.44.42.06-.42-.06Z"/><path class="cls-1" d="M46.5,909.23c1.15,3.68,1.92,7.46,3.16,11.12a61.73,61.73,0,0,0,4.66,10.43,44.66,44.66,0,0,0,6.78,9.33,43.54,43.54,0,0,0,4.14,3.59c1.62,1.3,3.31,2.51,5,3.73,0,0,0,0,0,0-2.69-2.65-5.39-5.26-7.83-8.15-3.38-4.45-5.87-9.53-8.35-14.53-1.25-2.52-2.46-5-3.63-7.6s-2.48-5.34-3.92-7.91h0s0,0,0,0Z"/><path class="cls-1" d="M16,780.66c.4,5.51-.37,11-.78,16.5-.37,5.13-.67,10.27-.82,15.41Q14,828.33,15,844.06a192,192,0,0,0,5,33.09c2.67,10.72,6,21.27,10.9,31.19,2.26,4.56,4.89,8.94,7.51,13.3a133.21,133.21,0,0,0,9.27,13.71,68.49,68.49,0,0,0,5,5.85,70.05,70.05,0,0,0,6,5.39,154.3,154.3,0,0,0,12.9,9.07c1.7,1.1,3.41,2.18,5.11,3.29s3.18,2.22,4.74,3.38c4.71,3.82,9.19,7.91,13.69,12a0,0,0,1,0,0,0c-5.57-6.45-11.11-12.95-17.58-18.52-3.05-2.63-6.1-5.25-9-8a92.17,92.17,0,0,1-7.83-8.47A72.74,72.74,0,0,1,56,931.89q-2.37-4.25-4.57-8.58C48.72,918,46.32,912.45,44,906.93a145.35,145.35,0,0,1-5-14.07c-1.46-5.05-2.86-10.13-4.31-15.19s-2.93-10.4-4.28-15.64S28,851.64,27,846.39c-1.81-9.48-3.37-19-4.9-28.54S19,798.91,17.68,789.39l0,.25a73.92,73.92,0,0,0-1.7-9h0Z"/><path class="cls-1" d="M121.95,259.49q-5,1.92-10,3.82c-3.46,1.32-7,2.56-10.39,4-1.83.75-3.7,1.44-5.49,2.27s-3.52,1.52-5.2,2.4-3.18,1.6-4.71,2.5c-1.89,1.12-3.74,2.26-5.57,3.48a103.28,103.28,0,0,0-8.9,6.79q-4.27,3.56-8.27,7.38A117,117,0,0,0,48,309.77a45.53,45.53,0,0,0-2.6,4.48,60.87,60.87,0,0,0-3,6.6,87.59,87.59,0,0,0-3.16,10.09c-1.81,7.12-3.06,14.35-4.4,21.56-1.3,7-2.7,13.95-3.84,21-1.28,7.9-2.2,15.88-3.06,23.84a183.83,183.83,0,0,0-1.16,22.09c.09,7.43.15,14.88.46,22.3s.77,14.91,1,22.36.47,14.84.76,22.25.57,15.05.76,22.59.47,14.93.51,22.4c.09,14.92,0,29.84-.07,44.75,0,7.43,0,14.87-.2,22.3-.14,7.14-.52,14.28-.84,21.42-.66,15-1.36,30-1.52,45.05q-.24,22.86-1.59,45.68c-.44,7.68-1.2,15.34-1.86,23q-.46,5.43-.76,10.86c-.21,3.79-.19,7.57-.16,11.35.12,14.88,1.48,29.71,2.39,44.55.46,7.51.88,15,1.59,22.52.37,3.85.83,7.68,1.34,11.52s1,7.65,1.77,11.44,1.63,7.68,2.62,11.49c.93,3.59,2,7.14,3,10.72,1.94,6.95,3.72,13.93,5.59,20.9.91,3.41,1.88,6.83,3,10.18,1.27,3.79,2.66,7.52,4.13,11.24,2.71,6.91,5.62,13.76,8.82,20.46a118.8,118.8,0,0,0,6.49,11.45,125,125,0,0,0,7.4,10.13l0,0A110.61,110.61,0,0,1,79.8,965s0,0,0,0a128.06,128.06,0,0,0-7.4-13.91c-1.42-2.3-2.78-4.64-4.09-7-1.2-2.18-2.21-4.46-3.23-6.72-1.44-3.56-2.73-7.13-3.87-10.81-1-3.27-1.86-6.6-2.69-9.92-1.79-7.13-3.66-14.27-5-21.49s-2.58-14.61-3.83-21.93c-.66-3.81-1.36-7.61-2.17-11.39s-1.66-7.31-2.44-11c-.62-2.9-1.08-5.82-1.52-8.74-.83-7.09-1.44-14.18-1.89-21.31s-.69-14.23-1-21.34c-.57-15.41-1.4-30.85-1-46.28.2-7.42,1.1-14.8,1.86-22.18s1.47-14.5,1.91-21.77c.45-7.54.86-15.07,1.05-22.62s.31-15.16.51-22.73c.4-15,1.07-30.08,2.3-45.07.63-7.65,1.19-15.28,1.47-22.95.27-7.33.3-14.66.33-22,0-7.16,0-14.33,0-21.5,0-7.36.07-14.72-.09-22.07q-.5-22.38-1.27-44.75c-.27-7.42-.52-14.85-.82-22.27s-.68-15.1-.87-22.65-.35-15-.27-22.48c.08-7.69.7-15.34,1.46-23,.47-4.84,1.06-9.66,1.67-14.48,1.48-10.34,3.35-20.62,5.1-30.92.87-5.16,1.85-10.3,3-15.4.61-2.76,1.25-5.5,2.07-8.21.63-2.1,1.4-4.15,2.2-6.18a95.06,95.06,0,0,1,6.57-11.31c2.22-3.42,4.64-6.71,7.08-10,2.86-3.59,5.83-7.07,8.9-10.49a71.81,71.81,0,0,1,5-5.14c2-1.86,4.11-3.63,6.24-5.39,1.86-1.41,3.72-2.82,5.64-4.17,2.53-1.78,5.08-3.52,7.66-5.23q6.7-4.46,13.55-8.69s0,0,0,0Z"/><path class="cls-1" d="M655.06,22.87c-2.13,0-4.26.08-6.39.19-2.56.13-5.12.21-7.67.45-2.84.27-5.66.54-8.48,1A31.39,31.39,0,0,0,625.86,26c-4,1.53-8,3.17-12,4.71-4.38,1.69-8.79,3.31-13.16,5-5,2-9.9,4.1-14.8,6.29-2.93,1.31-5.82,2.71-8.73,4.08-3.08,1.45-6.19,2.84-9.29,4.23-8.66,3.64-17.36,7.19-26,11-4.31,1.9-8.61,3.83-12.95,5.7s-8.69,3.66-13,5.57c-2.27,1-4.59,1.95-6.83,3L502,79.05c-2.25,1.08-4.45,2.29-6.67,3.43s-4.3,2.23-6.45,3.35c-8.41,4.37-17.13,8.11-25.68,12.2-9,4.3-17.86,8.78-26.81,13.15-4,2-8,4-11.88,6.1-2.07,1.14-4.19,2.23-6.23,3.42l-7.68,4.48c-3.68,2.15-7.35,4.33-11.11,6.35l-7.14,3.83c-2.57,1.38-5.2,2.66-7.8,4-8.61,4.41-17.16,8.92-25.8,13.27q-6.48,3.26-12.95,6.57c-2.12,1.08-4.2,2.29-6.29,3.43-1.91,1-3.82,2.09-5.69,3.19q-7.1,4.19-14.23,8.32c-2,1.17-4.11,2.24-6.16,3.36s-3.93,2.11-5.91,3.15q-7,3.67-13.92,7.43c-4.36,2.35-8.62,4.88-12.91,7.35-3.86,2.21-7.72,4.41-11.55,6.67-2.14,1.26-4.33,2.47-6.43,3.8l-7.44,4.66c-2,1.27-4,2.62-6,3.93s-4.06,2.64-6.1,4q-5.67,3.65-11.57,7l-13.23,7.47c-4.5,2.54-8.86,5.32-13.22,8.09-3.86,2.45-7.66,5-11.5,7.48q-6.37,4.13-12.77,8.2l-12.27,7.83c-4,2.55-7.94,5.14-12,7.6q-7,4.24-14,8.43c-1.71,1-3.39,2.09-5.09,3.15-1.95,1.22-3.91,2.41-5.8,3.7l-6.68,4.56c-2.36,1.61-4.65,3.35-7,5-3.84,2.77-7.76,5.43-11.72,8s-7.95,5-11.87,7.63c-4.15,2.74-8.31,5.5-12.24,8.55s-7.64,6-11.29,9.18c-1.84,1.61-3.63,3.24-5.41,4.92-1.11,1.06-2.19,2.13-3.25,3.24a65.3,65.3,0,0,0-6.19,7.75A44.81,44.81,0,0,0,52.25,353l-1.68,3.64a56.05,56.05,0,0,0-2.51,6.91,121,121,0,0,0-3,13.21c-.86,4.52-1.79,9-2.82,13.51s-2.18,8.64-3.17,13C37,412.55,36,422.09,34.83,431.57c-.58,4.71-1.2,9.42-1.78,14.14s-1.11,9.58-1.62,14.38c-1,9.5-2,19-3.15,28.47S26.5,507.65,26,517.21c-.44,9.07-.49,18.15-.64,27.23Q25.14,559.7,25,575c-.08,9.52-.48,19.05-1.35,28.53-.91,9.87-1.91,19.72-2.86,29.59-.92,9.5-2,19-3,28.48-1,9.32-1.6,18.66-1.81,28-.21,9.77-.19,19.55.24,29.31q.17,3.94.35,7.88c.12,2.69.38,5.39.57,8.07.16,2.26.46,4.52.7,6.78.26,2.48.59,5,.9,7.44q1.79,14.23,3.48,28.48c1.16,9.67,2.82,19.27,4.48,28.86s3.63,19.07,5.49,28.6,3.59,19.2,5.51,28.77c.89,4.41,1.82,8.82,2.66,13.24q1.52,8,3,16c.86,4.58,1.79,9.15,2.8,13.7.47,2.12.9,4.25,1.44,6.35q1.16,4.55,2.33,9.1c.47,1.8,1,3.58,1.58,5.37.85,2.85,1.7,5.7,2.61,8.52,0,0,0,0,0,0-.75-2.88-1.46-5.76-2.16-8.65-.52-2.13-1.07-4.25-1.51-6.39q-.9-4.34-1.82-8.67c-.54-2.54-.94-5.12-1.4-7.68-.8-4.39-1.5-8.8-2.19-13.21q-1.27-8.08-2.64-16.14c-.79-4.65-1.7-9.28-2.58-13.91q-1.39-7.29-2.75-14.59c-1.84-9.85-3.77-19.68-5.7-29.52-2-10-3.62-20-5.21-30.11l0,.36c-.64-4.78-1.28-9.55-1.84-14.34s-1.11-9.57-1.66-14.36c-.58-5-1.21-10.08-1.82-15.11-.55-4.63-.91-9.27-1.22-13.93s-.48-9.27-.57-13.91c-.1-4.8-.19-9.6-.1-14.4s.2-9.76.49-14.63.55-9.62,1.07-14.4q.82-7.59,1.78-15.17c.63-5,1.31-10.07,1.95-15.11,1.19-9.44,2.32-18.87,3.51-28.31,1.22-9.69,2.21-19.4,2.78-29.14s.7-19.25,1-28.88c.33-11.15.6-22.32,1.22-33.46s1.64-22,3.07-33c1.94-14,3.77-28.08,5.61-42.12.91-6.88,1.81-13.76,2.6-20.65.74-6.56,1.52-13.11,2.39-19.65l0,.19.06-.44.09-.65,0,.35q1-7.44,2-14.88c.75-5.46,1.62-10.93,2.77-16.33.59-2.8,1.25-5.58,2-8.34.36-1.29.79-2.54,1.2-3.81.36-1.11.84-2.2,1.29-3.29l1.71-3.61a52.35,52.35,0,0,1,5.61-8.88,66.94,66.94,0,0,1,6.4-6.93c1.21-1.12,2.39-2.28,3.63-3.35,2.83-2.43,5.69-4.81,8.59-7.17l4.9-3.75c.91-.69,1.87-1.32,2.8-2l3.53-2.48c.88-.62,1.81-1.18,2.71-1.77l3.8-2.47c2.19-1.43,4.44-2.78,6.65-4.16q6-3.76,11.87-7.77c3.79-2.6,7.49-5.34,11.31-7.89l7.14-4.77c.6-.4,1.23-.76,1.85-1.14l4.92-3c3.7-2.27,7.47-4.4,11.2-6.61,8.68-5.12,17.23-10.43,25.79-15.75s17.14-10.68,25.67-16.09c3.82-2.42,7.69-4.79,11.61-7.06,4.29-2.48,8.6-4.89,12.94-7.27l7-3.85c2.24-1.23,4.44-2.57,6.65-3.86,1.89-1.1,3.73-2.3,5.58-3.47q3.06-1.93,6.11-3.9c1.78-1.15,3.56-2.3,5.36-3.42,2.14-1.32,4.25-2.7,6.42-4q7.05-4.12,14.15-8.16c8.25-4.68,16.51-9.36,24.91-13.77,4.58-2.4,9.15-4.8,13.69-7.27,4-2.16,7.89-4.41,11.78-6.7l7.78-4.59c2.14-1.26,4.36-2.41,6.54-3.61,4.37-2.4,8.8-4.66,13.23-6.93,3.92-2,7.87-4,11.78-6l14.59-7.59c3.84-2,7.73-3.9,11.54-6l7.92-4.27c2.18-1.18,4.3-2.47,6.44-3.71l4.86-2.82c2.12-1.23,4.21-2.52,6.37-3.7l7.58-4.14c2.16-1.18,4.39-2.24,6.58-3.34,8.61-4.33,17.34-8.45,26-12.67,8.46-4.12,17.14-7.77,25.64-11.84,5.68-2.72,11.3-5.55,16.95-8.34,5-2.49,10.18-4.7,15.34-6.91Q536,74.94,550.56,68.67c3.54-1.48,7.08-3,10.64-4.39,4-1.62,8-3.22,12-4.93,7.52-3.24,15-6.65,22.48-9.89,7-2.82,14-5.47,21.25-7.71,3.32-1,6.64-2,10-3,1.42-.42,2.86-.84,4.32-1.12,1.68-.32,3.37-.58,5.06-.83,5-.51,9.9-1,14.88-1.19,10.59-.46,21.24-1.48,31.81-.3,2.81.42,5.59.94,8.37,1.6a61.91,61.91,0,0,1,8.75,2.85q6.8,3,13.32,6.54L720.24,50c3.4,1.86,6.79,3.75,10,5.93,0,0,0,0,0,0-3.73-3.67-7.81-7-11.82-10.34-2.21-1.86-4.42-3.72-6.68-5.53s-4.84-3.64-7.32-5.39a65.62,65.62,0,0,0-18.2-8.59,59.81,59.81,0,0,0-9.14-2q-4.64-.7-9.32-1c-2.64-.19-5.29-.25-7.94-.25-1.59,0-3.17,0-4.76,0Zm-619,465.68c0,.23-.06.46-.09.69l.09-.69Zm10.53-81.89,0,.25.07-.54,0,.29Z"/><path class="cls-1" d="M631.67,21.45l-3.27.08a57.3,57.3,0,0,0-6.53.72c-3.52.49-7,1.23-10.48,2-3.69.83-7.37,1.71-11,2.73-6,1.68-11.91,3.47-17.76,5.56s-11.82,4.39-17.71,6.63-12,4.66-18,7.1c-5.78,2.36-11.51,4.89-17.25,7.35-7.6,3.17-15.22,6.31-22.79,9.58-7,3-13.83,6.4-20.65,9.8Q475,78.63,463.76,84.45c-3.26,1.7-6.49,3.46-9.76,5.13l-6.3,3.21c-2,1-4,1.9-6,2.85-6.84,3.22-13.82,6.15-20.62,9.48-7.5,3.67-14.95,7.43-22.4,11.2q-5.58,2.81-11.11,5.7c-3.68,1.91-7.32,3.88-11,5.87s-7.27,3.94-10.91,5.9-7.31,3.74-11,5.57-7.22,3.48-10.83,5.21c-3.41,1.63-6.79,3.33-10.18,5s-6.68,3.43-10,5.16q-5.68,2.94-11.36,5.87-11.2,5.74-22.24,11.79c-3.11,1.7-6.2,3.45-9.36,5.05-3.54,1.8-7.06,3.61-10.61,5.37q-5.82,2.88-11.62,5.79c-3.79,1.91-7.54,3.88-11.3,5.85-6.91,3.63-13.75,7.4-20.59,11.17-3.71,2-7.37,4.18-11,6.3-3,1.73-5.88,3.59-8.83,5.37-3.72,2.24-7.44,4.46-11.21,6.6S188,228,184.29,230c-6.81,3.68-13.6,7.41-20.17,11.51s-13,8.32-19.55,12.45c-7.32,4.64-14.64,9.29-21.89,14-6.35,4.15-12.71,8.29-18.94,12.61-2,1.39-4,2.73-5.92,4.22l-4.08,3.2c-.89.7-1.85,1.37-2.69,2.13q-3.3,3-6.58,6c-.62.57-1.19,1.19-1.77,1.79l-4,4.09Q73.35,307.59,68,313c-1.91,1.93-3.81,3.86-5.62,5.88A85.79,85.79,0,0,0,56,327.08c-4.23,6-7.41,12.71-10.44,19.41,0,0,0,0,0,0q2.48-4.36,5.08-8.64a97.69,97.69,0,0,1,6-8.71,98.89,98.89,0,0,1,8.42-9.36c2.12-2.07,4.38-4,6.59-6q4-3.64,8-7.36Q83.32,303,87,299.57c.93-.88,1.95-1.68,2.92-2.52l4.26-3.68C97,291.23,99.77,289,102.7,287l6.08-4.12c1.65-1.12,3.35-2.16,5-3.24,6.37-4.09,12.75-8.15,19.19-12.13q11-6.8,22-13.56c2.89-1.78,5.76-3.59,8.68-5.33l6.23-3.73c1.74-1,3.55-2,5.32-3,6.71-3.74,13.63-7.09,20.39-10.76,3.71-2,7.42-4,11.07-6.12s7.49-4.33,11.23-6.51c6.64-3.86,13.48-7.4,20.3-10.92s13.93-7.25,21-10.7c7.68-3.76,15.38-7.47,23-11.3,6.68-3.34,13.18-7,19.8-10.46,7.43-3.88,14.89-7.68,22.36-11.5l11.69-6c3.63-1.85,7.32-3.61,11-5.4s7.19-3.45,10.79-5.18c1.48-.71,2.93-1.46,4.39-2.19,1.84-.92,3.73-1.79,5.54-2.77,3.39-1.84,6.79-3.66,10.18-5.5,3.56-1.95,7.09-4,10.69-5.83q10.88-5.69,21.83-11.22,5.81-2.94,11.65-5.8c3.82-1.86,7.68-3.64,11.54-5.43,3.05-1.41,6.13-2.77,9.2-4.15s6-2.79,9-4.18c1.77-.82,3.49-1.75,5.23-2.62,1.2-.61,2.4-1.2,3.59-1.82,3.23-1.68,6.46-3.36,9.7-5q9.77-5,19.64-9.8c3.32-1.62,6.65-3.2,10-4.79,2.94-1.4,5.94-2.69,8.9-4s6.12-2.59,9.2-3.84l12.54-5.06c7.35-3,14.64-6.05,22-9s14.68-5.61,22.07-8.27q5.58-2,11.22-3.86c3.79-1.24,7.62-2.34,11.47-3.4a207.34,207.34,0,0,1,23.83-5.11,78.15,78.15,0,0,1,8.16-.67l2.45,0c1.09,0,2.2.09,3.28.13,1.46.06,2.92.24,4.37.39l3.31.49c1.45.21,2.88.55,4.32.82s2.85.65,4.27,1a69.41,69.41,0,0,1,9.52,3A110.21,110.21,0,0,1,674.46,46q5.62,3.5,11.3,6.88c2.61,1.55,5.25,3,8,4.42a153.06,153.06,0,0,0,16.39,7.13c5,1.89,10.09,3.38,15.18,4.92q5.2,1.58,10.42,3.07l7,2c1.39.39,2.73.95,4.09,1.43,3.7,1.32,7.46,2.54,11.11,4,4,1.62,7.92,3.21,11.88,4.84q6.73,2.75,13.45,5.55l-.07,0c1.59.68,3.18,1.36,4.76,2.08,0,0,0,0,0,0-5.78-3.41-11.69-6.59-17.57-9.8l-10.09-5.49c-2.53-1.37-5.1-2.62-7.69-3.88-2.79-1.36-5.54-2.84-8.41-4q-5.74-2.36-11.48-4.69c-6.63-2.68-13.35-5.14-20-7.88a147.76,147.76,0,0,1-14.43-7c-2.86-1.61-5.61-3.35-8.35-5.14-3.64-2.37-7.23-4.79-10.83-7.24-1.49-1-3-1.95-4.55-2.91a73.06,73.06,0,0,0-21.65-9.48c-2.18-.58-4.36-1.06-6.55-1.54-1.63-.35-3.29-.58-4.93-.86-1.3-.22-2.63-.33-3.95-.48-1-.11-2-.21-3-.25-.84,0-1.68-.12-2.52-.12Z"/><path class="cls-1" d="M651,22.52l-5,0c-.52,0-1,.07-1.56.1l-3.33.22c-1.5.1-3,.33-4.5.5s-2.86.43-4.29.65a51.39,51.39,0,0,0-8.46,2.11c-1.95.67-3.82,1.59-5.69,2.43-1,.43-1.9.89-2.85,1.34s-2.17,1-3.25,1.44h0c-1.56.63-3.11,1.3-4.68,1.89-2.29.86-4.58,1.73-6.88,2.57,0,0,0,0,0,0,3.37-1.16,6.73-2.34,10.05-3.62,2.61-1,5.19-2.11,7.75-3.23h0c1.25-.52,2.49-1,3.74-1.53a45.77,45.77,0,0,1,9.41-2.34L634,24.8c.69-.09,1.38-.2,2.08-.25,1.8-.13,3.6-.32,5.39-.36s3.41-.15,5.11-.09l3.52.13c1.66.06,3.3.23,4.95.44,2,.29,4,.67,5.92,1.13s3.66,1,5.46,1.6c.56.18,1.11.41,1.65.61l3.52,1.3c2.75,1,5.43,2.2,8.14,3.32,5.41,2.36,10.84,4.7,16.19,7.21,2.91,1.37,5.81,2.74,8.69,4.18s5.72,2.91,8.56,4.41c5.22,2.75,10.38,5.61,15.56,8.43s10.66,5.71,16,8.59c1.31.71,2.59,1.49,3.89,2.23s2.65,1.46,3.93,2.25c2.57,1.61,5.18,3.17,7.72,4.82L768.35,80c1.11.72,2.25,1.39,3.38,2.09L777,85.36c.71.44,1.43.85,2.14,1.26L784.91,90c2.45,1.42,4.93,2.81,7.39,4.2,5,2.8,9.93,5.6,14.81,8.53q8.61,5.17,17.18,10.42c2.79,1.71,5.56,3.46,8.34,5.19,2.49,1.55,4.94,3.16,7.39,4.76,4.88,3.17,9.66,6.47,14.4,9.84,2.43,1.73,4.86,3.46,7.31,5.16s5,3.54,7.51,5.19l9.08,5.88c.89.57,1.81,1.11,2.71,1.67l5.78,3.55c4.63,2.85,9.3,5.65,13.84,8.64q8.63,5.66,17.19,11.41c2.55,1.71,5.18,3.32,7.78,5,2.34,1.49,4.69,2.94,7.06,4.38l7.36,4.5c2.56,1.58,5.14,3.13,7.67,4.76s5.25,3.36,7.85,5.09,5.26,3.52,7.89,5.26L980,214.26c5,3.3,9.89,6.78,14.78,10.26,1,.69,1.91,1.44,2.86,2.16l3.26,2.48q5.15,4.06,10.32,8.09c1.66,1.29,3.31,2.57,5,3.81s3.53,2.66,5.34,3.93q5.62,4,11.23,7.94c1.58,1.13,3.18,2.23,4.73,3.39l5.63,4.22,3.32,2.76c1,.84,2.06,1.67,3,2.55,2.42,2.18,4.85,4.36,7.25,6.57s5,4.55,7.55,6.8c2.11,1.87,4.34,3.6,6.52,5.39,1.35,1.11,2.77,2.13,4.16,3.18,1.07.82,2.13,1.66,3.22,2.45,2.51,1.81,5,3.64,7.54,5.41,5,3.5,10.05,6.95,15,10.5,7.3,5.23,14.7,10.32,22.05,15.45q5.71,4,11.47,7.9c3.55,2.41,7.09,4.86,10.55,7.39l-.09-.07,1.91,1.47q4,3.21,7.88,6.52c1.39,1.17,2.77,2.37,4.09,3.62.66.63,1.3,1.29,1.94,2s1.17,1.33,1.74,2c.62.84,1.22,1.68,1.8,2.55.71,1.07,1.36,2.18,2,3.3,0,0,0,0,0,0-.59-1.54-1.22-3-1.9-4.55a41.74,41.74,0,0,0-2.07-3.81c-.37-.63-.81-1.22-1.22-1.82s-.89-1.19-1.33-1.78c-.92-1.23-2-2.4-3-3.57a122.55,122.55,0,0,0-11.92-12.25c-4.5-4-9.15-7.79-13.8-11.59q-7.31-6-14.83-11.68-5.05-3.83-10.2-7.51c-3.4-2.42-6.83-4.8-10.26-7.18-3.15-2.19-6.3-4.37-9.41-6.62-1.59-1.15-3.21-2.28-4.77-3.48l-4.94-3.78c-2.13-1.74-4.3-3.43-6.36-5.24-2.55-2.24-5.08-4.48-7.58-6.77s-4.84-4.37-7.28-6.54c-.85-.76-1.75-1.46-2.63-2.2l-4-3.29c-1.25-1-2.6-2-3.89-2.92l-3.95-2.94c-1.14-.85-2.33-1.65-3.49-2.47l-4.37-3.09c-2.47-1.75-5-3.46-7.44-5.2s-4.73-3.43-7.09-5.14c-1.26-.91-2.48-1.89-3.73-2.83s-2.24-1.7-3.36-2.56c-2.41-1.86-4.81-3.75-7.26-5.57s-5.09-3.79-7.68-5.61-5-3.49-7.57-5.19c-5-3.34-10-6.6-15.07-9.86l-7.7-5c-2.58-1.68-5.14-3.39-7.75-5l-4.83-3.07c-1.16-.73-2.31-1.5-3.48-2.21l-8.78-5.31c-2.73-1.65-5.48-3.29-8.21-4.93-2.52-1.52-5-3.12-7.49-4.68q-3.44-2.16-6.82-4.39c-2.5-1.65-5-3.32-7.5-4.95l-9-5.8c-.91-.59-1.85-1.13-2.77-1.69l-5.72-3.49c-4.66-2.84-9.37-5.6-14-8.52l-5.42-3.45c-.89-.57-1.8-1.12-2.68-1.71L863,131.12c-2.71-1.84-5.39-3.73-8.09-5.6s-5.16-3.46-7.75-5.19-5.1-3.28-7.66-4.91-4.89-3-7.35-4.52c-5-3.06-10.07-6.12-15.16-9.07-2.8-1.62-5.59-3.29-8.41-4.88l-9.11-5.1c-2.66-1.5-5.36-2.94-8-4.41-2.51-1.37-5-2.79-7.49-4.2q-7.54-4.25-14.87-8.83c-2.62-1.64-5.22-3.3-7.87-4.89s-5.24-3.2-7.93-4.68-5.43-3-8.2-4.45-5.37-2.79-8.07-4.17c-5.55-2.83-11.09-5.68-16.64-8.51q-4.42-2.26-8.89-4.44c-2.7-1.32-5.43-2.55-8.16-3.82-1.12-.52-2.27-1-3.41-1.5-1.3-.57-2.59-1.15-3.89-1.7-2.79-1.18-5.57-2.39-8.37-3.54s-5.87-2.43-8.84-3.57l-5.15-2c-1.46-.56-3-1-4.45-1.48L667.12,25c-1.52-.5-3.11-.84-4.66-1.18-1.74-.39-3.51-.64-5.28-.88-1-.13-2-.21-3-.3s-2-.15-3-.15ZM631.49,25.1h0ZM1144.3,336.55l.32.24-.32-.24ZM618.38,29h0Z"/><path class="cls-1" d="M636.11,18.65c-1.31.05-2.63.07-3.93.18l-5.61.47c-1.05.09-2.11.2-3.16.3,0,0,0,0,0,0,2.74-.13,5.48-.2,8.22-.28,2.11-.07,4.23,0,6.34,0s4,.19,6.07.3c.82,0,1.63.18,2.45.28l3.08.37c2.1.36,4.21.69,6.29,1.14,1,.21,2,.38,2.95.64l3.86,1c2,.54,4,1.24,6,1.93,2.15.75,4.29,1.53,6.41,2.35,8.69,3.36,17.27,7,25.88,10.55h0c2.47,1.05,4.94,2.11,7.4,3.21,2.79,1.26,5.55,2.57,8.32,3.88,5.21,2.47,10.38,5,15.59,7.52,10.62,5,21.27,10,31.66,15.48q16.49,8.73,33.06,17.31c5.29,2.73,10.55,5.53,15.81,8.31,4.85,2.56,9.78,5,14.73,7.34q3.86,1.85,7.72,3.68c2.64,1.25,5.3,2.47,7.92,3.78s5.3,2.55,7.85,4l5.15,2.91c1.12.63,2.27,1.22,3.36,1.9l8.7,5.41c2.58,1.6,5.12,3.27,7.68,4.91q7.18,4.61,14.41,9.15l14.85,9.34c2.66,1.67,5.33,3.31,8,4.95s5.12,3,7.71,4.43c4.77,2.68,9.65,5.17,14.4,7.88l5,2.86c1.09.62,2.23,1.19,3.29,1.87l7.83,5c1.07.69,2.07,1.51,3.09,2.25l4.79,3.49c2.43,1.77,4.83,3.58,7.24,5.37s4.71,3.41,7.08,5.1,4.89,3.36,7.35,5c4.75,3.19,9.69,6.11,14.57,9.1,5,3.08,10.06,6.2,15,9.47q11.36,7.56,22.51,15.42c3.69,2.61,7.41,5.2,11,7.9q5.87,4.37,11.67,8.8l-.89-.7q7.7,6,15.41,12l.85.66-.12-.09,1.86,1.44c.43.38.92.71,1.39,1.08q7,5.43,13.84,11.07c4.29,3.52,8.46,7.17,12.69,10.76,4.88,4.13,9.82,8.17,15,11.9,4.59,3.29,9.42,6.25,14.25,9.18,2.89,1.76,5.79,3.5,8.66,5.3q2.18,1.38,4.33,2.81c1.35.89,2.65,1.85,4,2.79l2.54,2c1.11.86,2.15,1.84,3.21,2.76,1.89,1.62,3.69,3.38,5.46,5.13,3.77,3.74,7.43,7.6,11,11.51,0,0,0,0,0,0-3.25-4.81-6.47-9.64-9.75-14.43-1.52-2.23-3.17-4.38-4.88-6.47-.89-1.09-1.79-2.15-2.74-3.18-1.1-1.19-2.23-2.32-3.39-3.44-2-1.92-4.14-3.66-6.29-5.4s-4.33-3.37-6.53-5c-4.55-3.39-9.11-6.77-13.64-10.18q-3.35-2.66-6.67-5.35c-2.18-1.78-4.34-3.58-6.51-5.37-4.53-3.74-9-7.52-13.56-11.24-5.34-4.37-10.79-8.6-16.27-12.8a4.4,4.4,0,0,0-.76-.58c-4-3.07-8.05-6.12-12.07-9.19-4.37-3.34-8.74-6.69-13.17-10q-7.49-5.53-15.11-10.86t-15-10.37c-5-3.37-10-6.58-15.12-9.8-2.5-1.58-5.05-3.07-7.58-4.6-2.34-1.42-4.71-2.8-7.07-4.2-1.29-.77-2.57-1.57-3.86-2.36-1.08-.66-2.18-1.31-3.25-2-2.41-1.57-4.86-3.1-7.22-4.75s-4.85-3.34-7.23-5.07c-2.59-1.89-5.18-3.79-7.79-5.66l-8.07-5.77c-.79-.56-1.62-1-2.44-1.56l-5.21-3.29c-.7-.44-1.41-.83-2.13-1.23l-5.64-3.16c-2.32-1.3-4.68-2.55-7-3.8s-4.83-2.56-7.22-3.88c-2.62-1.45-5.28-2.85-7.86-4.37q-7.83-4.63-15.58-9.39c-4.89-3-9.79-5.95-14.66-9l-7.6-4.71c-2.73-1.7-5.44-3.43-8.18-5.1l-8.77-5.3c-.69-.42-1.41-.8-2.12-1.19l-5.8-3.19c-.79-.43-1.56-.89-2.37-1.28l-5.33-2.58c-2.64-1.28-5.3-2.49-8-3.7-5-2.26-10-4.52-14.89-6.91-2.68-1.3-5.39-2.57-8-3.91l-8.18-4.15q-8.31-4.2-16.64-8.35c-5.65-2.82-11.28-5.69-16.91-8.55q-7.72-3.94-15.51-7.74c-2.36-1.16-4.76-2.27-7.16-3.35-2.64-1.2-5.29-2.42-7.94-3.6C738.59,50.62,732.77,48,727,45.38c-5.11-2.33-10.2-4.72-15.38-6.91S701,34.08,695.58,32c-5.65-2.14-11.31-4.25-17-6.18a162.42,162.42,0,0,0-16.8-4.93c-2.67-.59-5.36-1.1-8.07-1.45-1.39-.18-2.8-.41-4.2-.52l-5.14-.38c-.3,0-.61,0-.92,0H643l-2.95,0h-.34c-1.2,0-2.4.05-3.6.1Zm437.16,240,.43.34-.43-.34Zm-1.46-1.13-.8-.61.8.61Zm-.78-.6-.54-.42.54.42Zm-.54-.42-.24-.19.24.19Zm-.24-.19-.08-.07,0,0,.13.1Z"/><path class="cls-1" d="M623.54,10.14c6.55,1.62,13.11,3.21,19.63,4.95,2.92.78,5.86,1.5,8.75,2.35l5.57,1.64c1,.3,2.06.58,3.08.92l9.57,3.2c3.09,1,6.14,2.17,9.21,3.25,5,1.75,10,3.49,14.92,5.31,2.84,1,5.7,2,8.52,3.1l10,3.85c4.82,1.85,9.62,3.77,14.45,5.61,5.9,2.25,11.8,4.49,17.68,6.79,2.31.9,4.63,1.79,6.91,2.74L761,57.64c5.09,2.22,10.2,4.42,15.26,6.7l10.52,4.74c2.51,1.13,5,2.36,7.46,3.55,2.3,1.1,4.61,2.2,6.89,3.36,2.75,1.41,5.52,2.8,8.27,4.23,5.38,2.78,10.74,5.57,16.15,8.28q8.82,4.41,17.66,8.8c2.31,1.15,4.6,2.35,6.9,3.54s4.67,2.41,7,3.68q8.87,4.91,17.65,10c2.23,1.28,4.44,2.61,6.65,3.93s4.58,2.68,6.84,4.08l9.48,5.88c2.5,1.55,4.95,3.21,7.42,4.82,4.48,2.92,8.91,5.93,13.44,8.79q8.49,5.36,17,10.63c2.44,1.51,4.82,3.11,7.22,4.67.89.58,1.83,1.12,2.69,1.75l3.75,2.73,5.3,3.86,14,11.11q3.19,2.51,6.43,4.95c2.36,1.76,4.68,3.56,7.07,5.28,5,3.61,10.08,7.18,15.13,10.74,4.85,3.42,9.68,6.88,14.56,10.26,6.52,4.52,13.07,9,19.58,13.56q5.37,3.76,10.68,7.59c3,2.13,5.85,4.33,8.75,6.53,6.59,5.15,13.14,10.34,19.94,15.21,3.3,2.37,6.64,4.68,10,7q5.5,3.83,10.93,7.75l-1-.75c2.07,1.6,4.17,3.17,6.18,4.86q3.8,3.2,7.52,6.48c4.43,3.91,8.71,8,13,12,4.13,3.89,8.14,7.89,12.2,11.86,1.11,1.09,2.14,2.25,3.22,3.38.89.93,1.75,1.87,2.61,2.83s1.85,2,2.71,3l3.27,3.92,2.47,3.18q3.72,5.14,7.33,10.36c2.45,3.56,4.79,7.2,7.15,10.82,2.16,3.32,4.32,6.65,6.4,10,1.17,1.89,2.36,3.77,3.4,5.74s1.84,3.79,2.69,5.71h0c.45,1.08.9,2.16,1.33,3.24,0,0,0,0,0,0-.5-3-1-6-1.73-8.92l-.56-2.22c-.2-.77-.49-1.52-.73-2.27-.43-1.33-.93-2.64-1.43-3.94-2.17-5.71-4.63-11.29-7.25-16.8-2.49-5.23-5.3-10.31-8.28-15.28-1.41-2.35-2.92-4.63-4.53-6.85-1-1.34-1.93-2.7-3-4q-1.75-2.18-3.51-4.34c-.82-1-1.72-2-2.59-2.92s-1.76-2-2.69-2.9c-2.29-2.32-4.62-4.55-7-6.79-4.12-3.89-8.34-7.7-12.59-11.45q-3.64-3.22-7.33-6.39c-2.14-1.84-4.32-3.61-6.5-5.39-1.39-1.14-2.87-2.18-4.31-3.27-1-.73-1.93-1.45-2.92-2.14q-3.88-2.74-7.79-5.41c-4.79-3.25-9.65-6.4-14.33-9.8q-7.4-5.37-14.68-10.91c-9.5-7.19-19.25-14-29.11-20.67s-19.63-13.27-29.46-19.88c-2.47-1.66-4.95-3.3-7.39-5s-4.95-3.34-7.37-5.09l-8.77-6.33c-2.37-1.71-4.67-3.53-7-5.3-4.26-3.24-8.46-6.57-12.86-9.63l-5-3.5c-.89-.62-1.76-1.29-2.68-1.86l-8.8-5.48c-2.55-1.58-5.16-3.07-7.73-4.6q-3.33-2-6.63-4c-2.36-1.43-4.74-2.84-7.07-4.31L910,129.32c-5.2-3.29-10.46-6.48-15.75-9.64s-10.52-6.12-15.81-9.15c-2.63-1.5-5.32-2.92-8-4.38q-3.42-1.87-6.86-3.68c-2.44-1.29-4.87-2.61-7.34-3.82L847,94.05c-5-2.45-10-4.79-15-7.2q-9.08-4.39-18.09-8.91c-4.63-2.32-9.25-4.68-13.94-6.86l-10.34-4.8c-2.45-1.14-4.95-2.18-7.42-3.27-5.93-2.61-11.89-5.16-17.85-7.7-2.31-1-4.63-1.93-7-2.87-2.52-1-5-2.07-7.56-3C738,44.92,726.21,40.51,714.43,36c-5.5-2.11-11-4.17-16.57-6.12Q690,27.12,682,24.57l-10.56-3.36c-2.73-.86-5.5-1.63-8.24-2.43-5.51-1.61-11.1-2.88-16.71-4.09-7.63-1.65-15.29-3.15-23-4.57h0s0,0,0,0Zm517.08,302.14.46.6-.46-.6Z"/><path class="cls-1" d="M630.25,9.4C618,10.64,606,13.73,594.08,17q-10.76,3-21.46,6.17s0,0,0,0c6.62-1.48,13.24-2.94,19.88-4.32,6.19-1.29,12.39-2.47,18.66-3.35a137,137,0,0,1,14.89-1.11,121.9,121.9,0,0,1,15.42.94l2.53.34c3.87.61,7.7,1.29,11.51,2.21,2,.48,3.95,1.11,5.9,1.71q2.63.81,5.23,1.73c7.73,2.76,15.37,5.76,23,8.87,5.69,2.42,11.36,4.87,17,7.46s11.14,5.55,16.8,8.13c6.22,2.82,12.49,5.52,18.77,8.19,5.79,2.46,11.51,5.06,17.13,7.89,5.88,3,11.66,6.11,17.42,9.29q8.17,4.51,16.19,9.31,8.43,5.05,16.8,10.21c5.68,3.5,11.38,7,17.2,10.21,5.64,3.16,11.33,6.23,17,9.39,2.91,1.63,5.79,3.28,8.63,5,2.65,1.61,5.28,3.23,7.89,4.92,5.45,3.54,10.85,7.16,16.38,10.57S888,137.67,893.69,141s11.5,6.83,17.32,10.11,11.55,6.39,17.41,9.44c3,1.54,5.91,3.09,8.86,4.66s5.89,3.22,8.81,4.91c5.8,3.35,11.45,6.95,17.13,10.5s11.33,6.74,17.07,10l8.37,4.74c1.05.6,2.1,1.22,3.14,1.83,1.41.82,2.84,1.61,4.22,2.48,2.75,1.74,5.52,3.46,8.22,5.29,2.89,2,5.77,3.93,8.63,5.94q8.11,5.71,16.08,11.61,8.45,6.24,16.76,12.68c7.52,5.95,15,11.92,22.72,17.63,7.09,5.26,14.29,10.34,21.34,15.65,3.35,2.67,6.67,5.35,9.91,8.17,3.44,3,6.81,6,10.23,9.05,6.86,6,14.17,11.53,21.45,17.05l1.35,1a99.74,99.74,0,0,1,10.6,9.23c3.28,3.45,6.32,7.08,9.28,10.8,3,3.9,5.93,7.82,8.91,11.71s6.23,7.91,9.44,11.79c0,0,0,0,0,0-2-4.08-3.88-8.23-5.68-12.41-2.4-6-4.65-12-7.46-17.75A72.92,72.92,0,0,0,1147,300.91a71.18,71.18,0,0,0-6.19-6q-3.33-3-6.79-5.83c-5-4.11-10-8.08-15-12.14-4.22-3.43-8.33-7-12.52-10.48-4.7-3.9-9.61-7.55-14.53-11.18-4.5-3.33-9.14-6.49-13.7-9.74-4.38-3.13-8.69-6.34-13-9.59-10.54-8.26-21.09-16.49-31.82-24.49-5.3-3.95-10.68-7.79-16.08-11.58-2.77-1.94-5.58-3.8-8.38-5.68-1-.66-2-1.28-3-1.9-1.45-.91-2.87-1.86-4.35-2.71-5.6-3.25-11.24-6.42-16.88-9.59s-11.47-6.52-17.09-10q-4.32-2.67-8.67-5.31c-2.89-1.77-5.82-3.45-8.76-5.13-5.75-3.27-11.67-6.25-17.56-9.26s-11.71-6.17-17.52-9.36-11.35-6.47-17-9.73-11.11-6.53-16.62-9.87c-3-1.79-5.85-3.7-8.77-5.55s-5.6-3.57-8.39-5.36c-10.89-7-22.45-12.83-33.76-19.07-5.78-3.19-11.42-6.63-17.05-10.07q-8.08-4.92-16.19-9.77C788,66,778.52,60.73,768.91,55.7c-9.29-4.86-18.94-8.92-28.6-13q-8.87-3.74-17.57-7.86c-3.05-1.45-6.1-2.91-9.16-4.34-2.89-1.35-5.84-2.61-8.78-3.87-11.94-5.13-24-9.85-36.42-13.79a88.53,88.53,0,0,0-9.26-2.29A83.84,83.84,0,0,0,649,9.25c-2.93-.23-5.88-.34-8.82-.36h-.52c-3.15,0-6.27.2-9.41.51Zm14.31,6.36.31,0-.31,0Zm95.15,26.7.59.25-.59-.25Zm306.72,193.28.32.25-.32-.25Z"/><path class="cls-1" d="M815.69,95.33c7.08,3.88,14.25,7.58,21.57,11l11.51,5.37c1.48.69,2.92,1.45,4.38,2.21s2.91,1.48,4.32,2.3l5.87,3.41c1.65,1,3.25,2,4.87,3q4.92,3,9.86,6c6.34,3.83,12.91,7.28,19.44,10.79a184.74,184.74,0,0,1,18.25,11.15q9.7,6.77,19.34,13.61c3.45,2.44,6.84,5,10.23,7.48,2.68,2.08,5.36,4.16,8,6.33q4.51,3.76,9,7.55a203.63,203.63,0,0,0,18,13.45l7.74,5.17c2.42,1.61,4.77,3.3,7.12,5,1.21,1,2.45,1.9,3.59,2.93,1.43,1.3,2.87,2.58,4.25,3.93,2.73,2.7,5.38,5.49,8,8.27s5.37,5.38,8.23,7.9c1.47,1.29,3,2.55,4.48,3.8s3.33,2.59,5,3.87c2.6,2,5.34,3.8,8.05,5.63s5.44,3.58,8.16,5.36c5.14,3.36,10.07,7,14.94,10.73,6,4.7,11.91,9.49,17.9,14.19s12.09,9.3,18.22,13.82q4.8,3.53,9.52,7.15c5.76,4.6,11.45,9.26,17,14.1.51.45,1,.91,1.49,1.37.7.65,1.43,1.29,2.11,2,1.27,1.27,2.57,2.52,3.78,3.85,1.38,1.5,2.71,3,4,4.57,1,1.18,2,2.41,2.93,3.63,1.16,1.6,2.32,3.19,3.42,4.83,1.24,1.84,2.4,3.73,3.57,5.62s2.16,3.82,3.17,5.76,1.87,3.84,2.78,5.78c1.65,4,3.27,8,4.67,12.06,1.55,4.54,3.19,9.06,4.57,13.66,0,0,0,0,0,0-.29-3.85-.66-7.69-1.19-11.52-.29-2.11-.61-4.2-1-6.3-.29-1.76-.67-3.51-1-5.26-.2-.95-.46-1.88-.69-2.82-.19-.76-.36-1.53-.59-2.28-.58-1.93-1.17-3.84-1.87-5.73-.78-2.1-1.65-4.16-2.54-6.21-.27-.64-.57-1.25-.87-1.87-.44-.91-.85-1.85-1.33-2.74-.89-1.64-1.76-3.28-2.73-4.87l-1.53-2.5c-.58-.94-1.25-1.83-1.87-2.74-.39-.57-.8-1.12-1.22-1.68-.81-1.08-1.6-2.19-2.46-3.23-1.08-1.32-2.14-2.66-3.29-3.91-1.37-1.47-2.74-2.91-4.17-4.32s-2.89-2.71-4.37-4c-2.52-2.25-5.2-4.34-7.86-6.42-3.34-2.6-6.68-5.19-10.09-7.69-2.86-2.11-5.78-4.14-8.67-6.2-6-4.3-12-8.67-17.82-13.18l-2.7-2.08c-6.14-4.81-12.26-9.62-18.54-14.25-6.05-4.46-12.51-8.32-18.89-12.28q-3-1.88-6-3.87c-2.34-1.59-4.64-3.22-6.93-4.89-2.67-2.09-5.33-4.19-7.84-6.46-2.87-2.6-5.63-5.3-8.38-8s-5.41-5.27-8.29-7.71c-1.62-1.38-3.3-2.66-5-3.94-1.49-1.12-3.06-2.12-4.61-3.16-2.38-1.59-4.87-3-7.32-4.52q-3.38-2.06-6.73-4.18c-2.29-1.45-4.59-2.9-6.8-4.46-2.45-1.72-4.85-3.47-7.24-5.26-5.89-4.64-11.72-9.37-17.72-13.87s-11.94-8.52-18-12.65c-3-2-6-4.11-9-6.13q-5-3.35-10-6.59c-1.72-1.11-3.52-2.11-5.28-3.16-1.59-.95-3.25-1.79-4.87-2.68-2.88-1.57-5.81-3-8.71-4.58q-5.52-2.92-11-5.93c-3.31-1.82-6.58-3.73-9.86-5.61-2.86-1.64-5.7-3.35-8.61-4.91l-6-3.22c-.5-.27-1-.49-1.53-.73l-3.73-1.78c-2.57-1.22-5.21-2.29-7.83-3.4s-5-2.09-7.47-3.12c-3-1.29-6-2.51-9-3.87-4.13-1.91-8.28-3.8-12.39-5.77h0s0,0,0,0Zm262.71,170.34.3.23-.3-.23Z"/><path class="cls-1" d="M1121.42,304.46c5.67,4.16,11.49,8.1,17.07,12.38,2,1.65,4,3.31,5.91,5.12,1,1,2,2,3,3.05.34.35.64.71,1,1.08s.91,1,1.33,1.54c.75,1,1.49,1.92,2.18,2.93.8,1.18,1.55,2.37,2.29,3.6,1.37,2.29,2.5,4.69,3.63,7.09.58,1.4,1.16,2.8,1.67,4.22.63,1.75,1.21,3.5,1.79,5.27.3.91.52,1.87.77,2.79s.41,1.66.61,2.48c.41,1.74.8,3.48,1.2,5.23.79,3.46,1.5,6.95,2.29,10.41s1.59,7.09,2.39,10.64c1.53,6.71,3,13.42,4.3,20.18,1.31,6.91,2.68,13.8,4.23,20.67.52,2.29,1,4.59,1.59,6.88,0,0,0,0,0,0-.21-7.11-.23-14.21-.39-21.32-.08-3.67-.2-7.34-.46-11s-.68-7.23-1.23-10.82c-1.08-7-2.35-14-3.93-20.87-1.65-7.22-3.45-14.42-6.67-21.12-.85-1.77-1.71-3.5-2.65-5.22-.32-.6-.65-1.18-1-1.76-.51-.83-1-1.7-1.55-2.49a64.64,64.64,0,0,0-6.66-8.41c-1.36-1.38-2.75-2.7-4.17-4s-2.76-2.29-4.16-3.37c-2.8-2.16-5.78-4-8.77-5.91-2.35-1.46-4.77-2.82-7.16-4.22q-4.24-2.48-8.43-5.05h0a0,0,0,0,0,0,0Z"/><path class="cls-1" d="M1171.14,345.92c1,3.45,1.93,6.91,2.79,10.4.71,2.88,1.22,5.79,1.7,8.71.78,6.32,1.22,12.67,1.69,19,.44,6,.88,12,1.18,18,.66,13.15.94,26.32,1.37,39.48.21,6.41.41,12.83.52,19.25s.13,12.7.22,19.05c.17,12.68.34,25.35.26,38-.08,13.13-.22,26.26-.29,39.39-.06,12.49-.08,25-.24,37.47-.17,12.84-.57,25.68-.71,38.53s-.34,25.85-.53,38.78c-.19,13.1-.27,26.19-.53,39.29-.25,12.59-.57,25.18-.82,37.76-.51,25.6-.52,51.2-.78,76.8q-.09,9.33-.17,18.67c0,6.53-.12,13.05-.06,19.58.06,6.3.19,12.61.3,18.91s.24,12.8.48,19.2c.48,12.48,1.79,24.93,2.72,37.38a0,0,0,0,0,0,0c.39-3.89.86-7.77,1.38-11.65l0,.31c1.69-12.51,3.89-24.94,5.39-37.47a295.62,295.62,0,0,0,1.69-37.19c-.08-13-.23-26-.33-39q-.14-18.85-.18-37.69c0-6.39,0-12.79,0-19.18s.2-12.52.32-18.77.17-12.7.24-19.05.18-13,.21-19.5c.07-12.77,0-25.54.17-38.31s.12-25.82.27-38.72.45-25.54.4-38.31q-.07-19.88-.22-39.76c-.09-12.66-.26-25.33-.57-38q-.25-10.29-.67-20.57c-.25-6.18-.57-12.35-.82-18.53s-.48-12.58-.83-18.87-.7-12.57-1.07-18.85c-.38-6.5-.81-13-1.48-19.48s-1.55-13.16-2.55-19.72q-1.73-11.29-3.79-22.54a142.6,142.6,0,0,0-6.66-22.79h0a0,0,0,0,0,0,0Zm4.48,19v0Zm0,.12v0Z"/><path class="cls-1" d="M1142,311.67c1.95,3.38,3.86,6.77,5.68,10.21.77,1.45,1.5,2.91,2.23,4.38s1.25,2.72,1.85,4.09a74.06,74.06,0,0,1,3.4,10c.91,3.79,1.69,7.59,2.45,11.4,1.45,7.32,2.47,14.73,3.52,22.12q1.66,11.74,3.48,23.46c1.15,7.5,2.15,15,3.2,22.55s2.16,14.87,3.37,22.29,2.38,14.78,3.73,22.14c.8,4.38,1.64,8.76,2.48,13.14,0,0,0,0,0,0-.18-7.86-.23-15.71-.24-23.56,0-7.6-.38-15.18-.88-22.76-.58-8.77-1.25-17.54-2.42-26.25l0,.26c-.51-3.82-1-7.62-1.74-11.42q-1-5.44-2.12-10.86c-1.6-7.66-3.36-15.28-5.36-22.84-.89-3.4-1.84-6.8-2.89-10.16-.62-2-1.25-3.95-1.9-5.91-.55-1.64-1.1-3.3-1.77-4.9l-1.23-3c-.38-.91-.84-1.8-1.27-2.69-.71-1.48-1.48-2.95-2.29-4.37-1.06-1.86-2.14-3.7-3.27-5.52s-2.14-3.31-3.22-5c-1.54-2.34-3.2-4.61-4.83-6.89h0a0,0,0,0,0,0,0ZM1174,406l-.11-.83.11.83Z"/><path class="cls-1" d="M1077.11,273.36c6.5,5.4,13,10.83,19.2,16.53a129.5,129.5,0,0,1,14.57,16.27c2.91,4.06,5.68,8.2,8.25,12.49,2.44,4.07,4.8,8.18,7.14,12.3,2.49,4.36,5,8.7,7.41,13.12,1.29,2.38,2.51,4.78,3.71,7.2,1,2,1.82,4,2.68,6q2.76,6.9,5.12,13.94c1.52,4.54,2.83,9.15,4.11,13.76,2.77,9.95,5.46,19.91,7.79,30,1.57,6.77,2.95,13.59,4.3,20.41s2.43,13.76,3.45,20.66v0q.2,1.52.41,3c.89,7.27,1.71,14.54,2.6,21.8,1,7.93,2.05,15.84,3,23.77,0,0,0,0,0,0,.42-5.15,1-10.28,1.59-15.41s1.2-10,1.61-15.08a204.54,204.54,0,0,0,.68-29.59c-.35-5.43-1-10.81-1.8-16.19-.77-5.09-2-10.11-3.13-15.11-1.13-4.84-2.37-9.65-3.66-14.45s-2.86-9.82-4.34-14.71c-1.41-4.65-2.86-9.3-4.4-13.91-1.67-5-3.57-9.91-5.63-14.75a130.49,130.49,0,0,0-6.82-13.93c-2.54-4.42-5.33-8.71-8.19-12.93s-6-8.29-9.16-12.34q-2.1-2.71-4.32-5.33c-1.59-1.87-3.16-3.77-4.87-5.54s-3.68-3.72-5.58-5.53-3.79-3.42-5.72-5.09c-3.8-3.3-8-6.21-12-9.15-5.86-4.22-11.89-8.23-17.95-12.17h0s0,0,0,0Z"/><path class="cls-1" d="M1150.87,364.24c.89,2.21,1.77,4.42,2.64,6.63.54,1.36,1.11,2.71,1.6,4.09q1,2.72,2,5.45c.58,1.61,1,3.28,1.54,4.91.46,1.47.81,3,1.21,4.48.22.8.36,1.63.53,2.45s.35,1.47.48,2.22c.29,1.69.64,3.38.88,5.07s.45,3.21.68,4.81c.42,3.7.87,7.41,1.12,11.13q.42,6.35.68,12.71.23,5.61.36,11.22c.08,3.94.25,7.87.35,11.81q.32,12.46.71,24.91c.25,8,.65,16.07,1.27,24.09s1.46,16,2.29,24a0,0,0,0,0,0,0c.21-4.3.5-8.59.82-12.88.29-3.93.66-7.84,1-11.77q.91-12,1.15-24.07c.16-8.12.19-16.24,0-24.36-.17-7.87-.77-15.75-1.68-23.57-.51-4.34-1.1-8.68-1.75-13-.28-1.86-.63-3.7-.95-5.55s-.67-3.61-1.08-5.39c-.88-3.87-1.76-7.75-3-11.55l-1-3.06c-.35-1.09-.82-2.16-1.22-3.24-.73-1.92-1.57-3.8-2.39-5.68-.46-1.07-1-2.1-1.5-3.14s-1-2.15-1.57-3.2c-1.7-3.18-3.4-6.36-5.16-9.5h0s0,0,0,0Z"/><path class="cls-1" d="M1106.69,280.86c5.63,9.64,11.36,19.23,16.54,29.12,4.7,9,9,18.07,13.18,27.29,1.05,2.57,2.1,5.13,3.09,7.73s1.86,5.24,2.77,7.88c.52,1.53.92,3.11,1.38,4.66.34,1.16.64,2.34.94,3.51.81,3.18,1.53,6.36,2.23,9.57,1.24,5.61,2.13,11.3,3.1,17s1.88,11.61,2.74,17.42c.9,6.86,1.72,13.72,2.39,20.61s1.15,13.82,1.57,20.73q1.31,21.45,1.11,42.93-.09,11.43-.42,22.86c-.2,6.95-.4,13.89-.48,20.84-.09,6.75,0,13.5-.05,20.25,0,7.35-.05,14.7,0,22.05.08,14.31.25,28.63.85,42.93.3,7.16.67,14.31.93,21.48.25,6.81.4,13.63.63,20.45.48,14.41,1.31,28.8,2.22,43.19s2.41,28.45,2.8,42.73q.3,10.94.17,21.88c-.08,6.91-.44,13.8-.77,20.71-.68,14.16-.91,28.35-1.08,42.53q-.12,10.68-.18,21.34c-.05,7.34-.2,14.68-.22,22,0,7.13.08,14.25.39,21.37.3,6.85.75,13.7,1.28,20.54.34,4.37.77,8.74,1.07,13.11.15,2.15.3,4.31.38,6.46a66,66,0,0,1,0,7.94,26.86,26.86,0,0,1-1.57,5.76s0,0,0,0c.61-.87,1.17-1.77,1.73-2.68a20.29,20.29,0,0,0,2-4.69c.54-1.73.94-3.52,1.3-5.3.69-3.31,1.21-6.65,1.59-10,.79-6.85,1.25-13.73,1.75-20.6,1.05-14.47,2-29,2-43.5-.05-14.15-.18-28.3-.25-42.45,0-6.94,0-13.88.25-20.82.25-7.42.63-14.83.75-22.25.11-6.89-.35-13.81-.72-20.69-.39-7.11-.93-14.2-1.55-21.29s-1.47-13.9-2.15-20.85c-.72-7.32-1.16-14.65-1.58-22-.8-14.16-1.11-28.36-1.26-42.54-.07-7.22-.15-14.43-.3-21.65-.14-7-.29-14-.29-21,0-14.47.54-28.94.94-43.4.39-13.77.41-27.55.56-41.33.08-7.19.23-14.38.15-21.57q-.12-11.21-.54-22.41c-.52-14.2-1.54-28.36-2.89-42.5-1.42-14.83-3.32-29.61-5.93-44.27q-1.83-10.25-4.07-20.43c-.75-3.37-1.52-6.74-2.46-10.07-.48-1.69-.91-3.41-1.46-5.09-.61-1.83-1.13-3.72-1.83-5.52-1.27-3.27-2.59-6.5-4-9.71-1.28-2.85-2.67-5.66-4.13-8.42q-4.57-8.64-9.64-17c-1.82-3-3.68-5.9-5.58-8.82-1.77-2.7-3.64-5.33-5.5-8s-3.61-5-5.47-7.37q-4.14-5.38-8.35-10.69h0a0,0,0,0,0,0,0Zm45.82,123,.09.72-.09-.72Z"/><path class="cls-1" d="M1168.89,907c-.45,2.3-.91,4.61-1.44,6.89a36.7,36.7,0,0,1-1.8,6v0a41.14,41.14,0,0,1-2.68,5.06,57.8,57.8,0,0,1-3.67,5l.15-.2-2.37,2.76c-.8.94-1.72,1.79-2.58,2.68-1.45,1.5-3,2.95-4.57,4.33-2,1.74-4,3.44-6,5.12-1.87,1.55-3.8,3-5.72,4.53l.47-.37c-5.32,3.92-10.74,7.66-16.16,11.43q-4.53,3.14-9.06,6.27c-2.71,1.87-5.52,3.6-8.31,5.33-6.09,3.77-12.33,7.29-18.56,10.82-5.67,3.21-11.25,6.55-16.7,10.13-2.83,1.86-5.65,3.76-8.54,5.52-3.21,2-6.43,3.88-9.7,5.75-5.66,3.23-11.53,6.14-17.41,9s-12,5.83-18,8.66c-6.39,3-12.84,5.89-19.23,8.89-2.85,1.33-5.7,2.68-8.47,4.16-1.51.8-3.06,1.56-4.54,2.43l-5.15,3c-1.5.87-2.94,1.86-4.41,2.78s-2.79,1.8-4.19,2.71c-2.68,1.75-5.34,3.54-8.08,5.18-3,1.84-6.08,3.66-9.16,5.42s-6.22,3.46-9.35,5.16c-5.77,3.14-11.56,6.26-17.25,9.55-12.27,7.08-24.65,14-36.84,21.18-6,3.53-11.89,7.14-17.9,10.59-5.78,3.31-11.72,6.35-17.72,9.25s-12.32,5.79-18.5,8.64q-9.65,4.45-19.32,8.88c-6.17,2.8-12.33,5.61-18.43,8.54s-12.21,6-18.31,9c-5,2.49-10.12,4.81-15.25,7.08q-8.79,3.62-17.68,7-10,3.76-20,7.65c-6,2.33-12,4.66-18,6.89-6.73,2.49-13.45,5-20.09,7.74-4.83,2-9.57,4.2-14.31,6.39q-6.17,2.87-12.41,5.57c-6.31,2.53-12.66,4.92-19,7.27s-12.62,4.89-18.93,7.36c-13,5.11-26.22,9.88-39,15.67-2.46,1.12-4.89,2.31-7.32,3.49s-4.61,2.14-6.94,3.16c-4.9,2-9.82,3.85-14.87,5.39a111,111,0,0,1-15.44,3.86,18.42,18.42,0,0,1-3.53.06,16.28,16.28,0,0,1-3.21-.8,12,12,0,0,1-1.86-1.11h0l-.59-.48s0,0,0,0a10.85,10.85,0,0,0,2.08,2.31,15.17,15.17,0,0,0,3.25,1.89,23.5,23.5,0,0,0,6.8,1.43,64.19,64.19,0,0,0,9.25.12,122.42,122.42,0,0,0,20.77-2.84c6.29-1.41,12.31-3.82,18.36-6,6.24-2.26,12.54-4.36,18.77-6.65,13-4.75,25.61-10.28,38.52-15.13,6.5-2.44,13-4.81,19.41-7.53,6.68-2.84,13.24-5.91,19.82-9,1.62-.75,3.25-1.45,4.88-2.17,12-5,24.26-9.26,36.32-14.09,6.64-2.66,13.29-5.33,20-7.92,6.48-2.51,12.92-5.09,19.32-7.79,6.78-2.85,13.36-6.13,19.91-9.46,6.15-3.14,12.31-6.25,18.52-9.28s12.42-5.88,18.63-8.83c6-2.84,11.89-5.79,17.83-8.68,6.37-3.11,12.77-6.14,19.12-9.29,6.14-3,12.09-6.48,18-10s11.54-7.1,17.35-10.58,11.4-6.64,17.13-9.9c6-3.44,12-7,18-10.43s12.2-6.84,18.35-10.18c5.93-3.23,11.84-6.52,17.54-10.17,5.88-3.77,11.65-7.74,17.67-11.3,2.81-1.67,5.64-3.32,8.57-4.79q5.1-2.57,10.24-5.05c5.77-2.78,11.6-5.45,17.3-8.37q8.92-4.57,17.79-9.24c6.36-3.37,12.63-6.87,18.78-10.6,5.77-3.51,11.29-7.41,16.82-11.28s11.53-7.59,17.43-11.16c2.74-1.66,5.49-3.3,8.21-5,3.25-2,6.47-4.08,9.68-6.16,5.6-3.64,10.93-7.72,16.15-11.89q7.21-5.76,14.11-11.86c2.41-2.12,4.68-4.41,7-6.67s4.24-4.44,6.25-6.76a69.75,69.75,0,0,0,10.23-14.93c2.61-5.3,3.26-11.29,4-17.08h0Zm-3.19,12.77,0,.07,0-.07ZM531.49,1239.74h0Z"/><path class="cls-1" d="M1170.53,855.51c-.08.62-.16,1.24-.24,1.86h0c-.21,1.57-.43,3.14-.64,4.71v0c-1.36,9-2.68,18-4.3,26.88-.18,1-.42,1.94-.63,2.91s-.4,1.91-.65,2.86c-.58,2.24-1.15,4.46-1.81,6.68l-.95,3.16c-.37,1.24-.85,2.46-1.27,3.68-.71,2-1.51,4-2.3,6-1.1,2.41-2.17,4.83-3.38,7.19a106.24,106.24,0,0,1-9.9,15.55c-.92,1.17-1.89,2.29-2.85,3.43s-1.68,2.13-2.6,3.1c-2.07,2.18-4.08,4.44-6.27,6.5l-4.11,3.87c-1.13,1.07-2.36,2-3.54,3.06-2.15,1.84-4.36,3.61-6.57,5.39-2.46,1.82-4.9,3.65-7.43,5.37-3,2-6,4-9,6s-6.09,3.86-9.16,5.77-6,3.79-8.93,5.7c-2.81,1.81-5.52,3.77-8.27,5.68-2.59,1.79-5.1,3.7-7.64,5.56-1.31,1-2.65,1.87-4,2.81s-2.64,2-4,2.83l-4.54,2.9c-1.36.87-2.71,1.8-4.11,2.62-3,1.73-5.89,3.52-8.88,5.2s-5.84,3.27-8.74,4.92c-5.77,3.3-11.51,6.66-17.3,9.94-12,6.8-24.09,13.37-35.92,20.42-6.14,3.66-12.28,7.33-18.49,10.88-5.66,3.23-11.41,6.3-17.14,9.41-3,1.61-5.93,3.2-8.86,4.84-3.26,1.82-6.49,3.68-9.72,5.55-5.74,3.33-11.47,6.67-17.29,9.86s-11.82,6.27-17.84,9.2q-5.31,2.58-10.66,5.1c-2.82,1.33-5.69,2.57-8.54,3.83s-5.6,2.33-8.43,3.41c-3.09,1.18-6.18,2.37-9.28,3.53-6.86,2.57-13.71,5.17-20.53,7.86-6,2.36-11.9,4.87-17.86,7.28-6.67,2.7-13.35,5.36-20,8.2q-5.23,2.24-10.38,4.61c-2.93,1.34-5.83,2.75-8.74,4.15-5.94,2.85-11.89,5.67-17.94,8.31-6.3,2.75-12.63,5.43-19,8.12s-12.6,5.61-18.87,8.5c-5.75,2.65-11.53,5.25-17.29,7.88-6.2,2.83-12.39,5.67-18.37,8.93-6.18,3.37-12.31,6.8-18.49,10.16-1.37.75-2.79,1.43-4.19,2.14s-2.53,1.31-3.82,1.93c-3.23,1.55-6.45,3.09-9.71,4.59-7.25,3.33-14.53,6.59-21.87,9.74-10.52,4.24-21.07,8.39-31.51,12.82l1-.44-4.34,1.84,1-.42-3,1.29c-1.78.73-3.56,1.52-5.39,2.09l-3.19,1a45.7,45.7,0,0,1-4.55,1.09c-1.7.36-3.41.61-5.12.86-4.77.62-9.59,1-14.39,1.32-4.55.34-9.11.65-13.66.82a0,0,0,0,0,0,0c3.8.44,7.6.84,11.4,1.24,3,.32,6.09.68,9.14.93l6.41.53a67.12,67.12,0,0,0,11.69-.11c1-.09,2-.28,2.92-.42.63-.09,1.27-.18,1.89-.32,1.77-.39,3.5-.84,5.25-1.34,3.23-.92,6.42-2.07,9.61-3.14s6.43-2.19,9.64-3.32,6.23-2.25,9.32-3.45c3.32-1.29,6.64-2.63,9.89-4.08,6.32-2.82,12.59-5.73,18.86-8.67,6-2.8,11.92-5.64,17.77-8.68,3.17-1.65,6.3-3.37,9.43-5.1,2.53-1.4,5-2.87,7.55-4.27,6.07-3.36,12.19-6.64,18.5-9.54,6.48-3,13-5.9,19.45-8.87,5.73-2.62,11.41-5.34,17.16-7.9,6.07-2.71,12.19-5.29,18.27-8,3-1.34,6.11-2.65,9.12-4.05,3.21-1.5,6.43-3,9.62-4.55,4-1.94,8-4,12-5.82,2.17-1,4.33-2.07,6.53-3l6.74-2.91c6-2.44,11.95-4.84,17.91-7.28,6.83-2.8,13.67-5.58,20.55-8.27,12.6-4.92,25.49-9.05,37.89-14.48,12.77-5.58,25.28-11.75,37.55-18.35,5.74-3.09,11.34-6.43,17-9.67s11.47-6.37,17.29-9.4c6.4-3.32,12.77-6.68,19.09-10.15,5.6-3.08,11.09-6.35,16.66-9.48q8.86-5,17.78-9.86c6.12-3.33,12.25-6.63,18.29-10.1,5.78-3.32,11.54-6.65,17.35-9.92,3-1.66,5.93-3.29,8.86-5l5.64-3.31c1.08-.63,2.16-1.25,3.21-1.92l5.48-3.54c1.05-.68,2.12-1.34,3.14-2.06,2.75-2,5.52-3.91,8.23-5.93,5.64-4.2,11.3-8.37,17.17-12.26s12-7.85,18-11.84c2.79-1.86,5.47-3.86,8.19-5.82,1.4-1,2.73-2.13,4.08-3.2s2.51-1.95,3.7-3l4.13-3.64c1.5-1.33,2.93-2.76,4.39-4.13,1-.91,1.89-1.88,2.82-2.84,1.1-1.13,2.25-2.23,3.29-3.43l4.17-4.79c1-1.18,2-2.46,2.91-3.7l3.14-4.09c1.35-1.76,2.53-3.68,3.71-5.55,1.33-2.12,2.52-4.32,3.65-6.55.82-1.61,1.55-3.27,2.25-4.93.48-1.15,1-2.3,1.39-3.49q.87-2.55,1.72-5.11c.46-1.37.77-2.8,1.14-4.19s.62-2.54.91-3.82a164.35,164.35,0,0,0,2.91-17.31c.65-5.5.87-11,1.29-16.57.48-6.34,1-12.68,1.34-19h0ZM626.92,1216.22l-.56.24.56-.24Zm-54.17,19.87-.42.06.42-.06Zm597.54-378.71v0a.06.06,0,0,0,0,0Z"/><path class="cls-1" d="M466.32,1178.8a34.72,34.72,0,0,0,4.76,5.34c1.78,1.55,3.66,3,5.56,4.38,3.61,2.65,7.25,5.26,10.81,8l1.3,1c2.88,2.26,5.74,4.54,8.76,6.62a82.32,82.32,0,0,0,8.68,5.17,76.21,76.21,0,0,0,10.4,4.3c3.19,1.1,6.37,2.17,9.51,3.43,4.79,2,9.53,4.18,14.4,6s9.61,3.54,14.51,5a75.46,75.46,0,0,0,8,1.95,73.46,73.46,0,0,0,8.87,1,56.14,56.14,0,0,0,7.6-.29,45.89,45.89,0,0,0,8.09-1.48c3-.8,5.93-1.73,8.86-2.76a100.94,100.94,0,0,0,11-4.42,70.86,70.86,0,0,0,10.26-6.62c2.9-2.11,5.62-4.52,8.34-6.86a0,0,0,0,0,0,0q-2.48,1.46-5,2.89c-1.21.7-2.41,1.45-3.66,2.07l-4.46,2.25c-1.2.61-2.48,1.09-3.72,1.62a68.85,68.85,0,0,1-12.55,3.45c-2.82.54-5.64,1-8.48,1.44a62.41,62.41,0,0,1-15.57.11c-2.25-.34-4.5-.73-6.72-1.29-2.73-.69-5.39-1.52-8.05-2.43-4.84-1.66-9.65-3.39-14.45-5.17-2.5-.92-5-1.82-7.54-2.63-2.38-.76-4.81-1.39-7.23-2-5.1-1.35-10.11-2.91-15.06-4.75-1.19-.44-2.36-.92-3.54-1.39l-1.34-.57c-3.48-1.56-6.94-3.15-10.26-5s-6.79-3.94-10.23-5.85q-4.68-2.6-9.47-5a78.87,78.87,0,0,1-10.11-5.59l.07.06c-.82-.63-1.62-1.27-2.4-1.94h0s0,0,0,0Zm20.89,17.51.23.18-.23-.18Z"/><path class="cls-1" d="M457,1179.78c2.62,3.13,5.4,6.1,8.21,9.06,2.64,2.79,5.21,5.66,7.93,8.36s5.64,5.41,8.63,7.94q2.54,2.14,5.18,4.15c1.57,1.2,3.23,2.27,4.92,3.31a85,85,0,0,0,10.07,5.25q6,2.67,12.09,4.9c7.46,2.7,15.06,5.05,22.71,7.17a109,109,0,0,0,10.76,2.45,107.33,107.33,0,0,0,11.7,1.55c1,.05,1.91.15,2.86.15h3c1,0,1.95-.12,2.91-.18s2-.21,3-.32c4.12-.45,8.23-1.17,12.31-1.89,0,0,0,0,0,0-3.09,0-6.18.08-9.26,0-1.51,0-3,0-4.51-.11s-2.91-.18-4.38-.3l-2.64-.38c-1-.15-2.05-.4-3.07-.6-1.79-.36-3.56-.84-5.32-1.32-3.94-1.09-7.8-2.36-11.65-3.73-3.63-1.3-7.18-2.8-10.76-4.23s-7.43-3-11.16-4.44c-5.16-2-10.31-4-15.43-6.13-3.34-1.45-6.68-2.9-9.91-4.59-1.9-1-3.77-2-5.6-3.16s-3.37-2.11-5-3.17c-6.49-4.11-12.8-8.5-19-13-1-.71-2-1.42-2.94-2.16l0,0c-1.92-1.48-3.78-3-5.57-4.67h0a0,0,0,0,0,0,0Zm5.47,4.57.07.06-.07-.06Z"/><path class="cls-1" d="M453.63,1175.09a48.38,48.38,0,0,1,5.72,3c1.6,1,3.13,2.09,4.64,3.23l-.14-.1c2.54,2,5,4.19,7.45,6.32s5,4.15,7.54,6.11a145.86,145.86,0,0,0,16.08,10.93c2.88,1.64,5.79,3.2,8.81,4.56,3.26,1.47,6.53,2.89,9.84,4.23,3.06,1.23,6.16,2.38,9.25,3.54s6,2.28,9,3.38a184.29,184.29,0,0,0,18.88,5.89c1.62.4,3.23.83,4.86,1.19s3.52.82,5.29,1.14l5.71,1c1.57.28,3.16.42,4.74.61,1,.11,1.92.24,2.89.3l5,.28c1,.05,2,0,3.07,0,1.67,0,3.33,0,5-.09a0,0,0,0,0,0,0c-2.49-.15-5-.47-7.43-.73l-5.42-.86c-1.55-.24-3.07-.61-4.61-.94s-2.87-.66-4.31-1-3.05-.78-4.57-1.23c-3.34-1-6.71-2-10-3.11s-6.38-2.21-9.54-3.41c-2.91-1.11-5.78-2.3-8.66-3.5-6.59-2.78-13.24-5.41-19.86-8.12-3-1.31-6-2.63-9-4-2.81-1.29-5.54-2.77-8.23-4.29-5.8-3.28-11.33-7-16.86-10.74-3.8-2.56-7.48-5.31-11.4-7.7a57.1,57.1,0,0,0-6.11-3.25,60.57,60.57,0,0,0-7.54-2.65h0a0,0,0,0,0,0,0Zm79,40.73.09,0-.09,0Zm47,14.07h0Zm0,0h0Z"/></g><g id="Draw_Layer-2" data-name="Draw Layer"><path class="cls-1" d="M660.37,418.55a178.12,178.12,0,0,0-34.59,3.37,87.15,87.15,0,0,0-16.65,5.57,97.5,97.5,0,0,0-14.31,7.79c-4.33,2.8-8.41,6-12.5,9.18a154.69,154.69,0,0,0-13.57,11.38c-2,1.95-3.92,3.95-5.75,6.05a82.62,82.62,0,0,0-6,8.06,87.93,87.93,0,0,0-8.12,16.21,81.26,81.26,0,0,0-4.49,14.95A110.71,110.71,0,0,0,542.41,519a97.27,97.27,0,0,0,.77,15.34A74.81,74.81,0,0,0,546,548.16,64.84,64.84,0,0,0,552.66,562a53.42,53.42,0,0,0,3.41,4.68c.77,1,1.51,2,2.32,3,1.73,2.06,3.46,4.12,5.29,6.11,3.75,4.09,7.57,8.06,11.68,11.8a71.26,71.26,0,0,0,13.95,10.12,140.86,140.86,0,0,0,16.93,7.61,233.83,233.83,0,0,0,30.26,8.86c10.61,2.46,21.26,4.49,32,6.09,5.7.85,11.4,1.71,17.09,2.67,5.06.86,10.09,2,15.12,3,10.76,2.16,21.61,3.71,32.47,5.27,10.56,1.52,21,3.5,31.57,5.24S786,639.72,796.5,642c10.83,2.39,21.57,5.15,32.32,7.87,10.13,2.56,20.25,5.29,30.14,8.67,6.29,2.15,12.52,4.42,18.77,6.68,5.3,1.92,10.58,3.86,15.81,6,3.54,1.59,7,3.28,10.39,5.2a96.39,96.39,0,0,1,10.24,6.51,102.64,102.64,0,0,1,11,9.74c3.45,3.61,6.67,7.39,9.78,11.28a85.57,85.57,0,0,1,4.9,7.06,87.16,87.16,0,0,1,4.5,8.45,97.19,97.19,0,0,1,4.14,12.67c1.16,4.74,2.08,9.51,2.82,14.33.62,5.14,1.1,10.28,1.28,15.45a99,99,0,0,1-.8,15c-.44,2.59-.9,5.16-1.55,7.71-.76,3-1.68,5.85-2.7,8.74-.51,1.17-1,2.33-1.64,3.47a48,48,0,0,1-3.27,5.13c-.82,1-1.64,2-2.49,3-1.34,1.57-2.88,3-4.36,4.41-2.57,2.47-5.34,4.72-8.11,7a96.24,96.24,0,0,1-14.1,9c-5.28,2.65-10.64,5.06-16.06,7.38q-14.49,6-29,12a207.68,207.68,0,0,1-30.25,9.61c-4.52,1.09-9.06,2.15-13.63,3-4.18.81-8.36,1.48-12.56,2.09-10.59,1.14-21.18,1.8-31.83,2.12-10.82.33-21.64.39-32.46.44-8.61,0-17.21,0-25.82-.42-7.92-.37-15.79-1.12-23.65-2.1a284.31,284.31,0,0,1-31.14-6.11c-10.39-2.75-20.52-6.5-30.66-10-5-1.76-10-3.68-14.92-5.72a134.51,134.51,0,0,1-13.81-7.07c-4.54-2.75-9-5.64-13.43-8.54-9-5.86-18.26-11.24-27.35-16.93q-4.43-2.78-8.62-5.9c-1.33-1.11-2.64-2.23-3.89-3.43a41.48,41.48,0,0,1-3.18-3.5,38.18,38.18,0,0,1-3.74-6.51,111.92,111.92,0,0,1-5.47-20.26q-1.8-9.22-3.21-18.5s0,0,0,0q-.77,8.39-1.61,16.77-.39,3.84-.58,7.71a61.14,61.14,0,0,0,0,7.89q.17,2.16.35,4.31a39.21,39.21,0,0,0,2.95,12.07,39.67,39.67,0,0,0,5.22,8.71,78.55,78.55,0,0,0,11.61,11.85c8.48,7.22,17.53,13.78,26.41,20.5,4.32,3.27,8.71,6.45,13.28,9.37A134.36,134.36,0,0,0,610.86,854c10.33,4.95,21.19,8.84,31.94,12.77,4.84,1.77,9.71,3.54,14.67,5,5.34,1.51,10.7,2.8,16.13,3.91,5.05,1,10.16,1.93,15.26,2.66,6.16.88,12.34,1.79,18.55,2.2,10.73.7,21.49.61,32.23.59h9.82c18.71,0,37.44,0,56.12-1.06a258.68,258.68,0,0,0,34-4.65,229,229,0,0,0,30.78-7.72c5.2-1.77,10.32-3.71,15.43-5.7,4.77-1.85,9.56-3.64,14.29-5.57,5.66-2.3,11.36-4.59,16.89-7.2a123.57,123.57,0,0,0,14.7-7.88A110.38,110.38,0,0,0,946,830.22c2-1.87,4.05-3.76,6-5.76a81.31,81.31,0,0,0,5.36-6.23,66,66,0,0,0,6.62-9.82,74.08,74.08,0,0,0,4.76-12A93.94,93.94,0,0,0,972.2,779a124.28,124.28,0,0,0,1.12-15.7c-.05-5.23-.21-10.46-.7-15.66A165.56,165.56,0,0,0,969.9,729,93.14,93.14,0,0,0,964.1,712c-4.4-10.43-11.89-19.32-19.37-27.66A146.32,146.32,0,0,0,933,672.68c-2.59-2.31-5.44-4.36-8.2-6.47a62.11,62.11,0,0,0-6.1-4.08,129.58,129.58,0,0,0-14.46-7.5c-5.47-2.36-11-4.52-16.6-6.57-10-3.68-20-7.51-30.2-10.72-10.48-3.3-21.06-6.29-31.7-9.06-10.25-2.67-20.56-5.15-31-6.92-10.66-1.8-21.36-3.45-32.05-5.07q-9.63-1.45-19.29-2.7c-5.42-.7-10.86-1.25-16.29-1.89-1.84-.22-3.68-.46-5.53-.7-5.21-.77-10.4-1.58-15.58-2.52s-10.24-1.95-15.39-2.74c-10.71-1.64-21.52-3-32.15-5.06-9.24-1.83-18.48-3.8-27.59-6.23-4.59-1.22-9.2-2.43-13.7-4-4-1.36-7.92-2.84-11.81-4.44a88.13,88.13,0,0,1-8.23-4.13c-2.56-1.54-5-3.15-7.4-4.9a124,124,0,0,1-9.69-9c-3.15-3.3-6.17-6.7-9.08-10.2a65.06,65.06,0,0,1-6.93-11.3,52.51,52.51,0,0,1-2.41-8.16c-.18-.88-.32-1.77-.45-2.67a116.83,116.83,0,0,1,0-24.74,79.14,79.14,0,0,1,2.06-10.36,116.51,116.51,0,0,1,3.85-11.06,80.71,80.71,0,0,1,4.21-8c1.32-2.15,2.73-4.2,4.23-6.21a93.32,93.32,0,0,1,9.45-9.61c3.34-2.89,6.75-5.66,10.22-8.38,3.72-2.82,7.47-5.58,11.36-8.17a84.71,84.71,0,0,1,11.67-6.31c3.34-1.25,6.68-2.38,10.13-3.33a92.54,92.54,0,0,1,10.15-2c4.84-.56,9.68-1,14.55-1.2q7.89-.29,15.78-.27c10.67,0,21.34.11,32,.25q32.09.42,64.17,2.08,12,.61,24,1.69c7.25.66,14.48,1.59,21.7,2.54,5.25.75,10.48,1.54,15.71,2.44s10.63,2.09,15.91,3.33a222.74,222.74,0,0,1,30.49,9.7l.26.1,4.18,1.77-1.83-.77A120.52,120.52,0,0,1,886.43,465c3.5,2.09,6.84,4.39,10.13,6.79a84.06,84.06,0,0,1,7.57,6.53c2.66,2.69,5.16,5.48,7.55,8.41a161.32,161.32,0,0,1,9.19,13.89,146.08,146.08,0,0,1,7.9,14.65,50.37,50.37,0,0,1,1.92,6.22c.57,2.52,1,5.05,1.45,7.61,0,0,0,0,0,0,.1-2.95.1-5.88,0-8.83a44,44,0,0,0-1.28-8.19c-.54-2.37-1.31-4.69-2-7s-1.53-4.71-2.34-7.05a136.44,136.44,0,0,0-6.31-15.64,75.21,75.21,0,0,0-9.67-14.57,96.24,96.24,0,0,0-18.34-16.37,79.35,79.35,0,0,0-7.07-4.37c-10.11-5.42-21-9-32-12a296.75,296.75,0,0,0-31.31-6.54c-10.9-1.76-21.88-3.19-32.86-4.35-10.6-1.12-21.2-2-31.85-2.5-11.07-.5-22.14-1-33.2-1.56q-15.64-.83-31.3-1.14c-9.06-.19-18.12-.38-27.18-.38l-5,0ZM603.49,585.27l.68.29-.68-.29Z"/><path class="cls-1" d="M678.93,428.24a136,136,0,0,0-15,1.92c-9,1.58-18,3.34-26.78,5.75q-6.54,1.78-13,3.89a78.54,78.54,0,0,0-13.51,5.71c-3.77,2.09-7.37,4.46-11,6.75-3.85,2.41-7.69,4.83-11.29,7.59-1.15.88-2.33,1.74-3.39,2.72-.9.83-1.79,1.68-2.66,2.54a32.78,32.78,0,0,0-2.21,2.55c-.95,1.15-1.91,2.34-2.74,3.58-1.27,1.89-2.44,3.82-3.55,5.82s-2,4-3,6A125.87,125.87,0,0,0,565,495.9a79.68,79.68,0,0,0-3.48,12.61c-1.73,9.55-2.37,19.54-.54,29.12a42.7,42.7,0,0,0,5,13.16c1.07,1.86,2.32,3.64,3.55,5.39s2.36,3.3,3.57,4.93c1.58,2.11,3.18,4.2,4.83,6.25a33.64,33.64,0,0,0,4.41,4.61c2.11,1.78,4.29,3.45,6.54,5,1.85,1.32,3.83,2.46,5.79,3.6A117.45,117.45,0,0,0,607.89,587c4.2,1.77,8.43,3.37,12.75,4.82s8.64,2.77,13,4.19,8.75,2.58,13.21,3.6,8.74,1.91,13.11,2.9,8.52,1.88,12.81,2.67q6.21,1.14,12.42,2.2c3.76.64,7.5,1.38,11.27,1.94,8.18,1.21,16.41,1.89,24.61,2.95,8.9,1.21,17.76,2.69,26.62,4.19,4.38.74,8.71,1.7,13.08,2.44,4.57.78,9.17,1.42,13.76,2.08,8.93,1.29,17.89,2.31,26.86,3.33,4.23.48,8.45,1.11,12.7,1.56,4.61.5,9.22.93,13.82,1.45,2.25.25,4.48.55,6.72.86l-.66-.09c2.27.31,4.53.62,6.78,1s4.77,1,7.14,1.48a93.81,93.81,0,0,1,13.72,4c4,1.75,8,3.75,12,5.62,4.15,1.94,8.41,3.64,12.6,5.48a145.76,145.76,0,0,1,22.46,12.84c4.13,2.77,8.3,5.52,12.26,8.53a77.92,77.92,0,0,1,6.15,5.5c2,2,3.92,4.14,5.83,6.26,3.6,4,7.1,8.07,10.43,12.29,1.08,1.45,2.14,2.92,3.19,4.4s2.05,3.17,3,4.79a79,79,0,0,1,4.72,9.66c1.12,2.73,2.24,5.47,3.27,8.23,1.14,3.08,2.3,6.18,3.16,9.36s1.6,6.43,2.23,9.7c.54,2.83.94,5.69,1.33,8.55.54,4.56,1.06,9.13,1.17,13.72.06,2.5,0,5-.14,7.49-.14,2.29-.4,4.58-.66,6.86A56.16,56.16,0,0,1,962,785.16a72.24,72.24,0,0,1-8.74,14.08c-1.64,2-3.3,4-5,5.88,0,0,0,0,0,0,3.39-3.15,6.8-6.31,9.91-9.75s6.23-6.8,8.09-11a64.81,64.81,0,0,0,3.93-12.72,85.67,85.67,0,0,0,2-14.19,138.32,138.32,0,0,0-.93-23.75,69,69,0,0,0-2.54-11.85c-1.25-4-2.79-7.88-4.42-11.74l-.47-1.12a78.39,78.39,0,0,0-5.94-11.7,113.3,113.3,0,0,0-8.38-11.45q-4.45-5.36-9.18-10.48A128.52,128.52,0,0,0,931,666a79.86,79.86,0,0,0-10.91-8c-3.78-2.33-7.56-4.67-11.43-6.83s-7.61-4.24-11.54-6.1c-4.13-2-8.34-3.68-12.63-5.27s-8.47-3.14-12.67-4.82c-4.36-1.75-8.72-3.49-13.17-5-4.07-1.42-8.18-2.68-12.3-4-2.17-.67-4.34-1.3-6.56-1.78s-4.35-.82-6.54-1.18c-7.37-1.18-14.82-1.84-22.24-2.64-6.72-.73-13.45-1.35-20.15-2.21-8.89-1.21-17.72-2.67-26.46-4.75-4.35-1-8.65-2.25-13-3.32s-8.62-1.95-12.95-2.87c-8.88-1.91-17.8-3.6-26.79-5-4.3-.65-8.62-1.27-12.87-2.21-4.46-1-8.89-2.08-13.33-3.15s-8.74-2.1-13.1-3.21-8.43-2.26-12.64-3.36-8.62-2.12-12.91-3.25c-4.53-1.18-9-2.57-13.43-4-3.17-1-6.36-2-9.52-3.07s-6.48-2.34-9.68-3.63c-8.31-3.6-16.45-7.63-23.73-13.05a47.21,47.21,0,0,1-4.36-4.14c-1.32-1.46-2.58-3-3.8-4.51-1.63-2.16-3.23-4.34-4.73-6.6-.93-1.41-1.84-2.83-2.71-4.28a31.19,31.19,0,0,1-1.69-3.3,40.66,40.66,0,0,1-1.88-7.19,81.67,81.67,0,0,1,.33-17,74.49,74.49,0,0,1,1.92-8.71,81.07,81.07,0,0,1,2.8-8c1.79-4,3.8-8,5.8-11.94,1.05-2.08,2.15-4.14,3.32-6.16a49.41,49.41,0,0,1,3.24-4.83c.92-1.1,1.84-2.2,2.86-3.21s2.15-2,3.28-3c4.24-3.12,8.73-5.82,13.22-8.56,2.22-1.36,4.43-2.73,6.68-4s4.42-2.44,6.73-3.49a184,184,0,0,1,25.5-7.39c8.49-1.94,17.1-3.27,25.71-4.52a111.3,111.3,0,0,1,12.54-.82c4.64,0,9.28.07,13.91.16,4.45.09,8.89.08,13.33.22s8.88.42,13.32.69c9.07.55,18.12,1.22,27.17,1.92s18.28,1.29,27.43,1.8c4.26.24,8.53.41,12.79.67,4.44.28,8.85.69,13.27,1.2,4,.57,8,1.25,11.94,2.14,4.37,1,8.72,2,13.07,3.1l6.57,1.63c2.13.52,4.27,1,6.38,1.55,4.48,1.18,9,2.35,13.43,3.57A100.31,100.31,0,0,1,869,464c2.45,1.06,4.88,2.17,7.3,3.3,2.58,1.21,5.17,2.4,7.71,3.7s5.09,2.62,7.58,4a67.57,67.57,0,0,1,7.33,4.67c1,.8,1.92,1.63,2.84,2.5a31,31,0,0,1,2.72,3.1c3.1,4.12,6.09,8.33,9.22,12.42s6.48,8.57,8.64,13.48l0-.12a85.36,85.36,0,0,1,2.8,8.25s0,0,0,0a48,48,0,0,0-3.57-12.75c-.93-1.94-1.9-3.86-2.93-5.75s-2.16-3.7-3.24-5.55c-2.13-3.68-4.15-7.42-6.24-11.12a37.66,37.66,0,0,0-3.73-5.6,41.06,41.06,0,0,0-4.33-4.47,101.4,101.4,0,0,0-10.8-7.95c-3.54-2.39-7.05-4.82-10.71-7A99.62,99.62,0,0,0,867.68,453c-4.32-1.87-8.76-3.47-13.17-5.11-2.24-.84-4.48-1.65-6.76-2.39s-4.3-1.25-6.46-1.83q-6.4-1.71-12.84-3.26c-4.35-1.05-8.73-2-13.16-2.73-4.9-.75-9.82-1.33-14.75-1.77-8.95-.8-17.92-1.13-26.89-1.63s-18.14-1.22-27.2-1.85-18.06-1.52-27.09-2.32c-8.87-.79-17.74-1.72-26.64-2-2.27-.07-4.54-.12-6.81-.12s-4.67.05-7,.2Zm42.18,184,.6.08-.6-.08Zm69.28,5.79.2,0-.2,0ZM953.28,799.25l0,0,0,0Z"/><path class="cls-1" d="M873.3,653.59c3.68,1.64,7.38,3.3,11,5.16a.44.44,0,0,0,.23.12q1.29.67,2.56,1.38a106.58,106.58,0,0,1,11.83,7.95c2.65,2.05,5.3,4.13,7.89,6.26,1.33,1.09,2.68,2.2,3.91,3.41s2.32,2.4,3.39,3.69a54.19,54.19,0,0,1,3,4.8c.95,1.71,1.75,3.5,2.55,5.29,1.54,3.43,3.08,6.85,4.58,10.3a120.67,120.67,0,0,1,6.33,20.29c1.5,7,2.88,14.1,3.9,21.22.61,5,1,10,1.13,15,.09,2.66.2,5.33.11,8-.08,2.41-.26,4.78-.54,7.17a119,119,0,0,1-7,26.2c-.68,1.49-1.38,3-2.19,4.39a44.33,44.33,0,0,1-2.76,4.19c-3.65,4.35-7.79,8.22-11.84,12.2-2.05,2-4,4.11-6.08,6.14s-4.26,4.08-6.56,6a64.93,64.93,0,0,1-7.6,4.83c-2.76,1.47-5.6,2.76-8.47,4-4,1.63-8,3.21-12.08,4.56-4.32,1.42-8.7,2.7-13.08,3.92s-8.67,2.36-13,3.53-8.85,2.18-13.28,3.21c-3.44.8-6.87,1.64-10.32,2.41-3.61.81-7.23,1.46-10.89,2-4.15.52-8.31,1-12.49,1.27-4.35.31-8.7.54-13.06.74-4.84.23-9.68.43-14.53.54-4.34.11-8.69.08-13,.06l-14.1-.07c-4.41,0-8.81-.11-13.21-.4q-13.38-.88-26.72-2.2c-6.66-.66-13.32-1.26-20-2.1-2.05-.32-4.11-.63-6.14-1.07s-4.31-1-6.46-1.48c-4.51-1.09-9-2.06-13.59-3-4.2-.9-8.36-2-12.49-3.15-4.35-1.24-8.71-2.44-13.06-3.66s-8.41-2.47-12.51-4c-6-2.62-11.85-5.67-17.63-8.8-3.07-1.66-6.11-3.36-9.14-5.09a79.17,79.17,0,0,1-8.16-5.34c-3.43-2.77-6.85-5.56-10.2-8.42a72.2,72.2,0,0,1-9.28-9.56c-2.22-3-4.32-6.08-6.25-9.28-2.1-3.48-4.25-6.94-6-10.61a50.69,50.69,0,0,1-2-6,53.06,53.06,0,0,1-1.26-6.39c-.56-4.73-.86-9.5-1-14.26a0,0,0,0,0,0,0l-.16,1.23h0c-.55,4.12-1.33,8.23-1.61,12.38a40.19,40.19,0,0,0,0,6.29,52.36,52.36,0,0,0,1.13,6.91,34.79,34.79,0,0,0,2.14,6.16q1.34,3.12,2.75,6.21a110.19,110.19,0,0,0,6.06,11.41,72.07,72.07,0,0,0,8.42,11c1.46,1.61,3,3.13,4.55,4.67s2.93,3,4.44,4.39c1.67,1.57,3.37,3.09,5.19,4.49,2.07,1.61,4.18,3.12,6.36,4.57,3.48,2.32,7.09,4.54,10.78,6.53,3.9,2.11,7.86,4.14,11.93,5.89,2.45,1.05,4.89,2.08,7.4,3,2,.72,4.07,1.33,6.12,1.95,4.27,1.29,8.58,2.46,12.87,3.69s8.7,2.52,13.09,3.6,8.75,2,13.13,3,8.48,2,12.79,2.6c4.73.67,9.46,1.12,14.22,1.46s9.22.66,13.83.93c4.44.26,8.88.51,13.31.79s8.95.6,13.42.75c9.36.31,18.73.14,28.09,0,9-.14,18-.57,27-1.21,4.52-.33,9-.85,13.5-1.43s9-1.16,13.41-2c2.46-.46,4.9-1,7.34-1.5,2-.45,4-1,6-1.5,4.36-1.14,8.73-2.24,13.08-3.37,8.9-2.32,17.66-5.16,26.43-7.91,4-1.26,8.06-2.55,12-4.09,4.43-1.73,8.82-3.53,13.17-5.46A65.81,65.81,0,0,0,901,837.89a100.43,100.43,0,0,0,10.18-8.8c3.3-3.09,6.77-5.95,10.27-8.8a67.16,67.16,0,0,0,9.54-9,47.3,47.3,0,0,0,7.05-11.74c1-2.34,1.93-4.68,2.78-7.06.75-2.07,1.34-4.2,1.93-6.31a83.17,83.17,0,0,0,2.62-13.86c.22-2.16.41-4.33.46-6.5s.05-4.62.05-6.94c0-4.48-.07-9-.34-13.45s-.82-8.71-1.33-13a80.24,80.24,0,0,0-2.67-14.16,85.44,85.44,0,0,0-5.09-12.91,128.88,128.88,0,0,0-6.68-11.51c-2.42-3.83-4.72-7.77-7.47-11.38a39.73,39.73,0,0,0-4.8-5.41,46.58,46.58,0,0,0-5.45-4.12c-1.74-1.18-3.59-2.21-5.41-3.26-2.07-1.2-4.13-2.41-6.21-3.59-3.71-2.12-7.48-4.14-11.35-6-1-.47-2-.9-3.05-1.34l-1.07-.45-.29-.11a2.56,2.56,0,0,0-.35-.16l-1.23-.52c-3.27-1.36-6.54-2.68-9.85-3.92h0s0,0,0,0ZM548.62,772.95l0,.14,0-.14Zm333.8,68.71-.22.09.22-.09Z"/><path class="cls-1" d="M553.18,763.24c.89,2.68,1.8,5.35,2.63,8,.71,2.29,1.35,4.61,2.09,6.9a56.89,56.89,0,0,0,2.69,7,40.53,40.53,0,0,0,3.85,6.41,70.55,70.55,0,0,0,4.67,5.73,58.78,58.78,0,0,0,5.35,5.09c3.81,3.31,7.71,6.52,11.61,9.74,1.75,1.45,3.5,2.89,5.22,4.36s3.43,3,5.21,4.46c1.23,1,2.45,2,3.76,2.88s2.57,1.68,3.88,2.49c2.27,1.39,4.64,2.58,7,3.74,4.85,2.36,9.9,4.32,14.91,6.3,4.54,1.8,9.08,3.61,13.59,5.49l-.08,0c4.52,1.94,9,4,13.54,5.89,5.1,2.17,10.27,4.09,15.51,5.87,4.7,1.59,9.48,2.92,14.22,4.39q7.42,2.3,14.74,4.88c4.54,1.59,9.05,3.24,13.64,4.65q7.53,2.32,15.22,4c4.89,1,9.86,1.84,14.8,2.55a135.47,135.47,0,0,0,16.33,1.58,209.9,209.9,0,0,0,22.54-1c2.05-.18,4.09-.37,6.14-.59s3.86-.49,5.8-.76,3.75-.75,5.6-1.16c2.06-.46,4.1-1,6.13-1.61,0,0,0,0,0,0l-1.46.21c-3.17.38-6.34.57-9.53.64a85.68,85.68,0,0,1-9.12-.5c-6.49-.56-13-1.27-19.45-2.07l-1.9-.25c-5-.74-10-1.67-14.92-2.84s-9.89-2.48-14.8-3.86-9.95-2.8-14.84-4.47-9.47-3.54-14.17-5.43c-6.8-2.73-13.8-4.84-20.82-6.93s-14.14-4.44-21-7.18c-6.86-3-13.63-6.12-20.6-8.82S627,823.8,620,821a103.07,103.07,0,0,1-12.16-6.09c-2.08-1.26-4.09-2.58-6.06-4-1.77-1.26-3.53-2.52-5.34-3.71-7.65-5.06-15.8-9.34-23.23-14.73-1.5-1.2-3-2.42-4.36-3.76a52.48,52.48,0,0,1-4.39-4.8,65.76,65.76,0,0,1-5.63-9.69c-1.8-3.7-3.68-7.35-5.65-11h0a0,0,0,0,0,0,0Zm87,78.85.25.1.72.3-1-.41Z"/><path class="cls-1" d="M562.09,559.23a72.41,72.41,0,0,0,4.17,7.89,61.09,61.09,0,0,0,3.54,5,51.18,51.18,0,0,0,4.5,5.27l2.79,2.74c1,.95,2.05,1.79,3.08,2.68s2,1.54,2.94,2.3,1.94,1.43,2.92,2.13c1.82,1.3,3.7,2.57,5.62,3.72l3.49,2.08c1.24.74,2.56,1.37,3.84,2,2,1.08,4.16,2,6.25,3,1.18.55,2.43,1,3.63,1.5,1,.41,2,.86,3.05,1.23,5,1.82,9.94,3.54,15,5.11,4.59,1.43,9.21,2.77,13.83,4.1,9.54,2.73,19.19,5,28.84,7.29,9.25,2.2,18.46,4.53,27.65,6.92,9.6,2.5,19.22,4.95,28.81,7.49,9.21,2.44,18.32,5.28,27.6,7.44,4.68,1.09,9.37,2.15,14.09,3,5,.93,9.91,1.79,14.88,2.66,9.78,1.72,19.48,3.83,29.19,5.88,9.46,2,18.95,4,28.31,6.42,4.78,1.25,9.51,2.68,14.28,4,4.62,1.26,9.32,2.2,14,3.11,9.29,1.82,18.7,3.2,27.75,6.06,1.81.57,3.58,1.25,5.34,2,3.05,1.35,6,2.83,9,4.42a60.7,60.7,0,0,1,8.29,4.91c1.1.86,2.14,1.79,3.16,2.75,0,0,0,0,0,0-.65-.89-1.32-1.75-2-2.62h0a48.38,48.38,0,0,0-4.47-4.87c-1.71-1.69-3.41-3.4-5.17-5a61.76,61.76,0,0,0-11.58-8.64,73.08,73.08,0,0,0-13.84-5.88c-4.45-1.44-9-2.68-13.51-3.85s-9.27-2.37-13.89-3.56c-4.79-1.23-9.57-2.46-14.42-3.5s-9.64-1.92-14.47-2.82-9.4-1.77-14.11-2.62c-9.79-1.77-19.57-3.55-29.38-5.15-5-.82-9.95-1.64-14.91-2.54-4.73-.86-9.43-1.87-14.12-2.89-9.32-2-18.54-4.46-27.84-6.59-9.68-2.21-19.35-4.46-29-6.67-9.28-2.11-18.61-4-27.93-5.93-9.71-2-19.42-4.11-29.06-6.48-6.88-1.69-13.73-3.48-20.52-5.5-3.27-1-6.55-1.94-9.76-3.1-1.74-.62-3.52-1.18-5.23-1.89l-5-2c-1.92-.89-3.87-1.75-5.76-2.72-2.29-1.18-4.54-2.41-6.78-3.68-1.72-1-3.41-2-5-3.15-1.9-1.29-3.73-2.63-5.56-4l-3-2.51c-.92-.78-1.76-1.67-2.62-2.5s-1.44-1.5-2.14-2.27c-1.18-1.31-2.32-2.63-3.42-4a75.94,75.94,0,0,1-5.3-8.07h0s0,0,0,0Zm16.28,19.22.08.06-.08-.06ZM919.92,681.7l0-.06,0,.06Z"/><path class="cls-1" d="M684.59,439.14c-7.87.27-15.75.68-23.57,1.55-3,.33-5.91.7-8.85,1.1a164.47,164.47,0,0,0-24,4.84A108.57,108.57,0,0,0,616.21,451c-3.67,1.56-7.29,3.21-10.84,5s-7.1,3.63-10.48,5.72c-1.8,1.12-3.53,2.32-5.24,3.57-1,.75-2,1.56-3,2.35a20.5,20.5,0,0,0-2,1.8,54.33,54.33,0,0,0-3.88,4.28c-1.45,1.87-3,3.72-4.29,5.69-1.15,1.71-2.26,3.44-3.34,5.2s-2.12,3.7-3.12,5.58c-1.83,3.4-3.43,6.91-5,10.45a70.69,70.69,0,0,0-3.29,9.3,77.66,77.66,0,0,0-2.31,17.39,86.65,86.65,0,0,0,.71,15.16q.49,3.53,1,7.07c.53,3.9,1.18,7.79,1.89,11.66.11.61.25,1.23.38,1.84a0,0,0,0,0,0,0c-.22-4.33-.11-8.66,0-13a157.06,157.06,0,0,1,1-15.87c.55-3.85,1.36-7.66,2.26-11.45a81,81,0,0,1,3.64-11.42,151,151,0,0,1,8.7-16.59c1.53-2.59,3.11-5.15,4.7-7.71,1.42-2.28,3-4.45,4.6-6.6l1.53-1.84c.56-.67,1.19-1.29,1.79-1.92a34.28,34.28,0,0,1,3.41-3.06c1.74-1.28,3.5-2.5,5.33-3.65,2-1.26,4.12-2.34,6.2-3.45,4-2.15,8.11-4.12,12.27-6q4.2-1.74,8.48-3.27a95.3,95.3,0,0,1,9.51-2.77c6.42-1.57,12.92-2.73,19.46-3.69,7.53-1,15.07-1.58,22.65-2,7.89-.44,15.8-.44,23.7-.41,8.2,0,16.39.1,24.58.29,8,.18,16,.48,24,.78s16.23.38,24.3,1.1c8.32.74,16.62,1.56,24.93,2.32,6.11.56,12.22,1.2,18.31,2q11.48,1.64,22.81,4.13c3.9.86,7.8,1.73,11.68,2.66s8,1.87,12,3c3.73,1,7.44,2.08,11.13,3.24s7.2,2.64,10.73,4.11q5.89,2.55,11.76,5.16s0,0,0,0A246.68,246.68,0,0,0,876,465.16a227,227,0,0,0-22.34-8.29c-7.85-2.5-15.74-4.84-23.75-6.77-3.81-.92-7.64-1.72-11.52-2.37-4.3-.72-8.61-1.27-12.94-1.78-7.88-.94-15.8-1.6-23.69-2.48-4.12-.46-8.24-1-12.37-1.36-4-.35-7.93-.63-11.9-.88-16.39-1-32.8-1.89-49.21-2.15-4.18-.06-8.38-.12-12.57-.12-3.72,0-7.44,0-11.15.17Zm-28.77,11.75-.47.06.47-.06Zm231.3,21,0,0,0,0Zm-235.87-30,.92-.12.36,0-1.28.17Z"/><path class="cls-1" d="M550.5,558.6c1.54,2,3.06,3.95,4.72,5.8l2.58,2.88c.77.85,1.61,1.64,2.41,2.46a55.56,55.56,0,0,0,4.44,3.91c1.6,1.31,3.21,2.61,4.88,3.85,3.61,2.68,7.33,5.17,11.14,7.57,3.5,2.2,7.1,4.26,10.66,6.36s7.31,4.38,11.13,6.26A124.07,124.07,0,0,0,614.89,603c8.27,3,16.72,5.51,25.17,8,8.24,2.4,16.51,4.72,24.83,6.82,8.65,2.19,17.33,4.21,25.95,6.52,3.89,1,7.75,2.19,11.64,3.19,4.34,1.12,8.68,2.23,13,3.26,8.28,2,16.6,3.81,24.78,6.14,4.48,1.28,8.95,2.61,13.42,3.92,4.18,1.22,8.38,2.33,12.59,3.44,8.12,2.14,16.25,4.23,24.34,6.48,4.1,1.14,8.18,2.38,12.3,3.45,4.37,1.14,8.73,2.25,13.14,3.23,8.23,1.84,16.54,3.29,24.83,4.84,8,1.49,16,2.94,24,4.91,3.95,1,7.84,2.11,11.73,3.32,3.53,1.1,7,2.36,10.41,3.74,1.59.72,3.16,1.46,4.72,2.25a42.44,42.44,0,0,1,4.4,2.77c1.36,1.08,2.68,2.18,3.94,3.38,1.53,1.46,2.94,3,4.31,4.61.82,1.1,1.61,2.22,2.39,3.36,1,1.44,1.86,3,2.73,4.5q2.72,4.71,5.44,9.42c1.68,2.89,3.34,5.83,4.8,8.85s2.84,6.06,4.18,9.13c1.5,3.74,3,7.5,4.1,11.36a111.16,111.16,0,0,1,3.57,14.55c.19,1.69.31,3.39.35,5.09a44.68,44.68,0,0,1-.37,6.1l-.5,3.21c-.17,1.1-.45,2.19-.67,3.27-.44,2.13-1.12,4.23-1.75,6.32a121.69,121.69,0,0,1-4.22,11.68c-1.45,3.19-3,6.31-4.73,9.37a85.6,85.6,0,0,1-5.84,8.79,159.39,159.39,0,0,1-14.34,15.92,215.27,215.27,0,0,1-16.62,14.34c-3.46,2.65-7,5.2-10.59,7.61a83.66,83.66,0,0,1-11.53,6.05c-1.33.55-2.66,1.12-4,1.6-1.75.63-3.49,1.25-5.26,1.82q-5.31,1.71-10.69,3.21a188.72,188.72,0,0,1-21,4.53,240.29,240.29,0,0,1-24.66,1.38q-13.37.23-26.74.31-13.08.09-26.16.23c-4.07,0-8.14.11-12.2.07-2.19,0-4.38,0-6.57-.1-2.42-.08-4.82-.22-7.24-.39-1.71-.12-3.42-.35-5.13-.54q-12.29-1.73-24.43-4.29c-4.29-.91-8.56-1.88-12.79-3s-8.19-2.3-12.29-3.47c-7.12-2-14.25-4.07-21.33-6.25-6.43-2-12.7-4.42-18.91-7-7.58-3.36-15.12-6.83-22.55-10.53a143,143,0,0,1-22.15-13.22,62.26,62.26,0,0,1-10-10.08c-3.12-4.13-5.88-8.55-8.61-13-2.21-3.57-4.46-7.13-6.66-10.71-2.38-3.88-4.74-7.76-7-11.71A106.63,106.63,0,0,1,539,753.92h0v0l0-.05v0c-.75-1.83-1.47-3.67-2.12-5.53a0,0,0,1,0,0,0q.73,3.51,1.64,7c.52,2,1,4,1.63,5.89.69,2.1,1.37,4.18,2.16,6.25s1.74,4.36,2.66,6.53c1.65,3.91,3.46,7.74,5.29,11.57,1.75,3.67,3.55,7.34,5.5,10.91a89.61,89.61,0,0,0,6.13,9.95A60.07,60.07,0,0,0,567.5,813a58.78,58.78,0,0,0,7.32,6.09,124.81,124.81,0,0,0,10.75,6.82c3.73,2.17,7.62,4.09,11.48,6s7.87,3.71,11.83,5.51A224.78,224.78,0,0,0,633.16,847c8.66,2.76,17.42,5.13,26.19,7.52,8.3,2.26,16.58,4.56,25,6.45s16.91,3.62,25.44,5a130.67,130.67,0,0,0,13.68,1.42c4.14.24,8.3.35,12.44.4,8.66.12,17.31.22,26,.24q13.53,0,27.06-.07c4,0,8-.1,12-.27,4.36-.2,8.77-.34,13.11-.87,2.55-.31,5.08-.66,7.61-1.07,2.15-.35,4.29-.84,6.41-1.29,4.22-.89,8.38-2.06,12.54-3.2s8-2.35,11.93-3.64a116.51,116.51,0,0,0,12.59-4.79,77,77,0,0,0,11.41-6.2c3.9-2.68,7.64-5.55,11.33-8.53A231.81,231.81,0,0,0,906.62,821c2.86-2.88,5.52-6,8.11-9.08,2.84-3.41,5.71-6.86,8.22-10.54,1.25-1.83,2.47-3.68,3.62-5.58s2.11-3.7,3.1-5.59c.9-1.7,1.73-3.45,2.5-5.21.94-2.14,1.9-4.27,2.75-6.45s1.62-4.27,2.39-6.43,1.33-4.18,1.91-6.29a63.93,63.93,0,0,0,1.83-10,51.94,51.94,0,0,0-.94-14.77c-.79-4.37-1.9-8.68-3.11-13a125.94,125.94,0,0,0-4.25-12.09,122.88,122.88,0,0,0-5.69-12.39c-2-3.82-4.32-7.5-6.59-11.19a91.4,91.4,0,0,0-7.9-11.24,52.62,52.62,0,0,0-9.73-8.9c-.84-.6-1.66-1.2-2.54-1.73s-2-1.2-3.09-1.77c-1.89-1-3.89-1.85-5.87-2.69-4-1.7-8.14-3.19-12.32-4.5-8.36-2.64-16.84-4.8-25.4-6.65s-17-3.47-25.51-5.2-16.9-3.77-25.25-6.06-16.7-4.58-25.08-6.76-16.89-4.36-25.29-6.72c-3.92-1.1-7.84-2.21-11.79-3.21q-6.48-1.62-13-3.1c-8.41-1.92-16.83-3.82-25.2-5.93-4.37-1.11-8.75-2.22-13.14-3.28-4.09-1-8.19-1.9-12.29-2.83q-12.68-2.87-25.28-6c-7.94-2-15.92-3.89-23.82-6.06-4.21-1.16-8.38-2.39-12.55-3.67-3.94-1.21-7.79-2.7-11.61-4.24s-7.36-3.38-11-5.12c-3.49-1.66-7-3.29-10.44-5-3.75-1.91-7.45-3.88-11-6.06-1.65-1-3.27-2.05-4.87-3.14s-3.3-2.33-4.93-3.54l-2.77-2.35c-.9-.76-1.73-1.61-2.59-2.4-2-1.81-3.8-3.75-5.64-5.66h0a0,0,0,0,0,0,0ZM539,753.9v0l0-.07,0,.05Z"/><path class="cls-1" d="M773.27,443.67q-14.88.26-29.76.67c-10.37.29-20.71.85-31.05,1.61-10.17.75-20.32,1.77-30.46,2.8-5.55.56-11.08,1.26-16.6,2-2.67.37-5.32.81-8,1.24-1,.16-2,.38-3,.57-1.22.24-2.45.45-3.66.73-2.61.61-5.21,1.21-7.8,1.89s-5.12,1.39-7.68,2.11c-5,1.41-10,3-15,4.55-2.19.69-4.39,1.44-6.53,2.28l-4.22,1.67a62.22,62.22,0,0,0-8.8,4.39,63.27,63.27,0,0,0-12.68,10.3c-1.66,1.68-3.3,3.39-4.86,5.18-2.31,2.65-4.56,5.33-6.79,8a93.48,93.48,0,0,0-6,8.41,75.16,75.16,0,0,0-6.82,13.46,50.24,50.24,0,0,0-3,13.31,85.32,85.32,0,0,0,.2,15.25,0,0,0,0,0,0,0c.19-3.26.4-6.52.8-9.76a60.11,60.11,0,0,1,3.7-14.41,59.4,59.4,0,0,1,5.82-10.52l2.71-3.85,2.46-3.13c.81-1,1.73-2,2.6-3,1.76-2,3.61-3.89,5.44-5.82s4-4,6-5.92c2.57-2.49,5.21-4.93,8-7.16a65.79,65.79,0,0,1,6.1-4.11,62.5,62.5,0,0,1,6.93-3.46,125.21,125.21,0,0,1,13-4.39c4.38-1.25,8.77-2.46,13.18-3.57,4.75-1.19,9.5-2.31,14.28-3.33,4.36-.92,8.76-1.59,13.17-2.25,5-.63,10-1.2,15.08-1.68,5.24-.5,10.49-.86,15.73-1.22,9.81-.68,19.63-1.41,29.45-1.77,5.14-.19,10.29-.36,15.44-.37s10.53,0,15.79.05,10.27,0,15.41.07c4.86,0,9.72,0,14.57.2,2.26.1,4.53.16,6.78.37s4.35.43,6.53.68c2,.28,4,.56,6,.93,2.57.48,5.14,1,7.7,1.51,5,1,10,2.3,14.88,3.66,9.84,2.7,19.58,5.73,29.35,8.66,6.39,1.91,12.86,3.57,19.33,5.17A162,162,0,0,1,896,481.14l.57.24c1.31.63,2.61,1.25,3.85,2s2.66,1.7,4,2.62a71.54,71.54,0,0,1,7.5,6.93c2.49,2.65,4.66,5.63,6.89,8.5l-.06-.08a65.5,65.5,0,0,1,4.71,6.57,84.39,84.39,0,0,1,4.48,8.73,0,0,0,0,0,0,0,75.57,75.57,0,0,0-4.77-14.75c-1-2.2-2.1-4.39-3.18-6.58s-2.28-4.61-3.62-6.81a57.72,57.72,0,0,0-4.38-6.24,42.08,42.08,0,0,0-5.25-5.59,46,46,0,0,0-6.71-4.8,50.7,50.7,0,0,0-7.24-3.36c-9.32-3.63-19-6.24-28.61-9-4.94-1.44-9.86-3-14.81-4.38s-9.79-2.77-14.69-4.11a209.2,209.2,0,0,0-30.87-6.33c-4.78-.55-9.55-1-14.36-1.07q-2.81-.05-5.62,0c-3.51,0-7,.05-10.54.11ZM611.21,473.1l-.45.19.45-.19Zm-49.6,61.37v0Z"/></g></g></svg>