<svg xmlns="http://www.w3.org/2000/svg" viewBox="0 0 924.62 1256.19"><defs><style>.cls-1{fill:#353535;}</style></defs><title>pintrest-icon</title><g id="Layer_2" data-name="Layer 2"><g id="Draw_Layer" data-name="Draw Layer"><path class="cls-1" d="M497,5.25l-13.77.28L470.6,5.8c-1.55,0-3.11,0-4.66.15L441.76,8.11l-8.07.72c-2,.18-4,.58-6,.88l-25.37,3.91c-1.25.19-2.47.38-3.7.66L387.06,16.9,374,19.84l-4.31,1c-.5.11-1,.21-1.5.35l-22.07,6.35-8,2.31c-1.94.56-3.87,1.22-5.8,1.83l-23.7,7.52c-1.3.41-2.59.88-3.88,1.33L292,44.91l-11.16,3.88c-1.41.49-2.78,1-4.16,1.55l-23.12,9.51c-1.47.6-3,1.17-4.4,1.84l-9.49,4.42-12.2,5.69-4.39,2c-.59.27-1.19.53-1.77.82L201.51,84.92l-8.23,4.25C191.65,90,190.1,91,188.52,92l-21.36,12.81c-1.51.91-3,1.89-4.48,2.85q-5.55,3.58-11,7.31c-7.49,5.09-14.75,10.52-21.9,16.09-6.89,5.36-13.44,11.1-19.77,17.11a254.44,254.44,0,0,0-19.17,20.55A230.91,230.91,0,0,0,76.31,188a226.06,226.06,0,0,0-14.17,24.68,319.87,319.87,0,0,0-20.3,50.56A352.54,352.54,0,0,0,30,318.14a421.79,421.79,0,0,0-3.89,56.57c0,9.23.4,18.45,1.16,27.65.77,9.35,2,18.66,3.47,27.93q2.11,13.53,5.14,26.89c2.2,9.69,4.82,19.28,7.41,28.87,1,3.87,2.07,7.74,3.2,11.58l3.58,12.19,5.72,19.45c1.08,3.67,2.31,7.3,3.49,10.93q5.2,16,10.66,31.93c7.54,22,15.29,43.95,23,65.89,0,0,0,0,0,0-3.85-13.25-7.64-26.52-11.48-39.78-3.4-11.72-6.89-23.42-10.34-35.13q-3.09-10.49-6.23-21c-1.47-4.9-3.07-9.76-4.45-14.68L53.63,503l-2.49-8.84c-.48-1.71-.91-3.44-1.37-5.16-1.36-5.18-2.73-10.35-4.07-15.53-2.1-8.14-4-16.31-5.74-24.54-1.83-8.86-3.23-17.83-4.47-26.79-1.06-8.09-1.9-16.19-2.46-24.33-.59-8.46-.72-17-.65-25.44s.52-17.06,1.11-25.57S35,330,36,321.56a385.16,385.16,0,0,1,8.59-43.86,315.4,315.4,0,0,1,14.16-42q6-14.05,13.18-27.54c2.42-4.52,5-8.93,7.76-13.28,3-4.79,6.32-9.39,9.75-13.9l-.13.17a264.85,264.85,0,0,1,20.76-23.68A256.42,256.42,0,0,1,134.44,136q6.67-5.14,13.51-10c5.37-3.84,10.88-7.48,16.42-11.07,2.4-1.55,4.8-3.1,7.26-4.55l7.07-4.19L194.23,97c.82-.48,1.62-1,2.46-1.44L201.57,93l16.74-8.54c2.66-1.36,5.31-2.78,8-4l26.78-12.34,19.17-7.79,8-3.26c.34-.14.68-.25,1-.37L286,55.14l23-7.91c1.31-.45,2.64-.85,4-1.26L326,41.87c5.23-1.64,10.44-3.37,15.72-4.87L366,30.14c1.59-.45,3.17-1,4.78-1.34l9.38-2.07,22-4.86c1.27-.28,2.6-.39,3.89-.58l11.23-1.68,16.52-2.47,33-2.77c.86-.07,1.73-.07,2.6-.06h1.3l11.4-.18,18.6-.29c1.1,0,2.21.08,3.3.12l10.84.45,18.34.76c1.12,0,2.25.21,3.37.32l11,1.07,17.09,1.67q13.87,2.28,27.75,4.53l3.75.62c1.05.17,2.1.5,3.13.75l17.44,4.2,10.48,2.52c1,.25,2.08.67,3.1,1l8.48,2.73,16.44,5.29c2,.64,4,1.36,6,2.08q9.18,3.33,18.19,7.08c9.29,4,18.45,8.21,27.33,13a204.34,204.34,0,0,1,27,17.67,211.83,211.83,0,0,1,34.58,34.59q4.88,6.41,9.19,13.19c3.05,4.8,5.85,9.77,8.5,14.81,2.78,5.29,5.23,10.77,7.68,16.23,2.68,6,5.33,11.95,7.89,18q4,9.48,7.35,19.16c2.52,7.22,4.69,14.56,6.66,21.94a351.52,351.52,0,0,1,8.42,43.49q1,7.92,1.73,15.88c.54,6,.83,12.11,1,18.18s.22,12.11.18,18.17c0,1.48-.06,2.92-.13,4.39q-.83,16-1.66,32.05c-.09,1.73-.15,3.45-.32,5.18l-1.39,13.38q-1.4,13.51-2.8,27-3,20.54-5.93,41.08c-.14,1-.32,1.93-.5,2.89l-2,11-4.82,26.18c-.7,3.83-1.53,7.61-2.35,11.42L799.1,514.6c-.82,3.8-1.64,7.6-2.56,11.39l-6.19,25.65-2.23,9.22c-.25,1-.49,2.08-.77,3.1l-5.56,20.33-5.07,18.54c-.61,2.22-1.38,4.41-2.09,6.6-1.37,4.29-2.81,8.56-4.28,12.81q-4.33,12.57-9.46,24.84c-4,9.44-8.32,18.74-12.79,28-5,10.35-10.29,20.59-15.92,30.63C727,715,721.29,724,715.38,732.8c-6.17,9.23-12.68,18.25-19.44,27.06a406.26,406.26,0,0,1-28.19,32.62A322.31,322.31,0,0,1,633.65,823c-6.88,5.28-13.89,10.35-21.23,15A185.07,185.07,0,0,1,587.27,851c-5.4,2.22-10.87,4.22-16.46,5.94a118.51,118.51,0,0,1-18.18,3.94c-3.4.38-6.79.62-10.2.7a83.63,83.63,0,0,1-12.37-.8c-2.22-.35-4.42-.76-6.63-1.22s-4.25-1-6.35-1.65A122.82,122.82,0,0,1,503.5,853c-11.43-5-22.54-10.79-32.59-18.22a188.85,188.85,0,0,1-18.58-17.47c-6.28-6.56-12.1-13.57-17.7-20.72q-4.55-5.94-8.81-12.08c-3.49-5-6.69-10.28-9.88-15.52-2.35-3.87-4.58-7.79-6.82-11.73l-7.69-13.49c-1.17-2-2.17-4.18-3.21-6.29l-7.35-14.87c-1-2.07-2.09-4.12-3-6.25l-10.49-24.46-8.12-19.26c-.82-1.94-1.69-3.86-2.45-5.82L363.34,658l-3.91-10,1.65-6.41c.35-1.36.62-2.73.92-4.1q1.46-6.57,2.92-13.14L367.66,612c.36-1.62.76-3.24,1.06-4.87q2.2-11.74,4.38-23.47c.87-4.68,1.77-9.34,2.54-14q3.3-20.13,6.62-40.26,1.75-10.55,3.49-21.1c.36-2.2.9-4.39,1.34-6.57l2.9-14.23,1.86-9.14c.38-1.87.94-3.72,1.43-5.57l6-23c.49-1.87,1.07-3.73,1.61-5.59l4-14c.62-2.13,1.27-4.24,1.84-6.39l2.64-9.89,3.12-11.71c.52-2,.9-3.92,1.31-5.9l2.66-13,.81-4c.15-.73.22-1.49.32-2.22l1.67-12.39c.32-2.39.74-4.79.92-7.2q.45-6,.9-12c.18-2.45.41-4.9.49-7.36.23-6.56.55-13.11.56-19.67q0-6,0-12c0-.73-.05-1.47-.09-2.2q-.19-3.75-.38-7.49-.11-2.28-.23-4.56c-.17-3.43-.69-6.85-1.16-10.26-.31-2.21-.77-4.4-1.22-6.59a42.23,42.23,0,0,0-1.78-5.86,31.2,31.2,0,0,0-5.45-9.58,21,21,0,0,0-3.53-3.55l-1.61-1.15a24.28,24.28,0,0,0-2.61-1l-1.54-.27a10.85,10.85,0,0,0-2.85-.18l-1.34.18a12.8,12.8,0,0,0-3.57,1,29.38,29.38,0,0,0-8.58,5.2,119.42,119.42,0,0,0-9.7,9.3c-2.84,3-5.49,6.19-8.13,9.37s-4.95,6.21-7.31,9.41a178,178,0,0,0-14.86,24.49c-4.16,8.09-7.62,16.51-11.25,24.84-.81,1.86-1.53,3.75-2.24,5.65l-4.87,13c-1.8,4.8-3.3,9.71-4.75,14.63a264.76,264.76,0,0,0-6.45,28.3c-.54,3-.89,6.1-1.29,9.15l-1.82,14.07a312.3,312.3,0,0,0-2.28,41.78,261.23,261.23,0,0,0,1.54,26.19c.42,4,1,7.92,1.49,11.87.2,1.45.43,2.85.69,4.28q2.16,12,4.33,24c.27,1.47.61,2.93.93,4.39l3,13.66c1.16,5.22,2.29,10.44,3.57,15.63l5.66,22.91c.44,1.81,1,3.59,1.48,5.38l3.87,14,2.22,8c.13.49.31,1,.47,1.45l1.79,5.49,6.82,20.93c.22.66.51,1.31.76,2l1.9,4.91.24.62-4.68,17.84c-1.18,4.48-2.41,8.95-3.65,13.41l-6.49,23.4c-.34,1.22-.72,2.43-1.09,3.64l-3.81,12.48-3.8,12.45c-.54,1.78-1,3.58-1.64,5.34l-7.26,21.28c-4.34,12.71-8.54,25.47-12.76,38.22l-2.64,8c-.51,1.53-.92,3.09-1.38,4.64l-7.52,25.61c-3.63,12.34-7.18,24.7-10.76,37-1.42,4.89-2.92,9.74-4.39,14.61L274,908.61c-1.87,6.22-3.62,12.48-5.43,18.71l-3.41,11.74c-.42,1.44-.85,2.87-1.24,4.31l-6.41,23.8c-1.22,4.55-2.45,9.1-3.75,13.63l-7.13,25c-1.47,5.14-3.15,10.21-4.76,15.31q-6.09,19.33-12.34,38.61c-2,6.15-3.83,12.33-5.74,18.5-2,6.6-4.07,13.19-6,19.81-1.52,5.13-3.11,10.23-4.66,15.34q-1.94,6.4-3.81,12.82c-.58,2-1.1,4-1.74,6q-3.19,9.69-6.22,19.43c-1.1,3.52-2,7.09-3,10.64-1.16,4.26-2.08,8.56-2.81,12.91-.63,3.79-1,7.61-1.34,11.44-.19,2.21-.28,4.42-.38,6.63-.08,1.81,0,3.64.1,5.46a0,0,0,0,0,0,0q.24-1.78.47-3.57c.71-4.24,1.71-8.42,2.74-12.59s2.38-8.54,3.83-12.73,3.13-8.26,4.77-12.35c.79-2,1.55-3.9,2.36-5.84q2.41-5.8,4.77-11.62c.87-2.16,1.8-4.31,2.59-6.5q4.08-11.33,8-22.73c1.74-5.11,3.34-10.24,4.89-15.41,3.6-12,7-24,10.74-35.88q6.49-20.67,12.88-41.38l2.33-7.57c.65-2.11,1.19-4.27,1.78-6.4l6.8-24.39c1.46-5.25,2.78-10.54,4.16-15.82q1.7-6.49,3.4-13c.54-2.07,1-4.15,1.63-6.2l5.9-20.89c1.39-4.9,2.73-9.82,4.18-14.71,3.66-12.41,7.4-24.8,10.93-37.23,3.63-12.8,7.26-25.6,11-38.38l6.95-24c.32-1.09.66-2.17,1-3.25l3.76-11.52,6.91-21.2c1.89-5.79,3.88-11.55,5.82-17.33l4-11.85c.52-1.54,1.07-3.07,1.54-4.62l6.8-22.63c1.35-4.5,2.72-9,4-13.5l6.87-25.18c1.23-4.51,2.39-9,3.56-13.57l1.11-4.34,1,2.51c.77,2,1.49,4,2.32,6l3.6,8.63q8.36,20,16.86,40c.65,1.53,1.25,3.09,2,4.58l5,10.25,5.57,11.36,1.23,2.51c.34.7.77,1.37,1.15,2l11.61,20.5c1.55,2.75,3.25,5.42,4.89,8.12q3.59,5.89,7.44,11.62c5.14,7.66,10.84,15,16.71,22.08q7.9,9.57,16.72,18.31c2.86,2.84,5.76,5.64,8.77,8.32a102.73,102.73,0,0,0,10.53,8.07,162.69,162.69,0,0,0,22.15,12.32A145,145,0,0,0,519,867.18a86,86,0,0,0,12.3,2.25c2.27.25,4.53.45,6.81.59,2.13.13,4.26.09,6.39,0A89.39,89.39,0,0,0,556,869c2.05-.31,4.09-.66,6.13-1,3-.56,5.88-1.32,8.78-2.11a162.69,162.69,0,0,0,24.19-9,182.7,182.7,0,0,0,25.29-14.09c7.14-4.7,13.91-9.95,20.6-15.26,7.44-5.91,14.55-12.21,21.44-18.75,6.32-6,12.3-12.34,18.12-18.82,6.35-7.08,12.38-14.43,18.19-22a498.49,498.49,0,0,0,31-45.16c9.94-16.29,18.43-33.41,26.54-50.67q5.37-11.45,10.21-23.13c3.73-9,7-18.13,10.18-27.33,1.45-4.26,2.82-8.55,4.17-12.84.52-1.65,1.06-3.3,1.51-5l2.51-9.29,7-25.93c1-3.84,2-7.71,2.89-11.58l6.33-26.44c.9-3.74,1.78-7.47,2.58-11.22l5.63-26.14c.94-4.34,2-8.66,2.76-13q2.21-12,4.42-24l2.22-12.1c.32-1.75.71-3.5,1-5.26q3.05-21,6.07-41.94c.16-1.12.28-2.24.4-3.36q.6-5.66,1.2-11.32,1.36-12.88,2.72-25.75c.46-4.38.62-8.79.87-13.19q.73-12.77,1.45-25.55c.25-4.48.24-9,.25-13.47,0-9.87-.38-19.72-1.13-29.56-.66-8.68-1.74-17.32-3-25.94q-2.08-14.4-5.31-28.6c-2-8.92-4.57-17.73-7.38-26.43-3.05-9.44-6.76-18.65-10.61-27.79-3.35-7.95-6.7-15.9-10.33-23.72a197.93,197.93,0,0,0-13.59-24.32,178.35,178.35,0,0,0-15.22-19.82A210.1,210.1,0,0,0,746.3,78.31a197.19,197.19,0,0,0-19.91-15.2,210.53,210.53,0,0,0-25-14.35C693.73,45,685.88,41.58,678,38.35c-4.08-1.66-8.2-3.21-12.33-4.74-2.34-.87-4.67-1.75-7-2.51l-23.5-7.46-4.25-1.35c-.44-.14-.89-.32-1.34-.42l-8.33-2-22.44-5.29c-.34-.08-.69-.13-1-.18l-3.79-.6-13.8-2.19L568.66,9.84c-1.63-.26-3.24-.51-4.88-.66l-24.84-2.3-4.33-.4c-.45,0-.91-.11-1.36-.12l-8.37-.31-23.59-.86-1,0c-1.12,0-2.24.06-3.35.08Zm326.89,255.9.09.66q0-.33-.09-.66Zm-422.26,2.66.78.22.89.51.83.7a22.5,22.5,0,0,1,2.44,2.56l-.71-.92a23.58,23.58,0,0,1,2,2.87,28.69,28.69,0,0,1,2,3.92l.65,1.81q.67,2.11,1.17,4.26a84,84,0,0,1,1.57,8.56c.17,1.3.38,2.68.46,3.94.05.83.11,1.67.17,2.5q.25,3.84.51,7.69c.08,1.24.23,2.49.24,3.73q0,2.74.05,5.47,0,3.9.08,7.79c0,1,0,1.9,0,2.85l-.32,13.38c0,1.3-.06,2.61-.09,3.91s-.16,2.58-.24,3.86q-.45,7.06-.89,14.11c0,.7-.12,1.38-.2,2.07q-.39,3.18-.78,6.37l-1.4,11.43-4,20.81c-.35,1.84-.89,3.64-1.35,5.46L402,417.51c-1.41,5.52-3,11-4.51,16.48s-3.18,11.06-4.61,16.63l-6.24,24.24c-.33,1.29-.6,2.58-.87,3.88q-1.3,6.38-2.6,12.75l-2.46,12.05c-.3,1.49-.61,3-.86,4.47l-4.19,24.89q-3.2,19-6.44,38c-.21,1.27-.47,2.52-.71,3.79L366,587.66q-1.24,6.45-2.48,12.9c-.35,1.84-.66,3.71-1.07,5.54l-5.05,22.16c-.68,3-1.33,5.94-2,8.9l-6.72-20.4c-.51-1.55-1.07-3.09-1.51-4.67q-1.51-5.4-3-10.8l-3.46-12.42c-.45-1.62-.91-3.24-1.31-4.87l-5.93-24c-1.38-5.58-2.53-11.21-3.78-16.82L327,531c-.43-1.95-.76-3.91-1.11-5.88q-1.27-7.1-2.55-14.22c-.61-3.39-1.27-6.78-1.76-10.2-.75-5.61-1.39-11.23-1.88-16.87-.57-6.53-.78-13.08-.83-19.64a345.41,345.41,0,0,1,2-37.77l2.05-14.93q.5-3.66,1-7.33c.23-1.72.59-3.42.91-5.13.7-3.75,1.52-7.48,2.36-11.2,1.45-6.35,3.24-12.6,5.2-18.8,1.12-3.56,2.32-7.08,3.68-10.55l6.18-15.77,7.32-16c.5-1.1,1-2.15,1.57-3.24q3-6.08,6.42-12a175.29,175.29,0,0,1,12.87-19.27c3.4-4.29,7-8.44,10.61-12.51a126.56,126.56,0,0,1,12.53-12.22l-1,.8a26.75,26.75,0,0,1,3-2.1,30.62,30.62,0,0,1,3.33-1.85,12.78,12.78,0,0,1,1.82-.51,8.83,8.83,0,0,1,1,0Zm.16,0,.3,0,0,0-.34,0Zm.42,0,.64.1-.59-.08-.06,0Zm-2.19,0-.25,0,.25,0Zm-1.24.46-1.21.51a13.1,13.1,0,0,1,1.21-.51Zm-78,162.49-.08.6.08-.6ZM761.07,646.7l-.15.35.15-.35ZM634.34,822.43l-.6.46.6-.46ZM194.37,1195v0Z"/><path class="cls-1" d="M363.22,71l-19.94.11c-1.68,0-3.37.13-5,.19l-13.31.51-11.53.44c-1.41.05-2.82.08-4.23.2l-23,2-7.67.66c-1.94.17-3.89.53-5.81.8L248.95,79.3c-4.24.6-8.44,1.45-12.64,2.27-9,1.76-17.86,4-26.65,6.51a233.88,233.88,0,0,0-47.57,19.62,209.69,209.69,0,0,0-40.71,29.4c-12.2,11.18-22.67,24.17-31.9,37.85A230.49,230.49,0,0,0,66.21,219.3c-3.07,7.77-5.59,15.75-7.89,23.78-2.57,9-4.66,18-6.46,27.17a387.23,387.23,0,0,0-6.41,52.61c-2,35.74,1.09,71.55,6.36,106.9,1.28,8.58,2.75,17.13,4.29,25.67.77,4.27,1.58,8.53,2.39,12.79.68,3.57,1.29,7.19,2.09,10.73l3.15,13.75q5.49,24,11,48l1,4.53c.19.85.51,1.69.76,2.52l6.2,20q5.91,19.05,11.83,38.1c.4,1.29.91,2.55,1.37,3.82l3.75,10.44,9,25c4.12,11.46,8.35,22.87,12.59,34.28q2.92,7.86,5.9,15.7c2.43,6.43,4.81,12.89,7.35,19.28a.38.38,0,0,0,.73,0,.57.57,0,0,0,.06-.36,34.77,34.77,0,0,0-1.07-3.4q-.82-2.51-1.66-5-1.46-4.36-3-8.71-3.15-9.21-6.37-18.39s0,0,0,0L126,687.2l-2.26-6.84c-3.63-11-7.24-22-10.94-32.91L98.55,605.26c-1.08-3.2-1.91-6.5-2.86-9.75l-7.21-24.8q-3.87-13.29-7.73-26.58c-.14-.47-.21-1-.31-1.45l-1.11-5.25L75.5,519.28q-3.88-18.36-7.77-36.74c-.83-3.92-1.58-7.83-2.29-11.77-2.56-14.25-4.92-28.54-6.89-42.88l0,.13A631.37,631.37,0,0,1,53,361.55a424.81,424.81,0,0,1,3.48-66.06c3.64-26.37,9.77-52.55,19.91-77.22a236.32,236.32,0,0,1,29.11-49.59,219.32,219.32,0,0,1,16.75-19.12,200.73,200.73,0,0,1,19.39-17,218.51,218.51,0,0,1,45.55-26.3c5.6-2.33,11.27-4.45,17-6.36,6-2,12.08-3.69,18.18-5.3s12.35-2.92,18.57-4.15c3.16-.62,6.32-1.26,9.51-1.72l28.09-4L298,83c4.71-.4,9.42-.93,14.14-1.11l24.4-.9c4.12-.15,8.21-.25,12.33-.27,12.43,0,24.86-.17,37.28,0l24.38.38c4.32.07,8.64.29,13,.46l22.76.89c3.69.15,7.36.41,11,.66l23.82,1.61c3.51.24,7,.5,10.5.84l23.1,2.26c4,.39,7.94.68,11.88,1.21l35.87,4.78,37.76,7c1.29.24,2.57.65,3.84,1l12,3.1,20.64,5.34c1.1.28,2.16.71,3.24,1.07l11,3.75,21.25,7.2c.93.31,1.83.67,2.74,1l10.17,4,21.81,8.58.87.34c6.74,2.91,13.44,5.91,20.06,9.06C735.46,149,743,153,750.34,157.2s14.61,8.8,21.73,13.48q10,6.57,19.53,13.82a286.53,286.53,0,0,1,22.28,19.32A223.48,223.48,0,0,1,834,226.34a233.23,233.23,0,0,1,14.33,21.17,197,197,0,0,1,11.67,23,272.16,272.16,0,0,1,10.44,29.91,250.85,250.85,0,0,1,7,33.58,296.57,296.57,0,0,1,2,39.43,361.41,361.41,0,0,1-3.14,43c-1,7.09-2.14,14.15-3.54,21.17-1.62,8.15-3.63,16.21-5.8,24.22a388.44,388.44,0,0,1-16.41,47.91c-4.71,11-9.85,21.75-15.57,32.24-2.7,5-5.54,9.84-8.41,14.7-1.9,3.21-3.75,6.47-5.78,9.61L804.11,592,801,596.85c-.36.56-.7,1.15-1.1,1.69l-6.67,9.06-15.61,21.21-23.45,28.36c-.83,1-1.74,1.93-2.61,2.89l-7.44,8.21-14.62,16.13c-.72.8-1.51,1.54-2.29,2.29l-7.59,7.42-16,15.66c-.83.81-1.73,1.54-2.61,2.3l-8.44,7.28-14.41,12.43L657,747.66c-.77.58-1.51,1.21-2.32,1.73L651,751.8l-15.58,10.15c-2.38,1.55-4.71,3.22-7.17,4.64L615,774.23,603.28,781c-1.86,1.07-3.8,2-5.71,3-3.15,1.66-6.33,3.26-9.53,4.84-5.44,2.69-11,5.19-16.56,7.59a226,226,0,0,1-52.9,15.13c-5.2.59-10.39,1-15.62,1.07a125.55,125.55,0,0,1-16.91-.91,137.67,137.67,0,0,1-14.3-3,134.31,134.31,0,0,1-16.34-5.55,171.93,171.93,0,0,1-15.72-7.95,141.06,141.06,0,0,1-14.87-9.91c-7.47-5.93-14.59-12.23-21.46-18.85-4-3.84-7.9-7.75-11.67-11.81C388.2,751,384.93,747,381.77,743c-4.57-6-8.88-12.22-12.85-18.65-2.47-4-4.76-8.13-6.86-12.34l2.91-7.54,6.37-16.5c.61-1.57,1.11-3.19,1.67-4.78l4.2-12.06,7.13-20.45c1.54-4.43,2.92-8.92,4.37-13.38,3.73-11.46,7.47-22.91,11.1-34.4L407,580.24c1.34-4.23,2.38-8.56,3.53-12.85l5.86-21.88c.31-1.14.51-2.31.74-3.47l2.42-12.09L422,517.88c.35-1.72.78-3.45,1-5.18l3.09-21.45c.67-4.66,1.39-9.3,1.9-14l2.65-24.36c1.24-11.39,2.19-22.82,3.25-34.23s2-22.67,2.86-34c.49-6.59,1.1-13.18,1.47-19.78l1.18-21.11c.66-11.9,1-23.83,1.38-35.75.18-5.59.24-11.19.15-16.78-.07-4.44-.11-8.86-.52-13.29a86.74,86.74,0,0,0-1.9-12,29.1,29.1,0,0,0-1.95-5.56,16,16,0,0,0-5.45-6.18L428.23,253a30.23,30.23,0,0,0-4.78-.77l-1.67.17a10.32,10.32,0,0,0-4.7,1l-2.92,1.23a17.71,17.71,0,0,0-2.74,1.73c-1.81,1.27-3.51,2.69-5.19,4.12a42.22,42.22,0,0,0-4,4.14c-1.52,1.71-2.95,3.6-4.3,5.44a107.24,107.24,0,0,0-7.3,11.46c-1.87,3.36-3.47,6.88-5,10.39-1.79,4-3.47,8-5.1,12-2.09,5.19-4,10.46-5.9,15.72l-7.23,20.06c-2.24,6.21-4.33,12.48-6.5,18.71-1.62,4.68-3.14,9.37-4.64,14.09l-3.86,12.17c-.61,1.91-1.3,3.82-1.82,5.76l-5.71,21.18q-.84,3.12-1.68,6.24c-.62,2.32-1,4.71-1.53,7.06q-2.3,10.59-4.6,21.17c-.35,1.61-.6,3.25-.89,4.87q-1.22,6.71-2.44,13.41c-.88,4.8-1.78,9.59-2.5,14.42q-1.73,11.53-3.46,23.05c-.92,6.11-1.36,12.31-2,18.45-.51,5.05-1.11,10.09-1.38,15.17q-.61,11.55-1.22,23.11c-.29,5.51-.27,11-.39,16.56-.11,5.1-.27,10.2-.22,15.31q.1,11.35.21,22.71c0,1.53.16,3.06.26,4.59l.84,13.21q.27,4.25.54,8.51c.14,2.14.52,4.29.79,6.42,1,8.11,1.88,16.26,3.22,24.33s3.11,16.15,5.19,24.11c1,3.86,2.17,7.67,3.42,11.45,1.52,4.59,3.41,9,5.3,13.47q2.57,6,5.63,11.79c-7.91,21-15.68,42.08-23.52,63.12-1.45,3.9-3,7.77-4.34,11.69l-7.24,20.57-6.39,18.16c-.41,1.16-.72,2.36-1.07,3.54L302,859.48c-3.42,11.39-6.85,22.78-10.13,34.21-3.35,11.67-6.67,23.35-10.11,35-7,23.63-13.78,47.29-20.82,70.9l-6.92,23.2c-1.3,4.34-2.91,8.59-4.4,12.87l-7.3,20.84c-.43,1.21-1,2.39-1.44,3.58l-4.77,11.62-6.36,15.51q-6.3,13.76-12.52,27.57c-.92,2-1.9,4-2.92,6q-4.36,8.55-8.68,17.11c-9.15,18.14-18.39,36.23-27.24,54.51a0,0,0,0,0,0,0c7.56-13.56,15.22-27.07,22.76-40.65,5.93-10.67,11.69-21.44,17.45-32.2.54-1,1-2.07,1.5-3.11q2.58-5.5,5.13-11t5.2-11.27c.87-1.9,1.81-3.78,2.6-5.71l7.34-17.85,4.2-10.21c.49-1.2,1-2.39,1.42-3.61l7.81-22.11c1.42-4,2.87-8,4.11-12.08,3.56-11.73,7.15-23.44,10.67-35.18s6.94-23.34,10.5-35,7.18-23.35,10.68-35,6.91-23.47,10.55-35.15l7.29-23.4,3.08-9.88c.35-1.11.67-2.24,1.07-3.33l14.06-38.75c1.58-4.36,3.31-8.68,5-13l9-23.46q6.13-16.06,12.26-32.11a223.17,223.17,0,0,0,33.39,43.29q9,9.26,18.84,17.63A183.53,183.53,0,0,0,424,814a151.35,151.35,0,0,0,25.11,12.75,137.22,137.22,0,0,0,24.63,7.42c4.33.86,8.74,1.37,13.12,1.86a124.45,124.45,0,0,0,14.07.66,157.59,157.59,0,0,0,25.95-2.6,202.37,202.37,0,0,0,26.77-6.78c8.3-2.63,16.36-5.9,24.35-9.34,8.49-3.65,16.77-7.77,24.92-12.12,4.28-2.29,8.57-4.62,12.72-7.16l10.07-6.17,10.23-6.27c1.3-.8,2.63-1.57,3.89-2.43l19.15-13.2,5.81-4c2.09-1.44,4.05-3.17,6-4.75l18.75-14.89c3.64-2.89,7-6.14,10.45-9.26l15.91-14.38c1-.92,1.93-2,2.88-2.93l8.79-9,13.82-14.12c1-1.07,2-2.28,2.95-3.4l8.2-9.49,13.15-15.22c.86-1,1.65-2.08,2.46-3.11l7.66-9.72L789,639.54c3.27-4.14,6.18-8.58,9.21-12.89l13.55-19.24c2.35-3.33,4.4-6.88,6.55-10.35L831.39,576c6.21-10,12-20.35,17.39-30.81A400.78,400.78,0,0,0,870,496.1c2.93-8.16,5.5-16.45,7.91-24.78q3.76-13,6.67-26.14a376.18,376.18,0,0,0,7.39-52c.67-8.72.92-17.46,1-26.21,0-9.24-.34-18.47-1.22-27.66a261.13,261.13,0,0,0-10.14-50.77c-2.38-7.86-5.24-15.58-8.36-23.17A209.76,209.76,0,0,0,861.89,242a221.71,221.71,0,0,0-30.55-41.23c-11.43-12.36-24.56-23.18-38.18-33-6.8-4.92-13.84-9.51-21-14q-11.79-7.38-24.13-13.83c-7.5-3.95-15.2-7.48-23-10.89-4.85-2.13-9.71-4.29-14.66-6.16l-21.9-8.27-9.69-3.66c-1.08-.41-2.17-.83-3.27-1.18l-21.35-6.85-10.47-3.36c-1.29-.41-2.57-.9-3.88-1.22l-20.73-5-11.3-2.74c-1.51-.37-3-.83-4.56-1.1l-38-6.48c-1.92-.33-3.88-.49-5.81-.72l-12.3-1.48-21.43-2.58c-4.71-.57-9.48-.85-14.21-1.26l-23-2c-4.4-.38-8.83-.57-13.24-.83l-24-1.45c-4.26-.26-8.54-.33-12.81-.47l-23.94-.79c-4.46-.15-8.92-.14-13.38-.19l-22.72-.25-3.13,0c-4,0-8.06.07-12.08.09Zm63,204.54-.21.16.21-.16Zm-5.54,4.8.14-.15.13.39A51.26,51.26,0,0,1,422.4,286c.31,1.25.52,2.44.72,3.7l1,6.35q.41,4.52.83,9c.23,2.46.34,4.92.45,7.4q.23,5.37.47,10.75c.11,2.58.08,5.17.11,7.75.07,5.85.15,11.68.06,17.53s-.05,12-.31,17.92l-1,22.88c-.24,5.5-.64,11-1,16.49-.8,13-1.73,26.08-2.66,39.12-.81,11.37-1.94,22.72-2.94,34.07-.42,4.75-1.13,9.49-1.72,14.23l-2.17,17.56q-1.73,9.54-3.46,19.08-1,5.3-1.93,10.6c-.23,1.24-.47,2.46-.78,3.68l-5.83,23.14c-1,4-2,8.07-3.19,12-3.52,11.59-7,23.22-10.59,34.78l-7.34,23.31c-1.28,4.06-2.5,8.13-3.86,12.16l-7.41,21.88-3.63,10.71c-.48,1.41-.91,2.84-1.44,4.23l-6.62,17.51-.19-.44a208.38,208.38,0,0,1-7.8-24.17c-1.24-4.68-2.25-9.41-3.23-14.15-.38-1.84-.74-3.68-1-5.54q-1.54-10.22-3.09-20.44l-1.49-17.7q-.32-3.75-.63-7.5c-.15-1.74-.11-3.51-.16-5.25l-.57-21c0-1.26,0-2.53,0-3.79q.05-6,.11-12c0-4.6,0-9.21.19-13.8q.5-10.91,1-21.81c.06-1.37.07-2.77.2-4.14q.44-4.28.87-8.55.89-8.79,1.79-17.58l3-19,1.18-7.48c.34-2.17.85-4.32,1.28-6.48q2.16-10.89,4.32-21.79c.31-1.56.74-3.09,1.1-4.63l3.1-12.87c1.12-4.67,2.16-9.36,3.53-14l6.79-22.68c.36-1.2.75-2.38,1.17-3.57l4.13-11.63c1.77-5,3.46-10,5.39-14.91,2.88-7.37,5.67-14.79,8.66-22.12,3.58-8.8,7.14-17.62,10.81-26.38,5-11.67,10.42-23.22,17.92-33.5,1.3-1.59,2.65-3.12,4.06-4.63Zm-22.37,39.06-.4.95.4-.95Zm478.16,95.46-.11.8.11-.8ZM58.6,428.27l.07.55-.07-.55Z"/><path class="cls-1" d="M497.37,24.58l-21.29.16c-1.41,0-2.83.11-4.24.16l-12.66.49-11.89.46c-1.66.07-3.34.07-5,.2l-21,1.65c-4.67.37-9.37.59-14,1.18l-23.64,3L375.09,33c-6.77.86-13.5,2.08-20.22,3.3a410,410,0,0,0-51.28,12.87,416.16,416.16,0,0,0-48.7,19.29A349.13,349.13,0,0,0,210,93.67a445.13,445.13,0,0,0-41.25,31.24c-13.13,11.06-25.55,23-37.55,35.24a511.47,511.47,0,0,0-64.75,81.49,459,459,0,0,0-25.6,45.49,381.24,381.24,0,0,0-19.61,48.5c-11,33.47-16.91,68.54-19.68,103.61a477.72,477.72,0,0,0,2.25,98.31c2,15.84,4.93,31.54,8.38,47.13a384.23,384.23,0,0,0,13.88,49c2.55,7,5.56,13.79,8.65,20.54,2,4.44,4.1,8.89,6.37,13.22q5.12,9.74,10.31,19.44c2.47,4.63,5,9.23,7.5,13.84,2.66,4.89,5.3,9.82,8.23,14.56,0,0,0,0,0,0l-.81-1.79h0v0h0c-6.22-15.12-12-30.45-17.95-45.66-2.18-5.53-4.19-11.11-6.18-16.72-4-11.3-7.48-22.73-10.62-34.29a559.22,559.22,0,0,1-14.26-69.54,499.44,499.44,0,0,1,.44-129.92,458.82,458.82,0,0,1,10.09-51.17,366,366,0,0,1,16.52-48.95c14.07-32.89,33.15-63.51,54.85-91.88q9.83-12.62,20.4-24.63c7.67-8.72,15.74-17.08,24-25.25a579.73,579.73,0,0,1,51.33-45.31A400.11,400.11,0,0,1,233,104.35a349.66,349.66,0,0,1,41.11-20.63,395.75,395.75,0,0,1,49.89-17,459.11,459.11,0,0,1,51.59-10.29l17.68-2,11.56-1.31c1.47-.17,2.95-.39,4.43-.48L431,51.21c4.5-.29,9-.68,13.51-.81,12.1-.33,24.21-.87,36.31-.87h6.05c10.68,0,21.37,0,32,.21l14.88.32c2.33,0,4.67,0,7,.15l23.38,1.21,7.77.4c2.57.13,5.15.49,7.72.74l22,2.1q13.23,2.1,26.47,4.17c3.17.5,6.32,1.2,9.47,1.85,6.17,1.29,12.31,2.77,18.4,4.4A291.54,291.54,0,0,1,691.43,77c6.17,2.65,12.27,5.43,18.24,8.51l16,8.23a320.19,320.19,0,0,1,46.93,29.79c9.29,7.3,18.16,15.09,26.77,23.18A235.2,235.2,0,0,1,823.21,173a289.46,289.46,0,0,1,18.22,26.88,249.29,249.29,0,0,1,14.24,27.86c2,4.78,3.8,9.62,5.57,14.49.87,2.41,1.77,4.82,2.55,7.26l4.79,14.91,3.52,11c.3.93.5,1.9.75,2.85l2.06,7.85L879,301.82c.57,2.16,1,4.3,1.38,6.5q1.56,8.45,3.13,16.9c.74,4,1.49,8,2.07,12a398.89,398.89,0,0,1,3.23,40.89c.09,3.59.12,7.18.12,10.78,0,2.21.06,4.44-.05,6.64l-.34,6.4q-.54,10.13-1.07,20.27-.15,2.76-.29,5.52c-.12,2.21-.42,4.42-.65,6.62-.4,3.94-.88,7.87-1.39,11.8a452.56,452.56,0,0,1-9.21,47c-1.49,6-3.42,11.86-5.17,17.77l-5.48,18.53c-.64,2.17-1.4,4.31-2.12,6.45q-2,6.08-4.16,12.11c-2.67,7.54-5.58,15-8.67,22.36-4.45,10.4-9.22,20.64-14.54,30.62-2.65,5-5.47,9.85-8.32,14.71-2.16,3.69-4.28,7.43-6.59,11l-15.33,23.86-3.2,5c-.36.55-.69,1.14-1.07,1.67L795.57,665,780,686.37c-5.23,6.72-10.55,13.37-16,19.87-5.95,7-12.2,13.83-18.6,20.45a396.07,396.07,0,0,1-41.06,37,313,313,0,0,1-64.69,38.4,252.07,252.07,0,0,1-60.2,16.66,175.25,175.25,0,0,1-46.66-.18,213.29,213.29,0,0,1-27.59-6,246.61,246.61,0,0,1-25.9-9.08,225.2,225.2,0,0,1-20.35-10,186.45,186.45,0,0,1-20.95-13.77,241.43,241.43,0,0,1-40.8-40.34c-2.71-3.58-5.28-7.25-7.75-11-1.49-2.27-2.92-4.58-4.34-6.89-1.07-1.74-2.2-3.48-3.18-5.28l-5.45-10-6.27-11.5c-1.7-3.12-3.21-6.35-4.77-9.54q-3.39-6.94-6.43-14t-5.68-14.62c-1.26-3.45-2.58-6.92-3.62-10.46l-1.31-4.46.26-1.05c2.93-12,5.82-23.95,8.9-35.87q4.72-18.26,9.48-36.51l5.3-20.23c1.48-5.63,2.7-11.34,4-17,1.17-4.94,2.5-9.87,3.48-14.85l4.5-22.95c2.18-11.12,3.81-22.35,5.63-33.52,1.08-6.61,1.88-13.28,2.82-19.92q1.06-7.56,2-15.12,1.3-10.22,2.62-20.45c.87-6.82,1.54-13.68,2.31-20.51.56-5,1-10,1.5-15,.53-5.75,1.16-11.5,1.55-17.27q.7-10.24,1.39-20.47c.19-2.76.21-5.54.32-8.3q.19-5.19.39-10.38c.1-2.61-.05-5.26-.08-7.87,0-4-.07-8-.27-12.05a173.62,173.62,0,0,0-3.05-24.9,28.4,28.4,0,0,0-1.65-5.09,39.84,39.84,0,0,0-2.73-5.74l-1.91-2.47A7.41,7.41,0,0,0,393,252a22.31,22.31,0,0,0-3.82-2.75c-1.45-.71-2.92-1.35-4.42-1.93a19.79,19.79,0,0,0-6.26-1.2,53,53,0,0,0-6.94.79,29.27,29.27,0,0,0-6.65,2.42,36.67,36.67,0,0,0-4.87,2.55,57.4,57.4,0,0,0-5.61,4.32,46,46,0,0,0-4.08,4A81.69,81.69,0,0,0,341.3,272c-4.6,7.13-8,15-11.22,22.83a221.1,221.1,0,0,0-8.55,25.81c-4.77,17.46-7.41,35.45-9.25,53.42-1.1,10.74-1.72,21.52-2,32.3q-.31,12.11-.61,24.22c-.11,4.5,0,9,0,13.5q0,10.84.05,21.67c0,5.36.18,10.72.28,16.09q.11,6.11.21,12.21c0,1.9,0,3.81.11,5.7l1,20.06c.24,4.74.3,9.51.82,14.22q1.31,11.93,2.62,23.86.33,3,.66,6c.29,2.68.86,5.35,1.33,8l4.07,23c.21,1.2.5,2.37.78,3.55l2.9,12.09c1.21,5.06,2.28,10.17,3.73,15.17l6.49,22.4c.5,1.73,1,3.44,1.6,5.15l-2.21,9.47-4.45,19c-1.3,5.54-2.78,11-4.18,16.57-5.86,23.21-12,46.35-17.91,69.54-3,11.63-5.92,23.26-9,34.87l-6.23,23.72c-1,3.72-2.12,7.39-3.24,11.07-3.53,11.64-6.92,23.32-10.7,34.89s-7.7,23.34-11.37,35.06c-3.74,11.91-7.48,23.82-11.15,35.75-3.61,11.73-7.22,23.46-11,35.15-8,24.71-16.11,49.38-23.56,74.25-1.61,5.34-3.29,10.65-4.92,16q-2.12,7-4.2,13.94c-.61,2-1.15,4.12-1.82,6.15q-3.71,11.12-7.34,22.27c-1.3,4-2.54,8-3.78,12-1.38,4.47-2.61,9-3.59,13.55a72,72,0,0,0-1.12,9.8s0,0,0,0c.55-3.21,1.18-6.4,2-9.55a111.5,111.5,0,0,1,4-11.35c1.59-4.08,3.23-8.15,4.89-12.21q4.41-10.82,8.71-21.68c1.72-4.34,3.17-8.8,4.71-13.21q3.68-10.58,7.24-21.2c3.39-10.12,6.29-20.39,9.57-30.54q5.7-17.62,11.43-35.23c3.8-11.68,7.61-23.35,11.31-35.05q5.79-18.28,11.66-36.54,5.7-17.67,11.59-35.26c1.76-5.29,3.64-10.56,5.29-15.88l5.62-18.13,5.9-19.07c.37-1.21.67-2.45,1-3.67l3.12-11.59q4.67-17.34,9.26-34.71c3.05-11.63,6.09-23.27,9.24-34.88s6.31-23.2,9.36-34.83c3.11-11.81,6.28-23.6,9.2-35.45l1.93-7.83c2.19,5.75,4.55,11.44,7,17.07,1.63,3.71,3.37,7.37,5.11,11,1,2,1.89,4,2.92,6l5.07,9.64,5.4,10.26c2.53,4.81,5.36,9.46,8.22,14.08a216.9,216.9,0,0,0,32.72,40.22A224.6,224.6,0,0,0,448,808.21a196.36,196.36,0,0,0,21.13,11A254,254,0,0,0,494.3,829,206.22,206.22,0,0,0,518,835.37a215.52,215.52,0,0,0,27.91,3.73c17.49,1.26,35-.58,52.18-4.07a254.09,254.09,0,0,0,50.41-16.28c31.86-13.83,60.64-34.39,86.23-57.7a423.9,423.9,0,0,0,36.83-38.3c5.48-6.41,10.67-13.06,15.82-19.74,2.65-3.44,5.3-6.88,7.81-10.42l13.95-19.64c2.36-3.33,4.8-6.6,7-10.06l12.8-20.46,4.63-7.41c3.17-5.06,6.1-10.28,9.05-15.46a418.44,418.44,0,0,0,23-47.75c3.26-7.89,6.21-15.9,9-24,1.79-5.17,3.6-10.35,5.15-15.6l6.69-22.6,2.71-9.16c1.54-5.18,2.71-10.49,3.93-15.76a452,452,0,0,0,8.73-52.52c.78-7,1.08-14.07,1.54-21.11q.38-5.82.76-11.63c.23-3.52.36-7,.43-10.56a399.61,399.61,0,0,0-2.5-53c-.85-7.54-2.2-15-3.41-22.49l-1.8-11.11c-.22-1.36-.43-2.7-.74-4l-5.32-22.57c-.4-1.71-.73-3.48-1.22-5.17l-2.33-8-5.64-19.25c-1.2-4.09-2.65-8.12-4-12.16s-2.88-8-4.46-12c-3.3-8.27-7.09-16.34-11.2-24.24-8.09-15.56-18.09-30-28.92-43.79-10.64-13.51-23.18-25.49-36.07-36.82a340.53,340.53,0,0,0-41-30.74c-4.75-3-9.57-6.11-14.54-8.8l-9.56-5.18L721.38,64c-4-2.14-8-4.09-12.06-6a294.49,294.49,0,0,0-50.56-18.59c-4.06-1.08-8.16-2-12.26-3-3.41-.77-6.87-1.63-10.34-2.17l-8-1.26-21.54-3.38c-2.38-.37-4.73-.59-7.13-.81L587,27.63l-11.46-1c-1.42-.13-2.84-.29-4.27-.35-11.86-.51-23.73-1.23-35.61-1.39l-24.33-.32-3.56,0c-3.45,0-6.9.05-10.36.08ZM376.67,270.35a9.9,9.9,0,0,1,1.09.84l-1.09-.84Zm-.15.56q.46.17.89.38l-.89-.38Zm1.86,1a32.44,32.44,0,0,1,1.86,3.22,87.89,87.89,0,0,1,2.89,9.49,117.82,117.82,0,0,1,2.21,12.07q.36,4.36.71,8.71c.2,2.46.53,4.95.56,7.42q.07,5.42.13,10.84c0,2.5.15,5,.07,7.51q-.32,10.6-.65,21.21c0,1.63-.17,3.27-.27,4.9q-.39,6.71-.79,13.4c-.29,5-.65,9.95-1,14.92-.5,6.26-.92,12.54-1.5,18.8-1.14,12.2-2.25,24.4-3.57,36.58-.72,6.68-1.36,13.38-2.24,20l-3.14,23.79-3.29,19.51c-.76,4.5-1.47,9-2.42,13.47l-5,23.72c-.9,4.23-1.94,8.42-3,12.63-5.63,23.26-11.35,46.5-16.77,69.81l-1.08-3.69c-.19-.65-.33-1.33-.48-2l-1.75-7.43-3.68-15.65c-.52-2.21-.94-4.37-1.31-6.61l-4.21-25.48q-.85-9.37-1.69-18.73c-.43-4.68-1-9.37-1.14-14.07q-.29-12-.6-23.93c-.1-4.1-.15-8.16-.09-12.26.16-12.41.25-24.81.66-37.21q.38-11.51.76-23c.16-5,.6-9.93.91-14.89l1.09-17.12c.51-8,1.47-16.06,2.51-24a341,341,0,0,1,7.06-36.55A257.75,257.75,0,0,1,351.52,307a132.19,132.19,0,0,1,13.37-24.18,65.28,65.28,0,0,1,7.79-8.09,44.29,44.29,0,0,1,4.1-2.4c.53-.18,1.06-.34,1.6-.48ZM373.52,485.5l-.11.84.11-.84Zm476.64,85.32-.43,1,.43-1ZM703.71,764.11l-.92.71.92-.71ZM66.3,713.48h0v0Z"/><path class="cls-1" d="M543.42.31,517.94,1c-1.92.05-3.87,0-5.79.17L501,2.09,469.5,4.78c-1.91.16-3.81.45-5.71.71L449,7.48,422.9,11l.7-.09c-5.39.71-10.73,1.9-16.08,2.9l-24.76,4.6c-3.29.61-6.51,1.31-9.76,2.09l-24.93,6-10,2.4c-1.17.28-2.37.52-3.52.86l-18.88,5.54L293.81,41.7c-3.87,1.13-7.66,2.52-11.46,3.84Q269.57,50,257,55.17a499.9,499.9,0,0,0-46.45,22A432.63,432.63,0,0,0,167,103.75a365.63,365.63,0,0,0-75.13,69.92,323.8,323.8,0,0,0-51,88.92c-12.58,32.79-18.36,67.76-21.1,102.63-1.2,15.32-1.7,30.67-1.65,46s.66,30.66,1.94,45.92a350.66,350.66,0,0,0,19.22,89.06c10,27.89,23.79,54.53,41.92,78a172.07,172.07,0,0,0,12.42,14.42c4.15,4.3,8.67,8.18,13.17,12.1,4.11,3.59,8.21,7.22,12.61,10.45,0,0,0,0,0,0-2.57-2.7-5-5.55-7.42-8.38q-2.16-2.51-4.33-5c-1.82-2.09-3.66-4.15-5.48-6.23-2.21-2.52-4.28-5.15-6.34-7.78-8.72-11.39-16.11-23.7-23-36.27-6.78-12.39-13.15-25-18.69-38a337.36,337.36,0,0,1-13.86-40.05,350.15,350.15,0,0,1-8.78-43.75c-2.9-22.07-3.58-44.41-3.5-66.65a551.13,551.13,0,0,1,4.61-69.23A387.57,387.57,0,0,1,41,297.11a301.65,301.65,0,0,1,13.72-40.87A338.4,338.4,0,0,1,72.91,219.9a319.18,319.18,0,0,1,22.9-34.09,355.4,355.4,0,0,1,62.72-62.54q10-7.72,20.56-14.79c7.93-5.35,16.14-10.26,24.44-15a501.93,501.93,0,0,1,51.22-25.4q11.27-4.7,22.76-8.84c3.91-1.42,7.85-2.77,11.8-4.11,2.15-.73,4.29-1.5,6.47-2.12l19.76-5.6,21.25-6c3.79-1.07,7.69-1.82,11.52-2.69l25.56-5.81c3.43-.78,6.83-1.6,10.29-2.19l40.56-6.88,39.71-4.58c3.31-.39,6.6-.62,9.93-.83L500,16.77l9.77-.62c1.09-.07,2.18-.17,3.27-.17l20.75,0,20.75,0c.94,0,1.88.07,2.82.11l10.63.54L590.7,17.7c3.12.16,6.2.3,9.31.63l36.47,3.89c7.12,1,14.23,2.17,21.32,3.47,8.26,1.51,16.45,3.37,24.6,5.39a331.07,331.07,0,0,1,46.49,15.26q12.26,5.27,24,11.6a193.38,193.38,0,0,1,24.35,15.73,228.32,228.32,0,0,1,38.36,37.81A278.63,278.63,0,0,1,833.45,138,249,249,0,0,1,848,166.86,242,242,0,0,1,858.29,198a297.88,297.88,0,0,1,6.59,34,382.36,382.36,0,0,1,2.86,40.45c.29,13.85-.38,27.69-1.21,41.51-.25,4.1-.67,8.18-1,12.26q-.91,10.12-1.82,20.25-.5,5.53-1,11.06c-.32,3.55-.83,7.09-1.24,10.63q-1.81,15.44-3.62,30.89-2.88,19.68-5.82,39.36c-.51,3.41-1.2,6.79-1.86,10.18L845.18,474c-.77,4-1.39,8-2.37,11.93l-5.15,20.78-5.16,20.78c-1,4.11-2.35,8.17-3.54,12.23l-7,24c-.91,3.11-1.82,6.19-2.87,9.25q-6.34,18.47-12.68,36.94-7.91,18.29-15.84,36.58c-.64,1.49-1.38,2.94-2.08,4.4q-3.24,6.76-6.65,13.44Q775,677.6,767.4,690.44a463.32,463.32,0,0,1-31,45.66,408.66,408.66,0,0,1-31.61,35.79,369.49,369.49,0,0,1-34.31,30.75,254.63,254.63,0,0,1-53.23,31.84,194.25,194.25,0,0,1-19,6.71,147.73,147.73,0,0,1-19.58,4.2,152.33,152.33,0,0,1-17.52,1.12,138.73,138.73,0,0,1-17.93-1.18,146.76,146.76,0,0,1-33.2-9.14,162.39,162.39,0,0,1-32.29-18.94A205,205,0,0,1,444,783.53a241.5,241.5,0,0,1-20-31.55c-6.39-11.93-12.2-24.23-17.52-36.67-3.07-7.38-5.88-14.86-8.52-22.41-1.76-5-3.53-10.1-4.91-15.25l-6.09-22.8c-1.08-4-2.19-8-3.1-12.12l-5.43-24.27q-.94-4.22-1.81-8.46l4.16-12.74c1.7-5.2,3.26-10.45,4.89-15.67l6.76-21.69c3.74-12,7.52-24,11.29-35.93,1.18-3.75,2.25-7.52,3.34-11.3l6.95-24c1.11-3.85,2-7.72,2.89-11.63l5.54-24c1-4.22,1.62-8.51,2.36-12.78l3.83-22.16c.26-1.5.43-3,.62-4.53l1.54-12.24q.75-6,1.5-12c.19-1.54.41-3.07.54-4.61L434.68,362a323.88,323.88,0,0,0,.87-38.48,230.06,230.06,0,0,0-2.28-25.06,180.81,180.81,0,0,0-5.65-26.06,109.24,109.24,0,0,0-4.06-10.92,92.82,92.82,0,0,0-5.27-10.76,84.26,84.26,0,0,0-6.85-9.61c-1-1.3-2.09-2.54-3.2-3.76a35.83,35.83,0,0,0-6-5.41c-3.93-2.71-8.59-3.63-13.29-3.74a19.54,19.54,0,0,0-7.1,1.55,36.38,36.38,0,0,0-16.09,11.66,77.11,77.11,0,0,0-8.55,12.4,118.66,118.66,0,0,0-5.69,12.63c-1.58,3.83-2.9,7.76-4.11,11.72a195.54,195.54,0,0,0-5.85,26.62A424.11,424.11,0,0,0,337,358.06c-.2,6.69-.12,13.4-.15,20.1,0,5.68-.21,11.39-.08,17.07q.25,10.45.49,20.89c.12,5,.09,10.09.38,15.13l1.28,22.17c.27,4.7.41,9.42.85,14.11q1.06,11.49,2.13,23c.43,4.68.75,9.39,1.34,14.05l2.83,22.52q.67,5.34,1.34,10.68c.24,1.91.44,3.84.76,5.74l3.55,21.26L353.63,576c.23,1.4.43,2.81.72,4.2l4.4,21.27c1,4.91,1.92,9.85,3.07,14.73l1.94,8.26-2.47,7.7c-3.63,11.33-7.34,22.63-11,33.94-1.34,4.11-2.74,8.21-4,12.34L340.33,698c-6.84,22.51-13.83,45-20.65,67.49l-12.54,41.39c-1.21,4-2.23,8-3.33,12L297,843.72q-4.69,17-9.35,34c-1.19,4.34-2.32,8.69-3.59,13L278,911.23c-6.85,23.26-13.82,46.49-21.14,69.61l-5.6,17.69c-.59,1.85-1.38,3.66-2.06,5.47l-4.8,12.73c-1.31,3.47-2.61,6.94-3.88,10.42-.46,1.24-.9,2.49-1.41,3.71q-4.53,10.83-8.77,21.77-6.78,17.42-13,35.06c-3.78,10.83-7.23,21.78-10.54,32.77-.62,2-1.22,4.08-1.82,6.12,0,0,0,0,0,0,12.09-22.08,23.76-44.48,34.06-67.46q5.14-11.46,10-23.05c1.7-4.07,3.13-8.22,4.56-12.4q3.72-10.83,7.42-21.68c.36-1,.65-2.1,1-3.16l3.22-11.14c6.75-23.31,13.31-46.67,19.89-70,3.19-11.33,6.41-22.64,9.44-34,3.11-11.68,6.2-23.38,9.35-35.05L310.24,825c1.37-5.08,2.61-10.22,4.12-15.26q6-20.06,12-40.11c6.53-21.83,13.26-43.6,19.89-65.4,3.3-10.84,6.53-21.68,10.07-32.44q5.4-16.42,10.8-32.83c1,4.2,1.87,8.42,3,12.58l6.22,22.77,2.25,8.23c.43,1.56.94,3.09,1.43,4.63,1.47,4.6,3,9.17,4.65,13.72A473.32,473.32,0,0,0,405,748.42c7.41,15.34,15.74,30.18,25.93,43.86a208.27,208.27,0,0,0,34.72,36.32,173.3,173.3,0,0,0,20.27,14.28,159,159,0,0,0,24,11.61c16.24,6.45,33.88,9.35,51.31,9.57a146.22,146.22,0,0,0,25.48-2.28,148.6,148.6,0,0,0,26.29-7.09,224.14,224.14,0,0,0,45.53-23.12c6.83-4.43,13.35-9.31,19.79-14.29,7-5.38,13.62-11.13,20.09-17.08a412.62,412.62,0,0,0,35.9-37.74,436.36,436.36,0,0,0,30.67-41.61,470.82,470.82,0,0,0,26.48-46c4.64-9.17,9-18.47,13-27.95l9.88-23.49,3.53-8.41c.39-.94.75-1.85,1.08-2.81l7-21.08,6-18c.37-1.12.66-2.28,1-3.41l3.18-11.12,6.81-23.82c1-3.33,1.77-6.68,2.58-10q3.09-12.66,6.17-25.32c1-4,2.12-8,2.9-12.07q4-21,8-42c.74-3.86,1.2-7.78,1.77-11.66l3.76-25.48c1.71-11.63,3-23.31,4.45-35,.64-5.25,1.4-10.5,1.91-15.76q.89-9.22,1.79-18.44l2.13-22c.52-5.4.78-10.82,1.1-16.23q.84-14.19.81-28.4a384.58,384.58,0,0,0-3.83-53.1,270.54,270.54,0,0,0-12.25-51.49c-2.72-7.79-6-15.41-9.41-22.91A253,253,0,0,0,842,120.79a231.61,231.61,0,0,0-30.83-41,227.13,227.13,0,0,0-17.36-16.34,199.81,199.81,0,0,0-21-15.76c-14.33-9.31-30-16.49-45.88-22.65a325.84,325.84,0,0,0-49.59-14.33C669,8.9,660.57,7.57,652.14,6.35c-5.45-.78-10.94-1.63-16.43-2.09L612.64,2.35l-11.3-.94c-1.48-.12-3-.33-4.46-.36L556,0l-1.94,0c-3.56,0-7.14.21-10.69.31ZM389,254.89a11.45,11.45,0,0,1,1.44.19l-1.44-.19Zm2.73.79c1.18.68,2.33,1.41,3.47,2.2a51.19,51.19,0,0,1,6.3,6.35c1.56,2.16,3,4.37,4.38,6.66a77.38,77.38,0,0,1,4.49,9.1,160.27,160.27,0,0,1,9.47,36.56q1.52,11.81,2,23.7c.15,4.1.17,8.21.17,12.31,0,2.21,0,4.44-.07,6.65l-1,22.42c-.22,4.77-.71,9.49-1.17,14.24q-.94,9.85-1.89,19.7-1.31,8.84-2.61,17.69l-1.65,11.16c-.2,1.34-.36,2.68-.63,4l-4.62,22.05c-.94,4.47-1.7,9-2.89,13.41l-6.08,22.5c-1.2,4.43-2.3,8.89-3.61,13.29q-5.5,18.45-11,36.89L373.48,594c-.76-4.1-1.52-8.21-2.29-12.3L370,575.53c-.34-1.78-.52-3.61-.77-5.41l-3.61-25.38L365,540.4q-1.77-18.4-3.53-36.8c-.15-1.54-.19-3.09-.28-4.64l-.76-12.83q-.58-9.8-1.17-19.6c-.09-1.55-.06-3.11-.09-4.66q-.11-6.39-.23-12.79l-.34-18.51c0-1.85.07-3.71.11-5.55L359,411.7c.11-5.6.07-11.23.34-16.83q.61-12.66,1.22-25.32.22-4.66.45-9.33c.2-4.23.66-8.46,1-12.68q.69-7.78,1.68-15.52c1.24-8.82,2.69-17.61,4.66-26.3,1.08-4.79,2.35-9.53,3.72-14.24,1.44-5,3.21-9.79,5.14-14.57,1.06-2.41,2.18-4.78,3.4-7.11a75.07,75.07,0,0,1,5.53-8.83c.67-.81,1.36-1.59,2.07-2.37a24.15,24.15,0,0,1,2.24-2.1c.43-.28.86-.55,1.3-.81ZM31.55,476l.09.69-.09-.69ZM95.85,633.83l.3.39-.3-.39Zm326-622.67,1-.14-1,.14Z"/><path class="cls-1" d="M406.85,35l-13.36.52-10.35.4c-5.37.21-10.74.83-16.08,1.41a382,382,0,0,0-52.13,9.19,395.71,395.71,0,0,0-49.25,16.24,477.89,477.89,0,0,0-48.31,22.18,433.15,433.15,0,0,0-43.72,26.82,335,335,0,0,0-40.21,32.92,340.82,340.82,0,0,0-34.13,38.17A276.59,276.59,0,0,0,72.19,225.7c-3.67,7.18-6.87,14.6-9.93,22.06C58.88,256,55.87,264.38,53,272.82A420.6,420.6,0,0,0,39.6,324a474.5,474.5,0,0,0-7.36,53.12,407.3,407.3,0,0,0-1.09,53.57A426.45,426.45,0,0,0,37,483c1.47,8.56,3.42,17,5.49,25.46,1,4.23,2.15,8.43,3.27,12.64q.84,3.16,1.7,6.3c.57,2.1,1.08,4.24,1.74,6.32,3.86,12.37,7.68,24.75,11.65,37.09,3.12,9.7,6.55,19.28,10,28.86q5.83,16.16,11.83,32.26c4,10.92,8.06,21.85,12.25,32.72,0,0,0,0,0,0-3.65-12.16-7-24.41-10.44-36.62s-7-24.7-10.64-37c-1.28-4.37-2.66-8.72-3.87-13.11q-2.57-9.36-5.26-18.69-3.41-11.76-6.82-23.52c-.39-1.36-.79-2.72-1.18-4.07-.6-2.08-1.06-4.22-1.58-6.32s-1-4.23-1.56-6.34q-1.81-7.4-3.46-14.84-3.25-14.61-5.3-29.44a427.71,427.71,0,0,1-3.75-56.7,440.9,440.9,0,0,1,4.23-56.85,469.73,469.73,0,0,1,11.53-56.62,410.9,410.9,0,0,1,17.83-51.88A274.45,274.45,0,0,1,90,222a285.34,285.34,0,0,1,19.12-28.26,324.74,324.74,0,0,1,55.35-55.1,402.62,402.62,0,0,1,43.82-28.76A452.49,452.49,0,0,1,255.8,86.48a489.15,489.15,0,0,1,50.24-18,365.67,365.67,0,0,1,52.69-11.11c9-1.17,18-2.14,27.1-2.5L407.67,54c1.47-.06,3-.2,4.43-.17l6.29.13,21.77.46c4.14.09,8.28.51,12.41.8L471.1,56.5c1.24.09,2.48.27,3.72.42l10.4,1.19L500.9,59.9c6.08,1,12.16,2,18.24,2.95,4.58.74,9.17,1.41,13.71,2.33L556.47,70c4.36.89,8.7,1.91,13,2.92q19.05,4.41,38.07,8.9c12.61,3,25.25,5.84,37.9,8.69,17.7,4,35.47,7.64,53.21,11.48,3,.66,6.1,1.26,9.12,2l16.81,4.13c5.47,1.34,10.91,2.68,16.32,4.25a348.85,348.85,0,0,1,36.25,12.7,318.83,318.83,0,0,1,29.64,14.4,227.14,227.14,0,0,1,26.4,17.21,224.7,224.7,0,0,1,18.27,16.19,211.29,211.29,0,0,1,17.31,19.54,173.83,173.83,0,0,1,20.18,34,195.05,195.05,0,0,1,7.84,24.16,228.18,228.18,0,0,1,4.8,25.23q1.53,12.28,2.09,24.65c.19,4.22.25,8.45.28,12.68,0,3,.08,6-.05,8.93q-.49,11.15-1,22.29c-.08,1.83-.07,3.7-.24,5.53q-.4,4.06-.8,8.12-1,10-2,20-2.22,14.39-4.44,28.78c-.54,3.52-1.37,7-2.08,10.51s-1.5,7-2.3,10.47c-1.78,7.72-3.92,15.35-6.25,22.92-1.07,3.47-2.21,6.92-3.36,10.36-.94,2.8-1.82,5.65-2.89,8.41l-2.3,5.92c-3.72,9.59-7.34,19.22-11.2,28.74l-12.76,31.47q-7.22,16.6-14.46,33.2c-.6,1.38-1.3,2.73-1.95,4.1l-5.45,11.42-8.73,18.32c-2.36,4.94-4.92,9.8-7.38,14.69l-9.22,18.34c-.6,1.21-1.34,2.36-2,3.53L797,649.93l-9.75,17c-.79,1.39-1.7,2.72-2.54,4.08l-6.93,11.08-6.93,11.09c-.87,1.39-1.69,2.84-2.62,4.18l-11.91,17-6.73,9.59c-2.1,3-4.32,5.9-6.55,8.79-4.53,5.82-9.17,11.54-14,17.13s-10.13,11.21-15.41,16.61a356,356,0,0,1-34.24,31.17c-17.12,13.07-35.37,24.83-55.12,33.51a153.31,153.31,0,0,1-34.37,9.61,164.57,164.57,0,0,1-40.89-.23A156.64,156.64,0,0,1,513.17,831a155.07,155.07,0,0,1-14.86-7.56,136.14,136.14,0,0,1-13.74-9.29,198.32,198.32,0,0,1-17.11-15.29,218,218,0,0,1-16.94-19.41,319.63,319.63,0,0,1-27-42.29c-3.9-7.24-7.94-14.42-11.56-21.8l-7.16-14.59c-1.23-2.5-2.56-5-3.64-7.53l-9.59-22.67c-4-10.71-8-21.4-11.75-32.19l-5.23-15.1,4.17-16.37c.85-3.35,1.63-6.66,2.33-10q2.55-12.42,5.1-24.85c.83-4,1.77-8.08,2.44-12.15l3.71-22.65c.91-5.51,1.94-11,2.68-16.56q2.55-19,5.1-38.08c.2-1.53.32-3.08.47-4.62l1.31-12.77q1-9.75,2-19.51c.17-1.65.23-3.31.35-5q.46-6.61.92-13.21l.82-11.78c.11-1.53.25-3.05.3-4.58q.34-11.28.67-22.57.12-3.93.24-7.85c.06-1.94-.05-3.89-.08-5.83L406.75,353c0-1.78-.21-3.56-.33-5.33q-.43-6.68-.84-13.36c-.13-2-.17-4.09-.39-6.11q-.56-5.08-1.12-10.17t-1.1-10A229.5,229.5,0,0,0,398.88,285c-.82-3.8-1.9-7.52-3-11.25A90.61,90.61,0,0,0,392,263a55,55,0,0,0-5-9.05c-1.15-1.72-2.51-3.32-3.82-4.91a28.71,28.71,0,0,0-6-5.51l-1.36-.91q-2.17-1-4.4-1.8c-2-.77-4.29-.76-6.41-1h-1.45a31.89,31.89,0,0,0-5.31.87l-1.78.63q-2.51,1-4.95,2.16a29.37,29.37,0,0,0-6,4.11,43.59,43.59,0,0,0-4.16,4L340.12,253l-3.34,4.32c-1.53,2.11-2.95,4.24-4.27,6.49a90.87,90.87,0,0,0-5.09,10.63c-1.81,4.27-3.48,8.55-4.93,13a174.51,174.51,0,0,0-6.11,26.08c-1.45,8.8-2.45,17.67-3.09,26.57-.37,5.21-.66,10.43-.67,15.65q0,11.69-.06,23.37c0,1.28.06,2.54.13,3.82q.33,6.26.66,12.52c.27,5.19.39,10.42.9,15.59q1.15,11.81,2.3,23.62c.44,4.54,1,9.05,1.62,13.58q1.37,10.44,2.72,20.87c.9,6.87,2.05,13.72,3.11,20.56.75,4.85,1.44,9.71,2.28,14.54L330.42,528c.78,4.49,1.67,9,2.55,13.43l4,20.2c.35,1.77.85,3.52,1.27,5.26l3.2,13.22c1.09,4.51,2.06,9.06,3.44,13.5L352,616.85c2.79,9,5.89,17.84,9,26.72l-5.74,20.7q-9.15,33-17.83,66.08c-3.24,12.28-6.37,24.58-9.72,36.82l-11.22,41c-3.36,12.29-6.45,24.67-9.67,37-3,11.35-5.62,22.78-8.38,34.18-2.7,11.18-5.51,22.32-8.33,33.47l-4.73,18.7c-.31,1.23-.7,2.45-1,3.68L281,946.87l-6.18,21.68c-1.28,4.49-2.73,8.94-4.1,13.41l-6.75,22c-1.39,4.53-3,9-4.46,13.5l-6.77,20.38c-.4,1.19-.91,2.35-1.37,3.51l-4.57,11.56q-2.26,5.71-4.41,11.47c-.67,1.79-1.28,3.61-2,5.38q-3.95,9.57-7.69,19.22c-4.35,11.18-8.23,22.51-12,33.9-1.45,4.38-2.61,8.85-3.81,13.3q-1.61,5.91-3.15,11.84c-1,3.69-1.79,7.39-2.58,11.11,0,0,0,0,0,0,3.1-7.16,6.45-14.19,9.71-21.28,2-4.39,4-8.8,6.08-13.13,5.63-11.49,11.05-23.1,16.44-34.71q2.59-5.6,5.11-11.23c.92-2,1.88-4.07,2.71-6.16q3.71-9.36,7.2-18.8l3.78-10.21c.44-1.18.88-2.35,1.25-3.55l6.73-21.86c1.28-4.16,2.61-8.3,3.8-12.49l6.64-23.18c3.36-11.74,6.51-23.53,9.68-35.33,1.23-4.57,2.57-9.13,3.67-13.74q2.45-10.23,4.91-20.46,4-16.73,7.92-33.47c2.62-11.3,5.17-22.61,8-33.85,3.09-12.06,6-24.17,9.28-36.19q10.63-39.26,21-78.58,8.84-33.41,18.29-66.67l2.14-7.57c1.21,3.32,2.46,6.64,3.67,10,1.67,4.58,3.33,9.14,5.2,13.66l8.66,20.93c2.43,5.87,5.37,11.54,8.13,17.27,2.18,4.54,4.31,9.1,6.65,13.57l10.31,19.68c1.34,2.56,2.82,5,4.25,7.56q3.13,5.49,6.46,10.87c4.53,7.35,9.48,14.45,14.68,21.34,5,6.7,10.31,13.24,15.95,19.45a179.19,179.19,0,0,0,19.25,18.21A165.08,165.08,0,0,0,489,843.39a149.37,149.37,0,0,0,24.29,11.34A147.56,147.56,0,0,0,536.57,861a193.22,193.22,0,0,0,28.72,3.2,153.2,153.2,0,0,0,53-7.34,173.59,173.59,0,0,0,23.31-9.71A213.69,213.69,0,0,0,664.45,834c6.89-4.52,13.58-9.36,20.12-14.36,7.31-5.58,14.38-11.44,21.16-17.65,6-5.52,11.76-11.33,17.44-17.19q9.33-9.62,18-19.84c5.41-6.35,10.52-12.95,15.56-19.6,2.88-3.81,5.76-7.64,8.45-11.59l13.51-19.89c2.33-3.43,4.68-6.82,6.83-10.36l13-21.41c2.07-3.42,4.11-6.83,6.05-10.32l12.24-22,3-5.43c.87-1.57,1.6-3.24,2.4-4.86l11.25-22.8c5.44-11,10.57-22.2,15.8-33.32s9.89-22.29,14.73-33.47c5-11.52,9.65-23.17,14.39-34.79s9.19-23,13.73-34.55l2.66-6.76c1.08-2.76,2-5.58,3-8.38q2.53-7.2,4.81-14.47c2.59-8.22,4.82-16.54,6.84-24.91,1.3-5.4,2.59-10.83,3.57-16.3l4.2-23.37c.46-2.53.93-5,1.25-7.59l.92-7.2q1.37-10.8,2.74-21.6c.2-1.6.25-3.23.37-4.83q.49-6.63,1-13.26.35-4.77.71-9.53c.12-1.68.16-3.37.22-5.05.18-4.93.25-9.86.24-14.79a290.67,290.67,0,0,0-5.26-53.85,166.69,166.69,0,0,0-30.82-69.77,229.54,229.54,0,0,0-17.08-20.43,199.36,199.36,0,0,0-17.21-16.11,230.8,230.8,0,0,0-21.48-15.92c-14.44-9.48-30-17-45.94-23.69q-11.47-4.81-23.23-8.82c-4-1.36-8.07-2.6-12.13-3.82-3.44-1-6.91-2.12-10.4-2.94l-21.4-5c-11.47-2.69-23.05-4.83-34.6-7.14-10.9-2.18-21.83-4.2-32.73-6.41C639.72,66,627.1,63.49,614.5,60.81q-19.17-4.08-38.37-8.06c-4.47-.93-8.94-1.9-13.43-2.72L539,45.7c-4.46-.82-8.94-1.43-13.44-2.08l-20.48-3c-6.57-1-13.23-1.45-19.83-2.12-5-.52-10.08-1.2-15.14-1.5l-23.35-1.42c-1.78-.11-3.57-.29-5.36-.32l-8.22-.15-21-.37h-.47c-1.59,0-3.2.14-4.79.2ZM257.14,85.91l-.71.3.71-.3ZM364.6,265.46l.8.11-.8-.11Zm2.11.44a35.78,35.78,0,0,1,3.46,2.13,43,43,0,0,1,4.35,4.55,65.12,65.12,0,0,1,6,10.9,165.3,165.3,0,0,1,6,17.94c1.06,3.81,2,7.63,2.65,11.51l2.92,16.5,2.12,19.16c.17,1.57.42,3.15.49,4.73q.25,5.06.5,10.12.31,6.19.61,12.38c.08,1.73.24,3.47.23,5.2l-.15,22.57q0,3.93-.05,7.85c0,1.7-.17,3.41-.26,5.11l-1.33,25c-.22,4-.58,8.06-.94,12.09q-1.13,12.54-2.25,25.09c-.52,5.85-1.31,11.66-2,17.49L386.13,520l-6,38.39c-.15,1-.35,1.91-.54,2.86l-2.09,10.57q-2.4,12.14-4.8,24.28c-.68,3.45-1.53,6.84-2.37,10.26l-.55,2.22-2.07-6.76-3.46-11.29c-.48-1.57-1.07-3.14-1.44-4.74l-5-21.31L356,556.68c-.41-1.75-.66-3.55-1-5.32L350.79,528c-.78-4.27-1.37-8.58-2-12.87l-2.84-18.44-2.28-17.47c-.6-4.62-1.23-9.22-1.7-13.84l-2.46-24c-.5-4.82-.73-9.68-1-14.51l-.82-12.33c-.12-1.83-.32-3.67-.36-5.5l-.45-22.1-.13-6.51c0-.64,0-1.29.07-1.92l.22-5.82c.27-7.24.36-14.51.9-21.73q.65-8.78,1.74-17.52c2.25-15.45,5.61-30.77,11.47-45.28,1.3-3,2.68-5.9,4.2-8.78a72.54,72.54,0,0,1,5.44-8.5q.63-.75,1.3-1.47a21.09,21.09,0,0,1,2.18-2.08c.79-.52,1.58-1,2.4-1.43l.11,0Zm-7,6.3-.16.21.16-.21Z"/><path class="cls-1" d="M446.91,21l-11.07.44-10.72.42c-2.16.09-4.31.38-6.46.59-6.37.61-12.79,1-19.12,2l-12.12,1.86c-2.32.36-4.66.66-7,1.1l-11.13,2.13c-2.58.49-5.19.9-7.75,1.49l-10.37,2.43c-2.85.67-5.74,1.23-8.56,2l-19.19,5.29c-2.17.6-4.3,1.46-6.43,2.18L304.7,47.17c-1.46.5-2.88,1-4.31,1.61l-12.19,5c-2.66,1.09-5.43,2.06-8,3.3l-8.06,3.84-10.56,5c-5.82,2.77-11.54,5.77-17.2,8.86-7.39,4-14.51,8.59-21.49,13.29-2.7,1.82-5.29,3.81-7.9,5.75-5,3.69-10.1,7.25-14.91,11.17l-16.6,13.53c-1.68,1.37-3.25,2.89-4.87,4.33l-10,8.95c-1.18,1.05-2.38,2.07-3.49,3.2l-8.45,8.67-6.68,6.84c-1.58,1.62-3,3.43-4.46,5.14l-8.33,9.66c-1.22,1.42-2.47,2.81-3.64,4.28l-13.78,17.14c-1.19,1.48-2.28,3-3.39,4.56l-7.89,10.91-4.79,6.64c-1.31,1.82-2.5,3.74-3.75,5.6l-12,17.9c-3.59,5.38-7,10.9-10.5,16.35l-4.89,7.62c-.92,1.44-1.73,3-2.58,4.45L58,281.52c-2.67,4.65-5.18,9.4-7.75,14.11-4.11,7.51-8.2,15-12.12,22.64C21.83,350,12,384.87,6,420c-1.43,8.34-2.44,16.75-3.28,25.17q-1.43,14.25-1.45,28.58,0,13.11,1,26.19a272.54,272.54,0,0,0,3.54,27.15,267.78,267.78,0,0,0,14.42,51.53c6.45,16.37,14.51,32.12,23.09,47.46,3.42,6.12,7,12.13,10.87,18a174.6,174.6,0,0,0,11.73,15.73c9.06,10.93,19.7,20.48,30.08,30.11,5.18,4.81,10.38,9.6,15.69,14.26,5.92,5.2,12,10.24,18,15.27l18.25,15.16c8.42,7,16.84,14,25.32,20.91q7,5.74,14.06,11.49c1.92,1.57,3.87,3.11,5.8,4.67l3,2.42a23.67,23.67,0,0,0,4.58,3.36s0,0,0,0l-.62-.32h0c-2.31-1.79-4.43-3.86-6.59-5.82L188,766.35c-3.55-3.24-7-6.54-10.56-9.81q-9.94-9.25-19.84-18.55-5.51-5.15-11-10.29c-7.5-7-15.15-13.76-22.79-20.58-4.8-4.28-9.58-8.57-14.29-13s-9-8.65-13.45-13c-9.11-8.89-18.08-17.92-26-27.92-7.49-9.85-13.65-20.57-19.39-31.51C44.48,609.9,38.54,597.9,33.28,585.6a275.26,275.26,0,0,1-11.63-34,300,300,0,0,1-7.31-37.14,317.4,317.4,0,0,1-2.17-40.7,332.68,332.68,0,0,1,3-41A418.3,418.3,0,0,1,24.39,387,329.54,329.54,0,0,1,39.5,341.39,349.91,349.91,0,0,1,55.6,309.52L67,289.17c2.74-4.9,5.67-9.71,8.52-14.56,2.63-4.49,5.14-9.09,8-13.45,7.11-10.89,14.2-21.77,21.47-32.55l6.91-10.24c.92-1.37,1.83-2.76,2.81-4.1l13.42-18.46.47-.64,8.93-11c2.4-3,4.77-5.95,7.28-8.83l12.71-14.64c2.73-3.14,5.79-6,8.71-9l6.37-6.45c.83-.84,1.65-1.73,2.54-2.51l13.89-12.17c6.64-5.81,13.65-11.18,20.55-16.67l12.95-9.3,5.34-3.83c2.27-1.63,4.7-3.07,7.06-4.56,3.52-2.22,7.12-4.34,10.74-6.41,13.19-7.55,27.24-13.52,41.08-19.77l14.48-5.64,5.37-2.09c2.08-.8,4.26-1.41,6.37-2.1l10-3.31c1.6-.53,3.19-1.13,4.82-1.58l17.89-4.94c4.62-1.27,9.31-2.29,14-3.42l6.32-1.53c2.44-.59,4.94-1,7.4-1.5,4.78-1,9.54-2,14.35-2.81l16.6-2.72,19.16-2c1.69-.17,3.39-.21,5.09-.28l13.82-.59c1.85-.08,3.7-.21,5.54-.2l11.83.05c5.58,0,11.14.08,16.71.26l12.72.42c1.88.06,3.76.09,5.63.22l22.59,1.47c1.7.11,3.4.31,5.1.47l13.75,1.31c5.29.5,10.55,1.12,15.83,1.77L565.59,43l18.1,2.82c1.78.28,3.59.48,5.36.84l8.45,1.69,11.38,2.27c1.57.31,3.15.6,4.71,1l20.82,5.06c5.6,1.36,11.14,3,16.71,4.49,2.2.59,4.43,1.11,6.6,1.79l8.58,2.68c5,1.58,10.17,3,15.13,4.86l18,6.79L716.33,85c5,2.29,9.79,5,14.64,7.57L738,96.36c.68.36,1.33.84,2,1.26l4.7,3,9.88,6.24c4.37,2.76,8.52,5.89,12.64,9,7.86,6.15,15.33,12.73,22.6,19.57a194.62,194.62,0,0,1,19.46,21.18c2.27,3,4.43,6.14,6.47,9.34,2.14,3.36,4.08,6.84,6,10.31,2.09,3.75,4.06,7.55,6,11.39,1.33,2.69,2.68,5.39,3.88,8.14L839,212.55l6.8,18.85c.29.83.48,1.71.71,2.56l1.87,6.8,2.86,10.38c.21.78.35,1.59.52,2.38l1.44,6.62,2.41,11.08c.19.84.27,1.71.4,2.57q.53,3.42,1.05,6.84.72,4.63,1.43,9.26a223,223,0,0,1,1.47,25.95A248.11,248.11,0,0,1,857.76,345c-.48,3.46-1,6.89-1.69,10.31l-2.62,13.23q-.79,4-1.59,8c-.09.48-.26.95-.39,1.41L850,383.35l-5.65,20.35c-.17.59-.42,1.18-.63,1.75l-1.6,4.46-4.73,13.21c-1.58,4.4-3.17,8.79-4.87,13.14l-8.71,22.29c-1.93,4.92-3.82,9.85-5.73,14.78l-4.46,11.51c-.6,1.54-1.16,3.1-1.8,4.63L801,515.24c-5,10.32-9.79,20.71-14.94,30.92l-11.13,22.07c-2.29,4.53-4.83,8.94-7.28,13.38l-6.1,11.06c-.83,1.51-1.61,3.08-2.54,4.54l-12.55,19.52c-6.51,10.12-13.42,20-20.2,29.91-1.11,1.63-2.36,3.17-3.53,4.75l-8.85,11.87q-5.34,7.16-10.79,14.23Q690.61,693.75,678.23,710c-5.39,6.81-10.76,13.64-16.19,20.41-3.7,4.62-7.35,9.3-11.15,13.84-2.3,2.76-4.61,5.5-7,8.2s-4.87,5.23-7.43,7.73a194.83,194.83,0,0,1-15.2,13.15q-7.51,5.69-15.45,10.77a120.36,120.36,0,0,1-16.52,8.75,174.37,174.37,0,0,1-18,6.14A171.94,171.94,0,0,1,550,803.5c-6.13.77-12.28,1.28-18.47,1.44a161.56,161.56,0,0,1-23.29-1.26,177.35,177.35,0,0,1-17.45-3.46,142.6,142.6,0,0,1-18.62-6.2,167.18,167.18,0,0,1-16.79-8.57,151.4,151.4,0,0,1-14.87-10.07,166.17,166.17,0,0,1-14.27-12.72,174,174,0,0,1-12.49-14.13l-6.87-9.43c-2.07-2.84-3.84-5.86-5.69-8.84l-3.53-5.69c-.62-1-1.12-2.08-1.67-3.12l-3.86-7.32c-.55-1-1.14-2.09-1.65-3.16q-2.43-5.17-4.83-10.35.8-1.8,1.6-3.6c5.19-11.8,10.18-23.69,15.19-35.57,1-2.49,2-5,3-7.53s2.13-5.19,3.13-7.81c2.2-5.72,4.41-11.43,6.59-17.15q3.59-9.41,7-18.86c2.09-5.77,4.06-11.58,6-17.39,4-11.81,7.76-23.74,11.59-35.62,3.52-10.95,7.27-21.84,10.4-32.91q2.8-9.92,5.41-19.88c1.53-5.82,2.92-11.68,4.36-17.53.67-2.73,1.25-5.48,1.87-8.22.57-2.52,1.16-5,1.68-7.55l2.28-11c.6-2.9,1-5.84,1.51-8.75s1-5.92,1.39-8.9q.74-5.63,1.48-11.26c.4-3.07.58-6.2.86-9.29s.4-6.11.57-9.17c.67-12.49.5-25,.38-37.52-.06-6.11-.25-12.21-.48-18.3-.12-3-.31-6-.51-9.06s-.55-6.33-.87-9.49c-.62-6.08-1.76-12.09-2.91-18.09a84.14,84.14,0,0,0-8-22.23,62.54,62.54,0,0,0-6.36-9.82l-3.36-4.34c-.83-1.07-1.78-2-2.67-3.06s-1.56-1.75-2.37-2.6L438,271.14a84.79,84.79,0,0,0-8.87-8.55c-1.54-1.22-3.1-2.36-4.75-3.43a33,33,0,0,0-4.64-2.35,54.06,54.06,0,0,0-11.9-3.66A58.36,58.36,0,0,0,394.36,252a48.3,48.3,0,0,0-6.25.86,34.89,34.89,0,0,0-4.37,1.19,47.87,47.87,0,0,0-5.14,2.06c-1.38.63-2.71,1.29-4,2a37.23,37.23,0,0,0-3.95,2.68,66.66,66.66,0,0,0-6,5.06,82.61,82.61,0,0,0-7.85,9.16,86.78,86.78,0,0,0-6.2,8.82c-1.56,2.56-3.09,5.1-4.51,7.72-1.59,2.93-3.15,5.88-4.68,8.85-2.62,5.06-5.28,10.11-8.16,15-6.11,10.4-13,20.35-18.78,30.94-.91,1.67-1.81,3.33-2.64,5-1.9,3.9-3.54,7.93-5,12-1.62,4.38-2.76,8.88-4,13.38-.7,2.59-1.18,5.22-1.71,7.85l-.77,3.83c-.32,1.63-.45,3.33-.67,5-.45,3.35-1,6.69-1.24,10.07-.24,3.22-.6,6.45-.7,9.67q-.17,5.46-.34,10.91c-.09,2.94,0,5.89.07,8.84,0,2.41,0,4.82.2,7.22q.48,6.11.94,12.22c.25,3.26.9,6.56,1.37,9.8q.45,3,.9,6.09c.13.89.23,1.78.42,2.66,1.28,6,2.47,12,3.93,17.93q2.34,9.57,4.75,19.13c3,11.91,6,23.83,8.78,35.8s5.27,23.84,7.55,35.84,4.43,23.86,6.84,35.76q1.05,5.22,2.12,10.44c.52,2.56,1.24,5.09,1.87,7.63l2.5,10.15c.14.56.33,1.12.5,1.67l2,6.4,1.76,5.72c.22.7.39,1.44.66,2.13l4,10.38c1.08,2.77,2.12,5.57,3.33,8.29L356.7,689q4.71,10.49,9.52,20.94-.46,1-.94,2.07c-2.57,5.56-5.09,11.15-7.78,16.66s-5.48,11.1-8.13,16.7-5.41,11.28-8,17-5.13,11.53-7.68,17.31-5,11.51-7.67,17.2-5.23,11.3-7.92,16.93-5.51,11.49-8.13,17.3-5.3,11.78-7.79,17.75c-2.36,5.65-4.73,11.31-7,17q-6.91,17.28-13.92,34.5c-2.36,5.83-4.73,11.65-6.91,17.54l-3.8,10.22c-1,2.58-1.74,5.23-2.6,7.84l-2.81,8.54c-.3.92-.52,1.88-.78,2.82q-1,3.48-1.93,7c-1.68,6.1-3.17,12.24-4.69,18.38-1.41,5.74-2.77,11.51-4.15,17.26-1.27,5.3-2.49,10.63-4,15.86-1.61,5.65-3.2,11.29-5,16.89L238,1044.17c-1.69,5.4-3.6,10.73-5.38,16.09-2,6-3.9,12-5.76,18.06-3.48,11.25-7,22.49-10.08,33.85q-2.26,8.33-4.42,16.68c-.88,3.42-1.77,6.84-2.62,10.28a121,121,0,0,0-2.24,12.33,36.83,36.83,0,0,0-.25,8.25,17.43,17.43,0,0,0,2.57,6.83s0,0,0,0a29.41,29.41,0,0,1-1.27-5,14.25,14.25,0,0,1,0-3.58h0a84.54,84.54,0,0,1,3.08-11.7c1.27-4.06,3-8,4.54-11.94,1.34-3.33,2.62-6.69,3.92-10,2.2-5.65,4.27-11.34,6.48-17,4.42-11.29,8.73-22.64,12.74-34.08,2.74-7.79,5.32-15.64,7.93-23.48,1.56-4.69,3-9.43,4.45-14.15,1.77-5.69,3.64-11.36,5.24-17.1l3.15-11.28c.8-2.84,1.41-5.74,2.09-8.61,2.8-11.72,5.54-23.46,8.37-35.17.52-2.16,1.15-4.28,1.74-6.42l2.67-9.7c.19-.69.45-1.36.67-2l1.85-5.55c1-2.86,1.81-5.8,2.88-8.62l3.57-9.45c.85-2.25,1.64-4.53,2.56-6.75q3.37-8.16,6.74-16.31,7.11-17.1,14.13-34.23l7-16.34c1.19-2.78,2.58-5.49,3.86-8.23s2.53-5.57,3.91-8.31c2.73-5.44,5.5-10.86,8.18-16.32s5.39-10.75,7.94-16.2l7.85-16.75c2.66-5.68,5.22-11.41,8-17s5.46-11.22,8.3-16.77,5.73-11,8.46-16.58q1.43-2.91,2.86-5.82c.66,1.25,1.33,2.49,2,3.74,1.17,2.27,2.27,4.57,3.6,6.75l6.05,9.93c1.3,2.13,2.76,4.11,4.23,6.14l5.69,7.87c2.53,3.5,5.35,6.83,8.15,10.12,3.2,3.77,6.63,7.34,10.14,10.82a170,170,0,0,0,19.26,16,154.41,154.41,0,0,0,21.87,13.27c3.92,2,8,3.66,12,5.35,3.86,1.6,7.82,3,11.8,4.21A158.27,158.27,0,0,0,507.09,826a172.55,172.55,0,0,0,26.51,1.26,193.44,193.44,0,0,0,27.54-3.17,166.12,166.12,0,0,0,24-6.29c4.12-1.39,8.15-3,12.14-4.76,4.31-1.85,8.52-3.88,12.64-6.15,3.49-1.93,6.82-4.14,10.12-6.36s6.72-4.71,10-7.19a225.46,225.46,0,0,0,21.32-18.27c8.11-7.91,15-17,21.94-25.94q5.28-6.74,10.54-13.5c4-5.15,8.06-10.25,12-15.47l13.68-18.32c6.57-8.8,13.21-17.54,19.63-26.45l13.31-18.5c.84-1.17,1.61-2.41,2.4-3.61l7.28-11.08c2.77-4.2,5.6-8.37,8.23-12.66l12.91-21c.7-1.13,1.42-2.25,2-3.42l5.07-9.63,6-11.39c.9-1.71,1.86-3.4,2.7-5.14,5.26-10.85,10.63-21.65,15.71-32.59l10.09-21.72c.73-1.57,1.39-3.16,2-4.77L821.37,509,826,497.6c.63-1.55,1.3-3.08,1.89-4.65L836,471.62q6.62-17.53,13.33-35c1.95-5.11,3.63-10.33,5.44-15.49l3.8-10.91c.5-1.42.94-2.8,1.33-4.25l6.27-23.29c.36-1.32.65-2.61.9-4q1.21-6.28,2.41-12.56l1.86-9.7c.43-2.25.71-4.54,1-6.82q1-7.29,1.73-14.62a237.89,237.89,0,0,0,1.09-25.57c0-4.1-.3-8.18-.61-12.27-.27-3.51-.58-7-1.08-10.51q-1.4-9.75-2.8-19.51c-.12-.8-.33-1.6-.49-2.39L869,259.19l-2.4-11.61c-.4-1.94-1-3.84-1.5-5.76L861.69,229c-.44-1.64-1-3.2-1.54-4.8l-4.39-12.47c-.76-2.17-1.53-4.29-2.44-6.4l-4.85-11.27c-1.26-2.92-2.49-5.86-3.84-8.75Q838.86,172.9,832,161.07a153.81,153.81,0,0,0-13.94-19.71,195.56,195.56,0,0,0-18.05-19q-9.13-8.58-18.94-16.37c-3.28-2.59-6.62-5.1-10-7.57-2.41-1.76-4.84-3.55-7.38-5.13l-17.44-10.9c-.5-.31-1-.56-1.57-.83L740,79.18l-11.43-6c-1.38-.72-2.78-1.37-4.2-2l-12.08-5.45c-2.61-1.18-5.21-2.52-7.89-3.51L696,59.11,685,55c-1.76-.65-3.55-1.19-5.35-1.74l-12.23-3.74c-2.06-.63-4.12-1.32-6.2-1.87L639.71,42c-1.71-.45-3.45-.83-5.18-1.24l-13.3-3.16c-1.72-.41-3.43-.86-5.17-1.2l-11.22-2.17-10.79-2.09c-1.79-.35-3.61-.58-5.41-.85l-12.45-1.86c-3.08-.46-6.16-1-9.25-1.35l-20.77-2.4c-5.48-.63-11-1.06-16.48-1.53s-10.95-1-16.43-1.29l-12.93-.74c-2.29-.13-4.59-.33-6.89-.39l-22-.59c-4.27-.11-8.55-.1-12.83-.09h-5.52c-1.35,0-2.71,0-4.07,0-.7,0-1.4,0-2.1,0ZM398.75,270.93q1.37.05,2.74.19a58.77,58.77,0,0,1,10.18,2.54,41,41,0,0,1,5.6,3.22c4.4,3.65,8.22,8,12.18,12.13,2,2,3.9,4.1,5.8,6.2,1.37,1.52,2.66,3.12,3.94,4.71,1.27,1.76,2.48,3.55,3.63,5.4a63.89,63.89,0,0,1,4,7.62,102.62,102.62,0,0,1,3.72,11.77c.44,1.72.76,3.49,1.15,5.22.69,3.14,1.2,6.32,1.74,9.49.35,2.75.7,5.49.92,8.26.16,2,.38,4,.46,6l.29,7.43c.32,8,.3,16,.36,24,.06,7.69-.09,15.36-.28,23-.19,7.43-1,14.81-1.72,22.2l-1.2,8.16c-.4,2.74-.91,5.45-1.41,8.18s-.93,5.51-1.54,8.23l-2.56,11.48c-1.17,5.25-2.45,10.5-3.78,15.71-1.48,5.84-2.93,11.68-4.49,17.5-3.19,11.93-6.54,23.81-10.38,35.55q-6,18.47-11.79,37c-3.07,10-6,20-9.38,29.83-1.89,5.54-3.76,11.09-5.75,16.59s-4,11.17-6.05,16.75q-8.6,23.72-17.75,47.23-3.15-7-6.27-14L368.27,661l-2.1-5.5c-.29-.76-.61-1.51-.84-2.29l-3.11-10.52c-.64-2.17-1.3-4.32-1.81-6.53l-2.73-11.67c-.48-2.07-1-4.13-1.36-6.22-1.13-6.08-2.32-12.16-3.37-18.25s-2.08-12.1-3.13-18.16-2-12.15-3.21-18.19-2.24-12-3.53-18-2.47-11.89-3.88-17.8c-3.12-13.08-6.36-26.14-9.53-39.21-.77-3.15-1.62-6.3-2.3-9.47L325,468.12l-.83-3.84c-.23-1.06-.33-2.17-.48-3.24l-1.31-8.86q-.28-3.55-.56-7.09c-.18-2.22-.48-4.47-.52-6.7-.09-5-.31-10-.18-15l.25-9.65c.06-2.39.28-4.77.44-7.15.14-2.07.22-4.14.49-6.2l.75-5.81c.71-3.57,1.29-7.21,2.23-10.73l2.17-8.15a98.36,98.36,0,0,1,4-11.59c6.44-14.38,15.41-27.45,22.47-41.52,3.56-7.11,7.06-14.25,10.77-21.28.75-1.43,1.54-2.82,2.35-4.22.93-1.58,1.81-3.2,2.83-4.73s2.12-3.37,3.31-5L375.7,284a63.34,63.34,0,0,1,7.54-7.79,41.47,41.47,0,0,1,5.82-3.44c.89-.34,1.79-.65,2.71-.94a25,25,0,0,1,3.48-.78,28.36,28.36,0,0,1,3.51-.08Zm3.85.32.55.07-.55-.07ZM40,340.14l-.44,1,.44-1Zm160,437h0Z"/><path class="cls-1" d="M383.61,244.87a45.3,45.3,0,0,0-8.9,3.17,56.78,56.78,0,0,0-8.39,4.64,66.09,66.09,0,0,0-7.15,5.78,80.4,80.4,0,0,0-7.5,7.89A102.17,102.17,0,0,0,341,281.57a143.65,143.65,0,0,0-8.66,18.72c-3.2,8.06-6.07,16.31-8.59,24.59-2.84,9.32-4.78,18.91-6.81,28.43-1.93,9.08-4,18.12-5.94,27.19q-2,9.24-3.89,18.5c-.62,3.07-1.27,6.13-1.85,9.21q-.58,3.14-1.17,6.28c-.18.94-.39,1.87-.58,2.81s-.11,1,.21,1.51c0,0,0,0,0,0l-.16-.35c0-.37.07-.73.11-1.09,2.22-6.74,4.39-13.5,6.67-20.23,1.92-5.68,3.88-11.35,5.84-17,3-8.76,6-17.51,8.78-26.35s5.37-17.55,8.45-26.19c1.47-4.14,3.11-8.22,4.66-12.34,1.49-3.94,3-7.87,4.61-11.77,1.75-4.08,3.62-8.1,5.69-12a98.52,98.52,0,0,1,8.2-12.87,87.51,87.51,0,0,1,13.77-14.07,52.83,52.83,0,0,1,9.49-5.5,48.34,48.34,0,0,1,9.17-2.63,52.12,52.12,0,0,1,9.69,0,56.7,56.7,0,0,1,11.34,3.08c1.66.75,3.27,1.55,4.87,2.44a61.39,61.39,0,0,1,6.15,4.06c5.3,4.21,10.26,8.87,15.26,13.43A152.78,152.78,0,0,1,453,296.49a101.44,101.44,0,0,1,6.82,10.33,136.91,136.91,0,0,1,6.56,13.54c1.66,4,3.34,8.07,4.94,12.14l3.19,8.1c1,2.56,1.8,5.21,2.7,7.8,1.56,4.53,2.75,9.17,4,13.77.23.84.38,1.72.56,2.57l1.14,5.14c.81,3.68,1.5,7.37,2.05,11.1a130.35,130.35,0,0,1,.52,26.41q-.5,5.78-1,11.57c-.54,4-1.06,7.92-1.83,11.84q-.82,4.22-1.66,8.43c-.51,2.62-1.3,5.21-1.94,7.8-1.21,4.83-2.69,9.58-4.12,14.35-.58,1.93-1.28,3.84-1.92,5.75-.74,2.18-1.42,4.4-2.22,6.56-1.7,4.59-3.33,9.22-5.14,13.78q-2.82,7.07-5.64,14.14c-3.76,9.39-7.42,18.82-11.3,28.16l-3,7.24c-3.61,8.41-7.18,16.84-10.94,25.18-4.23,9.41-8.52,18.8-12.63,28.26-8.4,19.31-16.49,38.75-24.57,58.19q-4.48,10.79-8.8,21.64c-2.8,7.06-5.38,14.2-8,21.31-4.94,13.23-9.92,26.45-15.33,39.49-7.91,18.63-15.7,37.3-22.83,56.24-3.62,9.62-6.88,19.38-10.31,29.07-3.3,9.32-6.5,18.68-9.69,28s-6.26,18.83-9.16,28.33q-4.26,14-8.77,27.9c-3.16,9.79-6,19.67-9,29.52-2.85,9.48-5.84,18.92-8.77,28.38-3,9.77-6.23,19.48-9.42,29.2-2.91,8.85-6.05,17.63-9.14,26.42-1.75,5-3.51,9.94-5.11,15s-3.19,10.2-4.68,15.34-3,10.34-4.54,15.5c-1.36,4.63-3,9.18-4.51,13.76-.54,1.62-1.29,3.2-1.93,4.79q-1.12,2.79-2.21,5.58-2.47,5.19-4.9,10.42c-.82,1.77-1.77,3.49-2.65,5.23q-1.52,3-3,6-5.86,11.76-11.59,23.59c-7.26,15-15.24,29.76-23.52,44.27,0,0,0,0,0,0,3.72-4.6,7.3-9.32,10.88-14,3.05-4,5.9-8.19,8.82-12.3,2.79-3.94,5.34-8.07,8-12.12s5.22-8.51,7.8-12.78c2.46-4.07,4.87-8.17,7.31-12.24s5-8.2,7.29-12.4q2.26-4.1,4.49-8.22c1.06-2,1.9-4,2.81-6.07,1-2.26,2.14-4.52,3-6.84l3.26-8.77c1.76-4.73,3.25-9.56,4.83-14.35,1.45-4.41,2.72-8.89,4.26-13.28s3.06-9.05,4.78-13.5q2.86-7.39,5.73-14.78c3.88-10,7.62-19.95,11.3-30,3.2-8.73,6.2-17.53,9.25-26.32,6.81-19.62,13.58-39.25,20.88-58.69,3.36-8.93,6.34-18,9.6-26.94,3.4-9.33,6.88-18.64,10.31-28,3.58-9.72,7.24-19.41,10.91-29.1,1.75-4.62,3.44-9.26,5.19-13.87s3.65-9.4,5.55-14.08q5.62-12.9,11.43-25.71c4.41-9.65,9.05-19.23,13.08-29,3.87-9.42,7.52-18.93,11.12-28.47,3.37-8.93,6.44-18,9.76-26.94,9.84-26.52,20.56-52.69,31.47-78.77,8-18.6,16.12-37.16,23.67-55.95,1.93-4.79,3.84-9.58,5.68-14.41s3.57-9.41,5.37-14.12,3.66-9.6,5.47-14.41,3.63-9.91,5.37-14.9c1.66-4.77,3.15-9.6,4.66-14.42.53-1.69,1-3.4,1.45-5.1.68-2.46,1.49-4.93,2.05-7.42,1.1-4.84,2.28-9.66,3.12-14.56l1.34-7.78c.59-3.43.84-6.94,1.23-10.39.58-5.08.77-10.18,1.06-15.29a130.48,130.48,0,0,0-.35-17.29c-.27-3.51-.76-7-1.26-10.47a94.92,94.92,0,0,0-1.91-10c-1.23-4.78-2.34-9.6-3.85-14.3L493.26,347c-.22-.69-.52-1.36-.78-2l-2.2-5.69c-2-5.06-4.18-10-6.33-15-2.7-6.25-5.56-12.48-8.68-18.52a107.21,107.21,0,0,0-21.85-28.63c-1.82-1.71-3.6-3.48-5.47-5.13l-6.53-5.77c-5.93-5.24-11.88-10.5-18.63-14.67a61.54,61.54,0,0,0-8.67-4.19,51.45,51.45,0,0,0-9.62-2.8,47.32,47.32,0,0,0-9.56-1,54.23,54.23,0,0,0-11.32,1.23ZM303.74,417.33h0Z"/><path class="cls-1" d="M402.12,272.84a26,26,0,0,0-5.31,1.75,34.57,34.57,0,0,0-5.43,2.76,28.65,28.65,0,0,0-6.78,6.29c-1.86,2.29-3.68,4.63-5.41,7a175.8,175.8,0,0,0-9.31,15c-2.76,4.79-5.21,9.73-7.62,14.7a57.71,57.71,0,0,0-6,21.39c-.48,7.91,2.24,15.72,5,23a0,0,0,1,0,0,0,95.74,95.74,0,0,1-3.36-14.23,40.3,40.3,0,0,1,0-9.65A49.94,49.94,0,0,1,361,330a108.26,108.26,0,0,1,12.81-21.32c2.25-2.84,4.54-5.62,6.95-8.33a63.85,63.85,0,0,1,7.51-7,41,41,0,0,1,6-3.62,43.92,43.92,0,0,1,8.16-2.19,27.17,27.17,0,0,1,4.14-.08,21.27,21.27,0,0,1,2.49.69,36.38,36.38,0,0,1,5.31,3.32,97.82,97.82,0,0,1,14.95,15.11,80.47,80.47,0,0,1,6.8,10.84c1.13,2.18,2.24,4.36,3.28,6.59,1.8,3.82,3.54,7.68,5.27,11.54,1.52,3.75,3,7.52,4.15,11.41.73,2.44,1.39,4.86,2,7.32.5,2,.84,4,1.21,6.07.19,1.5.37,3,.47,4.52.16,2.46.36,4.93.43,7.4s.22,5.1.21,7.65q0,4.18,0,8.37c0,1.14-.12,2.29-.18,3.43q-.13,2.58-.27,5.17c-.12,2.41-.42,4.81-.64,7.2-.42,4.44-1,8.86-1.54,13.29L449,426.44c-.4,2.45-.93,4.87-1.43,7.3s-1,5-1.57,7.47l-2.61,11c-1.24,5.21-2.57,10.4-3.86,15.6-1.35,5.43-2.74,10.87-4.22,16.27q-2.28,8.34-4.56,16.69c-.72,2.64-1.59,5.25-2.39,7.87l-2.69,8.85c-.75,2.46-1.63,4.9-2.44,7.34l-3,9.14c-.76,2.29-1.68,4.54-2.52,6.81q-1.55,4.18-3.09,8.36l-2.69,6.3c-.91,2.14-1.76,4.31-2.77,6.41-2.58,5.32-5.06,10.7-7.87,15.91q-4.5,8.37-9.1,16.67c-3,5.39-5.85,10.86-8.71,16.33-2.37,4.53-4.51,9.17-6.84,13.72-2.81,5.48-5.61,11-8.53,16.37-5.29,9.81-10.8,19.48-16.27,29.2l-5.23,9.29c-1.28,2.28-2.36,4.69-3.53,7s-2.57,4.87-3.69,7.37c-1.28,2.85-2.56,5.7-3.8,8.57-2.47,5.75-4.84,11.51-7,17.38-2,5.29-4,10.59-5.59,16q-2.5,8.38-4.85,16.8a166.62,166.62,0,0,0-5.32,31.3c-.2,2.46-.25,4.95-.38,7.42-.09,1.89-.19,3.77-.28,5.66-.22,5-.52,10-.51,15,0,0,0,0,0,0,1.37-5.36,3.18-10.6,4.9-15.85,2.14-6.53,4.32-13,6.94-19.38,3.88-9,8.8-17.46,13.48-26,2.5-4.59,5-9.2,7.49-13.78,2.78-5.06,5.47-10.18,8.13-15.31q2.67-5.14,5.2-10.37c.92-1.91,1.79-3.86,2.76-5.76,2.64-5.18,5.17-10.43,8-15.52l9.26-16.69c5.45-9.84,10.69-19.83,15.58-30q4.23-8.75,8.34-17.57c2.28-4.87,4.72-9.68,7.09-14.51s5.06-9.63,7.51-14.47l5.1-10.09c1.07-2.11,2-4.29,3-6.44,1.62-3.55,3.33-7.07,4.8-10.68q1.75-4.33,3.52-8.65c.87-2.14,1.81-4.26,2.59-6.44l3.87-10.77c4-11.07,7.36-22.35,10.76-33.61s6.19-22.41,9.07-33.67c1.41-5.5,2.74-11,4.09-16.53.61-2.48,1.16-5,1.74-7.44s1.18-4.85,1.67-7.29l2.15-10.71c.54-2.7.88-5.45,1.3-8.17q.76-4.87,1.35-9.76c.34-2.88.78-5.77,1-8.67q.4-5,.81-10c.09-1.15.08-2.31.12-3.46q.09-2.85.19-5.7c.1-2.89-.08-5.8-.13-8.69s-.31-5.74-.48-8.6c-.06-1.05-.21-2.1-.32-3.15-.24-2.3-.41-4.64-.81-6.91q-.39-2.24-.8-4.48c-.24-1.34-.58-2.63-.91-3.95a131.79,131.79,0,0,0-5.72-16.8C461.91,330,459,324.37,456,318.71c-3.6-6.93-7.13-13.87-11.84-20.14a97.26,97.26,0,0,0-17.33-17.9,42.05,42.05,0,0,0-11.18-6.82,24.46,24.46,0,0,0-6.24-1.45,19.4,19.4,0,0,0-2-.1,29.3,29.3,0,0,0-5.29.55Zm-44.24,67.89v0Zm0,9.67v0Z"/><path class="cls-1" d="M350.81,779.19c-2.85,8.78-5.47,17.63-8.46,26.35-1.34,3.92-2.69,7.84-4.14,11.72-.77,2.07-1.48,4.17-2.33,6.21l-2.51,6.06-3.12,6.62c-.48,1-1.06,2-1.58,3l-2.15,4.08c-2.3,4.36-4.74,8.65-7.07,13-4.65,8.66-9.17,17.42-13,26.47-2.2,5.2-4.4,10.39-6.47,15.65q-2.71,6.87-5.4,13.74-6.11,15.6-12.05,31.25c-.44,1.14-.82,2.3-1.21,3.46l-3.35,9.77L274.69,966c-.35,1-.71,2-1,3-1.69,6.16-3.39,12.32-5,18.52-.95,3.69-2,7.38-2.69,11.12-2.07,10.62-4,21.27-5.72,32-1.63,10.36-3.23,20.73-5.22,31-1.68,8.69-3.28,17.39-5.17,26,0,0,0,0,0,0,2-5.34,4-10.72,6-16.08,1.6-4.34,3.26-8.66,4.76-13,1.61-4.66,3.31-9.3,4.8-14q2.69-8.51,5.33-17,2.17-7,4.24-14,1.46-4.93,2.88-9.88c.32-1.13.62-2.28,1-3.4,1.84-5.79,3.64-11.6,5.33-17.44q1.29-4.44,2.56-8.88c.27-1,.55-1.9.87-2.83,3.44-10,6.8-19.95,10.47-29.82q5.66-15.21,11.26-30.43c1.73-4.69,3.38-9.4,5.07-14.1.87-2.41,1.82-4.79,2.72-7.18.73-1.93,1.43-3.87,2.21-5.78,2.11-5.14,4.14-10.31,6.23-15.46,1.78-4.39,3.6-8.78,5.38-13.17q1.66-4.1,3.31-8.21c.94-2.35,1.77-4.76,2.65-7.14s1.52-4.72,2.26-7.08,1.33-4.89,2-7.34c1.29-4.87,2.28-9.83,3.37-14.74,1-4.72,2-9.45,3-14.18,1.15-5.73,2.21-11.49,3.31-17.23a0,0,0,0,0,0,0Z"/><path class="cls-1" d="M139.22,113.85l-9.3,12.49c-8.86,11.94-17.76,23.82-26.32,36a345.49,345.49,0,0,0-23.9,39,453.08,453.08,0,0,0-19.06,42.35,300.86,300.86,0,0,0-13.78,43.73A413.73,413.73,0,0,0,39,335.3a354.26,354.26,0,0,0-1.82,46.23c.14,6.65.61,13.28,1,19.92.26,4.35.44,8.71.86,13.05q.92,9.36,1.83,18.73c.54,5.47,1.2,10.94,1.8,16.4.57,5.15,1,10.32,1.47,15.49,1.95,20.85,2.56,41.81,4.22,62.69.39,4.9,1,9.8,1.52,14.69.35,3.22.89,6.43,1.35,9.64.35,2.35.62,4.73,1.07,7.06l1.92,9.69c.46,2.29,1.11,4.53,1.7,6.79s1,4.25,1.71,6.32q1.44,4.34,2.88,8.68c1.07,3.23,2.39,6.41,3.66,9.57q2.15,5.39,4.29,10.77c3,7.65,5.88,15.37,8.58,23.14,2.29,6.56,4.15,13.28,6.53,19.8,1.62,4.45,3.19,8.92,5,13.33s3.67,8.52,5.77,12.65a56.77,56.77,0,0,0,7.55,10.83,0,0,0,0,0,0,0,66.73,66.73,0,0,1-4.59-8.51c-4.41-11.41-6.77-23.55-8.71-35.6-1.29-8-2.5-16-3.83-23.94-1.26-7.58-2.88-15.12-4.39-22.65s-2.74-14.85-3.86-22.32c-.45-4.68-.95-9.34-1.19-14-.29-5.85-.47-11.66-.57-17.52-.17-9.93.06-19.88.27-29.8.11-5,.28-10,.24-15.06,0-5.46.08-11-.22-16.41-.3-5.64-.62-11.28-1-16.91-.38-5.44-1.1-10.87-1.65-16.29C71,437.83,68.79,424,67.7,410.12c-.75-9.52-1.63-19-2.11-28.59q-.83-16.53-.23-33c.43-11.34,1.51-22.63,2.95-33.87,1.37-9.89,3-19.73,5.22-29.49,2.38-10.69,5.38-21.25,8.55-31.73,3-9.86,6.24-19.63,9.49-29.4q5-15,11-29.66c10.76-25,24.79-48.54,38.17-72.22q4.45-7.86,8.88-15.76-5.25,3.71-10.45,7.49Z"/><path class="cls-1" d="M58.14,433.3Q57,439.43,55.9,445.56s0,0,0,0c.41-1.94.81-3.88,1.18-5.83.41-2.13.74-4.28,1.06-6.43a0,0,0,0,0,0,0s0,0,0,0Z"/><path class="cls-1" d="M567.81,16.17c-2.75,0-5.5.07-8.25.17-7.13.27-14.25.51-21.37,1-3.25.2-6.53.29-9.77.62l-12.22,1.24c-2.62.27-5.22.68-7.83,1.06-3.36.5-6.77.86-10.11,1.51-6.44,1.26-12.89,2.42-19.27,4-7.07,1.72-14.07,3.55-21.07,5.53-12.44,3.52-24.74,7.57-37,11.55-12.54,4.05-25.07,8.26-37.27,13.27S359,66.24,346.7,71.27C340,74,333.23,76.82,326.55,79.72c-2.43,1.05-4.83,2.1-7.22,3.24-3.28,1.56-6.65,3-9.86,4.71-6.11,3.24-12.19,6.47-18.16,9.95-5.68,3.3-11.27,6.74-16.87,10.17-11.59,7.11-23,14.5-34.33,22-11.5,7.64-22.73,15.67-33.91,23.76-10.2,7.36-20.41,14.78-30.33,22.51l-10,7.76a199.84,199.84,0,0,0-16.52,14.56c-9,8.75-16.6,18.59-24,28.69s-14.73,20.63-21.68,31.2l-5.89,9c-1.58,2.41-2.92,5-4.38,7.46-2.11,3.62-4.13,7.23-6,11A213.25,213.25,0,0,0,77.77,309c-1,2.86-1.86,5.81-2.78,8.71-.81,2.54-1.74,5.07-2.44,7.65L70,334.81c-.68,2.56-1.46,5.11-2,7.71q-1.14,5.34-2.27,10.68c-.44,2.09-1,4.18-1.28,6.3-.89,5.89-2,11.78-2.47,17.72q-.43,5.5-.85,11c-.2,2.59,0,5.23,0,7.82,0,6.83.43,13.62.91,20.42a0,0,0,1,0,0,0c-.05-4.41,0-8.8,0-13.2,0-3.18.23-6.35.39-9.53.14-2.59.27-5.13.59-7.7q.72-5.65,1.43-11.31.76-3.81,1.5-7.64c.52-2.61.89-5.29,1.55-7.87q1.25-4.87,2.5-9.75c.57-2.26,1.06-4.56,1.74-6.8q1.57-5.1,3.13-10.2c.66-2.16,1.24-4.37,2-6.5,2.6-7.2,5.09-14.44,8-21.51,1.76-4.06,3.62-8.06,5.62-12,1.62-3.19,3.29-6.46,5.22-9.49l6.8-10.67c3.26-5.12,6.92-10,10.54-14.91,8.35-11.27,16.69-22.52,25.17-33.68,4.5-5.56,9.15-10.94,14.14-16.08A222.34,222.34,0,0,1,170.87,191c4-3.3,8.19-6.39,12.3-9.56,10.74-8,21.47-16,32.28-23.86Q232.53,145.15,250,133.3c10.45-7.1,21.06-14,31.73-20.71,11.12-7,22.34-14,34.17-19.8,3.38-1.65,6.72-3.43,10.16-5L337.8,82.6c11.83-5,23.63-10,35.5-14.87,6.34-2.6,12.67-5.19,19.07-7.62,6.79-2.57,13.63-4.92,20.5-7.25,12.55-4.25,25.34-7.91,38.06-11.64,6.31-1.85,12.67-3.5,19-5.2,2.95-.79,6-1.37,8.95-2.05,2.71-.62,5.41-1.29,8.14-1.78l13.83-2.49,13-1.67c4.5-.58,9.07-.74,13.58-1.09,4.32-.35,8.66-.38,13-.54s8.53-.21,12.8-.26c3.75-.05,7.49-.11,11.25-.08,1.5,0,3,0,4.52,0,3.16,0,6.33,0,9.48.12l15,.67c2.08.09,4.18.41,6.25.61l6.87.68a260.54,260.54,0,0,1,28.06,5.68c5.28,1.48,10.58,2.92,15.81,4.56q8.25,2.6,16.47,5.31c19.53,6.48,38.9,13.28,58,21.07L734.25,69a115.38,115.38,0,0,1,20.55,12.23,123.57,123.57,0,0,1,17.52,17.61l-1.19-1.55c2.55,3.29,5.14,6.55,7.52,10,3.35,4.8,6.65,9.61,9.9,14.48q8.31,12.42,16.33,25c5.47,8.58,11.07,17.1,16.17,25.91,2.72,4.7,5.3,9.42,7.81,14.24,2,3.82,3.76,7.76,5.54,11.69,1.94,4.91,3.82,9.82,5.55,14.82q2.77,8,5,16.23c1.55,5.74,3,11.52,4.16,17.37,1,5.28,1.9,10.54,2.72,15.84,1.85,17.22,3.11,34.46,4,51.76.21,4.07.38,8.22.27,12.3-.12,4.49,0,9-.38,13.5-.37,4.64-.56,9.34-1.11,14q-.66,5.46-1.32,10.92c-2,12.9-4.28,25.73-6.65,38.58-2.33,12.59-4.47,25.22-6.65,37.84-4.6,26.69-10.09,53.28-19,78.9-1.2,3.41-2.31,6.86-3.65,10.21l-4.65,11.54c-3.67,8.34-7.33,16.68-11.34,24.87-4.62,9.47-9.13,19-14.07,28.36-2.44,4.59-4.7,9.32-7.35,13.79l-5.24,8.82c-1,1.65-1.91,3.37-3,5l-5.4,8.1c-1.23,1.85-2.4,3.78-3.72,5.57l-8.62,11.62c-7.64,9.47-15.35,18.88-22.88,28.43-8.1,10.29-16,20.83-24.7,30.65-4.93,5.58-9.92,11-15,16.46-4.28,4.54-8.79,8.89-13.3,13.2-9.71,9.29-19.86,18-30.21,26.6l3.34-2.58c-3.74,2.88-7.4,5.83-11.31,8.49l-7.08,4.81c-2.07,1.41-4.38,2.56-6.55,3.82-1.62.95-3.22,2-4.9,2.81l-9.31,4.58c-4.46,2.19-9.12,4-13.69,5.91l3.93-1.66-10.62,3.84a118.8,118.8,0,0,1-21.67,5.43c-12.32,1.32-24.64.69-36.93-.81-3.47-.54-6.91-1.21-10.37-1.83-3-.53-6-.88-8.92-1.63l-12.19-3.13c-2.59-.67-5.19-1.29-7.74-2.13-6.62-2.17-13.34-4.16-19.88-6.6-8.28-3.09-16.58-6.1-24.76-9.46a152.62,152.62,0,0,1-29-16.24,155.57,155.57,0,0,1-24.05-24.5q-1.74-2.31-3.43-4.65l2.53-8,7.43-23.48c1.81-5.71,3.1-11.62,4.62-17.41s3.22-11.73,4.62-17.64q2.9-12.28,5.8-24.57c2.71-11.51,5.1-23.1,7.59-34.66q4.44-20.67,8.93-41.32c6-27.69,10.38-55.69,14-83.78,1.53-12.06,3-24.13,4.57-36.19,1-6.08,1.84-12.18,2.93-18.24,1.23-6.88,2.5-13.75,3.64-20.64,2.25-13.52,4.16-27,4.51-40.71.11-4.62-.06-9.17-.28-13.77-.16-3.41-.12-6.88-.49-10.27-1.1-10.06-2.09-20.09-4-30A138.11,138.11,0,0,0,451.15,281a86.6,86.6,0,0,0-5.85-12,74.16,74.16,0,0,0-8.81-11.64c-5.48-6.07-13-10.08-20.58-12.77-3.8-1.35-8-1.73-12-2.11-4.82-.47-9.82.47-14.55,1.22A89.42,89.42,0,0,0,376.72,247a60.78,60.78,0,0,0-11.78,5.15c-5.56,3.15-10.45,7.4-15.26,11.55a192.29,192.29,0,0,0-27.27,28.85c-2,2.59-4.13,5.11-5.93,7.81l-6.86,10.31a165.59,165.59,0,0,0-10.05,17.89,188.48,188.48,0,0,0-10.67,26.7c-5.89,18.52-8.59,38-9.43,57.36-.41,9.46,0,18.9.25,28.35.14,5.85.59,11.62,1,17.46.48,6,.75,12.12,1.54,18.12q1.7,12.88,3.4,25.75c.8,6.07,1.95,12.06,3.07,18.07,1.17,6.31,2.13,12.69,3.53,18.94l5.44,24.15c1.17,5.22,2.5,10.39,3.81,15.58,1.63,6.38,3.1,12.83,4.9,19.17q3.37,11.87,6.76,23.74c1.47,5.18,3.13,10.3,4.77,15.43,2.62,8.19,5.15,16.4,8.05,24.5a415,415,0,0,0,23.32,53.55q3.64,6.9,7.67,13.6l0,.06c-5.19,14.13-10.43,28.26-15.58,42.41-1.91,5.25-4.14,10.41-6.21,15.61L324.51,814.1c-3.94,9.89-7.78,19.82-11.62,29.75q-31.26,80.77-61.94,161.76L245.48,1020c-1.65,4.33-2.91,8.86-4.35,13.26-5.25,16-10.17,32.14-15,48.29-1,3.23-1.59,6.54-2.33,9.82q-3.12,13.77-6.13,27.57c-2.46,11.24-4.92,22.47-7.07,33.78-6.56,34.44-13.06,68.9-19,103.45,0,0,0,0,0,0,4-12.92,8.34-25.75,12.58-38.6q6.45-19.51,12.87-39c3.87-11.78,7.58-23.63,11.61-35.35q8.58-24.9,16.85-49.9c.92-2.77,1.86-5.47,3-8.19q4.61-11.56,9.1-23.17,5.07-13.11,9.92-26.32c1.17-3.18,2.25-6.41,3.56-9.54,10.18-24.32,20.42-48.62,30.52-73,22.44-54.07,44.7-108.2,67.24-162.22,1.59-3.82,3.29-7.62,4.77-11.49l6.71-17.69,1.91,2.22c12.35,14.2,27.93,25.29,44.69,33.68,10.37,5.18,21.28,9.23,32.08,13.4,6,2.32,12.06,4.49,18.17,6.59l9.92,3.4c3,1,6.16,1.71,9.21,2.56l9.13,2.53c1,.28,2.06.42,3.07.62l7.8,1.57c14.19,2.87,28.59,4.83,43.1,4.75a107.22,107.22,0,0,0,12.79-1,148.14,148.14,0,0,0,15.06-2.63A153.93,153.93,0,0,0,604.78,824c2.68-1,5.38-1.89,8-3l6.27-2.63c2.54-1.06,5.24-2,7.7-3.24l9.83-4.8c2.84-1.38,5.53-3,8.25-4.62,12.43-7.21,23.54-16.35,34.52-25.57a384.12,384.12,0,0,0,28.42-26.66c9.53-9.83,18.57-20,27.22-30.65,8-9.8,15.65-19.87,23.7-29.63l13.58-16.43c5.2-6.29,10.19-12.72,15.16-19.2,4.19-5.45,8-11.13,12-16.79,3.44-5,6.46-10.24,9.64-15.37,1.86-3,3.45-6.21,5.17-9.29,1.34-2.41,2.68-4.8,4-7.25q5.07-9.67,10.1-19.39c5.79-11.19,11.61-22.42,16.79-33.92,3.44-7.63,6.83-15.24,9.91-23q1.91-4.85,3.82-9.68c1.42-3.6,2.46-7.41,3.68-11.09,2.17-6.56,4-13.21,5.83-19.86,1.57-5.63,3-11.37,4.21-17.09,2.92-13.76,5.66-27.54,8.4-41.34,2.55-12.82,5.33-25.6,7.82-38.44,1.33-6.85,2.47-13.72,3.61-20.61.71-4.31,1.17-8.69,1.71-13,.38-3,.82-6,1.05-9q.46-6,.93-12c.26-3.36.1-6.79.13-10.16a167.59,167.59,0,0,0-.86-18c-1.47-15.09-3.5-30.11-5.55-45.14-.94-6.95-2.33-13.8-3.74-20.67a196.29,196.29,0,0,0-5.29-19,336.5,336.5,0,0,0-15.65-39.65,176.18,176.18,0,0,0-8.23-16.09c-1.64-2.77-3.16-5.67-4.94-8.35l-5.88-8.9c-3.74-5.66-7.93-11.07-11.95-16.54s-8-10.83-12-16.22q-5.75-7.77-11.6-15.47c-2.19-2.88-4.37-5.76-6.61-8.59s-4.2-5.58-6.49-8.18l-7.24-8.21a95.2,95.2,0,0,0-7.77-7.52,119.11,119.11,0,0,0-11.81-9.19c-11.16-7.77-24-12.57-36.76-17-11.89-4.16-24.15-7.35-36.35-10.48-13-3.32-25.87-6.78-38.82-10.13-7.11-1.83-14.25-3.51-21.41-5.16-2.65-.61-5.35-1-8-1.51-3.22-.59-6.42-1.23-9.66-1.62l-11.82-1.44c-3.41-.42-6.89-.46-10.31-.68C591,16.08,584.5,16.1,578,16h-1.37c-3,0-5.91.13-8.86.18ZM500.25,29.78l-.47.06.47-.06ZM404.39,260.66a47.16,47.16,0,0,1,7.44,2,49.79,49.79,0,0,1,7.51,4.42,49.63,49.63,0,0,1,5.44,5.65A72.81,72.81,0,0,1,431.85,285a130.51,130.51,0,0,1,7.13,27.3c.61,5,1,10,1.24,15,.16,3.49.53,7,.47,10.52q-.1,6.15-.21,12.29A194.09,194.09,0,0,1,439,369.71c-1.51,10.16-3.84,20.1-6.15,30.11-1.35,5.88-3,11.7-4.25,17.59-2.92,13.24-5.68,26.48-8,39.83-4.61,26-8.86,52-14.43,77.85-5.9,27.33-12.16,54.58-18.35,81.84Q386,625,384,633c-1.68,6.92-3.22,13.9-5,20.79q-3,11.25-5.92,22.5c-1.23,4.69-2.41,9.39-3.84,14-4.94-9.37-9.47-19-13.65-28.69-3.67-8.84-7-17.77-10.31-26.76-2.07-5.65-4.27-11.28-6.16-17q-4-12.07-8-24.14c-1.8-5.44-3.35-11-5-16.46-1.68-5.65-3.47-11.26-5-17q-3.27-12.44-6.56-24.88c-1.41-5.35-2.5-10.78-3.69-16.19l-2.86-12.93c-.37-1.69-.79-3.38-1.07-5.08q-2.35-14.13-4.69-28.25l-1.77-15.73c-.47-4.18-1-8.36-1.26-12.56l-1.13-21c-.23-4.47-.14-8.95-.06-13.41a221.58,221.58,0,0,1,1.79-23.84,188.57,188.57,0,0,1,11.34-42.43,191.63,191.63,0,0,1,10.22-20.22c2.15-3.71,4.56-7.24,6.92-10.82,2.91-4.41,6.08-8.6,9.28-12.81l6.57-7.6c2.26-2.62,4.77-5,7.19-7.53a149.19,149.19,0,0,1,14.45-13,67.82,67.82,0,0,1,10.77-6.65,90.07,90.07,0,0,1,16.82-4.51,53.76,53.76,0,0,1,10.93-.24ZM367.1,271.08l-.61.48.61-.48Z"/></g></g></svg>