<svg xmlns="http://www.w3.org/2000/svg" viewBox="0 0 697.69 849.63"><defs><style>.cls-1{fill:#353535;}</style></defs><title>prototyping-icon</title><g id="Layer_2" data-name="Layer 2"><g id="Draw_Layer" data-name="Draw Layer"><path class="cls-1" d="M14.17,10.67a4.06,4.06,0,0,0-.74.23c-.83.56-.51.27-1.16,1.09a8.49,8.49,0,0,0-1,3.13s0,0,0,0c.27-.75.52-1.5.83-2.24v0l.42-.69.53-.57.59-.33.6-.13.65.14.61.35.59.63A10.06,10.06,0,0,1,17,13.95a39,39,0,0,1,2.27,9.4C21,37.4,20.44,51.64,20.41,65.76c0,3.36,0,6.71,0,10.07q-.09,6.29-.14,12.59c-.16,18.62-.05,37.25,0,55.87q0,10.1.11,20.2,0,9,.1,18c0,2.41,0,4.83,0,7.24q.29,15.15.58,30.29.1,5.31.2,10.63c.05,2.75.23,5.5.34,8.24q.66,15.84,1.32,31.69c.32,7.77.83,15.52,1.25,23.28Q25.7,320.92,27.35,348c1,16.43,1.78,32.87,2.64,49.3.11,2.06.17,4.12.25,6.18l.66,17.27c.27,7.14.62,14.28.79,21.42.39,16.84.84,33.69,1.08,50.54q.38,27.4.68,54.8c.34,32.7.57,65.41.36,98.12-.12,17.42-.16,34.84.14,52.26.14,8.45.3,16.89.72,25.33q.35,7,.78,14c.12,1.82.32,3.64.49,5.46q.36,4,.77,8c.2,2,.5,3.95.76,5.91s.57,4.19.94,6.27a94.25,94.25,0,0,0,3.22,13.52s0,0,0,0c-.06-.4-.12-.8-.18-1.19-1-8-1-16-1.3-24,0-1.61,0-3.21,0-4.82q0-4.18-.09-8.37c-.06-4,.07-8,.08-12,.06-17.53.41-35.06.39-52.59,0-15.62-.18-31.23-.33-46.85q-.26-28-.7-56-.33-22.78-.77-45.56c-.31-16-.54-32.08-1-48.12q-.45-16.62-.91-33.24c-.18-6.62-.51-13.25-.78-19.87q-.38-9-.75-18c-.11-2.63-.18-5.27-.33-7.9q-.79-14.4-1.57-28.79c-.95-17.43-2-34.86-3.06-52.29-.39-6.64-.73-13.28-1.08-19.92q-.48-9-1-18c-.13-2.52-.3-5-.4-7.57q-.56-14.89-1.13-29.78-.21-5.36-.41-10.71c-.11-2.72-.08-5.45-.12-8.17l-.45-32.07c-.11-7.67,0-15.35,0-23,0-17.93.1-35.87,0-53.8,0-7.43-.15-14.86-.29-22.28-.14-7.62-.31-15.23-.64-22.84-.41-9.49-.77-19-1.6-28.45-.39-4.44-.95-8.86-1.66-13.26a52.35,52.35,0,0,0-3.3-12.29,16,16,0,0,0-1.05-1.89,5.57,5.57,0,0,0-1.36-1.5,3.06,3.06,0,0,0-1.55-.55.75.75,0,0,0-.21,0Z"/><path class="cls-1" d="M12,34.43c2.27,1.78,4.57,3.51,6.94,5.16s5.14,3.34,7.78,4.89c0,0,0,0,0,0-2.41-1.81-4.84-3.57-7.33-5.26S14.54,36,12.06,34.41h0a0,0,0,0,0,0,0Z"/><path class="cls-1" d="M201.75,4.6c-3.27.06-6.54.08-9.8.13l-37.62.47c-5.76.07-11.51.23-17.26.38C124,5.92,111,6.35,97.9,7c-29.23,1.39-58.41,3.41-87.57,5.77,0,0,0,0,0,0,7,.3,14.07.61,21.11.79q7.62.21,15.24.35,18,.34,36.09.36c19,0,37.94-.58,56.9-1.25,18.27-.65,36.55-1,54.83-1.51,6.54-.17,13.06-.27,19.6-.36l33.74-.47c9-.13,18.08-.14,27.13-.21,7.26-.05,14.52-.15,21.78-.12l36.94.14c6.05,0,12.1,0,18.16.12l37.6.56c6.48.1,13,.16,19.46.31l35.33.81c7.18.16,14.36.28,21.54.5,18.5.59,37,1.07,55.51,1.8l32.83,1.3c9.86.38,19.71.87,29.57,1.3q18.16.8,36.32,1.55,11.31.47,22.63,1l1.13,0c-.13,1.08-.12,2.2-.2,3.29-.47,6.31-.06,12.65-.25,19,0,1.14-.12,2.28-.19,3.42q-.22,4.09-.45,8.18-.5,9.15-1,18.3c-.11,2-.21,3.89-.43,5.83q-.84,7.58-1.68,15.16-1.57,14.17-3.15,28.34c-5.35,38.29-10.47,76.61-15.62,114.93-.79,5.88-1.46,11.76-2.16,17.64q-2.3,19.28-4.59,38.57c-2.16,18.12-3.93,36.28-5.84,54.42-1.94,18.48-3.68,37-5.47,55.47q-2.62,27.13-5.23,54.27-1.16,12.05-2.32,24.1c-.79,8.23-1.64,16.45-2.36,24.68q-1.55,17.57-3.1,35.13c-.28,3.16-.61,6.33-.84,9.5l-.76,10.69q-1.23,17.17-2.46,34.35c-.15,2.15-.23,4.3-.34,6.45q-.46,9.36-.92,18.71l-.89,18.12c-.1,2-.21,4-.26,6l-1,35.39c-.07,2.65-.18,5.31-.21,8q-.09,7.11-.18,14.22c-.11,8.86-.24,17.72-.33,26.59q-.16,15.67-.05,31.34c.07,10,.12,19.93.3,29.9.16,9.14.33,18.28.59,27.42.3,10.84.73,21.68,1.21,32.52,0,0,0,0,0,0,1.48-19.28,2.48-38.61,3.25-57.93.75-18.86,1.06-37.74,1.08-56.61q0-12,.05-24.07l.08-19.12c0-2.18,0-4.36.06-6.54q.38-17.84.75-35.68c.05-2.48.06-5,.17-7.44q.28-6.59.55-13.17.69-16.42,1.38-32.85c.11-2.55.31-5.1.48-7.65l1.22-19.37c.47-7.45.87-14.91,1.46-22.36l2.93-36.5c.55-6.91,1.19-13.82,1.82-20.73q1.43-15.76,2.86-31.52c.86-9.41,1.82-18.82,2.74-28.23.71-7.26,1.38-14.53,2.14-21.79q1.9-18.15,3.8-36.31c.64-6.09,1.27-12.17,2-18.25q2.21-18.78,4.41-37.57c.7-6,1.36-11.95,2.16-17.9q3.83-28.64,7.66-57.28v.12q8.46-57.53,16.9-115.07c.77-5.29,1.33-10.6,1.93-15.91l3.61-31.82c.09-.75.17-1.5.25-2.24.11-1,.09-1.95.14-2.91q.38-8.05.77-16.1.33-7,.66-13.94c.14-2.94,0-5.89-.11-8.82-.09-2.64-.17-5.27-.17-7.9,0-1.44.08-2.87.07-4.3,0-.61,0-1.21,0-1.81l1.43.07,3.86.2,3.2.16a6.67,6.67,0,0,1,1.07.13l.93.12a8.27,8.27,0,0,0,1.52-.27,2.93,2.93,0,0,0,2.09-2.09l0-.23a3.21,3.21,0,0,0-.3-2.3,2.93,2.93,0,0,0-1.78-1.37c-2.09-.46-4.19-.86-6.28-1.3q-1.58-.33-3.13-.77l-.87-.21a6.8,6.8,0,0,0-1.72-.36l-.91-.05a3.83,3.83,0,0,0-1.9.57l-.76.32a12.81,12.81,0,0,0-1.53,1.3l-.52.66-.08.17h-4c-2.31,0-4.62,0-6.93,0-8.8-.15-17.59-.27-26.39-.53s-17.8-.51-26.69-.86q-13.88-.54-27.77-1.08c-18.52-.75-37-1.5-55.57-2.17L464.78,9c-7.95-.29-15.89-.48-23.83-.72l-33.25-1c-7.14-.21-14.29-.35-21.43-.52L350,5.89c-6.46-.15-12.93-.23-19.39-.32L295.17,5c-7.85-.12-15.71-.13-23.56-.19-8.27-.06-16.54-.17-24.81-.18l-35.6,0c-2.2,0-4.4,0-6.6,0l-2.85,0Z"/><path class="cls-1" d="M447.75,788.18c-12,.15-24.06.12-36.09.15q-16.71,0-33.43,0-38.37-.18-76.75-.42c-14-.07-28-.05-42.05-.08-12,0-23.92.15-35.88.24-4.46,0-8.92,0-13.38.12l-21.18.61-20.76.59c-1.11,0-2.23.14-3.34.22l-10.84.79q-12.55.91-25.09,2c-1.49.13-3,.22-4.48.45l-6.4,1q-12.88,2-25.74,4.17l-9.58,1.64c-1,.18-2,.35-3,.6q-10.62,2.64-21.23,5.4L49,808.14c-4,1.06-7.91,2.43-11.84,3.73,0,0,0,0,0,0,2-.43,4-.87,6.06-1.31,1.38-.3,2.76-.61,4.15-.84l2.58-.41q6-1,11.94-1.94,9.94-1.64,19.87-3.37,20.38-2.12,40.72-4.7c1.11-.14,2.23-.33,3.36-.41l7.46-.52c8.75-.63,17.5-1.35,26.25-2.1l7.79-.67c1.1-.09,2.2-.11,3.3-.16l24.49-1,11.56-.48c1.4-.06,2.8-.15,4.2-.18l18.61-.36c11.48-.22,23-.48,34.45-.55,12.86-.09,25.71-.24,38.57-.25q40.79,0,81.58,0c22.92,0,45.84-.06,68.76-.32l37.47-.4q12.22-.14,24.43-.39c5.27-.1,10.54-.15,15.8-.24,5.07-.09,10.13-.23,15.2-.3q5.79-.07,11.57-.19c2.34,0,4.69-.14,7-.15,6,0,12-.14,17.93-.18,2.84,0,5.67,0,8.5-.08l3.9-.05c1.94,0,3.89-.11,5.82.07h0l.74.17s0,0,0,0a22.38,22.38,0,0,0-5.61-.91c-1.43-.14-2.87-.26-4.31-.37-3.19-.24-6.38-.44-9.58-.62q-8.82-.5-17.66-.69c-13.18-.29-26.36-.4-39.55-.43h-4.42c-24.12,0-48.23.38-72.34.68Z"/><path class="cls-1" d="M89.27,233.44Q89.11,243,89,252.49q-.06,6.46-.07,12.93,0,6,0,11.94.05,6.93.13,13.85c0,2.93,0,5.85-.08,8.78a0,0,0,0,0,0,0c.28-4.53.38-9.05.43-13.59q.08-6.45.11-12.9,0-7.26,0-14.51,0-6.75-.12-13.5-.08-6-.18-12.05h0Z"/><path class="cls-1" d="M79.19,234.63c-1,27.57-1.32,55.19-.44,82.77.29,9.18.46,18.35.91,27.52.67,13.88,1.76,27.73,2.7,41.6,1.31,19.33,2.45,38.68,3.86,58,1.58,21.8,3.09,43.61,4.85,65.39,1,12.27,2,24.53,3,36.8s2.13,24.42,3.2,36.63q2.64,30.29,6.46,60.46.9,7.2,1.87,14.39c0,.28.07.55.11.83,2.3,17.11,5,34.17,8.42,51.09,0,0,0,0,0,0-.09-10.56-.75-21.09-1.25-31.64-.25-5.27-.61-10.54-.86-15.81q-.48-10.21-1.1-20.43c-.7-11.62-1.25-23.25-2.06-34.87q-.93-13.4-1.93-26.8-.87-11.87-1.75-23.72c-.25-3.45-.56-6.9-.76-10.36q-1.14-19.55-2.27-39.11c-1.23-21.11-2.07-42.23-3-63.35-.89-19.61-1.3-39.25-2.24-58.86-.68-14.37-1.23-28.76-2.23-43.12-.59-8.47-1.18-17-2.18-25.41Q90.09,296.7,87,276.86q-1.45-9.28-3.07-18.52c-1.39-7.94-3-15.83-4.7-23.71h0Z"/><path class="cls-1" d="M218.65,235.77a41.6,41.6,0,0,1-4.52,1.44c-2.74.7-5.47,1.35-8.23,2-2.3.51-4.61,1-6.92,1.44-2.58.5-5.16,1.07-7.75,1.5l-8.93,1.51c-2,.35-4,.75-6.05,1.05q-8.27,1.22-16.54,2.53-8.88,1.08-17.74,2.25c-4.72.62-9.46,1.09-14.19,1.61-4.92.54-9.84,1.15-14.77,1.64q-9.29.92-18.57,1.91c-3.45.36-6.9.7-10.36,1q-2.81.22-5.62.29c-1.62,0-3.24-.06-4.86-.11q.44-.22.89-.4l.87-.16a0,0,0,0,0,0,0,7.59,7.59,0,0,0-2.38.57c-.12,0-.17.27,0,.3,1.53.21,3.05.48,4.58.66,1.86.22,3.71.33,5.58.41,3.76.17,7.55.17,11.31.17l7.71,0c5.07,0,10.14,0,15.21-.16q10.28-.29,20.56-.68c5.34-.2,10.68-.68,16-1.07q13.83-1,27.58-3c10.31-1.49,20.59-3.22,30.89-4.79l-.53.07c1.34-.18,2.7-.38,4-.55q0,1.52,0,3-.05,5.18-.11,10.36c-.05,5.14-.14,10.28-.21,15.41q-.23,16.22-.61,32.44c-.23,10-.48,19.92-.57,29.88q-.12,11.78-.23,23.56c0,4.48-.15,9-.13,13.46q.08,18.78.13,37.56c0,9.13.19,18.25.36,27.39.19,10.34.21,20.7.64,31q.8,18.84,1.6,37.68c.2,4.88.62,9.76.93,14.63L219,544.47c.24,3.79.62,7.58.95,11.36.63,7.18,1.22,14.36,1.91,21.53.4,4.11,1,8.2,1.53,12.3q1.31,9.83,2.77,19.65c.84,5.61,1.91,11.2,2.93,16.79q1.25,6.84,2.69,13.63c1.89,8.89,3.94,17.74,6.24,26.54A233.57,233.57,0,0,0,246,692.1s0,0,0,0c-.57-5.56-.92-11.14-1.48-16.7q-.74-7.31-1.54-14.61c-.59-5.32-1.23-10.64-1.85-16-.58-5-1.29-10-1.82-15q-1.09-10.32-2.39-20.63c-.57-4.54-.91-9.11-1.39-13.66q-.6-5.75-1.26-11.5c-.19-1.64-.44-3.28-.57-4.92-.47-5.83-1-11.66-1.54-17.48q-.51-5.55-1-11.1c-.14-1.49-.32-3-.41-4.48q-.46-8.26-.93-16.52-.55-9.84-1.11-19.69c-.21-3.66-.2-7.33-.29-11l-.55-23.48c-.07-3.05-.18-6.11-.16-9.17q.17-20.41.33-40.83c.08-10.19.46-20.37.71-30.55.23-9.26.45-18.52.77-27.78q1.31-37,2.81-74c.35-8.51.34-17.05.48-25.57.05-3.14.11-6.27.05-9.41l-.18-9.13,0-2.49c0-.86-.11-1.73-.16-2.59,0-.55,0-1.11,0-1.66,0-.28,0-.55,0-.82q-.08-.75-.19-1.5a7.44,7.44,0,0,0-1-3.57,7.55,7.55,0,0,0-4.47-3.43,7.09,7.09,0,0,0-1.88-.25,7.82,7.82,0,0,0-6.28,3.14ZM74.49,255.37h0Z"/><path class="cls-1" d="M275.61,676.25c-6.75,1.3-13.59,2.1-20.4,3.05l-8.3.72c-2.34.21-4.71.18-7.05.26-5.44.18-10.89.3-16.33.45-5.21.15-10.42.32-15.63.54-4.49.19-9,.54-13.44.89-11.89.94-23.72,2.31-35.49,4.25-5,.83-10,1.88-15,3.07a133.08,133.08,0,0,0-14.68,4.34,107.64,107.64,0,0,0-12.57,5.27,31.47,31.47,0,0,0-5.5,3.61,26.23,26.23,0,0,0-3.89,4.56l.08-.1c-.46.59-.92,1.16-1.39,1.73a.34.34,0,0,0,0,.46c.53.55,1,1.1,1.58,1.64a5.46,5.46,0,0,0,1.46,1,0,0,0,1,0,0,0l-.4-.3h0a3.91,3.91,0,0,1-.86-.88h0c-.39-.53-.76-1.08-1.14-1.62,1.57-1.4,3-2.93,4.65-4.28a22.94,22.94,0,0,1,4.47-2.5,94.31,94.31,0,0,1,13.81-4,151.14,151.14,0,0,1,15.23-2.75c7.43-1,14.88-1.71,22.35-2.31,4.63-.37,9.26-.79,13.89-1.13,6.68-.5,13.34-1.16,20-1.88,4.63-.5,9.27-.95,13.9-1.44,5.2-.55,10.39-1.18,15.57-1.84,3.65-.47,7.28-1,10.91-1.59l3.71-.6c.56-.09,1.14-.15,1.69-.28L253.4,683c3.41-.8,6.75-1.82,10.09-2.85,4.06-1.25,8.13-2.46,12.12-3.92,0,0,0,0,0,0Zm-130,19.29-.5.07.5-.07Zm-37,16.14h0Zm-.84-.86h0Z"/><path class="cls-1" d="M71.22,58.28C70.43,66.86,69.77,75.44,69,84q-.94,10.42-1.68,20.86-.81,11.32-1.39,22.66c-.15,2.85-.24,5.71-.44,8.55-.8,11.61-1.33,23.22-1.79,34.84-.45,11.42-.59,22.84-1.09,34.26-.06,1.48-.17,3-.26,4.43-.1,1.64-.31,3.3-.25,4.95a7.24,7.24,0,0,0,3.52,6.14,7.1,7.1,0,0,0,3.59,1l1.89-.25a7.06,7.06,0,0,0,3.14-1.83A8.73,8.73,0,0,0,76,217.3c.3-.32.61-.63.94-.93a25.87,25.87,0,0,1,3.38-1.94,72.21,72.21,0,0,1,15.33-3.59c3.9-.5,7.8-.9,11.72-1.13l11-.65c4.43-.26,8.85-.56,13.28-.73,10.95-.44,21.89-.82,32.83-1.35s22.07-1,33.09-1.63c11.78-.68,23.55-1.44,35.33-2l38-2c3.21-.17,6.43-.26,9.64-.37l23.45-.82c10.21-.36,20.42-.49,30.64-.65l16.64-.26c4.73-.08,9.46,0,14.18,0,10.76,0,21.52,0,32.28.12,11.36.16,22.73.38,34.09.46,22.45.16,44.89-.42,67.33-1.11q8.81-.27,17.61-.57c3.3-.11,6.58-.29,9.88-.53a48.56,48.56,0,0,0,5-.72,13.21,13.21,0,0,0,4.69-1.76,16,16,0,0,0,3.22-2.83s0,0,0,0a19.7,19.7,0,0,1-3.57,2.14,14,14,0,0,1-2.75.71,68.07,68.07,0,0,1-10-.16c-2.6-.16-5.19-.39-7.78-.57-5.56-.39-11.12-.77-16.69-1.07-10.35-.58-20.71-1-31.07-1.41q-18.12-.72-36.25-1.22c-11.35-.31-22.7-.46-34.05-.68-21-.39-42.1-.45-63.15-.39-10.2,0-20.38,0-30.57.24-11,.21-21.94.28-32.9.67q-36.69,1.31-73.37,2.79c-11,.45-22.1.71-33.15,1.05s-21.85.54-32.77.8c-7.16.17-14.32.57-21.48.88-5.76.25-11.49.66-17.21,1.41a77.72,77.72,0,0,0-16.25,3.51l-.1,0q.07-1.47.14-2.93.44-8.29.88-16.57c.25-4.59.49-9.18.57-13.77q.21-11.12.15-22.23c0-3.77,0-7.55-.14-11.32Q77.54,126.1,77,118,75.8,99,73.94,80c-.71-7.25-1.73-14.48-2.69-21.7h0Z"/><path class="cls-1" d="M554.56,78.64c-1.56,3.22-3.23,6.38-4.71,9.63a70.93,70.93,0,0,0-3.78,10.9c-1,3.59-1.7,7.24-2.39,10.89-.39,2-.79,4.08-1.09,6.14-1,7-1.89,14-2.58,21.09-.51,5.22-.66,10.48-.79,15.72-.14,5.45-.11,10.89,0,16.34.1,5,.27,10,.66,15a113.42,113.42,0,0,0,1.4,12.54,31,31,0,0,0,5.21,11.8s0,0,0,0a41.61,41.61,0,0,1-1.7-7.56c-.49-4.88.18-9.77.62-14.63.24-2.62.51-5.24.78-7.86.62-6,1.27-12,1.82-18.05.51-5.57,1.16-11.13,1.59-16.71q.56-7.25,1-14.52.34-6.11.51-12.22c.09-3.26.3-6.53.45-9.79.21-4.78.49-9.57,1.1-14.32.7-4.58,1.84-9.08,2.69-13.62a13.43,13.43,0,0,1,1.85.53l.54.49s0,0,0,0c.16.27-.26-.54-.44-.68a15.89,15.89,0,0,0-2.11-1.28.5.5,0,0,0-.24-.06.43.43,0,0,0-.39.22Zm-9.79,122.29,0,.16,0-.16Z"/><path class="cls-1" d="M161.89,64.14q-9.75,0-19.5.16c-1,0-1.9.06-2.86.11l-9.62.52q-8.6.49-17.19,1.07c-1.51.1-3,.32-4.53.48q-5,.53-9.94,1.08-10.08,1.13-20.13,2.5s0,0,0,0l23-.25c4.41-.05,8.82-.22,13.23-.15q10.44.15,20.88.17h6.15c1.34,0,2.7.09,4,.14q11,.38,21.92.61c3.43.07,6.88.07,10.31.24,12.29.63,24.59,1.05,36.89,1.52,3.72.14,7.45.37,11.17.55L248.26,74l28.36,1.39c9.37.45,18.73.92,28.1,1.3,11.27.46,22.54,1,33.81,1.38l36.71,1.28c10.75.37,21.49.84,32.24,1.27,10.3.41,20.59,1,30.88,1.46,4.73.23,9.46.55,14.18.8,4.54.24,9.08.46,13.62.71,10.9.59,21.81,1.07,32.71,1.52,10.59.43,21.2.84,31.8.82,4.57,0,9.14-.07,13.71-.21,2.27-.07,4.55-.16,6.82-.27,2.49-.13,5-.32,7.48-.34,0,0,0,0,0,0-2.59-.38-5.2-.59-7.81-.8s-5.18-.39-7.77-.55c-5-.32-9.94-.65-14.91-1C518,82,507.7,81.27,497.44,80.53q-17.15-1.24-34.32-2.3c-9.36-.58-18.72-1.13-28.09-1.55q-31.42-1.39-62.84-2.62c-11.41-.44-22.82-.79-34.23-1.32L300.62,71c-9.9-.46-19.8-1.09-29.69-1.65q-13.81-.79-27.61-1.62c-10.33-.63-20.66-1.34-31-1.87-12-.62-24.07-1.24-36.11-1.7-.91,0-1.82,0-2.72,0h-11.6Z"/><path class="cls-1" d="M268.15,264.5c-2.16,15-3.93,30.1-4.9,45.23-.25,3.88-.37,7.77-.6,11.64q-.56,9.59-.64,19.21c0,5.09.25,10.16.4,15.24.18,6.32.52,12.64,1,18.94.7,10.16,1.1,20.34,1.8,30.5q.12,1.78.27,3.55c.05.61.11,1.2.18,1.8s.14,1.07.22,1.6a6.68,6.68,0,0,0,.89,2.25c1.12,2.09,4.2,1,4.28-1.16,0-.8,0-1.6,0-2.4.74-5.17,1.7-10.33,2.5-15.49q1.43-9.21,2.6-18.46A272.73,272.73,0,0,0,278.38,348c.48-23.46-2.59-46.85-7.07-69.84-.9-4.59-2-9.14-3.13-13.69h0Z"/><path class="cls-1" d="M352.68,242.42q-4.78.21-9.55.45-11.78.62-23.54,1.5c-3.49.26-7,.46-10.46,1q-9.49,1.46-19,3.09-8.57,1.47-17.11,3.08c-6,1.13-11.87,2.66-17.78,4.17a0,0,0,0,0,0,0c4.85-.1,9.7-.4,14.55-.32l7,.09q11.7.11,23.39,0,4.49-.05,9-.14c.92,0,1.84-.08,2.76,0q8.27.35,16.55.58,11.33.31,22.65.36c3,0,6,.05,9,.16,7.59.27,15.18.39,22.78.47,3.64,0,7.29.05,10.93.19,11.31.43,22.63.75,33.93,1.39q18.22,1,36.41,2.21c21.55,1.43,43.14,2.63,64.66,4.55q3.42.3,6.84.64c-.48,1.73-.82,3.5-1.15,5.28a172.28,172.28,0,0,0-1.93,20.3c-.39,6.7-.8,13.39-1.08,20.09-.43,10.59-.87,21.19-1.09,31.79s-.27,21.3-.06,32,.61,21.36,1.71,32c.59,5.74,1.23,11.5,2.34,17.16a0,0,0,0,0,0,0c.3-4.67.85-9.32,1.37-14s.95-9.06,1.55-13.57l-.07.54v-.05c0-.28.07-.55.11-.82q.81-6,1.55-12.09,1.2-8.09,2.32-16.2c.79-5.83,1.78-11.64,2.61-17.47,1.62-11.36,3.11-22.73,4.37-34.13.57-5.12.9-10.28,1.24-15.42q.3-4.66.61-9.31c.35-5.3.54-10.62,1.18-15.89a51.76,51.76,0,0,1,1.2-6.56c2.52-.26,5.12-.5,7.3-1.85a8.44,8.44,0,0,0,4.12-7.18,8.25,8.25,0,0,0-1.14-4.2,8.08,8.08,0,0,0-5-3.82,18.34,18.34,0,0,0-3.39-.39c-.34,0-.81.06-1.18.07l-2.22.1c-1.27.06-2.55.09-3.82.1-2.7,0-5.41,0-8.11,0q-7.71-.14-15.41-.48c-10.67-.49-21.35-1-32-1.65-23.23-1.51-46.45-3.32-69.67-5-5-.37-10.07-.62-15.11-.92-5.29-.32-10.6-.78-15.89-1-11.6-.4-23.19-.82-34.79-.9h-.13c-1.12,0-2.26.09-3.39.14Z"/><path class="cls-1" d="M504.68,408.34q-15.88,0-31.77.28c-9.86.17-19.7.52-29.56.69l-23,.4c-3.5.06-7,.19-10.49.17-13.05-.06-26.11,0-39.16.34q-14.73.36-29.45,1-9.23.41-18.45.93c-3.8.21-7.59.55-11.38.85-3.5.27-7,.63-10.47,1.11a57,57,0,0,0-11.35,2.58,20.45,20.45,0,0,0-5.7,2.89,0,0,0,0,0,0,0,10.22,10.22,0,0,1,.95-.48h0a37.54,37.54,0,0,1,6.74-1.75c7.5-.95,15.09-.5,22.62-.12,3.06.15,6.13.25,9.18.42q9.66.54,19.32,1c9.63.42,19.25.76,28.88,1,12.88.26,25.75.28,38.63.18,3.81,0,7.62-.24,11.43-.36l22.82-.74c10-.32,19.91-.93,29.86-1.61q15.9-1.08,31.78-2.35c4.64-.37,9.27-.82,13.91-1.11l10.17-.66c2.2-.14,4.4-.37,6.61-.44,5.63-.18,11.24-.4,16.87-.52,5.36-.11,10.73-.27,16.09-.23,0,0,0,0,0,0-5.34-.77-10.72-1.26-16.09-1.73-5.66-.5-11.32-.86-17-1.2-2.31-.14-4.64-.14-7-.2l-10.14-.25c-2.3-.05-4.6-.07-6.91-.07l-8,0Z"/><path class="cls-1" d="M274.52,471.63a264.66,264.66,0,0,0-9.64,45.89,142.36,142.36,0,0,0-.46,28.64c.69,8.34,1.78,16.62,3.17,24.86,1.17,6.92,2.51,13.85,4.33,20.63a.66.66,0,0,0,1.2.16,1.83,1.83,0,0,0,.21-1.16c.8-5.41,1.82-10.78,2.67-16.19q1.05-6.76,2.05-13.51c1.86-12.71,3.21-25.46,2.84-38.32a281.23,281.23,0,0,0-6.35-51h0Z"/><path class="cls-1" d="M387.83,469.15c-7.35.15-14.7.34-22,.69s-14.7.83-22,1.4c-2.49.19-5,.35-7.47.65q-19.36,2.37-38.61,5.56-8.82,1.46-17.6,3.12c-7.78,1.46-15.48,3.29-23.18,5.11,0,0,0,0,0,0,8.27.5,16.54.84,24.81,1.3q10.14.55,20.27.88,17.65.56,35.32.4c3.75,0,7.5.1,11.24.12q11.83,0,23.66-.31c9.09-.27,18.18-.82,27.27-1.16,7.66-.29,15.32-.54,23-.94,3.91-.21,7.82-.48,11.73-.7,11.24-.64,22.46-1.58,33.7-2.26q7.63-.46,15.26-1c1.71-.11,3.45-.09,5.17-.14l9.28-.28c4-.13,8,.12,12,.19,2.32,0,4.65.36,7,.54,1.94.15,3.87.42,5.8.64a41.2,41.2,0,0,1,8.65,1.81,14.24,14.24,0,0,1,2.62,1.55s0,0,0,0c-2.84-3.05-7-4.5-10.9-5.72-2.54-.79-5.06-1.57-7.63-2.23s-5-1.28-7.6-1.78-5.34-1.15-8-1.52l-10.22-1.37c-2.14-.28-4.28-.62-6.43-.82q-9.88-.93-19.76-1.76c-4.69-.39-9.39-.64-14.08-.91-5.27-.31-10.54-.66-15.81-.82-12.46-.38-24.93-.35-37.39-.37h-.18c-2.59,0-5.19.08-7.78.13Z"/><path class="cls-1" d="M534.48,585.15a1.18,1.18,0,0,1,.16.5l-.26.22a3.36,3.36,0,0,1-1,.27h0c-2.27.12-4.55.1-6.82.09h-3.32c-2.56,0-5.12.07-7.68.12-5.9.1-11.81.27-17.71.42-10.33.27-20.67.54-31,.66-5.84.07-11.68.27-17.52.34q-9.74.12-19.47.38c-11,.3-22,.75-33,1.18-4.81.19-9.62.45-14.43.68s-9.85.41-14.77.71c-10.89.68-21.79,1.38-32.64,2.45q-10.63,1.05-21.26,2.18c-4.43.47-8.84,1.25-13.25,1.92q-8.79,1.32-17.59,2.69c-.44.07-.88.2-1.31.3l-4.17,1L265.85,604l-7.61,1.81c-3.06.73-6,1.73-9,2.67,0,0,0,0,0,0,3.18-.7,6.32-1.44,9.54-1.93l9.43-1.44q7.6-1.17,15.18-2.37,8.6-.66,17.18-1.36l10-.81c1.08-.09,2.14-.17,3.22-.21,11-.39,22-.92,33.06-1.19q10.42-.25,20.84-.64c4.92-.18,9.85-.23,14.77-.35,11.77-.27,23.54-.42,35.31-.63,21.29-.39,42.58-1.29,63.77-3.36,8.74-.85,17.46-1.85,26.15-3.09q7.35-1.05,14.67-2.29,3.07-.52,6.14-1.08l2.11-.41c.55-.11,1.09-.23,1.63-.37a9.13,9.13,0,0,0,1.34-.35c.27-.11,1.19-.39,1.25-.84,0-.21-.16-.43-.27-.59h0a0,0,0,0,0,0,0Zm-1.09,1h0Z"/><path class="cls-1" d="M530.94,507c-1.72,1.38-2,4.16-2.53,6.16q-.53,2-1,3.93c-.66,2.58-1.32,5.17-1.87,7.78q-1.71,8.11-2.87,16.32c-.92,6.53-1.8,13-2.25,19.63-.37,5.52-.41,11-.26,16.57.42,15.14,1.71,30.47,5.66,45.13,0,0,0,0,0,0,.9-5.21,2.17-10.36,3.36-15.51,1.13-4.92,2.16-9.86,3.13-14.82,1.16-5.91,2.07-11.84,2.84-17.8a139.43,139.43,0,0,0,1.24-16.18A218.33,218.33,0,0,0,534,524.85q-.47-3.45-1-6.88c-.46-2.92-1.15-5.83-1.55-8.75q0-.2,0-.4l0,.12s0,0,0,0c.07-.55.13-1.11.2-1.66,0-.27-.19-.4-.41-.4a.5.5,0,0,0-.32.1Z"/><path class="cls-1" d="M269.53,643.43a9.19,9.19,0,0,0-2.5,1.08l-.91.43q-1.76.84-3.51,1.7a0,0,0,0,0,0,0c2.19-.47,4.37-1,6.54-1.5l-.21,0a4.67,4.67,0,0,1,1.4,0l-.25,0a4.08,4.08,0,0,1,1,.19l.23.13.24.27a5,5,0,0,1,.54,1.08l-.13-.31a20.84,20.84,0,0,1,.82,3.34c.15,1.61.16,3.21.17,4.83,0,1.88,0,3.76,0,5.64s0,3.91.05,5.87c.07,2.89.22,5.79.41,8.68.16,2.54.38,5.09.66,7.62a49.64,49.64,0,0,0,1.48,8.39s0,0,0,0c.16-3.72.82-7.43,1.17-11.14.32-3.42.53-6.85.64-10.28.07-2.08.09-4.16.06-6.25a68.84,68.84,0,0,0-.52-7.71,39.64,39.64,0,0,0-1.27-7,11.66,11.66,0,0,0-2.4-4.33,2.94,2.94,0,0,0-2.31-.88,9.46,9.46,0,0,0-1.44.14Z"/><path class="cls-1" d="M389.06,630.39c-13.67.11-27.34.81-41,1.95-9.53.79-19,2.19-28.42,3.68q-12,1.89-23.84,4.24c-8,1.57-15.83,3.48-23.7,5.49,0,0,0,0,0,0,5.95.86,11.91,1.61,17.87,2.38l1.37.19,1,.13q21.11,2.84,42.37,4.33c9,.63,17.93,1.3,26.89,1.72,10.41.49,20.85.71,31.27.56,11.46-.16,22.93-.94,34.35-1.88,22.92-1.89,45.76-4.69,68.62-7.2,7.33-.81,14.69-1.73,22.06-2a0,0,0,0,0,0,0c-5.45-1.37-11-2.24-16.57-3.11-4.86-.76-9.73-1.4-14.61-2-11.08-1.43-22.17-2.7-33.27-3.91-10.27-1.11-20.55-2.14-30.85-2.93-10.6-.81-21.26-1.6-31.9-1.6Z"/><path class="cls-1" d="M392.23,683.33c-8,.09-16,.36-24,.72-4,.18-8,.47-12.06.63q-17.77.74-35.5,2.12c-16.29,1.26-32.59,2.89-48.82,4.73a0,0,0,0,0,0,0c8.67,1.29,17.35,2.53,26.06,3.5q9.66,1.08,19.34,2,19.23,1.78,38.52,2.8c3.18.17,6.38.15,9.55.2q11.81.17,23.63,0c5.51-.09,11-.25,16.54-.44,4.23-.15,8.47-.56,12.69-.9q17.72-1.42,35.35-3.6c10.51-1.29,21-2.7,31.48-4.14q10.06-1.38,20.09-2.91,3.83-.59,7.63-1.24c1.54-.27,3.09-.53,4.62-.83l2.68-.54a5.58,5.58,0,0,0,2.73-.94s0,0,0,0l-.32.2-.52.1c-3.25.2-6.55,0-9.81,0q-3.55,0-7.09-.13l-17.31-.39c-10.3-.23-20.6-.42-30.9-.61q-21.07-.39-42.14-.4-11.23,0-22.46.13Z"/><path class="cls-1" d="M516.73,656.74c-1.67,2.17-2.28,4.93-2.89,7.55-.44,1.84-.79,3.7-1.07,5.57a44,44,0,0,0-.54,8.62,50.58,50.58,0,0,0,4.41,18.59s0,0,0,0c.11-1.14.26-2.27.4-3.41.53-3.33,1.1-6.66,1.53-10a58.58,58.58,0,0,0,.67-11.12,124.26,124.26,0,0,0-1.45-12.6,12.94,12.94,0,0,1,0-2.91h0a.53.53,0,0,0-.54-.54.62.62,0,0,0-.49.25Zm1,2.92,0,.16,0-.16Z"/><path class="cls-1" d="M657.75,0c-.57.09-1.53.13-2,.61a18.94,18.94,0,0,0-2.66,4.22c-.75,1.46-1.43,3-2.12,4.46a0,0,0,0,0,0,0c1.18-1.68,2.37-3.35,3.61-5a16.91,16.91,0,0,1,2.13-2.28l.39-.06.23,1.61a10.34,10.34,0,0,1-.09,2.56c0-.13,0-.26.05-.38a96,96,0,0,1-2.5,10.16q-1.07,3.9-2.11,7.8c-.87,3.26-1.72,6.52-2.59,9.78C648,41.45,645.89,49.39,644,57.37q-2,8.41-3.89,16.85c-.62,2.77-1.27,5.54-1.81,8.33q-2.73,14.16-5.07,28.4c-.5,3-.83,6.14-1.24,9.2q-1.18,8.84-2.37,17.69c-.35,2.61-.76,5.21-1,7.83q-.71,6.95-1.41,13.91c-.77,7.53-1.6,15.06-2.19,22.61l-2.19,28.07c-1.34,17.06-2.37,34.14-3.6,51.21-1.12,15.57-2.23,31.14-3.42,46.71q-2.14,28-4.47,55.9c-1.34,16-2.86,32-4.27,48.05-2.92,33.21-5.55,66.43-7.36,99.72-.92,17.09-1.69,34.18-2.48,51.27-.81,17.37-1.86,34.71-3,52.06-.53,8.11-1.24,16.21-1.86,24.31-.6,7.75-1.1,15.49-1.62,23.24-.54,8-.86,16-1.39,23.95q-.46,6.88-.79,13.77c-.23,4.57-.68,9.14-.95,13.72-.23,3.91-.69,7.82-1,11.73-.3,3.75-.78,7.48-1.13,11.23-.37,4-.91,8-1.33,12-.38,3.59-.75,7.18-1.12,10.76a19.17,19.17,0,0,1-.56,2.93l-.13.27-.1.1s0,0,0,0c.57-.27,1-1.12,1.28-1.61a19,19,0,0,0,1.05-2c.77-1.62,1.48-3.27,2.15-4.94,1.5-3.74,2.88-7.53,4.16-11.35,2.84-8.43,5.11-17,7.13-25.66,1.75-7.5,3.05-15.12,4.28-22.71,1.53-9.46,2.76-18.94,3.84-28.46,1-8.38,1.7-16.79,2.32-25.2.58-7.92.93-15.87,1.39-23.8.43-7.41.69-14.83,1-22.24.32-8.4.69-16.8.93-25.2,1-33.87,1.64-67.77,3.58-101.6q1.41-24.69,3.28-49.35c1.31-17.17,2.72-34.33,4.06-51.49,2.57-33,4.89-66.05,7.21-99.09q2-28,3.93-56.1c.55-7.95,1.27-15.88,1.91-23.82.59-7.18,1.26-14.33,2-21.49s1.54-14.49,2.32-21.73q1.86-13.26,3.71-26.52c1.07-7.65,2.5-15.25,3.7-22.88,2.52-16,5.08-32,7.51-48,.91-6,1.8-12,2.59-18q.83-6.25,1.59-12.49c.18-1.49.34-3,.52-4.46a55.55,55.55,0,0,0,.49-6.73A18,18,0,0,0,659,.72,1,1,0,0,0,658,0l-.23,0Zm-3,4.21-.06.07.06-.07ZM582.3,763.05h0Z"/><path class="cls-1" d="M518.17,776.45c-5.81.1-11.62.15-17.43.28-5.54.13-11.07.13-16.61.21-5.15.07-10.3.15-15.45.18-5.63,0-11.26.2-16.89.26l-21.88.23c-10.17.11-20.34.05-30.51,0q-18.13,0-36.25-.12-37.31-.19-74.62-.37c-22.79-.09-45.57,0-68.35.16-5.86,0-11.72.16-17.58.23-4.83.07-9.66.1-14.49.2-11.82.26-23.64.47-35.46.81-24.09.7-48.18,1.8-72.27,2.63-6.14.21-12.27.38-18.41.55-2.69.08-5.38.09-8.07.16l-3.2.05a54.06,54.06,0,0,1-6.49,0q-.39-.09-.77-.22l0-.06.31-.15c.52-.14,1-.26,1.56-.37a0,0,0,0,0,0,0H44.9a4.48,4.48,0,0,0-1.2.09c-.52.15-.4.06-.76.46a.23.23,0,0,0,0,.35,14.68,14.68,0,0,0,5.36,1.17c1.53.16,3.05.31,4.58.45,2.71.23,5.43.46,8.14.64q9.12.62,18.25,1,16.59.69,33.21.93,19.58.28,39.16.09c12-.12,24-.34,35.93-.52,10.83-.16,21.67-.09,32.5-.13,6.2,0,12.41.08,18.62.13,4.63,0,9.25,0,13.88.1q35.87.46,71.73,1.15,37.23.73,74.46,1.38c10.18.18,20.36.38,30.54.44,12.78.07,25.55.21,38.32-.08,5.15-.12,10.28-.32,15.43-.6,5.6-.31,11.2-.62,16.78-1.13,5.87-.53,11.73-1.07,17.59-1.75s11.59-1.48,17.4-2.14q5.71-.64,11.41-1.35l5.12-.64c.62-.08,1.24-.19,1.87-.23q5.14-.32,10.27-.68l5.55-.4c1.87-.14,3.73-.14,5.61-.16,0,0,0,0,0,0-1.69-.33-3.38-.7-5.09-.9l-5.05-.6q-5.48-.64-11-1.23c-2.09-.23-4.21-.19-6.31-.25q-5.92-.19-11.83-.31-2.33,0-4.66,0c-4.21,0-8.42.09-12.62.17Z"/><path class="cls-1" d="M14.55,12.22c-.68,12.19-1.1,24.38-1.42,36.59-.23,8.47-.23,16.93-.18,25.4,0,3.54,0,7.09.11,10.63q.29,8.16.66,16.31c.41,9.1,1,18.18,1.75,27.27.7,8.92,1.58,17.82,2.4,26.73.33,3.53.77,7.05,1.17,10.57.54,4.7,1,9.41,1.63,14.09,1.16,8.63,2.3,17.27,3.54,25.89q2.05,14.19,4,28.38l1.19,8.76c.92,8.15,2,16.3,2.65,24.49l1.28,16.78c.29,3.79.34,7.6.5,11.39s.4,7.64.45,11.45q.1,8.44.2,16.89c0,3.68-.06,7.36-.13,11-.07,4-.07,8.1-.24,12.14-.83,18.88-1.8,37.75-2.64,56.63-.75,16.92-1.16,33.86-1.45,50.79-.17,9.62-.2,19.24-.21,28.86,0,3.63.16,7.26.29,10.89.14,4.12.16,8.26.45,12.37.6,8.72,1.16,17.45,1.86,26.16q1.11,13.83,2.14,27.67.51,7,1,13.91c.33,4.51.49,9,.74,13.56.23,4.26.56,8.52.69,12.79l.42,14q.2,6.6.4,13.21c.13,4.36.08,8.73.12,13.09q.06,6.92.12,13.85c0,4.24-.14,8.5-.2,12.73q-.11,6.76-.22,13.51c0,1.35-.13,2.71-.2,4.06l-.48,9.66c-.19,3.88-.27,7.77-.53,11.64q-.54,8-1,16c-.48,9-1,18-1.35,27-.32,7.66-.53,15.33-.76,23-.48,15.74-.82,31.54,0,47.27,0,0,0,0,0,0q4.75-25,8.32-50.3c2.64-18.93,5-37.92,6.71-57,.83-9.07,1.17-18.16,1.59-27.26s.42-17.94.57-26.91-.05-17.71-.12-26.55S50,613.89,49.72,605s-.91-17.84-1.43-26.75-1.37-17.75-2.1-26.61c-.68-8.18-1.5-16.35-2.27-24.52-.43-4.57-.78-9.15-1.17-13.73-.29-3.44-.61-6.87-.79-10.32q-.45-8.42-.89-16.84c-.21-4.12-.17-8.26-.24-12.38-.16-9.11-.15-18.21-.16-27.33,0-17.41.44-34.83,1-52.23.3-9.15.69-18.3,1.06-27.45.16-4,.28-8.06.42-12.1.13-3.71.29-7.41.32-11.12q.06-8.43.14-16.85c0-4.1-.16-8.21-.25-12.31-.08-3.56-.12-7.12-.3-10.67l-.89-17.11c-.18-3.54-.56-7.08-.87-10.61q-.39-4.38-.77-8.77c-.11-1.2-.18-2.41-.33-3.62-1.11-8.87-2.13-17.77-3.43-26.62q-2.07-14.14-4.22-28.27c-1.43-9.3-2.76-18.61-4.07-27.92l-.34-2.47c-.93-8.08-2-16.15-2.72-24.25-.8-9-1.61-18.09-2.31-27.15s-1.51-18.26-2.23-27.39q-.6-7.6-1.26-15.19c-.34-3.93-.52-7.88-.79-11.82-.57-8.18-1.19-16.35-1.72-24.53-.79-12-1.7-23.92-2.55-35.88h0Z"/><path class="cls-1" d="M106.42,8.35q-8.2.17-16.39.46c-6.8.23-13.58.65-20.37,1.1C58,10.68,46.4,11.66,34.79,12.79c-5.36.52-10.73.92-16.1,1.41-2,.18-4,.34-6,.46L7.1,15l-1.24.08c-.44,0-.87.07-1.31.12l-.26,0C3,15.23,1.8,15.21.56,15.2a.59.59,0,0,0-.3,1.09c1.13.82,3,.71,4.28.77.85,0,1.7.11,2.55.18l7.73.59c3.66.27,7.36.32,11,.44,8,.27,16.06.32,24.1.31,13.95,0,27.89-.24,41.83-.37q8.23-.08,16.47-.27c2.46-.06,4.93-.17,7.4-.2l27.86-.37c14.41-.2,28.84-.16,43.25-.18,8,0,16,.08,24,.12,6,0,11.94,0,17.91.11,15.58.18,31.16.32,46.73.58q24.25.41,48.49.77t48.68.5c31.21.21,62.41.29,93.63.46q44.78.24,89.57.82c15,.2,30,.49,45,.52,16,0,32-.2,48-.77,7.23-.26,14.47-.55,21.71-.82L682.56,19c3.21-.13,6.48-.32,9.71-.22a53.89,53.89,0,0,1-6.12,1.75c-2.06.49-4.13,1-6.21,1.35,0,0,0,0,0,0,4.11-.14,8.25-.3,12.34-.76a12.62,12.62,0,0,0,4.22-1.25,2.1,2.1,0,0,0,1.16-2.23A2.55,2.55,0,0,0,696,15.73a9.2,9.2,0,0,0-2.28-.53c-.72-.13-1.45-.19-2.18-.25-7.84-.67-15.76-.71-23.63-.82C661.26,14,654.64,14,648,13.94c-3.82,0-7.64,0-11.46,0s-7.46,0-11.19,0c-17.05-.13-34.11,0-51.17.09-13.35.05-26.71,0-40.06-.09q-49.45-.24-98.9-.57L389.48,13c-6.31,0-12.62-.16-18.93-.25-7.89-.11-15.8-.14-23.69-.32-14.38-.34-28.77-.58-43.14-1-15.41-.42-30.81-.87-46.22-1.23q-24.38-.58-48.76-1.07Q184,8.69,159.29,8.4c-14.64-.18-29.27-.15-43.91-.2H115c-2.87,0-5.74.09-8.6.15Z"/><path class="cls-1" d="M657.77,19.25c-2,5.64-4.08,11.24-5.72,17q-1.28,4.48-2.54,9-4,14.37-7.81,28.82-1.41,5.4-2.79,10.8c-.27,1-.57,2.08-.77,3.14q-1.8,9.26-3.5,18.55c-2.93,16.07-5.52,32.19-8.1,48.32-.8,5-1.43,10.07-2.11,15.11q-2,14.84-3.83,29.7c-1.61,12.91-3.1,25.84-4.64,38.77q-1.86,15.6-3.74,31.2s0,0,0,0c1.35-7.72,2.87-15.41,4.36-23.11q1.8-9.25,3.62-18.5c2.67-13.62,5.33-27.23,7.89-40.87,2.26-12.08,4.38-24.19,6.54-36.29,1.6-9,3.22-17.93,4.72-26.91q2.3-13.73,4.35-27.5.49-3.3,1-6.61c.15-1,.38-2.06.58-3.09q2.51-12.91,4.84-25.87,1.8-10.07,3.49-20.16.4-2.39.79-4.78c.29-1.72.66-3.43,1-5.15.78-3.84,1.62-7.67,2.39-11.52a0,0,0,0,0,0,0Z"/><path class="cls-1" d="M591.11,652.53c-.49,0-1,.07-1.47.07-.86,0-1.73.11-2.59.17,0,0,0,0,0,0,1.57.06,3.13.12,4.69.23l.48.18a4.34,4.34,0,0,1,.78.84l-.05-.07a12,12,0,0,1,.94,1.79l0-.11a36.11,36.11,0,0,1,1.71,7.43,96.05,96.05,0,0,1,0,14.43c-.21,4.92-.85,9.82-1.5,14.7h0v0l-.07.54v-.11q-.27,2-.53,3.92l.08-.62q-1.49,9.08-2.93,18.16c-.79,5-1.82,10-2.75,15q-2.95,15.77-6.32,31.46-2.59,12-5.55,23.95c-.91,3.66-1.8,7.34-2.87,11l0,.08c-6.94.71-13.89,1.33-20.83,2-5.1.49-10.22.82-15.34,1.22-4.6.36-9.2.81-13.81,1.06L501.91,801c-3.86.21-7.73.45-11.59.57-11.21.35-22.4.89-33.61,1.39q-10.54.47-21.07,1c-5.11.27-10.21.78-15.3,1.18l-8.68.7c-2,.16-4,.46-6,.7q-8.77,1-17.54,2.12c-5.89.73-11.8,1.4-17.66,2.37,0,0,0,0,0,0,5.71-.44,11.45-.55,17.18-.72s11.7-.32,17.55-.46c2.12-.05,4.25-.17,6.37-.15l8.32.08c5.2,0,10.41,0,15.61.13,10.77.31,21.55.63,32.33.68q11.12.05,22.23-.08c3.82,0,7.63-.22,11.45-.37l21.48-.87c4.52-.18,9-.59,13.53-.91,5.21-.36,10.45-.61,15.65-1.11l18.06-1.73a15.68,15.68,0,0,0-.46,4,8.24,8.24,0,0,0,2.71,6,7.75,7.75,0,0,0,3.44,2,7.63,7.63,0,0,0,6-.79,9.64,9.64,0,0,0,3.07-2.95,8.3,8.3,0,0,0,.62-1.25c.36-.81.7-1.64,1-2.47s.76-1.69,1.16-2.54a23.66,23.66,0,0,1,1.71-2.84c.26-.32.52-.63.8-.93.45-.47.92-.89,1.4-1.31l.26-.06a18.74,18.74,0,0,0,2.93-1,4.28,4.28,0,1,0-2.3-8.25l0,0-.62.08c-1.27.15-2.53.36-3.79.55l-2.25.28c.41-4.21,1-8.42,1.52-12.61,1.6-10.62,3.36-21.21,4.87-31.84.76-5.37,1.51-10.75,2.18-16.14q.71-5.74,1.39-11.48c.2-1.69.44-3.38.59-5.08.69-7.74,1.48-15.49,1.89-23.25.25-4.77.45-9.54.36-14.31a114,114,0,0,0-1-14,37,37,0,0,0-1.39-5.88,25.74,25.74,0,0,0-2-4.82,7.42,7.42,0,0,0-1.27-1.58,2.07,2.07,0,0,0-1.18-.59l-.33,0a2.38,2.38,0,0,0-.43,0ZM587.6,780.22q-.06.48-.13,1l.13-1ZM594,692.68l.06-.43v0l-.06.46Z"/><path class="cls-1" d="M153.06,69.43q-10.07.09-20.13.24c-1.3,0-2.6.05-3.9.11l-10.73.48-7.42.35c-.63,0-1.25.1-1.88.15l-5.32.42-8.52.69c-1.39.11-2.77.28-4.15.43l-9,1q-1.84.21-3.68.45c-1.48.19-2.95.36-4.43.46-.8.06-1.6.07-2.4.12a11.41,11.41,0,0,1-2.16-.08l-.61-.18-.33-.21-.55-.53.18-.28h0l.29-.37A16.66,16.66,0,0,1,71.57,71l0,0A11.39,11.39,0,0,1,73,70.59q.6-.16,1.22-.26h0c.91-.12,1.82-.18,2.72-.25,0,0,0,0,0,0-.91,0-1.82,0-2.73.11a13,13,0,0,0-2.75.59A19.18,19.18,0,0,0,68.57,72a3.53,3.53,0,0,0-1.3,1.29.29.29,0,0,0,0,.35,6.18,6.18,0,0,0,.75.81,2.67,2.67,0,0,0,1.14.55,7.55,7.55,0,0,0,1.56.21c.5,0,1,0,1.54,0H73c2.79,0,5.55-.26,8.33-.45l10.06-.66c5.39-.36,10.79-.5,16.18-.72,1.54-.07,3.08-.14,4.62-.16l10.34-.15,8.24-.14c1.76,0,3.53,0,5.29,0q9,.09,18,.13c.5,0,1,0,1.5.06l4.26.17q5.74.23,11.48.44c3.95.14,7.89.25,11.84.46l21.43,1.16c21.14,1.14,42.29,2.11,63.44,3.07,11.21.52,22.42.93,33.63,1.39,9.91.41,19.83.65,29.74.94l15.71.46c4.31.13,8.63.16,12.93.24q15.52.29,31,.57c10.82.19,21.65.33,32.48.62q10.49.29,21,.55c4.18.1,8.36.29,12.54.44l11.17.39c1.49.05,3,.08,4.47.15q9.49.47,19,.91c5.08.23,10.14.68,15.21,1,1.76.12,3.52.24,5.27.42l10.39,1.09,1.4.14h0l.31,0h0l10,1.34h-.1c5.34.74,10.7,1.41,16,2.35a0,0,0,0,0,0,0c-3-.67-5.95-1.23-8.93-1.8q-3.49-.67-7-1.28l-9.2-1.61c-2.12-.37-4.27-.63-6.41-.94l-5.3-.74c-.92-.13-1.84-.29-2.76-.39l-7.82-.8-8.7-.88c-1.93-.19-3.87-.29-5.8-.43L477,81.85c-1.59-.11-3.18-.25-4.77-.33q-9.6-.52-19.2-1c-3.76-.19-7.52-.36-11.29-.48-7.1-.23-14.2-.44-21.3-.65-3.56-.11-7.12-.17-10.69-.25l-21.81-.46Q372,78.35,356.07,78c-3.35-.07-6.71-.12-10.06-.23l-18.91-.61-18.91-.61c-3.33-.11-6.66-.28-10-.42-21.54-.94-43.08-1.89-64.61-3q-16.41-.84-32.81-1.72l-19.63-1.07c-1.16-.06-2.33-.09-3.5-.13l-10.6-.37-10.42-.32c-1.09,0-2.17-.07-3.25-.07ZM68.33,72.74l0,0,0,0ZM524.26,87.87l-.12,0,.12,0Zm-.27,0h0ZM74.2,70.33h0Z"/><path class="cls-1" d="M554.77,78.38A4.17,4.17,0,0,0,552.26,80,16.41,16.41,0,0,0,550,83.5,51.3,51.3,0,0,0,546.59,92c-2,6.21-3.39,12.59-4.8,19-.37,1.71-.68,3.43-1,5.14-.61,3.17-1.22,6.34-1.8,9.52q-1,5.27-1.75,10.55-1,6.85-1.92,13.71v-.07l0,.31,0,.19v-.07c-.27,2.09-.47,4.18-.69,6.27q-.25,2.3-.48,4.59c-.07.67-.16,1.34-.2,2q-.28,3.82-.53,7.64c-.14,2.06-.21,4.13-.28,6.2-.09,2.37-.19,4.75-.17,7.12,0,1.38,0,2.76.09,4.13,0,.63.06,1.26.14,1.88.12.93.25,1.83.44,2.74,0,0,0,0,0,0-.07-1-.08-1.92-.08-2.89,0-.7.08-1.4.13-2.1.08-1.31.26-2.61.41-3.9v-.06q.32-2.4.64-4.81v0q.46-3.29.89-6.58.55-3.66,1.08-7.32c.23-1.61.5-3.2.77-4.8.7-4.19,1.35-8.39,2.09-12.57q.81-4.65,1.58-9.31c.29-1.74.54-3.48.85-5.21.88-5,1.69-9.94,2.46-14.92.51-3.32,1-6.64,1.56-9.95.7-4.28,1.4-8.57,2.33-12.8.46-2.09.95-4.18,1.49-6.25a46.31,46.31,0,0,1,2-5.79,14.66,14.66,0,0,1,1.68-3.05,9.44,9.44,0,0,1,1-1,1.65,1.65,0,0,1,.26-.15l.11,0h0l.12.07.1.09.06.1a7,7,0,0,1,.14.76v-.08a7.64,7.64,0,0,1,0,1.32,24,24,0,0,1-1.65,5.07c-1,2.18-2,4.32-3,6.45,0,0,0,0,0,0,1.13-2.15,2.3-4.3,3.26-6.54.45-1.05.88-2.1,1.27-3.18a12.57,12.57,0,0,0,.73-3.14,2.13,2.13,0,0,0-.11-1.23,2.41,2.41,0,0,0-.4-.47.91.91,0,0,0-.52-.23Zm.43,3.21v0Zm-20.53,97.59,0,.14,0-.14Zm-.63,4.75v0Z"/><path class="cls-1" d="M537.54,193.62c-1.83.74-3.68,1.42-5.54,2.11a53.73,53.73,0,0,1-10.9,2.91h.1c-3.27.43-6.55.64-9.84.84l-6.57.41c-.65,0-1.31,0-2,.07l-4.18.16c-1.53.06-3.05.09-4.58.13q-11.09.25-22.18.46l-8.16.15c-1.11,0-2.22.06-3.33.07q-6.9,0-13.79.1c-7.93.07-15.86.11-23.79.19-7.75.08-15.49.12-23.24.17-7.19.05-14.38.16-21.58.27l-12.58.18c-2.3,0-4.61.17-6.9.27l-26.78,1.07c-.64,0-1.27.08-1.91.12l-5.9.38-16.62,1.08-10.39.68c-3.18.21-6.35.52-9.53.79-7.39.62-14.78,1.25-22.16,1.94s-15,1.4-22.46,2.12l-48.07,4.63-4.48.43s0,0,0,0c16.13-1.12,32.27-2.18,48.41-3.27l22-1.46,11.52-.77c3.48-.23,7-.41,10.46-.62,6.84-.41,13.69-.84,20.54-1.22l28.1-1.57c2.21-.12,4.43-.15,6.65-.22l16.38-.52,10.64-.34c.47,0,.94,0,1.41,0h.63l6.43,0c7.6,0,15.2-.13,22.8-.12,7.76,0,15.51.06,23.27,0s15.35,0,23-.21q7.82-.18,15.63-.39c3.06-.08,6.11-.23,9.17-.37q11.17-.52,22.34-1.21l7.31-.48c1.77-.12,3.54-.29,5.31-.45,3.88-.34,7.74-.8,11.6-1.24l.85-.11h0c2.67-.36,5.33-.71,8-1.3a38.08,38.08,0,0,0,3.82-1.11c1.5-.5,3-1.07,4.44-1.67,1-.4,1.93-.85,2.89-1.29,1.26-.57,2.51-1.14,3.75-1.75,0,0,0,0,0,0Zm-22.86,7.14h0Zm6.37-2.11h0Z"/><path class="cls-1" d="M177.34,251.43c-6.25.14-12.5.35-18.75.52q-14.64.38-29.27,1c-6.26.28-12.53.48-18.79.88-5.21.33-10.35,1.07-15.51,1.86a29.51,29.51,0,0,0-6.52,1.64,7.73,7.73,0,0,0-2,1,12,12,0,0,0-1.85,2.24s0,0,0,0c.55-.56,1.09-1.14,1.67-1.67a3.44,3.44,0,0,1,.91-.46l-.06,0a19.3,19.3,0,0,1,4.11-1h0l.13,0h-.08c2.25-.25,4.5-.27,6.76-.31,2.8-.05,5.59-.14,8.39-.09,5.64.11,11.27.56,16.89.86,3.62.19,7.23.32,10.86.46q13.32.53,26.66.83c2.36.05,4.71,0,7.07.06q8.12.05,16.23,0c6.36,0,12.72-.05,19.07-.29,8.32-.3,16.64-.75,25-1.12,8.69-.39,17.38-.84,26.07-1.3,7.59-.4,15.19-.72,22.79-1.09l22.3-1.09c6-.29,12.1-.6,18.15-.84a0,0,0,0,0,0,0c-15.67-.44-31.33-.93-47-1.37-14.61-.41-29.22-.82-43.84-1q-9.7-.11-19.39-.11-15,0-30,.32Zm-86.06,6.11h0Z"/><path class="cls-1" d="M220.38,249.75q-1.14,19.38-2.07,38.77c-.44,9.17-.91,18.34-1.32,27.51-.06,1.34-.18,2.67-.27,4q-.35,5-.68,10.05c-.28,4.32-.5,8.65-.83,13q-1.07,14.23-2,28.48c-.61,9.54-1.28,19.07-1.79,28.61q-.51,9.71-1,19.43c-.2,3.7-.31,7.41-.45,11.12q-.19,5.2-.37,10.41c-.06,1.56-.14,3.12-.17,4.68q-.18,8.41-.36,16.83c-.2,9.58-.35,19.16-.51,28.75-.08,4.75-.22,9.49-.34,14.24-.09,3.94-.18,7.88-.34,11.82-.21,5.32-.36,10.65-.63,16L206.4,550c-.2,3.91-.45,7.8-.7,11.71-.31,4.72-.58,9.45-.93,14.16q-.63,8.54-1.19,17.09c-.33,5-.53,9.93-.77,14.89-.45,9.35-.57,18.71-.64,28.07,0,2.3.07,4.61.11,6.91,0,2,0,3.93.18,5.89q.3,4.45.63,8.89c.05.7.14,1.4.22,2.1l.59,5.16c.45,4,1.07,8,1.65,11.95.63,4.36,1.27,8.72,1.88,13.08,0,0,0,0,0,0q-.43-7.65-.91-15.3-.23-3.71-.46-7.42c-.15-2.36-.23-4.72-.34-7.09-.09-2.07-.13-4.12-.16-6.19q0-2.43-.07-4.87c0-.66,0-1.31,0-2,.13-4.86.22-9.71.43-14.56q.19-4.31.36-8.61c.09-2.16.25-4.32.37-6.48q.22-3.84.42-7.68c.11-2.11.3-4.21.45-6.31.31-4.49.59-9,.94-13.48.39-5,.8-10,1.11-15,.36-5.88.71-11.77,1.06-17.65.24-4.06.41-8.12.6-12.18.2-4.37.45-8.73.59-13.09l.59-17.57c.16-4.66.18-9.32.27-14,.07-3.85.15-7.7.2-11.54q.2-15.66.47-31.31c.08-4.27.11-8.55.26-12.82q.34-9.34.68-18.68c.13-3.53.32-7.05.51-10.58q.5-9,1-18c.23-4.19.55-8.38.83-12.56q.48-7.15,1-14.3c.36-5.22.71-10.44,1-15.66.27-4.18.58-8.36.77-12.54q.39-8.75.74-17.51c.14-3.59.32-7.17.36-10.76.11-9.65.19-19.3.17-29q0-17.72-.24-35.45h0Z"/><path class="cls-1" d="M223.57,573c-.8,13.55-1.2,27.13-.89,40.71.13,5.85.29,11.7.72,17.53.37,5,.89,9.9,1.45,14.84a348.93,348.93,0,0,0,6.92,41,0,0,0,0,0,0,0c-.28-11,.25-22,.36-33,0-5.19.12-10.38,0-15.57q-.23-9.63-1.14-19.2a382.78,382.78,0,0,0-7.4-46.32h0Z"/><path class="cls-1" d="M231,684.2a26.27,26.27,0,0,0-3.52.61l-7.18,1.57-12.69,2.73c-4.2.9-8.43,1.73-12.64,2.61-1.67.35-3.36.63-5,.95-2.57.49-5.15,1-7.71,1.5-.48.1-1,.17-1.46.24l-4.71.77-5,.85c-.79.14-1.57.31-2.37.41l.45-.06q-5.74.76-11.46,1.61-4,.49-8,1.05c-1.91.2-3.81.43-5.71.64-1.65.19-3.31.33-5,.49-3.46.34-6.92.68-10.38.95a0,0,0,0,0,0,0c4.63.25,9.27.31,13.9.36,4.24,0,8.48-.19,12.71-.45,4.45-.28,8.89-.75,13.32-1.22,1.64-.17,3.26-.46,4.89-.71q4.25-.67,8.49-1.38c1.39-.23,2.76-.56,4.13-.88q4.22-1,8.43-2c1.36-.32,2.71-.7,4.07-1.07l8.35-2.29c3.89-1.07,7.77-2.23,11.65-3.35l4.27-1.25,4-1.18a34.92,34.92,0,0,1,4.52-1.14h0a10.75,10.75,0,0,1,1.78-.11h0a1.67,1.67,0,0,1,.5.14h0l.18.12h0a1.74,1.74,0,0,1,.34.37h0l.13.22a1.38,1.38,0,0,1,.14.47h0a2.71,2.71,0,0,1,0,.57v0a40.16,40.16,0,0,1-1,4.53s0,0,0,0l.62-2.16c.2-.67.32-1.35.46-2a2.05,2.05,0,0,0-.55-2.12,1.89,1.89,0,0,0-1.07-.38h-.59c-.44,0-.87,0-1.31.06Zm2.83.54h0Zm-84.36,14.34-.13,0,.13,0Zm84.94-13.3v0a.08.08,0,0,0,0,0Zm-3.06-1.18h0Zm1.82-.11h0Z"/><path class="cls-1" d="M11.5,1.88c-.19,6.53-.31,13.06-.55,19.59q-.29,7.95-.5,15.89Q10,53.69,9.86,70c0,2.06-.08,4.12-.12,6.18q-.19,9.17-.26,18.34c-.07,8.06,0,16.12,0,24.18.08,18.76.26,37.52.34,56.27s.2,37.48.32,56.22c.06,9.52.3,19.05.45,28.57.05,3.53.23,7.06.35,10.59L11.48,287c.12,3.47.34,6.95.52,10.41l.84,16.42c.45,8.78,1,17.56,1.49,26.34.24,4.17.41,8.35.62,12.52s.44,8.35.62,12.52c.36,8.75.76,17.51,1.08,26.27s.64,17.75,1,26.62c.34,9.13.62,18.25,1.13,27.36q.52,9,1,18c.19,3.24.45,6.48.7,9.72q1.08,14.24,2.19,28.47c1.48,18.82,3.13,37.63,4.7,56.44,1.4,16.77,2.63,33.55,4.14,50.31,1.71,19,3.54,38.07,5.27,57.11.31,3.45.64,6.89.86,10.34l1.09,17.09c.07,1,.09,2.06.13,3.09q.16,4.82.32,9.64c.12,3.68.27,7.36.34,11q.15,7.57.39,15.14c.06,1.82,0,3.66,0,5.48q0,4.86.09,9.72c.05,4.24-.11,8.48-.18,12.73s-.26,8.54-.43,12.81-.32,8.33-.45,12.5c-.15,4.69-.2,9.37-.2,14.07,0,4,.16,8,.37,11.92.25,4.7.51,9.39.89,14.07a0,0,0,1,0,0,0c.3-5.57.7-11.17,1.26-16.72.27-2.73.48-5.48.83-8.2q.59-4.68,1.15-9.37,1-7.3,2-14.61c0-.27.07-.54.11-.81.58-4.34,1.23-8.69,1.66-13.05q.43-4.42.85-8.84c.15-1.6.34-3.2.43-4.79q.45-8.07.82-16.15c.2-4.32.14-8.66.16-13,0-3.66,0-7.31-.1-11-.15-5-.34-10-.51-15.06-.05-1.63-.21-3.26-.32-4.88l-.67-10.18c-.22-3.38-.48-6.75-.79-10.12-1.81-19.36-3.74-38.72-5.54-58.08-.82-8.77-1.58-17.55-2.37-26.32-.72-8-1.31-16.11-2-24.16-1.62-18.32-3.33-36.62-4.87-54.95q-1.2-14.29-2.38-28.57c-.31-3.81-.68-7.61-.93-11.43q-.54-8.28-1.08-16.57c-.61-9.29-1-18.57-1.48-27.87q-.66-13.68-1.32-27.36c-.85-17.58-2-35.15-3.09-52.71-.55-8.7-1.2-17.4-1.8-26.11-.31-4.56-.55-9.14-.83-13.7l-.54-8.89c-.08-1.34-.19-2.69-.24-4q-.51-13.7-1-27.4c0-1.26,0-2.53,0-3.79q-.06-4.74-.11-9.49-.09-7.73-.18-15.47c0-3.41,0-6.82,0-10.23q0-9.39.07-18.79c0-8.08.11-16.16.18-24.23q.24-29,.45-58c.05-7.46-.07-14.93-.21-22.39q-.18-9.62-.48-19.25c-.08-2.63-.12-5.27-.26-7.9Q16,55.61,15,40.56c-.78-10.9-1.62-21.79-2.78-32.66-.21-2-.44-4-.65-6h0Z"/><path class="cls-1" d="M482.91,4.7l-13.05,0L447,4.82c-2.07,0-4.14.08-6.2.11l-14.5.26-21.95.39c-2.08,0-4.16.1-6.24.15l-14.58.35-22.09.53c-7,.17-14.06.31-21.09.46-6.83.15-13.66.32-20.5.45L296.42,8c-5.6.1-11.2.22-16.79.3q-21,.3-42,.62c-14.44.23-28.88.45-43.32.72q-22.64.43-45.29.89l-14.57.3c-1.75,0-3.5.06-5.25.12q-13.05.39-26.11.84c-1.83.06-3.66.15-5.5.25l-14.85.8c-2.57.14-5.14.26-7.71.43q-6.28.41-12.54.85l-9.62.68c-.75.05-1.5.14-2.26.21l-6.27.58-6.46.61c-1.26.12-2.53.24-3.79.39q-2.4.29-4.8.61c-2.28.31-4.54.73-6.79,1.2-.68.14-1.36.28-2,.44a24.34,24.34,0,0,0-3,.89,8,8,0,0,0-1.85,1l0,0L14,22a.11.11,0,0,0,0,.13,3.67,3.67,0,0,0,.62,1.13,1.36,1.36,0,0,0,.57.26c.86.21,1.71.46,2.57.69,0,0,0,0,0,0-.85-.27-1.68-.55-2.54-.8h0l-.49-.24-.31-.51v0l-.21-.55.77-.57a8.89,8.89,0,0,1,1.73-1.12,14.7,14.7,0,0,1,1.89-.66q1-.27,2-.46l2.05-.36c1.11-.19,2.23-.37,3.34-.54H26c2.32-.31,4.65-.54,7-.75.93-.08,1.87-.18,2.81-.23L41.82,17l7.36-.48c1.21-.08,2.43-.18,3.65-.24q11.26-.52,22.51-1.09C78.21,15,81.09,15,84,14.84l14.48-.63c1.82-.08,3.63-.14,5.45-.2l14.37-.44,11.36-.38c1.92-.07,3.85-.1,5.77-.14l27.32-.66q9-.22,17.95-.4c6.66-.15,13.32-.32,20-.44,13.95-.26,27.89-.55,41.83-.79s27.9-.44,41.85-.73c14.15-.29,28.3-.56,42.45-.89s28.58-.68,42.88-1,28.57-.76,42.86-1l29.21-.55c1.8,0,3.61-.09,5.41-.1l8.62,0,27.83-.1h2.13c.68,0,1.37,0,2.05.05l13,.35,14.88.4,4.31.11c.45,0,.9,0,1.36.05l25.95,1.81c1.89.13,3.78.23,5.66.42l12.77,1.25,11.95,1.14c2.51.24,5,.52,7.52.77l14,1.43c2.43.24,4.87.45,7.31.66l12.85,1.1c3.57.3,7.14.53,10.72.79q6.81.49,13.63.86c5.23.29,10.47.57,15.71.74a0,0,0,0,0,0,0c-3.64-.25-7.27-.56-10.9-.86q-4.58-.37-9.16-.78-5.2-.46-10.38-.94c-3.34-.32-6.69-.6-10-.94l-13.58-1.38c-2.31-.23-4.62-.46-6.93-.72L584,11c-2.27-.25-4.54-.51-6.81-.74Q564.8,9,552.44,7.75l-1.29-.1-4.92-.34-15.16-1L521,5.61c-.44,0-.89,0-1.33,0l-5.05-.13-27.46-.71c-1,0-1.94,0-2.91,0ZM15.21,23.35h0Zm10.71-5h0Z"/><path class="cls-1" d="M656.67,13.79l-.17.25c-1.15,1.28-2.39,2.44-3.65,3.61,0,0,0,0,0,0,.93-.74,1.89-1.46,2.81-2.24-.29.51-.58,1-.85,1.57-.64,1.25-1.18,2.54-1.74,3.82-1,2.38-1.93,4.82-2.8,7.25-1.06,2.93-2,5.89-2.86,8.88s-1.66,5.75-2.48,8.62c-.48,1.68-1,3.36-1.45,5.05-2,8-4,15.95-5.75,24-2,8.93-4,17.87-5.74,26.85-.79,4-1.61,7.93-2.31,11.91-.93,5.22-1.8,10.45-2.68,15.68-2.94,17.42-5.74,34.87-8.64,52.29q-2.09,12.53-4.18,25.06c-.64,3.81-1.23,7.62-1.85,11.43s-1.28,7.66-1.85,11.5c-1.09,7.25-2.25,14.5-3.22,21.76-1,7.52-2,15-3,22.55q-2.75,21.61-5.65,43.2c-1.27,8.7-2.55,17.39-3.92,26.08q-.88,5.59-1.75,11.18c-.7,4.51-1.34,9-2.09,13.54l-2.5,15c-.7,4.23-1.54,8.43-2.32,12.65-1.44,7.79-2.93,15.57-4.32,23.37-1.5,8.43-3.06,16.87-4.45,25.32l-2.24,13.68c-.78,4.77-1.39,9.57-2.08,14.35-.66,4.52-1.06,9.07-1.55,13.61-.44,4-.71,8-1,12l-.46,6.22c-.13,1.84-.16,3.7-.25,5.54-.18,4.06-.39,8.12-.5,12.18-.12,4.65-.3,9.3-.37,14q-.1,7.37-.2,14.75c-.11,8.34-.07,16.68,0,25q.08,26.12.4,52.24c.23,16.75.42,33.5.38,50.25q-.07,26.11.25,52.21.11,9.93.36,19.84c.13,5.55.31,11.11.7,16.64.45,6.35.92,12.69,1.61,19s1.46,12.92,2.24,19.37c0,0,0,0,0,0q-.59-13.17-.76-26.35c-.06-4.54,0-9.07,0-13.6,0-4.19.2-8.38.29-12.57.1-4.5.31-9,.45-13.49s.32-9,.46-13.52q.38-11.86.66-23.71.6-25.4.68-50.81c.06-17.66,0-35.31.21-53,.17-17.26.31-34.52.87-51.77.29-8.86.66-17.72,1.05-26.58.21-4.81.56-9.62.84-14.43.25-4.2.68-8.4,1-12.6.5-6,1.28-11.9,2-17.85q1-6.79,2-13.58c.63-4.24,1.41-8.46,2.12-12.7,1.35-8.06,2.85-16.09,4.32-24.13s3-16,4.49-23.94L597.9,386c.32-1.76.58-3.54.88-5.31q.75-4.52,1.5-9c1.27-7.69,2.34-15.42,3.5-23.13.65-4.31,1.35-8.62,1.94-12.95L607.83,320c1.11-8.13,2-16.3,3-24.45q1.56-13.59,3.08-27.19c.67-6,1.47-12,2.21-18,1.09-7.69,2.13-15.38,3.33-23.05,1.41-9,2.82-18.07,4.29-27.09q4.36-26.71,8.71-53.42c2.78-17.2,5.79-34.37,8.54-51.58.62-3.89,1.28-7.78,1.91-11.67s1.21-7.8,1.85-11.7q1.31-8,2.57-16.07c.55-3.54,1.2-7.05,1.86-10.57,1.83-9.82,3.47-19.75,7.07-29.11l0,.1c.3-.71.63-1.41,1-2.09a.28.28,0,0,0-.48-.29Z"/><path class="cls-1" d="M551.63,784.12c-11.08.28-22.16.84-33.23,1.54q-18.91,1.2-37.8,2.94c-5.49.51-11,.9-16.48,1.38-4.9.43-9.79.88-14.7,1.21l-19.73,1.33c-2.55.17-5.11.2-7.66.3l-12,.47c-4,.16-7.94.16-11.91.16H393.9l-9.3,0c-1.92,0-3.84-.13-5.76-.2l-12.61-.46c-1.91-.07-3.84-.09-5.75-.21l-20.94-1.41c-10.39-.7-20.77-1.65-31.16-2.45-5.87-.45-11.74-1-17.62-1.34l-21.68-1.31c-5-.3-10.06-.48-15.1-.69-5.28-.21-10.55-.44-15.84-.53-5.79-.1-11.59-.26-17.38-.28l-20.06-.07c-6.39,0-12.78.12-19.17.18-5.64.05-11.29.32-16.93.55-11.09.46-22.16,1.43-33.2,2.53q-18.19,1.82-36.26,4.45c-5.25.77-10.49,1.58-15.73,2.36-2.93.43-5.85.89-8.77,1.34-3.47.53-6.95,1-10.39,1.75l-.87.06-.71-.19.06-.14c.16-.18.31-.34.48-.51,0,0,0,0,0,0a2.61,2.61,0,0,0-.72.68.08.08,0,0,0,0,.12c-.62-.27.63.34.86.36a19.11,19.11,0,0,0,2.76,0c.69,0,1.39,0,2.08-.06l4.22-.15c3.11-.12,6.22-.27,9.34-.43,5.16-.26,10.32-.57,15.48-.88,6-.36,11.91-.77,17.88-1.08s11.78-.63,17.67-.89c5.62-.25,11.23-.52,16.85-.73s11.17-.5,16.76-.6q6.13-.11,12.27-.27c1.82,0,3.63-.13,5.45-.14l20.36-.09c6.23,0,12.46.13,18.68.19,5.53.05,11.07.23,16.6.38,5.21.13,10.4.34,15.61.6s10.65.46,16,.83l22.35,1.53c5.43.38,10.86.92,16.28,1.4,10.73.94,21.45,2,32.19,2.92l21.41,1.74c5.61.45,11.25.63,16.87.92l7.9.41c2.33.13,4.68.07,7,.11l12.46.18c1.61,0,3.21.06,4.82,0l20.67-.33c1.83,0,3.66-.14,5.48-.22l12.52-.52c4.76-.2,9.5-.47,14.25-.77,6.06-.37,12.14-.66,18.19-1.19,13.28-1.18,26.55-2.58,39.77-4.36l1.46-.2c10.93-1.47,21.84-3.09,32.7-5q19.18-3.3,38.15-7.65s0,0,0,0h-4.69c-11.84,0-23.67.09-35.51.38ZM60.29,797.72h0Z"/><path class="cls-1" d="M662.74,18.32a46.34,46.34,0,0,0-2.47,6.07c-.51,1.44-1,2.87-1.51,4.31q-1.64,4.94-3.19,9.9c-1.94,6.23-3.56,12.54-5.12,18.88-1.49,6-2.69,12.16-3.9,18.25-1.15,5.8-2.22,11.63-3.08,17.48q-3,20.3-4.91,40.72c-1.2,13-2.2,26-3.33,39-1,11.41-2.3,22.78-3.73,34.15-1.79,12.41-3.71,24.78-5.84,37.14-2.21,12.81-4.52,25.61-6.46,38.46q-3.09,20.6-5.73,41.26c-1.57,12.19-2.83,24.42-4.26,36.63q-1.25,10.66-2.4,21.32c-.62,5.67-1.25,11.35-1.76,17-.57,6.32-1.23,12.63-1.7,19-.52,6.84-1.13,13.68-1.55,20.52l-1.38,22.52c-.37,6.05-.59,12.13-.88,18.18-.26,5.45-.52,10.89-.62,16.34q-.13,7.06-.15,14.12c0,2.51-.07,5,0,7.53q.23,10.62.57,21.24c.21,6.77.59,13.54.92,20.3.59,12.43,1.32,24.84,2,37.27q.4,7.24.8,14.47s0,0,0,0c.67-13.54,1.5-27.08,2.25-40.61.67-12.25,1.31-24.51,2.17-36.75.43-6.14.79-12.29,1.25-18.44q.91-12.15,1.56-24.31c.09-1.79.25-3.58.39-5.37L611.76,471q.64-8.34,1.39-16.68c1.16-12.86,2.29-25.72,3.76-38.55q2.35-20.53,4.9-41c1.43-11.6,2.88-23.19,4.16-34.8,1.24-11.22,2.65-22.42,4.1-33.62q2.63-19.22,5.7-38.37c1.93-12.16,4-24.3,5.75-36.48q1.65-11.45,3.1-22.92c.79-6.17,1.33-12.38,1.87-18.58,1.13-12.86,1.82-25.76,2.52-38.65.66-12.44,1.56-24.86,2.32-37.29q.65-10.66,1.29-21.32c.38-6.28,1-12.55,1.55-18.82.39-4.23.84-8.45,1.28-12.68.37-3.54.88-7.06,1.34-10.58.83-5.21,1.7-10.41,2.66-15.6.42-2.25.91-4.5,1.38-6.74.28-1.36.61-2.7.91-4s.58-2.55.95-3.8c-.15,1.14-.26,2.28-.4,3.42,0,0,0,0,0,0l.64-2.91a7.51,7.51,0,0,0,.39-2.53.37.37,0,0,0-.34-.31.26.26,0,0,0-.24.16Z"/><path class="cls-1" d="M11.9,14.47c-.35,4.45-.69,8.89-1,13.34q-.43,6.93-.82,13.87C10,43.78,9.84,45.89,9.77,48q-.17,5.87-.3,11.73-.12,5-.21,9.93c0,.85,0,1.7,0,2.55q.06,3.29.13,6.58t.15,6.74c0,1,0,2,.07,2.94q.25,5.26.51,10.5c.68,13.37,1.57,26.73,2.45,40.09.37,5.56.68,11.13,1.09,16.69q.76,10.32,1.55,20.63c1,12.55,1.93,25.12,2.78,37.68q.38,5.58.78,11.16c.26,3.57.44,7.14.66,10.71.36,5.71.66,11.43,1,17.14.76,13.66,1.62,27.3,2.4,41,.28,4.9.56,9.8.79,14.7a0,0,0,0,0,0,0q.22-20.19.34-40.38c0-5.94.07-11.88,0-17.82q0-5.88-.07-11.76c0-3.25-.13-6.5-.21-9.75-.29-12.73-1-25.46-2-38.16-.91-12.5-2-25-2.73-37.52-.8-13.71-1.54-27.43-2.53-41.12-.48-6.74-1-13.49-1.48-20.23-.5-6.59-.84-13.19-1.28-19.79-.13-2-.21-3.91-.29-5.88Q13.28,59.5,13,52.68c-.09-2-.2-4.09-.25-6.13q-.13-6-.29-11.93c-.18-6.71-.37-13.43-.52-20.15h0Z"/><path class="cls-1" d="M270.37,778.87c-2.89,0-5.79.12-8.68.18l-10.85.25c-3.16.07-6.32.27-9.47.41-13.59.61-27.15,1.45-40.71,2.45q-19,1.4-38,2.43L141,785.76c-2.55.14-5.09.32-7.64.5l-7.09.54c-1.07.08-2.16.14-3.23.25q-5.69.61-11.38,1.26c-2.79.32-5.57.7-8.36,1.09l-7,1c-1,.14-2,.27-3,.43q-5.85,1-11.69,2c-2.77.48-5.52,1.05-8.28,1.62s-5.71,1.15-8.56,1.8q-5.45,1.25-10.89,2.52c-1.26.3-2.51.69-3.76,1l-6.89,1.93c-1.16.32-2.36.61-3.5,1l-4.34,1.44c-4.37,1.45-8.74,2.91-13.07,4.49,0,0,0,0,0,0,4.38-1.08,8.77-2.06,13.17-3.06l4.66-1.07c1-.24,2.11-.39,3.15-.59q5.68-1.07,11.37-2.16c1.21-.23,2.46-.38,3.68-.57l7-1.09c5-.79,10-1.43,14.93-2.13,3.58-.41,7.15-.84,10.73-1.27,2.63-.32,5.25-.59,7.89-.85l7-.7c.95-.1,1.89-.21,2.84-.29q6-.47,11.93-1c2.56-.21,5.13-.36,7.7-.51,3.44-.2,6.88-.47,10.31-.65l19.06-1q10.9-.59,21.79-1.27c6.7-.42,13.39-.92,20.09-1.41,12.33-.9,24.64-2.09,36.95-3.25,6.71-.63,13.42-1.3,20.14-1.89l12.69-1.12c2.55-.23,5.1-.39,7.65-.58,13.23-1,26.46-1.93,39.7-2.72l4.64-.27a0,0,0,0,0,0,0c-13.12-.19-26.24-.35-39.36-.36Z"/><path class="cls-1" d="M273.07,647.35a108.43,108.43,0,0,0-.52,21.45,187.53,187.53,0,0,0,3.06,18.55s0,0,0,0a164.31,164.31,0,0,0,.82-18.55,76.9,76.9,0,0,0-.8-8.36,125.32,125.32,0,0,0-2.55-13.09h0Z"/><path class="cls-1" d="M417.41,640q-17,.21-33.86,1.25c-11.13.68-22.26,1.46-33.39,2.19-11.37.73-22.74,1.49-34.08,2.65-2.22.23-4.45.44-6.66.77q-5.22.78-10.43,1.62c-1.79.29-3.59.54-5.37.93q-5.21,1.14-10.43,2.33c-4.71,1.07-9.41,2.23-14.09,3.42a0,0,0,0,0,0,0c7.89-.17,15.78-.33,23.67-.57,3.55-.11,7.1-.08,10.65,0,1.84,0,3.68,0,5.52,0,5.5,0,11,.23,16.5.31s10.8.26,16.2.32c10.83.14,21.64-.13,32.46-.59,10.56-.46,21.09-1.41,31.63-2.21,5.46-.41,10.92-.91,16.39-1.3q9.24-.67,18.48-1.38c10.5-.8,21-1.6,31.48-2.77,5.75-.64,11.52-.75,17.3-1,6.41-.34,12.82-.7,19.23-1a0,0,0,1,0,0,0c-9.32-.26-18.65-.62-27.91-1.75-2.41-.35-4.8-.75-7.2-1.13-2.79-.45-5.63-.59-8.45-.77-5-.3-10.07-.49-15.11-.67-9.09-.32-18.19-.59-27.29-.59q-2.62,0-5.23,0Zm63,3.09.22,0-.22,0Z"/><path class="cls-1" d="M514.31,647.19c-2.25,7.87-3.68,16.28-2.9,24.48a69,69,0,0,0,5.09,20.1,0,0,0,0,0,0,0c.05-.49.11-1,.17-1.46v.1c.36-2.55.77-5.1,1.09-7.66,0,.19-.05.38-.08.57a100.79,100.79,0,0,0,.94-10.45,59.2,59.2,0,0,0-.65-10.11v.1a90,90,0,0,0-3.66-15.67h0Z"/><path class="cls-1" d="M456.3,685.74c-10.77.1-21.55.39-32.31,1-11.05.66-22.07,1.86-33.08,3-22.76,2.38-45.48,5-68.28,7a0,0,0,0,0,0,0c11.56.71,23.11,1.65,34.65,2.56,5.76.45,11.52.84,17.29,1.22,5.54.37,11.1.54,16.64.76,11,.43,22.11.45,33.13,0,10.72-.4,21.41-1.42,32.07-2.65,9-1,18-2.34,27-3.69q4.92-.65,9.83-1.34c9.57-1.14,19.15-2.3,28.7-3.6,0,0,0,0,0,0-11-1.5-22.06-2.92-33.16-3.61-8.71-.55-17.42-.73-26.14-.73l-6.29,0Z"/><path class="cls-1" d="M398.4,467.37c-5.61,0-11.23.34-16.84.52s-11,.61-16.42,1-10.91,1.09-16.36,1.71c-5.79.66-11.56,1.49-17.33,2.29-11.79,1.63-23.57,3.47-35.35,5.2-12.6,1.64-25.23,3.41-37.93,4a0,0,0,0,0,0,0c21.58,2.36,43.28,2.67,65,2.21,22.45-.48,44.89-1.52,67.34-1.92,10.7-.2,21.4-.12,32.1,0s21.66.3,32.49.62q32.79,1,65.56,2.43c.06.51.13,1,.18,1.54.3,2.68.61,5.36.77,8.05.32,5.32.64,10.64.72,16,.18,11.48.24,23,.29,34.45,0,6.91.13,13.83.23,20.74.05,3.33.14,6.66.22,10q.05,2.18.11,4.36c0,1.66.14,3.33.15,5l-.58-.08a15.16,15.16,0,0,0-4.07.3c-1.57.23-3.12.56-4.68.81-5,.54-10.1.67-15.16.76-5.73.11-11.45.13-17.18.16-10.32.06-20.64.21-30.95.51-10.82.32-21.64.71-32.46,1.3q-17.86,1-35.72,2.07c-11.08.67-22.17,1.15-33.26,1.66s-21.92,1.16-32.88,1.88c-6.64.43-13.29,1-19.91,1.84l-6.14.74c-2.05.25-4.08.64-6.11,1a81.75,81.75,0,0,0-8.42,1.81,36.47,36.47,0,0,0-3.68,1.25c-.13-3.29-.14-6.59-.12-9.89,0-5,.2-9.91.39-14.86.45-11.55.9-23.1,1.23-34.65q.35-12.13.48-24.27.08-6.21.14-12.42,0-3,0-6.09c0-1.64,0-3.29,0-4.93s.05-3.1.13-4.64.28-3,.47-4.49H275l.15,0,.27.37c.33.8.72,1.57,1.11,2.35a0,0,0,0,0,0,0c-.28-.82-.58-1.63-.81-2.47-.18-.64-.46-.7-1-.74a.25.25,0,0,0-.24.18c-.46,1.85-.91,3.68-1.22,5.56-.26,1.59-.45,3.2-.64,4.81s-.39,3.34-.59,5q-.62,5.49-1.2,11-.83,7.77-1.57,15.54c-1.07,11.14-2.05,22.29-3.06,33.44-1.23,13.59-2.28,27.2-3.8,40.76-.21,1.5-.43,3-.68,4.48-.14.87-.31,1.73-.46,2.6-.5,2.7-1.23,5.71.45,8.18a6.69,6.69,0,0,0,2.39,2.39,6.83,6.83,0,0,0,5.14.67,7.3,7.3,0,0,0,5.36-7.34,5.68,5.68,0,0,0,0-.7c.34-.18.69-.35,1-.51,5.1-1.92,10.42-2.83,15.75-3.86,1.62-.31,3.28-.47,4.91-.71l4.82-.69c4.87-.53,9.74-1.13,14.61-1.55,5.47-.47,10.94-1,16.42-1.37,10.86-.78,21.72-1.46,32.59-2.19q18.12-1.21,36.23-2.54c10.87-.79,21.74-1.4,32.63-2s21.93-.81,32.9-1c10.46-.17,21,0,31.42.36,4.38.17,8.74.41,13.11.73a50.23,50.23,0,0,0,6.5.22c2.07-.12,4.12-.46,6.17-.76a20.71,20.71,0,0,1,2.73-.05,6,6,0,0,0,5.14-2.73,12.22,12.22,0,0,0,1.61-4.54,51.08,51.08,0,0,0,.66-5.39c.19-2.55.37-5.1.49-7.65q.4-8.84.71-17.68c.41-11.1.85-22.2,1.23-33.3.25-7.44.42-14.89.58-22.33.07-3.55.18-7.11.34-10.66.08-1.68.18-3.35.3-5,.07-1,.15-2,.22-3l.08-1.17a5.94,5.94,0,0,0,.12-3.65v0l-.08-.21a6.45,6.45,0,0,0-.32-.83l-.85-2a8.6,8.6,0,0,0-3.05-3.05,8.74,8.74,0,0,0-7.61-.55c-.79-.13-1.57-.24-2.37-.34-2.55-.32-5.12-.62-7.68-.82q-9.11-.7-18.21-1.23Q482,468.43,466.22,468c-11.23-.34-22.46-.54-33.7-.7q-5.49-.08-11-.07c-7.71,0-15.42.09-23.13.16Z"/><path class="cls-1" d="M265.12,249.31a1.57,1.57,0,0,0-.16.93,7.93,7.93,0,0,0,.18,1c.09.57.19,1.15.28,1.72q.09.55.19,1.11c.08,1.7.08,3.42.08,5.12q0,.5,0,1l-.29.27c-.3.17-.59.33-.9.48-.9.28-1.84.46-2.73.77a4.64,4.64,0,0,0-3.08,3,4.37,4.37,0,0,0,1.94,4.63,9.69,9.69,0,0,0,3.41,1.33c.48.11,1,.19,1.5.25q-.07,3.57-.12,7.14,0,1.23,0,2.47c-.21,7.8-.37,15.6-.6,23.4q-.21,6.77-.37,13.55c-.1,4-.31,8-.45,12-.26,7.33-.59,14.66-.74,22-.09,4.42-.16,8.85-.23,13.27-.06,3.78,0,7.56.05,11.34s.27,7.67.46,11.5c.18,3.68.52,7.35.81,11,.33,4.13.74,8.27,1.11,12.39.18,2.12.34,4.23.5,6.35.07.92.13,1.85.2,2.77s.18,2,.32,2.93a6.52,6.52,0,0,0,.18,1c.18.48.39,1,.61,1.42a5,5,0,0,0,8.64,0,6.84,6.84,0,0,0,.37-.75,47.11,47.11,0,0,1,5.46-1.27c1.5-.29,3-.62,4.51-.86l9-1.42,11.83-1.52c1.11-.14,2.23-.23,3.35-.33l8.24-.77c1.44-.14,2.88-.32,4.32-.4l5.15-.28,8.33-.46c1.24-.07,2.48-.17,3.73-.2,7.35-.2,14.7-.46,22-.55,8-.1,16-.21,23.94-.26q24.3-.14,48.59-.14,12.26,0,24.53,0c2.93,0,5.84,0,8.77.05,4.15,0,8.3,0,12.45.1,15.61.3,31.23.48,46.82,1.52,2.13.14,4.26.38,6.38.63l-.75-.1a18.86,18.86,0,0,1,2.6.44,4.44,4.44,0,0,0,.58.19,5,5,0,0,0,4-.52,5.15,5.15,0,0,0,2.56-4.46.24.24,0,0,0,0-.05,5,5,0,0,0-1.68-3.81c-.19-2.37-.1-4.76-.1-7.14,0-2,.11-4.06.16-6.09.11-4,.2-8.06.29-12.09.18-7.41.14-14.82.07-22.22,0-3.33,0-6.67-.14-10q-.29-7.55-.58-15.09c-.12-3.19-.4-6.37-.62-9.56-.25-3.55-.46-7.11-.75-10.66-.69-8.25-1.37-16.49-2-24.74-.27-3.7-.5-7.39-.68-11.09q-.31-6.28-.52-12.55,0-.7,0-1.41l.5-.07a2.67,2.67,0,0,0,2.09-1.31,2.6,2.6,0,0,0,0-2.67,4.16,4.16,0,0,0-1.21-1.27A3.91,3.91,0,0,0,536,262c0-1.53-.08-3.06,0-4.58,0-.28,0-.57,0-.85a3.35,3.35,0,0,0-5.72-2.37,3.74,3.74,0,0,0-1.07,1.73,17.7,17.7,0,0,0-.26,2.13c0,.49,0,1,0,1.46,0,.89,0,1.79,0,2.68l-3.39.17c-1.77.07-3.53.18-5.3.2l-7.25.07c-1.71,0-3.44-.12-5.16-.2s-3.41-.07-5.1-.22c-3.69-.34-7.39-.62-11.08-1-4-.45-7.93-1-11.89-1.35l-13.49-1.32c-1.05-.1-2.11-.16-3.16-.23l-8.21-.53-4.9-.32c-1.5-.1-3-.09-4.5-.13-4.29-.12-8.58-.26-12.87-.37-1.47,0-2.95,0-4.41,0h-8.37c-2.93,0-5.84,0-8.77.11l-14.49.42c-3.6.11-7.2.35-10.79.53-3.18.16-6.36.29-9.53.5q-12.5.8-25,1.63c-15.59,1.06-31.18,2.23-46.8,3-6,.31-12,.6-18,.63-3.54,0-7.07,0-10.6-.06-1.9,0-3.8-.09-5.7-.2a10.61,10.61,0,0,0-.15-2.14,2.64,2.64,0,0,0-1.46-1.93,2.19,2.19,0,0,0-1.3-.23c-.16-1.87-.35-3.73-.61-5.58-.21-1.46-.53-2.88-.87-4.32a.26.26,0,0,0-.27-.21.33.33,0,0,0-.31.21Zm16.19,22.11q11.89-.16,23.77-.79c15.61-.81,31.21-1.94,46.81-3q12.34-.81,24.69-1.54c3.27-.2,6.55-.32,9.83-.48,3.45-.16,6.9-.37,10.35-.47l14.8-.42c3-.09,5.9-.09,8.86-.09h8.32c1.29,0,2.57,0,3.86,0L446,265c3.16.08,6.3.24,9.46.42,3.68.21,7.38.34,11.05.67l13.27,1.17c4,.36,8.05.82,12.08,1.22,3.58.36,7.18.57,10.77.86,1.57.12,3.17.1,4.75.14l3.83.1c.49,0,1,.05,1.47,0l6.66-.18c1.58,0,3.14-.15,4.71-.27s3.24-.24,4.86-.4c.08,3.62.16,7.23.28,10.84.25,7.42.57,14.84,1,22.24.51,8.08,1,16.16,1.41,24.24.18,3.54.44,7.09.51,10.64q.14,7.34.28,14.67c.06,3.11,0,6.22,0,9.34,0,3.69,0,7.38-.12,11.07-.23,7.95-.46,15.89-.84,23.83-.13,2.79-.3,5.58-.38,8.37,0,1.55-.11,3.09-.13,4.64q0,.53,0,1.07c-1.76.12-3.52.21-5.28.28-3.58.15-7.16.27-10.74.32q-11.43.15-22.86.11c-16.21-.07-32.42,0-48.64,0-14.64,0-29.29,0-43.93,0-15.92,0-31.84-.07-47.77.11-3.91,0-7.83,0-11.75.13l-13.72.45c-3.22.11-6.42.31-9.64.52-3.6.23-7.21.41-10.8.75-5.67.54-11.33,1.09-17,1.73q-4.22.48-8.42,1.06c-1.66.23-3.32.45-5,.73l-.56.1-.12-.66c-.34-1.82-.68-3.65-1-5.49q-.92-5.8-1.75-11.61c-.4-3.27-.87-6.54-1.13-9.82-.3-3.81-.71-7.62-.83-11.45s-.32-7.72-.32-11.58c0-4.56,0-9.13,0-13.7,0-4,.06-8,.07-12q0-4.6,0-9.21,0-6.45-.07-12.91c0-4.21-.2-8.42-.31-12.63s-.26-8.38-.43-12.56q.17-5.68.33-11.36c.08-2.83.18-5.66.26-8.49l0-1.31.8,0c1.76.09,3.53.09,5.29.1l3.84,0Z"/><path class="cls-1" d="M202,239.17a26.53,26.53,0,0,0-4.24.63c-2.33.19-4.68.07-7,.05-2.54,0-5.07,0-7.61.06-4.75.06-9.52.18-14.27.4-5.16.23-10.32.47-15.48.82l-8,.57c-2.48.18-5,.46-7.43.69q-7.3.69-14.58,1.5c-4.89.55-9.77,1.15-14.66,1.67-5.15.55-10.29,1.18-15.45,1.68l-10.39,1c-4.12.41-8.29.71-12.36,1.52a16,16,0,0,0-4.05.91,4.32,4.32,0,0,0-1.16.74,3.71,3.71,0,0,0-.77,1.41,1.86,1.86,0,0,0,.83,2,7.16,7.16,0,0,0,1.21.73c.83.45,1.63,1,2.48,1.39,3.54,1.84,7.11,3.61,10.68,5.41,0,0,0,0,0,0l-6.21-3.88c-2.42-1.51-4.88-3-7.16-4.67l-.27-.28-.05-.11,0-.14.18-.35.23-.25.31-.19a8.17,8.17,0,0,1,1.54-.38c3.1-.3,6.18-.51,9.29-.57l4.25-.11,10.45-.27c5.09-.14,10.18-.43,15.27-.68,4.82-.24,9.64-.57,14.47-.89s9.69-.64,14.54-.93l8.65-.54c2.27-.14,4.55-.19,6.82-.29s4.6-.26,6.9-.32q4.66-.12,9.31-.27c4.89-.14,9.79-.09,14.67,0,2.48,0,5,.13,7.45.22s4.71.23,7.07.17a27.62,27.62,0,0,0,4-.56c1.26-.13,2.52-.2,3.79-.27a39.14,39.14,0,0,1,4.74-.11l.52.12h0l.07.07c.24.38.44.76.64,1.16a31.24,31.24,0,0,1,1.52,6.51c1,8.68,1.07,17.4,1.17,26.13q0,3.6.07,7.21c0,2-.12,4.09-.18,6.13q-.16,5.5-.32,11c-.05,1.67-.07,3.35-.15,5q-.47,9-.94,18c-.54,10.45-1.18,20.89-1.8,31.34-.24,4.12-.43,8.24-.64,12.36q-.27,5.38-.54,10.76c-.07,1.42-.17,2.84-.21,4.26-.32,9.91-.71,19.83-.84,29.75l-.25,18.16c0,1.66,0,3.32,0,5q0,5.51.08,11l0,6.49c0,1.91.13,3.83.19,5.74.18,5.46.31,10.94.55,16.4q.68,15.4,1.38,30.79,1.39,30.16,2.87,60.32c.55,11.27,1,22.55,1.59,33.82.51,9.8.93,19.6,1.38,29.39.46,10.19.91,20.38,1.49,30.56s1.23,20.2,1.92,30.3q.23,3.41.48,6.81a35.18,35.18,0,0,0,.73,6.11s0,0,0,0c0-.19-.06-.38-.09-.57h0a70.61,70.61,0,0,1,0-7.16q.09-3.46.17-6.93.16-7.39.26-14.78.22-16.06.39-32.12c.11-9.7.16-19.39.05-29.09-.12-10.6-.43-21.19-.82-31.78-.37-10-.87-20.06-1.33-30.09q-.74-16-1.49-32.07-.65-13.93-1.34-27.86c-.25-5.31-.56-10.62-.75-15.93q-.35-9.22-.68-18.43c-.16-4.2-.17-8.39-.2-12.59,0-4.72-.17-9.45-.09-14.16l.3-19.56c.06-4,.22-7.93.36-11.89q.19-5.47.39-10.94c.06-1.64.09-3.3.18-4.94q.49-8.74,1-17.47c.6-10.54,1.3-21.07,2-31.6.27-4,.48-8.05.71-12.07l.62-10.93c.09-1.53.21-3.07.26-4.61q.29-9.07.57-18.14c0-1.45.13-2.9.11-4.34q-.06-4.71-.12-9.41c0-3.28-.06-6.56-.2-9.84-.18-4.06-.48-8.11-1-12.14s-1.14-8-3.07-11.59a8.62,8.62,0,0,0-3.52-3.49,11.58,11.58,0,0,0-4-1c-1.22-.16-2.43-.32-3.65-.46a31.13,31.13,0,0,0-3.56-.29Zm8.67,7.82a4.17,4.17,0,0,1,.33.43l-.33-.43ZM66.22,253.72l.08.06-.08-.06Z"/><path class="cls-1" d="M85.44,251.87c-.11,9.69-.2,19.38-.18,29.07s.16,19.67.26,29.5c.05,4.6.13,9.19.13,13.79,0,5.2.1,10.41,0,15.62q-.18,14.31-.2,28.62,0,30.89.12,61.78c0,10,.14,19.94.24,29.91s.36,19.73.59,29.6.72,19.65,1.14,29.47,1.09,19.62,1.7,29.43c1.2,19.33,2.65,38.65,4.05,58,.32,4.37.71,8.73,1.07,13.1.34,4.18.65,8.36,1,12.53q.83,9.11,1.67,18.22c.43,4.69,1,9.38,1.52,14.06.21,1.92.39,3.84.68,5.75q.69,4.67,1.38,9.33a60.1,60.1,0,0,0,3.2,13.19,19,19,0,0,0,1.87,3.71,6.57,6.57,0,0,0,1.81,1.8,5.62,5.62,0,0,0,1.6.79,11.21,11.21,0,0,0,4.06.47c2.38,0,4.78-.34,7.14-.57s4.75-.49,7.12-.75q6.93-.74,13.84-1.58,15.79-1.94,31.49-4.44c4.84-.77,9.66-1.73,14.48-2.65,4.47-.86,8.88-2,13.3-3.09l7.25-1.8c.36-.09.7-.22,1.05-.34l3.84-1.29q4.9-1.65,9.79-3.34l3.06-1.06c2.16-.75,4.26-1.69,6.37-2.55,0,0,0,0,0,0-2.52.53-5,1.11-7.57,1.53l-6.25,1q-5.54.93-11.07,1.91-7.93.81-15.85,1.73c-4.59.54-9.21.82-13.82,1.23-9.62.85-19.26,1.54-28.89,2.35q-9.5.8-19,1.38c-3.63.22-7.26.42-10.89.7-2.14.16-4.27.42-6.39.78a10.1,10.1,0,0,0-1.07.24,66.23,66.23,0,0,1-2.75-12.2l-1.28-8.58q-.87-7.77-1.74-15.54c-.52-4.59-.9-9.2-1.35-13.79-1-10.15-1.84-20.31-2.72-30.47-.8-9.15-1.45-18.31-2.16-27.47s-1.4-18.12-2-27.19q-.6-9.06-1.2-18.13c-.23-3.55-.51-7.11-.68-10.67L94.35,506c-.17-3.55-.38-7.1-.48-10.65q-.26-9.37-.53-18.76c-.1-3.52-.23-7-.28-10.55-.15-9.77-.33-19.54-.43-29.31q-.3-30-.51-60.09c-.1-19.44-.31-38.89-1.69-58.29-.35-4.94-.68-9.88-1.09-14.81s-.85-9.89-1.23-14.83q-1.18-15.21-2.23-30.43-.22-3.21-.4-6.42h0Z"/><path class="cls-1" d="M72,72.88c-.48,8.22-1,16.43-1.32,24.66q-.25,6-.47,12.05-.65,17.58-1.08,35.18c-.05,2.28-.15,4.57-.15,6.85,0,3.89,0,7.79,0,11.68,0,8.63.09,17.26.29,25.89.21,9.11.49,18.22.75,27.33q.05,1.7.08,3.4v.36c-.05,1.39-.06,2.77,0,4.17a1.37,1.37,0,0,0,.4,1,1.43,1.43,0,0,0,1.32.35h.08a1.33,1.33,0,0,0,1-1.3c.07-4.43,0-8.87,0-13.3,0-4,0-8,0-12,0-4.61,0-9.21,0-13.82q0-5.76,0-11.52,0-8.87-.1-17.73c0-1.94-.05-3.87-.05-5.81q0-15.32-.11-30.65c-.08-8.54-.23-17.07-.34-25.6C72.23,87,72.16,79.94,72,72.88h0Z"/><path class="cls-1" d="M268.09,64.11c-11.08.11-22.14.48-33.22.78s-22.05.84-33.08,1.32S179.94,67.4,169,68c-4.15.25-8.3.63-12.44,1q-5.88.5-11.76,1c-1.84.16-3.7.29-5.53.5-9.2,1.06-18.42,2.09-27.59,3.39-5.52.78-11.06,1.5-16.56,2.39-3.47.56-6.95,1.08-10.4,1.74-1.53.29-3.05.65-4.57,1-1.67.39-3.36.72-5,1.14a17.72,17.72,0,0,0-3.34,1.16A17.16,17.16,0,0,0,68.4,83.6a5.58,5.58,0,0,0-1.74,2.51c-.21.59.39,1.49.63,2,2.37,5.64,4.95,11.16,7.66,16.65,0,0,0,0,0,0-1.39-3-2.76-6-4.08-9.09h0c-.51-1.28-1-2.56-1.52-3.85-.63-1.69-1.21-3.4-1.81-5.1,0-.14,0-.27,0-.41a3.22,3.22,0,0,1,.59-1l-.07.1a7,7,0,0,1,1-1,19.13,19.13,0,0,1,2.63-1.57,28.55,28.55,0,0,1,6.39-1.63c2.62-.42,5.24-.88,7.86-1.25,8.14-1.05,16.33-1.74,24.5-2.56,4.66-.47,9.33-.9,14-1.33,5.18-.48,10.36-1.05,15.55-1.45q10.31-.79,20.61-1.66c11.09-.94,22.21-1.53,33.32-2.23,3.89-.25,7.78-.41,11.68-.59l21.14-1c4-.19,8.07-.28,12.1-.41L260,68.07c4-.13,8-.15,12-.21l21.09-.33c4.07-.06,8.13,0,12.2,0l20.33,0c4.26,0,8.53.18,12.8.28l20.76.48c4.44.1,8.88.31,13.32.48,5.43.2,10.87.37,16.3.61,10.93.48,21.86.93,32.79,1.44q18,.84,35.93,1.78c5.41.28,10.82.74,16.23,1.11s10.77.89,16.14,1.37c8.67.77,17.32,1.78,26,2.6L530.65,79c4.11.38,8.22.73,12.31,1.21a17.39,17.39,0,0,1,3.1.84,18.46,18.46,0,0,1,2.55,1.53A15.63,15.63,0,0,1,550,84a13,13,0,0,1,.69,1.2A27.05,27.05,0,0,1,552,90.67a140.39,140.39,0,0,1,.45,23.39c-.18,3.68-.44,7.34-.75,11-.48,5.62-.89,11.24-1.44,16.85q-1.71,17.71-3.39,35.43c-.89,9.38-1.63,18.77-2.66,28.13l-1.24.21-4.29.73c-2.2.38-4.41.73-6.62,1.09l-7.94,1c-2.53.32-5.1.41-7.64.61-2.16.16-4.31.36-6.47.44l-10.91.43c-5.61.22-11.22.23-16.83.32-5.27.08-10.54.09-15.81.12q-7.12,0-14.24,0c-5.52,0-11,0-16.57-.11l-20.21-.48c-4.71-.11-9.42-.38-14.13-.6s-9.6-.39-14.39-.72L365.66,207c-9.45-.64-18.89-1.52-28.35-2.16l-21.23-1.44c-1.64-.11-3.28-.27-4.92-.33l-6.92-.27-20.9-.8c-1.12,0-2.24,0-3.37,0l-10.45-.07L258,201.85c-1.64,0-3.28-.07-4.91,0l-18,.41c-4.48.1-9,.12-13.44.32L201,203.5q-32.72,1.49-65.38,4.07c-5.7.45-11.4.8-17.09,1.24-4.89.38-9.79.72-14.68,1.08Q87.76,211,71.69,212.16c-4.93.33-9.86.72-14.79,1.07,0,0,0,0,0,0,11.14.91,22.31,1.3,33.48,1.56,10.46.24,20.93.27,31.4.18q18.15-.14,36.29-.77c10.84-.36,21.66-.93,32.48-1.47,4.59-.23,9.2-.36,13.79-.54l18-.69c1.58-.06,3.16,0,4.74-.07l11.38-.17,11-.16c1.3,0,2.61-.07,3.91-.05l19.52.28c4.05.06,8.1.07,12.15.25l22,1c4,.18,8,.47,12,.77l19.27,1.41c5.63.42,11.24.93,16.86,1.4,11.09.92,22.18,1.72,33.27,2.54,1.52.11,3,.17,4.56.25l11.74.63c4.46.24,8.91.46,13.37.59l11.82.36c2.07.06,4.15.17,6.22.18l19.06.17c10,.09,20.09,0,30.13-.2l10.67-.2c2,0,4.07-.16,6.11-.25l9.14-.4c.84,0,1.69-.14,2.53-.2l6.06-.49c1.61-.13,3.23-.23,4.84-.44l8.08-1c2.5-.32,5-.76,7.46-1.17l2.51-.39q-.11.74-.21,1.48c-.08.53-.16,1.06-.22,1.6a9.08,9.08,0,0,0,.23,2.61,7.36,7.36,0,0,0,1.79,3,6.92,6.92,0,0,0,8.94.79,12.28,12.28,0,0,0,2.12-1.72,14.78,14.78,0,0,0,1.68-2.24,9.18,9.18,0,0,0,.47-1,17.69,17.69,0,0,0,1-2.7,13.06,13.06,0,0,0,.14-5.62,9.61,9.61,0,0,0-2.74-5.42,7.35,7.35,0,0,0-2.78-1.65c0-.36,0-.72,0-1.07,0-1.16,0-2.31.07-3.46q.22-4.72.44-9.44c.13-2.71.36-5.41.55-8.12.74-10.95,1.73-21.88,2.72-32.81.45-5,.89-9.94,1.27-14.91l.9-11.55c.33-4.25.52-8.52.65-12.78.11-3.86.07-7.71-.1-11.57a68.85,68.85,0,0,0-1.43-11.83c-.66-3-1.86-6.21-4.5-8-1.2-.8-2.43-1.56-3.65-2.31a21.83,21.83,0,0,0-3.85-1.79,15.69,15.69,0,0,0-4.37-.77c-2.34-.14-4.68-.11-7-.22-10.54-.5-21.07-1.25-31.59-2.16-11.16-1-22.32-1.89-33.5-2.59-5-.32-10-.64-15.07-.89-5.82-.28-11.63-.57-17.44-.83q-16.41-.74-32.82-1.45-18.07-.79-36.14-1.48c-11.31-.45-22.62-.7-33.93-1-3.61-.09-7.2-.21-10.81-.23l-22.23-.12h-4.88c-9.46,0-18.91.15-28.37.24Zm-199,20.32h0Zm1.8,11.23h0Z"/><path class="cls-1" d="M365.49,12.26c-15.18.16-30.34.59-45.51,1-6.66.16-13.31.49-20,.74-6.27.23-12.54.44-18.8.73q-23.94,1.15-47.87,2.41c-28.91,1.57-57.8,3.33-86.74,4.27-6.86.22-13.71.49-20.57.64-7.82.16-15.64.43-23.45.58q-11.38.22-22.77.57-6.25.19-12.49.41c-2.92.11-5.84.16-8.76.34Q50,24.44,41.43,25c-3.29.22-6.59.63-9.87,1s-6.7,1-10,1.64a71.62,71.62,0,0,0-10.84,2.94A25.88,25.88,0,0,0,7.65,32a50.25,50.25,0,0,0-4.37,2.6s0,0,0,0c1.49-.8,3-1.52,4.57-2.21a50.25,50.25,0,0,1,12.69-3h0l.14,0h0A188.65,188.65,0,0,1,43.17,28q7.17,0,14.34-.11c7.25-.07,14.5.11,21.75.14,7.52,0,15,.06,22.56,0s15.15-.24,22.72-.42c6.7-.16,13.39-.41,20.09-.65,6.33-.22,12.66-.43,19-.74,8.25-.4,16.5-.78,24.75-1.2s16.52-1,24.78-1.47c28.27-1.68,56.56-3.27,84.86-4.37,7.09-.27,14.18-.64,21.27-.82l27.42-.67c5.64-.14,11.27-.21,16.92-.27,8-.07,16-.24,24-.21l25.24.11c6.1,0,12.18.14,18.28.27,6.84.14,13.7.2,20.54.46l26.5,1c7.71.29,15.43.75,23.14,1.13,7,.34,14,.77,21,1.16,14.41.83,28.8,2,43.2,3.07,15.07,1.14,30.14,2.26,45.22,3.12,13.86.79,27.73,1.1,41.59,1.92,3.46.21,6.93.4,10.39.63,1.48.1,3,.24,4.43.38s3,.19,4.52.3h0a5.07,5.07,0,0,1,1.22.29h0a5.62,5.62,0,0,1,1,.52s0,0,0,0a7.52,7.52,0,0,0-2.15-1.25,19.58,19.58,0,0,0-2.46-.61c-1.52-.36-3-.75-4.55-1.07-3.65-.77-7.33-1.39-11-2-6.83-1.06-13.7-1.87-20.58-2.61-14.35-1.52-28.72-2.86-43.09-4.18-29-2.65-58.15-4.31-87.28-5.49-8.09-.33-16.18-.75-24.27-1L453,12.65c-6.61-.21-13.21-.26-19.82-.37-6.23-.1-12.45-.22-18.68-.23l-26.54,0h-.52c-7.3,0-14.61.16-21.91.24ZM20.59,29.44h0l.13,0Z"/><path class="cls-1" d="M663.07,19.78q-3.56,11.15-7,22.33c-1.39,4.49-2.78,9-4.12,13.49q-3,10.28-6,20.58c-.5,1.73-.93,3.48-1.38,5.22q-1.53,5.87-3,11.76l-.76,3c-.15.57-.23,1.16-.35,1.74q-1.11,5.67-2.2,11.34-.5,2.58-1,5.17c-.12.62-.27,1.24-.35,1.87q-.62,4.59-1.23,9.18t-1.21,9.28c-.08.63-.09,1.27-.13,1.9q-.18,2.7-.36,5.39l-.71,10.84c-.13,2-.14,3.93-.19,5.89q-.16,5.77-.32,11.52c0,1.73,0,3.46,0,5.19q0,6.09,0,12.19c0,1.66,0,3.31,0,5q.23,10.83.48,21.66c.13,5.48.31,11,.47,16.44.32,10.73.53,21.46.7,32.19.09,5.87.2,11.73.24,17.6,0,0,0,0,0,0,.09-6.1.14-12.21.21-18.31.06-5.24.12-10.48.14-15.72,0-5.8,0-11.59,0-17.39,0-5.32-.05-10.64-.06-16q0-10.56-.08-21.12c0-2,.05-3.94.07-5.91q.08-6,.14-12c0-.8,0-1.61,0-2.42s.06-1.73.09-2.59q.22-6,.43-11.91c0-1.16.08-2.31.12-3.47,0-.59.09-1.19.13-1.79q.44-5.81.87-11.63c.14-1.81.27-3.61.41-5.42q1.26-8.85,2.46-17.72c.07-.52.19-1,.29-1.55l.93-4.89q1.1-5.8,2.19-11.61l.3-1.57c0-.2.06-.39.11-.58.21-.84.41-1.67.62-2.5q1.44-5.84,2.85-11.68c.46-1.9.89-3.81,1.38-5.7q1.14-4.31,2.27-8.63c1.41-5.41,2.78-10.82,4.2-16.22q2.71-10.36,5.38-20.74,1.5-5.84,3-11.68a0,0,0,0,0,0,0Z"/><path class="cls-1" d="M632.81,383.37q-1.1,7.56-2,15.14c-.57,5-1,9.94-1.39,14.92q-.64,7.75-.79,15.52c0,2.16-.17,4.32-.23,6.48s-.11,4.39-.16,6.59c-.12,6.16-.1,12.32-.37,18.47,0,0,0,0,0,0,2.05-10,3.59-20.16,4.9-30.3.63-4.84.88-9.73,1.07-14.6.18-4.71.11-9.42,0-14.13-.15-6-.52-12.07-1-18.08h0Z"/><path class="cls-1" d="M8.86,31.6c-.52,7.06-1.17,14.13-1.37,21.21q-.19,6.68-.34,13.37-.39,17.53-.49,35.05c0,1.81-.11,3.64,0,5.45q.3,5.3.63,10.59,1.1,17.66,2.57,35.29.21,2.43.41,4.86c0,.52.07,1.05.14,1.57l1.45,11L16,201.39c.35,2.66.79,5.3,1.21,8q1.41,9.05,2.82,18.1c1.23,7.91,2.34,15.83,3.46,23.75l1.44,10.13q1.6,13.54,3.19,27.08c.4,3.38.71,6.76,1.05,10.14q.83,7.95,1.65,15.89c.84,8.16,1.56,16.34,2.34,24.5.38,4,.69,8,1,12,.33,3.79.7,7.59,1,11.38.62,8.27,1.32,16.53,1.82,24.8q.5,8.5,1,17c.18,3.14.3,6.29.43,9.43q.29,7.34.58,14.68c.18,4.57.24,9.14.36,13.72.21,8.3.48,16.61.73,24.91.13,4.17.36,8.35.55,12.52.15,3.43.28,6.85.46,10.28q.73,13.76,1.45,27.52c.88,16.83,1.62,33.67,2.3,50.51q.55,13.58,1.16,27.16c.35,7.93.73,15.86,1,23.79.12,3.87.29,7.73.33,11.6q.08,7.8.17,15.61c0,1.06,0,2.11,0,3.17q-.05,4.62-.11,9.25,0,3.21-.08,6.42c0,1.31-.11,2.63-.17,3.94q-.21,4.35-.4,8.7c-.08,1.65-.09,3.32-.23,5q-.63,7.4-1.25,14.8c-.32,3.88-.8,7.75-1.21,11.63-.39,3.68-.79,7.36-1.21,11q-1.57,13.7-2.86,27.42c-.42,4.34-.71,8.7-1.05,13.05-.31,4-.52,8-.77,12-.09,1.45-.08,2.92-.11,4.38l-.12,5c0,1.8,0,3.61.07,5.41,0,1.33,0,2.64.13,4,.11,1.71.16,3.44.33,5.14l.54,5.41c.34,3.32.71,6.65,1.16,10,0,0,0,0,0,0-.16-2.66-.25-5.33-.34-8,0-1.21-.07-2.42-.11-3.63s-.11-2.66-.1-4c0-2.54,0-5.07.11-7.61s.22-5.17.43-7.74q.22-2.71.44-5.41c.08-1,.13-2,.24-2.95q.57-4.87,1.12-9.75c.57-5,1.26-10,1.88-15q1.1-8,2.16-16c0,.2-.05.4-.08.6q1-7.05,2-14.11c.52-3.84,1-7.7,1.44-11.55.44-3.7.87-7.37,1.18-11.09l.73-8.74c.12-1.51.3-3,.37-4.53q.34-7.56.68-15.14c.16-3.64.14-7.28.18-10.92s.13-7.46.08-11.18q-.11-7.9-.21-15.79c-.05-4.17-.28-8.35-.42-12.52-.13-3.68-.3-7.36-.48-11q-.66-13.58-1.3-27.17c-.37-7.83-.7-15.65-1.07-23.48q-.67-14.09-1.38-28.17c-.37-7.41-.81-14.81-1.2-22.21l-.84-15.92c-.2-3.81-.32-7.63-.48-11.45-.15-3.65-.35-7.3-.44-11q-.22-8.12-.44-16.23c-.09-3.37-.16-6.74-.23-10.11-.09-4-.12-8.06-.27-12.09-.31-8.46-.54-16.93-1-25.39l-.93-16.37c-.2-3.49-.49-7-.74-10.46l-1-13.46c-.32-4.46-.74-8.92-1.11-13.38q-1.1-13.19-2.3-26.37c-.77-8.64-1.6-17.28-2.42-25.91-.8-8.41-1.7-16.81-2.59-25.21-.37-3.44-.67-6.89-1.1-10.32q-.9-7.1-1.8-14.19-.82-6.45-1.64-12.89c-.45-3.58-1-7.14-1.5-10.71q-1.49-10.66-3-21.32Q21,188,19.36,174.33l-1.69-14.12c-.19-1.61-.3-3.23-.42-4.85q-1.27-17-2.83-34-.62-6.66-1.3-13.31c-.14-1.44-.22-2.86-.29-4.3Q12,86,10.87,68.33q-.47-7.43-1-14.85c-.51-7.29-.67-14.59-1-21.88h0Z"/><path class="cls-1" d="M577.79,775.58c-1.44.05-2.87.2-4.31.3-2.84.2-5.67.42-8.51.59l-10.09.6c-3.11.18-6.22.24-9.34.36-2.63.09-5.25.13-7.87.15-3.12,0-6.26.14-9.39.13-3.63,0-7.26,0-10.89,0h-7.77q-19.19,0-38.37.29c-13.26.23-26.51.7-39.76,1.12-12.56.39-25.11,1.08-37.67,1.65-4.07.18-8.12.49-12.19.77l-25.45,1.75c-3.79.26-7.57.6-11.36.95l-25.62,2.36c-12.28,1.13-24.53,2.51-36.79,3.81s-24.38,2.75-36.57,4.17c-12.38,1.44-24.75,3-37.12,4.46-22.85,2.77-45.71,5.51-68.55,8.41q-11.44,1.46-22.88,3c-5.86.79-11.7,1.75-17.55,2.64L92,814.26c-2.29.36-4.57.89-6.84,1.33q-10.9,2.13-21.79,4.3c-1.62.32-3.21.77-4.82,1.16l-13,3.17L34.26,827c-4.64,1.15-9.25,2.45-13.87,3.71,0,0,0,0,0,0,4.32-.93,8.62-1.92,13-2.76l8.85-1.73q10.18-2,20.36-4c1-.2,2-.36,3-.51l9.74-1.52,17.42-2.75q10.18-1.21,20.37-2.46c5.36-.66,10.72-1.22,16.08-1.83,13.21-1.5,26.41-3,39.61-4.56,22.89-2.62,45.76-5.36,68.65-8l22.38-2.54c5-.56,9.95-1.16,14.93-1.69l21.52-2.26c5.68-.6,11.36-1.26,17.05-1.79l38.7-3.57c1.52-.14,3-.21,4.57-.32l12.14-.84,21.69-1.5c1.26-.09,2.52-.12,3.78-.18l11.76-.53,21-.95c1.66-.07,3.32-.09,5-.14l12.91-.36c5.24-.14,10.49-.34,15.73-.41q11.78-.16,23.55-.45c5.61-.14,11.23-.21,16.85-.34,12.43-.27,24.85-.59,37.25-1.28,7.28-.4,14.53-1.07,21.77-2,3.3-.41,6.61-.91,9.88-1.48,1.83-.32,3.66-.66,5.48-1.06s3.35-.83,5-1.06h-.05c.7-.09,1.39-.16,2.1-.22a0,0,0,0,0,0,0c-1.06-.09-2.12-.13-3.17-.13l-1.45,0Z"/><path class="cls-1" d="M608,596.73q-.3,12.82-.53,25.65c-.15,7.76-.31,15.51-.4,23.27q-.09,7.39-.16,14.79c0,1.32,0,2.65,0,4q0,4.41.05,8.82c.06,8.32.3,16.64.57,25,0,.94.08,1.88.13,2.82q.21,4.19.42,8.38c.18,3.48.38,7,.54,10.43q.33,7.08.69,14.15c0,.48,0,1,0,1.46,0,1.28,0,2.55,0,3.83q0,4.1.08,8.19c0,2.67-.07,5.34-.19,8q-.15,3.62-.47,7.23c-.21,2.31-.42,4.61-.71,6.91v0a50.85,50.85,0,0,1-1.17,6.22c-.27,1-.61,2-1,3s-.68,1.9-1.07,2.82h0l-.48,1.12s0,0,0,0a49.75,49.75,0,0,0,3.16-7.45,58.54,58.54,0,0,0,1.85-8.59c.45-2.89.85-5.78,1.16-8.69s.54-6,.72-9.07c0-.64,0-1.29.07-1.93q.06-1.95.11-3.89.11-4.05.21-8.11c0-1.1,0-2.2,0-3.3q-.09-4.31-.2-8.62-.12-5-.31-10-.28-7.14-.58-14.27c-.05-1.25-.07-2.51-.11-3.76q-.13-4.36-.3-8.72c-.12-3.43-.28-6.86-.39-10.29q-.24-7.51-.51-15c0-1.07-.05-2.13-.07-3.2l-.19-8.58c-.07-3.3-.16-6.6-.21-9.9q-.23-13.87-.5-27.73-.14-7.44-.26-14.87h0Zm.05,172.94v-.09s0,.06,0,.09Z"/></g></g></svg>