<svg xmlns="http://www.w3.org/2000/svg" viewBox="0 0 1064.01 900.39"><defs><style>.cls-1{fill:#353535;}</style></defs><title>twitter-icon</title><g id="Layer_2" data-name="Layer 2"><g id="Draw_Layer" data-name="Draw Layer"><path class="cls-1" d="M1014.23,25s0,0,0,0l0-.07,0,0h0l.09,0h0a1,1,0,0,1,.27.16l.14.16.11.25,0,.4a.17.17,0,0,1,0,0,3,3,0,0,1-.24,1l0-.06A8,8,0,0,1,1014,28l0-.06a17.53,17.53,0,0,1-2.39,2.28,100,100,0,0,1-9.33,6.2c-1.72,1-3.41,2-5.15,3q-3.08,1.7-6.14,3.43c-3.21,1.81-6.45,3.56-9.68,5.33-3.44,1.88-6.86,3.79-10.31,5.65s-7.05,3.84-10.56,5.8c-1.87,1-3.77,2-5.66,3-3.68,2-7.32,4-10.95,6-1.22.69-2.43,1.35-3.68,2-3.86,2-7.74,4-11.74,5.71a140.87,140.87,0,0,1-17.55,6.19,165.85,165.85,0,0,1-19.64,3.73c-2.29.29-4.6.45-6.9.69,0,0,0,0,0,0,2.79.18,5.57.43,8.37.43,3.13,0,6.26-.05,9.39-.2a95.12,95.12,0,0,0,17.39-2.44,108.63,108.63,0,0,0,16.67-5.43c3.39-1.41,6.78-2.91,10-4.6,4.72-2.45,9.43-5,14.08-7.53,2.93-1.63,5.8-3.37,8.67-5.11q10.77-6.54,21.21-13.56c3.18-2.13,6.38-4.26,9.46-6.55,3.38-2.51,6.75-5,9.87-7.87,2-1.84,4.13-3.77,5.36-6.25a4.23,4.23,0,0,0,.42-2.07,1.14,1.14,0,0,0-.53-.92,1.08,1.08,0,0,0-.39-.14.17.17,0,0,0-.18.16Zm.05-.07h0Zm.18,0h0Z"/><path class="cls-1" d="M1010.16,32.5c-.15,2.46-.32,4.93-.63,7.37a44.2,44.2,0,0,1-2.77,9.78,84.31,84.31,0,0,1-4.32,8.36c-.8,1.38-1.63,2.74-2.46,4.1s-1.62,2.76-2.49,4.09L994,71.52c-2.57,4-5.07,8-7.66,12-2.75,4.22-5.4,8.5-8.17,12.7Q976,99.63,973.74,103l-2.49,3.83c-.36.56-.7,1.16-1.1,1.7q-3.86,5.23-7.66,10.5c-2,2.4-4,4.82-6.06,7.23s-4,4.37-6,6.52a117.43,117.43,0,0,1-12.27,11.12c-1.23.93-2.46,1.86-3.7,2.77l-.3.22a17.25,17.25,0,0,0-4.66,1.4,8.92,8.92,0,0,0-2.15,1.4,10.42,10.42,0,0,0-1.55,1.8,6.59,6.59,0,0,0-.87,3.1,5.38,5.38,0,0,0,.74,2.73,3.59,3.59,0,0,0,1,1.49,6.12,6.12,0,0,0,6.14,1.32,10.88,10.88,0,0,0,3.08-1.69c.62-.44,1.21-.91,1.8-1.39a128.59,128.59,0,0,1,16.26-.35l9,.15c4.75.08,9.49.05,14.24.06a147.9,147.9,0,0,0,17.09-1c3.41-.39,6.81-.9,10.18-1.58l.11,0-5.39,5.37c-3.25,3.24-6.27,6.7-9.35,10.1-1.5,1.66-3.07,3.28-4.43,5l-4.22,5.52c-2.71,3.56-5.41,7.12-8,10.75q-8.75,12.19-17.32,24.51c-2.49,3.58-5,7.12-7.54,10.7l.32-.41q-3.09,4-6.15,8l-3.84,4.41c-1.12,1.29-2.31,2.52-3.48,3.76a71.56,71.56,0,0,1-8,7.44s0,0,0,0a89.87,89.87,0,0,0,11.93-8.7c.78-.63,1.5-1.34,2.25-2l3.14-2.84c.58-.53,1.11-1.14,1.65-1.7l3.68-3.83c3.37-3.52,6.47-7.29,9.64-11s6.24-7.42,9.34-11.15q4.36-5.26,8.64-10.58,4.09-5.06,8.23-10.07,2.91-3.53,5.79-7.08c.88-1.09,1.86-2.08,2.81-3.1,2.29-2.46,4.56-4.94,6.84-7.42,1-1.08,2-2.19,3-3.23,4-4,8-7.87,11.91-11.86l5.41-5.47.12,0c3.78-1.23,7.5-2.59,11.18-4.11a100.39,100.39,0,0,0,14.63-7.41c1.7-1.06,3.37-2.17,5-3.33,1.07-.76,2.14-1.51,3.17-2.31a11.61,11.61,0,0,0,3-2.84,5.42,5.42,0,0,0,.76-4.25,6,6,0,0,0-.54-1.38,4.81,4.81,0,0,0-2.69-2.07,7.1,7.1,0,0,0-3.7,0,11,11,0,0,0-1.76.56,16,16,0,0,1-1.6.46l-.19-.12-.52-.4a6.31,6.31,0,0,0-1.33-.61,5.12,5.12,0,0,0-2.43,0,10.59,10.59,0,0,0-1.77.47,28.75,28.75,0,0,0-4,1.88,50,50,0,0,0-5.89,3.72,97,97,0,0,0-8.13,6.66c-2.22,2-4.38,4.11-6.52,6.23l-2.32.72-4.6,1.43c-2.3.72-4.69,1.24-7,1.77s-5,1-7.46,1.35q-4.54.57-9.1.85c-3.34.21-6.72.35-10.07.3l-8-.12c-5-.07-9.92-.25-14.88-.43-1.88-.06-3.75-.12-5.63-.16a196.46,196.46,0,0,0,14.16-15.52q2.57-3.15,5.13-6.32c1.59-2,3-4.16,4.38-6.24l2.71-4c.41-.61.87-1.2,1.25-1.83l3.78-6.37c4.48-7.59,8.84-15.25,13-23q3.88-7.25,7.69-14.55c1.24-2.37,2.34-4.84,3.47-7.26a89,89,0,0,0,3.73-9.2,43.73,43.73,0,0,0,1.88-8.85,53.5,53.5,0,0,0-.2-10.67h0Zm39.5,90.23-.27,0,.27,0Zm-.42.13.31,0-.31,0Z"/><path class="cls-1" d="M936.88,244.76c-.36,6.78-.72,13.57-1,20.35-.18,4.18-.27,8.35-.46,12.53q-.42,9.27-.59,18.55c-.09,4.82-.35,9.64-.47,14.46,0,1.74,0,3.48-.1,5.22q-.19,3.77-.35,7.54c-.18,4.44-.17,8.89-.56,13.32q-.76,8.51-1.26,17c-.09,1.6-.42,3.22-.63,4.8L930,369.35l-.37,2.81L926.26,388l-1.11,5.23c-.1.48-.27,1-.41,1.42L923.49,399l-4.71,16.45c-.39,1.35-.9,2.69-1.35,4L914,429.74c-3.29,9.76-6.7,19.48-10.1,29.2-3.28,9.37-7,18.57-10.6,27.83l-.41,1.06L887,500.91c-1.84,4.13-3.62,8.29-5.53,12.39l-6.89,14.78-3.92,8.42c-.53,1.14-1,2.3-1.6,3.41L855,567.49c-.52,1-1.19,2-1.78,3L848.16,579,839,594.36c-.52.87-1.08,1.69-1.64,2.53l-5.87,8.81-11.32,17c-.76,1.14-1.65,2.19-2.47,3.28l-7,9.25L800.21,649c-5.23,6.43-10.54,12.78-16,19-6,6.8-12.38,13.32-18.88,19.68a458.94,458.94,0,0,1-39.63,34.66q-7.76,5.94-15.75,11.56c-3.44,2.43-6.88,4.9-10.47,7.12l-15,9.29-14.49,9c-.56.35-1.14.66-1.72,1l-6.73,3.61-18.58,10c-2.55,1.37-5.07,2.8-7.67,4.06l-32.31,15.69-1.45.7q-14.89,6.26-29.77,12.55c-2.39,1-4.77,2-7.2,3L547,816.4l-16,6.05c-2.72,1-5.51,1.85-8.27,2.76l-20.11,6.61L495,834.3c-.94.31-1.87.65-2.82.92l-33.3,9.55c-8.34,2.39-16.71,4.64-25.08,6.93s-16.6,4.57-24.94,6.7l-32.22,8.21c-1.85.47-3.76.79-5.62,1.17L358.5,870.4l-19.79,4.12c-1.58.33-3.21.49-4.79.73l-12.57,1.89L302.23,880q-16.74,1.48-33.48,3c-2.17.19-4.31.34-6.49.46q-11.16.58-22.33.67c-7.42.06-14.84-.15-22.25-.47-7.2-.31-14.38-.89-21.53-1.8a256.26,256.26,0,0,1-26-4.89,190.5,190.5,0,0,1-26.94-9c-3.81-1.63-7.57-3.36-11.27-5.22-4.48-2.25-8.8-4.8-13.09-7.4a252.26,252.26,0,0,1-22.56-15.34c-4.51-3.52-8.84-7.21-13-11.1-2.94-2.72-5.88-5.46-8.74-8.27Q68.69,815,62.75,809.35c-6-5.66-12.08-11.18-18-16.92,0,0,0,0,0,0,2.56,3.69,5.29,7.27,8,10.82s5.55,7.18,8.36,10.73c3.79,4.79,7.59,9.58,11.56,14.22,4.17,4.87,8.4,9.67,13,14.1a167,167,0,0,0,15.86,13.19c22.34,16.63,48.81,27.19,76.06,32.4a270.75,270.75,0,0,0,41.71,4.43c14.31.48,28.6.17,42.88-.65,5-.29,9.91-.84,14.86-1.33l20.57-2c2.8-.28,5.56-.57,8.34-1l19.13-3L340.4,882c.73-.11,1.45-.3,2.17-.45l7.93-1.69L371,875.45c2.83-.61,5.7-1.13,8.5-1.86l34.7-9c8.91-2.32,17.76-4.88,26.63-7.33,8-2.23,16.06-4.47,24.07-6.79l20.43-5.92c3.07-.89,6.18-1.68,9.21-2.68l33.69-11.15c2.35-.78,4.66-1.59,7-2.46l18.64-7L568,815.84c3.22-1.21,6.37-2.65,9.54-4l19.4-8.11c2.88-1.2,5.84-2.3,8.65-3.65l32.16-15.45c2.35-1.13,4.65-2.36,7-3.59l18.33-9.74,7.33-3.89c.92-.49,1.88-.93,2.77-1.48l12.74-7.82,16.33-10c2-1.25,4-2.57,6-3.91q9-6.06,17.67-12.56c11.23-8.35,22-17.33,32.38-26.69,10.61-9.54,20.82-19.53,30.47-30,4.52-4.93,8.88-10,13.19-15.13,1.92-2.28,3.82-4.56,5.65-6.91l11.87-15.26,5.35-6.87c.89-1.15,1.88-2.28,2.7-3.48l8.23-12,10.15-14.79c1.91-2.79,3.6-5.73,5.37-8.6l10.54-17c.53-.85,1.11-1.68,1.58-2.57l2.8-5.24c4.6-8.61,9.36-17.15,13.68-25.91s8.77-17.62,13-26.51l8.69-18.34c1.54-3.24,2.92-6.52,4.3-9.84l7.58-18.17c1.44-3.45,2.72-7,4-10.47q5.61-14.72,11.05-29.49c1.35-3.67,2.78-7.31,4-11l5.84-18.32c1.25-3.91,2.09-8,3.07-11.94l2.19-8.94c.29-1.19.54-2.34.75-3.55q1.49-8.94,3-17.89c.28-1.68.45-3.36.6-5,.31-3.48.56-7,.8-10.46q.22-3.29.4-6.59c0-.42,0-.85,0-1.28,0-1.56-.05-3.12-.08-4.68-.1-4.66-.11-9.35-.49-14q-.71-8.73-1.65-17.43c-.18-1.7-.46-3.4-.7-5.09q-.76-5.31-1.61-10.6c-1.53-9.63-3.57-19.17-5.72-28.68-.61-2.68-1.29-5.35-2-8h0ZM601.75,794.17l-.08,0,.08,0Z"/><path class="cls-1" d="M10.45,291.74a12,12,0,0,0-5.76,3.17,17.07,17.07,0,0,0-3.91,7.34l-.19.91q-.26,1.85-.5,3.7A22.85,22.85,0,0,0,0,309.41a25.07,25.07,0,0,0,4.76,13.7,43,43,0,0,0,4.39,5.26A50.21,50.21,0,0,0,13,331.74a113.93,113.93,0,0,0,10.92,7.9q2.5,1.6,5.07,3.06c2.11,3.64,4.1,7.35,6.15,11,1.2,2.15,2.28,4.39,3.41,6.58l4,7.8c2.7,5.2,5.32,10.45,8,15.67S56,393.94,58.74,399c2.3,4.29,4.74,8.51,7.15,12.75,4.28,7.53,8.52,15.07,12.93,22.53a230.12,230.12,0,0,0,28.38,38.35,215,215,0,0,0,16.47,16.06,179.1,179.1,0,0,0,18.63,14.45,163.73,163.73,0,0,0,42.35,19.7c8.68,2.72,17.51,4.72,26.35,6.79,3.52.82,7.07,1.45,10.61,2.14l7.46,1.43a83.94,83.94,0,0,1,15.1,3.91l.45.21c-6.76,2.63-13.56,5.14-20.39,7.61-2.1.76-4.19,1.58-6.31,2.28l-9.45,3.1c-2.18.72-4.36,1.53-6.58,2.15L193,555l-8,2.23c-2.75.77-5.58,1.34-8.37,1.94-3.26.7-6.53,1.27-9.83,1.75a118,118,0,0,1-28,.33A112.52,112.52,0,0,1,117,555.57a72.69,72.69,0,0,0-10.66-3.39,25.76,25.76,0,0,0-6.92-.55,17.21,17.21,0,0,0-8.71,2.75,14,14,0,0,0-2.87,2.46,12.67,12.67,0,0,0-2.83,5,13,13,0,0,0-.44,4.11,13.25,13.25,0,0,0,1.51,5.48,41.3,41.3,0,0,0,3.74,5.52c2,2.66,4.1,5.21,6.23,7.76,3.16,3.79,6.55,7.41,9.89,11q6.19,6.72,12.47,13.34,5,5.26,10.32,10.17a241,241,0,0,0,19.1,15.43,236.58,236.58,0,0,0,40.92,24.95c4.53,2.12,9.11,4.18,13.77,6l10.4,4c4.51,1.74,9,3.44,13.56,5,5.11,1.8,10.22,3.65,15.35,5.39l10.36,3.5c2.16.73,4.31,1.53,6.49,2.19l17.5,5.31c2.32.7,4.71,1.24,7.07,1.82,4.13,1,8.29,1.91,12.47,2.65,3.57.63,7.16,1.1,10.76,1.51l-3.63,2.62c-4.54,3.28-9,6.64-13.54,10s-9.08,6.43-13.62,9.64c-3.87,2.74-7.85,5.29-11.83,7.87l-9.42,6.1c-1.08.7-2.14,1.4-3.25,2l-18.38,10.55c-3.69,2.12-7.47,4.06-11.24,6l-13.08,6.85c-1.73.91-3.43,1.77-5.22,2.56l-21.69,9.62c-9.66,3.55-19.24,7.35-29,10.49l-18.28,5.85c-1.89.61-3.87,1-5.78,1.49l-11.48,2.94a314.12,314.12,0,0,1-35,6.92q-12.21,1.59-24.51,2a155.11,155.11,0,0,1-24.61-.9,51.7,51.7,0,0,1-10.33-2.53,9.22,9.22,0,0,1-1.53-.84l-.36-.35-.3-.45,0,.11a3.61,3.61,0,0,1-.41-1.29.85.85,0,0,1,0,.09l0-.48.22-.36.44-.37c.51-.34,1-.69,1.48-1.07h0l.41-.31s0,0,0,0c-.49.26-1,.52-1.48.77a4.46,4.46,0,0,0-1.2.64,2.16,2.16,0,0,0-.53,1.85c.11,2.27,2.69,3.42,4.41,4.27,6.55,3.24,13.75,4.66,20.92,5.79a176.67,176.67,0,0,0,47.39.76c4-.45,8-1,11.94-1.71,3.57-.6,7.21-1.19,10.72-2.09l7.45-1.94,11.23-2.94c1.38-.36,2.77-.68,4.12-1.13l19.7-6.42c4.27-1.4,8.45-3,12.65-4.62l10.89-4.09c1.67-.63,3.36-1.22,5-1.95l18.34-8.27,6-2.68c1.72-.77,3.36-1.78,5-2.67l18.54-9.86c1.14-.61,2.25-1.28,3.37-1.93l9.74-5.68c4-2.31,8-4.53,11.85-7.05l17.29-11.32c1.3-.85,2.56-1.78,3.84-2.68l9.5-6.73c4.37-3.09,8.7-6.24,13-9.39s9-6.32,13.56-9.44c1.61-1.1,3.27-2.12,4.92-3.17a71.51,71.51,0,0,0,13-1,25.11,25.11,0,0,0,5-1.38,35.48,35.48,0,0,0,3.47-1.54,20.06,20.06,0,0,0,3.41-2.53,13.15,13.15,0,0,0,2.21-2.63,11.8,11.8,0,0,0,1.51-3.06,10.46,10.46,0,0,0-.64-8.43,8.19,8.19,0,0,0-7.42-4,9.1,9.1,0,0,0-3.95,1.13,18.12,18.12,0,0,0-2.72,2c-1.42,1.1-2.81,2.23-4.22,3.34l-2.18,1.61a94,94,0,0,1-11.33,0c-4.77-.22-9.55-.71-14.28-1.3-3.41-.49-6.8-1.1-10.18-1.79-3.85-.78-7.75-1.59-11.54-2.64l-7.83-2.2c-5-1.4-10-2.79-14.91-4.33-5.1-1.59-10.22-3.13-15.29-4.8l-17.9-5.87c-3.67-1.2-7.28-2.65-10.9-4-4.52-1.65-9-3.26-13.48-5.12-4.15-1.78-8.26-3.63-12.31-5.63-4.9-2.42-9.65-5.12-14.33-7.94a273.52,273.52,0,0,1-25.45-17.51c-3.29-2.57-6.52-5.22-9.62-8-1.59-1.43-3.13-2.91-4.67-4.4-1.34-1.3-2.71-2.58-4-4l-7.85-8.55c-2.14-2.33-4.13-4.82-6.19-7.23-1.55-1.82-3-3.71-4.49-5.6-1.22-1.73-2.56-3.43-3.64-5.26l-1.85-3.12c1.64.51,3.26,1.07,4.89,1.62,3.82,1.28,7.63,2.45,11.56,3.38a127.32,127.32,0,0,0,12.85,2.18,97.54,97.54,0,0,0,12.33.74,139.47,139.47,0,0,0,25.33-2.54c3.68-.67,7.32-1.55,10.94-2.49,2.08-.54,4.16-1.07,6.21-1.71l10.07-3.17c2.11-.66,4.26-1.25,6.34-2l9-3.29c2.3-.84,4.63-1.62,6.9-2.52,7.66-3,15.31-6.05,22.94-9.13,7.27-2.94,14.49-6,21.7-9.09l.76-.31c1.45-.25,2.89-.58,4.32-1a48.84,48.84,0,0,0,6.06-2.29,23.67,23.67,0,0,0,4.46-2.4,8,8,0,0,0,2.85-2.85,8,8,0,0,0-2.85-10.88,12.32,12.32,0,0,0-2.4-1.08,8.16,8.16,0,0,0-4.3,0,18.05,18.05,0,0,0-3.81,1.51l-2.65,1.26c-1.66.8-3.31,1.6-5,2.38-3.48,1.63-7,3.21-10.51,4.77l-.93-.77a38.92,38.92,0,0,0-7.32-4.68c-5.3-2.6-11.1-4.06-16.77-5.59q-6.46-1.74-12.94-3.36c-1.81-.45-3.61-1-5.4-1.53l-8.26-2.33A255.85,255.85,0,0,1,174,505.43a157.25,157.25,0,0,1-32.63-19.16,215.93,215.93,0,0,1-37.09-37.11c-4.63-6.07-9-12.33-13.06-18.81-3.13-5-6.15-10.19-9.09-15.35L72.11,397.32c-2.58-4.54-4.9-9.23-7.31-13.85-1-1.93-2.1-3.85-3-5.82l-3.84-8.08c-2.69-5.65-5.33-11.31-8-17,6.16,2.46,12.43,4.63,18.78,6.59s12.94,3.41,19.45,4.88c1.7.38,3.43.63,5.15.91q5.73.93,11.47,1.76c6,.87,11.94,1.32,17.94,1.78,5.43.42,10.87.48,16.31.57,2.26,0,4.51,0,6.76-.1,2.51-.06,5-.1,7.54-.26,5.18-.31,10.35-.7,15.52-1.21,4.67-.47,9.33-1.08,14-1.46a0,0,0,0,0,0,0,153.51,153.51,0,0,0-15.59-3.13c-5.12-.86-10.28-1.59-15.38-2.59q-5-1-9.93-1.86c-2.46-.44-4.9-1.1-7.34-1.63s-4.65-.91-6.93-1.51q-4.75-1.25-9.52-2.44l-6.33-1.56c-1.4-.34-2.77-.81-4.15-1.21q-4.35-1.27-8.72-2.49c-1.62-.45-3.28-.81-4.87-1.34-4.73-1.57-9.47-3.09-14.24-4.52-7.91-2.38-15.7-5.12-23.34-8.27a147.48,147.48,0,0,1-21.6-11.4c-2.11-4.17-4.21-8.34-6.24-12.54-1.19-2.45-2.27-5-3.38-7.44-.53-1.21-1.09-2.4-1.63-3.61a8.09,8.09,0,0,0-1-1.65l-1.61-2.09q-1.26-1.05-2.6-2a8.56,8.56,0,0,0-5-1.38,15,15,0,0,0-3.05.33ZM21.14,307.6l-.11.15v0l.11-.13Z"/><path class="cls-1" d="M37.65,46.56a9.85,9.85,0,0,0-4.5,5.85q-.06.23-.12.48a10.11,10.11,0,0,0,0,5.3l.15.88a22.44,22.44,0,0,0,2,5.31l.05.11c.2,1,.39,1.91.58,2.87.63,3.18,1.25,6.37,1.8,9.56,1.1,6.38,2,12.76,2.95,19.17.29,2.54.55,5.09.82,7.63.26,2.37.57,4.74.77,7.11q.73,8.9,1.44,17.81c.76,9.41,1.29,18.83,2.27,28.22q1,9.79,2,19.57c.22,2.09.56,4.18.86,6.25q.87,6,1.95,12c1.37,7.68,3.1,15.3,5.08,22.84,1.33,5.07,2.67,10.17,4.35,15.14l2.66,7.84,6.32,18.63c1.75,5.15,3.74,10.22,5.7,15.29,2.82,7.27,5.9,14.43,9.15,21.52a208,208,0,0,0,10.5,20.39,164.38,164.38,0,0,0,12.91,18.31,133.61,133.61,0,0,0,15,15.93,92.8,92.8,0,0,0,8.26,6.55,89.56,89.56,0,0,0,9.85,5.88,122.24,122.24,0,0,0,14.68,6.26q4.24,1.58,8.48,3.11l4.16,1.48s0,0,0,0q-5.66-3.42-11.33-6.81l-6.08-3.63a118.86,118.86,0,0,1-11.1-7.63,99.44,99.44,0,0,1-10.89-10c-3.3-3.5-6.37-7.22-9.33-11-14-18.25-24.77-38.67-33.69-59.8l.49,1.16c-3.12-7.45-6.12-15-8.81-22.57l-6.33-17.9-2-5.68c-.47-1.33-.84-2.68-1.25-4Q66,221,64.64,216.09a303.71,303.71,0,0,1-7.75-39.52l.16,1.2c-.29-2.15-.44-4.32-.63-6.48l-1.05-11.46c-.38-4.19-.76-8.35-1-12.55q-.92-17.67-1.66-35.34c-.35-8.39-.8-16.77-1.25-25.16,1.47,1.54,3,3,4.55,4.45,3.62,3.25,7.16,6.59,10.89,9.71,4,3.38,8,6.85,12.18,10.11q7,5.48,13.92,11c5.24,4.11,10.67,8,16,11.93,3.6,2.67,7.32,5.18,11,7.72,6.19,4.25,12.37,8.49,18.66,12.57s12.94,8.14,19.65,11.82c5.7,3.12,11.49,6.17,17.36,9,9.11,4.34,18.16,8.85,27.41,12.9l19.53,8.54c4,1.77,8.17,3.31,12.3,4.88l17.55,6.63c1.33.51,2.72.9,4.08,1.34l10.47,3.42c4.13,1.35,8.25,2.8,12.43,4l19.84,5.78c10,2.91,20,5.58,30.06,8.33,4.82,1.32,9.67,2.53,14.51,3.79,4.17,1.09,8.33,2.22,12.53,3.19l19.74,4.55c4.75,1.1,9.58,1.9,14.37,2.83,4.4.85,8.78,1.7,13.2,2.41,5.93,1,11.86,2.07,17.82,2.8s12.06,1.37,18.11,1.94c5.34.51,10.72.74,16.07,1,9.69.51,19.4.53,29.09.73,6.18.13,12.36.08,18.54.2,3,.06,6,.08,9,.13s6.24,0,9.35.26l-.16,0c.4.05.8.11,1.19.19l.35.16.06.08,0,.09-.1.15-.24.21-.69.42a0,0,0,0,0,0,0c.8-.21,1.75-.32,1.48-1.33-.11-.39-.75-.66-1.06-.83a13.29,13.29,0,0,0-2.19-.87c-2.08-.68-4.17-1.32-6.27-1.89-4.58-1.24-9.2-2.31-13.85-3.27-9.51-2-19.11-3.39-28.73-4.68l.39.05c-5.07-.68-10.16-1.26-15.23-1.93q-8.24-1.1-16.51-2c-6.06-.82-12.13-1.63-18.21-2.32-5.53-.82-11.05-1.6-16.58-2.4-4.6-.66-9.15-1.58-13.72-2.43s-8.93-1.57-13.34-2.58L358.54,225c-4.52-1-9-2.33-13.48-3.52s-8.76-2.27-13.11-3.5c-10.36-2.93-20.73-5.8-31-8.93l-18.63-5.67c-1.22-.37-2.42-.82-3.62-1.24l-10.17-3.51-9.71-3.35c-1.06-.36-2.12-.71-3.15-1.13l-18.84-7.56L232,184.61l-14.72-6.83c-3.82-1.77-7.7-3.46-11.46-5.38-15.33-7.81-30.76-15.4-45.37-24.52-13.33-8.32-25.89-17.85-38.51-27.19L109,110.38c-3.82-3-7.52-6.23-11.26-9.37S90,94.44,86.26,91.09L80,85.55c-2-1.8-3.93-3.75-5.89-5.62A148.3,148.3,0,0,1,60.82,65.71c-2.12-2.85-4.07-5.79-5.93-8.83a56.45,56.45,0,0,1-2.82-5.25,11.07,11.07,0,0,0-2.56-3.54,9.79,9.79,0,0,0-11.86-1.53Zm485.23,209h0Z"/><path class="cls-1" d="M710.73,10.33A294.76,294.76,0,0,0,670.07,20.8a289.51,289.51,0,0,0-38.74,16.37A325.09,325.09,0,0,0,563,84.07a269.51,269.51,0,0,0-28.71,29.43,234.47,234.47,0,0,0-23.76,33.94c-6.8,12-12.33,24.9-15.07,38.46a83.66,83.66,0,0,0-1.56,20.94,71.53,71.53,0,0,0,3.74,19.86c3.23,9.25,9.15,17.3,16.08,24.12a83.94,83.94,0,0,0,10.94,9.09c4.12,2.87,8.41,5.51,12.72,8.09,0,0,0,0,0,0l-2.66-2,0,0c-3.88-3-7.72-6.14-11.36-9.45a88.93,88.93,0,0,1-9.9-10.88,69.25,69.25,0,0,1-8.36-14.05,59.62,59.62,0,0,1-3.82-14.4,87.79,87.79,0,0,1,.09-21.47,113.58,113.58,0,0,1,7.49-26.79c6.27-14.57,14.91-27.91,24.53-40.47a259.19,259.19,0,0,1,23.95-26.74,332.08,332.08,0,0,1,28-24.19,321.55,321.55,0,0,1,69.19-40.71A287.76,287.76,0,0,1,726,17.45c20.76-2.71,41.82-3.27,62.61-.6a180.05,180.05,0,0,1,21.27,4.23,163.64,163.64,0,0,1,20.81,7c7.42,3.18,14.75,6.77,21.25,11.59a85.83,85.83,0,0,1,13.6,13.83,78.46,78.46,0,0,1,9.22,14.79,41,41,0,0,1,2.27,8.58,84.36,84.36,0,0,1,.39,11.1c-.08,4-.25,8-.73,11.91-.89,6.16-2.31,12.22-3.27,18.36q-.82,5.24-1.57,10.49c-.32,2.23-.64,4.46-1,6.69-.65,4.18-1.07,8.47-2.28,12.54,0,0,0,0,0,0a67.3,67.3,0,0,0,4.31-9.82c.7-1.82,1.41-3.63,2.07-5.46,2.21-6.16,4.27-12.37,6.51-18.52,1.12-3.07,2.25-6.14,3.25-9.25a69.16,69.16,0,0,0,2.41-10.1c1.09-6.66,2-13.44,1.37-20.2a37.83,37.83,0,0,0-2-9.65,52.44,52.44,0,0,0-4.77-9.66A90.45,90.45,0,0,0,876,47.22a84.32,84.32,0,0,0-6.66-7.5,81.84,81.84,0,0,0-15.74-12.32,126.63,126.63,0,0,0-18.37-8.61A181.19,181.19,0,0,0,795.42,8.07a224.45,224.45,0,0,0-34.1-2.53,283,283,0,0,0-50.59,4.79Zm15.14,7.14-.5.07.5-.07Zm-192,110.31-.18.23.18-.23Zm-32.68,88.84,0,.26,0-.26Z"/><path class="cls-1" d="M1011,24.06a14.76,14.76,0,0,0-2.31.33,17.63,17.63,0,0,0-2.72.81,42.38,42.38,0,0,0-4.73,2.08,19.12,19.12,0,0,0-3.77,2.51,13.88,13.88,0,0,0-1.4,1.33A13.77,13.77,0,0,0,995,32.56q-.38.82-.71,1.65a8.05,8.05,0,0,0-.07,3.62,9.11,9.11,0,0,0,.7,1.79l-5.27,3.76c-1.79,1.28-3.63,2.48-5.45,3.71-1.38.95-2.76,1.9-4.17,2.8l-7.46,4.76c-1.32.84-2.67,1.6-4,2.37L961.4,61.1c-.37.21-.75.38-1.13.57l-3.93,1.9c-2,1-4.06,2-6.13,3l-8.81,4c-4.15,1.88-8.35,3.63-12.53,5.44L923,78.12c-1.67.63-3.33,1.36-5,1.89l-7.19,2.24c-1.51.47-3,1-4.56,1.4l-7.45,1.87-3.66.93c-.38.1-.76.2-1.15.27l-7.72,1.38c-2.85.51-5.7,1-8.58,1.4,0,0,0,0,0,0,1.7-.07,3.41-.12,5.11-.26l4-.33,7.63-.66c.48,0,.95-.14,1.42-.22l4.28-.71,7.31-1.24c.52-.09,1-.24,1.54-.36l4.57-1.08,4.18-1c.54-.13,1.1-.24,1.63-.4L927,80.88c1.51-.47,3-.94,4.49-1.48,8.69-3.21,17.36-6.49,25.82-10.26l6.69-3c.56-.25,1.09-.59,1.62-.87L969.85,63c1.6-.86,3.24-1.67,4.78-2.63l7.14-4.5c6.28-4,12.38-8.17,18.49-12.39l.82.24a20,20,0,0,0,3,.49c.84.09,1.68.16,2.53.18l2.27,0c.88,0,1.78,0,2.67-.08l-.62,1.47c-.82,1.84-1.58,3.72-2.47,5.53l-3.45,7c-1.87,3.82-3.91,7.55-5.88,11.32-1,1.89-2.08,3.73-3.12,5.59s-2.06,3.74-3.12,5.59Q989.44,86.91,986,93c-2,3.6-4.06,7.22-6.09,10.83a174.52,174.52,0,0,1-13.64,20.64c-2,2.61-4.1,5.19-6.24,7.71s-4.17,5-6.24,7.44q-3.68,4.42-7.57,8.65a117.61,117.61,0,0,1-14.06,13c-5.78,4.41-11.91,8.35-18,12.24-4.61,2.93-9.24,5.86-14,8.57a0,0,0,0,0,0,0,272,272,0,0,0,25.53-11,111.66,111.66,0,0,0,11.51-6.35,107,107,0,0,0,15-11.6c4.92-4.54,9.45-9.46,14-14.35,2.12-2.27,4.15-4.6,6.14-7a132,132,0,0,0,11.24-15.56c3.34-5.44,6.32-11.07,9.37-16.67q3.12-5.74,6.27-11.47c2.12-3.86,4.17-7.76,6.24-11.64,1.54-2.89,3-5.83,4.41-8.77.65-1.32,1.34-2.62,1.95-4l2.42-5.4c.65-1.45,1.33-2.89,1.91-4.38.68-1.76,1.45-3.52,2.06-5.31s1.19-3.5,1.71-5.28c.15-.5.28-1,.41-1.5.3-1.22.58-2.81-.18-3.94a3.6,3.6,0,0,0-2.22-1.72,3.4,3.4,0,0,0-1.81,0l-.17.06c-.51,0-1-.09-1.52-.12-.92,0-1.84-.06-2.77-.05h-.46q1.43-1,2.84-2a7.09,7.09,0,0,0,3-3.63,5.13,5.13,0,0,0-1.25-4.82,6.35,6.35,0,0,0-4.54-1.56Z"/><path class="cls-1" d="M1059.88,121.69a9.74,9.74,0,0,0-2.14.22,14.43,14.43,0,0,0-1.62.58c-1.12.46-2.22,1-3.29,1.52l-3.07,1.58q-3.13,1.62-6.29,3.19c-3.76,1.86-7.63,3.5-11.37,5.41-1.18.6-2.37,1.19-3.54,1.81-3.28,1-6.58,1.91-9.87,2.87-4.18,1.23-8.36,2.46-12.56,3.64-4.37,1.23-8.72,2.58-13.11,3.74-9.19,2.43-18.35,5-27.58,7.23q-8.1,2-16.17,4.09c-3.81,1-7.58,2.1-11.36,3.19-7,2-13.9,4.09-20.81,6.29a0,0,0,0,0,0,0c6.62-1.14,13.24-2.25,19.87-3.37,4.15-.7,8.29-1.48,12.44-2.15q8.46-1.37,16.9-2.85c4.61-.81,9.2-1.78,13.8-2.72s9.08-2,13.61-3.12,9-2.33,13.49-3.56l1.27-.35q-6.15,4.18-12.23,8.48a107.58,107.58,0,0,0-11.77,9.64c-2.24,2.12-4.38,4.36-6.45,6.64-2.45,2.72-4.84,5.53-7.06,8.44-3.33,4.37-6.69,8.73-9.76,13.3A114.16,114.16,0,0,0,945.08,231a158.44,158.44,0,0,0-3.23,19.44q-.6,4.88-1.2,9.77l.05-.36a142.47,142.47,0,0,1-3,16.43,0,0,0,0,0,0,0A137.17,137.17,0,0,0,944,258.18q1.4-5.12,2.71-10.26c.67-2.61,1.35-5.2,2.08-7.79a114.06,114.06,0,0,1,4.49-12.88,137.19,137.19,0,0,1,7.89-15.48c3-5.15,6.45-10,10-14.86q3.68-4.72,7.3-9.47c3.28-4.09,6.61-8.11,10.24-11.9a106.5,106.5,0,0,1,11.2-10c3.79-2.73,7.58-5.45,11.42-8.1,3.61-2.48,7.2-5,10.83-7.45,3.9-2.63,7.81-5.25,12-7.5q2.47-1.34,5-2.61l1.19-.38c2.29-.72,4.54-1.62,6.81-2.44,1.17-.42,2.31-.95,3.45-1.42s2.23-.92,3.33-1.42c1.58-.72,3.17-1.42,4.73-2.18a21.14,21.14,0,0,0,4-2.57,5.14,5.14,0,0,0,1.26-2.1,5.72,5.72,0,0,0,0-2.67,4.06,4.06,0,0,0-3.83-3Z"/><path class="cls-1" d="M929.24,246.15q1.42,4.79,2.79,9.59c.35,1.22.64,2.45.94,3.68.35,1.44.77,2.87,1.07,4.33q.54,2.68,1.1,5.36c.22,1.1.49,2.19.67,3.3q.79,5,1.61,9.93.62,5.32,1.28,10.65c.45,3.65.67,7.34,1,11,.3,3.15.48,6.32.71,9.48s.45,6.36.61,9.54.44,6.62.52,9.93q.17,6.51.41,13c0,1,0,2,0,3q0,3.6,0,7.2v4.14c0,2.84-.27,5.7-.48,8.53s-.5,5.38-.84,8.06a189.54,189.54,0,0,1-4.42,22.26,173.63,173.63,0,0,1-7.5,21.76c-1.44,3.38-2.91,6.75-4.49,10.06l-4.39,9.16q-2.75,5.74-5.61,11.41c-2,3.91-3.91,7.84-5.95,11.72l-7.88,15c-.63,1.2-1.4,2.35-2.09,3.51l-5.46,9.12-3.13,5.22c-.9,1.51-2,2.94-3,4.4l-8.92,13.26c-.95,1.41-2,2.76-3,4.14l-6.32,8.81-3.58,5-9.34,11.56c-2.27,2.8-4.51,5.62-6.85,8.36-6.35,7.45-12.68,14.91-19.16,22.25l-11.89,13.47c-2.78,3.15-5.67,6.2-8.51,9.29-3,3.25-5.91,6.55-9,9.75L788.2,619c-6.74,7.07-13.65,14-20.52,20.93-2.76,2.79-5.57,5.54-8.36,8.3-3.32,3.28-6.58,6.64-10,9.85l-12.23,11.63c-2.51,2.39-5,4.77-7.62,7.07L715.24,689.4c-2.74,2.42-5.61,4.67-8.45,7L696,705.16,684,714l-5.11,3.78c-1.22.9-2.54,1.67-3.81,2.5l-14.28,9.34c-4.06,2.66-8.24,5.15-12.36,7.71-3.23,2-6.46,4-9.75,5.91l-13.83,8c-1.51.88-3.12,1.62-4.67,2.42l-9.54,4.94L606,761.08c-1.79.92-3.66,1.7-5.49,2.55-5.34,2.48-10.65,5-16,7.39l-18,7.88c-8,3.27-16,6.62-24,9.74-9.22,3.57-18.42,7.16-27.67,10.64l-16.29,6.13c-3.85,1.45-7.66,3-11.48,4.52l-14.32,5.64c-4.35,1.71-8.65,3.53-13,5.3L451,824.41c-1.2.49-2.4,1-3.61,1.47l-15.51,5.74c-3.58,1.33-7.14,2.74-10.76,4l-17.07,5.76q-27.76,9.37-55.49,18.81c-8.09,2.75-16.28,5.23-24.43,7.81-8.46,2.67-17,5-25.57,7.39-2.7.77-5.4,1.41-8.13,2.06l-16.84,4c-3.32.79-6.7,1.32-10.06,1.95l-13.66,2.55-19.34,2.47c-1.95.25-3.91.38-5.86.54q-7.27.57-14.56.69A194,194,0,0,1,183,888.12,131.88,131.88,0,0,1,151.9,880a126.23,126.23,0,0,1-25.33-15.1c-6.19-4.89-12.15-10.09-17.88-15.51a158.9,158.9,0,0,1-15.92-17.66,124.32,124.32,0,0,1-8.17-11.88l-2.42-4c-.51-.84-1.07-1.66-1.52-2.53-1.07-2.06-2.23-4.09-3.21-6.2s-2.06-4.44-3-6.69v0l0,0,0-.09,0,.07c-.71-1.78-1.39-3.54-2-5.37a0,0,0,0,0,0,0,83.49,83.49,0,0,0,2.91,13.45c.59,2.09,1.39,4.15,2.09,6.2.23.68.55,1.35.83,2,.68,1.64,1.38,3.28,2.07,4.91a118.47,118.47,0,0,0,5.59,11.3A125.36,125.36,0,0,0,97,849.55a166.79,166.79,0,0,0,13.09,14.64q3.33,3.33,6.84,6.49c2.67,2.42,5.5,4.64,8.37,6.81a105.45,105.45,0,0,0,16,9.72,110.58,110.58,0,0,0,18.83,7.26,136.25,136.25,0,0,0,19.34,4.06,189.59,189.59,0,0,0,21,1.78c6.47.19,12.93,0,19.38-.36,3.88-.23,7.77-.52,11.62-1l18.25-2.42c4.18-.55,8.3-1.42,12.43-2.21l9.43-1.8c1.29-.24,2.59-.45,3.86-.76l17-4.09,5.93-1.42c1.39-.33,2.76-.77,4.13-1.16l18.16-5.13c3.57-1,7.09-2.18,10.63-3.29l15.7-4.91c4.22-1.32,8.39-2.81,12.58-4.22q28-9.42,56.12-18.7c3.4-1.13,6.83-2.2,10.2-3.42L443.59,839c3.12-1.13,6.23-2.24,9.31-3.46l18-7.19c8.92-3.56,17.9-7,26.87-10.41s17.8-6.6,26.71-9.88c3.63-1.34,7.24-2.73,10.86-4.11,4.34-1.65,8.73-3.21,13-4.94,8.9-3.59,17.87-7,26.66-10.89l16.72-7.32c4-1.73,7.82-3.64,11.73-5.48,3.6-1.69,7.22-3.32,10.74-5.18l15.93-8.4c1-.51,1.91-1.09,2.85-1.64l8.82-5.21c3.32-2,6.63-3.91,9.89-6l14.57-9.18c4-2.55,8-5.25,12-7.87l5.91-3.88c1.12-.73,2.17-1.57,3.24-2.36L701.86,715c3.59-2.64,7-5.55,10.45-8.34l7.18-5.79c.91-.72,1.83-1.44,2.7-2.21l13.42-11.91,4.48-4c1.06-.94,2-2,3.07-2.93L756.6,667c2.82-2.71,5.54-5.52,8.3-8.29q11-11.06,21.87-22.26c6.83-7,13.51-14.19,20.22-21.33,6.09-6.47,12-13.12,18-19.69,3.41-3.75,6.69-7.63,10-11.44,2.6-3,5.23-5.89,7.77-8.88,6.17-7.26,12.43-14.45,18.41-21.87L872.6,539c.82-1,1.59-2.07,2.34-3.13l5.69-8c2.39-3.35,4.85-6.66,7.14-10.08l10.15-15.16c2.35-3.51,4.39-7.23,6.55-10.86s4.21-6.93,6.08-10.54l7.61-14.67c2.38-4.59,4.61-9.27,6.91-13.9,2-4,3.85-8.05,5.75-12.09l2.87-6.1c1.17-2.48,2.2-5,3.27-7.57,1.44-3.41,2.81-6.85,4.08-10.33a156.07,156.07,0,0,0,5.34-18.1,196.43,196.43,0,0,0,3.52-21.19c.41-3.4.65-6.81.85-10.23.14-2.35.27-4.73.24-7.08q-.06-4.42-.12-8.83c0-1.73,0-3.48-.08-5.21-.17-3.08-.37-6.15-.58-9.22-.32-4.85-.84-9.67-1.36-14.5-.3-2.72-.64-5.43-1-8.14-.46-3.31-.87-6.64-1.43-9.93q-.94-5.61-1.93-11.22c-.23-1.28-.54-2.55-.81-3.82q-.71-3.34-1.44-6.68c-.65-3-1.54-5.94-2.35-8.89-.9-3.29-2-6.5-3.09-9.73-.37-1.12-.81-2.21-1.23-3.3-.57-1.47-1.1-3-1.73-4.41q-2.2-5-4.55-10h0ZM74.39,800.42h0v0Z"/><path class="cls-1" d="M297.07,511.17c-.61.94-1.28,1.84-1.95,2.74a66.16,66.16,0,0,1-4.48,5.13l-3.29,3.26c-.79.78-1.67,1.48-2.5,2.21-1.66,1.47-3.31,2.93-5,4.32q-3.26,2.63-6.49,5.28l-5.57,4.08L264,541c-.56.42-1.12.89-1.71,1.27-4.43,2.84-8.86,5.67-13.26,8.55-1.2.79-2.51,1.43-3.77,2.12q-4.49,2.49-9,5c-8.19,4.62-16.49,9.06-25.05,13-1.29.59-2.6,1.16-3.9,1.72a212.89,212.89,0,0,1-25,8.66,201.61,201.61,0,0,1-26,5.33,200.09,200.09,0,0,1-20.68,1.59c-3.36.08-6.71,0-10.06-.13-2.14-.08-4.29-.15-6.43-.32-4.89-.38-9.8-.66-14.68-1.16-5-.52-10.07-1.05-15.12-1.47a75.75,75.75,0,0,0-11.62-.39c-3.7.27-7.64,1-10.69,3.27a11.63,11.63,0,0,0-2.59,2.35,10.66,10.66,0,0,0-2.34,4.07,18.84,18.84,0,0,0-.45,3.29q.14,1.32.34,2.63a18.35,18.35,0,0,0,1,2.41,33.16,33.16,0,0,0,4.24,5.62c.75.88,1.49,1.76,2.26,2.62,1.71,1.94,3.46,3.82,5.24,5.71,3,3.2,6.2,6.25,9.48,9.17,1.75,1.56,3.46,3.19,5.27,4.68l6.75,5.56c3.72,3.07,7.54,6,11.33,9,8,6.24,16,12.4,24.55,17.91,5.79,3.75,11.76,7.22,17.81,10.54s12.17,6.33,18.45,9.08a177.51,177.51,0,0,0,20.14,7.6A144.37,144.37,0,0,0,209,694.63c14.14,2.08,28.56,2,42.79,1.06,2.5-.17,5-.45,7.48-.73l10.17-1.13c1.84-.2,3.71-.35,5.53-.68l8.27-1.54,8.54-1.59c1.44-.27,2.84-.7,4.26-1.07l9.77-2.56c1.34-.35,2.68-.68,4-1.11L324,680.66c4-1.3,7.94-2.83,11.89-4.25,3.68-1.32,7.34-2.67,11-4l6.41-2.34c2.77-1,5.56-2,8.38-2.82l1.07-.33c-3.47,3.82-7.26,7.35-11.07,10.81-2.22,2-4.42,4-6.73,5.92l-8.54,7.08-12.63,9.16c-1,.7-1.95,1.34-3,2L312.61,707c-3.31,2.09-6.6,4.21-10,6.16l-16.53,9.47c-3.51,2-7.21,3.66-10.86,5.42l-15,7.22-12.68,5.27-9,3.76c-1.29.54-2.58,1.12-3.89,1.62-4.67,1.77-9.36,3.51-14,5.26l-9,3.38c-1.15.43-2.3.93-3.48,1.3L193,760.6l-8.8,2.76c-1,.31-2,.65-3,.91l-16.42,4.32c-3.6.95-7.18,2-10.8,2.81-9.55,2.24-19,4.74-28.56,7q-15.62,3.72-31.16,7.8C89.16,787.58,84,789,79,790.65c-2,.67-4,1.45-5.93,2.19s-3.91,1.53-5.8,2.44a24.27,24.27,0,0,0-4.48,2.81c-1.71,1.35-3,3.29-4.39,4.91a.35.35,0,0,0,0,.48c.44.53.87,1.07,1.32,1.6A3.92,3.92,0,0,0,61,806s0,0,0,0l-.35-.27h0l-.32-.29h0a19.83,19.83,0,0,1-1.27-2.1c1.24-1,2.42-2.08,3.67-3.07a17.75,17.75,0,0,1,3-1.71,54.33,54.33,0,0,1,8.21-2.43c3.42-.8,6.82-1.59,10.27-2.22s7.14-1.28,10.72-1.9q8.45-1.45,16.87-3.05c8.42-1.6,16.83-3.27,25.16-5.27q9.27-2.24,18.51-4.63c3.41-.89,6.8-1.9,10.18-2.87l17.15-4.91c.87-.25,1.73-.55,2.59-.84l8.27-2.77,16-5.36c1-.33,1.92-.74,2.88-1.12l8.58-3.38,15.05-5.93c1.22-.48,2.42-1,3.62-1.55l8.51-3.68,14.7-6.36c1.11-.48,2.18-1.08,3.26-1.61l8.7-4.33,8.7-4.33c1.09-.54,2.23-1,3.28-1.64l14.76-8.61c3.18-1.85,6.33-3.72,9.45-5.69l14-8.84c.42-.27.82-.59,1.23-.88l3.66-2.61,7.93-5.67c3.94-2.81,7.65-5.95,11.44-9,3.55-2.82,7-5.77,10.49-8.68s7.13-6.23,10.85-9.16c1.16-.91,2.26-1.88,3.39-2.82a5.41,5.41,0,0,0,1.36-1.84,5.85,5.85,0,0,0,.61-2.82,6.27,6.27,0,0,0-.84-2.94,6.14,6.14,0,0,0-2.06-2.18,10.9,10.9,0,0,0-2.17-.87,11.38,11.38,0,0,0-3.17-.23,46.7,46.7,0,0,0-9.8,1.66c-3.37.84-6.65,2-10,3.11-4.3,1.41-8.56,3-12.84,4.44l-7.73,2.66c-2.08.72-4.16,1.49-6.26,2.15l-15.11,4.75c-1.47.46-3,.79-4.5,1.16l-9.76,2.46c-1.29.33-2.55.65-3.86.88l-9.24,1.64L272,681.7l-17.06,1.84c-2.15.23-4.33.33-6.49.47q-6.32.38-12.65.43a189.79,189.79,0,0,1-24.58-1.22,152.7,152.7,0,0,1-19.66-4,161.32,161.32,0,0,1-18.79-6.72,257.27,257.27,0,0,1-28.21-14.29c-4.55-2.64-9-5.43-13.39-8.38s-8.79-6.32-13.11-9.58l-9.5-7.5c-2.87-2.27-5.61-4.67-8.38-7.06-1.13-1-2.32-1.89-3.39-2.93l-5-4.92c-1-1-2-2-3-3-1.48-1.66-3-3.31-4.43-5l.6.78c-1.38-1.77-2.83-3.52-4.05-5.4-.68-1-1.45-2.06-2-3.14l-.61-1.11a87.87,87.87,0,0,1,10.27.22c2.08.12,4.16.23,6.24.38,4.81.34,9.62.7,14.44.92l9.55.44c5.06.23,10.17.15,15.23-.06a197.94,197.94,0,0,0,22.32-2.39A206.65,206.65,0,0,0,177,596a220.3,220.3,0,0,0,39.36-14.68A193.1,193.1,0,0,0,241,566.82q4.26-2.89,8.5-5.83c1.51-1,3.06-2.06,4.5-3.21q6.21-5,12.36-10c1.14-.93,2.18-2,3.25-3q3-2.82,6-5.67c2.82-2.67,5.41-5.59,8.06-8.44,1.17-1.26,2.25-2.6,3.35-3.92s2.39-2.9,3.5-4.44a55.37,55.37,0,0,0,6.51-11.13s0,0,0,0Zm-2,2.78,0,0,0,0ZM60.3,805.43h0Z"/><path class="cls-1" d="M42.31,306.66a5.68,5.68,0,0,0-3.52,2.71,13.89,13.89,0,0,0-1,2.63,24.81,24.81,0,0,0-.35,2.94,23.72,23.72,0,0,0,.26,5.6,28,28,0,0,0,.92,4.33,34.73,34.73,0,0,0,2.26,5.37A41,41,0,0,0,45,336.73q1.06,3.77,2.15,7.52c1.29,4.45,2.81,8.83,4.24,13.24.17.52.4,1,.61,1.55l1.83,4.67,1.77,4.49c.43,1.1.82,2.22,1.33,3.29L60,378l2,4.23c.3.64.57,1.3.91,1.92q3.62,6.72,7.22,13.46c.86,1.61,1.91,3.14,2.86,4.7l5,8.28a225.5,225.5,0,0,0,19.87,27.28c4,4.79,8.35,9.3,12.59,13.88,5.75,6.21,11.57,12.35,17.77,18.12,5.17,4.8,10.67,9.23,16.26,13.54,5.42,4.18,10.94,8.25,16.65,12a161,161,0,0,0,17.6,10.11,126.36,126.36,0,0,0,19.77,7.62,167.63,167.63,0,0,0,20.43,4.64A103.32,103.32,0,0,0,241,519.5c3.39-.17,6.76-.65,10.12-1.13,3.63-.52,7.23-1.26,10.8-2.13a113.15,113.15,0,0,0,19.84-7,0,0,0,0,0,0,0c-4.36,1-8.75,1.75-13.17,2.35l.35,0a146.65,146.65,0,0,1-16,1.18,111.36,111.36,0,0,1-15.81-.58,187.89,187.89,0,0,1-23.81-5.4,218,218,0,0,1-23.77-8.17,170.63,170.63,0,0,1-22.45-11.67,259.18,259.18,0,0,1-21.43-15c-3.42-2.66-6.77-5.39-10-8.26s-6.53-6.08-9.69-9.22c-2.75-2.74-5.43-5.53-8.09-8.35l-8.68-9.24c-3.82-4.05-7.33-8.39-10.76-12.78a204.28,204.28,0,0,1-13.9-20.75l-4.71-8c-.66-1.13-1.33-2.24-1.92-3.4l-4-7.75c-.85-1.68-1.81-3.33-2.57-5.06q-2.59-5.91-5.18-11.83l-2.42-6.75c-.71-2-1.54-3.94-2.13-6l-.65-2.2.41.31q4.22,3.25,8.66,6.17A145,145,0,0,0,88.15,369a131.49,131.49,0,0,0,19.74,7.43,128.38,128.38,0,0,0,21,4,124.71,124.71,0,0,0,35.06-1.11l6.85-1.2c2.13-.38,4.25-.95,6.37-1.42,3.94-.88,7.89-1.82,11.76-3,0,0,0,0,0,0-6,.79-12.16,1-18.23,1.36-2.93.17-5.88.12-8.81.18a143.2,143.2,0,0,1-21.44-1.3,156.16,156.16,0,0,1-37.84-10.3,165.52,165.52,0,0,1-35.06-20,86.78,86.78,0,0,1-11.87-11q-.79-3.21-1.55-6.43c-.5-2.11-1-4.23-1.46-6.35-.79-3.38-1.39-7-3.09-10.09a6,6,0,0,0-2.69-2.42,6.89,6.89,0,0,0-3.06-.8,5.57,5.57,0,0,0-1.48.2Zm97.27,67.12.7.09-.7-.09Zm5.32,97.57.61.47-.61-.47Z"/><path class="cls-1" d="M38.81,46.08a93.39,93.39,0,0,1,2,9.78c.16,1.63.39,3.26.48,4.89q.17,3.09.34,6.17c.19,3.3.31,6.62.47,9.92.36,7.52.7,15,1.14,22.55.41,7,.82,14.09,1.29,21.13.22,3.35.33,6.71.51,10.07.2,3.65.42,7.31.63,11,.45,8,1,16,1.46,23.93.12,1.85.28,3.7.45,5.54q.69,7.39,1.38,14.78.49,5.23,1,10.46c.14,1.52.38,3,.58,4.56q.55,4.18,1.15,8.35,1.15,7.92,2.62,15.79a332.14,332.14,0,0,0,16.9,60.77c7.31,18.61,16.59,37.07,31.15,51.1a130.08,130.08,0,0,0,11.39,9.66,112.05,112.05,0,0,0,12.46,8.21,133.06,133.06,0,0,0,27.95,11.76c3.19.94,6.4,1.8,9.61,2.64s6.58,1.53,9.88,2.26a0,0,0,1,0,0,0c-3.39-1.2-6.79-2.36-10.14-3.67s-6.86-2.68-10.25-4.1l.09,0-.16-.07-.14-.06.06,0a150.9,150.9,0,0,1-32.73-18.92l.55.43a125.05,125.05,0,0,1-22.07-21.44,145,145,0,0,1-11.18-17.08,191,191,0,0,1-9-18.61,299.61,299.61,0,0,1-14.37-44q-2.83-11.41-5-23c-1.46-7.73-2.65-15.51-3.71-23.31v0l-.09-.7.06.45c-.41-3.14-.66-6.29-1-9.44l-1.52-15.26c-.2-2-.44-4.05-.57-6.09l-.85-13.16c-.44-6.86-.89-13.72-1.4-20.58q-.84-11.44-1.93-22.84C47,95.84,45.54,81.68,43.75,67.56c-.24-1.91-.54-3.82-.82-5.72-.25-1.74-.61-3.45-.94-5.18s-.78-3.15-1.21-4.71a60.57,60.57,0,0,0-2-5.87h0a0,0,0,0,0,0,0Zm114.4,317.45.08,0-.16-.07.08,0ZM55.64,197.62h0l0-.25,0,.24Z"/><path class="cls-1" d="M771,12.79a178.93,178.93,0,0,0-18,2.26c-6.71,1.12-13.35,2.72-19.92,4.47a301.53,301.53,0,0,0-36.8,12.65c-6.79,2.79-13.51,5.73-20.09,9L659.1,49.54c-2.71,1.33-5.45,2.6-8.11,4L636.4,61.34,624,68c-.77.42-1.52.89-2.28,1.33l-7.36,4.31-15.39,9c-2.35,1.38-4.65,2.84-7,4.29L576,97l-4,2.49c-1,.63-1.95,1.35-2.91,2l-15.28,10.69L550,114.85c-1.34.94-2.61,2-3.9,3L531.83,129c-2.42,1.89-4.74,3.91-7.07,5.91q-7.38,6.36-14.08,13.4a124.64,124.64,0,0,0-9.15,10.84A83.61,83.61,0,0,0,494,171a65.56,65.56,0,0,0-5,13,70.43,70.43,0,0,0-2,13.93,99.33,99.33,0,0,0,.42,14.82,114.25,114.25,0,0,0,2.26,14.56,77.47,77.47,0,0,0,4.51,14.12q.55,1.29,1.16,2.54c-.66-.09-1.36-.22-2-.27-1-.09-2.07-.2-3.1-.24-4.51-.2-9-.3-13.54-.39-8.47-.17-16.95-.3-25.41-.66-4.41-.19-8.84-.31-13.24-.6l-8.68-.58c-2-.13-4-.21-5.92-.4l-15.79-1.47c-3.94-.37-7.87-.83-11.81-1.27-10.17-1.12-20.32-2.37-30.47-3.62l-13.92-2c-3.4-.49-6.8-1-10.18-1.6l-17-3.23c-.85-.16-1.69-.36-2.53-.56L313.31,225l-8.76-2.13c-1.26-.31-2.54-.58-3.79-.92l-14.67-4c-9.06-2.46-18.09-5-27.13-7.55q-12.4-3.51-24.82-6.94c-2.74-.77-5.5-1.49-8.22-2.32l-16.25-4.94-4.75-1.44c-1.11-.34-2.19-.79-3.27-1.18l-16.22-5.89c-3.17-1.15-6.26-2.51-9.37-3.8l-12.53-5.19-18.41-8.09c-6.63-2.91-13.26-5.85-19.7-9.18-4.12-2.13-8.17-4.38-12.13-6.8a130.55,130.55,0,0,1-10.88-7.54,203,203,0,0,1-22.77-20.7c-2.59-2.73-5.16-5.52-7.59-8.41l-4.41-5.24c-2.14-2.54-4.32-5-6.4-7.63q-4-4.93-8-9.85l-6.54-8.68c-1.9-2.52-3.61-5.19-5.38-7.8s-3.4-5.33-5.08-8c-1.81-2.9-3.57-5.83-5.35-8.75,0,0,0,0,0,0q3.28,6.54,6.67,13c.79,1.52,1.59,3,2.44,4.5l4,6.87c.35.61.77,1.19,1.15,1.78L47.61,92c1.11,1.7,2.17,3.45,3.34,5.1q4.19,5.89,8.4,11.75c1.12,1.55,2.32,3,3.48,4.56l5.41,7c2.49,3.24,5.17,6.35,7.86,9.42A158.55,158.55,0,0,0,90,143.76c4.19,3.73,8.62,7.2,13.15,10.51A144.31,144.31,0,0,0,120,164.61c7.94,4.28,16.2,7.89,24.45,11.52L160.09,183c3.55,1.56,7.16,3,10.75,4.48l8.42,3.48c1.14.47,2.27,1,3.42,1.4l15.67,5.68,5,1.79c1.4.51,2.86.87,4.28,1.3l16.9,5.13c3.2,1,6.44,1.83,9.66,2.74l16.69,4.67c7.9,2.21,15.76,4.58,23.67,6.76l14,3.86c3.74,1,7.46,2.15,11.22,3.09l15.85,4,6,1.49c1.22.3,2.47.51,3.7.75L342,237c.92.18,1.84.31,2.77.46l9.12,1.41c4,.62,7.94,1.29,11.92,1.82l17,2.27c3.58.48,7.17.93,10.76,1.37,4.29.53,8.57,1.11,12.87,1.59l16.46,1.84c4.52.51,9.05.85,13.58,1.27,8.84.81,17.7,1.42,26.56,2.06,6.12.45,12.23,1,18.33,1.59,2.86.28,5.71.62,8.57.92s5.66.44,8.49.7q.37.08.72.18l.07,0q.6.49,1.23.93c.45.2.91.39,1.36.56a8.75,8.75,0,0,0,1.52.17,8.62,8.62,0,0,0,1.59-.26l1.51-.63a15.28,15.28,0,0,0,1.33-1,3.54,3.54,0,0,0,.92-1.39l.46-1.08a4.57,4.57,0,0,0,0-2.4,13.33,13.33,0,0,0-.74-1.93,15.87,15.87,0,0,0-1.08-1.52,45.73,45.73,0,0,1-5.08-8.92,96.62,96.62,0,0,1-5.91-22.19c-.46-3.65-.76-7.3-.93-11a77,77,0,0,1,.53-12.51,58,58,0,0,1,1.39-6.55,57.14,57.14,0,0,1,2.18-6.23,71.31,71.31,0,0,1,4.38-8.3,91.37,91.37,0,0,1,5.32-7.58,154.6,154.6,0,0,1,17-17.84c3.87-3.53,7.86-7,12-10.19L554.3,122l11.11-7.91,7.28-5.18c1.1-.78,2.17-1.62,3.3-2.35q12.35-7.94,24.68-15.91c2.79-1.8,5.67-3.46,8.51-5.18L625,75.87c2.19-1.33,4.4-2.57,6.64-3.81l16.68-9.23c2.4-1.33,4.76-2.73,7.2-4l11.14-5.67,14.2-7.23c6.16-3.13,12.52-5.89,18.88-8.59,19.41-8.11,39.67-14.6,60.55-17.53,5.14-.66,10.29-1.12,15.48-1.27a111.65,111.65,0,0,1,16.69.83,80.11,80.11,0,0,1,18.79,4.87A67.85,67.85,0,0,1,824,31.78a84.76,84.76,0,0,1,12.84,13c1.67,2.23,3.2,4.52,4.64,6.91a69.65,69.65,0,0,1,4.13,8.17,90.11,90.11,0,0,1,3.23,9.69,84,84,0,0,1,2,9.81,91.55,91.55,0,0,1,.67,10.36,78.52,78.52,0,0,1-.69,10c-.38,2.7-.84,5.38-1.4,8.06-.65,3.09-1.54,6.14-2.42,9.17-.76,2.65-1.6,5.27-2.44,7.89q-1,3.2-2,6.4c-.24.76-.55,1.51-.83,2.27l-1.84,5.07c-1.36,3.77-2.8,7.51-4.21,11.26-1.66,4.42-3.3,8.84-5,13.25,0,0,0,0,0,0q3.43-6.22,6.78-12.49c1.9-3.54,3.81-7.07,5.63-10.66q1.76-3.45,3.5-6.9c.24-.48.45-1,.67-1.49l2.08-4.7c1-2.26,2-4.52,2.93-6.82,1.17-3,2.29-5.92,3.31-8.93a82.8,82.8,0,0,0,2.61-10.24c.55-2.74.91-5.51,1.2-8.28a65.13,65.13,0,0,0,.2-9.11,84,84,0,0,0-.93-8.86,69.05,69.05,0,0,0-2.41-10.27,74,74,0,0,0-7-15.58A76,76,0,0,0,837.5,33.91a74.33,74.33,0,0,0-12.81-10.38,66.23,66.23,0,0,0-16.59-7.45A91.73,91.73,0,0,0,791.21,13a99.83,99.83,0,0,0-10.59-.53c-3.22,0-6.43.13-9.63.33ZM102.5,147.14l.4.31-.4-.31Zm395.88,107,.36.15-.36-.15Zm-.9,0,.54.07-.54-.07Zm1.94.55.16.12-.16-.12Z"/><path class="cls-1" d="M705.12,7.44a161,161,0,0,0-16.35,2.34c-16.59,3.43-33.16,7.1-49.4,11.93-4,1.18-8,2.24-11.94,3.58L612.9,30.23c-7.4,2.52-14.74,5.27-22,8.17-5.67,2.27-11.35,4.48-16.9,7a155.53,155.53,0,0,0-15.59,8.19A128.08,128.08,0,0,0,543.46,64.3,142.42,142.42,0,0,0,519.28,90a151.92,151.92,0,0,0-17.63,31.76,129,129,0,0,0-5.39,15.91,108.32,108.32,0,0,0-3,14c-.38,2.81-.75,5.62-1.13,8.43-.2,1.54-.46,3.08-.54,4.64-.24,4.22-.68,8.48-.59,12.7s.12,8.74.47,13.1c.7,8.65,1.72,17.24,3.1,25.81,1.49,9.25,3.36,18.42,5.42,27.56.22,1,.43,1.91.65,2.87a0,0,0,0,0,0,0c-.64-7.43-1.19-14.88-1.79-22.31-.41-5-.55-10.06-.83-15.08-.31-5.54-.31-11.1-.29-16.65s.39-11.14.7-16.72h0q.75-5.56,1.48-11.13,1.13-5.39,2.25-10.77A124.87,124.87,0,0,1,509.37,132a163.7,163.7,0,0,1,19.8-33.47,148.09,148.09,0,0,1,24.29-24.3c9.44-7.08,19.83-12.43,30.63-17.08,7.94-3,15.85-6.08,23.88-8.85s16.19-5.41,24.32-8c4.54-1.46,9.22-2.58,13.82-3.86,3.65-1,7.35-1.86,11-2.74,7.69-1.85,15.4-3.73,23.18-5.13,5.05-.91,10.09-1.92,15.17-2.66a143.84,143.84,0,0,1,62.8,3.89c2.94.81,5.84,1.82,8.74,2.73,4.6,1.43,9.08,3.2,13.58,4.91l8.07,3.65a99.85,99.85,0,0,1,18.54,11.24,91.53,91.53,0,0,1,10.1,9.22c1.26,1.36,2.64,2.67,3.78,4.12l2.32,2.93c2.56,3.75,5,7.53,7.2,11.5,1.81,3.24,3.39,6.58,4.9,10a40.25,40.25,0,0,1,1.78,5.59,76.49,76.49,0,0,1-.83,10.78,55.72,55.72,0,0,0-.45,7,16.44,16.44,0,0,0,2.06,7.46c1.32,2.25,3.09,3.52,5.17,5a12.08,12.08,0,0,0,6.9,1.69c3-.07,5.25-1.06,8-2.23,7.46-3.19,14.92-6.44,22.27-9.89,7.63-3.59,15.15-7.35,22.49-11.49q11.77-6.64,23.57-13.2C932.7,87.32,939,84,945.09,80.39a190.51,190.51,0,0,0,21.12-14.55q9.23-7.39,18.23-15c2.68-2.29,5.35-4.63,7.8-7.17A71.44,71.44,0,0,0,997.13,38c-1.41,4.44-3.37,8.76-5.1,13l-4.52,11.18q-4.2,10.36-8.48,20.67Q971,101.56,962.39,120q-4.18,9-9,17.65c-1.77,3.15-3.62,6.16-5.6,9.2-1.55,2.39-3.21,4.69-4.89,7q-.9,1.1-1.81,2.19l-1.64,1.07a89.23,89.23,0,0,0-7.36,5.62,21.17,21.17,0,0,0-2.3,2.31c-1.52,1.71-3.93,4.91-4.27,7.28-.41,2.8-.86,4.68-.06,7.47.58,2.06,1.8,4.88,3.56,6.28,2.2,1.75,3.55,3,6.33,3.76a16.14,16.14,0,0,0,8,0,23.76,23.76,0,0,0,5-2.15,31,31,0,0,0,4.23-3.34,30.05,30.05,0,0,0,2.5-2.78,85.51,85.51,0,0,0,6.9-9.64,135.58,135.58,0,0,1,12.57-6.14c6.18-2.53,12.44-4.84,18.73-7.06A227.58,227.58,0,0,0,969.72,200c-5.77,13.19-11.12,26.55-16.58,39.87l.32-.75q-1.39,3.27-2.77,6.55L951,245c-2.14,4.86-4.13,10-7.21,14.33a15.59,15.59,0,0,1-1.81,1.86,8.74,8.74,0,0,1-1.6.89h0l0,0-.2.08.1,0c-.75.3-1.54.57-2.26.93a14.14,14.14,0,0,0-5.26,4.33s0,0,0,0l.72-.65h0a14.66,14.66,0,0,1,2.78-1.7,25.09,25.09,0,0,1,3.79-.94,12.12,12.12,0,0,0,4.44-1.63,15.69,15.69,0,0,0,3.6-3.54c1-1.16,1.82-2.42,2.69-3.64,2.29-3.2,4.29-6.62,6.33-10,4.22-6.95,8.25-14,12.37-21,4.23-7.2,8.35-14.51,13-21.46l4.63-7c.9-1.37,1.75-2.82,2.75-4.13q3.79-5,7.55-10c5.67-6.64,11.31-13.28,17.45-19.49,3.28-3.32,6.53-6.67,9.89-9.9,1.57-1.51,3.08-3.12,4.72-4.55l2.34-2,4.42-1.36c1.21-.36,2.43-.69,3.66-1,1-.27,2-.55,3-.87,3.29-1.09,6.93-3.15,8.39-6.48a13.41,13.41,0,0,0,1.85-6.82c-.16-1.2-.32-2.4-.48-3.59a13.54,13.54,0,0,0-3.48-6,8.67,8.67,0,0,0-3.27-2.49c-2.64-1.14-4.33-2-7.31-1.93a17.77,17.77,0,0,0-8.74,2.43,45.39,45.39,0,0,0-8.82,6.79c-13.47,5.29-27.32,9.54-41,14.22,2.54-5.77,4.85-11.66,7.22-17.48,6.14-15.06,11.8-30.35,17.24-45.67,2.28-6.4,4.63-12.79,6.71-19.25a114,114,0,0,0,4.26-15.06,31,31,0,0,0,.5-7.56,20,20,0,0,0-2.29-7.58c-.64-.89-1.33-1.74-2-2.56l-.92-.76a6.33,6.33,0,0,0-2.25-1.54,11.58,11.58,0,0,0-4.51-1.26l-.91-.09a17.74,17.74,0,0,1-2.62-.64c-.72-.31-1.45-.62-2.18-.9a19.54,19.54,0,0,0-5.31-1.07,13.92,13.92,0,0,0-8.71,2.28,50.59,50.59,0,0,0-4.26,3.3c-3.31,2.74-6.31,5.85-9.61,8.62-6.72,5.66-13.51,11.21-20.34,16.71A178.56,178.56,0,0,1,930.8,61c-7.63,4.29-15.3,8.51-23,12.75-7.13,4-14.15,8.11-21.31,12s-14.45,7.41-21.9,10.68q0-.71-.06-1.42a34.35,34.35,0,0,0-1.52-8.22c-.69-2.12-1.7-4.15-2.59-6.19a39.4,39.4,0,0,0-2.75-4.85c-1.06-1.68-2.12-3.35-3.22-5-2.82-4.24-5.71-8.46-8.9-12.45l-3.67-4.6C840.6,52,839,50.56,837.58,49s-3.18-2.94-4.74-4.39-3.46-2.82-5.18-4.21a124.86,124.86,0,0,0-27.75-16.75c-2.43-1.09-4.92-2-7.4-3-1.88-.75-3.75-1.63-5.68-2.27l-6.46-2.15c-1.76-.58-3.52-1.26-5.31-1.75-5.22-1.41-10.41-2.9-15.69-4.07a170.21,170.21,0,0,0-36-4h-.6a173.11,173.11,0,0,0-17.62,1Zm-150.62,66-.5.39.5-.39Zm483.1,68.24-.51.07.51-.07Zm-39.21,38.75h0Zm-58.15,81.72.09,0h0l-.1,0Z"/><path class="cls-1" d="M937.94,255.93c-1.54,8-3,16.12-4.23,24.22q-1.88,12.53-3.46,25.08c-1.87,14.75-3.45,29.54-5.24,44.3-1.29,8.93-2.52,17.89-4.33,26.73-1,4.78-1.85,9.61-3,14.36s-2.13,9.73-3.39,14.53c-5.13,19.58-10.51,39.1-15.73,58.66-3.35,12.54-6.64,25.13-10.83,37.42l-3.95,11.54c-1.17,3.41-2.53,6.76-3.78,10.13-2.31,6.18-4.75,12.3-7.17,18.44-1.84,4.36-3.6,8.77-5.72,13L862,564.65c-1.23,2.44-2.72,4.75-4.1,7.1s-2.53,4.5-4,6.64l-6.5,9.78c-2.88,4.31-6,8.47-9,12.68l-5.22,6.55a164.16,164.16,0,0,1-11.32,12.73c-6.74,6.87-14.23,12.82-21.73,18.82-6.94,5.19-13.92,10.33-20.78,15.62-7.71,5.93-15.36,12-23.25,17.69-16.45,11.86-33.19,23.37-50.46,34-4.15,2.56-8.42,4.88-12.69,7.23s-8.52,4.38-12.84,6.49c-8.59,4.18-17.32,8.09-25.93,12.22-8.22,3.95-16.33,8.11-24.51,12.14q-14.37,7.09-28.83,14c-4.73,2.25-9.5,4.43-14.25,6.63-4,1.86-8.09,3.5-12.16,5.21l.9-.38-14.85,5.42c-1.47.54-3,1-4.48,1.42l-10,3.11c-4.58,1.42-9.23,2.61-13.84,3.89s-9.31,2.5-14,3.74c-18.33,4.89-36.63,9.85-54.78,15.39-9.07,2.76-18.09,5.63-27.2,8.27q-14.49,4.2-29.05,8.09-15,4-29.89,8.09c-9.35,2.56-18.76,4.85-28.19,7.11-9.92,2.37-19.89,4.45-29.88,6.47-9,1.82-18.08,3.06-27.15,4.35-14.44,1.81-28.86,3.54-43.38,4.62-6.92.51-13.86.79-20.79.94a206.86,206.86,0,0,1-27.93-.92c-12.12-1.91-23.73-5.72-35.06-10.38-5.46-2.35-10.85-4.83-16.14-7.5-6.15-3.11-12.1-6.6-17.94-10.26-7.44-4.66-14.52-9.87-21.62-15-3.53-2.56-7.09-5.06-10.57-7.69q-6.39-4.83-12.8-9.63L73.54,779.09c-3.69-3-7.13-6.42-10.66-9.65S56,762.78,52.68,759.38s-6.77-7-10-10.67c0,0,0,0,0,0,3.52,5.41,7.23,10.68,10.89,16,3.84,5.56,8,10.87,12.13,16.22l-.51-.67c2.93,3.8,6.1,7.38,9.24,11L79,796.55c1.28,1.47,2.72,2.82,4.07,4.21,3.32,3.42,6.56,6.92,10,10.24q6.34,6.14,12.72,12.24a225.28,225.28,0,0,0,27.53,22.44A186.28,186.28,0,0,0,169.84,865a112.63,112.63,0,0,0,17.79,5.49c3.55.78,7.14,1.31,10.74,1.78,3.36.44,6.78.89,10.18,1,4.6.15,9.22.45,13.83.37,5-.08,9.93-.14,14.89-.37,5.19-.24,10.36-.55,15.55-.93,9.24-.69,18.47-1.64,27.67-2.72,5.7-.67,11.4-1.31,17.09-2.07,4.8-.64,9.63-1.2,14.41-2,9.83-1.63,19.62-3.38,29.36-5.45,9.29-2,18.59-3.93,27.8-6.25,9.73-2.45,19.43-5.05,29.16-7.52l30.37-7.69c9.31-2.35,18.53-5.07,27.73-7.78q27.21-8,54.66-15.13c9.31-2.42,18.64-4.77,27.94-7.24,4.63-1.23,9.3-2.36,13.89-3.72l9.26-2.75c1.76-.52,3.55-1,5.28-1.6l14.89-5.26c2-.72,4-1.67,6-2.5l8.17-3.4c10-4.15,19.79-8.81,29.63-13.32,16.88-7.74,33.37-16.3,50.26-24,4.54-2.06,9.14-4,13.63-6.22l7.86-3.83c1.82-.89,3.7-1.69,5.48-2.68l7.16-4c1.79-1,3.66-1.92,5.39-3,4-2.54,8-5,11.9-7.65,17.24-11.83,34.43-23.7,50.73-36.8,7.9-6.35,15.68-12.84,23.55-19.23l11.43-9.3c3.84-3.12,7.52-6.4,11.25-9.65a171.67,171.67,0,0,0,21.6-22.95c3.58-4.52,6.84-9.31,10.23-14,1.16-1.61,2.17-3.34,3.25-5l4.57-7c1.08-1.66,2-3.42,3-5.13l4.29-7.23c1.07-1.81,1.94-3.77,2.91-5.63l3.69-7.17c1.08-2.09,1.88-4.38,2.81-6.55,1.24-2.9,2.67-5.8,3.74-8.77q2.47-6.85,4.95-13.69c1.72-4.75,3.15-9.64,4.72-14.44,3.08-9.42,5.76-19,8.43-28.49,1.32-4.71,2.39-9.5,3.55-14.24s2.14-9.38,3.18-14.07c2-8.9,3.88-17.81,5.87-26.7,2.09-9.35,4.27-18.69,6.14-28.08,2-9.85,3.92-19.74,5.23-29.7,1.26-9.54,2.59-19.09,3.3-28.7,1.31-17.85,2.13-35.73,3-53.61.9-17.54,2.56-35,4.65-52.45,0,0,0,0,0,0l0,0Z"/><path class="cls-1" d="M338.07,663.31c-.16.67-.3,1.36-.49,2a19.17,19.17,0,0,1-.79,2.14l0,0a65.37,65.37,0,0,1-4,7.33c-.91,1.54-2,3-3,4.48-1.91,2.88-4,5.63-6.05,8.42-2.34,3-4.76,6-7.29,8.8-2.67,3-5.45,5.91-8.31,8.74a199.14,199.14,0,0,1-17.64,15.37l0,0c-3,2.34-6.14,4.6-9.28,6.8q-2.26,1.58-4.55,3.14c-.57.39-1.14.8-1.73,1.17l-6.69,4.25L258.8,742c-1.28.82-2.54,1.67-3.84,2.46q-7.64,4.6-15.26,9.24l-8.77,5.37-2.46,1.51c-1.32.81-2.69,1.55-4,2.31a249.88,249.88,0,0,1-24.9,12.8c-3.44,1.43-7,2.67-10.5,3.84-1.74.58-3.5,1.13-5.25,1.68-1.06.33-2.1.69-3.16,1l-6.82,1.93q-8.68,2.46-17.35,4.95c-1.6.46-3.23.86-4.85,1.28l-10.87,2.9L119,799s0,0,0,0q11-2.4,21.93-4.88l11-2.5c1.63-.37,3.27-.72,4.89-1.12q8.75-2.18,17.5-4.41l6.87-1.74c.92-.24,1.83-.52,2.74-.78q2.87-.82,5.73-1.68c3.65-1.11,7.27-2.31,10.82-3.71a195.11,195.11,0,0,0,20.37-9.76c3.42-1.83,6.87-3.66,10.21-5.66q8.87-5.3,17.73-10.66c3.3-2,6.61-4,9.86-6.06q8.53-5.5,17.05-11c4-2.59,7.85-5.42,11.65-8.28a196,196,0,0,0,17.19-14.52,163.54,163.54,0,0,0,15.12-16.45c1.07-1.35,2.12-2.72,3.15-4.1.83-1.11,1.68-2.22,2.43-3.36l2.5-3.77c.77-1.17,1.6-2.32,2.32-3.53l2.84-4.81c.75-1.26,1.39-2.59,2.07-3.89.46-.9.9-1.8,1.3-2.74s.78-1.95,1.1-3a22.24,22.24,0,0,0,.7-3.39,0,0,0,0,0,0,0s0,0,0,0Z"/><path class="cls-1" d="M52.84,76.7A28.64,28.64,0,0,0,52,79.94a0,0,0,0,0,0,0,23.88,23.88,0,0,1,1-2.86,7,7,0,0,1,.48.94h0c.06.28.12.56.18.84h0c.2,2,.09,4.09.09,6.12,0,2.19,0,4.38,0,6.57q0,4.35,0,8.71c0,6.38.07,12.77.14,19.16.13,11.61.57,23.25,1.39,34.83.89,12.65,2,25.29,3.76,37.85.83,6,1.66,12.09,2.6,18.13Q63.2,220.13,65,230c1,5.5,2.23,11,3.58,16.4.7,2.84,1.36,5.7,2.15,8.53q1.51,5.41,3,10.81c1.57,5.51,3.3,11,5.07,16.44s3.69,11.12,5.8,16.59c4.73,12.25,9.69,24.4,15.07,36.38,1.21,2.71,2.57,5.34,3.92,8a60.65,60.65,0,0,0,10.93,15.58,42,42,0,0,0,9,6.53c1.48.85,3,1.69,4.52,2.45,3,1.48,6,2.92,9,4.22l1,.41s0,0,0,0a119.43,119.43,0,0,1-12.41-8.34,52.53,52.53,0,0,1-8.87-8.51,68.66,68.66,0,0,1-7.28-12.83c-1-2.54-2.15-5.06-3.06-7.63q-1.6-4.56-3.24-9.12c-2.16-6-4.12-12.12-6.2-18.16-3.8-11-7.5-22-10.66-33.24q-2.74-9.71-5.44-19.42c-.69-2.5-1.35-5-2-7.52-.72-2.85-1.51-5.68-2.16-8.54-1.49-6.59-3-13.18-4.41-19.79Q70.66,211.1,69.14,203c-1.28-6.86-2.56-13.7-3.75-20.57-1.12-6.44-2.1-12.89-3.09-19.35l.11.86c-.73-5.72-1.55-11.43-2.17-17.15-.72-6.65-1.41-13.29-2-19.94-1.09-11.89-2-23.79-2.91-35.69l-.56-7c-.08-.91-.16-1.82-.21-2.74a23.59,23.59,0,0,0-.33-2.69,4.94,4.94,0,0,0-1.05-2.07.17.17,0,0,0-.14-.08.16.16,0,0,0-.15.11Zm.84,2.1v0a.38.38,0,0,1,0,0Zm71.8,285,.08.06-.08-.06Z"/><path class="cls-1" d="M37,69l4.95,3.81,0,0c5,3.85,9.85,7.79,14.78,11.69,1.38,1.09,2.67,2.32,4,3.5L69,95.5c1.15,1,2.22,2.06,3.28,3.18l7.79,8.09c1.33,1.39,2.74,2.73,4,4.18l5.7,6.52c5.53,6.33,11.06,12.67,16.73,18.88a235.36,235.36,0,0,0,33.73,30.26c6.22,4.61,12.67,8.88,19.26,12.92,3.7,2.27,7.43,4.52,11.28,6.55l18.56,9.81c3.9,2.06,7.87,4,11.82,5.93l9.9,4.91c1.15.57,2.28,1.15,3.45,1.68l18.78,8.42c2.09.94,4.18,1.91,6.31,2.77q10.93,4.42,22.14,8.09c7.59,2.48,15.28,4.62,23,6.54,2.81.7,5.6,1.3,8.45,1.85l21.31,4.11c4.09.79,8.22,1.3,12.33,1.89,5.84.83,11.68,1.71,17.52,2.5q13.1,1.75,26.21,3.4l-.78-.11.85.12.19,0-.19,0q12.48,1.69,25,3.31,15.91,2.26,31.84,4.34c4.92.64,9.85,1.33,14.8,1.83l11.16,1.09c1.89.18,3.8.42,5.71.53q6.56.36,13.12.67a106.8,106.8,0,0,0,22.14-1.14,91.77,91.77,0,0,0,24.14-7.88c1.68-.78,3.29-1.62,4.91-2.51a40.47,40.47,0,0,0,5.14-3.42s0,0,0,0c-1.51.89-3,1.66-4.61,2.43l-3.6,1.45c-1.2.48-2.47.82-3.69,1.23a105.52,105.52,0,0,1-18.49,4.43,111,111,0,0,1-25.56.11q-6.83-.72-13.66-1.4-9.5-1.34-19-2.62l.56.07q-16-2.57-32.06-5c-11.73-1.8-23.47-3.42-35.22-5-9.38-1.25-18.77-2.31-28.17-3.4-8.77-1-17.52-2.2-26.27-3.31l-25.35-4.48c-7-1.24-14-3.07-20.88-4.94a333.5,333.5,0,0,1-32.27-10.7l-15.76-6.74c-3.83-1.64-7.66-3.26-11.43-5l-18.44-8.72c-4.49-2.12-8.87-4.46-13.3-6.7l-7.82-4c-2.67-1.35-5.28-2.79-7.89-4.25A270.81,270.81,0,0,1,132.6,156.6q-8.93-7-17.2-14.75c-5.62-5.25-10.78-11-16-16.55-4.18-4.44-8.23-9-12.34-13.52-3.39-3.72-7-7.2-10.6-10.75L73,97.59c-.49-.49-.95-1-1.47-1.46l-6.27-5.34-7-5.92c-1.2-1-2.51-1.94-3.78-2.88C48.68,77.61,42.86,73.26,37,69h0s0,0,0,0ZM240.48,213.67l.54.23-.54-.23Zm258.15,40.57-.16,0,.16,0ZM370.7,248h0Z"/><path class="cls-1" d="M731.12,25.42c-4.22.27-8.44.62-12.63,1.17l-10.33,1.35-8,1.05c-2.08.27-4.13.68-6.19,1.07l-10.89,2.05c-1.75.33-3.53.61-5.28,1l-17.77,4c-4.36,1-8.66,2.17-13,3.3s-8.76,2.14-13,3.55L616.3,49.77c-1.55.51-3,1.2-4.55,1.8l-10.18,4.09a224.44,224.44,0,0,0-28.84,13.89,164.77,164.77,0,0,0-18.6,12.53c-3.55,2.76-7.06,5.58-10.41,8.57-4.46,4-9,7.87-13.36,12-5.29,5-10.49,10-15.33,15.41a148.45,148.45,0,0,0-13.35,17.06,110.5,110.5,0,0,0-16.3,40.45,99.32,99.32,0,0,0-1.64,14.18,87.7,87.7,0,0,0,.8,14.49c.58,4.61,1.46,9.19,2.4,13.75a139.62,139.62,0,0,0,3.9,14.76,120.14,120.14,0,0,0,4.95,12.66,59.48,59.48,0,0,0,7.15,12c2.25,2.89,5.14,5.58,8.66,6.78a9.93,9.93,0,0,0,4.65.17,34.21,34.21,0,0,0,6.47-2s0,0,0,0a46.2,46.2,0,0,1-6.5,1.74h0a13.9,13.9,0,0,1-3.15,0h.06a13.53,13.53,0,0,1-2-.63l.07,0a16.09,16.09,0,0,1-2.5-1.53,26.77,26.77,0,0,1-3.88-4,52.77,52.77,0,0,1-6.17-11l0,0a122.94,122.94,0,0,1-7.94-30.58c-1.23-9.41-1.93-18.87-.78-28.33a110,110,0,0,1,7.35-26.32,113.27,113.27,0,0,1,6.39-12.67,125.59,125.59,0,0,1,8.42-12.46,193.25,193.25,0,0,1,16.06-17.78c3.83-3.8,7.77-7.5,11.82-11.05l9.32-8.15c3.43-3,6.94-5.88,10.53-8.68A172.09,172.09,0,0,1,579.73,78a230.88,230.88,0,0,1,21.2-10.25l15.81-6.17c4.26-1.66,8.66-2.92,13-4.31l8.69-2.77c1.26-.4,2.56-.69,3.84-1L660.38,49c2.85-.72,5.76-1.24,8.64-1.85l11.92-2.55c3.19-.68,6.45-1.15,9.67-1.73L701.12,41,719,38.8c5.48-.66,11-1,16.52-1.15a158.79,158.79,0,0,1,25.35,1,254.32,254.32,0,0,1,26.66,5.44c4.21,1.07,8.43,2.09,12.64,3.18s8.32,2.08,12.45,3.23l8.24,2.27a93.74,93.74,0,0,1,9.94,3.15,47.19,47.19,0,0,1,8,4.54,28.36,28.36,0,0,1,3.92,4,39.08,39.08,0,0,1,4,6.93,40,40,0,0,1,2.3,9.17c.26,2.16.48,4.34.56,6.51.1,2.65-.08,5.32-.24,8-.23,4-.62,8-1.06,12q-.62,5.54-1.31,11.08l0-.13c-.4,3-.82,5.94-1.31,8.91,0,0,0,0,0,0q2-7.54,3.89-15.13c1-4.26,2.11-8.5,3-12.78.71-3.35,1.34-6.75,1.76-10.15a66.76,66.76,0,0,0,.38-11,36.88,36.88,0,0,0-1.65-9.61,38,38,0,0,0-4.57-9.45,28.7,28.7,0,0,0-6.89-7.11,45.69,45.69,0,0,0-8.91-5.29c-3.76-1.66-7.65-3-11.54-4.3-2.31-.78-4.62-1.6-7-2.32-4.65-1.44-9.3-2.89-14-4.26-7.94-2.34-15.87-4.69-23.94-6.56a156.22,156.22,0,0,0-22.86-3.55c-3.4-.27-6.82-.38-10.23-.38-4.09,0-8.17.16-12.24.43ZM760,38.53l.44.06-.44-.06Zm89.18,42.15.06.41-.06-.41ZM516.17,264h0Z"/><path class="cls-1" d="M1004.92,47.46c-6.17,2.34-12.2,5-18.23,7.69-5.76,2.56-11.37,5.43-17,8.3-1.26.64-2.49,1.38-3.73,2.07l-5.31,3c-2.67,1.5-5.33,3-8,4.57-5.45,3.13-11,6.14-16.44,9.21-2.43,1.37-4.92,2.62-7.38,3.93q-4.8,2.57-9.59,5.17c-2,1.11-4.1,2.11-6.14,3.16q-5.89,3-11.76,6.11c-4.68,2.45-9.45,4.71-14.21,7q-5.88,2.88-11.76,5.79c-1.43.7-2.84,1.46-4.29,2.09q-7.31,3.21-14.61,6.45c-4.17,1.85-8.3,3.79-12.5,5.57l.08,0c-2.54,1.07-5.09,2.09-7.64,3.14,0,0,0,0,0,0,4-1.33,8.08-2.64,12.06-4.12s8-3,12-4.49c4.9-1.85,9.85-3.59,14.65-5.7q11.26-4.94,22.47-10c5.17-2.33,10.21-4.94,15.28-7.47l8.12-4.09c2.54-1.29,5-2.73,7.52-4.1l9.33-5.16c2.66-1.48,5.26-3.07,7.88-4.61,5.31-3.12,10.55-6.35,15.78-9.59,2.93-1.82,5.89-3.59,8.83-5.39,2.65-1.63,5.4-3.12,8.09-4.68,4.1-2.36,8.28-4.57,12.45-6.79,4.61-2.45,9.24-4.85,14-7.07,0,0,0,0,0,0Z"/><path class="cls-1" d="M1006.44,46.32q-8.78,19-17.48,38c-1.52,3.33-3.15,6.62-4.74,9.92l-4.29,8.9c-.51,1.07-1,2.14-1.55,3.19q-4.17,7.88-8.27,15.79c-.53,1-1.07,2-1.64,3q-2.35,4.15-4.68,8.32-1.83,3.26-3.65,6.54c-.19.34-.4.67-.61,1l-2.11,3.44q-2.54,4.14-5.06,8.3c-.8,1.31-1.64,2.59-2.49,3.86q-2.34,3.53-4.66,7.07c-.87,1.32-1.79,2.59-2.7,3.87-1.16,1.63-2.28,3.3-3.48,4.9-1.36,1.8-2.68,3.63-4.05,5.42h0l0,0-.06.08h0q-1.64,2.11-3.26,4.23l.05-.07-2.56,3.15c-1.15,1.41-2.42,2.75-3.66,4.07,0,0,0,0,0,0a107.23,107.23,0,0,0,10.32-10.95l2.82-3.44c.59-.72,1.2-1.43,1.75-2.17q2.57-3.37,5.11-6.75c1.17-1.55,2.24-3.18,3.35-4.78,1.44-2.08,2.87-4.17,4.3-6.24.38-.55.72-1.14,1.07-1.7l2.48-3.94q2.4-3.81,4.77-7.61c.72-1.16,1.38-2.36,2.05-3.55q2.51-4.4,5-8.82c.9-1.58,1.85-3.15,2.68-4.76q1.48-2.84,2.93-5.69,2.33-4.54,4.64-9.08c.61-1.19,1.24-2.37,1.8-3.58q3.72-8,7.39-16.08c1.43-3.13,2.77-6.29,4.12-9.46l2-4.69,1-2.38.06-.15,0,0,1-2.49,1.91-4.52,2.26-5.41v0c2.11-4.91,4.08-9.88,6.1-14.83,0,0,0,0,0,0ZM934.92,178l.05-.07v0l-.07.08Zm65.46-116.85v0Z"/><path class="cls-1" d="M1047.4,132.29c-3.61,1.51-7.27,2.82-10.94,4.18q-5.73,2.14-11.42,4.38c-6.38,2.51-12.71,5.14-19,7.77-13.69,5.71-27.29,11.61-40.74,17.85-6,2.76-11.9,5.59-17.87,8.35q-11.26,5.22-22.44,10.6c-3.3,1.57-6.61,3.11-9.92,4.68a0,0,0,0,0,0,0q23.42-8.64,46.44-18.3,20.55-8.66,40.8-18,10.9-5,21.73-10.22c2.85-1.36,5.7-2.73,8.55-4.07,3.34-1.57,6.7-3.1,10-4.76,1.62-.81,3.23-1.63,4.83-2.48a0,0,0,0,0,0,0Z"/><path class="cls-1" d="M1046.85,134a139.67,139.67,0,0,0-22.44,12.63,180.36,180.36,0,0,0-18.14,15.26c-2.85,2.7-5.78,5.34-8.48,8.19q-4.85,5.12-9.62,10.32c-.88,1-1.66,2-2.48,3q-2.91,3.59-5.77,7.2-3.25,4.1-6.39,8.28-3.33,4.46-6.56,9c-1,1.41-2,2.86-3,4.24q-5.14,6.66-10.14,13.44-5.46,6.48-10.83,13c-1.86,2.26-3.86,4.41-5.77,6.61-1.58,1.83-3.17,3.65-4.74,5.5q-6,7-11.74,14.24c-1.71,2.15-3.36,4.37-4.89,6.65a50.35,50.35,0,0,0-3.46,5.62c-1.29,2.61-1.13,5.56-.92,8.37,0,0,0,0,0,0,.05-.77.14-1.52.24-2.29,0,0,0,0,0,.06a17.59,17.59,0,0,1,.93-3.6,17.8,17.8,0,0,1,1.63-2.64c5.41-6.21,11.63-11.73,17.78-17.19,3-2.65,6-5.31,9-8s5.94-5.17,8.76-7.9q5.52-5.35,11-10.76c2.6-2.58,4.92-5.48,7.32-8.25,2.24-2.57,4.52-5.11,6.61-7.81q5.2-6.72,10.23-13.59c3.91-5.37,7.88-10.71,11.74-16.12,3.3-4.16,6.47-8.46,9.89-12.52q6.69-7.94,13.36-15.91a134.55,134.55,0,0,1,11.71-12.33c4.88-4.51,10-8.7,15.29-12.77,0,0,0,0,0,0ZM912.67,279.68l0,0,0,0Z"/><path class="cls-1" d="M937.83,253.84v.07h0l0,.09q0,.23.07.45a59.56,59.56,0,0,1,.06,6.7c0,2.22-.08,4.45-.12,6.67-.06,3.42-.38,6.86-.58,10.27-.38,6.33-1.13,12.64-1.78,19-.79,5.41-1.61,10.81-2.42,16.22-.32,2.05-.77,4.09-1.15,6.14L930,329.71c-1,5.22-2.27,10.38-3.42,15.56s-2.51,10.14-3.81,15.2c-2.65,10.36-5.66,20.64-8.49,31-2.73,9.94-5.31,19.92-7.94,29.9-.66,2.51-1.41,5-2.13,7.49-.58,2-1.13,4.09-1.76,6.12-1.67,5.3-3.31,10.6-5.11,15.85q-2.81,8.22-5.78,16.35c-1.8,4.94-3.73,9.82-5.63,14.72-1.3,3.34-2.72,6.63-4.09,9.94-1.95,4.47-3.87,8.93-5.93,13.35-1.06,2.28-2.08,4.6-3.19,6.86l-4.42,8.89c-2.23,4.48-4.64,8.85-7,13.27-1.28,2.4-2.67,4.74-4,7.1-1,1.81-2,3.63-3.07,5.42-2.48,4.18-4.93,8.37-7.48,12.5l-4,6.44c-1.34,2.17-2.8,4.29-4.2,6.42-2.61,4-5.41,7.85-8.17,11.74-1.09,1.53-2.27,3-3.41,4.48l-3.55,4.63c-3,3.71-5.95,7.53-9.11,11.12l-7.07,8c-1.34,1.51-2.74,2.94-4.15,4.4l-6,6.25c-2,2.09-4.24,4.05-6.35,6.08-3.79,3.65-7.71,7.16-11.59,10.71-1.84,1.69-3.8,3.26-5.7,4.89-1.65,1.41-3.28,2.87-5,4.25-4.06,3.3-8.11,6.63-12.17,9.93s-8.29,6.66-12.34,10.1-8.18,6.81-12.16,10.35q-9.94,8.87-19.93,17.67c-2.57,2.26-5.12,4.54-7.76,6.73l-10.69,8.82q-4.88,3.68-9.77,7.33c-3,2.25-6.11,4.38-9.19,6.55-6.43,4.54-12.88,9.05-19.45,13.39a0,0,0,0,0,0,0c5.21-3,10.38-6.08,15.56-9.13l5.87-3.47c2.42-1.43,4.88-2.81,7.27-4.29l7.52-4.65c1.69-1,3.41-2,5.05-3.15l8.66-5.84c1.51-1,3.05-2,4.53-3.08q14.08-10.17,28.09-20.45c4.32-3.18,8.77-6.21,13.15-9.33s8.76-6.08,13.13-9.13c4.21-2.94,8.37-6,12.54-8.94,2-1.45,4-3,5.93-4.54,2.13-1.64,4.32-3.23,6.39-4.95,4.2-3.5,8.4-7,12.45-10.64,2-1.78,4-3.51,5.9-5.37l6.74-6.68c3.89-3.84,7.5-7.93,11.19-12,1.46-1.6,2.81-3.29,4.21-4.95,1.66-2,3.39-3.9,5-5.93,3.56-4.51,7.2-9,10.6-13.6,1.68-2.28,3.45-4.52,5-6.86q2.6-3.85,5.22-7.69,3.87-5.71,7.5-11.59c2.87-4.66,5.74-9.3,8.48-14,1.36-2.35,2.79-4.67,4.09-7.06,1.43-2.65,2.84-5.31,4.27-8,2.5-4.67,4.78-9.45,7.12-14.21,1.11-2.26,2.06-4.61,3.08-6.92,1.12-2.51,2.22-5,3.25-7.58l3.52-8.69c1.07-2.67,2-5.4,3-8.09,1.79-4.75,3.4-9.57,5.07-14.36,1-2.74,1.77-5.54,2.65-8.31.61-1.9,1.21-3.8,1.77-5.71q1.45-4.94,2.89-9.88c.63-2.14,1.14-4.32,1.69-6.47.6-2.34,1.27-4.66,1.8-7q1.09-4.87,2.19-9.75c2.26-10.07,4.21-20.23,6.2-30.36,1-5.06,2.05-10.12,3-15.18s2.14-10.34,3.07-15.53q1.46-8.16,2.9-16.33c.44-2.5.73-5,1.11-7.54q.7-4.75,1.4-9.51c.29-1.95.48-3.92.7-5.88l1.26-10.87c.6-5.18.9-10.4,1.32-15.59s.53-10.55.74-15.83.11-10.44.13-15.65c0-1.85-.12-3.7-.19-5.54-.06-1.45-.11-2.9-.16-4.35,0-.35,0-.7-.05-1a25,25,0,0,0,1.14,2.61c.72,1.41,1.45,2.81,2.3,4.15a30.26,30.26,0,0,0,4.29,4.91,0,0,0,1,0,0,0c-1.07-1.14-2.16-2.26-3.13-3.49h0a38,38,0,0,1-3.4-6h0c-.48-1.2-.94-2.39-1.3-3.62a8.31,8.31,0,0,0-.49-2.82.3.3,0,0,0-.28-.17.2.2,0,0,0-.22.24Zm.08.52h0v0ZM822.83,593.68l-.35.46.35-.46Zm120.7-327.44h0Z"/><path class="cls-1" d="M564.6,790.79c-6.9,2.22-13.82,4.41-20.66,6.81-5.49,1.94-11,3.8-16.44,5.94-12.29,4.83-24.43,10-36.54,15.27-10.74,4.66-21.5,9.28-32.2,14-5.09,2.1-10.14,4.34-15.31,6.24-6.1,2.24-12.17,4.52-18.32,6.6-12.34,4.19-24.69,8.36-37,12.68-10.87,3.83-21.81,7.55-33,10.51l-11.14,3c-2.64.7-5.33,1.26-8,1.89s-5.11,1.28-7.7,1.79l-11.76,2.3c-6.14,1.2-12.38,1.92-18.58,2.8l-9.36.92c-2.67.26-5.34.62-8,.78-6,.35-11.92.83-17.88,1q-18.68.53-37.37.75c-7,.1-14,.19-21,.23-3.79,0-7.59.09-11.39,0-5.14-.05-10.27-.09-15.4-.38-4.88-.27-9.76-.77-14.61-1.39a181.11,181.11,0,0,1-44.09-11.86A227.12,227.12,0,0,1,97.21,860a164.29,164.29,0,0,1-19.45-12.58,98.06,98.06,0,0,1-9.1-8,106.56,106.56,0,0,1-7.89-9.05,51.44,51.44,0,0,1-6.14-10.26,68.4,68.4,0,0,1-3.45-12.91c-.1-.8-.18-1.61-.26-2.41,0,0,0,0,0,0a57.7,57.7,0,0,0,.78,10.12c.32,2,.64,3.9,1.14,5.81a35,35,0,0,0,1.84,5.14,68.75,68.75,0,0,0,6.68,11.52,86.33,86.33,0,0,0,7.35,9.26,101.37,101.37,0,0,0,9.92,9.25A158.25,158.25,0,0,0,99.78,870.4a166.7,166.7,0,0,0,48.93,19.19,195,195,0,0,0,46.77,3.93q18.57-.49,37.13-1.13c12.81-.42,25.62-.8,38.41-1.7,3.28-.23,6.56-.46,9.84-.7s6.3-.67,9.44-1c3-.31,5.94-.53,8.9-1l10.49-1.56c2.37-.35,4.75-.63,7.1-1.1L328.7,883c5.67-1.14,11.29-2.59,16.92-3.92,3-.72,6-1.6,9-2.4,2.39-.64,4.8-1.21,7.15-1.94,6-1.85,12.07-3.64,18-5.67q18.53-6.3,37.11-12.5c5.34-1.77,10.72-3.45,16-5.39,5.62-2.06,11.31-4,16.84-6.31,6.38-2.65,12.74-5.31,19.05-8.11q9.09-4,18.13-8.14c10.43-4.76,20.68-9.89,31-14.94,5.62-2.76,11.2-5.58,16.83-8.3,5.91-2.86,11.81-5.75,17.72-8.62q6.08-3,12.14-5.93s0,0,0,0Zm-510,29.15.06.13-.06-.13Zm.06.13,0,.1,0-.1Z"/><path class="cls-1" d="M392.85,664.66c-.19.7-.41,1.4-.66,2.08l0,0a33.87,33.87,0,0,1-3.53,5.71,102.57,102.57,0,0,1-17.34,17.35A116.27,116.27,0,0,1,347.2,703.6c-11.4,4.68-23.25,8-35,11.65-8.26,2.58-16.59,4.92-24.86,7.44s-16.42,5.17-24.61,7.83c-7.63,2.47-15.14,5.28-22.66,8-6.29,2.32-12.52,4.71-18.71,7.27-8.62,3.58-17.23,7.18-25.8,10.88q-16.12,6.66-32.12,13.64c-8.84,3.4-17.67,6.82-26.48,10.33-2.36.94-4.69,2-7.11,2.81q-6,2-12.09,4-8.74,2.91-17.46,5.9c-2.65.91-5.3,2-8,2.76q-14.07,3.91-28.09,8-5,1.45-10,2.93c-5,1.48-10,2.64-15,3.93,0,0,0,0,0,0,6-.44,11.89-.85,17.81-1.58q8.28-1,16.55-2.14Q82,806.19,90.45,805c1.89-.26,3.78-.5,5.65-.89q15.94-3.35,31.83-7c2.17-.5,4.4-.9,6.53-1.55q6.78-2.06,13.53-4.17,7.23-2.26,14.44-4.57c2-.64,4-1.2,6-1.94Q181.24,780.08,194,775c13.13-5.17,26.05-10.82,39-16.42q13.17-5.13,26.26-10.45c7.6-3.1,15.31-5.88,23-8.83s15.45-5.87,23.16-8.82c8.13-3.1,16.19-6.35,24.25-9.64,3.38-1.38,6.75-2.74,10.06-4.27A137.91,137.91,0,0,0,363.36,703,91.5,91.5,0,0,0,382,684.92a112.12,112.12,0,0,0,6.51-9.52,49.22,49.22,0,0,0,3-5.76,18.39,18.39,0,0,0,1.36-5,0,0,0,0,0,0,0l0,0Zm-4.09,7.66,0,0,0,0ZM348.17,703.2l-.91.38.91-.38Z"/><path class="cls-1" d="M75.05,546.35a33.58,33.58,0,0,0-7,10.52c-2.23,5.37-2.68,11.14-2.52,16.91a64.35,64.35,0,0,0,10.35,32.41c6.4,10.13,14.91,18.88,23.84,26.78a181.23,181.23,0,0,0,29.63,21.28c10.49,6,21.61,11,32.61,16,6.95,3.18,13.92,6.3,20.94,9.3,5.76,2.47,11.52,4.92,17.3,7.33a190.2,190.2,0,0,0,30.18,9.71,279.85,279.85,0,0,0,36.81,5.65,126.08,126.08,0,0,0,17.4.55c5-.21,9.94-.75,14.85-1.43l15-2.07c4-.56,7.94-1.38,11.89-2.09,7.89-1.43,15.76-3,23.6-4.69q14.25-3.05,28.47-6.31a0,0,0,0,0,0,0q-23.71,1.37-47.42,2.73c-2.9.16-5.82.19-8.73.29s-5.86.29-8.79.25c-10.41-.11-20.84,0-31.2-1.16a230.9,230.9,0,0,1-28.31-6.3,247,247,0,0,1-28.42-9.74c-13.06-5.65-25.69-12.28-38.64-18.19-11-5-22.12-9.76-33.31-14.36-4.18-1.79-8.36-3.58-12.49-5.47-5.2-2.39-10.27-5-15.27-7.82a226.54,226.54,0,0,1-27-17.69,104.11,104.11,0,0,1-17-16.45A67.11,67.11,0,0,1,74.5,580a66.21,66.21,0,0,1-4-13.92,36.53,36.53,0,0,1-.13-7.43,39,39,0,0,1,2.31-8,30.55,30.55,0,0,1,2.37-4.27s0,0,0,0Zm-2.31,4.21,0,.08,0-.08Z"/><path class="cls-1" d="M288,519.91c-7.14,3.76-14.58,6.9-21.93,10.22q-12.3,5.57-24.48,11.41c-7.27,3.49-14.44,7.2-21.6,10.9-2.9,1.49-5.84,2.88-8.76,4.32q-7.12,3.54-14.19,7.18c-3.81,2-7.73,3.7-11.62,5.48q-10.88,5-21.91,9.69l1.6-.68c-7.83,3.3-15.72,6.47-23.74,9.3-8.17,2.88-16.49,5.33-24.84,7.6a449.63,449.63,0,0,1-50.31,10.44s0,0,0,0c2.92.17,5.84.37,8.76.45s5.72.07,8.58.07c6.18,0,12.36-.19,18.52-.6a251.89,251.89,0,0,0,35.45-5,224.12,224.12,0,0,0,33.77-10.38c5.37-2.06,10.67-4.33,15.88-6.76,2.56-1.2,5.08-2.46,7.59-3.73s5.07-2.53,7.49-4q11.39-6.72,22.61-13.72c6.41-4,12.58-8.37,18.87-12.52,7.68-5.06,15.33-10.17,23-15.24,7.15-4.72,14.37-9.37,21.25-14.48,0,0,0,0,0,0Z"/><path class="cls-1" d="M29.57,305.17a68.39,68.39,0,0,0,1.24,11.66c.62,3.27,1.45,6.5,2.3,9.72,1.82,6.87,3.63,13.76,5.7,20.57,2.12,7,4.19,13.93,6.58,20.8Q47.83,375,50.31,382c.84,2.37,1.83,4.68,2.82,7q3,7.18,6.13,14.35c.91,2.11,1.76,4.25,2.83,6.29q3.34,6.4,6.73,12.78c1.83,3.45,3.62,6.92,5.6,10.29q3.83,6.52,8,12.83c3.14,4.76,6.55,9.32,10,13.83,3.33,4.28,6.82,8.4,10.45,12.43,7.4,8.2,14.81,16.33,22.62,24.14a192.34,192.34,0,0,0,37.73,29,125,125,0,0,0,21.23,10.1,144.76,144.76,0,0,0,24.71,6.27,170.15,170.15,0,0,0,18,2.26l10.83.72c4.56.3,9.1.4,13.67.3a107.58,107.58,0,0,0,12-1,78.17,78.17,0,0,0,12.11-2.85s0,0,0,0c-2.45.49-4.9.88-7.37,1.22-8.83,1.07-17.73.38-26.52-.73l-14.39-2.38c-4.74-.79-9.47-2-14.12-3.16a146.19,146.19,0,0,1-18.87-6.22,127.82,127.82,0,0,1-15.25-7.71,155.86,155.86,0,0,1-14.6-10.11,220.58,220.58,0,0,1-24.23-21.81c-5.27-5.53-10.33-11.26-15.32-17Q119.58,466.39,114,460q-6.35-7.24-12.29-14.81-4.41-5.77-8.57-11.71c-2.45-3.5-4.95-7-7.2-10.63s-4.32-7-6.5-10.44-4.36-6.95-6.56-10.41c-.34-.54-.63-1.12-.93-1.69q-1.6-3-3.22-6-3.49-6.43-7-12.84c-1.12-2-2.08-4.14-3.09-6.23-3.28-6.83-6.64-13.62-9.76-20.53-4.55-10.1-9-20.22-13.36-30.41-1.24-3-2.46-6.07-3.54-9.17a53.83,53.83,0,0,1-2.33-10h0s0,0,0,0Z"/><path class="cls-1" d="M20.72,313.46a4.65,4.65,0,0,0-2.11,2.16,5.74,5.74,0,0,0-.49,3.7,28.91,28.91,0,0,0,2.42,7.29c1.94,4.2,5.14,7.93,8.28,11.27a77.4,77.4,0,0,0,12.52,10.38C50.6,354.64,61.15,359,71.9,362.14a128.3,128.3,0,0,0,15.9,3.53c4.24.67,8.55,1.31,12.83,1.57,8.18.52,16.37,1.05,24.56,1,4,0,8.12,0,12.15-.2s8.12-.36,12.14-.84c3.27-.39,6.55-.75,9.81-1.26a56.8,56.8,0,0,0,9.67-2.29,32.72,32.72,0,0,0,8.12-4.41,0,0,0,0,0,0,0c-.69.33-1.38.64-2.09.94a36,36,0,0,1-7.47,1.93c-5.67.55-11.36.12-17-.12-3.36-.15-6.72-.49-10.07-.75-6.61-.51-13.2-1.34-19.81-2q-9.92-1.37-19.88-2.54C92.44,355.39,84.19,354,76,352.19a149.94,149.94,0,0,1-23.81-7.4,99.72,99.72,0,0,1-19.94-11.25,55.37,55.37,0,0,1-8.42-8,34.26,34.26,0,0,1-3.55-5.84l.11.26a9.8,9.8,0,0,1-.69-2.16c0-.34,0-.68-.06-1,0,.06,0,.13,0,.19a4.76,4.76,0,0,1,.49-1.75l-.05.13.46-.75.49-.48.58-.19c.84,0,1.68,0,2.53,0,0,0,0,0,0,0a16.32,16.32,0,0,0-2.68-.52,2.33,2.33,0,0,0-.73.11Z"/><path class="cls-1" d="M89.58,32.82c-3.75,8.38-7,17-10.42,25.5-4.39,11-8.71,22-12.45,33.26a241.92,241.92,0,0,0-8.56,36A373.17,373.17,0,0,0,54,165.7c-.26,3.92-.29,7.84-.36,11.77q-.15,9.19-.21,18.39,0,5,0,10c0,4.48.47,9,.82,13.47q.67,8.92,1.82,17.78a253.35,253.35,0,0,0,7.24,36A255.17,255.17,0,0,0,76.2,308.25,178.83,178.83,0,0,0,92.52,337a142.61,142.61,0,0,0,21.89,25.51,94,94,0,0,0,27,16.94,106.88,106.88,0,0,0,15.9,5.18,149.66,149.66,0,0,0,15.37,2.74s0,0,0,0l-2.61-1.09.1,0a133.27,133.27,0,0,1-27.6-15.92,104.07,104.07,0,0,1-17.11-17.18C116.59,341.37,109.8,328,104,314.49a323.61,323.61,0,0,1-13.76-42.57A413.34,413.34,0,0,1,81,226.26q-1.7-13.23-2.64-26.54-.86-12.09-1.94-24.17c-.81-9.25-1.32-18.52-1.63-27.81a321,321,0,0,1,1.88-51C78.44,84.38,80.94,72.17,83.49,60c1.89-9.08,3.68-18.22,6.13-27.16a0,0,0,0,0,0,0Z"/><path class="cls-1" d="M54.25,91.13c2.89,3.5,5.75,7,8.71,10.47l5.9,6.86,11.61,13.48c1.74,2,3.59,3.94,5.4,5.89q3.88,4.19,7.91,8.23a183.76,183.76,0,0,0,16.53,14.49c11.47,9,24.2,16.2,37.34,22.41,4,1.9,8.06,3.79,12.19,5.45l8.35,3.35,16,6.38c1.52.61,3.08,1.12,4.61,1.69l10.33,3.75q6.19,2.24,12.39,4.49l29.66,10.79,17.95,6.55c3.81,1.38,7.58,2.86,11.43,4.14l18.54,6.19,8.54,2.85c3.75,1.25,7.57,2.26,11.38,3.3a337.53,337.53,0,0,0,91.1,12c7.78,0,15.54-.44,23.29-1,7.59-.57,15.14-1.51,22.67-2.56,6.65-.94,13.26-2.18,19.87-3.36,2-.35,4-.64,5.93-1.06l7.79-1.68q7.9-1.7,15.75-3.58c5.15-1.23,10.3-2.49,15.45-3.71,5.92-1.4,11.83-2.82,17.82-3.93,0,0,0,0,0,0-10.09,1-20.1,2.89-30.07,4.73-5.11.94-10.22,1.92-15.34,2.81-4.86.84-9.7,1.79-14.59,2.48q-9.39,1.32-18.78,2.7c-7.89.93-15.78,1.76-23.72,2.31-8.36.57-16.75.83-25.13.84a366.83,366.83,0,0,1-48.89-3.35l.24,0c-7.46-1-14.9-2.23-22.29-3.72-7.55-1.51-15-3.37-22.46-5.39-3.17-.86-6.32-1.73-9.44-2.75l-9.13-3-17.7-5.8c-1-.33-2-.7-3-1.07L259,210.45Q229,199.65,198.92,189q-6.18-2.2-12.37-4.36c-1.91-.67-3.8-1.41-5.7-2.13l-14.14-5.37L161.23,175c-1.87-.71-3.72-1.49-5.57-2.27l.31.13c-4.14-1.76-8.26-3.56-12.33-5.48s-8-3.93-11.88-6.05-7.64-4.32-11.35-6.68c-3.91-2.49-7.66-5.19-11.34-8-4.15-3.22-8.19-6.59-12.07-10.12s-7.6-7.29-11.28-11.06c-1.7-1.74-3.41-3.47-5.05-5.27l-4.16-4.55L65.74,103.89c-3.87-4.22-7.66-8.51-11.46-12.79h0s0,0,0,0Zm101.42,81.63-.12,0,.12,0Z"/><path class="cls-1" d="M724.42,0c-11.77,1.34-23.49,3.21-35.2,4.95-11.54,1.71-23.07,3.5-34.6,5.29-3.21.5-6.39,1.08-9.59,1.66-7.91,1.43-15.81,3-23.61,4.93-15.25,3.88-29.95,9.67-44.4,15.81-7.18,3-14.28,6.26-21.18,9.88-6.62,3.47-13,7.41-19.3,11.5a139.39,139.39,0,0,0-17.73,13.53,111.8,111.8,0,0,0-14.64,16.58,90.8,90.8,0,0,0-10.8,19.43,121,121,0,0,0-6.15,21.7,145.21,145.21,0,0,0-2.37,23.44c-.31,8.19-.08,16.35.41,24.53.42,7,1.09,13.93,1.76,20.89.44,4.68.78,9.39,1.46,14q1.12,7.67,2.27,15.33.58,3.86,1.18,7.71c.14.91.24,1.84.43,2.74q1.42,6.69,2.87,13.38.81,3.73,1.63,7.47c.56,2.59,1.26,5.14,1.94,7.71a0,0,0,1,0,0,0c-.25-1.77-.52-3.53-.77-5.29v0c-.79-6.17-1.32-12.37-2-18.56-.19-1.78-.49-3.58-.59-5.36q-.2-3.56-.41-7.12-.59-9.89-1.25-19.78c-.1-1.43-.09-2.87-.12-4.31q-.15-5.7-.32-11.41c-.16-5.16-.36-10.31-.42-15.47-.09-6.95-.14-13.89.2-20.82.31-6.32.81-12.66,1.62-18.94a134.09,134.09,0,0,1,3.07-14.75,115.71,115.71,0,0,1,4.82-14.63,96.06,96.06,0,0,1,11.58-19.29,117.23,117.23,0,0,1,8.26-9.42,100,100,0,0,1,9.83-8.71c4.81-3.66,9.84-7,15-10.19,5.42-3.37,10.92-6.58,16.57-9.55s11.7-5.83,17.65-8.54,11.93-5.4,17.95-8l-1,.41c7.24-3,14.57-5.88,22-8.37s15.39-4.54,23.18-6.47c3.8-.94,7.58-1.9,11.4-2.74l9.68-2.14q17.52-3.89,35-7.81C708,3.47,716.19,1.6,724.42,0c0,0,0,0,0,0ZM503,105.28l-.2.48.2-.48Zm-4.93,152a.38.38,0,0,0,0-.07v.07Z"/></g></g></svg>